# https://github.com/mikedh/trimesh
v -0.04364537 0.00946438 -0.00049500
v -0.04364537 0.01641327 -0.00049500
v -0.01520738 0.00946438 -0.00049500
v -0.04454657 0.00946438 -0.00046704
v -0.01520738 0.01641327 -0.00049500
v -0.04454657 0.01641327 -0.00046704
v -0.01520738 0.00946438 0.00950908
v -0.04524321 0.00946438 -0.00006959
v -0.01520738 0.01641327 0.01361537
v -0.04524321 0.01641327 -0.00006959
v -0.02089913 0.01640987 0.01990861
v -0.02473217 0.00946438 0.01990861
v -0.04541219 0.00946438 0.00048963
v -0.04534400 0.01641327 0.00026395
v -0.02088727 0.01641327 0.01989263
v -0.02242286 0.01641327 0.01990861
v -0.04549223 0.00946438 0.01990861
v -0.04548926 0.00946438 0.00075127
v -0.04548926 0.01641327 0.00075127
v -0.04549223 0.01641327 0.01990861
v -0.04549223 0.00946438 0.01531900
v -0.04549223 0.01641327 0.01531900
f 1 2 5
f 1 5 3
f 1 3 7
f 1 7 12
f 1 12 17
f 1 17 21
f 1 21 18
f 1 18 13
f 1 13 8
f 1 8 4
f 1 4 6
f 1 6 2
f 2 6 10
f 2 10 14
f 2 14 19
f 2 19 22
f 2 22 20
f 2 20 16
f 2 16 15
f 2 15 9
f 2 9 5
f 3 5 9
f 3 9 7
f 4 8 10
f 4 10 6
f 7 9 11
f 7 11 12
f 8 13 14
f 8 14 10
f 9 15 11
f 11 16 20
f 11 20 17
f 11 17 12
f 11 15 16
f 13 18 19
f 13 19 14
f 17 20 22
f 17 22 21
f 18 21 22
f 18 22 19

