# https://github.com/mikedh/trimesh
v -0.00723284 0.03944903 0.03349500
v -0.00723284 0.04034867 0.03346839
v -0.01520660 0.03944903 0.03349500
v -0.00723284 0.03494865 0.03349500
v -0.00723284 0.04124831 0.03337473
v -0.01520660 0.04089110 0.03341198
v -0.01520660 0.04034867 0.03346839
v -0.01520660 0.03279437 0.03349500
v -0.00723284 0.03446796 0.03348116
v -0.01304982 0.03315158 0.03349500
v -0.01484987 0.03225194 0.03349393
v -0.01520660 0.03189474 0.03348968
v -0.01520660 0.04124831 0.03337473
v -0.00723284 0.04214795 0.03314379
v -0.01520660 0.03225194 0.03349393
v -0.00723284 0.03405122 0.03346414
v -0.01520660 0.03135010 0.03346946
v -0.01520660 0.04214795 0.03314379
v -0.00723284 0.04247428 0.03300330
v -0.00723284 0.03356832 0.03341731
v -0.01520660 0.03099289 0.03344604
v -0.01520660 0.04257130 0.03296073
v -0.00723284 0.04285134 0.03283940
v -0.01520660 0.04285134 0.03283940
v -0.01520660 0.03045046 0.03338431
v -0.00723284 0.03315158 0.03336303
v -0.01520660 0.04312255 0.03267869
v -0.00723284 0.04330116 0.03257226
v -0.01520660 0.03009326 0.03332258
v -0.01520660 0.02955083 0.03319593
v -0.00723284 0.03266869 0.03324596
v -0.01520660 0.04330116 0.03257226
v -0.00723284 0.04356796 0.03236366
v -0.00723284 0.03225194 0.03313101
v -0.01520660 0.02919362 0.03308525
v -0.01520660 0.04364734 0.03230087
v -0.01520660 0.04387445 0.03212207
v -0.00723284 0.04387445 0.03212207
v -0.00723284 0.03185284 0.03296498
v -0.01520660 0.02865340 0.03287771
v -0.01520660 0.02846377 0.03280215
v -0.00723284 0.04408393 0.03193476
v -0.01520660 0.04414567 0.03187835
v -0.00723284 0.03155076 0.03283408
v -0.01520660 0.02831603 0.03273084
v -0.01520660 0.04432427 0.03171764
v -0.00723284 0.04432427 0.03171764
v -0.00723284 0.03131041 0.03270104
v -0.01520660 0.02822342 0.03268508
v -0.01520660 0.04453816 0.03144625
v -0.00723284 0.04467707 0.03126745
v -0.00723284 0.03110094 0.03257120
v -0.01520660 0.02771407 0.03234663
v -0.01520660 0.04467707 0.03126745
v -0.00723284 0.04512689 0.03055757
v -0.01520660 0.04494828 0.03083960
v -0.00723284 0.03075475 0.03230832
v -0.01520660 0.02745609 0.03216890
v -0.01520660 0.02711652 0.03192411
v -0.01520660 0.04512689 0.03055757
v -0.00723284 0.04534739 0.03010737
v -0.00723284 0.03047913 0.03209440
v -0.01520660 0.02700627 0.03182513
v -0.01520660 0.04534739 0.03010737
v -0.00723284 0.04553481 0.02954969
v -0.00723284 0.03017925 0.03182407
v -0.01520660 0.02669316 0.03151330
v -0.00723284 0.03007121 0.03172403
v -0.01520660 0.04553481 0.02954969
v -0.00723284 0.04562301 0.02913249
v -0.01520660 0.02655425 0.03136855
v -0.00723284 0.02989922 0.03152820
v -0.01520660 0.02628083 0.03105885
v -0.01520660 0.04564947 0.02900690
v -0.00723284 0.04572444 0.02864930
v -0.00723284 0.02972502 0.03131428
v -0.01520660 0.02619263 0.03094284
v -0.01520660 0.04572444 0.02864930
v -0.00723284 0.04578398 0.02775104
v -0.00723284 0.02945601 0.03095561
v -0.01520660 0.02588613 0.03050223
v -0.01520660 0.04578398 0.02775104
v -0.00723284 0.04579500 0.02685066
v -0.00723284 0.02922890 0.03060227
v -0.01520660 0.02563917 0.03008503
v -0.01520660 0.04579500 0.02685066
v -0.00723284 0.04579500 0.02262225
v -0.00723284 0.02908778 0.03034471
v -0.01520660 0.02554877 0.02989452
v -0.00723284 0.02900399 0.03018400
v -0.01520660 0.04579500 0.02262225
v -0.00723284 0.02688058 0.02262225
v -0.01520660 0.02545836 0.02962525
v -0.00723284 0.02878790 0.02958162
v -0.00723284 0.02888713 0.02987536
v -0.01520660 0.02326881 0.02262225
f 1 2 7
f 1 7 3
f 1 3 8
f 1 8 10
f 1 10 4
f 1 4 9
f 1 9 16
f 1 16 20
f 1 20 26
f 1 26 31
f 1 31 34
f 1 34 39
f 1 39 44
f 1 44 48
f 1 48 52
f 1 52 57
f 1 57 62
f 1 62 66
f 1 66 68
f 1 68 72
f 1 72 76
f 1 76 80
f 1 80 84
f 1 84 88
f 1 88 90
f 1 90 95
f 1 95 94
f 1 94 92
f 1 92 87
f 1 87 83
f 1 83 79
f 1 79 75
f 1 75 70
f 1 70 65
f 1 65 61
f 1 61 55
f 1 55 51
f 1 51 47
f 1 47 42
f 1 42 38
f 1 38 33
f 1 33 28
f 1 28 23
f 1 23 19
f 1 19 14
f 1 14 5
f 1 5 2
f 2 5 6
f 2 6 7
f 3 7 6
f 3 6 13
f 3 13 18
f 3 18 22
f 3 22 24
f 3 24 27
f 3 27 32
f 3 32 36
f 3 36 37
f 3 37 43
f 3 43 46
f 3 46 50
f 3 50 54
f 3 54 56
f 3 56 60
f 3 60 64
f 3 64 69
f 3 69 74
f 3 74 78
f 3 78 82
f 3 82 86
f 3 86 91
f 3 91 96
f 3 96 93
f 3 93 89
f 3 89 85
f 3 85 81
f 3 81 77
f 3 77 73
f 3 73 71
f 3 71 67
f 3 67 63
f 3 63 59
f 3 59 58
f 3 58 53
f 3 53 49
f 3 49 45
f 3 45 41
f 3 41 40
f 3 40 35
f 3 35 30
f 3 30 29
f 3 29 25
f 3 25 21
f 3 21 17
f 3 17 12
f 3 12 15
f 3 15 8
f 4 10 11
f 4 11 12
f 4 12 9
f 5 13 6
f 5 14 18
f 5 18 13
f 8 15 11
f 8 11 10
f 9 12 17
f 9 17 16
f 11 15 12
f 14 19 18
f 16 17 21
f 16 21 20
f 18 19 22
f 19 23 24
f 19 24 22
f 20 21 25
f 20 25 26
f 23 27 24
f 23 28 27
f 25 29 26
f 26 29 30
f 26 30 31
f 27 28 32
f 28 33 32
f 30 34 31
f 30 35 34
f 32 33 36
f 33 37 36
f 33 38 37
f 34 35 40
f 34 40 41
f 34 41 39
f 37 38 42
f 37 42 43
f 39 41 44
f 41 45 44
f 42 46 43
f 42 47 46
f 44 45 49
f 44 49 48
f 46 47 50
f 47 51 50
f 48 49 52
f 49 53 52
f 50 51 54
f 51 55 56
f 51 56 54
f 52 53 58
f 52 58 59
f 52 59 57
f 55 60 56
f 55 61 64
f 55 64 60
f 57 59 62
f 59 63 62
f 61 65 69
f 61 69 64
f 62 63 66
f 63 67 68
f 63 68 66
f 65 70 69
f 67 71 68
f 68 71 73
f 68 73 72
f 69 70 74
f 70 75 74
f 72 73 76
f 73 77 76
f 74 75 78
f 75 79 82
f 75 82 78
f 76 77 80
f 77 81 80
f 79 83 86
f 79 86 82
f 80 81 84
f 81 85 84
f 83 87 91
f 83 91 86
f 84 85 88
f 85 89 90
f 85 90 88
f 87 92 96
f 87 96 91
f 89 93 94
f 89 94 95
f 89 95 90
f 92 94 96
f 93 96 94

