# https://github.com/mikedh/trimesh
v -0.00000864 0.04579178 0.01629309
v -0.00000864 0.04579178 0.00075063
v -0.00725723 0.04579178 0.01629309
v -0.00000864 0.02455327 0.01629309
v -0.00000722 0.02096835 0.01201390
v -0.00000722 0.02096835 -0.00049500
v -0.00000864 0.04554331 -0.00007103
v -0.00725723 0.04579178 0.00075063
v -0.00725794 0.02096835 0.01332034
v -0.00725723 0.02343682 0.01629309
v -0.00725794 0.01459550 0.00803873
v -0.00725794 0.01438577 0.00783331
v -0.00000722 0.01659287 0.00831480
v -0.00000722 0.01704139 0.00870263
v -0.00000864 0.04394285 -0.00049500
v -0.00000864 0.04484634 -0.00046706
v -0.00000722 0.01605077 -0.00049500
v -0.00725723 0.04554331 -0.00007103
v -0.00725794 0.02096835 -0.00049500
v -0.00725794 0.01495367 0.00835917
v -0.00725794 0.01484719 0.00826715
v -0.00725794 0.01402114 0.00742413
v -0.00000722 0.01617984 0.00786618
v -0.00725723 0.04394285 -0.00049500
v -0.00725723 0.04484634 -0.00046706
v -0.00000722 0.01516664 -0.00009732
v -0.00725794 0.01334675 -0.00016305
v -0.00674977 0.01425347 -0.00047857
v -0.00725794 0.01425347 -0.00048678
v -0.00584982 0.01515373 -0.00049500
v -0.00725794 0.01515373 -0.00049500
v -0.00725794 0.01374041 0.00705438
v -0.00000722 0.01572810 0.00730581
v -0.00000722 0.01473426 0.00075063
v -0.00725794 0.01286919 0.00025435
v -0.00725794 0.01362748 0.00687526
v -0.00000722 0.01545382 0.00685554
v -0.00000722 0.01474394 0.00165281
v -0.00725794 0.01284015 0.00330270
v -0.00725794 0.01283047 0.00149341
v -0.00725794 0.01283370 0.00075063
v -0.00725794 0.01342742 0.00653017
v -0.00000722 0.01529248 0.00649730
v -0.00725794 0.01325640 0.00620643
v -0.00000722 0.01476330 0.00345224
v -0.00725794 0.01285306 0.00432648
v -0.00000722 0.01513760 0.00615220
v -0.00725794 0.01297245 0.00525167
v -0.00000722 0.01479879 0.00435113
v -0.00725794 0.01289500 0.00465843
v -0.00000722 0.01490205 0.00525167
f 1 2 8
f 1 8 3
f 1 3 10
f 1 10 4
f 1 4 5
f 1 5 6
f 1 6 2
f 2 6 7
f 2 7 18
f 2 18 8
f 3 8 19
f 3 19 9
f 3 9 10
f 4 10 11
f 4 11 12
f 4 12 13
f 4 13 14
f 4 14 5
f 5 14 13
f 5 13 23
f 5 23 33
f 5 33 37
f 5 37 43
f 5 43 47
f 5 47 51
f 5 51 49
f 5 49 45
f 5 45 38
f 5 38 34
f 5 34 26
f 5 26 17
f 5 17 6
f 6 15 16
f 6 16 7
f 6 17 30
f 6 30 31
f 6 31 19
f 6 19 24
f 6 24 15
f 7 16 25
f 7 25 18
f 8 18 19
f 9 19 31
f 9 31 29
f 9 29 27
f 9 27 35
f 9 35 41
f 9 41 40
f 9 40 39
f 9 39 46
f 9 46 50
f 9 50 48
f 9 48 44
f 9 44 42
f 9 42 36
f 9 36 32
f 9 32 22
f 9 22 12
f 9 12 11
f 9 11 21
f 9 21 20
f 9 20 10
f 10 20 21
f 10 21 11
f 12 22 23
f 12 23 13
f 15 24 25
f 15 25 16
f 17 26 27
f 17 27 28
f 17 28 29
f 17 29 30
f 18 25 19
f 19 25 24
f 22 32 33
f 22 33 23
f 26 34 35
f 26 35 27
f 27 29 28
f 29 31 30
f 32 36 33
f 33 36 37
f 34 38 39
f 34 39 40
f 34 40 41
f 34 41 35
f 36 42 37
f 37 42 44
f 37 44 43
f 38 45 39
f 39 45 46
f 43 44 47
f 44 48 47
f 45 49 46
f 46 49 51
f 46 51 50
f 47 48 51
f 48 50 51

