# https://github.com/mikedh/trimesh
v 0.02032499 0.04578922 0.01597403
v 0.01256041 0.04578922 0.01597403
v 0.02114828 0.04576067 0.01597403
v 0.02114828 0.04576067 0.01244841
v 0.02024780 0.04578922 0.00075114
v 0.01256041 0.04578922 0.00075114
v 0.01256041 0.02078019 0.01597403
v 0.02162293 0.04572499 0.01597403
v 0.02162293 0.04572499 0.01334956
v 0.02114828 0.04575710 0.00165391
v 0.01256041 0.04567859 0.00037714
v 0.02114828 0.04575353 0.00075114
v 0.02114828 0.04552514 -0.00006296
v 0.02024780 0.04554298 -0.00007102
v 0.01256041 0.00938909 0.00742032
v 0.01262961 0.00934270 0.00746707
v 0.01309804 0.00933556 0.00789911
v 0.01358777 0.00933556 0.00833115
v 0.02162293 0.00933556 0.01516154
v 0.02162293 0.01076302 0.01597403
v 0.02162293 0.04571428 0.00255345
v 0.02162293 0.04571071 0.00075114
v 0.01256041 0.04554298 -0.00007102
v 0.02162293 0.04561079 0.00033522
v 0.02162293 0.04550373 -0.00005168
v 0.02162293 0.04516471 -0.00026125
v 0.02114828 0.04484353 -0.00046115
v 0.02024780 0.04484353 -0.00046760
v 0.01256041 0.00933556 0.00736712
v 0.01263228 0.00933556 0.00746385
v 0.02162293 0.00933556 -0.00049500
v 0.01256041 0.04484353 -0.00046760
v 0.02162293 0.04484353 -0.00044664
v 0.02162293 0.04436890 -0.00047888
v 0.02162293 0.04394423 -0.00049500
v 0.01425758 0.04453663 -0.00047727
v 0.01256041 0.00933556 -0.00046115
v 0.01346888 0.00933556 -0.00049500
v 0.01256041 0.04443314 -0.00048049
v 0.01256041 0.04394423 -0.00049500
v 0.01256041 0.00934270 -0.00046437
v 0.01256929 0.00933556 -0.00046437
v 0.01305102 0.00933556 -0.00048855
v 0.01256041 0.01024200 -0.00049500
f 1 2 7
f 1 7 20
f 1 20 8
f 1 8 3
f 1 3 4
f 1 4 5
f 1 5 6
f 1 6 2
f 2 6 11
f 2 11 23
f 2 23 32
f 2 32 39
f 2 39 40
f 2 40 44
f 2 44 41
f 2 41 37
f 2 37 29
f 2 29 15
f 2 15 7
f 3 8 9
f 3 9 4
f 4 9 10
f 4 10 5
f 5 11 6
f 5 10 12
f 5 12 13
f 5 13 14
f 5 14 11
f 7 15 16
f 7 16 17
f 7 17 18
f 7 18 19
f 7 19 20
f 8 20 19
f 8 19 31
f 8 31 35
f 8 35 34
f 8 34 33
f 8 33 26
f 8 26 25
f 8 25 24
f 8 24 22
f 8 22 21
f 8 21 9
f 9 21 10
f 10 21 22
f 10 22 12
f 11 14 23
f 12 22 24
f 12 24 25
f 12 25 13
f 13 25 26
f 13 26 27
f 13 27 14
f 14 27 28
f 14 28 32
f 14 32 23
f 15 29 30
f 15 30 16
f 16 30 17
f 17 30 29
f 17 29 37
f 17 37 42
f 17 42 43
f 17 43 38
f 17 38 31
f 17 31 19
f 17 19 18
f 26 33 27
f 27 34 28
f 27 33 34
f 28 34 35
f 28 35 36
f 28 36 32
f 31 38 44
f 31 44 40
f 31 40 35
f 32 36 39
f 35 40 39
f 35 39 36
f 37 41 42
f 38 43 44
f 41 43 42
f 41 44 43

