# https://github.com/mikedh/trimesh
v -0.04364537 -0.01227572 -0.00049500
v -0.04454541 -0.01227572 -0.00046768
v -0.04364537 -0.00194359 -0.00049500
v -0.01737621 -0.01227572 -0.00049500
v -0.04455367 -0.00194359 -0.00046378
v -0.04454541 -0.00194359 -0.00046768
v -0.04491424 -0.01227572 -0.00025890
v -0.01755512 -0.00194359 -0.00049500
v -0.01737621 -0.00194460 -0.00049500
v -0.01737621 -0.01227572 0.01279129
v -0.04524453 -0.00194359 -0.00006962
v -0.04524453 -0.01227572 -0.00006962
v -0.01737621 -0.00194359 -0.00032914
v -0.02290859 -0.01227572 0.01943931
v -0.01737621 -0.00194561 0.00932581
v -0.04549225 -0.00194359 0.00075187
v -0.04549225 -0.01227572 0.00075187
v -0.01737621 -0.00194359 0.00882433
v -0.04549500 -0.01227572 0.01943931
v -0.02605186 -0.00194460 0.01943931
v -0.01766797 -0.00194359 0.00955021
v -0.02601057 -0.00194359 0.01936321
v -0.04549500 -0.00194561 0.01486746
v -0.04549500 -0.00194359 0.01514844
v -0.04549500 -0.01227572 0.01486746
v -0.04549500 -0.00194460 0.01943931
v -0.02780516 -0.00194359 0.01943931
v -0.04549500 -0.00194359 0.01875636
v -0.04205447 -0.00194359 0.01943931
f 1 2 6
f 1 6 3
f 1 3 8
f 1 8 9
f 1 9 4
f 1 4 10
f 1 10 14
f 1 14 19
f 1 19 25
f 1 25 17
f 1 17 12
f 1 12 7
f 1 7 2
f 2 5 6
f 2 7 5
f 3 6 5
f 3 5 11
f 3 11 16
f 3 16 24
f 3 24 28
f 3 28 29
f 3 29 27
f 3 27 22
f 3 22 21
f 3 21 18
f 3 18 13
f 3 13 8
f 4 9 13
f 4 13 18
f 4 18 15
f 4 15 10
f 5 7 11
f 7 12 11
f 8 13 9
f 10 15 14
f 11 12 17
f 11 17 16
f 14 15 20
f 14 20 27
f 14 27 29
f 14 29 26
f 14 26 19
f 15 18 21
f 15 21 22
f 15 22 20
f 16 17 25
f 16 25 23
f 16 23 24
f 19 26 28
f 19 28 24
f 19 24 23
f 19 23 25
f 20 22 27
f 26 29 28

