# https://github.com/mikedh/trimesh
v -0.00000722 0.03944948 0.03349500
v -0.00723142 0.03944948 0.03349500
v -0.00000722 0.03585004 0.03349500
v -0.00000722 0.04034880 0.03346637
v -0.00723142 0.04034880 0.03346637
v -0.00723142 0.03494854 0.03349500
v -0.00674910 0.03494854 0.03349500
v -0.00584882 0.03494854 0.03349331
v -0.00494924 0.03494854 0.03349163
v -0.00000722 0.03539272 0.03348321
v -0.00000722 0.04079079 0.03342091
v -0.00723142 0.04124811 0.03337377
v -0.00723142 0.03446934 0.03347984
v -0.00000722 0.03494854 0.03347143
v -0.00723142 0.03405141 0.03346301
v -0.00000722 0.04124811 0.03337377
v -0.00723142 0.04214742 0.03314309
v -0.00000722 0.03405141 0.03338892
v -0.00723142 0.03357003 0.03341586
v -0.00000722 0.04214742 0.03314309
v -0.00723142 0.04284980 0.03284002
v -0.00723142 0.03315210 0.03336198
v -0.00723142 0.03267072 0.03324412
v -0.00000722 0.03315210 0.03316667
v -0.00000722 0.04284980 0.03284002
v -0.00723142 0.04330056 0.03257230
v -0.00723142 0.03225279 0.03312962
v -0.00723142 0.03185455 0.03296293
v -0.00723142 0.03155259 0.03283328
v -0.00000722 0.03278012 0.03300671
v -0.00000722 0.04330056 0.03257230
v -0.00723142 0.04387384 0.03212105
v -0.00723142 0.03130971 0.03270026
v -0.00000722 0.03242127 0.03285012
v -0.00000722 0.04387384 0.03212105
v -0.00723142 0.04408390 0.03193415
v -0.00723142 0.03110184 0.03257062
v -0.00000722 0.03197271 0.03259419
v -0.00000722 0.04409703 0.03192237
v -0.00723142 0.04432459 0.03171695
v -0.00723142 0.03075393 0.03230795
v -0.00000722 0.03167732 0.03236520
v -0.00000722 0.04432459 0.03171695
v -0.00723142 0.04448870 0.03150816
v -0.00723142 0.03048042 0.03209243
v -0.00000722 0.03139505 0.03214463
v -0.00000722 0.04449745 0.03149638
v -0.00000722 0.04467688 0.03126739
v -0.00723142 0.04467688 0.03126739
v -0.00723142 0.03018065 0.03182303
v -0.00000722 0.03094430 0.03175399
v -0.00000722 0.03116530 0.03194594
v -0.00000722 0.04512544 0.03055684
v -0.00723142 0.04512544 0.03055684
v -0.00723142 0.03007343 0.03172368
v -0.00723142 0.02990057 0.03152669
v -0.00723142 0.02972771 0.03131285
v -0.00000722 0.03058764 0.03130443
v -0.00000722 0.04523485 0.03033458
v -0.00723142 0.04534425 0.03010559
v -0.00723142 0.02945857 0.03095421
v -0.00000722 0.03013907 0.03065113
v -0.00000722 0.04534425 0.03010559
v -0.00723142 0.04553243 0.02954827
v -0.00723142 0.02922882 0.03060062
v -0.00000722 0.03001654 0.03042214
v -0.00723142 0.02909097 0.03034469
v -0.00000722 0.04553243 0.02954827
v -0.00723142 0.04562214 0.02913070
v -0.00000722 0.02990057 0.03020157
v -0.00723142 0.02900563 0.03018305
v -0.00000722 0.04572279 0.02864914
v -0.00723142 0.04572279 0.02864914
v -0.00723142 0.02344127 0.01629372
v -0.00000722 0.02454845 0.01629372
v -0.00000722 0.04575343 0.02820631
v -0.00723142 0.04575124 0.02823157
v -0.00723142 0.04579500 0.01629372
v -0.00000722 0.04579500 0.01629372
v -0.00000722 0.04578187 0.02775001
v -0.00723142 0.04578187 0.02775001
v -0.00723142 0.04579500 0.02273915
v -0.00000722 0.04579500 0.02273915
v -0.00000722 0.04578844 0.02730719
v -0.00723142 0.04578844 0.02733244
v -0.00723142 0.04579281 0.02684920
v -0.00000722 0.04579281 0.02684920
f 1 2 6
f 1 6 7
f 1 7 3
f 1 3 10
f 1 10 14
f 1 14 18
f 1 18 24
f 1 24 30
f 1 30 34
f 1 34 38
f 1 38 42
f 1 42 46
f 1 46 52
f 1 52 51
f 1 51 58
f 1 58 62
f 1 62 66
f 1 66 70
f 1 70 75
f 1 75 79
f 1 79 83
f 1 83 87
f 1 87 84
f 1 84 80
f 1 80 76
f 1 76 72
f 1 72 68
f 1 68 63
f 1 63 59
f 1 59 53
f 1 53 48
f 1 48 47
f 1 47 43
f 1 43 39
f 1 39 35
f 1 35 31
f 1 31 25
f 1 25 20
f 1 20 16
f 1 16 11
f 1 11 4
f 1 4 5
f 1 5 2
f 2 5 12
f 2 12 17
f 2 17 21
f 2 21 26
f 2 26 32
f 2 32 36
f 2 36 40
f 2 40 44
f 2 44 49
f 2 49 54
f 2 54 60
f 2 60 64
f 2 64 69
f 2 69 73
f 2 73 77
f 2 77 81
f 2 81 85
f 2 85 86
f 2 86 82
f 2 82 78
f 2 78 74
f 2 74 71
f 2 71 67
f 2 67 65
f 2 65 61
f 2 61 57
f 2 57 56
f 2 56 55
f 2 55 50
f 2 50 45
f 2 45 41
f 2 41 37
f 2 37 33
f 2 33 29
f 2 29 28
f 2 28 27
f 2 27 23
f 2 23 22
f 2 22 19
f 2 19 15
f 2 15 13
f 2 13 6
f 3 7 8
f 3 8 9
f 3 9 10
f 4 11 5
f 5 11 12
f 6 13 7
f 7 13 8
f 8 13 9
f 9 14 10
f 9 13 15
f 9 15 14
f 11 16 12
f 12 16 20
f 12 20 17
f 14 15 18
f 15 19 18
f 17 20 25
f 17 25 21
f 18 19 22
f 18 22 23
f 18 23 24
f 21 25 31
f 21 31 26
f 23 27 24
f 24 27 28
f 24 28 29
f 24 29 30
f 26 31 35
f 26 35 32
f 29 33 34
f 29 34 30
f 32 35 36
f 33 37 38
f 33 38 34
f 35 39 36
f 36 39 40
f 37 41 38
f 38 41 42
f 39 43 40
f 40 43 44
f 41 45 46
f 41 46 42
f 43 47 44
f 44 47 48
f 44 48 49
f 45 50 51
f 45 51 52
f 45 52 46
f 48 53 54
f 48 54 49
f 50 55 51
f 51 55 56
f 51 56 57
f 51 57 58
f 53 59 54
f 54 59 60
f 57 61 58
f 58 61 62
f 59 63 60
f 60 63 68
f 60 68 64
f 61 65 62
f 62 65 67
f 62 67 66
f 64 68 69
f 66 67 71
f 66 71 70
f 68 72 69
f 69 72 73
f 70 71 74
f 70 74 75
f 72 76 73
f 73 76 77
f 74 78 79
f 74 79 75
f 76 80 81
f 76 81 77
f 78 82 83
f 78 83 79
f 80 84 85
f 80 85 81
f 82 86 87
f 82 87 83
f 84 87 85
f 85 87 86

