# https://github.com/mikedh/trimesh
v -0.00000659 0.02771023 0.02223123
v 0.01255864 0.02464884 0.02223123
v -0.00000659 0.02968078 0.02954893
v -0.00000659 0.04579294 0.02223123
v 0.01255864 0.02686364 0.02956988
v 0.01255864 0.04579294 0.02223123
v -0.00000659 0.02978842 0.02986978
v -0.00000659 0.04579294 0.02685096
v 0.01255864 0.02715343 0.03025898
v -0.00000659 0.02990019 0.03020165
v 0.01255864 0.04579294 0.02685096
v 0.00648512 0.04579087 0.02711558
v -0.00000659 0.04578880 0.02730853
v 0.01255864 0.02740595 0.03068788
v -0.00000659 0.03013823 0.03065149
v 0.01255864 0.04578880 0.02734271
v 0.00648512 0.04578465 0.02775065
v -0.00000659 0.04578258 0.02775065
v 0.01255864 0.02785099 0.03128326
v -0.00000659 0.03058947 0.03130311
v -0.00000659 0.03035971 0.03097234
v 0.01255864 0.04578465 0.02775065
v -0.00000659 0.04575360 0.02820601
v -0.00000659 0.04572463 0.02864924
v 0.01255864 0.02826290 0.03173752
v -0.00000659 0.03094550 0.03175405
v 0.00648512 0.04572463 0.02864924
v 0.01255864 0.04572256 0.02864924
v -0.00000659 0.04553419 0.02954893
v 0.01255864 0.02869344 0.03210467
v -0.00000659 0.03139466 0.03214436
v 0.00648512 0.04553419 0.02954893
v 0.01255864 0.04561906 0.02913988
v -0.00000659 0.04534583 0.03010683
v 0.00648512 0.04534790 0.03010683
v 0.01255864 0.04543277 0.02985324
v 0.01255864 0.02931855 0.03256003
v -0.00000659 0.03197010 0.03259421
v 0.01255864 0.04553212 0.02954893
v -0.00000659 0.04512435 0.03055667
v 0.01255864 0.04534790 0.03010683
v 0.00648512 0.04512642 0.03055667
v 0.01255864 0.02976979 0.03281362
v -0.00000659 0.03242134 0.03285110
v -0.00000659 0.04489873 0.03091721
v 0.01255864 0.04512642 0.03055667
v 0.01255864 0.03045079 0.03308926
v -0.00000659 0.03315202 0.03316644
v -0.00000659 0.03277943 0.03300656
v 0.01255864 0.04467726 0.03126672
v -0.00000659 0.04467518 0.03126672
v 0.00648512 0.04467726 0.03126672
v 0.01255864 0.03135120 0.03333072
v -0.00000659 0.03405242 0.03338915
v 0.01255864 0.04432537 0.03171657
v -0.00000659 0.04432537 0.03171657
v 0.01255864 0.03225161 0.03345090
v -0.00000659 0.03495076 0.03347074
v 0.01255864 0.04387620 0.03212121
v -0.00000659 0.04409561 0.03192275
v 0.00648512 0.04387620 0.03212121
v 0.01255864 0.03315409 0.03349169
v 0.01214907 0.03315409 0.03349059
v -0.00000659 0.03584910 0.03349500
v 0.01255864 0.04330077 0.03257105
v -0.00000659 0.04387413 0.03212121
v 0.00648512 0.04330077 0.03257105
v 0.01255864 0.03405035 0.03349500
v 0.01034964 0.03405035 0.03349500
v -0.00000659 0.03944867 0.03349500
v 0.01255864 0.04285160 0.03283898
v -0.00000659 0.04329870 0.03257105
v 0.00648512 0.04285160 0.03283898
v 0.01255864 0.03944660 0.03349500
v 0.00648512 0.03944867 0.03349500
v 0.00648512 0.04008413 0.03347515
v -0.00000659 0.04034908 0.03346633
v 0.01255864 0.04214990 0.03314328
v -0.00000659 0.04284953 0.03283898
v 0.00648512 0.04214990 0.03314328
v 0.01255864 0.04034701 0.03346633
v 0.00648512 0.04034908 0.03346633
v 0.00648512 0.04098454 0.03340128
v -0.00000659 0.04078997 0.03342113
v 0.01255864 0.04124949 0.03337372
v -0.00000659 0.04214783 0.03314328
v 0.00648512 0.04124949 0.03337372
v -0.00000659 0.04124742 0.03337372
f 1 2 3
f 1 3 7
f 1 7 10
f 1 10 15
f 1 15 21
f 1 21 20
f 1 20 26
f 1 26 31
f 1 31 38
f 1 38 44
f 1 44 49
f 1 49 48
f 1 48 54
f 1 54 58
f 1 58 64
f 1 64 70
f 1 70 77
f 1 77 84
f 1 84 88
f 1 88 86
f 1 86 79
f 1 79 72
f 1 72 66
f 1 66 60
f 1 60 56
f 1 56 51
f 1 51 45
f 1 45 40
f 1 40 34
f 1 34 29
f 1 29 24
f 1 24 23
f 1 23 18
f 1 18 13
f 1 13 8
f 1 8 4
f 1 4 6
f 1 6 2
f 2 5 3
f 2 6 11
f 2 11 16
f 2 16 22
f 2 22 28
f 2 28 33
f 2 33 39
f 2 39 36
f 2 36 41
f 2 41 46
f 2 46 50
f 2 50 55
f 2 55 59
f 2 59 65
f 2 65 71
f 2 71 78
f 2 78 85
f 2 85 81
f 2 81 74
f 2 74 68
f 2 68 62
f 2 62 57
f 2 57 53
f 2 53 47
f 2 47 43
f 2 43 37
f 2 37 30
f 2 30 25
f 2 25 19
f 2 19 14
f 2 14 9
f 2 9 5
f 3 5 7
f 4 8 11
f 4 11 6
f 5 9 10
f 5 10 7
f 8 12 11
f 8 13 12
f 9 14 15
f 9 15 10
f 11 12 16
f 12 13 17
f 12 17 16
f 13 18 17
f 14 19 20
f 14 20 21
f 14 21 15
f 16 17 22
f 17 18 23
f 17 23 24
f 17 24 27
f 17 27 22
f 19 25 26
f 19 26 20
f 22 27 28
f 24 29 32
f 24 32 27
f 25 30 31
f 25 31 26
f 27 32 33
f 27 33 28
f 29 34 35
f 29 35 36
f 29 36 32
f 30 37 38
f 30 38 31
f 32 36 39
f 32 39 33
f 34 40 42
f 34 42 35
f 35 41 36
f 35 42 46
f 35 46 41
f 37 43 44
f 37 44 38
f 40 45 42
f 42 45 46
f 43 47 48
f 43 48 49
f 43 49 44
f 45 50 46
f 45 51 52
f 45 52 50
f 47 53 48
f 48 53 54
f 50 52 56
f 50 56 55
f 51 56 52
f 53 57 54
f 54 57 58
f 55 56 61
f 55 61 59
f 56 60 61
f 57 62 63
f 57 63 58
f 58 63 64
f 59 61 67
f 59 67 65
f 60 66 61
f 61 66 72
f 61 72 67
f 62 68 69
f 62 69 64
f 62 64 63
f 64 69 68
f 64 68 74
f 64 74 75
f 64 75 70
f 65 67 73
f 65 73 71
f 67 72 79
f 67 79 73
f 70 75 76
f 70 76 77
f 71 73 80
f 71 80 78
f 73 79 86
f 73 86 80
f 74 81 76
f 74 76 75
f 76 81 82
f 76 82 77
f 77 82 83
f 77 83 84
f 78 80 87
f 78 87 85
f 80 86 88
f 80 88 87
f 81 85 83
f 81 83 82
f 83 85 87
f 83 87 88
f 83 88 84

