# https://github.com/mikedh/trimesh
v -0.01737292 -0.00800967 -0.00049390
v -0.01737292 -0.00194335 -0.00049390
v -0.01395023 -0.00800967 -0.00049390
v -0.01737292 -0.00800967 0.01071376
v -0.01737292 -0.00194157 -0.00032933
v -0.01665797 -0.00194157 -0.00049390
v -0.01395023 -0.00734976 -0.00049390
v -0.01329048 -0.00800967 -0.00048622
v -0.01486652 -0.00800967 0.00893633
v -0.01737292 -0.00194454 0.00932473
v -0.01737292 -0.00194157 0.00882442
v -0.01574980 -0.00194157 -0.00049390
v -0.01484974 -0.00375024 -0.00046428
v -0.01305018 -0.00800967 -0.00044672
v -0.01426089 -0.00800967 0.00850075
v -0.01721921 -0.00194157 0.00920514
v -0.01485840 -0.00194157 -0.00026788
v -0.01484974 -0.00285036 -0.00038089
v -0.01484920 -0.00194157 -0.00026459
v -0.01236012 -0.00800967 -0.00018669
v -0.01380464 -0.00800967 0.00811784
v -0.01658869 -0.00194157 0.00869166
v -0.01721380 -0.00194157 0.00920075
v -0.01433883 -0.00194157 0.00012929
v -0.01219613 -0.00800967 -0.00008356
v -0.01650534 -0.00194157 0.00862035
v -0.01332837 -0.00800967 0.00766580
v -0.01595059 -0.00194157 0.00809699
v -0.01427821 -0.00194157 0.00074481
v -0.01184434 -0.00800967 0.00074700
v -0.01286292 -0.00800967 0.00710734
v -0.01534821 -0.00194157 0.00742771
v -0.01587157 -0.00194157 0.00801361
v -0.01427821 -0.00194157 0.00075030
v -0.01186112 -0.00800967 0.00345045
v -0.01269785 -0.00800967 0.00685828
v -0.01240342 -0.00800967 0.00638649
v -0.01507110 -0.00194157 0.00697677
v -0.01430798 -0.00194157 0.00345045
v -0.01433883 -0.00194157 0.00432051
v -0.01189576 -0.00800967 0.00435013
v -0.01226216 -0.00800967 0.00609464
v -0.01467060 -0.00194157 0.00614950
v -0.01506786 -0.00194157 0.00697019
v -0.01434695 -0.00194157 0.00439951
v -0.01443896 -0.00194157 0.00528493
v -0.01198722 -0.00800967 0.00512913
v -0.01200292 -0.00800967 0.00524982
v -0.01444545 -0.00194157 0.00533211
f 1 2 6
f 1 6 12
f 1 12 7
f 1 7 3
f 1 3 8
f 1 8 14
f 1 14 20
f 1 20 25
f 1 25 30
f 1 30 35
f 1 35 41
f 1 41 47
f 1 47 48
f 1 48 42
f 1 42 37
f 1 37 36
f 1 36 31
f 1 31 27
f 1 27 21
f 1 21 15
f 1 15 9
f 1 9 4
f 1 4 10
f 1 10 11
f 1 11 5
f 1 5 2
f 2 5 6
f 3 7 8
f 4 9 10
f 5 11 16
f 5 16 23
f 5 23 22
f 5 22 26
f 5 26 28
f 5 28 33
f 5 33 32
f 5 32 38
f 5 38 44
f 5 44 43
f 5 43 49
f 5 49 46
f 5 46 45
f 5 45 40
f 5 40 39
f 5 39 34
f 5 34 29
f 5 29 24
f 5 24 19
f 5 19 17
f 5 17 12
f 5 12 6
f 7 12 8
f 8 12 13
f 8 13 14
f 9 15 10
f 10 16 11
f 10 15 16
f 12 17 18
f 12 18 13
f 13 18 14
f 14 18 17
f 14 17 19
f 14 19 20
f 15 21 22
f 15 22 23
f 15 23 16
f 19 24 25
f 19 25 20
f 21 26 22
f 21 27 28
f 21 28 26
f 24 29 30
f 24 30 25
f 27 31 32
f 27 32 33
f 27 33 28
f 29 34 30
f 30 34 35
f 31 36 32
f 32 36 37
f 32 37 38
f 34 39 35
f 35 39 40
f 35 40 41
f 37 42 43
f 37 43 44
f 37 44 38
f 40 45 41
f 41 45 46
f 41 46 47
f 42 48 43
f 43 48 49
f 46 49 48
f 46 48 47

