# https://github.com/mikedh/trimesh
v 0.04549500 0.00030730 0.02685105
v 0.04549500 0.00030730 0.02235888
v 0.04548273 0.00030730 0.02775035
v 0.04548478 -0.00195099 0.02775035
v 0.04549500 -0.01185437 0.02685105
v 0.04549500 -0.01184961 0.02235888
v 0.02746242 0.00030730 0.02235888
v 0.04541323 0.00030730 0.02864966
v 0.04541528 -0.00195099 0.02864966
v 0.04541732 -0.00465094 0.02864966
v 0.04541936 -0.00824968 0.02864966
v 0.04548478 -0.01185437 0.02775035
v 0.04549500 -0.01185437 0.02325056
v 0.04544389 -0.01185437 0.02235888
v 0.02461066 -0.01185437 0.02235888
v 0.02938609 0.00030730 0.02954896
v 0.04531511 0.00030730 0.02909222
v 0.04521698 -0.00195099 0.02954896
v 0.04522311 -0.00644971 0.02954896
v 0.04522924 -0.01094963 0.02954896
v 0.04541936 -0.01185437 0.02864966
v 0.02675919 -0.01185437 0.02957948
v 0.02949648 0.00030730 0.02987598
v 0.04521289 0.00030730 0.02954896
v 0.04512703 0.00030730 0.02981385
v 0.04504322 -0.00734970 0.03009835
v 0.04504526 -0.01004964 0.03010271
v 0.04504526 -0.01185437 0.03010598
v 0.04522924 -0.01185437 0.02954896
v 0.02694113 -0.01185437 0.03009399
v 0.02960483 0.00030730 0.03019101
v 0.04503504 0.00030730 0.03008636
v 0.04503708 -0.00105101 0.03008745
v 0.04503913 -0.00285097 0.03009072
v 0.04493078 0.00030730 0.03030765
v 0.04482244 -0.00195099 0.03053983
v 0.04482652 -0.01094963 0.03055400
v 0.04482652 -0.01184961 0.03055509
v 0.04482652 -0.01185437 0.03055509
v 0.02711490 -0.01185437 0.03041229
v 0.02984605 0.00030730 0.03064121
v 0.02972544 0.00030730 0.03041992
v 0.04482039 0.00030730 0.03053656
v 0.04459961 0.00030730 0.03089083
v 0.04437269 -0.00285097 0.03126145
v 0.04437474 -0.00644971 0.03126581
v 0.04437678 -0.01184961 0.03126799
v 0.04437678 -0.01185437 0.03126799
v 0.02714965 -0.01185437 0.03047552
v 0.03007501 0.00030730 0.03097477
v 0.02716805 -0.01185437 0.03050386
v 0.04437065 0.00030730 0.03125709
v 0.04402312 -0.00555092 0.03171601
v 0.04402517 -0.01184961 0.03171819
v 0.04402517 -0.01185437 0.03171819
v 0.03029579 0.00030730 0.03129634
v 0.02765050 -0.01185437 0.03120150
v 0.02765050 -0.01184961 0.03120041
v 0.04401495 0.00030730 0.03170729
v 0.04402108 -0.00375096 0.03171274
v 0.04379416 0.00030730 0.03190459
v 0.04356520 0.00030730 0.03210844
v 0.04357134 -0.00375096 0.03211280
v 0.04357338 -0.00555092 0.03211498
v 0.04357543 -0.01184961 0.03212152
v 0.04357543 -0.01185437 0.03212152
v 0.03065150 0.00030730 0.03174544
v 0.02804096 -0.01185437 0.03165061
v 0.04327696 0.00030730 0.03232972
v 0.04299281 -0.00824968 0.03256844
v 0.04299485 -0.01004964 0.03257062
v 0.04299689 -0.01184961 0.03257062
v 0.04299689 -0.01185437 0.03257062
v 0.03110124 0.00030730 0.03214005
v 0.02849070 -0.01185437 0.03205066
v 0.04298463 -0.00375096 0.03256299
v 0.04297645 0.00030730 0.03255863
v 0.04275567 0.00030730 0.03268944
v 0.04252671 0.00030730 0.03282461
v 0.04253489 -0.00375096 0.03282788
v 0.04254102 -0.00734970 0.03283115
v 0.04254511 -0.01004964 0.03283333
v 0.04254715 -0.01184961 0.03283442
v 0.04254715 -0.01185437 0.03283442
v 0.03139357 0.00030730 0.03236896
v 0.02910807 -0.01185437 0.03250086
v 0.03167773 0.00030730 0.03259024
v 0.04219349 0.00030730 0.03297286
v 0.04184801 0.00030730 0.03312656
v 0.04254511 -0.01094963 0.03283442
v 0.04184801 -0.00734970 0.03313528
v 0.04184801 -0.01185437 0.03313964
v 0.02955781 -0.01185437 0.03277556
v 0.03212747 0.00030730 0.03284968
v 0.04140645 0.00030730 0.03324537
v 0.04094853 0.00030730 0.03336855
v 0.04094853 -0.00285097 0.03337182
v 0.04094853 -0.00644971 0.03337400
v 0.04094853 -0.00824968 0.03337509
v 0.04094853 -0.01185437 0.03337509
v 0.03015065 -0.01185437 0.03302300
v 0.03015065 -0.01184961 0.03302300
v 0.03285114 0.00030730 0.03316253
v 0.03249544 0.00030730 0.03300883
v 0.04004904 0.00030730 0.03346448
v 0.04004904 -0.00465094 0.03346666
v 0.04004904 -0.00734970 0.03346775
v 0.04004904 -0.01185437 0.03346775
v 0.03105013 -0.01185437 0.03329443
v 0.03105013 -0.01184961 0.03329443
v 0.03330906 0.00030730 0.03327699
v 0.03914956 0.00030730 0.03349500
v 0.03914956 -0.01185437 0.03349500
v 0.03195166 -0.01185437 0.03344050
v 0.03195166 -0.01184961 0.03344050
v 0.03375062 0.00030730 0.03338708
v 0.03554959 0.00030730 0.03349500
v 0.03375062 -0.01185437 0.03349500
v 0.03285114 -0.01185437 0.03349064
v 0.03285114 -0.01184961 0.03349064
v 0.03465011 0.00030730 0.03347102
v 0.03375062 -0.01004964 0.03349500
f 1 2 7
f 1 7 16
f 1 16 23
f 1 23 31
f 1 31 42
f 1 42 41
f 1 41 50
f 1 50 56
f 1 56 67
f 1 67 74
f 1 74 85
f 1 85 87
f 1 87 94
f 1 94 104
f 1 104 103
f 1 103 111
f 1 111 116
f 1 116 121
f 1 121 117
f 1 117 112
f 1 112 105
f 1 105 96
f 1 96 95
f 1 95 89
f 1 89 88
f 1 88 79
f 1 79 78
f 1 78 77
f 1 77 69
f 1 69 62
f 1 62 61
f 1 61 59
f 1 59 52
f 1 52 44
f 1 44 43
f 1 43 35
f 1 35 32
f 1 32 25
f 1 25 24
f 1 24 17
f 1 17 8
f 1 8 3
f 1 3 4
f 1 4 12
f 1 12 5
f 1 5 13
f 1 13 6
f 1 6 2
f 2 6 14
f 2 14 15
f 2 15 7
f 3 8 9
f 3 9 4
f 4 9 10
f 4 10 11
f 4 11 21
f 4 21 12
f 5 12 21
f 5 21 29
f 5 29 28
f 5 28 39
f 5 39 48
f 5 48 55
f 5 55 66
f 5 66 73
f 5 73 84
f 5 84 92
f 5 92 100
f 5 100 108
f 5 108 113
f 5 113 118
f 5 118 119
f 5 119 114
f 5 114 109
f 5 109 101
f 5 101 93
f 5 93 86
f 5 86 75
f 5 75 68
f 5 68 57
f 5 57 51
f 5 51 49
f 5 49 40
f 5 40 30
f 5 30 22
f 5 22 15
f 5 15 14
f 5 14 13
f 6 13 14
f 7 15 16
f 8 17 18
f 8 18 19
f 8 19 20
f 8 20 9
f 9 20 10
f 10 20 11
f 11 20 29
f 11 29 21
f 15 22 16
f 16 22 23
f 17 24 18
f 18 24 25
f 18 25 19
f 19 25 20
f 20 25 26
f 20 26 27
f 20 27 28
f 20 28 29
f 22 30 31
f 22 31 23
f 25 32 33
f 25 33 34
f 25 34 26
f 26 34 35
f 26 35 27
f 27 35 36
f 27 36 37
f 27 37 28
f 28 37 38
f 28 38 39
f 30 40 41
f 30 41 42
f 30 42 31
f 32 35 34
f 32 34 33
f 35 43 36
f 36 43 44
f 36 44 45
f 36 45 37
f 37 45 46
f 37 46 38
f 38 46 47
f 38 47 48
f 38 48 39
f 40 49 41
f 41 49 51
f 41 51 50
f 44 52 45
f 45 52 53
f 45 53 46
f 46 53 47
f 47 53 54
f 47 54 55
f 47 55 48
f 50 51 56
f 51 57 58
f 51 58 56
f 52 59 60
f 52 60 53
f 53 60 59
f 53 59 61
f 53 61 62
f 53 62 63
f 53 63 64
f 53 64 65
f 53 65 54
f 54 65 66
f 54 66 55
f 56 58 67
f 57 68 58
f 58 68 67
f 62 69 70
f 62 70 63
f 63 70 71
f 63 71 64
f 64 71 65
f 65 71 72
f 65 72 73
f 65 73 66
f 67 68 75
f 67 75 74
f 69 76 70
f 69 77 76
f 70 76 77
f 70 77 78
f 70 78 79
f 70 79 80
f 70 80 81
f 70 81 71
f 71 81 82
f 71 82 83
f 71 83 72
f 72 83 84
f 72 84 73
f 74 75 85
f 75 86 87
f 75 87 85
f 79 88 80
f 80 88 89
f 80 89 81
f 81 89 82
f 82 89 90
f 82 90 83
f 83 90 91
f 83 91 92
f 83 92 84
f 86 93 87
f 87 93 94
f 89 95 91
f 89 91 90
f 91 95 96
f 91 96 97
f 91 97 92
f 92 97 98
f 92 98 99
f 92 99 100
f 93 101 102
f 93 102 103
f 93 103 104
f 93 104 94
f 96 105 97
f 97 105 98
f 98 105 99
f 99 105 106
f 99 106 107
f 99 107 108
f 99 108 100
f 101 109 110
f 101 110 102
f 102 110 103
f 103 110 111
f 105 112 106
f 106 112 107
f 107 112 113
f 107 113 108
f 109 114 115
f 109 115 110
f 110 115 116
f 110 116 111
f 112 117 122
f 112 122 118
f 112 118 113
f 114 119 120
f 114 120 115
f 115 120 121
f 115 121 116
f 117 121 120
f 117 120 122
f 118 122 120
f 118 120 119

