# https://github.com/mikedh/trimesh
v -0.01520738 0.00946370 -0.00049500
v -0.01520738 0.01754538 -0.00049500
v -0.01394991 0.00946370 -0.00049500
v -0.01520738 0.00946370 0.00950657
v -0.00725872 0.01754538 -0.00049500
v -0.01520738 0.01754538 0.01458189
v -0.01304961 0.00975007 -0.00049500
v -0.01304961 0.00946370 -0.00049057
v -0.01466112 0.00946370 0.00914205
v -0.00725872 0.01554632 0.00882770
v -0.00725872 0.01615941 0.00927635
v -0.00725872 0.01651856 0.00953166
v -0.00725872 0.01754538 0.01025924
v -0.00725872 0.01514999 -0.00049500
v -0.00765012 0.01424974 -0.00049500
v -0.00725872 0.01424974 -0.00048762
v -0.01214930 0.00975007 -0.00044777
v -0.01213919 0.00946370 -0.00034742
v -0.01418179 0.00946370 0.00882032
v -0.00725872 0.01525837 0.00860780
v -0.00725872 0.01334474 -0.00016442
v -0.00765012 0.01335028 -0.00029872
v -0.01141163 0.00946370 0.00000382
v -0.01398337 0.00946370 0.00868012
v -0.00725872 0.01495064 0.00835987
v -0.00725872 0.01286772 0.00025176
v -0.01116185 0.00946370 0.00075058
v -0.01354139 0.00946370 0.00836725
v -0.00725872 0.01484621 0.00826837
v -0.00725872 0.01283133 0.00075058
v -0.00725872 0.01283054 0.00149292
v -0.00725872 0.01283924 0.00330079
v -0.01116341 0.00946370 0.00096458
v -0.01317722 0.00946370 0.00805733
v -0.00725872 0.01459465 0.00803962
v -0.00725872 0.01284083 0.00345132
v -0.01119453 0.00946370 0.00345132
v -0.01305505 0.00946370 0.00794516
v -0.00725872 0.01438343 0.00783153
v -0.00725872 0.01285269 0.00432648
v -0.01120543 0.00946370 0.00370663
v -0.01258195 0.00946370 0.00750832
v -0.00725872 0.01401954 0.00742273
v -0.01123499 0.00946370 0.00435009
v -0.00725872 0.01289462 0.00465853
v -0.01136416 0.00946370 0.00528280
v -0.01244266 0.00946370 0.00734303
v -0.00725872 0.01373949 0.00705377
v -0.00725872 0.01392698 0.00730171
v -0.00725872 0.01297214 0.00525033
v -0.01144353 0.00946370 0.00560010
v -0.01226836 0.00946370 0.00711871
v -0.00725872 0.01362479 0.00687520
v -0.00725872 0.01325456 0.00620666
v -0.01155948 0.00946370 0.00591740
v -0.01220611 0.00946370 0.00703459
v -0.00725872 0.01342543 0.00653134
v -0.01179370 0.00946370 0.00639113
v -0.01164274 0.00946370 0.00612549
f 1 2 5
f 1 5 14
f 1 14 15
f 1 15 7
f 1 7 3
f 1 3 8
f 1 8 18
f 1 18 23
f 1 23 27
f 1 27 33
f 1 33 37
f 1 37 41
f 1 41 44
f 1 44 46
f 1 46 51
f 1 51 55
f 1 55 59
f 1 59 58
f 1 58 56
f 1 56 52
f 1 52 47
f 1 47 42
f 1 42 38
f 1 38 34
f 1 34 28
f 1 28 24
f 1 24 19
f 1 19 9
f 1 9 4
f 1 4 6
f 1 6 2
f 2 6 13
f 2 13 5
f 3 7 8
f 4 9 10
f 4 10 11
f 4 11 12
f 4 12 13
f 4 13 6
f 5 13 12
f 5 12 11
f 5 11 10
f 5 10 20
f 5 20 25
f 5 25 29
f 5 29 35
f 5 35 39
f 5 39 43
f 5 43 49
f 5 49 48
f 5 48 53
f 5 53 57
f 5 57 54
f 5 54 50
f 5 50 45
f 5 45 40
f 5 40 36
f 5 36 32
f 5 32 31
f 5 31 30
f 5 30 26
f 5 26 21
f 5 21 16
f 5 16 14
f 7 15 8
f 8 16 17
f 8 17 18
f 8 15 16
f 9 19 20
f 9 20 10
f 14 16 15
f 16 21 22
f 16 22 18
f 16 18 17
f 18 22 21
f 18 21 23
f 19 24 25
f 19 25 20
f 21 26 23
f 23 26 27
f 24 28 25
f 25 28 29
f 26 30 27
f 27 30 31
f 27 31 32
f 27 32 33
f 28 34 35
f 28 35 29
f 32 36 33
f 33 36 37
f 34 38 39
f 34 39 35
f 36 40 37
f 37 40 41
f 38 42 39
f 39 42 43
f 40 44 41
f 40 45 46
f 40 46 44
f 42 47 48
f 42 48 49
f 42 49 43
f 45 50 46
f 46 50 51
f 47 52 48
f 48 52 53
f 50 54 51
f 51 54 55
f 52 56 53
f 53 56 57
f 54 57 58
f 54 58 59
f 54 59 55
f 56 58 57

