# https://github.com/mikedh/trimesh
v 0.01303099 -0.03257112 0.03349500
v 0.01303099 -0.03167112 0.03346631
v -0.00000589 -0.03434970 0.03347109
v -0.00000589 -0.03524733 0.03349500
v 0.01303099 -0.03884735 0.03349500
v 0.01303099 -0.03165445 0.03346472
v -0.00000589 -0.03345208 0.03338821
v -0.00000589 -0.03390922 0.03343125
v -0.00000589 -0.03884497 0.03349500
v 0.00681882 -0.03884735 0.03349500
v 0.01303099 -0.03974497 0.03346790
v 0.01303099 -0.03077111 0.03337387
v -0.00000589 -0.03255446 0.03316667
v 0.01303099 -0.03075444 0.03337068
v 0.01303099 -0.02985206 0.03315710
v -0.00000589 -0.03974735 0.03346631
v 0.00681882 -0.03974497 0.03346790
v 0.00681882 -0.04064736 0.03337387
v 0.01303099 -0.04064498 0.03337387
v -0.00000589 -0.03182112 0.03285109
v 0.01303099 -0.02907348 0.03285427
v -0.00000589 -0.04020212 0.03342009
v -0.00000589 -0.04064736 0.03337387
v 0.01303099 -0.04066641 0.03336909
v -0.00000589 -0.03137112 0.03259448
v 0.01303099 -0.02862348 0.03262635
v -0.00000589 -0.04154736 0.03314276
v 0.01303099 -0.04154736 0.03314276
v -0.00000589 -0.03079730 0.03214182
v 0.01303099 -0.02796633 0.03215776
v 0.01303099 -0.02755204 0.03184378
v 0.00681882 -0.04219499 0.03286224
v -0.00000589 -0.04224975 0.03283834
v 0.01303099 -0.04224975 0.03283834
v -0.00000589 -0.03057587 0.03195216
v 0.01303099 -0.02712585 0.03138794
v -0.00000589 -0.03034730 0.03175452
v -0.00000589 -0.04269975 0.03257216
v 0.01303099 -0.04269975 0.03257216
v 0.01303099 -0.02709728 0.03135606
v 0.01303099 -0.02670442 0.03088428
v -0.00000589 -0.02999015 0.03130346
v 0.00681882 -0.04323070 0.03215617
v -0.00000589 -0.04327356 0.03212110
v 0.01303099 -0.04327356 0.03212110
v 0.01303099 -0.02644490 0.03046032
v -0.00000589 -0.02954015 0.03065158
v -0.00000589 -0.04350214 0.03191709
v 0.01303099 -0.04372357 0.03171786
v 0.01303099 -0.02604966 0.02960283
v -0.00000589 -0.02929968 0.03020212
v -0.00000589 -0.04372357 0.03171627
v 0.00681882 -0.04372357 0.03171786
v 0.01303099 -0.04373309 0.03170670
v 0.01303099 -0.02087106 0.01721387
v -0.00000589 -0.02456631 0.01721228
v -0.00000589 -0.04407595 0.03126680
v 0.00681882 -0.04407595 0.03126680
v 0.01303099 -0.04407357 0.03126680
v 0.00681882 -0.02360202 0.01721228
v 0.01303099 -0.04519500 0.01721387
v -0.00000589 -0.04519500 0.01721228
v -0.00000589 -0.04452357 0.03055436
v 0.00681882 -0.04452595 0.03055595
v 0.01303099 -0.04453071 0.03054639
v 0.00681882 -0.04519500 0.01721228
v 0.01303099 -0.04519500 0.02307125
v -0.00000589 -0.04519500 0.02685026
v -0.00000589 -0.04463548 0.03032803
v 0.00681882 -0.04472833 0.03014155
v 0.01303099 -0.04474262 0.03010648
v 0.01303099 -0.04519024 0.02685026
v 0.00681882 -0.04519500 0.02685026
v 0.00681882 -0.04518310 0.02774919
v -0.00000589 -0.04518072 0.02774919
v -0.00000589 -0.04474262 0.03010489
v 0.00681882 -0.04474262 0.03010648
v 0.01303099 -0.04474738 0.03009533
v 0.01303099 -0.04518310 0.02774919
v -0.00000589 -0.04515453 0.02819228
v -0.00000589 -0.04484024 0.02982278
v 0.00681882 -0.04493309 0.02954705
v 0.01303099 -0.04493071 0.02954864
v 0.01303099 -0.04512357 0.02864812
v 0.00681882 -0.04512357 0.02864812
v -0.00000589 -0.04512119 0.02864971
v -0.00000589 -0.04493309 0.02954705
f 1 2 3
f 1 3 4
f 1 4 9
f 1 9 10
f 1 10 5
f 1 5 11
f 1 11 19
f 1 19 24
f 1 24 28
f 1 28 34
f 1 34 39
f 1 39 45
f 1 45 49
f 1 49 54
f 1 54 59
f 1 59 65
f 1 65 71
f 1 71 78
f 1 78 83
f 1 83 84
f 1 84 79
f 1 79 72
f 1 72 67
f 1 67 61
f 1 61 55
f 1 55 50
f 1 50 46
f 1 46 41
f 1 41 40
f 1 40 36
f 1 36 31
f 1 31 30
f 1 30 26
f 1 26 21
f 1 21 15
f 1 15 14
f 1 14 12
f 1 12 6
f 1 6 2
f 2 6 7
f 2 7 8
f 2 8 3
f 3 8 7
f 3 7 13
f 3 13 20
f 3 20 25
f 3 25 29
f 3 29 35
f 3 35 37
f 3 37 42
f 3 42 47
f 3 47 51
f 3 51 56
f 3 56 62
f 3 62 68
f 3 68 75
f 3 75 80
f 3 80 86
f 3 86 87
f 3 87 81
f 3 81 76
f 3 76 69
f 3 69 63
f 3 63 57
f 3 57 52
f 3 52 48
f 3 48 44
f 3 44 38
f 3 38 33
f 3 33 27
f 3 27 23
f 3 23 22
f 3 22 16
f 3 16 9
f 3 9 4
f 5 10 17
f 5 17 11
f 6 12 7
f 7 12 14
f 7 14 15
f 7 15 13
f 9 16 17
f 9 17 10
f 11 17 23
f 11 23 18
f 11 18 19
f 13 15 21
f 13 21 20
f 16 22 17
f 17 22 23
f 18 23 24
f 18 24 19
f 20 21 26
f 20 26 25
f 23 27 24
f 24 27 28
f 25 26 30
f 25 30 31
f 25 31 29
f 27 32 28
f 27 33 32
f 28 32 34
f 29 31 35
f 31 36 37
f 31 37 35
f 32 33 34
f 33 38 39
f 33 39 34
f 36 40 37
f 37 40 41
f 37 41 42
f 38 43 39
f 38 44 43
f 39 43 45
f 41 46 47
f 41 47 42
f 43 44 45
f 44 48 45
f 45 48 49
f 46 50 51
f 46 51 47
f 48 52 53
f 48 53 49
f 49 53 54
f 50 55 51
f 51 55 56
f 52 57 53
f 53 57 54
f 54 57 58
f 54 58 59
f 55 60 56
f 55 61 66
f 55 66 60
f 56 60 66
f 56 66 62
f 57 63 64
f 57 64 58
f 58 64 65
f 58 65 59
f 61 67 73
f 61 73 68
f 61 68 62
f 61 62 66
f 63 69 64
f 64 69 70
f 64 70 65
f 65 70 71
f 67 72 73
f 68 73 79
f 68 79 74
f 68 74 75
f 69 76 70
f 70 76 77
f 70 77 78
f 70 78 71
f 72 79 73
f 74 79 80
f 74 80 75
f 76 81 78
f 76 78 77
f 78 81 82
f 78 82 83
f 79 84 80
f 80 84 85
f 80 85 86
f 81 87 82
f 82 87 85
f 82 85 84
f 82 84 83
f 85 87 86

