# https://github.com/mikedh/trimesh
v 0.01924142 -0.02985264 0.03349500
v 0.01924142 -0.02905991 0.03349086
v 0.01844992 -0.02985264 0.03349500
v 0.01924142 -0.03884775 0.03349500
v 0.01395015 -0.03164785 0.03348535
v 0.01305044 -0.03254954 0.03349500
v 0.01664989 -0.03075160 0.03349500
v 0.01924142 -0.02895095 0.03348811
v 0.01303099 -0.03884775 0.03349500
v 0.01924142 -0.03974944 0.03346743
v 0.01844992 -0.02895095 0.03347156
v 0.01305044 -0.03164785 0.03346605
v 0.01303099 -0.03256861 0.03349500
v 0.01924142 -0.02816095 0.03345502
v 0.01303099 -0.03974944 0.03346743
v 0.01303099 -0.03976851 0.03346605
v 0.01924142 -0.03985841 0.03345640
v 0.01395015 -0.03075160 0.03342607
v 0.01303099 -0.03077067 0.03337369
v 0.01303099 -0.03164785 0.03346467
v 0.01303099 -0.03166692 0.03346605
v 0.01924142 -0.02805198 0.03344537
v 0.01303099 -0.04064841 0.03337507
v 0.01924142 -0.04064841 0.03337507
v 0.01303099 -0.03075160 0.03337093
v 0.01844992 -0.02805198 0.03339712
v 0.01924142 -0.02725926 0.03335577
v 0.01303099 -0.04154738 0.03314348
v 0.01924142 -0.04154738 0.03314348
v 0.01303099 -0.02987171 0.03316415
v 0.01924142 -0.02715029 0.03333509
v 0.01924142 -0.02636029 0.03316691
v 0.01303099 -0.04156372 0.03313796
v 0.01924142 -0.04163455 0.03310763
v 0.01303099 -0.02985264 0.03315864
v 0.01924142 -0.02624587 0.03312969
v 0.01303099 -0.04225020 0.03284020
v 0.01924142 -0.04225020 0.03284020
v 0.01303099 -0.02908443 0.03285950
v 0.01924142 -0.02545042 0.03286915
v 0.01924142 -0.02539322 0.03284710
v 0.01303099 -0.04269969 0.03257277
v 0.01924142 -0.04269969 0.03257277
v 0.01303099 -0.02907081 0.03285399
v 0.01924142 -0.02496825 0.03266237
v 0.01303099 -0.04271331 0.03256312
v 0.01924142 -0.04277052 0.03251763
v 0.01303099 -0.02862950 0.03263343
v 0.01924142 -0.02470946 0.03251487
v 0.01303099 -0.04328538 0.03211372
v 0.01924142 -0.04327448 0.03212200
v 0.01924142 -0.02458960 0.03244319
v 0.01924142 -0.02448063 0.03237427
v 0.01924142 -0.02385135 0.03197587
v 0.01924142 -0.02380232 0.03194141
v 0.01303099 -0.02798388 0.03217438
v 0.01303099 -0.04372397 0.03171809
v 0.01924142 -0.04372397 0.03171809
v 0.01924142 -0.04332896 0.03207375
v 0.01924142 -0.02344818 0.03165054
v 0.01303099 -0.02754801 0.03184354
v 0.01303099 -0.02793212 0.03213578
v 0.01303099 -0.04373214 0.03170844
v 0.01924142 -0.04376755 0.03166295
v 0.01924142 -0.02335283 0.03155818
v 0.01303099 -0.02711487 0.03137760
v 0.01924142 -0.02295511 0.03116806
v 0.01924142 -0.02289518 0.03110741
v 0.01303099 -0.04407538 0.03126731
v 0.01924142 -0.04407538 0.03126731
v 0.01303099 -0.02709581 0.03135692
v 0.01924142 -0.02247839 0.03058495
v 0.01303099 -0.02670081 0.03088547
v 0.01303099 -0.04408628 0.03125215
v 0.01924142 -0.04412986 0.03118185
v 0.01924142 -0.02243208 0.03051878
v 0.01303099 -0.02644474 0.03046640
v 0.01924142 -0.02213787 0.03004871
v 0.01303099 -0.04452759 0.03055738
v 0.01924142 -0.04452759 0.03055738
v 0.01303099 -0.02644201 0.03046088
v 0.01924142 -0.02193083 0.02961172
v 0.01303099 -0.04475097 0.03009558
v 0.01924142 -0.04474552 0.03010660
v 0.01303099 -0.02604974 0.02960344
v 0.01924142 -0.01736517 0.01941207
v 0.01303099 -0.04493349 0.02954968
v 0.01924142 -0.04477004 0.03004043
v 0.01303099 -0.02603339 0.02956071
v 0.01303099 -0.02234490 0.01941207
v 0.01924142 -0.04519500 0.01941207
v 0.01303099 -0.04493893 0.02953038
v 0.01924142 -0.04493349 0.02954968
v 0.01303099 -0.04519500 0.01941207
v 0.01924142 -0.04519500 0.02684917
v 0.01924142 -0.04495800 0.02944078
v 0.01303099 -0.04512418 0.02864951
v 0.01303099 -0.04519500 0.02684917
v 0.01924142 -0.04518411 0.02774934
v 0.01924142 -0.04512418 0.02864951
v 0.01303099 -0.04518411 0.02774934
v 0.01924142 -0.04513235 0.02854061
f 1 2 3
f 1 3 7
f 1 7 6
f 1 6 13
f 1 13 9
f 1 9 4
f 1 4 10
f 1 10 17
f 1 17 24
f 1 24 29
f 1 29 34
f 1 34 38
f 1 38 43
f 1 43 47
f 1 47 51
f 1 51 59
f 1 59 58
f 1 58 64
f 1 64 70
f 1 70 75
f 1 75 80
f 1 80 84
f 1 84 88
f 1 88 93
f 1 93 96
f 1 96 100
f 1 100 102
f 1 102 99
f 1 99 95
f 1 95 91
f 1 91 86
f 1 86 82
f 1 82 78
f 1 78 76
f 1 76 72
f 1 72 68
f 1 68 67
f 1 67 65
f 1 65 60
f 1 60 55
f 1 55 54
f 1 54 53
f 1 53 52
f 1 52 49
f 1 49 45
f 1 45 41
f 1 41 40
f 1 40 36
f 1 36 32
f 1 32 31
f 1 31 27
f 1 27 22
f 1 22 14
f 1 14 8
f 1 8 2
f 2 5 6
f 2 6 7
f 2 7 3
f 2 8 5
f 4 9 15
f 4 15 10
f 5 8 11
f 5 11 12
f 5 12 6
f 6 12 21
f 6 21 13
f 8 14 11
f 9 13 21
f 9 21 20
f 9 20 19
f 9 19 25
f 9 25 30
f 9 30 35
f 9 35 39
f 9 39 44
f 9 44 48
f 9 48 56
f 9 56 62
f 9 62 61
f 9 61 66
f 9 66 71
f 9 71 73
f 9 73 77
f 9 77 81
f 9 81 85
f 9 85 89
f 9 89 90
f 9 90 94
f 9 94 98
f 9 98 101
f 9 101 97
f 9 97 92
f 9 92 87
f 9 87 83
f 9 83 79
f 9 79 74
f 9 74 69
f 9 69 63
f 9 63 57
f 9 57 50
f 9 50 46
f 9 46 42
f 9 42 37
f 9 37 33
f 9 33 28
f 9 28 23
f 9 23 16
f 9 16 15
f 10 15 16
f 10 16 17
f 11 14 12
f 12 18 19
f 12 19 20
f 12 20 21
f 12 14 22
f 12 22 18
f 16 23 24
f 16 24 17
f 18 22 19
f 19 22 26
f 19 26 27
f 19 27 25
f 22 27 26
f 23 28 29
f 23 29 24
f 25 27 31
f 25 31 32
f 25 32 30
f 28 33 29
f 29 33 34
f 30 32 35
f 32 36 35
f 33 37 34
f 34 37 38
f 35 36 40
f 35 40 41
f 35 41 39
f 37 42 43
f 37 43 38
f 39 41 44
f 41 45 44
f 42 46 43
f 43 46 47
f 44 45 48
f 45 49 48
f 46 50 51
f 46 51 47
f 48 49 52
f 48 52 53
f 48 53 54
f 48 54 55
f 48 55 56
f 50 57 58
f 50 58 59
f 50 59 51
f 55 60 61
f 55 61 62
f 55 62 56
f 57 63 58
f 58 63 64
f 60 65 61
f 61 65 67
f 61 67 68
f 61 68 66
f 63 69 64
f 64 69 70
f 66 68 71
f 68 72 73
f 68 73 71
f 69 74 70
f 70 74 75
f 72 76 73
f 73 76 78
f 73 78 77
f 74 79 80
f 74 80 75
f 77 78 81
f 78 82 81
f 79 83 80
f 80 83 84
f 81 82 85
f 82 86 85
f 83 87 88
f 83 88 84
f 85 86 89
f 86 90 89
f 86 91 94
f 86 94 90
f 87 92 93
f 87 93 88
f 91 95 98
f 91 98 94
f 92 96 93
f 92 97 96
f 95 99 101
f 95 101 98
f 96 97 100
f 97 101 102
f 97 102 100
f 99 102 101

