# https://github.com/mikedh/trimesh
v 0.01924142 -0.01737016 0.01941012
v 0.01303099 -0.02234704 0.01941012
v 0.01924142 -0.04519500 0.01941012
v 0.01924142 -0.01185480 0.01431693
v 0.01303099 -0.04519500 0.01941012
v 0.01303099 -0.01185480 0.00956277
v 0.01924142 -0.04519500 0.00075199
v 0.01924142 -0.01185480 -0.00049500
v 0.01303099 -0.04519500 0.00075199
v 0.01303099 -0.01185480 -0.00049500
v 0.01924142 -0.04494371 -0.00006829
v 0.01924142 -0.01620508 -0.00049500
v 0.01303099 -0.04494371 -0.00006829
v 0.01303099 -0.01545121 -0.00049500
v 0.01924142 -0.04486212 -0.00011701
v 0.01303464 -0.01620508 -0.00049500
v 0.01924142 -0.04334458 -0.00049305
v 0.01303099 -0.04424532 -0.00046577
v 0.01303099 -0.04334458 -0.00049305
v 0.01924142 -0.04424532 -0.00046577
v 0.01924142 -0.04413762 -0.00046967
f 1 2 5
f 1 5 3
f 1 3 7
f 1 7 11
f 1 11 15
f 1 15 20
f 1 20 21
f 1 21 17
f 1 17 12
f 1 12 8
f 1 8 4
f 1 4 2
f 2 4 6
f 2 6 10
f 2 10 14
f 2 14 19
f 2 19 18
f 2 18 13
f 2 13 9
f 2 9 5
f 3 5 9
f 3 9 7
f 4 8 10
f 4 10 6
f 7 9 13
f 7 13 11
f 8 12 16
f 8 16 14
f 8 14 10
f 11 13 15
f 12 17 19
f 12 19 16
f 13 18 15
f 14 16 19
f 15 18 20
f 17 21 19
f 18 19 21
f 18 21 20

