# https://github.com/mikedh/trimesh
v -0.01664913 -0.03075055 0.03349500
v -0.01737257 -0.03075055 0.03349500
v -0.01035081 -0.03344852 0.03349500
v -0.02114895 -0.02805543 0.03349381
v -0.02158967 -0.02805543 0.03349381
v -0.01737257 -0.03884733 0.03349500
v -0.00945512 -0.03434880 0.03349500
v -0.00945512 -0.03345138 0.03349142
v -0.02158967 -0.02715515 0.03348426
v -0.02158967 -0.03884733 0.03349381
v -0.02024851 -0.03974761 0.03346755
v -0.01737257 -0.03957041 0.03347351
v -0.01035081 -0.03884733 0.03349500
v -0.00945512 -0.03794991 0.03349500
v -0.00945512 -0.03255110 0.03344248
v -0.02158967 -0.02625202 0.03344129
v -0.02114895 -0.02715515 0.03347710
v -0.02158967 -0.03974761 0.03346158
v -0.02114895 -0.03974761 0.03346516
v -0.02024851 -0.04064788 0.03337325
v -0.01737257 -0.04064788 0.03337445
v -0.00945512 -0.03975047 0.03346755
v -0.00945512 -0.03885019 0.03349381
v -0.00945512 -0.03165368 0.03329090
v -0.02158967 -0.02535745 0.03333387
v -0.02114895 -0.02625202 0.03341503
v -0.02158967 -0.04064788 0.03335177
v -0.02114895 -0.04064788 0.03336609
v -0.02024851 -0.04154816 0.03314289
v -0.01035081 -0.04064788 0.03337445
v -0.00945512 -0.04065074 0.03337325
v -0.00945512 -0.03075340 0.03300921
v -0.02158967 -0.02359119 0.03288388
v -0.02158967 -0.02445432 0.03314289
v -0.02158967 -0.04154816 0.03310589
v -0.02114895 -0.04154816 0.03313096
v -0.02024851 -0.04224838 0.03283853
v -0.00945512 -0.04155102 0.03314170
v -0.01035081 -0.04154816 0.03314289
v -0.00945512 -0.03019037 0.03276452
v -0.02158373 -0.02308532 0.03270604
v -0.02158967 -0.02309104 0.03270962
v -0.02158967 -0.04185683 0.03297221
v -0.02114895 -0.04223695 0.03283136
v -0.02024851 -0.04269995 0.03257236
v -0.01737257 -0.04261135 0.03262487
v -0.00945512 -0.04225123 0.03283733
v -0.00945512 -0.02974166 0.03247090
v -0.02158967 -0.02191068 0.03204957
v -0.02158967 -0.02219076 0.03221309
v -0.02158967 -0.02256516 0.03242793
v -0.02158967 -0.04220837 0.03281824
v -0.02114895 -0.04267994 0.03256161
v -0.01737257 -0.04269995 0.03257236
v -0.02114895 -0.04325726 0.03211044
v -0.02024851 -0.04327155 0.03212118
v -0.01737257 -0.04327441 0.03212237
v -0.00945512 -0.04269995 0.03257116
v -0.00945512 -0.02915291 0.03201973
v -0.02158967 -0.02140195 0.03170820
v -0.02158967 -0.04265993 0.03254252
v -0.01035081 -0.04327441 0.03212237
v -0.02158967 -0.04323440 0.03209134
v -0.02114895 -0.04370597 0.03169865
v -0.02024851 -0.04372312 0.03171656
v -0.02158967 -0.04294002 0.03232290
v -0.01737257 -0.04363738 0.03179653
v -0.00945512 -0.04327441 0.03212118
v -0.00945512 -0.02870420 0.03157333
v -0.02158967 -0.02091894 0.03127254
v -0.01035081 -0.04372312 0.03171775
v -0.02158967 -0.04368025 0.03167120
v -0.02158967 -0.04385745 0.03145038
v -0.02114895 -0.04405751 0.03124748
v -0.01737257 -0.04372312 0.03171775
v -0.02024851 -0.04407180 0.03126657
v -0.01737257 -0.04407751 0.03126777
v -0.00945512 -0.04372312 0.03171656
v -0.00945512 -0.02832694 0.03112215
v -0.02158967 -0.02047023 0.03082256
v -0.01035081 -0.04407751 0.03126777
v -0.02158967 -0.04403464 0.03122122
v -0.02114895 -0.04450336 0.03052297
v -0.02024851 -0.04452623 0.03055639
v -0.00945512 -0.04407751 0.03126538
v -0.00945512 -0.02787537 0.03039884
v -0.02158967 -0.02009583 0.03035109
v -0.01035081 -0.04452623 0.03055639
v -0.02158967 -0.04450336 0.03045016
v -0.02158967 -0.04466055 0.03014938
v -0.02114895 -0.04473200 0.03007418
v -0.02024851 -0.04474343 0.03010641
v -0.01737257 -0.04470342 0.03019473
v -0.00945512 -0.04452623 0.03055400
v -0.00945512 -0.02784394 0.03032961
v -0.02158967 -0.01968999 0.02966836
v -0.00945512 -0.04474629 0.03010402
v -0.02158967 -0.04471485 0.03003837
v -0.02114895 -0.04490348 0.02954781
v -0.02024851 -0.04493206 0.02954781
v -0.01737257 -0.04493492 0.02954900
v -0.00945512 -0.02751812 0.02952036
v -0.02158967 -0.01599742 0.02137651
v -0.01035081 -0.04493492 0.02954900
v -0.00945512 -0.04493492 0.02954661
v -0.02158967 -0.04485776 0.02957765
v -0.02158967 -0.04496350 0.02911096
v -0.02114895 -0.04509211 0.02864904
v -0.02024851 -0.04512355 0.02864904
v -0.00945512 -0.02500020 0.02130132
v -0.01737257 -0.02037878 0.02130132
v -0.02158967 -0.04512927 0.02137651
v -0.01035081 -0.04512355 0.02864904
v -0.00945512 -0.04512355 0.02864665
v -0.02158967 -0.04505782 0.02864904
v -0.02158967 -0.04512355 0.02774907
v -0.02114895 -0.04515499 0.02774907
v -0.02024851 -0.04518357 0.02774907
v -0.00945512 -0.04519500 0.02130132
v -0.01737257 -0.04519500 0.02130132
v -0.02114895 -0.04516642 0.02137651
v -0.02139128 -0.04514642 0.02545500
v -0.02158967 -0.04512927 0.02685150
v -0.01035081 -0.04518357 0.02774907
v -0.00945512 -0.04518357 0.02774669
v -0.02114895 -0.04516071 0.02685150
v -0.02024851 -0.04519500 0.02685150
v -0.00945512 -0.04519500 0.02684791
v -0.02024851 -0.04519500 0.02137651
v -0.02114895 -0.04516642 0.02545500
v -0.01035081 -0.04519500 0.02685150
f 1 2 6
f 1 6 13
f 1 13 14
f 1 14 7
f 1 7 3
f 1 3 4
f 1 4 5
f 1 5 2
f 2 5 10
f 2 10 6
f 3 7 8
f 3 8 4
f 4 9 5
f 4 8 9
f 5 9 16
f 5 16 25
f 5 25 34
f 5 34 33
f 5 33 42
f 5 42 51
f 5 51 50
f 5 50 49
f 5 49 60
f 5 60 70
f 5 70 80
f 5 80 87
f 5 87 96
f 5 96 103
f 5 103 112
f 5 112 123
f 5 123 116
f 5 116 115
f 5 115 107
f 5 107 106
f 5 106 98
f 5 98 90
f 5 90 89
f 5 89 82
f 5 82 73
f 5 73 72
f 5 72 63
f 5 63 66
f 5 66 61
f 5 61 52
f 5 52 43
f 5 43 35
f 5 35 27
f 5 27 18
f 5 18 10
f 6 10 11
f 6 11 12
f 6 12 13
f 7 14 23
f 7 23 22
f 7 22 31
f 7 31 38
f 7 38 47
f 7 47 58
f 7 58 68
f 7 68 78
f 7 78 85
f 7 85 94
f 7 94 97
f 7 97 105
f 7 105 114
f 7 114 125
f 7 125 128
f 7 128 119
f 7 119 110
f 7 110 102
f 7 102 95
f 7 95 86
f 7 86 79
f 7 79 69
f 7 69 59
f 7 59 48
f 7 48 40
f 7 40 32
f 7 32 24
f 7 24 15
f 7 15 8
f 8 15 16
f 8 16 17
f 8 17 9
f 9 17 16
f 10 18 19
f 10 19 11
f 11 19 20
f 11 20 21
f 11 21 22
f 11 22 12
f 12 22 13
f 13 23 14
f 13 22 23
f 15 24 25
f 15 25 26
f 15 26 16
f 16 26 25
f 18 27 28
f 18 28 19
f 19 28 20
f 20 28 29
f 20 29 21
f 21 30 22
f 21 29 39
f 21 39 30
f 22 30 31
f 24 32 33
f 24 33 34
f 24 34 25
f 27 35 36
f 27 36 28
f 28 36 29
f 29 36 37
f 29 37 47
f 29 47 38
f 29 38 39
f 30 39 38
f 30 38 31
f 32 40 41
f 32 41 42
f 32 42 33
f 35 43 36
f 36 43 44
f 36 44 37
f 37 44 45
f 37 45 46
f 37 46 47
f 40 48 49
f 40 49 50
f 40 50 51
f 40 51 41
f 41 51 42
f 43 52 44
f 44 52 53
f 44 53 45
f 45 54 46
f 45 53 55
f 45 55 56
f 45 56 57
f 45 57 62
f 45 62 54
f 46 54 47
f 47 54 58
f 48 59 60
f 48 60 49
f 52 61 53
f 53 61 55
f 54 62 58
f 55 63 64
f 55 64 65
f 55 65 56
f 55 61 66
f 55 66 63
f 56 65 57
f 57 65 67
f 57 67 62
f 58 62 68
f 59 69 70
f 59 70 60
f 62 67 71
f 62 71 78
f 62 78 68
f 63 72 64
f 64 72 73
f 64 73 74
f 64 74 65
f 65 75 67
f 65 74 76
f 65 76 77
f 65 77 75
f 67 75 71
f 69 79 80
f 69 80 70
f 71 75 77
f 71 77 81
f 71 81 78
f 73 82 74
f 74 82 83
f 74 83 84
f 74 84 76
f 76 84 77
f 77 84 88
f 77 88 81
f 78 81 85
f 79 86 87
f 79 87 80
f 81 88 94
f 81 94 85
f 82 89 83
f 83 89 90
f 83 90 91
f 83 91 84
f 84 91 92
f 84 92 93
f 84 93 88
f 86 95 96
f 86 96 87
f 88 93 97
f 88 97 94
f 90 98 91
f 91 98 99
f 91 99 100
f 91 100 92
f 92 97 93
f 92 100 101
f 92 101 97
f 95 102 103
f 95 103 96
f 97 101 104
f 97 104 105
f 98 106 99
f 99 107 108
f 99 108 109
f 99 109 100
f 99 106 107
f 100 109 101
f 101 109 113
f 101 113 104
f 102 110 103
f 103 110 111
f 103 111 120
f 103 120 112
f 104 113 114
f 104 114 105
f 107 115 108
f 108 115 116
f 108 116 117
f 108 117 109
f 109 117 118
f 109 118 124
f 109 124 113
f 110 119 120
f 110 120 111
f 112 120 121
f 112 121 122
f 112 122 123
f 113 124 125
f 113 125 114
f 116 123 126
f 116 126 117
f 117 126 127
f 117 127 118
f 118 127 131
f 118 131 124
f 119 128 131
f 119 131 127
f 119 127 129
f 119 129 120
f 120 129 121
f 121 130 122
f 121 129 127
f 121 127 130
f 122 130 123
f 123 130 126
f 124 131 125
f 125 131 128
f 126 130 127

