# https://github.com/mikedh/trimesh
v 0.02303529 -0.01459903 0.02231732
v 0.02303529 -0.01185763 0.01928044
v 0.01924179 -0.01185763 0.01431872
v 0.01924179 -0.01925288 0.02231732
v 0.02303529 -0.04493392 0.02231732
v 0.02303529 -0.01185763 -0.00049500
v 0.01924179 -0.01185763 -0.00049500
v 0.01924179 -0.04519500 0.02231732
v 0.02294987 -0.04495676 0.02231732
v 0.02303529 -0.04493392 0.01154980
v 0.02303529 -0.04244708 -0.00049500
v 0.01924179 -0.04334782 -0.00049500
v 0.01924179 -0.04519500 0.00075101
v 0.02025005 -0.04519500 0.02231732
v 0.02204968 -0.04509383 0.02231732
v 0.02294987 -0.04495676 0.01784909
v 0.02294987 -0.04495350 0.01154980
v 0.02303529 -0.04492086 0.00075101
v 0.02303529 -0.04334782 -0.00049277
v 0.02294987 -0.04334782 -0.00049500
v 0.01924179 -0.04424857 -0.00046820
v 0.02025005 -0.04519500 0.00075101
v 0.01924179 -0.04494697 -0.00007073
v 0.02114986 -0.04516236 0.02231732
v 0.02201700 -0.04509710 0.02231732
v 0.02204968 -0.04507752 0.00075101
v 0.02294987 -0.04494044 0.00075101
v 0.02303529 -0.04480990 0.00006325
v 0.02303529 -0.04425509 -0.00032752
v 0.02294987 -0.04424857 -0.00035209
v 0.02204968 -0.04424857 -0.00043917
v 0.02114986 -0.04424857 -0.00046150
v 0.02025005 -0.04424857 -0.00046820
v 0.02025005 -0.04494697 -0.00007073
v 0.02114986 -0.04492739 -0.00006403
v 0.02114986 -0.04515910 0.00075101
v 0.02204968 -0.04488823 -0.00004170
v 0.02294987 -0.04481969 0.00004539
f 1 2 3
f 1 3 4
f 1 4 8
f 1 8 14
f 1 14 24
f 1 24 25
f 1 25 15
f 1 15 9
f 1 9 5
f 1 5 10
f 1 10 18
f 1 18 28
f 1 28 29
f 1 29 19
f 1 19 11
f 1 11 6
f 1 6 2
f 2 6 7
f 2 7 3
f 3 7 12
f 3 12 21
f 3 21 23
f 3 23 13
f 3 13 8
f 3 8 4
f 5 9 16
f 5 16 10
f 6 11 20
f 6 20 12
f 6 12 7
f 8 13 22
f 8 22 14
f 9 15 16
f 10 16 17
f 10 17 27
f 10 27 18
f 11 19 20
f 12 20 33
f 12 33 21
f 13 23 34
f 13 34 22
f 14 22 24
f 15 25 26
f 15 26 17
f 15 17 16
f 17 26 27
f 18 27 28
f 19 29 30
f 19 30 31
f 19 31 20
f 20 31 32
f 20 32 33
f 21 33 34
f 21 34 23
f 22 34 35
f 22 35 36
f 22 36 24
f 24 36 25
f 25 36 26
f 26 36 37
f 26 37 38
f 26 38 28
f 26 28 27
f 28 38 29
f 29 38 30
f 30 38 37
f 30 37 31
f 31 37 35
f 31 35 32
f 32 35 34
f 32 34 33
f 35 37 36

