# https://github.com/mikedh/trimesh
v -0.04364977 -0.00194157 -0.00049500
v -0.04454761 -0.00194157 -0.00046766
v -0.04452904 0.00432997 -0.00046927
v -0.04364977 0.00432997 -0.00049500
v -0.01575137 -0.00194157 -0.00049500
v -0.04454761 0.00432997 -0.00046766
v -0.04455381 -0.00194157 -0.00046445
v -0.01575137 0.00432997 -0.00049500
v -0.01485043 0.00432997 -0.00046123
v -0.01485972 -0.00194157 -0.00026828
v -0.04524732 0.00432997 -0.00007050
v -0.04524732 -0.00194157 -0.00007050
v -0.01413215 0.00432997 -0.00006406
v -0.01485043 -0.00194157 -0.00026345
v -0.04549500 0.00432997 0.00075117
v -0.04549500 -0.00194157 0.00075117
v -0.01386898 0.00432997 0.00075117
v -0.01433958 -0.00194157 0.00013050
v -0.04549500 0.00432997 0.01593193
v -0.04549500 -0.00194157 0.01593193
v -0.01386898 0.00432997 0.00077047
v -0.01428076 -0.00194157 0.00074474
v -0.02364936 0.00432997 0.01593193
v -0.02389086 -0.00194157 0.01593193
v -0.01390304 0.00432997 0.00347023
v -0.01430862 -0.00194157 0.00345094
v -0.01428076 -0.00194157 0.00075117
v -0.01560586 0.00432997 0.00812045
v -0.01595262 -0.00194157 0.00809634
v -0.01393710 0.00432997 0.00437069
v -0.01433958 -0.00194157 0.00432084
v -0.01559348 0.00432997 0.00810759
v -0.01587212 -0.00194157 0.00801272
v -0.01403617 0.00432997 0.00525185
v -0.01443866 -0.00194157 0.00528562
v -0.01434268 -0.00194157 0.00435461
v -0.01517242 0.00432997 0.00766862
v -0.01534889 -0.00194157 0.00742903
v -0.01403927 0.00432997 0.00526793
v -0.01444794 -0.00194157 0.00533386
v -0.01516622 0.00432997 0.00766058
v -0.01507334 -0.00194157 0.00697880
v -0.01470801 0.00432997 0.00699488
v -0.01473278 0.00432997 0.00703187
v -0.01427147 0.00432997 0.00612498
v -0.01467086 -0.00194157 0.00615070
v -0.01443246 0.00432997 0.00651732
f 1 2 3
f 1 3 4
f 1 4 8
f 1 8 5
f 1 5 10
f 1 10 14
f 1 14 18
f 1 18 22
f 1 22 27
f 1 27 26
f 1 26 31
f 1 31 36
f 1 36 35
f 1 35 40
f 1 40 46
f 1 46 42
f 1 42 38
f 1 38 33
f 1 33 29
f 1 29 24
f 1 24 20
f 1 20 16
f 1 16 12
f 1 12 7
f 1 7 2
f 2 6 3
f 2 7 6
f 3 6 11
f 3 11 15
f 3 15 19
f 3 19 23
f 3 23 28
f 3 28 32
f 3 32 37
f 3 37 41
f 3 41 44
f 3 44 43
f 3 43 47
f 3 47 45
f 3 45 39
f 3 39 34
f 3 34 30
f 3 30 25
f 3 25 21
f 3 21 17
f 3 17 13
f 3 13 9
f 3 9 8
f 3 8 4
f 5 8 9
f 5 9 10
f 6 7 11
f 7 12 11
f 9 13 14
f 9 14 10
f 11 12 16
f 11 16 15
f 13 17 18
f 13 18 14
f 15 16 20
f 15 20 19
f 17 21 27
f 17 27 22
f 17 22 18
f 19 20 24
f 19 24 23
f 21 25 26
f 21 26 27
f 23 24 28
f 24 29 28
f 25 30 31
f 25 31 26
f 28 29 33
f 28 33 32
f 30 34 35
f 30 35 36
f 30 36 31
f 32 33 37
f 33 38 37
f 34 39 40
f 34 40 35
f 37 38 41
f 38 42 43
f 38 43 44
f 38 44 41
f 39 45 40
f 40 45 46
f 42 46 47
f 42 47 43
f 45 47 46

