# https://github.com/mikedh/trimesh
v -0.04364752 0.00433047 -0.00049500
v -0.04452798 0.00433047 -0.00046766
v -0.04364752 0.00946320 -0.00049500
v -0.02023465 0.00433047 -0.00049500
v -0.04454815 0.00946320 -0.00046606
v -0.04454815 0.00433047 -0.00046606
v -0.01950205 0.00946320 -0.00049500
v -0.01950205 0.00433399 -0.00049500
v -0.01575169 0.00433047 -0.00049339
v -0.04502198 0.00946320 -0.00019592
v -0.04524378 0.00433047 -0.00006889
v -0.01395380 0.00946320 -0.00049339
v -0.01395380 0.00794926 -0.00049339
v -0.01485107 0.00525049 -0.00048857
v -0.01485107 0.00435057 -0.00046284
v -0.01485107 0.00433047 -0.00046123
v -0.04524378 0.00946320 -0.00006889
v -0.04541516 0.00946320 0.00049068
v -0.04549246 0.00433047 0.00075278
v -0.01305318 0.00946320 -0.00049018
v -0.01305318 0.00884918 -0.00048214
v -0.01214248 0.00946320 -0.00034707
v -0.01141324 0.00946320 0.00000508
v -0.01413191 0.00433047 -0.00006407
v -0.04549246 0.00946320 0.00075278
v -0.04549246 0.00433047 0.01593193
v -0.01116456 0.00946320 0.00075278
v -0.01386643 0.00433047 0.00075278
v -0.04549246 0.00946320 0.01593193
v -0.02365232 0.00433047 0.01593193
v -0.01116456 0.00946320 0.00096503
v -0.01390340 0.00433047 0.00345254
v -0.01119480 0.00946320 0.00345254
v -0.02217368 0.00946320 0.01593193
v -0.01559375 0.00433047 0.00810759
v -0.01258607 0.00946320 0.00750943
v -0.01305654 0.00946320 0.00794519
v -0.01318088 0.00946320 0.00805614
v -0.01393700 0.00433047 0.00437069
v -0.01123849 0.00946320 0.00435139
v -0.01517368 0.00433047 0.00766862
v -0.01244492 0.00946320 0.00734381
v -0.01403782 0.00433047 0.00525346
v -0.01136619 0.00946320 0.00528401
v -0.01516696 0.00433047 0.00766058
v -0.01227018 0.00946320 0.00712030
v -0.01404118 0.00433047 0.00526793
v -0.01144684 0.00946320 0.00560078
v -0.01470657 0.00433047 0.00699327
v -0.01220969 0.00946320 0.00703508
v -0.01427306 0.00433047 0.00612497
v -0.01156110 0.00946320 0.00591755
v -0.01427978 0.00433047 0.00614909
v -0.01443100 0.00433047 0.00651571
v -0.01179634 0.00946320 0.00639190
v -0.01164511 0.00946320 0.00612497
f 1 2 3
f 1 3 7
f 1 7 8
f 1 8 4
f 1 4 9
f 1 9 16
f 1 16 24
f 1 24 28
f 1 28 32
f 1 32 39
f 1 39 43
f 1 43 47
f 1 47 51
f 1 51 53
f 1 53 54
f 1 54 49
f 1 49 45
f 1 45 41
f 1 41 35
f 1 35 30
f 1 30 26
f 1 26 19
f 1 19 11
f 1 11 6
f 1 6 2
f 2 5 3
f 2 6 5
f 3 5 10
f 3 10 17
f 3 17 18
f 3 18 25
f 3 25 29
f 3 29 34
f 3 34 38
f 3 38 37
f 3 37 36
f 3 36 42
f 3 42 46
f 3 46 50
f 3 50 55
f 3 55 56
f 3 56 52
f 3 52 48
f 3 48 44
f 3 44 40
f 3 40 33
f 3 33 31
f 3 31 27
f 3 27 23
f 3 23 22
f 3 22 20
f 3 20 12
f 3 12 7
f 4 8 9
f 5 6 10
f 6 11 10
f 7 12 13
f 7 13 8
f 8 13 9
f 9 13 14
f 9 14 15
f 9 15 16
f 10 11 17
f 11 18 17
f 11 19 18
f 12 20 13
f 13 20 14
f 14 20 21
f 14 21 15
f 15 21 16
f 16 21 22
f 16 22 23
f 16 23 24
f 18 19 25
f 19 26 29
f 19 29 25
f 20 22 21
f 23 27 24
f 24 27 28
f 26 30 34
f 26 34 29
f 27 31 28
f 28 31 33
f 28 33 32
f 30 35 36
f 30 36 37
f 30 37 38
f 30 38 34
f 32 33 39
f 33 40 39
f 35 41 36
f 36 41 42
f 39 40 43
f 40 44 43
f 41 45 42
f 42 45 46
f 43 44 47
f 44 48 47
f 45 49 50
f 45 50 46
f 47 48 51
f 48 52 53
f 48 53 51
f 49 54 55
f 49 55 50
f 52 56 53
f 53 56 54
f 54 56 55

