# https://github.com/mikedh/trimesh
v -0.00674956 -0.03435111 0.03349500
v -0.00944946 -0.03345071 0.03349155
v -0.00944946 -0.03435111 0.03349500
v -0.00000722 -0.03524954 0.03349500
v -0.00945316 -0.03255423 0.03344325
v -0.00945316 -0.03345462 0.03349155
v -0.00000722 -0.03435111 0.03347200
v -0.00945316 -0.03435502 0.03349500
v -0.00000722 -0.03884917 0.03349500
v -0.00000722 -0.03345071 0.03339035
v -0.00945316 -0.03165383 0.03329146
v -0.00945316 -0.03795269 0.03349500
v -0.00944946 -0.03884917 0.03349500
v -0.00000722 -0.03930720 0.03348120
v -0.00000722 -0.03255031 0.03316726
v -0.00945316 -0.03075344 0.03300972
v -0.00945316 -0.03885308 0.03349385
v -0.00945316 -0.03975152 0.03346740
v -0.00000722 -0.03974956 0.03346740
v -0.00000722 -0.03182021 0.03285217
v -0.00945316 -0.03018776 0.03276592
v -0.00945316 -0.04065192 0.03337425
v -0.00000722 -0.04020563 0.03342025
v -0.00000722 -0.03137001 0.03259573
v -0.00945316 -0.02973951 0.03247038
v -0.00000722 -0.04154840 0.03314426
v -0.00000722 -0.04064996 0.03337425
v -0.00945316 -0.04155232 0.03314311
v -0.00944946 -0.04154840 0.03314426
v -0.00000722 -0.03108619 0.03237379
v -0.00945316 -0.02915034 0.03201960
v -0.00000722 -0.04190660 0.03298902
v -0.00945316 -0.04225306 0.03283837
v -0.00944946 -0.04225110 0.03283952
v -0.00000722 -0.04225110 0.03283952
v -0.00000722 -0.03079454 0.03214494
v -0.00945316 -0.02870210 0.03157341
v -0.00000722 -0.03057336 0.03195290
v -0.00000722 -0.03034435 0.03175396
v -0.00000722 -0.04248011 0.03270383
v -0.00945316 -0.04270325 0.03257043
v -0.00944946 -0.04270130 0.03257273
v -0.00944946 -0.02832824 0.03112263
v -0.00945316 -0.02832824 0.03112263
v -0.00000722 -0.03016818 0.03153316
v -0.00000722 -0.04270130 0.03257273
v -0.00945316 -0.04327677 0.03212080
v -0.00000722 -0.04299295 0.03234389
v -0.00945316 -0.02828127 0.03105018
v -0.00000722 -0.02998810 0.03130432
v -0.00000722 -0.02953790 0.03065229
v -0.00945316 -0.04372696 0.03171601
v -0.00944946 -0.04372501 0.03171831
v -0.00000722 -0.04350382 0.03191725
v -0.00000722 -0.04327481 0.03212194
v -0.00945316 -0.02787413 0.03039930
v -0.00000722 -0.02929910 0.03020266
v -0.00000722 -0.04407734 0.03126752
v -0.00000722 -0.04372501 0.03171831
v -0.00945316 -0.04407734 0.03126522
v -0.00944946 -0.04407734 0.03126752
v -0.00945316 -0.02784281 0.03032915
v -0.00000722 -0.02907988 0.02954948
v -0.00945316 -0.02751788 0.02952073
v -0.00000722 -0.04452753 0.03055685
v -0.00945316 -0.04452753 0.03055570
v -0.00944946 -0.04452753 0.03055685
v -0.00000722 -0.02690914 0.02174699
v -0.00945316 -0.02519839 0.02174699
v -0.00000722 -0.04474676 0.03010721
v -0.00945316 -0.04474676 0.03010491
v -0.00944946 -0.04474676 0.03010721
v -0.00000722 -0.04519500 0.02174699
v -0.00945316 -0.04519500 0.02174699
v -0.00000722 -0.04484267 0.02982432
v -0.00945316 -0.04493467 0.02954603
v -0.00944946 -0.04493467 0.02954948
v -0.00000722 -0.04519500 0.02685052
v -0.00945316 -0.04519500 0.02684707
v -0.00000722 -0.04493467 0.02954948
v -0.00945316 -0.04512453 0.02864676
v -0.00944946 -0.04512453 0.02864906
v -0.00000722 -0.04518522 0.02774979
v -0.00944946 -0.04519500 0.02685052
v -0.00945316 -0.04518522 0.02774634
v -0.00000722 -0.04512453 0.02864906
v -0.00944946 -0.04518522 0.02774979
f 1 2 3
f 1 3 8
f 1 8 12
f 1 12 13
f 1 13 9
f 1 9 4
f 1 4 2
f 2 5 6
f 2 6 8
f 2 8 3
f 2 4 7
f 2 7 5
f 4 9 14
f 4 14 19
f 4 19 23
f 4 23 27
f 4 27 26
f 4 26 32
f 4 32 35
f 4 35 40
f 4 40 46
f 4 46 48
f 4 48 55
f 4 55 54
f 4 54 59
f 4 59 58
f 4 58 65
f 4 65 70
f 4 70 75
f 4 75 80
f 4 80 86
f 4 86 83
f 4 83 78
f 4 78 73
f 4 73 68
f 4 68 63
f 4 63 57
f 4 57 51
f 4 51 50
f 4 50 45
f 4 45 39
f 4 39 38
f 4 38 36
f 4 36 30
f 4 30 24
f 4 24 20
f 4 20 15
f 4 15 10
f 4 10 7
f 5 10 11
f 5 11 16
f 5 16 21
f 5 21 25
f 5 25 31
f 5 31 37
f 5 37 44
f 5 44 49
f 5 49 56
f 5 56 62
f 5 62 64
f 5 64 69
f 5 69 74
f 5 74 79
f 5 79 85
f 5 85 81
f 5 81 76
f 5 76 71
f 5 71 66
f 5 66 60
f 5 60 52
f 5 52 47
f 5 47 41
f 5 41 33
f 5 33 28
f 5 28 22
f 5 22 18
f 5 18 17
f 5 17 12
f 5 12 8
f 5 8 6
f 5 7 10
f 9 13 14
f 10 15 11
f 11 15 16
f 12 17 13
f 13 17 18
f 13 18 14
f 14 18 19
f 15 20 21
f 15 21 16
f 18 22 23
f 18 23 19
f 20 24 21
f 21 24 25
f 22 26 27
f 22 27 23
f 22 28 29
f 22 29 26
f 24 30 31
f 24 31 25
f 26 29 28
f 26 28 32
f 28 33 34
f 28 34 35
f 28 35 32
f 30 36 31
f 31 36 38
f 31 38 39
f 31 39 37
f 33 40 35
f 33 35 34
f 33 41 42
f 33 42 40
f 37 39 43
f 37 43 44
f 39 45 43
f 40 42 46
f 41 47 42
f 42 47 48
f 42 48 46
f 43 49 44
f 43 45 50
f 43 50 51
f 43 51 49
f 47 52 53
f 47 53 54
f 47 54 55
f 47 55 48
f 49 51 56
f 51 57 56
f 52 58 59
f 52 59 53
f 52 60 61
f 52 61 58
f 53 59 54
f 56 57 62
f 57 63 64
f 57 64 62
f 58 61 67
f 58 67 65
f 60 66 61
f 61 66 67
f 63 68 69
f 63 69 64
f 65 67 72
f 65 72 70
f 66 71 72
f 66 72 67
f 68 73 74
f 68 74 69
f 70 72 75
f 71 76 77
f 71 77 72
f 72 77 75
f 73 78 84
f 73 84 79
f 73 79 74
f 75 77 80
f 76 81 77
f 77 81 82
f 77 82 86
f 77 86 80
f 78 83 87
f 78 87 84
f 79 84 87
f 79 87 85
f 81 85 87
f 81 87 82
f 82 87 83
f 82 83 86

