# https://github.com/mikedh/trimesh
v 0.01027935 0.04579500 0.01488273
v 0.00728443 0.04579500 0.01488273
v 0.01255820 0.04579125 0.01488273
v 0.01027935 0.04579500 0.00075286
v 0.00728443 0.04579500 0.00075286
v 0.00728443 0.02273484 0.01488273
v 0.01255820 0.04579125 0.00075286
v 0.01255820 0.01983119 0.01488273
v 0.01255820 0.04554332 -0.00006901
v 0.01027935 0.04556587 -0.00000579
v 0.00728443 0.04554332 -0.00006901
v 0.00728443 0.02234042 0.01488122
v 0.00728546 0.02234042 0.01488273
v 0.01255820 0.00939232 0.00741815
v 0.01255820 0.04484465 -0.00046791
v 0.00728443 0.04513013 -0.00030684
v 0.00728443 0.01484652 0.00827314
v 0.01255820 0.00892653 0.00697410
v 0.00728443 0.01438074 0.00783812
v 0.01255820 0.04394688 -0.00049500
v 0.00728443 0.04484465 -0.00046791
v 0.01255820 0.00847953 0.00651800
v 0.00728443 0.01392622 0.00731278
v 0.01027935 0.04394688 -0.00049500
v 0.01255820 0.01024876 -0.00049500
v 0.00728443 0.04394312 -0.00049500
v 0.01255820 0.00813019 0.00603933
v 0.00728443 0.01362196 0.00688830
v 0.01255820 0.00934724 -0.00046339
v 0.00728443 0.01425302 -0.00048747
v 0.00765047 0.01425302 -0.00049500
v 0.00728443 0.01462114 -0.00049500
v 0.01255820 0.00775455 0.00525058
v 0.00728443 0.01324257 0.00620792
v 0.01255820 0.00842694 -0.00023158
v 0.00728443 0.01371962 -0.00037307
v 0.01255820 0.00760055 0.00458826
v 0.00728443 0.01313739 0.00584666
v 0.00728443 0.01296460 0.00525058
v 0.01255820 0.00776958 0.00003184
v 0.00728443 0.01334774 -0.00017287
v 0.01255820 0.00754044 0.00409454
v 0.00728443 0.01296084 0.00522800
v 0.00728443 0.01287445 0.00455213
v 0.01255820 0.00748034 0.00021097
v 0.00728443 0.01300592 0.00004689
v 0.01255820 0.00750664 0.00345179
v 0.00728443 0.01284064 0.00408099
v 0.01255820 0.00746532 0.00023656
v 0.00728443 0.01286318 0.00024107
v 0.01255820 0.00742400 0.00075286
v 0.00728443 0.01282937 0.00345179
v 0.00728443 0.01282937 0.00038106
v 0.00728443 0.01281810 0.00165150
v 0.00728443 0.01281810 0.00075286
f 1 2 6
f 1 6 13
f 1 13 8
f 1 8 3
f 1 3 7
f 1 7 4
f 1 4 5
f 1 5 2
f 2 5 11
f 2 11 16
f 2 16 21
f 2 21 26
f 2 26 32
f 2 32 30
f 2 30 36
f 2 36 41
f 2 41 46
f 2 46 50
f 2 50 53
f 2 53 55
f 2 55 54
f 2 54 52
f 2 52 48
f 2 48 44
f 2 44 43
f 2 43 39
f 2 39 38
f 2 38 34
f 2 34 28
f 2 28 23
f 2 23 19
f 2 19 17
f 2 17 12
f 2 12 6
f 3 8 14
f 3 14 18
f 3 18 22
f 3 22 27
f 3 27 33
f 3 33 37
f 3 37 42
f 3 42 47
f 3 47 51
f 3 51 49
f 3 49 45
f 3 45 40
f 3 40 35
f 3 35 29
f 3 29 25
f 3 25 20
f 3 20 15
f 3 15 9
f 3 9 7
f 4 7 9
f 4 9 10
f 4 10 5
f 5 10 11
f 6 12 13
f 8 13 14
f 9 15 16
f 9 16 11
f 9 11 10
f 12 17 13
f 13 17 14
f 14 17 19
f 14 19 18
f 15 20 24
f 15 24 21
f 15 21 16
f 18 19 22
f 19 23 22
f 20 25 31
f 20 31 32
f 20 32 26
f 20 26 24
f 21 24 26
f 22 23 27
f 23 28 27
f 25 29 30
f 25 30 31
f 27 28 34
f 27 34 33
f 29 35 36
f 29 36 30
f 30 32 31
f 33 34 38
f 33 38 39
f 33 39 37
f 35 40 36
f 36 40 41
f 37 39 43
f 37 43 44
f 37 44 42
f 40 45 41
f 41 45 46
f 42 44 48
f 42 48 47
f 45 49 50
f 45 50 46
f 47 48 51
f 48 52 51
f 49 51 53
f 49 53 50
f 51 52 54
f 51 54 55
f 51 55 53

