# https://github.com/mikedh/trimesh
v -0.04364895 0.01641683 -0.00049167
v -0.02038283 0.01641683 -0.00049167
v -0.04454862 0.01641683 -0.00046838
v -0.04364895 0.02415209 -0.00049167
v -0.02038283 0.04394745 -0.00049167
v -0.02038283 0.01641683 0.01916171
v -0.04524673 0.01641683 -0.00006913
v -0.04454862 0.02055188 -0.00046838
v -0.04454862 0.02145193 -0.00046173
v -0.04454862 0.02235199 -0.00043844
v -0.04364895 0.02505214 -0.00046506
v -0.04274928 0.02595219 -0.00049167
v -0.02385124 0.04394745 -0.00049167
v -0.02038283 0.04408260 -0.00048835
v -0.02038283 0.02143181 0.02947915
v -0.02457884 0.01641683 0.02957564
v -0.04524673 0.02055188 -0.00006913
v -0.04534752 0.01641683 0.00026359
v -0.04522952 0.02145193 -0.00006247
v -0.04519020 0.02235199 -0.00003918
v -0.04454862 0.02325204 -0.00035193
v -0.04439868 0.02505214 -0.00006580
v -0.04372761 0.02602120 -0.00015231
v -0.04274928 0.02685224 -0.00041848
v -0.04184961 0.02775229 -0.00045840
v -0.04094993 0.02865234 -0.00046173
v -0.04094993 0.02775229 -0.00049167
v -0.02565058 0.04304740 -0.00049167
v -0.02475091 0.04394745 -0.00046506
v -0.02205189 0.04484751 -0.00043844
v -0.02115222 0.04484751 -0.00046173
v -0.02038283 0.04484751 -0.00046506
v -0.02038283 0.02176537 0.03016454
v -0.02475091 0.01641683 0.02994495
v -0.04549500 0.02055188 0.00075268
v -0.04549500 0.01641683 0.00075268
v -0.04545813 0.02145193 0.00075268
v -0.04537947 0.02235199 0.00075268
v -0.04511891 0.02325204 0.00004732
v -0.04504763 0.02386166 0.00018041
v -0.04424136 0.02576815 0.00007394
v -0.04347934 0.02685224 -0.00002255
v -0.04274682 0.02772929 -0.00008909
v -0.04185944 0.02865809 -0.00012236
v -0.04095977 0.02956102 -0.00012569
v -0.02926156 0.04125880 -0.00012569
v -0.03195075 0.03764998 -0.00046173
v -0.03105108 0.03764998 -0.00049167
v -0.02745239 0.04124730 -0.00049167
v -0.02835206 0.04124730 -0.00046173
v -0.02745239 0.04214735 -0.00045840
v -0.02655025 0.04304740 -0.00041848
v -0.02571941 0.04402797 -0.00015231
v -0.02475091 0.04469798 -0.00006580
v -0.02295156 0.04484751 -0.00035193
v -0.02205189 0.04548875 -0.00003918
v -0.02115222 0.04552901 -0.00006247
v -0.02038283 0.04554339 -0.00006913
v -0.02038283 0.04494815 -0.00040849
v -0.02038283 0.02189477 0.03037082
v -0.02493773 0.01641683 0.03034088
v -0.04546550 0.02145193 0.01065090
v -0.04546059 0.02145193 0.00165100
v -0.04549500 0.02055188 0.02684739
v -0.04549500 0.01641683 0.02684739
v -0.04524182 0.02325204 0.00075268
v -0.04538684 0.02235199 0.00615261
v -0.04507221 0.02394505 0.00075268
v -0.04493701 0.02439363 0.00075268
v -0.04469857 0.02505214 0.00075268
v -0.04431265 0.02590043 0.00075268
v -0.04407175 0.02634902 0.00075268
v -0.04329006 0.02741297 0.00013383
v -0.04244447 0.02836478 0.00008392
v -0.04156447 0.02926771 0.00007727
v -0.03976512 0.03106781 0.00007727
v -0.02896905 0.04186555 0.00007727
v -0.02835943 0.04215885 -0.00012236
v -0.02742780 0.04304453 -0.00008909
v -0.02655025 0.04377780 -0.00002255
v -0.02546622 0.04453982 0.00007394
v -0.02356118 0.04534785 0.00018041
v -0.02295156 0.04541974 0.00004732
v -0.02205189 0.04567855 0.00075268
v -0.02115222 0.04575905 0.00075268
v -0.02038283 0.04578781 0.00075268
v -0.02038283 0.02203855 0.03057045
v -0.02503851 0.01641683 0.03051389
v -0.04539668 0.02235199 0.01784749
v -0.04546550 0.02145193 0.02684739
v -0.04539913 0.02235199 0.02234910
v -0.04539422 0.02235199 0.01335253
v -0.04539176 0.02235199 0.01065090
v -0.04548517 0.02055188 0.02774904
v -0.04548517 0.01641683 0.02774904
v -0.04507466 0.02395080 0.00255265
v -0.04525164 0.02325204 0.00795259
v -0.04507958 0.02396518 0.00795259
v -0.04470103 0.02505214 0.00165100
v -0.04493947 0.02440226 0.00345098
v -0.04470349 0.02505214 0.00255265
v -0.04431510 0.02590618 0.00345098
v -0.04407421 0.02635477 0.00255265
v -0.04375957 0.02685224 0.00075268
v -0.04333677 0.02746761 0.00075268
v -0.04296559 0.02791907 0.00075268
v -0.04251576 0.02844530 0.00075268
v -0.04209788 0.02889676 0.00075268
v -0.04164804 0.02935110 0.00075268
v -0.04119820 0.02980257 0.00075268
v -0.04029853 0.03070262 0.00075268
v -0.02995230 0.04104889 0.00075268
v -0.02905016 0.04194894 0.00075268
v -0.02859541 0.04239753 0.00075268
v -0.02806446 0.04274259 0.00008392
v -0.02711316 0.04359089 0.00013383
v -0.02605126 0.04437016 0.00075268
v -0.02560142 0.04461171 0.00075268
v -0.02475091 0.04499991 0.00075268
v -0.02409459 0.04523571 0.00075268
v -0.02364475 0.04537086 0.00075268
v -0.02295156 0.04554051 0.00075268
v -0.02295156 0.04555490 0.01245088
v -0.02205189 0.04569867 0.02684739
v -0.02115222 0.04576481 0.02594906
v -0.02038283 0.04578781 0.02698047
v -0.02038283 0.02212769 0.03069023
v -0.02524253 0.01641683 0.03080002
v -0.04525656 0.02325204 0.01245088
v -0.04545568 0.02145193 0.02774904
v -0.04539913 0.02235199 0.02684739
v -0.04542371 0.02055188 0.02864737
v -0.04542126 0.01641683 0.02864737
v -0.04542371 0.01785173 0.02864737
v -0.04508204 0.02397668 0.01245088
v -0.04494684 0.02442814 0.01245088
v -0.04472069 0.02505214 0.01515251
v -0.04431756 0.02591193 0.00705094
v -0.04408404 0.02637490 0.01425086
v -0.04407912 0.02636339 0.00795259
v -0.04377186 0.02685224 0.01245088
v -0.04377432 0.02685224 0.01515251
v -0.04334414 0.02748486 0.02594906
v -0.04297051 0.02793633 0.02684739
v -0.04252067 0.02844530 0.02504741
v -0.04209788 0.02889676 0.02684739
v -0.04164804 0.02935110 0.02684739
v -0.04119820 0.02980257 0.02684739
v -0.04029853 0.03070262 0.02684739
v -0.02995230 0.04104889 0.02684739
v -0.02859787 0.04239753 0.00345098
v -0.02905016 0.04194894 0.02684739
v -0.02814558 0.04281736 0.00075268
v -0.02761954 0.04326595 0.00075268
v -0.02716970 0.04363689 0.00075268
v -0.02655025 0.04405960 0.00075268
v -0.02605126 0.04437304 0.00165100
v -0.02560388 0.04461458 0.00255265
v -0.02409951 0.04523858 0.00255265
v -0.02475091 0.04501141 0.00795259
v -0.02412900 0.04524721 0.01335253
v -0.02364721 0.04537373 0.00165100
v -0.02365459 0.04537661 0.00435263
v -0.02366442 0.04537948 0.00795259
v -0.02366688 0.04537948 0.00885092
v -0.02367671 0.04537948 0.01245088
v -0.02367917 0.04537948 0.01335253
v -0.02368408 0.04537948 0.01694916
v -0.02368654 0.04537948 0.01874914
v -0.02295156 0.04555777 0.02234910
v -0.02295156 0.04555777 0.02504741
v -0.02295156 0.04555490 0.02684739
v -0.02205189 0.04569005 0.02774904
v -0.02115222 0.04576481 0.02684739
v -0.02115222 0.04575618 0.02774904
v -0.02038283 0.04577919 0.02774904
v -0.02038283 0.02253890 0.03114272
v -0.02540231 0.01641683 0.03100298
v -0.04525656 0.02325204 0.02684739
v -0.04539422 0.02145193 0.02864737
v -0.04538930 0.02235199 0.02774904
v -0.04523444 0.02055188 0.02954902
v -0.04534506 0.01641683 0.02901335
v -0.04523444 0.01875178 0.02954902
v -0.04507958 0.02398530 0.01874914
v -0.04495421 0.02443964 0.02414908
v -0.04495421 0.02443964 0.02234910
v -0.04495176 0.02443677 0.01874914
v -0.04432002 0.02592343 0.01335253
v -0.04472561 0.02505214 0.01964747
v -0.04432248 0.02592631 0.01694916
v -0.04408404 0.02637490 0.01964747
v -0.04377432 0.02685224 0.02684739
v -0.04334414 0.02748486 0.02684739
v -0.04296559 0.02792770 0.02774904
v -0.04251576 0.02843955 0.02774904
v -0.04252067 0.02844530 0.02684739
v -0.04209296 0.02889101 0.02774904
v -0.04164312 0.02934535 0.02774904
v -0.02994492 0.04104314 0.02774904
v -0.02814558 0.04282311 0.01335253
v -0.02814558 0.04282023 0.00525096
v -0.02859787 0.04239753 0.02684739
v -0.02904525 0.04194031 0.02774904
v -0.02859049 0.04239177 0.02774904
v -0.02762937 0.04327170 0.01155255
v -0.02762691 0.04327170 0.00885092
v -0.02762199 0.04326882 0.00345098
v -0.02655025 0.04406248 0.00255265
v -0.02717708 0.04363977 0.00885092
v -0.02717462 0.04363977 0.00705094
v -0.02655025 0.04407685 0.01425086
v -0.02655025 0.04406823 0.00705094
v -0.02607584 0.04438454 0.01515251
v -0.02607338 0.04438454 0.01425086
v -0.02606355 0.04437879 0.00795259
v -0.02605617 0.04437591 0.00435263
v -0.02561125 0.04461746 0.00705094
v -0.02562108 0.04462033 0.01245088
v -0.02475091 0.04502291 0.01694916
v -0.02413884 0.04525296 0.02054912
v -0.02413392 0.04525008 0.01694916
v -0.02413884 0.04525296 0.02414908
v -0.02413638 0.04525296 0.02684739
v -0.02368654 0.04537661 0.02594906
v -0.02368654 0.04537373 0.02684739
v -0.02366688 0.04537086 0.02774904
v -0.02295156 0.04554627 0.02774904
v -0.02205189 0.04562678 0.02864737
v -0.02115222 0.04569580 0.02864737
v -0.02038283 0.04577056 0.02788213
v -0.02038283 0.02287821 0.03146212
v -0.02570220 0.01641683 0.03135565
v -0.04524673 0.02325204 0.02774904
v -0.04506975 0.02396805 0.02774904
v -0.04507466 0.02398530 0.02684739
v -0.04507712 0.02398818 0.02414908
v -0.04520494 0.02145193 0.02954902
v -0.04532785 0.02235199 0.02864737
v -0.04504763 0.02055188 0.03010465
v -0.04503287 0.02145193 0.03007471
v -0.04523198 0.01641683 0.02954902
v -0.04515824 0.01641683 0.02977526
v -0.04504763 0.01641683 0.03010465
v -0.04495421 0.02443677 0.02684739
v -0.04472561 0.02505214 0.02684739
v -0.04432248 0.02592631 0.01784749
v -0.04432248 0.02592056 0.02504741
v -0.04432248 0.02591768 0.02684739
v -0.04408158 0.02636915 0.02504741
v -0.04407912 0.02636915 0.02684739
v -0.04407421 0.02635764 0.02774904
v -0.04376203 0.02685224 0.02774904
v -0.04333677 0.02747911 0.02774904
v -0.04330236 0.02743310 0.02864737
v -0.04292626 0.02788169 0.02864737
v -0.04247643 0.02839642 0.02864737
v -0.04204871 0.02884500 0.02864737
v -0.04159888 0.02930222 0.02864737
v -0.03979953 0.03110232 0.02864737
v -0.03170248 0.03919990 0.02864737
v -0.02900100 0.04190005 0.02864737
v -0.02814558 0.04282311 0.02684739
v -0.02763674 0.04327170 0.02504741
v -0.02763183 0.04327170 0.01515251
v -0.02814066 0.04281448 0.02774904
v -0.02854625 0.04234864 0.02864737
v -0.02809641 0.04277710 0.02864737
v -0.02718199 0.04364264 0.01605084
v -0.02718445 0.04364264 0.02054912
v -0.02718691 0.04364264 0.02594906
v -0.02655025 0.04407685 0.02504741
v -0.02562600 0.04462033 0.01515251
v -0.02607584 0.04438454 0.01784749
v -0.02562354 0.04462321 0.01964747
v -0.02475091 0.04502579 0.01964747
v -0.02475091 0.04502579 0.02684739
v -0.02475091 0.04501429 0.02774904
v -0.02411671 0.04524721 0.02774904
v -0.02354889 0.04533922 0.02864737
v -0.02295156 0.04548300 0.02864737
v -0.02295156 0.04536511 0.02930947
v -0.02204206 0.04541687 0.02960891
v -0.02115222 0.04550601 0.02954902
v -0.02038283 0.04571880 0.02864737
v -0.02038283 0.02301624 0.03158855
v -0.02611271 0.01641683 0.03178485
v -0.04518282 0.02325204 0.02864737
v -0.04503779 0.02385015 0.02864737
v -0.04494684 0.02441664 0.02774904
v -0.04501075 0.02203567 0.03002813
v -0.04511891 0.02234048 0.02960891
v -0.04506483 0.02325204 0.02930947
v -0.04482639 0.02055188 0.03055714
v -0.04480919 0.02145193 0.03052387
v -0.04482639 0.01641683 0.03055714
v -0.04471578 0.02505214 0.02774904
v -0.04431756 0.02590618 0.02774904
v -0.04403734 0.02629438 0.02864737
v -0.04369074 0.02685224 0.02864737
v -0.04324582 0.02736409 0.02922961
v -0.04239531 0.02830727 0.02933941
v -0.04150793 0.02921020 0.02935272
v -0.03970858 0.03101030 0.02935272
v -0.03071185 0.04000793 0.02935272
v -0.02891005 0.04180804 0.02935272
v -0.02762937 0.04326595 0.02774904
v -0.02763674 0.04327170 0.02684739
v -0.02800546 0.04269371 0.02933941
v -0.02758267 0.04322569 0.02864737
v -0.02706154 0.04354775 0.02922961
v -0.02718691 0.04364264 0.02684739
v -0.02655025 0.04407398 0.02684739
v -0.02606846 0.04437879 0.02684739
v -0.02607092 0.04438167 0.02324743
v -0.02561863 0.04462321 0.02684739
v -0.02562354 0.04462321 0.02054912
v -0.02560634 0.04461746 0.02774904
v -0.02554242 0.04458008 0.02864737
v -0.02475091 0.04494527 0.02864737
v -0.02399872 0.04521270 0.02864737
v -0.02343581 0.04530760 0.02912647
v -0.02295156 0.04521845 0.02975863
v -0.02233457 0.04528172 0.02994828
v -0.02173479 0.04531047 0.03002813
v -0.02038283 0.04552901 0.02954902
v -0.02115222 0.04533347 0.03007471
v -0.02038283 0.02347345 0.03195121
v -0.02634623 0.01641683 0.03197450
v -0.04500829 0.02373513 0.02912647
v -0.04491243 0.02429874 0.02864737
v -0.04464449 0.02505214 0.02864737
v -0.04498125 0.02263379 0.02994828
v -0.04480181 0.02234048 0.03037415
v -0.04491980 0.02325204 0.02975863
v -0.04437656 0.02055188 0.03126582
v -0.04435935 0.02145193 0.03124918
v -0.04431510 0.02235199 0.03119262
v -0.04437656 0.01641683 0.03126582
v -0.04428069 0.02584292 0.02864737
v -0.04419957 0.02569339 0.02938932
v -0.04344739 0.02688099 0.02953571
v -0.04312783 0.02720018 0.02982850
v -0.04276157 0.02776667 0.02958229
v -0.04227240 0.02817212 0.02993829
v -0.04188894 0.02869260 0.02964551
v -0.04137765 0.02908080 0.02995160
v -0.03957830 0.03088090 0.02995160
v -0.02929598 0.04129331 0.02965216
v -0.02877977 0.04167576 0.02995160
v -0.02839385 0.04219049 0.02964551
v -0.02717953 0.04363689 0.02774904
v -0.02713283 0.04360239 0.02864737
v -0.02787027 0.04257293 0.02993829
v -0.02746713 0.04306178 0.02958229
v -0.02690177 0.04342698 0.02982850
v -0.02658221 0.04374904 0.02953571
v -0.02539248 0.04449956 0.02938932
v -0.02599226 0.04433853 0.02864737
v -0.02655025 0.04399059 0.02864737
v -0.02655025 0.04406248 0.02774904
v -0.02605617 0.04437304 0.02774904
v -0.02483694 0.04466634 0.02963220
v -0.02378241 0.04509193 0.02947582
v -0.02386353 0.04463184 0.03049393
v -0.02295156 0.04490502 0.03044735
v -0.02204206 0.04510343 0.03037415
v -0.02115222 0.04510918 0.03052387
v -0.02038283 0.04534498 0.03010132
v -0.02038283 0.04512356 0.03055049
v -0.02038283 0.02360861 0.03203439
v -0.02038283 0.02400543 0.03227394
v -0.02038283 0.02410608 0.03233383
v -0.02704679 0.01641683 0.03246026
v -0.04479198 0.02408020 0.02947582
v -0.04436427 0.02513553 0.02963220
v -0.04460516 0.02325204 0.03044735
v -0.04423399 0.02325204 0.03108616
v -0.04432985 0.02416359 0.03049393
v -0.04402504 0.02055188 0.03171831
v -0.04401030 0.02145193 0.03169835
v -0.04396113 0.02235199 0.03164179
v -0.04402504 0.01641683 0.03171831
v -0.04409387 0.02549210 0.02998820
v -0.04395622 0.02597807 0.02963220
v -0.04332694 0.02660207 0.03022110
v -0.04296559 0.02688099 0.03049060
v -0.04249609 0.02753375 0.03044735
v -0.04210525 0.02798521 0.03044735
v -0.04165541 0.02846255 0.03044735
v -0.04121049 0.02891402 0.03044735
v -0.03941115 0.03071412 0.03044735
v -0.03266360 0.03746019 0.03044735
v -0.02906245 0.04106039 0.03044735
v -0.02861262 0.04150898 0.03044735
v -0.02816278 0.04195469 0.03044735
v -0.02768345 0.04240615 0.03044735
v -0.02723361 0.04279436 0.03044735
v -0.02658221 0.04326595 0.03049060
v -0.02630198 0.04362826 0.03022110
v -0.02567762 0.04425802 0.02963220
v -0.02519337 0.04439604 0.02998820
v -0.02459359 0.04451969 0.03022443
v -0.02417079 0.04435291 0.03082331
v -0.02357101 0.04445355 0.03097636
v -0.02295156 0.04453407 0.03108616
v -0.02205189 0.04461458 0.03119262
v -0.02115222 0.04466059 0.03124918
v -0.02038283 0.04505742 0.03065696
v -0.02038283 0.02466969 0.03266322
v -0.02721886 0.01641683 0.03257006
v -0.04421924 0.02489398 0.03022443
v -0.04415287 0.02387028 0.03097636
v -0.04387510 0.02325204 0.03153532
v -0.04405454 0.02447127 0.03082331
v -0.04384314 0.01641683 0.03188134
v -0.04357521 0.02055188 0.03212089
v -0.04356046 0.02145193 0.03211091
v -0.04351130 0.02235199 0.03207431
v -0.04342280 0.02325204 0.03200112
v -0.04396605 0.02513553 0.03049393
v -0.04332448 0.02571927 0.03105621
v -0.04352850 0.02599245 0.03049060
v -0.04314749 0.02632026 0.03081998
v -0.04233140 0.02734108 0.03093643
v -0.04146860 0.02827277 0.03096970
v -0.03876958 0.03097292 0.03096970
v -0.03067252 0.03906762 0.03096970
v -0.02797105 0.04176778 0.03096970
v -0.02704188 0.04263045 0.03093643
v -0.02601930 0.04344711 0.03081998
v -0.02569237 0.04382956 0.03049060
v -0.02541952 0.04362539 0.03105621
v -0.02483694 0.04426664 0.03049393
v -0.02466488 0.04372891 0.03135233
v -0.02386353 0.04408260 0.03130575
v -0.02295156 0.04417462 0.03153532
v -0.02205189 0.04426089 0.03164179
v -0.02115222 0.04430978 0.03169835
v -0.02038283 0.04462321 0.03132904
v -0.02038283 0.04467497 0.03126249
v -0.02038283 0.02497162 0.03279630
v -0.02742289 0.01641683 0.03268651
v -0.04378169 0.02416359 0.03130575
v -0.04328515 0.02415209 0.03188134
v -0.04343018 0.02496587 0.03135233
v -0.04357521 0.01641683 0.03212089
v -0.04334169 0.01641683 0.03230389
v -0.04300001 0.02055188 0.03257006
v -0.04298772 0.02145193 0.03256008
v -0.04293364 0.02235199 0.03252348
v -0.04283531 0.02325204 0.03245361
v -0.04305900 0.02520742 0.03165842
v -0.04280336 0.02604133 0.03141554
v -0.04227240 0.02636052 0.03177487
v -0.04251084 0.02685224 0.03113606
v -0.04208067 0.02685224 0.03158522
v -0.04143419 0.02734108 0.03182478
v -0.04175128 0.02764014 0.03125251
v -0.04114413 0.02793920 0.03156859
v -0.04024445 0.02884500 0.03156859
v -0.02854625 0.04054279 0.03156859
v -0.02763920 0.04144284 0.03156859
v -0.02703942 0.04173327 0.03182478
v -0.02734177 0.04204958 0.03125251
v -0.02655025 0.04238027 0.03158522
v -0.02606109 0.04257293 0.03177487
v -0.02655025 0.04281161 0.03113606
v -0.02573907 0.04310204 0.03141554
v -0.02490577 0.04335796 0.03165842
v -0.02430599 0.04350174 0.03180149
v -0.02385124 0.04358514 0.03188134
v -0.02295156 0.04372316 0.03200112
v -0.02205189 0.04380943 0.03207431
v -0.02038283 0.04432128 0.03171498
v -0.02115222 0.04385831 0.03211091
v -0.02038283 0.02501188 0.03281294
v -0.02764412 0.01641683 0.03279630
v -0.04320157 0.02460642 0.03180149
v -0.04266816 0.02408595 0.03236710
v -0.04300001 0.01641683 0.03257006
v -0.04281811 0.01641683 0.03267985
v -0.04255017 0.02055188 0.03283955
v -0.04253788 0.02145193 0.03283290
v -0.04248380 0.02235199 0.03280296
v -0.04238548 0.02325204 0.03274972
v -0.04231665 0.02374376 0.03270980
v -0.04245676 0.02576240 0.03192459
v -0.04184223 0.02594356 0.03225731
v -0.04163083 0.02685224 0.03196119
v -0.04091552 0.02682348 0.03241368
v -0.04088602 0.02768328 0.03195786
v -0.04054434 0.02824689 0.03183143
v -0.03964467 0.02914694 0.03183143
v -0.02884614 0.03994467 0.03183143
v -0.02794647 0.04084185 0.03183143
v -0.02738356 0.04118404 0.03195786
v -0.02652321 0.04121567 0.03241368
v -0.02655025 0.04192881 0.03196119
v -0.02564321 0.04214448 0.03225731
v -0.02546131 0.04275697 0.03192792
v -0.02466488 0.04305315 0.03201775
v -0.02378732 0.04296976 0.03236710
v -0.02295156 0.04313367 0.03245361
v -0.02205189 0.04323431 0.03252348
v -0.02115222 0.04328607 0.03256008
v -0.02038283 0.04425514 0.03177487
v -0.02038283 0.04378930 0.03218744
v -0.02038283 0.04387269 0.03212089
v -0.02038283 0.02507802 0.03283623
v -0.02038283 0.02581991 0.03308909
v -0.02799809 0.01641683 0.03293604
v -0.04275420 0.02496587 0.03201775
v -0.04218883 0.02434475 0.03263660
v -0.04254771 0.01641683 0.03283623
v -0.04255017 0.01695168 0.03283623
v -0.04255017 0.01875178 0.03283955
v -0.04184961 0.02055188 0.03314232
v -0.04184961 0.02145193 0.03312902
v -0.04184961 0.02235199 0.03307911
v -0.04184961 0.02325204 0.03298262
v -0.04187173 0.02408595 0.03284621
v -0.04200201 0.02505214 0.03252348
v -0.04141452 0.02552373 0.03270647
v -0.04119083 0.02612472 0.03259002
v -0.04002322 0.02772641 0.03242699
v -0.04059105 0.02650430 0.03274307
v -0.04030591 0.02710529 0.03260666
v -0.03998635 0.02858908 0.03196119
v -0.03908668 0.02948913 0.03196119
v -0.03278897 0.03578661 0.03196119
v -0.02918782 0.03938681 0.03196119
v -0.02828815 0.04028399 0.03196119
v -0.02742535 0.04032137 0.03242699
v -0.02680344 0.04060605 0.03260666
v -0.02620366 0.04089073 0.03274307
v -0.02582511 0.04149172 0.03259002
v -0.02522533 0.04171314 0.03270647
v -0.02475091 0.04230263 0.03252348
v -0.02404297 0.04248954 0.03263660
v -0.02344319 0.04261607 0.03270980
v -0.02295156 0.04268508 0.03274972
v -0.02205189 0.04278285 0.03280296
v -0.02115222 0.04283749 0.03283290
v -0.02038283 0.04329758 0.03257006
v -0.02038283 0.02595219 0.03312569
v -0.02835206 0.01641683 0.03306580
v -0.04155217 0.02505214 0.03277634
v -0.04184961 0.01641683 0.03314232
v -0.04094993 0.02055188 0.03337522
v -0.04094993 0.02145193 0.03336524
v -0.04094993 0.02235199 0.03333530
v -0.04094993 0.02325204 0.03328206
v -0.04094993 0.02415209 0.03318558
v -0.04094993 0.02505214 0.03301257
v -0.04091552 0.02587455 0.03280628
v -0.03822388 0.02952651 0.03242699
v -0.03940623 0.02800821 0.03260666
v -0.04004780 0.02595219 0.03308576
v -0.04002322 0.02682348 0.03283290
v -0.03970612 0.02740722 0.03274307
v -0.03282584 0.03492394 0.03242699
v -0.02770803 0.03970600 0.03260666
v -0.02710825 0.04000506 0.03274307
v -0.02652321 0.04032137 0.03283290
v -0.02565058 0.04034725 0.03308576
v -0.02557438 0.04121567 0.03280628
v -0.02475091 0.04124730 0.03301257
v -0.02475091 0.04185405 0.03277634
v -0.02378732 0.04217323 0.03284621
v -0.02295156 0.04214735 0.03298262
v -0.02205189 0.04214735 0.03307911
v -0.02038283 0.04284899 0.03283623
v -0.02038283 0.04323144 0.03260998
v -0.02115222 0.04214735 0.03312902
v -0.02038283 0.04214735 0.03314232
v -0.02038283 0.04274834 0.03288281
v -0.02888793 0.01641683 0.03322883
v -0.02038283 0.02671996 0.03330868
v -0.04094993 0.01641683 0.03337522
v -0.04004780 0.02055188 0.03346838
v -0.04004780 0.02145193 0.03346506
v -0.04004780 0.02235199 0.03345840
v -0.04004780 0.02325204 0.03343844
v -0.04004780 0.02415209 0.03337855
v -0.04004780 0.02505214 0.03326876
v -0.03850656 0.02890826 0.03260666
v -0.03220885 0.03520575 0.03260666
v -0.03914813 0.02685224 0.03309574
v -0.03914813 0.02595219 0.03329537
v -0.03912355 0.02772641 0.03283623
v -0.03880645 0.02830727 0.03274307
v -0.03822388 0.02862646 0.03283623
v -0.03192617 0.03492394 0.03283623
v -0.02742535 0.03942132 0.03283623
v -0.02655025 0.03944720 0.03309574
v -0.02565058 0.03944720 0.03329537
v -0.02475091 0.04034725 0.03326876
v -0.02385124 0.04124730 0.03318558
v -0.02295156 0.04124730 0.03328206
v -0.02205189 0.04124730 0.03333530
v -0.02115222 0.04124730 0.03336524
v -0.02038283 0.04124730 0.03337190
v -0.02925173 0.01641683 0.03330535
v -0.02038283 0.02685224 0.03332864
v -0.04004780 0.01641683 0.03346838
v -0.03968400 0.01641683 0.03347836
v -0.03914813 0.02235199 0.03349167
v -0.03914813 0.02325204 0.03348502
v -0.03914813 0.02415209 0.03346506
v -0.03914813 0.02505214 0.03341182
v -0.03554944 0.03045244 0.03309574
v -0.03824846 0.02595219 0.03341515
v -0.03464977 0.03045244 0.03329537
v -0.02835206 0.03764998 0.03309574
v -0.02745239 0.03764998 0.03329537
v -0.02655025 0.03764998 0.03341515
v -0.02565058 0.03854715 0.03341515
v -0.02475091 0.03944720 0.03341182
v -0.02385124 0.04034725 0.03337855
v -0.02295156 0.04034725 0.03343844
v -0.02038283 0.04111502 0.03338853
v -0.02205189 0.04034725 0.03345840
v -0.02978760 0.01641683 0.03339851
v -0.02038283 0.02762002 0.03342846
v -0.03914813 0.01641683 0.03349167
v -0.03824846 0.02415209 0.03349167
v -0.03824846 0.02505214 0.03347171
v -0.03464977 0.02955239 0.03341515
v -0.03734878 0.02595219 0.03347504
v -0.02745239 0.03674992 0.03341515
v -0.02565058 0.03764998 0.03347504
v -0.02475091 0.03854715 0.03347171
v -0.02385124 0.03944720 0.03346506
v -0.02115222 0.04034725 0.03346506
v -0.02038283 0.04034725 0.03346506
v -0.02295156 0.03944720 0.03348502
v -0.03015140 0.01641683 0.03343844
v -0.02038283 0.02775229 0.03343844
v -0.03158695 0.01641683 0.03349167
v -0.03195075 0.03045244 0.03349167
v -0.03285042 0.03045244 0.03347504
v -0.02745239 0.03584987 0.03347504
v -0.02475091 0.03764998 0.03349167
v -0.02385124 0.03854715 0.03349167
v -0.02038283 0.04021497 0.03347171
v -0.02205189 0.03944720 0.03349167
v -0.03068727 0.01641683 0.03347504
v -0.02038283 0.02851719 0.03348169
v -0.03105108 0.01695168 0.03349167
v -0.03105108 0.01641683 0.03348502
v -0.02745239 0.03494982 0.03349167
v -0.02038283 0.03944720 0.03349167
v -0.02038283 0.02941724 0.03349167
f 1 2 6
f 1 6 16
f 1 16 34
f 1 34 61
f 1 61 88
f 1 88 128
f 1 128 178
f 1 178 233
f 1 233 287
f 1 287 329
f 1 329 374
f 1 374 411
f 1 411 443
f 1 443 478
f 1 478 512
f 1 512 547
f 1 547 578
f 1 578 604
f 1 604 624
f 1 624 638
f 1 638 648
f 1 648 651
f 1 651 640
f 1 640 626
f 1 626 607
f 1 607 606
f 1 606 580
f 1 580 549
f 1 549 515
f 1 515 482
f 1 482 481
f 1 481 448
f 1 448 447
f 1 447 416
f 1 416 383
f 1 383 339
f 1 339 296
f 1 296 244
f 1 244 243
f 1 243 242
f 1 242 183
f 1 183 133
f 1 133 95
f 1 95 65
f 1 65 36
f 1 36 18
f 1 18 7
f 1 7 3
f 1 3 8
f 1 8 4
f 1 4 12
f 1 12 27
f 1 27 48
f 1 48 49
f 1 49 28
f 1 28 13
f 1 13 5
f 1 5 2
f 2 5 14
f 2 14 32
f 2 32 59
f 2 59 58
f 2 58 86
f 2 86 126
f 2 126 176
f 2 176 231
f 2 231 285
f 2 285 326
f 2 326 369
f 2 369 370
f 2 370 409
f 2 409 441
f 2 441 440
f 2 440 475
f 2 475 507
f 2 507 509
f 2 509 508
f 2 508 545
f 2 545 574
f 2 574 573
f 2 573 577
f 2 577 576
f 2 576 603
f 2 603 622
f 2 622 636
f 2 636 646
f 2 646 653
f 2 653 654
f 2 654 649
f 2 649 639
f 2 639 625
f 2 625 605
f 2 605 579
f 2 579 546
f 2 546 511
f 2 511 510
f 2 510 477
f 2 477 442
f 2 442 410
f 2 410 373
f 2 373 372
f 2 372 371
f 2 371 328
f 2 328 286
f 2 286 232
f 2 232 177
f 2 177 127
f 2 127 87
f 2 87 60
f 2 60 33
f 2 33 15
f 2 15 6
f 3 7 17
f 3 17 8
f 4 8 9
f 4 9 10
f 4 10 11
f 4 11 12
f 5 13 14
f 6 15 16
f 7 18 17
f 8 17 9
f 9 17 19
f 9 19 10
f 10 19 20
f 10 20 21
f 10 21 11
f 11 21 22
f 11 22 23
f 11 23 24
f 11 24 25
f 11 25 12
f 12 25 26
f 12 26 27
f 13 28 29
f 13 29 30
f 13 30 31
f 13 31 32
f 13 32 14
f 15 33 16
f 16 33 34
f 17 18 35
f 17 35 19
f 18 36 35
f 19 35 37
f 19 37 20
f 20 37 38
f 20 38 39
f 20 39 21
f 21 39 22
f 22 39 40
f 22 40 41
f 22 41 23
f 23 41 42
f 23 42 24
f 24 42 43
f 24 43 44
f 24 44 25
f 25 44 45
f 25 45 26
f 26 45 46
f 26 46 47
f 26 47 48
f 26 48 27
f 28 49 50
f 28 50 51
f 28 51 29
f 29 51 52
f 29 52 53
f 29 53 54
f 29 54 55
f 29 55 30
f 30 55 56
f 30 56 57
f 30 57 31
f 31 57 58
f 31 58 59
f 31 59 32
f 33 60 61
f 33 61 34
f 35 62 63
f 35 63 37
f 35 36 65
f 35 65 64
f 35 64 90
f 35 90 62
f 37 63 38
f 38 66 39
f 38 63 67
f 38 67 97
f 38 97 66
f 39 66 40
f 40 66 68
f 40 68 69
f 40 69 70
f 40 70 41
f 41 70 71
f 41 71 72
f 41 72 73
f 41 73 42
f 42 73 43
f 43 73 74
f 43 74 44
f 44 74 75
f 44 75 45
f 45 75 76
f 45 76 77
f 45 77 46
f 46 78 51
f 46 51 50
f 46 50 47
f 46 77 78
f 47 50 49
f 47 49 48
f 51 78 52
f 52 78 79
f 52 79 80
f 52 80 53
f 53 80 81
f 53 81 54
f 54 81 82
f 54 82 83
f 54 83 55
f 55 83 56
f 56 83 84
f 56 84 85
f 56 85 57
f 57 85 86
f 57 86 58
f 60 87 88
f 60 88 61
f 62 89 63
f 62 90 131
f 62 131 91
f 62 91 89
f 63 89 92
f 63 92 93
f 63 93 67
f 64 65 95
f 64 95 94
f 64 94 130
f 64 130 90
f 66 96 68
f 66 97 98
f 66 98 96
f 67 93 129
f 67 129 97
f 68 96 69
f 69 99 70
f 69 96 100
f 69 100 101
f 69 101 99
f 70 99 71
f 71 99 101
f 71 101 102
f 71 102 103
f 71 103 72
f 72 104 73
f 72 103 104
f 73 104 105
f 73 105 106
f 73 106 107
f 73 107 74
f 74 107 108
f 74 108 75
f 75 108 109
f 75 109 110
f 75 110 111
f 75 111 76
f 76 111 77
f 77 111 112
f 77 112 113
f 77 113 114
f 77 114 115
f 77 115 78
f 78 115 79
f 79 115 116
f 79 116 80
f 80 116 81
f 81 116 117
f 81 117 118
f 81 118 119
f 81 119 82
f 82 119 120
f 82 120 121
f 82 121 122
f 82 122 83
f 83 122 84
f 84 122 123
f 84 123 124
f 84 124 85
f 85 124 125
f 85 125 86
f 86 125 174
f 86 174 126
f 87 127 88
f 88 127 128
f 89 129 92
f 89 91 129
f 90 130 181
f 90 181 131
f 91 131 179
f 91 179 129
f 92 129 93
f 94 95 134
f 94 134 132
f 94 132 180
f 94 180 130
f 95 133 134
f 96 98 100
f 97 129 135
f 97 135 98
f 98 135 136
f 98 136 100
f 100 136 101
f 101 136 137
f 101 137 138
f 101 138 102
f 102 138 139
f 102 139 140
f 102 140 103
f 103 140 139
f 103 139 104
f 104 139 141
f 104 141 105
f 105 141 142
f 105 142 143
f 105 143 106
f 106 143 144
f 106 144 107
f 107 144 145
f 107 145 108
f 108 145 197
f 108 197 146
f 108 146 147
f 108 147 109
f 109 147 148
f 109 148 110
f 110 148 149
f 110 149 111
f 111 149 150
f 111 150 112
f 112 150 152
f 112 152 113
f 113 151 114
f 113 152 203
f 113 203 151
f 114 153 115
f 114 151 153
f 115 153 116
f 116 153 154
f 116 154 155
f 116 155 156
f 116 156 117
f 117 156 157
f 117 157 118
f 118 157 158
f 118 158 119
f 119 159 120
f 119 158 160
f 119 160 161
f 119 161 159
f 120 159 162
f 120 162 121
f 121 162 122
f 122 162 163
f 122 163 164
f 122 164 123
f 123 164 165
f 123 165 166
f 123 166 167
f 123 167 168
f 123 168 169
f 123 169 170
f 123 170 124
f 124 170 171
f 124 171 172
f 124 172 228
f 124 228 173
f 124 173 175
f 124 175 174
f 124 174 125
f 126 174 175
f 126 175 176
f 127 177 128
f 128 177 178
f 129 179 135
f 130 180 239
f 130 239 181
f 131 181 234
f 131 234 179
f 132 182 238
f 132 238 180
f 132 134 184
f 132 184 182
f 133 183 134
f 134 183 184
f 135 179 185
f 135 185 186
f 135 186 187
f 135 187 188
f 135 188 136
f 136 188 137
f 137 189 138
f 137 188 190
f 137 190 189
f 138 189 139
f 139 142 141
f 139 189 191
f 139 191 247
f 139 247 192
f 139 192 193
f 139 193 142
f 142 193 194
f 142 194 143
f 143 194 144
f 144 194 195
f 144 195 196
f 144 196 197
f 144 197 145
f 146 197 196
f 146 196 198
f 146 198 199
f 146 199 147
f 147 199 148
f 148 199 149
f 149 199 150
f 150 199 200
f 150 200 152
f 151 201 202
f 151 202 153
f 151 203 263
f 151 263 201
f 152 200 204
f 152 204 205
f 152 205 203
f 153 202 206
f 153 206 207
f 153 207 208
f 153 208 154
f 154 208 155
f 155 209 156
f 155 208 207
f 155 207 210
f 155 210 211
f 155 211 212
f 155 212 213
f 155 213 209
f 156 209 214
f 156 214 215
f 156 215 216
f 156 216 217
f 156 217 157
f 157 217 158
f 158 217 216
f 158 216 215
f 158 215 218
f 158 218 160
f 159 161 164
f 159 164 163
f 159 163 162
f 160 218 219
f 160 219 220
f 160 220 221
f 160 221 222
f 160 222 161
f 161 222 164
f 164 222 221
f 164 221 165
f 165 221 166
f 166 221 167
f 167 221 168
f 168 221 169
f 169 221 223
f 169 223 224
f 169 224 225
f 169 225 171
f 169 171 170
f 171 225 172
f 172 225 226
f 172 226 227
f 172 227 228
f 173 228 281
f 173 281 229
f 173 229 230
f 173 230 175
f 175 230 231
f 175 231 176
f 177 232 233
f 177 233 178
f 179 234 235
f 179 235 236
f 179 236 237
f 179 237 185
f 180 238 239
f 181 239 234
f 182 184 244
f 182 244 240
f 182 240 241
f 182 241 238
f 183 242 184
f 184 242 243
f 184 243 244
f 185 237 245
f 185 245 186
f 186 245 246
f 186 246 190
f 186 190 187
f 187 190 188
f 189 190 191
f 190 246 247
f 190 247 191
f 192 248 249
f 192 249 250
f 192 250 193
f 192 247 248
f 193 250 251
f 193 251 252
f 193 252 253
f 193 253 254
f 193 254 194
f 194 254 195
f 195 254 255
f 195 255 256
f 195 256 257
f 195 257 196
f 196 257 198
f 198 257 258
f 198 258 259
f 198 259 199
f 199 259 260
f 199 260 261
f 199 261 200
f 200 261 262
f 200 262 204
f 201 263 308
f 201 308 264
f 201 264 202
f 202 264 265
f 202 265 206
f 203 205 263
f 204 262 205
f 205 266 263
f 205 262 267
f 205 267 268
f 205 268 266
f 206 265 269
f 206 269 207
f 207 269 210
f 209 213 214
f 210 269 212
f 210 212 211
f 212 214 213
f 212 269 270
f 212 270 271
f 212 271 312
f 212 312 272
f 212 272 274
f 212 274 214
f 214 273 219
f 214 219 215
f 214 274 317
f 214 317 275
f 214 275 273
f 215 219 218
f 219 273 276
f 219 276 220
f 220 276 221
f 221 276 277
f 221 277 223
f 223 277 224
f 224 277 278
f 224 278 279
f 224 279 227
f 224 227 226
f 224 226 225
f 227 279 280
f 227 280 228
f 228 280 281
f 229 281 282
f 229 282 283
f 229 283 284
f 229 284 230
f 230 285 231
f 230 284 326
f 230 326 285
f 232 286 233
f 233 286 287
f 234 239 288
f 234 288 289
f 234 289 235
f 235 289 290
f 235 290 245
f 235 245 236
f 236 245 237
f 238 241 291
f 238 291 292
f 238 292 239
f 239 292 293
f 239 293 288
f 240 244 296
f 240 296 294
f 240 294 241
f 241 294 295
f 241 295 291
f 245 290 297
f 245 297 246
f 246 297 249
f 246 249 248
f 246 248 247
f 249 297 298
f 249 298 252
f 249 252 251
f 249 251 250
f 252 298 340
f 252 340 299
f 252 299 300
f 252 300 253
f 253 300 255
f 253 255 254
f 255 300 301
f 255 301 256
f 256 301 257
f 257 301 302
f 257 302 258
f 258 302 303
f 258 303 259
f 259 303 304
f 259 304 260
f 260 304 305
f 260 305 261
f 261 305 262
f 262 305 306
f 262 306 267
f 263 266 307
f 263 307 308
f 264 308 312
f 264 312 271
f 264 271 270
f 264 270 265
f 265 270 269
f 266 268 307
f 267 306 309
f 267 309 268
f 268 310 307
f 268 309 311
f 268 311 310
f 272 312 313
f 272 313 314
f 272 314 315
f 272 315 274
f 273 275 276
f 274 315 316
f 274 316 317
f 275 317 277
f 275 277 276
f 277 316 318
f 277 318 278
f 277 317 316
f 278 318 319
f 278 319 320
f 278 320 279
f 279 320 321
f 279 321 280
f 280 321 322
f 280 322 281
f 281 322 282
f 282 322 323
f 282 323 324
f 282 324 283
f 283 324 325
f 283 325 284
f 284 325 327
f 284 327 326
f 286 328 287
f 287 328 329
f 288 293 330
f 288 330 289
f 289 331 290
f 289 330 331
f 290 331 332
f 290 332 297
f 291 333 292
f 291 295 334
f 291 334 333
f 292 333 293
f 293 333 335
f 293 335 330
f 294 296 339
f 294 339 336
f 294 336 337
f 294 337 295
f 295 337 338
f 295 338 334
f 297 332 340
f 297 340 298
f 299 340 341
f 299 341 301
f 299 301 300
f 301 341 342
f 301 342 343
f 301 343 344
f 301 344 302
f 302 344 345
f 302 345 346
f 302 346 303
f 303 346 347
f 303 347 348
f 303 348 304
f 304 348 305
f 305 348 349
f 305 349 306
f 306 349 350
f 306 350 351
f 306 351 309
f 307 352 312
f 307 312 308
f 307 310 353
f 307 353 352
f 309 351 354
f 309 354 355
f 309 355 311
f 310 311 353
f 311 355 356
f 311 356 357
f 311 357 358
f 311 358 359
f 311 359 360
f 311 360 353
f 312 352 313
f 313 352 361
f 313 361 314
f 314 361 362
f 314 362 318
f 314 318 316
f 314 316 315
f 318 362 359
f 318 359 319
f 319 359 358
f 319 358 320
f 320 322 321
f 320 358 363
f 320 363 322
f 322 364 323
f 322 363 364
f 323 365 366
f 323 366 324
f 323 364 365
f 324 366 367
f 324 367 325
f 325 367 368
f 325 368 327
f 326 327 369
f 327 368 370
f 327 370 369
f 328 371 329
f 329 371 372
f 329 372 373
f 329 373 374
f 330 335 375
f 330 375 376
f 330 376 332
f 330 332 331
f 332 341 340
f 332 376 341
f 333 334 377
f 333 377 335
f 334 338 378
f 334 378 377
f 335 377 379
f 335 379 375
f 336 339 383
f 336 383 380
f 336 380 337
f 337 380 381
f 337 381 338
f 338 381 382
f 338 382 378
f 341 376 384
f 341 384 385
f 341 385 342
f 342 385 386
f 342 386 343
f 343 386 387
f 343 387 388
f 343 388 345
f 343 345 344
f 345 347 346
f 345 388 389
f 345 389 390
f 345 390 347
f 347 390 391
f 347 391 392
f 347 392 348
f 348 392 393
f 348 393 394
f 348 394 350
f 348 350 349
f 350 354 351
f 350 394 395
f 350 395 396
f 350 396 354
f 352 353 361
f 353 360 361
f 354 356 355
f 354 396 397
f 354 397 398
f 354 398 356
f 356 398 399
f 356 399 400
f 356 400 357
f 357 400 401
f 357 401 358
f 358 401 402
f 358 402 363
f 359 362 360
f 360 362 361
f 363 402 403
f 363 403 364
f 364 403 365
f 365 404 405
f 365 405 366
f 365 403 404
f 366 405 406
f 366 406 367
f 367 406 407
f 367 407 368
f 368 407 408
f 368 408 370
f 370 408 409
f 373 410 374
f 374 410 411
f 375 379 412
f 375 412 376
f 376 412 384
f 377 378 413
f 377 413 379
f 378 382 414
f 378 414 413
f 379 413 415
f 379 415 412
f 380 383 416
f 380 416 417
f 380 417 418
f 380 418 381
f 381 418 419
f 381 419 382
f 382 419 420
f 382 420 414
f 384 412 421
f 384 421 422
f 384 422 423
f 384 423 386
f 384 386 385
f 386 423 424
f 386 424 387
f 387 424 425
f 387 425 388
f 388 425 389
f 389 425 426
f 389 426 390
f 390 426 391
f 391 426 427
f 391 427 392
f 392 427 393
f 393 427 394
f 394 427 428
f 394 428 429
f 394 429 395
f 395 429 396
f 396 429 397
f 397 429 430
f 397 430 398
f 398 430 399
f 399 430 431
f 399 431 400
f 400 431 432
f 400 432 402
f 400 402 401
f 402 432 433
f 402 433 434
f 402 434 403
f 403 434 404
f 404 433 435
f 404 435 436
f 404 436 405
f 404 434 433
f 405 436 437
f 405 437 406
f 406 437 438
f 406 438 407
f 407 438 439
f 407 439 408
f 408 440 441
f 408 441 409
f 408 439 440
f 410 442 443
f 410 443 411
f 412 415 421
f 413 414 444
f 413 444 415
f 414 420 445
f 414 445 444
f 415 444 446
f 415 446 422
f 415 422 421
f 416 447 417
f 417 447 448
f 417 448 449
f 417 449 450
f 417 450 418
f 418 450 419
f 419 450 451
f 419 451 420
f 420 451 452
f 420 452 445
f 422 424 423
f 422 446 453
f 422 453 454
f 422 454 424
f 424 454 455
f 424 455 456
f 424 456 425
f 425 456 455
f 425 455 457
f 425 457 458
f 425 458 459
f 425 459 426
f 426 459 458
f 426 458 460
f 426 460 461
f 426 461 427
f 427 461 462
f 427 462 428
f 428 462 429
f 429 462 463
f 429 463 464
f 429 464 465
f 429 465 430
f 430 465 464
f 430 464 466
f 430 466 467
f 430 467 468
f 430 468 431
f 431 468 467
f 431 467 469
f 431 469 433
f 431 433 432
f 433 469 470
f 433 470 435
f 435 470 471
f 435 471 436
f 436 471 472
f 436 472 437
f 437 472 473
f 437 473 438
f 438 473 474
f 438 474 439
f 439 475 440
f 439 474 476
f 439 476 475
f 442 477 478
f 442 478 443
f 444 445 479
f 444 479 446
f 445 452 480
f 445 480 479
f 446 479 453
f 448 481 449
f 449 481 482
f 449 482 483
f 449 483 484
f 449 484 450
f 450 484 485
f 450 485 451
f 451 485 486
f 451 486 452
f 452 486 487
f 452 487 480
f 453 479 488
f 453 488 455
f 453 455 454
f 455 488 489
f 455 489 490
f 455 490 458
f 455 458 457
f 458 490 491
f 458 491 492
f 458 492 493
f 458 493 460
f 460 493 461
f 461 493 494
f 461 494 462
f 462 494 495
f 462 495 496
f 462 496 463
f 463 496 464
f 464 467 466
f 464 496 497
f 464 497 498
f 464 498 499
f 464 499 467
f 467 470 469
f 467 499 500
f 467 500 501
f 467 501 470
f 470 501 471
f 471 501 502
f 471 502 503
f 471 503 472
f 472 503 504
f 472 504 473
f 473 504 505
f 473 505 474
f 474 505 506
f 474 506 476
f 475 476 507
f 476 508 509
f 476 509 507
f 476 506 508
f 477 510 478
f 478 510 511
f 478 511 512
f 479 480 513
f 479 513 488
f 480 487 514
f 480 514 513
f 482 515 516
f 482 516 517
f 482 517 483
f 483 517 549
f 483 549 518
f 483 518 484
f 484 518 519
f 484 519 520
f 484 520 485
f 485 520 486
f 486 520 521
f 486 521 487
f 487 521 522
f 487 522 514
f 488 513 523
f 488 523 489
f 489 523 524
f 489 524 525
f 489 525 490
f 490 525 491
f 491 526 492
f 491 525 527
f 491 527 528
f 491 528 526
f 492 526 529
f 492 529 493
f 493 529 530
f 493 530 494
f 494 530 531
f 494 531 495
f 495 531 532
f 495 532 533
f 495 533 496
f 496 533 497
f 497 533 534
f 497 534 498
f 498 534 535
f 498 535 536
f 498 536 537
f 498 537 499
f 499 537 500
f 500 537 538
f 500 538 539
f 500 539 501
f 501 539 502
f 502 539 540
f 502 540 503
f 503 540 541
f 503 541 504
f 504 541 542
f 504 542 505
f 505 542 543
f 505 543 506
f 506 543 544
f 506 544 545
f 506 545 508
f 511 546 547
f 511 547 512
f 513 514 523
f 514 522 548
f 514 548 523
f 515 549 516
f 516 549 517
f 518 549 580
f 518 580 550
f 518 550 551
f 518 551 519
f 519 551 552
f 519 552 520
f 520 552 553
f 520 553 554
f 520 554 521
f 521 554 522
f 522 554 555
f 522 555 548
f 523 548 524
f 524 548 555
f 524 555 556
f 524 556 527
f 524 527 525
f 526 557 530
f 526 530 529
f 526 528 558
f 526 558 587
f 526 587 557
f 527 556 559
f 527 559 560
f 527 560 561
f 527 561 528
f 528 561 558
f 530 557 531
f 531 557 562
f 531 562 532
f 532 562 534
f 532 534 533
f 534 563 535
f 534 562 563
f 535 563 564
f 535 564 536
f 536 564 565
f 536 565 566
f 536 566 567
f 536 567 538
f 536 538 537
f 538 567 568
f 538 568 569
f 538 569 539
f 539 569 540
f 540 569 570
f 540 570 541
f 541 570 571
f 541 571 542
f 542 571 572
f 542 572 543
f 543 572 544
f 544 573 574
f 544 574 545
f 544 572 575
f 544 575 576
f 544 576 577
f 544 577 573
f 546 578 547
f 546 579 578
f 550 580 606
f 550 606 581
f 550 581 582
f 550 582 583
f 550 583 551
f 551 583 584
f 551 584 552
f 552 584 553
f 553 584 585
f 553 585 554
f 554 586 555
f 554 585 586
f 555 586 559
f 555 559 556
f 557 587 588
f 557 588 562
f 558 561 592
f 558 592 587
f 559 589 560
f 559 586 590
f 559 590 589
f 560 591 561
f 560 589 591
f 561 591 593
f 561 593 592
f 562 588 563
f 563 588 564
f 564 592 593
f 564 593 594
f 564 594 595
f 564 595 565
f 564 588 587
f 564 587 592
f 565 595 596
f 565 596 566
f 566 596 597
f 566 597 598
f 566 598 568
f 566 568 567
f 568 598 599
f 568 599 570
f 568 570 569
f 570 599 571
f 571 599 600
f 571 600 572
f 572 600 601
f 572 601 575
f 575 601 602
f 575 602 576
f 576 602 603
f 578 579 604
f 579 605 604
f 581 606 607
f 581 607 608
f 581 608 582
f 582 608 609
f 582 609 583
f 583 609 610
f 583 610 584
f 584 610 611
f 584 611 585
f 585 611 586
f 586 611 590
f 589 590 614
f 589 614 612
f 589 612 593
f 589 593 591
f 590 611 613
f 590 613 629
f 590 629 614
f 593 612 615
f 593 615 594
f 594 615 595
f 595 615 596
f 596 615 616
f 596 616 597
f 597 616 617
f 597 617 618
f 597 618 619
f 597 619 598
f 598 619 620
f 598 620 599
f 599 620 600
f 600 620 621
f 600 621 601
f 601 621 602
f 602 622 603
f 602 621 623
f 602 623 622
f 604 605 624
f 605 625 624
f 607 626 608
f 608 627 609
f 608 626 640
f 608 640 650
f 608 650 654
f 608 654 653
f 608 653 647
f 608 647 645
f 608 645 644
f 608 644 652
f 608 652 641
f 608 641 627
f 609 627 628
f 609 628 610
f 610 628 611
f 611 628 630
f 611 630 613
f 612 614 616
f 612 616 615
f 613 630 642
f 613 642 629
f 614 629 631
f 614 631 616
f 616 631 617
f 617 631 632
f 617 632 618
f 618 632 619
f 619 632 633
f 619 633 634
f 619 634 621
f 619 621 620
f 621 634 637
f 621 637 623
f 622 623 635
f 622 635 636
f 623 637 647
f 623 647 635
f 624 625 638
f 625 639 638
f 627 641 642
f 627 642 630
f 627 630 628
f 629 642 631
f 631 642 643
f 631 643 632
f 632 643 644
f 632 644 645
f 632 645 633
f 633 645 637
f 633 637 634
f 635 646 636
f 635 647 646
f 637 645 647
f 638 639 648
f 639 649 648
f 640 651 650
f 641 652 643
f 641 643 642
f 643 652 644
f 646 647 653
f 648 649 651
f 649 650 651
f 649 654 650

