# https://github.com/mikedh/trimesh
v 0.01485110 -0.00664305 -0.00049500
v 0.01395113 -0.00664305 -0.00047817
v 0.01485110 -0.00554974 -0.00049500
v 0.04364686 -0.00664305 -0.00049500
v 0.01304795 -0.00664305 -0.00009710
v 0.01395113 -0.00644983 -0.00047357
v 0.01575106 0.00030730 -0.00049500
v 0.04364686 0.00030730 -0.00049500
v 0.04454682 -0.00664305 -0.00046745
v 0.01285188 -0.00664305 0.00006053
v 0.01488002 0.00030730 -0.00009710
v 0.04454682 0.00030730 -0.00046745
v 0.04469789 -0.00664305 -0.00038328
v 0.01265903 -0.00664305 0.00075072
v 0.01446540 0.00030730 0.00075072
v 0.01466789 0.00030730 0.00033446
v 0.04489074 0.00030730 -0.00027309
v 0.04524430 -0.00664305 -0.00007109
v 0.01269760 -0.00664305 0.00345030
v 0.01447504 0.00030730 0.00345030
v 0.04524430 0.00030730 -0.00007109
v 0.04529894 -0.00664305 0.00010491
v 0.01270403 -0.00664305 0.00374566
v 0.01450397 0.00030730 0.00435016
v 0.04536644 0.00030730 0.00033293
v 0.04549179 -0.00664305 0.00075072
v 0.04549179 0.00030730 0.00075072
v 0.01272974 -0.00664305 0.00435016
v 0.01460361 0.00030730 0.00525002
v 0.01273939 -0.00664305 0.00443892
v 0.04549179 -0.00664305 0.01513929
v 0.04549179 0.00030730 0.01513929
v 0.01280688 -0.00664305 0.00500363
v 0.01284224 -0.00664305 0.00525002
v 0.01484145 0.00030730 0.00615141
v 0.02236583 -0.00664305 0.01513929
v 0.02342329 0.00030730 0.01513929
v 0.01312187 -0.00664305 0.00618814
v 0.01515644 0.00030730 0.00685232
v 0.01462289 -0.00664305 0.00819752
v 0.01629747 0.00030730 0.00830924
v 0.01452647 -0.00664305 0.00810723
v 0.01340151 -0.00664305 0.00674979
v 0.01529465 0.00030730 0.00708035
v 0.01588285 0.00030730 0.00785931
v 0.01416326 -0.00664305 0.00774912
v 0.01344650 -0.00664305 0.00681712
v 0.01543286 0.00030730 0.00730225
v 0.01402506 -0.00664305 0.00759915
v 0.01361364 -0.00664305 0.00706198
v 0.01369078 -0.00664305 0.00716758
f 1 2 3
f 1 3 7
f 1 7 8
f 1 8 4
f 1 4 9
f 1 9 13
f 1 13 18
f 1 18 22
f 1 22 26
f 1 26 31
f 1 31 36
f 1 36 40
f 1 40 42
f 1 42 46
f 1 46 49
f 1 49 51
f 1 51 50
f 1 50 47
f 1 47 43
f 1 43 38
f 1 38 34
f 1 34 33
f 1 33 30
f 1 30 28
f 1 28 23
f 1 23 19
f 1 19 14
f 1 14 10
f 1 10 5
f 1 5 2
f 2 5 6
f 2 6 7
f 2 7 3
f 4 8 12
f 4 12 9
f 5 10 11
f 5 11 7
f 5 7 6
f 7 11 16
f 7 16 15
f 7 15 20
f 7 20 24
f 7 24 29
f 7 29 35
f 7 35 39
f 7 39 44
f 7 44 48
f 7 48 45
f 7 45 41
f 7 41 37
f 7 37 32
f 7 32 27
f 7 27 25
f 7 25 21
f 7 21 17
f 7 17 12
f 7 12 8
f 9 12 13
f 10 14 15
f 10 15 16
f 10 16 11
f 12 17 13
f 13 17 21
f 13 21 18
f 14 19 20
f 14 20 15
f 18 21 22
f 19 23 20
f 20 23 24
f 21 25 22
f 22 25 27
f 22 27 26
f 23 28 24
f 24 28 30
f 24 30 29
f 26 27 32
f 26 32 31
f 29 30 33
f 29 33 34
f 29 34 35
f 31 32 37
f 31 37 36
f 34 38 35
f 35 38 39
f 36 37 40
f 37 41 42
f 37 42 40
f 38 43 39
f 39 43 44
f 41 45 49
f 41 49 46
f 41 46 42
f 43 47 48
f 43 48 44
f 45 48 49
f 47 50 48
f 48 50 51
f 48 51 49

