# https://github.com/mikedh/trimesh
v -0.00723284 0.04579500 0.02262225
v -0.00723284 0.04579500 0.01629306
v -0.01520573 0.04579500 0.02262225
v -0.00723284 0.02688151 0.02262225
v -0.00723284 0.02344504 0.01629306
v -0.00725987 0.04394592 -0.00049500
v -0.00725987 0.04484890 -0.00046785
v -0.00725987 0.04554194 -0.00006958
v -0.00725987 0.04568572 0.00039430
v -0.00725987 0.04579500 0.00075183
v -0.02024896 0.04579500 0.02219457
v -0.02038283 0.04578925 0.02219457
v -0.01520573 0.02327250 0.02262225
v -0.02038283 0.01859948 0.02219457
v -0.00725987 0.01754698 0.01026031
v -0.00725987 0.01754698 -0.00049500
v -0.02038283 0.04394592 -0.00049500
v -0.01520701 0.04484890 -0.00046785
v -0.01520701 0.04554194 -0.00006958
v -0.02024896 0.04579500 0.00075183
v -0.02032104 0.04579213 0.01743128
v -0.02038283 0.04578925 0.00075183
v -0.02038283 0.01641683 0.01916009
v -0.01520701 0.01641683 0.01361159
v -0.01520701 0.01641683 -0.00049500
v -0.02038283 0.04484602 -0.00046558
v -0.02024896 0.04484602 -0.00046785
v -0.02038283 0.01641683 -0.00049500
v -0.02038283 0.04554194 -0.00006732
f 1 2 10
f 1 10 20
f 1 20 11
f 1 11 3
f 1 3 13
f 1 13 4
f 1 4 5
f 1 5 2
f 2 5 16
f 2 16 6
f 2 6 7
f 2 7 8
f 2 8 9
f 2 9 10
f 3 11 12
f 3 12 14
f 3 14 13
f 4 13 14
f 4 14 15
f 4 15 5
f 5 15 16
f 6 16 25
f 6 25 28
f 6 28 17
f 6 17 18
f 6 18 7
f 7 18 19
f 7 19 8
f 8 19 9
f 9 19 20
f 9 20 10
f 11 20 21
f 11 21 12
f 12 21 22
f 12 22 29
f 12 29 26
f 12 26 17
f 12 17 28
f 12 28 23
f 12 23 14
f 14 23 15
f 15 23 24
f 15 24 25
f 15 25 16
f 17 26 27
f 17 27 18
f 18 27 19
f 19 27 29
f 19 29 20
f 20 29 22
f 20 22 21
f 23 28 25
f 23 25 24
f 26 29 27

