# https://github.com/mikedh/trimesh
v 0.00728362 0.04579500 0.01488273
v 0.00728362 0.04579500 0.00075136
v -0.00000651 0.04579500 0.01488273
v 0.00728362 0.02273721 0.01488273
v 0.00728362 0.04554641 -0.00007052
v -0.00000651 0.04579500 0.00075136
v -0.00000651 0.02352818 0.01488273
v 0.00674980 0.02252090 0.01488273
v 0.00728362 0.02234011 0.01488122
v 0.00728362 0.04513316 -0.00030684
v -0.00000651 0.04554641 -0.00007052
v -0.00000651 0.01659341 0.00831528
v 0.00728362 0.01437868 0.00783812
v 0.00728362 0.01484358 0.00827464
v -0.00000651 0.04520419 -0.00026620
v 0.00728362 0.04484906 -0.00046791
v -0.00000651 0.04484906 -0.00046791
v -0.00000651 0.01617694 0.00786521
v 0.00728362 0.01392346 0.00731278
v 0.00728362 0.04394831 -0.00049500
v -0.00000651 0.04440675 -0.00048145
v -0.00000651 0.01572818 0.00730525
v 0.00728362 0.01361999 0.00688679
v -0.00000651 0.04394831 -0.00049500
v 0.00728362 0.01461758 -0.00049500
v -0.00000651 0.01545376 0.00685669
v 0.00728362 0.01324225 0.00620792
v -0.00000651 0.01605103 -0.00049500
v 0.00728362 0.01425277 -0.00048747
v -0.00000651 0.01529234 0.00649844
v 0.00728362 0.01313249 0.00584666
v -0.00000651 0.01513737 0.00615072
v 0.00674980 0.01425277 -0.00047995
v 0.00728362 0.01371684 -0.00037307
v -0.00000651 0.01561519 -0.00029932
v 0.00728362 0.01296461 0.00525058
v -0.00000651 0.01490169 0.00525058
v 0.00728362 0.01334556 -0.00017287
v -0.00000651 0.01516643 -0.00009611
v 0.00728362 0.01296138 0.00522800
v -0.00000651 0.01479838 0.00435043
v 0.00728362 0.01287421 0.00455063
v 0.00728362 0.01300335 0.00004689
v -0.00000651 0.01495335 0.00032085
v 0.00728362 0.01285807 0.00024107
v -0.00000651 0.01477901 0.00389283
v 0.00728362 0.01284192 0.00407948
v -0.00000651 0.01473381 0.00075136
v 0.00728362 0.01282255 0.00038106
v -0.00000651 0.01476287 0.00345029
v 0.00728362 0.01282578 0.00345029
v 0.00728362 0.01281610 0.00075136
v 0.00728362 0.01281610 0.00165150
v 0.00728362 0.01281932 0.00255014
v -0.00000651 0.01473704 0.00119390
v -0.00000651 0.01475641 0.00299419
f 1 2 6
f 1 6 3
f 1 3 7
f 1 7 8
f 1 8 4
f 1 4 9
f 1 9 14
f 1 14 13
f 1 13 19
f 1 19 23
f 1 23 27
f 1 27 31
f 1 31 36
f 1 36 40
f 1 40 42
f 1 42 47
f 1 47 51
f 1 51 54
f 1 54 53
f 1 53 52
f 1 52 49
f 1 49 45
f 1 45 43
f 1 43 38
f 1 38 34
f 1 34 29
f 1 29 25
f 1 25 20
f 1 20 16
f 1 16 10
f 1 10 5
f 1 5 2
f 2 5 11
f 2 11 6
f 3 6 11
f 3 11 15
f 3 15 17
f 3 17 21
f 3 21 24
f 3 24 28
f 3 28 35
f 3 35 39
f 3 39 44
f 3 44 48
f 3 48 55
f 3 55 56
f 3 56 50
f 3 50 46
f 3 46 41
f 3 41 37
f 3 37 32
f 3 32 30
f 3 30 26
f 3 26 22
f 3 22 18
f 3 18 12
f 3 12 7
f 4 8 9
f 5 10 11
f 7 12 13
f 7 13 14
f 7 14 9
f 7 9 8
f 10 15 11
f 10 16 17
f 10 17 15
f 12 18 13
f 13 18 19
f 16 20 21
f 16 21 17
f 18 22 19
f 19 22 23
f 20 24 21
f 20 25 28
f 20 28 24
f 22 26 23
f 23 26 27
f 25 29 28
f 26 30 27
f 27 30 32
f 27 32 31
f 28 29 33
f 28 33 34
f 28 34 35
f 29 34 33
f 31 32 36
f 32 37 36
f 34 38 39
f 34 39 35
f 36 37 40
f 37 41 42
f 37 42 40
f 38 43 39
f 39 43 45
f 39 45 44
f 41 46 47
f 41 47 42
f 44 45 48
f 45 49 48
f 46 50 47
f 47 50 51
f 48 49 52
f 48 52 53
f 48 53 54
f 48 54 51
f 48 51 55
f 50 56 51
f 51 56 55

