# https://github.com/mikedh/trimesh
v 0.02162293 0.03944726 0.03349500
v 0.02162293 0.04034561 0.03346222
v 0.02114913 0.04034561 0.03346674
v 0.02024944 0.04034561 0.03346787
v 0.01751756 0.04031736 0.03346900
v 0.01255864 0.03944726 0.03349500
v 0.02162293 0.02865018 0.03349500
v 0.02162293 0.04124960 0.03335143
v 0.02114913 0.04124960 0.03336726
v 0.02024944 0.04124960 0.03337517
v 0.01751756 0.04034843 0.03346787
v 0.01255864 0.04034843 0.03346787
v 0.01255864 0.03404872 0.03349500
v 0.02114913 0.02865018 0.03349500
v 0.02162293 0.02775466 0.03348483
v 0.02162293 0.04214795 0.03310500
v 0.02114913 0.04214795 0.03313100
v 0.02024944 0.04214795 0.03314343
v 0.01751756 0.04124960 0.03337517
v 0.01255864 0.04075806 0.03342604
v 0.01751756 0.04211405 0.03315248
v 0.01305107 0.03315038 0.03349500
v 0.01255864 0.03315038 0.03349161
v 0.02114913 0.02775466 0.03347804
v 0.02162293 0.02685349 0.03344413
v 0.02162293 0.04280899 0.03281900
v 0.02114913 0.04283724 0.03283143
v 0.02024944 0.04285137 0.03283934
v 0.01255864 0.04214795 0.03314343
v 0.01751756 0.04282594 0.03285065
v 0.01255864 0.04165640 0.03327004
v 0.01255864 0.04124678 0.03337517
v 0.01255864 0.03225203 0.03345204
v 0.01305107 0.03225203 0.03346561
v 0.02114913 0.02685349 0.03341587
v 0.02162293 0.02595232 0.03333900
v 0.02162293 0.04325817 0.03254204
v 0.02114913 0.04328642 0.03256126
v 0.02024944 0.04330054 0.03257256
v 0.01255864 0.04285137 0.03283934
v 0.01255864 0.03135369 0.03333222
v 0.01305107 0.03135369 0.03337291
v 0.02162293 0.02505115 0.03315135
v 0.02162293 0.04356326 0.03230578
v 0.02114913 0.04385989 0.03211021
v 0.01255864 0.04330054 0.03257256
v 0.02024944 0.04387401 0.03212152
v 0.01751756 0.04385424 0.03213734
v 0.01255864 0.03045252 0.03309030
v 0.02162293 0.02418953 0.03289474
v 0.02162293 0.04383446 0.03209212
v 0.02114913 0.04430906 0.03169986
v 0.02024944 0.04432601 0.03171795
v 0.01255864 0.04387401 0.03212152
v 0.01255864 0.02977170 0.03281447
v 0.02162293 0.02366408 0.03271160
v 0.02162293 0.04428364 0.03167047
v 0.02162293 0.04447008 0.03143308
v 0.02162293 0.04463676 0.03121942
v 0.02114913 0.04465936 0.03124882
v 0.02024944 0.04467348 0.03126803
v 0.01751756 0.04466501 0.03128386
v 0.01751756 0.04432601 0.03171795
v 0.01255864 0.04432319 0.03171795
v 0.01255864 0.02931970 0.03256126
v 0.02162293 0.02315841 0.03244369
v 0.02162293 0.04510571 0.03044620
v 0.02114913 0.04510853 0.03052307
v 0.02024944 0.04512548 0.03055699
v 0.01751756 0.04511135 0.03058299
v 0.01255864 0.04467348 0.03126803
v 0.01255864 0.02869538 0.03210569
v 0.02162293 0.02199169 0.03172473
v 0.02162293 0.02250019 0.03206386
v 0.02162293 0.02282507 0.03225152
v 0.02162293 0.04527238 0.03012177
v 0.02114913 0.04533170 0.03007316
v 0.01255864 0.04512548 0.03055699
v 0.02024944 0.04534583 0.03010707
v 0.01255864 0.02826033 0.03173717
v 0.02162293 0.02150297 0.03128838
v 0.02162293 0.04531193 0.03003698
v 0.02114913 0.04550403 0.02954976
v 0.02024944 0.04553228 0.02954976
v 0.01255864 0.04534583 0.03010707
v 0.01751756 0.04553510 0.02954976
v 0.01255864 0.02785071 0.03128499
v 0.02162293 0.02104815 0.03083959
v 0.02162293 0.04545883 0.02958029
v 0.02162293 0.04556900 0.02907498
v 0.02114913 0.04569330 0.02864880
v 0.02024944 0.04572438 0.02864880
v 0.01255864 0.04553510 0.02954976
v 0.01255864 0.02740719 0.03068812
v 0.02162293 0.02067808 0.03037159
v 0.02162293 0.04565658 0.02864880
v 0.02162293 0.04569330 0.02817515
v 0.02162293 0.04572155 0.02774897
v 0.02114913 0.04575263 0.02774897
v 0.02024944 0.04578088 0.02774897
v 0.01751756 0.04578088 0.02778062
v 0.01751756 0.04572438 0.02864880
v 0.01255864 0.04572155 0.02864880
v 0.01255864 0.02715576 0.03025968
v 0.02162293 0.02026280 0.02968881
v 0.02162293 0.04573003 0.02685027
v 0.02114913 0.04576393 0.02685027
v 0.02024944 0.04579500 0.02685027
v 0.01255864 0.04578088 0.02774897
v 0.01255864 0.04574980 0.02823958
v 0.01255864 0.04579500 0.02685027
v 0.01255864 0.02686479 0.02957124
v 0.02162293 0.01693498 0.02194642
v 0.02162293 0.04573003 0.02194642
v 0.02155283 0.04573568 0.02194642
v 0.02136118 0.04574980 0.02194642
v 0.02114913 0.04576393 0.02194642
v 0.02024944 0.04579500 0.02194642
v 0.01255864 0.04579500 0.02194642
v 0.01255864 0.02452006 0.02194642
f 1 2 3
f 1 3 4
f 1 4 5
f 1 5 6
f 1 6 13
f 1 13 22
f 1 22 14
f 1 14 7
f 1 7 15
f 1 15 25
f 1 25 36
f 1 36 43
f 1 43 50
f 1 50 56
f 1 56 66
f 1 66 75
f 1 75 74
f 1 74 73
f 1 73 81
f 1 81 88
f 1 88 95
f 1 95 105
f 1 105 113
f 1 113 114
f 1 114 106
f 1 106 98
f 1 98 97
f 1 97 96
f 1 96 90
f 1 90 89
f 1 89 82
f 1 82 76
f 1 76 67
f 1 67 59
f 1 59 58
f 1 58 57
f 1 57 51
f 1 51 44
f 1 44 37
f 1 37 26
f 1 26 16
f 1 16 8
f 1 8 2
f 2 8 9
f 2 9 3
f 3 9 10
f 3 10 4
f 4 11 5
f 4 10 11
f 5 11 12
f 5 12 6
f 6 12 20
f 6 20 32
f 6 32 31
f 6 31 29
f 6 29 40
f 6 40 46
f 6 46 54
f 6 54 64
f 6 64 71
f 6 71 78
f 6 78 85
f 6 85 93
f 6 93 103
f 6 103 110
f 6 110 109
f 6 109 111
f 6 111 119
f 6 119 120
f 6 120 112
f 6 112 104
f 6 104 94
f 6 94 87
f 6 87 80
f 6 80 72
f 6 72 65
f 6 65 55
f 6 55 49
f 6 49 41
f 6 41 33
f 6 33 23
f 6 23 13
f 7 14 15
f 8 16 17
f 8 17 9
f 9 17 18
f 9 18 10
f 10 19 20
f 10 20 11
f 10 18 21
f 10 21 19
f 11 20 12
f 13 23 22
f 14 22 23
f 14 23 15
f 15 24 25
f 15 23 24
f 16 26 17
f 17 26 27
f 17 27 28
f 17 28 18
f 18 29 21
f 18 28 30
f 18 30 29
f 19 21 29
f 19 29 31
f 19 31 32
f 19 32 20
f 23 33 34
f 23 34 24
f 24 34 33
f 24 33 25
f 25 33 35
f 25 35 36
f 26 37 38
f 26 38 27
f 27 38 39
f 27 39 28
f 28 40 30
f 28 39 46
f 28 46 40
f 29 30 40
f 33 41 42
f 33 42 36
f 33 36 35
f 36 42 41
f 36 41 43
f 37 44 38
f 38 44 45
f 38 45 47
f 38 47 39
f 39 47 48
f 39 48 46
f 41 49 43
f 43 49 50
f 44 51 45
f 45 51 52
f 45 52 53
f 45 53 47
f 46 48 54
f 47 53 63
f 47 63 54
f 47 54 48
f 49 55 56
f 49 56 50
f 51 57 52
f 52 57 58
f 52 58 59
f 52 59 60
f 52 60 53
f 53 60 61
f 53 61 62
f 53 62 63
f 54 63 64
f 55 65 66
f 55 66 56
f 59 67 68
f 59 68 60
f 60 68 69
f 60 69 61
f 61 69 70
f 61 70 62
f 62 70 71
f 62 71 64
f 62 64 63
f 65 72 73
f 65 73 74
f 65 74 75
f 65 75 66
f 67 76 68
f 68 76 77
f 68 77 69
f 69 78 70
f 69 77 79
f 69 79 85
f 69 85 78
f 70 78 71
f 72 80 73
f 73 80 81
f 76 82 77
f 77 82 83
f 77 83 84
f 77 84 79
f 79 84 86
f 79 86 93
f 79 93 85
f 80 87 88
f 80 88 81
f 82 89 83
f 83 89 90
f 83 90 91
f 83 91 92
f 83 92 84
f 84 92 86
f 86 92 102
f 86 102 93
f 87 94 95
f 87 95 88
f 90 96 91
f 91 96 97
f 91 97 98
f 91 98 99
f 91 99 92
f 92 99 100
f 92 100 101
f 92 101 102
f 93 102 103
f 94 104 105
f 94 105 95
f 98 106 107
f 98 107 99
f 99 107 108
f 99 108 100
f 100 108 101
f 101 109 110
f 101 110 102
f 101 108 111
f 101 111 109
f 102 110 103
f 104 112 113
f 104 113 105
f 106 114 115
f 106 115 116
f 106 116 107
f 107 116 117
f 107 117 118
f 107 118 108
f 108 118 119
f 108 119 111
f 112 120 113
f 113 120 119
f 113 119 118
f 113 118 117
f 113 117 116
f 113 116 115
f 113 115 114

