# https://github.com/mikedh/trimesh
v -0.02159201 -0.01696978 0.02286716
v -0.02159201 -0.01227940 0.01736286
v -0.02224252 -0.01696978 0.02444156
v -0.02159201 -0.01696978 -0.00049500
v -0.02159201 -0.01227572 0.01735554
v -0.02519325 -0.01227572 0.02444156
v -0.04549500 -0.01696978 0.02444156
v -0.04364875 -0.01696978 -0.00049500
v -0.02159201 -0.01227572 -0.00049500
v -0.04549500 -0.01227572 0.02444156
v -0.04549500 -0.01696978 0.00075232
v -0.04364875 -0.01227572 -0.00049500
v -0.04454965 -0.01696978 -0.00046815
v -0.04549500 -0.01227572 0.00075232
v -0.04524696 -0.01696978 -0.00007028
v -0.04454965 -0.01227572 -0.00046815
v -0.04524696 -0.01227572 -0.00007028
f 1 2 3
f 1 3 7
f 1 7 11
f 1 11 15
f 1 15 13
f 1 13 8
f 1 8 4
f 1 4 9
f 1 9 5
f 1 5 2
f 2 5 6
f 2 6 3
f 3 6 10
f 3 10 7
f 4 8 12
f 4 12 9
f 5 9 12
f 5 12 16
f 5 16 17
f 5 17 14
f 5 14 10
f 5 10 6
f 7 10 14
f 7 14 11
f 8 13 16
f 8 16 12
f 11 14 17
f 11 17 15
f 13 15 17
f 13 17 16

