# https://github.com/mikedh/trimesh
v -0.00994465 -0.02038831 0.01454273
v -0.00994465 -0.04519500 0.01454273
v -0.00000819 -0.02265343 0.01454273
v -0.00994465 -0.01251007 0.00822942
v -0.00994465 -0.04519500 0.00075029
v -0.00501873 -0.04519500 0.01454273
v -0.00000819 -0.04519157 0.01454273
v -0.00000819 -0.01599514 0.00831626
v -0.00994465 -0.01200290 0.00779813
v -0.00501873 -0.04519500 0.00075029
v -0.00994465 -0.04505793 0.00029840
v -0.00000819 -0.04519157 0.00075029
v -0.00000819 -0.01578953 0.00809399
v -0.00994465 -0.01153686 0.00734917
v -0.00000819 -0.04494484 -0.00007107
v -0.00994465 -0.04494142 -0.00007107
v -0.00501873 -0.04494484 -0.00007107
v -0.00000819 -0.01558049 0.00786584
v -0.00994465 -0.01115648 0.00688108
v -0.00501873 -0.04424920 -0.00046850
v -0.00000819 -0.04424577 -0.00046850
v -0.00994465 -0.04424920 -0.00046850
v -0.00000819 -0.01513158 0.00730501
v -0.00994465 -0.01071785 0.00614509
v -0.00000819 -0.01485401 0.00685606
v -0.00501873 -0.04334795 -0.00049500
v -0.00000819 -0.04334452 -0.00049500
v -0.00994465 -0.04334795 -0.00049500
v -0.00994465 -0.01054308 0.00574619
v -0.00000819 -0.01453874 0.00615245
v -0.00000819 -0.01545370 -0.00049500
v -0.00994465 -0.01225649 -0.00049500
v -0.00994465 -0.01048482 0.00561077
v -0.00000819 -0.01430229 0.00525160
v -0.00994465 -0.01185212 -0.00047734
v -0.00994465 -0.01135523 -0.00042582
v -0.00994465 -0.01051567 -0.00005782
v -0.00000819 -0.01456616 -0.00009609
v -0.00994465 -0.01036831 0.00509557
v -0.00000819 -0.01425089 0.00480854
v -0.00994465 -0.01025866 0.00435075
v -0.00994465 -0.01034433 0.00011440
v -0.00000819 -0.01413438 0.00075029
v -0.00000819 -0.01420292 0.00435075
v -0.00994465 -0.01020383 0.00345137
v -0.00994465 -0.01025180 0.00036316
v -0.00994465 -0.01019355 0.00075029
v -0.00994465 -0.01018669 0.00165114
v -0.00000819 -0.01413781 0.00120955
v -0.00000819 -0.01418235 0.00390769
v -0.00000819 -0.01416522 0.00345137
v -0.00000819 -0.01415837 0.00300978
f 1 2 6
f 1 6 7
f 1 7 3
f 1 3 4
f 1 4 9
f 1 9 14
f 1 14 19
f 1 19 24
f 1 24 29
f 1 29 33
f 1 33 39
f 1 39 41
f 1 41 45
f 1 45 48
f 1 48 47
f 1 47 46
f 1 46 42
f 1 42 37
f 1 37 36
f 1 36 35
f 1 35 32
f 1 32 28
f 1 28 22
f 1 22 16
f 1 16 11
f 1 11 5
f 1 5 2
f 2 5 10
f 2 10 6
f 3 7 12
f 3 12 15
f 3 15 21
f 3 21 27
f 3 27 31
f 3 31 38
f 3 38 43
f 3 43 49
f 3 49 52
f 3 52 51
f 3 51 50
f 3 50 44
f 3 44 40
f 3 40 34
f 3 34 30
f 3 30 25
f 3 25 23
f 3 23 18
f 3 18 13
f 3 13 8
f 3 8 9
f 3 9 4
f 5 11 10
f 6 10 12
f 6 12 7
f 8 13 14
f 8 14 9
f 10 11 15
f 10 15 12
f 11 16 17
f 11 17 15
f 13 18 14
f 14 18 19
f 15 20 21
f 15 17 22
f 15 22 20
f 16 22 17
f 18 23 19
f 19 23 25
f 19 25 24
f 20 22 28
f 20 28 26
f 20 26 27
f 20 27 21
f 24 25 30
f 24 30 29
f 26 28 32
f 26 32 31
f 26 31 27
f 29 30 33
f 30 34 33
f 31 32 35
f 31 35 36
f 31 36 37
f 31 37 38
f 33 34 39
f 34 40 41
f 34 41 39
f 37 42 38
f 38 42 43
f 40 44 41
f 41 44 45
f 42 46 43
f 43 46 47
f 43 47 48
f 43 48 49
f 44 50 45
f 45 50 51
f 45 51 52
f 45 52 49
f 45 49 48

