# https://github.com/mikedh/trimesh
v 0.02162293 0.00933200 0.01516301
v 0.01358698 0.00933200 0.00833179
v 0.02162293 0.00030730 0.01298505
v 0.02162293 0.00933200 -0.00049500
v 0.01309721 0.00933200 0.00790110
v 0.01629580 0.00030730 0.00831033
v 0.02162293 0.00030730 -0.00049500
v 0.01346809 0.00933200 -0.00049500
v 0.01263140 0.00933200 0.00745969
v 0.01588322 0.00030730 0.00785972
v 0.01575013 0.00030730 -0.00049500
v 0.01305018 0.00933200 -0.00048887
v 0.01262785 0.00933200 0.00745509
v 0.01543338 0.00030730 0.00730182
v 0.01566140 0.00030730 0.00758537
v 0.01487972 0.00030730 -0.00009650
v 0.01255953 0.00933200 -0.00046128
v 0.01256840 0.00933200 -0.00046434
v 0.01305018 0.00884967 -0.00048274
v 0.01255953 0.00933200 0.00736619
v 0.01529496 0.00030730 0.00708111
v 0.01255953 0.00841946 -0.00023291
v 0.01466767 0.00030730 0.00033419
v 0.01255953 0.00776398 0.00003071
v 0.01255953 0.00891769 0.00697382
v 0.01484068 0.00030730 0.00615077
v 0.01500039 0.00030730 0.00650788
v 0.01515566 0.00030730 0.00685274
v 0.01446271 0.00030730 0.00075108
v 0.01255953 0.00747511 0.00021004
v 0.01255953 0.00847423 0.00651708
v 0.01460201 0.00030730 0.00525107
v 0.01255953 0.00741946 0.00075108
v 0.01255953 0.00742741 0.00064379
v 0.01255953 0.00745833 0.00023610
v 0.01447336 0.00030730 0.00345016
v 0.01255953 0.00812264 0.00603888
v 0.01255953 0.00774896 0.00525107
v 0.01455321 0.00030730 0.00480812
v 0.01255953 0.00749985 0.00345016
v 0.01448844 0.00030730 0.00390843
v 0.01255953 0.00753253 0.00409389
v 0.01255953 0.00759525 0.00458588
v 0.01450352 0.00030730 0.00435138
f 1 2 3
f 1 3 7
f 1 7 4
f 1 4 8
f 1 8 12
f 1 12 18
f 1 18 17
f 1 17 20
f 1 20 13
f 1 13 9
f 1 9 5
f 1 5 2
f 2 5 6
f 2 6 3
f 3 6 10
f 3 10 15
f 3 15 14
f 3 14 21
f 3 21 28
f 3 28 27
f 3 27 26
f 3 26 32
f 3 32 39
f 3 39 44
f 3 44 41
f 3 41 36
f 3 36 29
f 3 29 23
f 3 23 16
f 3 16 11
f 3 11 7
f 4 7 11
f 4 11 8
f 5 9 6
f 6 9 10
f 8 11 12
f 9 13 14
f 9 14 15
f 9 15 10
f 11 16 17
f 11 17 18
f 11 18 19
f 11 19 12
f 12 19 18
f 13 20 14
f 14 20 21
f 16 22 17
f 16 23 24
f 16 24 22
f 17 22 24
f 17 24 30
f 17 30 35
f 17 35 34
f 17 34 33
f 17 33 40
f 17 40 42
f 17 42 43
f 17 43 38
f 17 38 37
f 17 37 31
f 17 31 25
f 17 25 20
f 20 25 26
f 20 26 27
f 20 27 28
f 20 28 21
f 23 29 24
f 24 29 30
f 25 31 26
f 26 31 32
f 29 33 34
f 29 34 35
f 29 35 30
f 29 36 33
f 31 37 32
f 32 37 38
f 32 38 39
f 33 36 40
f 36 41 42
f 36 42 40
f 38 43 44
f 38 44 39
f 41 44 42
f 42 44 43

