# https://github.com/mikedh/trimesh
v 0.01035265 -0.01185386 -0.00049500
v 0.00945260 -0.01185386 -0.00045827
v 0.01035265 -0.01184978 -0.00049500
v 0.04364695 -0.01185386 -0.00049500
v 0.00853043 -0.01185386 -0.00015373
v 0.00945260 -0.01184978 -0.00045827
v 0.01395283 -0.00664356 -0.00047817
v 0.01395283 -0.00735007 -0.00049500
v 0.04364695 -0.00664356 -0.00049500
v 0.04454700 -0.01185386 -0.00046745
v 0.00840870 -0.01185386 -0.00010475
v 0.00853043 -0.01180948 -0.00013842
v 0.01304910 -0.00664356 -0.00009710
v 0.01485288 -0.00664356 -0.00049500
v 0.04454700 -0.00664356 -0.00046745
v 0.04469824 -0.00664356 -0.00038328
v 0.04524417 -0.01185386 -0.00007109
v 0.00781113 -0.01185386 0.00075072
v 0.01285359 -0.00664356 0.00006053
v 0.04524417 -0.00664356 -0.00007109
v 0.04529950 -0.00664356 0.00010491
v 0.04549500 -0.01185386 0.00075072
v 0.00782219 -0.01185386 0.00140726
v 0.01269867 -0.00664356 0.00345030
v 0.01266178 -0.00664356 0.00075072
v 0.01256956 -0.00684454 0.00022121
v 0.04549500 -0.00664356 0.00075072
v 0.04549500 -0.01185386 0.01513929
v 0.00785539 -0.01185386 0.00317024
v 0.01270605 -0.00664356 0.00374566
v 0.04549500 -0.00664356 0.01513929
v 0.02001707 -0.01185386 0.01513929
v 0.00786277 -0.01185386 0.00345030
v 0.01272818 -0.00664356 0.00435016
v 0.02236678 -0.00664356 0.01513929
v 0.00980303 -0.01185386 0.00756089
v 0.00788859 -0.01185386 0.00395533
v 0.01280933 -0.00664356 0.00500363
v 0.00791072 -0.01185386 0.00433792
v 0.01462049 -0.00664356 0.00819752
v 0.00932350 -0.01185386 0.00711708
v 0.01284253 -0.00664356 0.00525002
v 0.00808409 -0.01185386 0.00525002
v 0.01452827 -0.00664356 0.00810723
v 0.00927923 -0.01185386 0.00707423
v 0.01312287 -0.00664356 0.00618814
v 0.00821319 -0.01185386 0.00554538
v 0.01416309 -0.00664356 0.00774912
v 0.00889561 -0.01185386 0.00665337
v 0.01340321 -0.00664356 0.00674979
v 0.00852305 -0.01185386 0.00617743
v 0.01402660 -0.00664356 0.00759915
v 0.01344748 -0.00664356 0.00681712
v 0.01369093 -0.00664356 0.00716758
v 0.01361347 -0.00664356 0.00706198
f 1 2 6
f 1 6 3
f 1 3 8
f 1 8 14
f 1 14 9
f 1 9 4
f 1 4 10
f 1 10 17
f 1 17 22
f 1 22 28
f 1 28 32
f 1 32 36
f 1 36 41
f 1 41 45
f 1 45 49
f 1 49 51
f 1 51 47
f 1 47 43
f 1 43 39
f 1 39 37
f 1 37 33
f 1 33 29
f 1 29 23
f 1 23 18
f 1 18 11
f 1 11 5
f 1 5 2
f 2 5 6
f 3 6 7
f 3 7 8
f 4 9 15
f 4 15 10
f 5 11 12
f 5 12 7
f 5 7 6
f 7 12 11
f 7 11 13
f 7 13 19
f 7 19 25
f 7 25 24
f 7 24 30
f 7 30 34
f 7 34 38
f 7 38 42
f 7 42 46
f 7 46 50
f 7 50 53
f 7 53 55
f 7 55 54
f 7 54 52
f 7 52 48
f 7 48 44
f 7 44 40
f 7 40 35
f 7 35 31
f 7 31 27
f 7 27 21
f 7 21 20
f 7 20 16
f 7 16 15
f 7 15 9
f 7 9 14
f 7 14 8
f 10 15 16
f 10 16 17
f 11 18 19
f 11 19 13
f 16 20 17
f 17 20 21
f 17 21 22
f 18 23 24
f 18 24 25
f 18 25 26
f 18 26 19
f 19 26 25
f 21 27 22
f 22 27 31
f 22 31 28
f 23 29 24
f 24 29 30
f 28 31 35
f 28 35 32
f 29 33 30
f 30 33 34
f 32 35 36
f 33 37 34
f 34 37 39
f 34 39 38
f 35 40 36
f 36 40 41
f 38 39 42
f 39 43 42
f 40 44 45
f 40 45 41
f 42 43 46
f 43 47 46
f 44 48 45
f 45 48 49
f 46 47 51
f 46 51 50
f 48 52 49
f 49 52 51
f 50 51 53
f 51 52 54
f 51 54 55
f 51 55 53

