# https://github.com/mikedh/trimesh
v 0.02162293 0.00030730 -0.00049500
v 0.02162293 0.00030730 0.01298551
v 0.02162293 0.00899708 -0.00049500
v 0.04364898 0.00030730 -0.00049500
v 0.02162293 0.00899708 0.01499593
v 0.02704415 0.00030730 0.02135441
v 0.02560005 0.00899708 0.02135441
v 0.04364898 0.00899708 -0.00049500
v 0.04454862 0.00030730 -0.00046720
v 0.04549500 0.00030730 0.02135441
v 0.04549500 0.00899708 0.02135441
v 0.04454862 0.00899708 -0.00046720
v 0.04489212 0.00030730 -0.00027257
v 0.04549500 0.00030730 0.00075189
v 0.04549500 0.00899708 0.00075189
v 0.04513281 0.00899708 -0.00013569
v 0.04524731 0.00030730 -0.00006939
v 0.04524731 0.00899708 -0.00006939
f 1 2 5
f 1 5 3
f 1 3 8
f 1 8 4
f 1 4 9
f 1 9 13
f 1 13 17
f 1 17 14
f 1 14 10
f 1 10 6
f 1 6 2
f 2 6 7
f 2 7 5
f 3 5 7
f 3 7 11
f 3 11 15
f 3 15 18
f 3 18 16
f 3 16 12
f 3 12 8
f 4 8 12
f 4 12 9
f 6 10 11
f 6 11 7
f 9 12 13
f 10 14 15
f 10 15 11
f 12 16 13
f 13 16 17
f 14 17 18
f 14 18 15
f 16 18 17

