# https://github.com/mikedh/trimesh
v 0.02303529 -0.02706529 0.03349391
v 0.02303529 -0.02625061 0.03349062
v 0.02204968 -0.02715215 0.03349391
v 0.02303529 -0.03794971 0.03349391
v 0.02303529 -0.02616674 0.03348953
v 0.01935023 -0.02895224 0.03349062
v 0.01924179 -0.02985079 0.03349391
v 0.02204968 -0.03884826 0.03349391
v 0.02303529 -0.03876439 0.03348844
v 0.02303529 -0.02535206 0.03346327
v 0.02114986 -0.02715215 0.03347749
v 0.01924179 -0.02895224 0.03348844
v 0.01924179 -0.02906007 0.03349062
v 0.01924179 -0.03884826 0.03349391
v 0.01924179 -0.03895608 0.03349172
v 0.02025005 -0.03974980 0.03346765
v 0.02114986 -0.03974980 0.03346655
v 0.02294987 -0.03884826 0.03348734
v 0.02303529 -0.03884826 0.03348625
v 0.02303529 -0.02526520 0.03345999
v 0.01924179 -0.02816152 0.03345452
v 0.01924179 -0.03974980 0.03346765
v 0.01924179 -0.03985763 0.03345671
v 0.02025005 -0.04064835 0.03337465
v 0.02204968 -0.03974980 0.03345889
v 0.02303529 -0.03966294 0.03344029
v 0.02294987 -0.03974980 0.03343810
v 0.02303529 -0.02445052 0.03339106
v 0.01924179 -0.02805070 0.03344576
v 0.01924179 -0.04064835 0.03337465
v 0.01924179 -0.04075617 0.03334729
v 0.02025005 -0.04154989 0.03314378
v 0.02114986 -0.04064835 0.03336699
v 0.02303529 -0.03974980 0.03343263
v 0.02204968 -0.04064835 0.03333745
v 0.02294987 -0.04064835 0.03328274
v 0.02303529 -0.02436665 0.03338340
v 0.01924179 -0.02725998 0.03335604
v 0.01924179 -0.04154989 0.03314378
v 0.01924179 -0.04163375 0.03310768
v 0.02025005 -0.04225076 0.03283961
v 0.02114986 -0.04223578 0.03283305
v 0.02114986 -0.04154989 0.03313065
v 0.02303529 -0.04056448 0.03329149
v 0.02204968 -0.04154989 0.03308142
v 0.02303529 -0.04064835 0.03327399
v 0.02303529 -0.02346511 0.03323788
v 0.01924179 -0.02715215 0.03333526
v 0.01924179 -0.04225076 0.03283961
v 0.01924179 -0.04230467 0.03280788
v 0.02025005 -0.04270003 0.03257264
v 0.02204968 -0.04218487 0.03280570
v 0.02114986 -0.04268506 0.03256170
v 0.02294987 -0.04154989 0.03298513
v 0.02303529 -0.04146303 0.03300373
v 0.01924179 -0.02636143 0.03316676
v 0.02303529 -0.02256656 0.03300264
v 0.01924179 -0.04270003 0.03257264
v 0.02025005 -0.04327510 0.03212186
v 0.02114986 -0.04326013 0.03211201
v 0.02294987 -0.04208603 0.03274990
v 0.02204968 -0.04263414 0.03252450
v 0.02303529 -0.04154989 0.03297091
v 0.02303529 -0.04207404 0.03274333
v 0.01924179 -0.02624462 0.03312956
v 0.02303529 -0.02184173 0.03276631
v 0.02303417 -0.02184173 0.03276631
v 0.01924179 -0.04327510 0.03212186
v 0.01924179 -0.04332902 0.03207372
v 0.02025005 -0.04372438 0.03171813
v 0.02204968 -0.04320921 0.03207372
v 0.02114986 -0.04370940 0.03169953
v 0.02294987 -0.04253530 0.03245338
v 0.02294987 -0.04312235 0.03200369
v 0.02303529 -0.04244544 0.03249715
v 0.01924179 -0.02545090 0.03286916
v 0.02303529 -0.02147333 0.03261094
v 0.01924179 -0.02539399 0.03284727
v 0.01924179 -0.04372438 0.03171813
v 0.02025005 -0.04407481 0.03126734
v 0.02114986 -0.04405984 0.03124984
v 0.02204968 -0.04366148 0.03164372
v 0.02204968 -0.04401491 0.03119404
v 0.02303529 -0.04251733 0.03244463
v 0.02303529 -0.04304747 0.03204089
v 0.02303529 -0.04311037 0.03199166
v 0.02294987 -0.04357462 0.03153650
v 0.02303529 -0.02080540 0.03225972
v 0.01924179 -0.02496868 0.03266236
v 0.01924179 -0.04407481 0.03126734
v 0.01924179 -0.04413172 0.03118200
v 0.02025005 -0.04452708 0.03055725
v 0.02114986 -0.04450911 0.03052442
v 0.02294987 -0.04393404 0.03108681
v 0.02204003 -0.04450312 0.03037672
v 0.02303529 -0.04351771 0.03156932
v 0.02303529 -0.04356563 0.03151462
v 0.02303529 -0.04392206 0.03107149
v 0.02303529 -0.02061072 0.03215687
v 0.01924179 -0.02471109 0.03251465
v 0.02303529 -0.02018541 0.03192601
v 0.01924179 -0.04452708 0.03055725
v 0.01924179 -0.04455404 0.03050254
v 0.02025005 -0.04474573 0.03010756
v 0.02114986 -0.04473075 0.03007473
v 0.02173328 -0.04471278 0.03002769
v 0.02294987 -0.04430544 0.03044893
v 0.02303529 -0.04424254 0.03052224
v 0.02233341 -0.04468283 0.02995110
v 0.01924179 -0.02458829 0.03244354
v 0.02303529 -0.01977507 0.03164044
v 0.01924179 -0.02385148 0.03197634
v 0.01924179 -0.04474573 0.03010756
v 0.01924179 -0.04476969 0.03003972
v 0.02025005 -0.04493443 0.02954955
v 0.02114986 -0.04490447 0.02954955
v 0.02204003 -0.04481761 0.02961082
v 0.02303529 -0.04428148 0.03045331
v 0.02294987 -0.04461993 0.02975962
v 0.02294987 -0.04476670 0.02930994
v 0.02303529 -0.01970918 0.03158683
v 0.01924179 -0.02380356 0.03194242
v 0.01924179 -0.04493443 0.02954955
v 0.02025005 -0.04512312 0.02864908
v 0.02114986 -0.04509616 0.02864908
v 0.02204968 -0.04502727 0.02864908
v 0.02303529 -0.04456602 0.02982856
v 0.02303529 -0.04460795 0.02973118
v 0.02303529 -0.04475471 0.02927821
v 0.02294987 -0.04488351 0.02864908
v 0.02303529 -0.04485355 0.02873442
v 0.02303529 -0.01913710 0.03111635
v 0.01924179 -0.02345013 0.03165029
v 0.01924179 -0.04512312 0.02864908
v 0.01924179 -0.04513210 0.02854076
v 0.02025005 -0.04518302 0.02775079
v 0.02114986 -0.04515607 0.02775079
v 0.02204968 -0.04508718 0.02775079
v 0.02294987 -0.04494640 0.02775079
v 0.02303529 -0.04486254 0.02864908
v 0.02303529 -0.01910715 0.03109119
v 0.01924179 -0.02335129 0.03155729
v 0.01924179 -0.04518302 0.02775079
v 0.01924179 -0.04518602 0.02764247
v 0.02025005 -0.04519500 0.02685032
v 0.02114986 -0.04516505 0.02685032
v 0.02204968 -0.04509916 0.02685032
v 0.02294987 -0.04495539 0.02685032
v 0.02303529 -0.04493443 0.02695755
v 0.02303529 -0.04492543 0.02775079
v 0.02303529 -0.01871778 0.03068745
v 0.01924179 -0.02289303 0.03110760
v 0.01924179 -0.02295294 0.03116778
v 0.01924179 -0.04519500 0.02685032
v 0.02025005 -0.04519500 0.02231732
v 0.02114986 -0.04516505 0.02595094
v 0.02204968 -0.04509616 0.02325062
v 0.02291719 -0.04496138 0.02231732
v 0.02114986 -0.04516205 0.02231732
v 0.02294987 -0.04495539 0.02231732
v 0.02303529 -0.04493443 0.02231732
v 0.02303529 -0.01846618 0.03039641
v 0.01924179 -0.02247970 0.03058460
v 0.01924179 -0.04519500 0.02231732
v 0.02201700 -0.04509616 0.02231732
v 0.02204968 -0.04509317 0.02231732
v 0.02303529 -0.01459943 0.02231732
v 0.02303529 -0.01833739 0.03022244
v 0.01924179 -0.02243178 0.03051895
v 0.01924179 -0.01925391 0.02231732
v 0.01924179 -0.02188666 0.02950579
v 0.01924179 -0.02193159 0.02961192
v 0.02303529 -0.01801392 0.02972242
v 0.01924179 -0.02213825 0.03004848
f 1 2 3
f 1 3 7
f 1 7 14
f 1 14 8
f 1 8 4
f 1 4 9
f 1 9 19
f 1 19 26
f 1 26 34
f 1 34 44
f 1 44 46
f 1 46 55
f 1 55 63
f 1 63 64
f 1 64 75
f 1 75 84
f 1 84 85
f 1 85 86
f 1 86 96
f 1 96 97
f 1 97 98
f 1 98 108
f 1 108 118
f 1 118 127
f 1 127 128
f 1 128 129
f 1 129 131
f 1 131 140
f 1 140 150
f 1 150 149
f 1 149 161
f 1 161 167
f 1 167 173
f 1 173 168
f 1 168 162
f 1 162 151
f 1 151 141
f 1 141 132
f 1 132 121
f 1 121 111
f 1 111 101
f 1 101 99
f 1 99 88
f 1 88 77
f 1 77 66
f 1 66 57
f 1 57 47
f 1 47 37
f 1 37 28
f 1 28 20
f 1 20 10
f 1 10 5
f 1 5 2
f 2 5 3
f 3 5 6
f 3 6 7
f 4 8 9
f 5 10 11
f 5 11 12
f 5 12 6
f 6 12 13
f 6 13 7
f 7 13 12
f 7 12 21
f 7 21 29
f 7 29 38
f 7 38 48
f 7 48 56
f 7 56 65
f 7 65 76
f 7 76 78
f 7 78 89
f 7 89 100
f 7 100 110
f 7 110 112
f 7 112 122
f 7 122 133
f 7 133 142
f 7 142 153
f 7 153 152
f 7 152 163
f 7 163 169
f 7 169 174
f 7 174 172
f 7 172 171
f 7 171 170
f 7 170 164
f 7 164 154
f 7 154 144
f 7 144 143
f 7 143 135
f 7 135 134
f 7 134 123
f 7 123 114
f 7 114 113
f 7 113 103
f 7 103 102
f 7 102 91
f 7 91 90
f 7 90 79
f 7 79 69
f 7 69 68
f 7 68 58
f 7 58 50
f 7 50 49
f 7 49 40
f 7 40 39
f 7 39 31
f 7 31 30
f 7 30 23
f 7 23 22
f 7 22 15
f 7 15 14
f 8 14 15
f 8 15 16
f 8 16 17
f 8 17 18
f 8 18 9
f 9 18 19
f 10 20 11
f 11 20 21
f 11 21 12
f 15 22 16
f 16 22 23
f 16 23 24
f 16 24 17
f 17 24 33
f 17 33 25
f 17 25 18
f 18 25 19
f 19 25 27
f 19 27 26
f 20 28 29
f 20 29 21
f 23 30 24
f 24 30 31
f 24 31 32
f 24 32 33
f 25 33 27
f 26 27 34
f 27 33 35
f 27 35 36
f 27 36 34
f 28 37 29
f 29 37 38
f 31 39 32
f 32 39 40
f 32 40 41
f 32 41 42
f 32 42 43
f 32 43 33
f 33 43 35
f 34 36 44
f 35 43 45
f 35 45 36
f 36 46 44
f 36 45 46
f 37 47 38
f 38 47 48
f 40 49 41
f 41 49 50
f 41 50 51
f 41 51 42
f 42 52 45
f 42 45 43
f 42 51 53
f 42 53 52
f 45 54 46
f 45 52 54
f 46 54 55
f 47 56 48
f 47 57 56
f 50 58 51
f 51 58 68
f 51 68 59
f 51 59 60
f 51 60 53
f 52 61 54
f 52 53 62
f 52 62 61
f 53 60 62
f 54 63 55
f 54 61 64
f 54 64 63
f 56 57 65
f 57 66 67
f 57 67 65
f 59 68 69
f 59 69 70
f 59 70 60
f 60 71 62
f 60 70 72
f 60 72 71
f 61 62 73
f 61 73 64
f 62 71 74
f 62 74 73
f 64 73 75
f 65 67 76
f 66 77 67
f 67 77 78
f 67 78 76
f 69 79 70
f 70 79 90
f 70 90 80
f 70 80 81
f 70 81 72
f 71 72 82
f 71 82 74
f 72 81 83
f 72 83 82
f 73 84 75
f 73 74 85
f 73 85 84
f 74 86 85
f 74 82 87
f 74 87 86
f 77 88 89
f 77 89 78
f 80 90 91
f 80 91 92
f 80 92 81
f 81 92 93
f 81 93 83
f 82 83 94
f 82 94 87
f 83 93 95
f 83 95 94
f 86 87 96
f 87 97 96
f 87 94 98
f 87 98 97
f 88 99 89
f 89 99 101
f 89 101 100
f 91 102 92
f 92 102 103
f 92 103 104
f 92 104 105
f 92 105 93
f 93 105 106
f 93 106 95
f 94 95 107
f 94 107 108
f 94 108 98
f 95 106 109
f 95 109 107
f 100 101 110
f 101 111 112
f 101 112 110
f 103 113 104
f 104 113 114
f 104 114 115
f 104 115 105
f 105 115 116
f 105 116 106
f 106 116 117
f 106 117 109
f 107 118 108
f 107 109 119
f 107 119 118
f 109 117 120
f 109 120 119
f 111 121 122
f 111 122 112
f 114 123 115
f 115 123 134
f 115 134 124
f 115 124 125
f 115 125 116
f 116 125 126
f 116 126 117
f 117 126 120
f 118 119 127
f 119 120 128
f 119 128 127
f 120 129 128
f 120 126 130
f 120 130 131
f 120 131 129
f 121 132 122
f 122 132 133
f 124 134 135
f 124 135 136
f 124 136 137
f 124 137 125
f 125 137 138
f 125 138 126
f 126 138 139
f 126 139 130
f 130 140 131
f 130 139 150
f 130 150 140
f 132 141 133
f 133 141 142
f 135 143 136
f 136 143 144
f 136 144 145
f 136 145 137
f 137 145 146
f 137 146 147
f 137 147 138
f 138 147 139
f 139 147 148
f 139 148 149
f 139 149 150
f 141 151 152
f 141 152 153
f 141 153 142
f 144 154 145
f 145 154 164
f 145 164 155
f 145 155 156
f 145 156 146
f 146 156 147
f 147 157 158
f 147 158 148
f 147 156 159
f 147 159 157
f 148 158 160
f 148 160 161
f 148 161 149
f 151 162 152
f 152 162 163
f 155 159 156
f 155 164 170
f 155 170 167
f 155 167 161
f 155 161 160
f 155 160 158
f 155 158 166
f 155 166 165
f 155 165 159
f 157 159 165
f 157 165 166
f 157 166 158
f 162 168 163
f 163 168 169
f 167 170 171
f 167 171 172
f 167 172 173
f 168 173 169
f 169 173 174
f 172 174 173

