# https://github.com/mikedh/trimesh
v -0.01520738 0.03944790 0.03349500
v -0.01520738 0.04034778 0.03346846
v -0.02038283 0.03944790 0.03349500
v -0.01520738 0.03279196 0.03349500
v -0.01520738 0.04089091 0.03341205
v -0.02024959 0.04034778 0.03346846
v -0.02038283 0.04021466 0.03347177
v -0.02038283 0.02941873 0.03349500
v -0.01575045 0.03224884 0.03349500
v -0.01520738 0.03224884 0.03349389
v -0.01520738 0.04124766 0.03337445
v -0.02024959 0.04124766 0.03337445
v -0.02038283 0.04034778 0.03346735
v -0.02038283 0.04111455 0.03338772
v -0.02038283 0.02865197 0.03348394
v -0.01934986 0.02955185 0.03349058
v -0.01665018 0.03135162 0.03349500
v -0.01520738 0.03189474 0.03349058
v -0.01520738 0.04214755 0.03314442
v -0.02024959 0.04214755 0.03314442
v -0.02038283 0.04124766 0.03337335
v -0.02038283 0.02851885 0.03348173
v -0.01575045 0.03135162 0.03348394
v -0.01520738 0.03135162 0.03346956
v -0.01520738 0.04257087 0.03296084
v -0.02038283 0.04214755 0.03314221
v -0.02038283 0.04201709 0.03317649
v -0.02024959 0.04285041 0.03283919
v -0.02038283 0.04284775 0.03283919
v -0.02038283 0.02775209 0.03343970
v -0.01520738 0.03099486 0.03344634
v -0.01520738 0.04285041 0.03283919
v -0.01520738 0.04312198 0.03267883
v -0.02024959 0.04330036 0.03257266
v -0.02038283 0.04323113 0.03261137
v -0.02038283 0.02761897 0.03343086
v -0.01575045 0.03045174 0.03342533
v -0.01520738 0.03045174 0.03338441
v -0.01520738 0.04330036 0.03257266
v -0.02038283 0.04329769 0.03257045
v -0.02024959 0.04387543 0.03212255
v -0.02038283 0.02685220 0.03333022
v -0.02038283 0.02671909 0.03330920
v -0.01520738 0.03009498 0.03332248
v -0.01520738 0.04387543 0.03212255
v -0.02038283 0.04387277 0.03212034
v -0.02024959 0.04432537 0.03171778
v -0.02038283 0.04425615 0.03177639
v -0.02038283 0.02595232 0.03312673
v -0.01520738 0.02955185 0.03319529
v -0.01520738 0.04432537 0.03171778
v -0.02024959 0.04467680 0.03126767
v -0.02038283 0.04432271 0.03171557
v -0.02038283 0.02581920 0.03309134
v -0.01520738 0.02919509 0.03308470
v -0.01520738 0.04467680 0.03126767
v -0.02038283 0.04467414 0.03126546
v -0.01520738 0.04494837 0.03083968
v -0.02024959 0.04512675 0.03055766
v -0.02038283 0.02501250 0.03281486
v -0.01520738 0.02865463 0.03287789
v -0.02038283 0.04505752 0.03065941
v -0.01520738 0.04512675 0.03055766
v -0.02038283 0.04512408 0.03055213
v -0.02024959 0.04534772 0.03010755
v -0.02038283 0.02496990 0.03279606
v -0.01520738 0.02846294 0.03280159
v -0.01520738 0.04534772 0.03010755
v -0.02038283 0.04534506 0.03010202
v -0.02024959 0.04553409 0.02954906
v -0.02038283 0.04550480 0.02962648
v -0.02038283 0.02466906 0.03266224
v -0.01520738 0.02831651 0.03273081
v -0.01520738 0.04553409 0.02954906
v -0.02038283 0.04552877 0.02954906
v -0.01520738 0.04564857 0.02900716
v -0.02024959 0.04572312 0.02864995
v -0.02038283 0.04572045 0.02864995
v -0.02038283 0.02400613 0.03227627
v -0.01520738 0.02822599 0.03268546
v -0.01520738 0.04572312 0.02864995
v -0.01520738 0.04576039 0.02810694
v -0.02024959 0.04578435 0.02775083
v -0.02038283 0.04577104 0.02788243
v -0.02038283 0.02347099 0.03195113
v -0.01520738 0.02771481 0.03234594
v -0.01520738 0.04578435 0.02775083
v -0.02038283 0.04577903 0.02775083
v -0.01520738 0.04578967 0.02720782
v -0.02024959 0.04579234 0.02685061
v -0.02038283 0.04578967 0.02685061
v -0.02038283 0.02301572 0.03158949
v -0.01520738 0.02711578 0.03192348
v -0.01520738 0.02745656 0.03216900
v -0.01520738 0.04579234 0.02685061
v -0.02027644 0.04579234 0.02219798
v -0.02038283 0.04578967 0.02219798
v -0.02038283 0.02287728 0.03146452
v -0.01520738 0.02700662 0.03182505
v -0.01520738 0.04579234 0.02219798
v -0.02038283 0.01859618 0.02219798
v -0.02038283 0.02258442 0.03118804
v -0.01520738 0.02669246 0.03151318
v -0.02038283 0.02253916 0.03114491
v -0.01520738 0.02307429 0.02219798
v -0.01520738 0.02545712 0.02962537
v -0.01520738 0.02554764 0.02989411
v -0.02038283 0.02141031 0.02943183
v -0.01520738 0.02655402 0.03136831
v -0.02038283 0.02212649 0.03069259
v -0.01520738 0.02563816 0.03008544
v -0.02038283 0.02143161 0.02948160
v -0.01520738 0.02628246 0.03105865
v -0.02038283 0.02203863 0.03057204
v -0.01520738 0.02619193 0.03094363
v -0.01520738 0.02588576 0.03050237
v -0.02038283 0.02176440 0.03016727
v -0.02038283 0.02189486 0.03037187
f 1 2 6
f 1 6 3
f 1 3 8
f 1 8 17
f 1 17 9
f 1 9 4
f 1 4 10
f 1 10 18
f 1 18 24
f 1 24 31
f 1 31 38
f 1 38 44
f 1 44 50
f 1 50 55
f 1 55 61
f 1 61 67
f 1 67 73
f 1 73 80
f 1 80 86
f 1 86 94
f 1 94 93
f 1 93 99
f 1 99 103
f 1 103 109
f 1 109 113
f 1 113 115
f 1 115 116
f 1 116 111
f 1 111 107
f 1 107 106
f 1 106 105
f 1 105 100
f 1 100 95
f 1 95 89
f 1 89 87
f 1 87 82
f 1 82 81
f 1 81 76
f 1 76 74
f 1 74 68
f 1 68 63
f 1 63 58
f 1 58 56
f 1 56 51
f 1 51 45
f 1 45 39
f 1 39 33
f 1 33 32
f 1 32 25
f 1 25 19
f 1 19 11
f 1 11 5
f 1 5 2
f 2 5 6
f 3 6 7
f 3 7 13
f 3 13 14
f 3 14 21
f 3 21 27
f 3 27 26
f 3 26 29
f 3 29 35
f 3 35 40
f 3 40 46
f 3 46 48
f 3 48 53
f 3 53 57
f 3 57 62
f 3 62 64
f 3 64 69
f 3 69 71
f 3 71 75
f 3 75 78
f 3 78 84
f 3 84 88
f 3 88 91
f 3 91 97
f 3 97 101
f 3 101 108
f 3 108 112
f 3 112 117
f 3 117 118
f 3 118 114
f 3 114 110
f 3 110 104
f 3 104 102
f 3 102 98
f 3 98 92
f 3 92 85
f 3 85 79
f 3 79 72
f 3 72 66
f 3 66 60
f 3 60 54
f 3 54 49
f 3 49 43
f 3 43 42
f 3 42 36
f 3 36 30
f 3 30 22
f 3 22 15
f 3 15 8
f 4 9 10
f 5 11 12
f 5 12 6
f 6 13 7
f 6 12 14
f 6 14 13
f 8 15 16
f 8 16 17
f 9 17 10
f 10 17 18
f 11 19 20
f 11 20 12
f 12 20 21
f 12 21 14
f 15 22 16
f 16 22 18
f 16 18 17
f 18 22 23
f 18 23 24
f 19 25 20
f 20 26 27
f 20 27 21
f 20 25 28
f 20 28 29
f 20 29 26
f 22 30 24
f 22 24 23
f 24 30 31
f 25 32 28
f 28 32 33
f 28 33 34
f 28 34 29
f 29 34 35
f 30 36 31
f 31 36 37
f 31 37 38
f 33 39 34
f 34 40 35
f 34 39 45
f 34 45 41
f 34 41 46
f 34 46 40
f 36 42 38
f 36 38 37
f 38 42 43
f 38 43 44
f 41 45 51
f 41 51 47
f 41 47 48
f 41 48 46
f 43 49 50
f 43 50 44
f 47 51 56
f 47 56 52
f 47 52 57
f 47 57 53
f 47 53 48
f 49 54 50
f 50 54 55
f 52 56 58
f 52 58 59
f 52 59 57
f 54 60 55
f 55 60 61
f 57 59 62
f 58 63 59
f 59 64 62
f 59 63 68
f 59 68 65
f 59 65 69
f 59 69 64
f 60 66 67
f 60 67 61
f 65 68 74
f 65 74 70
f 65 70 71
f 65 71 69
f 66 72 67
f 67 72 73
f 70 75 71
f 70 74 76
f 70 76 77
f 70 77 78
f 70 78 75
f 72 79 80
f 72 80 73
f 76 81 77
f 77 81 82
f 77 82 83
f 77 83 78
f 78 83 84
f 79 85 80
f 80 85 86
f 82 87 83
f 83 88 84
f 83 87 89
f 83 89 90
f 83 90 91
f 83 91 88
f 85 92 93
f 85 93 94
f 85 94 86
f 89 95 90
f 90 95 100
f 90 100 96
f 90 96 91
f 91 96 97
f 92 98 99
f 92 99 93
f 96 100 105
f 96 105 101
f 96 101 97
f 98 102 99
f 99 102 104
f 99 104 103
f 101 105 106
f 101 106 107
f 101 107 108
f 103 104 109
f 104 110 109
f 107 111 112
f 107 112 108
f 109 110 113
f 110 114 115
f 110 115 113
f 111 116 117
f 111 117 112
f 114 118 115
f 115 118 116
f 116 118 117

