# https://github.com/mikedh/trimesh
v -0.02158967 -0.01599751 0.02137546
v -0.01737346 -0.02042176 0.02137546
v -0.01737346 -0.01227894 0.01279298
v -0.02158760 -0.01227894 0.01735931
v -0.02158967 -0.01228216 0.01736359
v -0.02158967 -0.04513056 0.02137546
v -0.01737346 -0.04519500 0.02137546
v -0.01737346 -0.01227894 -0.00049500
v -0.02158967 -0.01227894 0.01735503
v -0.02158967 -0.04513056 0.01244831
v -0.02114972 -0.04516600 0.02137546
v -0.02024961 -0.04519500 0.02137546
v -0.01737346 -0.04519500 0.00075095
v -0.02158967 -0.01227894 -0.00049500
v -0.01737346 -0.04334861 -0.00049500
v -0.02158967 -0.04512411 0.00435178
v -0.02114972 -0.04515956 0.00075095
v -0.02114972 -0.04516600 0.01154917
v -0.02024961 -0.04519500 0.00075095
v -0.01737346 -0.04494688 -0.00007112
v -0.02158967 -0.04334861 -0.00049500
v -0.01737346 -0.04424764 -0.00046717
v -0.02158967 -0.04512089 0.00075095
v -0.02158967 -0.04502744 0.00036346
v -0.02114972 -0.04492755 -0.00006256
v -0.02024961 -0.04494688 -0.00007112
v -0.01737346 -0.04438620 -0.00039010
v -0.02024961 -0.04424764 -0.00046717
v -0.02158967 -0.04380940 -0.00047787
v -0.02158967 -0.04490821 -0.00005185
v -0.02158967 -0.04459565 -0.00024667
v -0.02114972 -0.04424764 -0.00046075
v -0.02158967 -0.04424764 -0.00045004
f 1 2 3
f 1 3 4
f 1 4 5
f 1 5 9
f 1 9 14
f 1 14 21
f 1 21 29
f 1 29 33
f 1 33 31
f 1 31 30
f 1 30 24
f 1 24 23
f 1 23 16
f 1 16 10
f 1 10 6
f 1 6 11
f 1 11 12
f 1 12 7
f 1 7 2
f 2 7 13
f 2 13 20
f 2 20 27
f 2 27 22
f 2 22 15
f 2 15 8
f 2 8 3
f 3 8 14
f 3 14 9
f 3 9 4
f 4 9 5
f 6 10 18
f 6 18 11
f 7 12 19
f 7 19 13
f 8 15 21
f 8 21 14
f 10 16 17
f 10 17 18
f 11 18 19
f 11 19 12
f 13 19 26
f 13 26 20
f 15 22 28
f 15 28 21
f 16 23 17
f 17 23 24
f 17 24 25
f 17 25 19
f 17 19 18
f 19 25 26
f 20 26 27
f 21 28 29
f 22 27 28
f 24 30 25
f 25 30 31
f 25 31 32
f 25 32 26
f 26 32 28
f 26 28 27
f 28 32 29
f 29 32 33
f 31 33 32

