# https://github.com/mikedh/trimesh
v 0.04549500 0.00030730 0.02235818
v 0.04549500 0.00030730 0.01513929
v 0.02746340 0.00030730 0.02235818
v 0.04549500 -0.01184905 0.02235818
v 0.04549500 -0.01185381 0.01513929
v 0.02342562 0.00030730 0.01513929
v 0.02001632 -0.01185381 0.01513929
v 0.02461276 -0.01185381 0.02235818
v 0.04544263 -0.01185381 0.02235818
v 0.04549500 -0.01185381 0.02234899
f 1 2 6
f 1 6 3
f 1 3 8
f 1 8 9
f 1 9 4
f 1 4 10
f 1 10 5
f 1 5 2
f 2 5 7
f 2 7 6
f 3 6 7
f 3 7 8
f 4 9 10
f 5 10 9
f 5 9 8
f 5 8 7

