# https://github.com/mikedh/trimesh
v 0.02303749 -0.04493728 0.02324743
v 0.02368824 -0.04477860 0.02054912
v 0.02368604 -0.04477536 0.02684739
v 0.02303749 -0.04493404 0.02695718
v 0.02303749 -0.04493404 0.01165902
v 0.02367725 -0.04478184 0.01245088
v 0.02367725 -0.04478184 0.01335253
v 0.02413893 -0.04465230 0.02414908
v 0.02413673 -0.04465230 0.02684739
v 0.02411694 -0.04464907 0.02774904
v 0.02366625 -0.04476888 0.02774904
v 0.02303749 -0.04492433 0.02774904
v 0.02303749 -0.04492109 0.00165100
v 0.02367505 -0.04478184 0.01155255
v 0.02413673 -0.04465230 0.01964747
v 0.02413893 -0.04465230 0.02144745
v 0.02475011 -0.04442562 0.02684739
v 0.02475011 -0.04441591 0.02774904
v 0.02475011 -0.04434466 0.02864737
v 0.02400042 -0.04461345 0.02864737
v 0.02354973 -0.04473650 0.02864737
v 0.02303749 -0.04486280 0.02864737
v 0.02303749 -0.04491785 0.00075268
v 0.02364427 -0.04477212 0.00075268
v 0.02365086 -0.04477536 0.00345098
v 0.02366186 -0.04477860 0.00705094
v 0.02412574 -0.04464583 0.01155255
v 0.02413013 -0.04464907 0.01515251
v 0.02475011 -0.04442562 0.01964747
v 0.02475011 -0.04441267 0.00885092
v 0.02561851 -0.04402083 0.02594906
v 0.02561631 -0.04402083 0.02684739
v 0.02560752 -0.04401759 0.02774904
v 0.02562510 -0.04402083 0.01784749
v 0.02562290 -0.04402083 0.02054912
v 0.02554376 -0.04397873 0.02864737
v 0.02343541 -0.04470736 0.02912647
v 0.02539426 -0.04389777 0.02938932
v 0.02483585 -0.04406617 0.02963220
v 0.02303749 -0.04485308 0.02873387
v 0.02356292 -0.04474622 0.00018041
v 0.02303749 -0.04480774 0.00006396
v 0.02409496 -0.04463612 0.00075268
v 0.02410155 -0.04463935 0.00345098
v 0.02411254 -0.04464259 0.00705094
v 0.02475011 -0.04440619 0.00435263
v 0.02561191 -0.04401759 0.00705094
v 0.02562290 -0.04402083 0.01425086
v 0.02562510 -0.04402083 0.01515251
v 0.02606920 -0.04378119 0.02504741
v 0.02607579 -0.04378443 0.01694916
v 0.02607359 -0.04378443 0.01874914
v 0.02606700 -0.04377795 0.02684739
v 0.02605601 -0.04377148 0.02774904
v 0.02599225 -0.04373585 0.02864737
v 0.02378058 -0.04449039 0.02947582
v 0.02303749 -0.04460697 0.02972868
v 0.02303749 -0.04475593 0.02927619
v 0.02706291 -0.04294570 0.02922961
v 0.02658144 -0.04314648 0.02953571
v 0.02567567 -0.04365813 0.02963220
v 0.02519200 -0.04379414 0.02998820
v 0.02459181 -0.04392044 0.03022443
v 0.02475011 -0.04439972 0.00075268
v 0.02475011 -0.04409855 -0.00006580
v 0.02546681 -0.04393987 0.00007394
v 0.02303749 -0.04425399 -0.00032532
v 0.02560312 -0.04401435 0.00255265
v 0.02607359 -0.04378443 0.01425086
v 0.02607579 -0.04378443 0.01515251
v 0.02655066 -0.04347679 0.02504741
v 0.02655066 -0.04347355 0.02684739
v 0.02655066 -0.04346383 0.02774904
v 0.02655066 -0.04338935 0.02864737
v 0.02386192 -0.04403054 0.03049393
v 0.02303749 -0.04456487 0.02982850
v 0.02800606 -0.04209401 0.02933941
v 0.02746743 -0.04245995 0.02958229
v 0.02690022 -0.04282588 0.02982850
v 0.02713106 -0.04300075 0.02864737
v 0.02758175 -0.04262510 0.02864737
v 0.02809620 -0.04217497 0.02864737
v 0.02630224 -0.04302666 0.03022110
v 0.02569106 -0.04323067 0.03049060
v 0.02541844 -0.04302666 0.03105621
v 0.02483585 -0.04366461 0.03049393
v 0.02416971 -0.04375528 0.03082331
v 0.02560092 -0.04401111 0.00075268
v 0.02475011 -0.04334725 -0.00046506
v 0.02571964 -0.04342821 -0.00015231
v 0.02655066 -0.04317886 -0.00002255
v 0.02711347 -0.04299104 0.00013383
v 0.02604941 -0.04377148 0.00075268
v 0.02303749 -0.04334725 -0.00049167
v 0.02385093 -0.04334725 -0.00049167
v 0.02605381 -0.04377471 0.00345098
v 0.02655066 -0.04346059 0.00165100
v 0.02655066 -0.04346383 0.00345098
v 0.02655066 -0.04347679 0.01425086
v 0.02718603 -0.04304285 0.02684739
v 0.02717943 -0.04303637 0.02774904
v 0.02357172 -0.04385244 0.03097636
v 0.02303749 -0.04424427 0.03052054
v 0.02303749 -0.04427990 0.03045400
v 0.02854689 -0.04174751 0.02864737
v 0.02890964 -0.04120671 0.02935272
v 0.02839299 -0.04158883 0.02964551
v 0.02787195 -0.04197096 0.02993829
v 0.02723439 -0.04219440 0.03044735
v 0.02658144 -0.04266396 0.03049060
v 0.02762792 -0.04266396 0.02774904
v 0.02814017 -0.04221383 0.02774904
v 0.02858866 -0.04179285 0.02774904
v 0.02601863 -0.04284855 0.03081998
v 0.02573942 -0.04250205 0.03141554
v 0.02490620 -0.04275788 0.03165842
v 0.02466437 -0.04313029 0.03135233
v 0.02386192 -0.04348326 0.03130575
v 0.02745204 -0.04154997 -0.00045840
v 0.02655066 -0.04244699 -0.00041848
v 0.02565148 -0.04244699 -0.00049167
v 0.02742786 -0.04244699 -0.00008909
v 0.02814676 -0.04221707 0.00075268
v 0.02761913 -0.04266720 0.00075268
v 0.02716844 -0.04303637 0.00075268
v 0.02655066 -0.04345736 0.00075268
v 0.02806322 -0.04214259 0.00008392
v 0.02303749 -0.01185761 -0.00049167
v 0.02717064 -0.04303637 0.00165100
v 0.02717503 -0.04303961 0.00705094
v 0.02718163 -0.04304285 0.01694916
v 0.02718383 -0.04304285 0.01964747
v 0.02718603 -0.04304285 0.02414908
v 0.02763671 -0.04267044 0.02684739
v 0.02303749 -0.04356422 0.03151535
v 0.02303749 -0.04392368 0.03106952
v 0.02900198 -0.04129738 0.02864737
v 0.03035184 -0.03995023 0.02864737
v 0.03071020 -0.03940943 0.02935272
v 0.02877993 -0.04107718 0.02995160
v 0.02816215 -0.04135567 0.03044735
v 0.02768288 -0.04180580 0.03044735
v 0.02704093 -0.04203249 0.03093643
v 0.02814676 -0.04222031 0.02684739
v 0.02859745 -0.04179933 0.02684739
v 0.02904375 -0.04134272 0.02774904
v 0.02655066 -0.04221059 0.03113606
v 0.02606040 -0.04197096 0.03177487
v 0.02546021 -0.04215878 0.03192792
v 0.02430601 -0.04290036 0.03180149
v 0.02385093 -0.04298456 0.03188134
v 0.02303749 -0.04351888 0.03156859
v 0.02835122 -0.04064971 -0.00046173
v 0.02926140 -0.04065943 -0.00012569
v 0.02836002 -0.04155969 -0.00012236
v 0.02655066 -0.04154997 -0.00049167
v 0.02859526 -0.04179933 0.00075268
v 0.02859745 -0.04179933 0.00255265
v 0.02814676 -0.04222031 0.00525096
v 0.02762352 -0.04267044 0.00525096
v 0.02896680 -0.04126500 0.00007727
v 0.04364827 -0.01185761 -0.00049167
v 0.02303749 -0.01185761 0.01927816
v 0.02763452 -0.04267044 0.02144745
v 0.02762792 -0.04267044 0.01065090
v 0.02763012 -0.04267044 0.01335253
v 0.02763232 -0.04267044 0.01694916
v 0.02763671 -0.04267044 0.02594906
v 0.03215240 -0.03814971 0.02864737
v 0.03161157 -0.03850917 0.02935272
v 0.02994512 -0.04044246 0.02774904
v 0.03058048 -0.03927666 0.02995160
v 0.03176327 -0.03776111 0.03044735
v 0.02906353 -0.04045865 0.03044735
v 0.02861284 -0.04090878 0.03044735
v 0.02797089 -0.04116785 0.03096970
v 0.02733992 -0.04144959 0.03125251
v 0.02704093 -0.04113223 0.03182478
v 0.02655066 -0.04177990 0.03158522
v 0.02905034 -0.04134920 0.02684739
v 0.02655066 -0.04132977 0.03196119
v 0.02564269 -0.04154350 0.03225731
v 0.02475011 -0.04170218 0.03252348
v 0.02466437 -0.04245347 0.03201775
v 0.02378717 -0.04236927 0.03236710
v 0.02303749 -0.04251824 0.03244363
v 0.02303749 -0.04311086 0.03199114
v 0.03015178 -0.03884920 -0.00046173
v 0.02745204 -0.04064971 -0.00049167
v 0.03106195 -0.03885891 -0.00012569
v 0.02986818 -0.04036474 0.00007727
v 0.02905034 -0.04134920 0.00075268
v 0.04454965 -0.01185761 -0.00046838
v 0.04364827 -0.02355126 -0.00049167
v 0.02303749 -0.01801370 0.02972203
v 0.02693980 -0.01185761 0.03009134
v 0.04159929 -0.02870023 0.02864737
v 0.03984270 -0.03054284 0.02774904
v 0.04150915 -0.02860632 0.02935272
v 0.04047806 -0.02937704 0.02995160
v 0.03777832 -0.03207782 0.02995160
v 0.04029998 -0.03009919 0.02684739
v 0.02995172 -0.04044893 0.02684739
v 0.04121016 -0.02831163 0.03044735
v 0.03157200 -0.03757005 0.03096970
v 0.02887226 -0.04026759 0.03096970
v 0.02854689 -0.03994376 0.03156859
v 0.02763891 -0.04084401 0.03156859
v 0.02794670 -0.04024168 0.03183143
v 0.02738389 -0.04058495 0.03195786
v 0.02652209 -0.04061409 0.03241368
v 0.02582516 -0.04089259 0.03259002
v 0.02522498 -0.04111280 0.03270647
v 0.02475011 -0.04125205 0.03277634
v 0.02404439 -0.04189000 0.03263660
v 0.02344421 -0.04201629 0.03270980
v 0.02303749 -0.04244376 0.03249686
v 0.04094854 -0.02805256 -0.00046173
v 0.04184991 -0.02625204 -0.00049167
v 0.04095953 -0.02895930 -0.00012569
v 0.03886657 -0.03136538 0.00007727
v 0.03166873 -0.03856422 0.00007727
v 0.02995172 -0.04044893 0.00075268
v 0.04454965 -0.01995023 -0.00046838
v 0.04524658 -0.01185761 -0.00006913
v 0.04274910 -0.02535178 -0.00049167
v 0.04454965 -0.02085049 -0.00046173
v 0.04454965 -0.02175075 -0.00043844
v 0.04364827 -0.02445152 -0.00046506
v 0.02303749 -0.01833753 0.03022110
v 0.02303749 -0.01846383 0.03039411
v 0.02303749 -0.01871642 0.03068690
v 0.02711347 -0.01185761 0.03041075
v 0.04204998 -0.02824686 0.02864737
v 0.04119257 -0.02919246 0.02774904
v 0.04164106 -0.02874233 0.02774904
v 0.04239514 -0.02770606 0.02933941
v 0.04188949 -0.02809466 0.02964551
v 0.04137724 -0.02847678 0.02995160
v 0.04164985 -0.02874880 0.02684739
v 0.04029998 -0.03009919 0.00075268
v 0.04165425 -0.02786150 0.03044735
v 0.04146738 -0.02767044 0.03096970
v 0.04085620 -0.02795865 0.03126915
v 0.04024282 -0.02824686 0.03156859
v 0.04054402 -0.02764777 0.03183143
v 0.02884588 -0.03934466 0.03183143
v 0.02828747 -0.03968469 0.03196119
v 0.02742566 -0.03972355 0.03242699
v 0.02680349 -0.04000528 0.03260666
v 0.02620330 -0.04029026 0.03274307
v 0.02557454 -0.04061409 0.03280628
v 0.02475011 -0.04064971 0.03301257
v 0.02378717 -0.04157264 0.03284621
v 0.02303749 -0.04207135 0.03274307
v 0.02303749 -0.04154997 0.03296931
v 0.04184991 -0.02715230 -0.00045840
v 0.04185871 -0.02805904 -0.00012236
v 0.04156631 -0.02866461 0.00007727
v 0.04524658 -0.01995023 -0.00006913
v 0.04549280 -0.01185761 0.00075268
v 0.04522899 -0.02085049 -0.00006247
v 0.04518941 -0.02175075 -0.00003918
v 0.04454965 -0.02265101 -0.00035193
v 0.04439796 -0.02445152 -0.00006580
v 0.04372742 -0.02541979 -0.00015231
v 0.04274910 -0.02625204 -0.00041848
v 0.02303749 -0.01912121 0.03110279
v 0.02716844 -0.01185761 0.03050391
v 0.04247648 -0.02779673 0.02864737
v 0.04209175 -0.02828896 0.02774904
v 0.04324815 -0.02676370 0.02922961
v 0.04276229 -0.02716849 0.02958229
v 0.04227202 -0.02757329 0.02993829
v 0.04209834 -0.02829544 0.02684739
v 0.04164985 -0.02874880 0.00075268
v 0.04210494 -0.02738546 0.03044735
v 0.04233138 -0.02674103 0.03093643
v 0.04175098 -0.02704220 0.03125251
v 0.04143440 -0.02674103 0.03182478
v 0.04114420 -0.02734013 0.03156859
v 0.04088478 -0.02708430 0.03195786
v 0.03998560 -0.02798779 0.03196119
v 0.03278776 -0.03518663 0.03196119
v 0.02918884 -0.03878443 0.03196119
v 0.03912380 -0.02802665 0.03242699
v 0.03400792 -0.03280645 0.03260666
v 0.02860845 -0.03820477 0.03260666
v 0.02770707 -0.03910502 0.03260666
v 0.02710688 -0.03940619 0.03274307
v 0.02652209 -0.03972355 0.03283290
v 0.02565148 -0.03974945 0.03308576
v 0.02475011 -0.03974945 0.03326876
v 0.02385093 -0.04064971 0.03318558
v 0.02303749 -0.04146254 0.03300258
v 0.04274690 -0.02712963 -0.00008909
v 0.04244351 -0.02776435 0.00008392
v 0.04209834 -0.02829544 0.00075268
v 0.04549280 -0.01995023 0.00075268
v 0.04549280 -0.01185761 0.02684739
v 0.04545983 -0.02085049 0.00075268
v 0.04538068 -0.02175075 0.00075268
v 0.04511906 -0.02265101 0.00004732
v 0.04504871 -0.02326305 0.00018041
v 0.04423967 -0.02516720 0.00007394
v 0.04347899 -0.02625204 -0.00002255
v 0.02764991 -0.01185761 0.03119928
v 0.02303749 -0.01970735 0.03158522
v 0.04292717 -0.02728183 0.02864737
v 0.04251605 -0.02783883 0.02774904
v 0.04296455 -0.02732717 0.02774904
v 0.04419790 -0.02509271 0.02938932
v 0.04344821 -0.02628119 0.02953571
v 0.04312723 -0.02660178 0.02982850
v 0.04330091 -0.02683171 0.02864737
v 0.04369005 -0.02625204 0.02864737
v 0.04403741 -0.02569505 0.02864737
v 0.04249627 -0.02693533 0.03044735
v 0.04252045 -0.02784531 0.02684739
v 0.04296675 -0.02628119 0.03049060
v 0.04314922 -0.02572095 0.03081998
v 0.04251166 -0.02625204 0.03113606
v 0.04208076 -0.02625204 0.03158522
v 0.04227202 -0.02575981 0.03177487
v 0.04163007 -0.02625204 0.03196119
v 0.04091556 -0.02622290 0.03241368
v 0.04002297 -0.02712639 0.03242699
v 0.03850602 -0.02830839 0.03260666
v 0.03970639 -0.02680904 0.03274307
v 0.02800826 -0.03850593 0.03274307
v 0.02742566 -0.03882329 0.03283623
v 0.02655066 -0.03884920 0.03309574
v 0.02565148 -0.03884920 0.03329537
v 0.02475011 -0.03884920 0.03341182
v 0.02385093 -0.03974945 0.03337855
v 0.02303749 -0.04056228 0.03329204
v 0.02303749 -0.04064971 0.03327208
v 0.04328992 -0.02681228 0.00013383
v 0.04251605 -0.02784531 0.00075268
v 0.04252045 -0.02784531 0.02414908
v 0.04546642 -0.02085049 0.01335253
v 0.04546423 -0.02085049 0.00885092
v 0.04546203 -0.02085049 0.00435263
v 0.04549280 -0.01995023 0.02684739
v 0.04548401 -0.01185761 0.02774904
v 0.04538288 -0.02175075 0.00255265
v 0.04539607 -0.02175075 0.01694916
v 0.04539387 -0.02175075 0.01335253
v 0.04539167 -0.02175075 0.01065090
v 0.04524218 -0.02265101 0.00165100
v 0.04523998 -0.02265101 0.00075268
v 0.04524438 -0.02265101 0.00255265
v 0.04507289 -0.02334401 0.00075268
v 0.04493659 -0.02379414 0.00075268
v 0.04469915 -0.02445152 0.00075268
v 0.04431222 -0.02529997 0.00075268
v 0.04407258 -0.02575010 0.00075268
v 0.02303749 -0.01977536 0.03163846
v 0.02804124 -0.01185761 0.03164844
v 0.04297114 -0.02733365 0.02684739
v 0.04333829 -0.02687704 0.02774904
v 0.04427924 -0.02524492 0.02864737
v 0.04464419 -0.02445152 0.02864737
v 0.04436498 -0.02453572 0.02963220
v 0.04409457 -0.02489194 0.02998820
v 0.04395826 -0.02537769 0.02963220
v 0.04332730 -0.02600269 0.03022110
v 0.04376260 -0.02625204 0.02774904
v 0.04407258 -0.02575658 0.02774904
v 0.04431662 -0.02530645 0.02774904
v 0.04352956 -0.02539388 0.03049060
v 0.04332510 -0.02511862 0.03105621
v 0.04280406 -0.02543922 0.03141554
v 0.04305688 -0.02460696 0.03165842
v 0.04245890 -0.02516072 0.03192459
v 0.04184332 -0.02534207 0.03225731
v 0.04119257 -0.02552342 0.03259002
v 0.04059238 -0.02590554 0.03274307
v 0.04030658 -0.02650463 0.03260666
v 0.03940520 -0.02740813 0.03260666
v 0.04002297 -0.02622290 0.03283290
v 0.03912380 -0.02712639 0.03283623
v 0.03734962 -0.02805256 0.03309574
v 0.02745204 -0.03794894 0.03309574
v 0.03734962 -0.02715230 0.03329537
v 0.03554906 -0.02805256 0.03341515
v 0.02565148 -0.03794894 0.03341515
v 0.02475011 -0.03794894 0.03347171
v 0.02385093 -0.03884920 0.03346506
v 0.02303749 -0.03974945 0.03343179
v 0.04375820 -0.02625204 0.00075268
v 0.04333609 -0.02686733 0.00075268
v 0.04296675 -0.02731746 0.00075268
v 0.04297114 -0.02733365 0.02594906
v 0.04546642 -0.02085049 0.02684739
v 0.04539827 -0.02175075 0.02054912
v 0.04548401 -0.01995023 0.02774904
v 0.04542025 -0.01185761 0.02864737
v 0.04542245 -0.01455191 0.02864737
v 0.04542465 -0.01905321 0.02864737
v 0.04525537 -0.02265101 0.01155255
v 0.04507509 -0.02335049 0.00255265
v 0.04508169 -0.02337639 0.01155255
v 0.04470355 -0.02445152 0.00255265
v 0.04470135 -0.02445152 0.00165100
v 0.04494098 -0.02380709 0.00525096
v 0.04431442 -0.02530321 0.00255265
v 0.04376040 -0.02625204 0.00165100
v 0.04407478 -0.02575658 0.00345098
v 0.02303749 -0.02018663 0.03192459
v 0.02849193 -0.01185761 0.03205102
v 0.04334268 -0.02688352 0.02684739
v 0.04377359 -0.02625204 0.02684739
v 0.04471674 -0.02445152 0.02774904
v 0.04491460 -0.02370023 0.02864737
v 0.04500694 -0.02313676 0.02912647
v 0.04479149 -0.02348326 0.02947582
v 0.04494758 -0.02381681 0.02774904
v 0.04421988 -0.02429284 0.03022443
v 0.04396705 -0.02453572 0.03049393
v 0.04407918 -0.02576629 0.02684739
v 0.04432321 -0.02531940 0.02684739
v 0.04343063 -0.02436409 0.03135233
v 0.04405499 -0.02387186 0.03082331
v 0.04320198 -0.02400787 0.03180149
v 0.04275349 -0.02436409 0.03201775
v 0.04200381 -0.02445152 0.03252348
v 0.04141462 -0.02492432 0.03270647
v 0.04091556 -0.02527406 0.03280628
v 0.04004936 -0.02535178 0.03308576
v 0.03914798 -0.02625204 0.03309574
v 0.03914798 -0.02535178 0.03329537
v 0.03734962 -0.02625204 0.03341515
v 0.03464988 -0.02805256 0.03347504
v 0.02565148 -0.03704868 0.03347504
v 0.02385093 -0.03794894 0.03349167
v 0.02303749 -0.03876176 0.03348835
v 0.02303749 -0.03884920 0.03348502
v 0.02303749 -0.03966202 0.03343844
v 0.04377579 -0.02625204 0.01605084
v 0.04334268 -0.02688352 0.02414908
v 0.04545543 -0.02085049 0.02774904
v 0.04538947 -0.02175075 0.02774904
v 0.04539827 -0.02175075 0.02684739
v 0.04525757 -0.02265101 0.01605084
v 0.04542465 -0.01995023 0.02864737
v 0.04522899 -0.01185761 0.02954902
v 0.04523118 -0.01275139 0.02954902
v 0.04523338 -0.01635243 0.02954902
v 0.04494538 -0.02382328 0.01065090
v 0.04494758 -0.02382976 0.01335253
v 0.04508169 -0.02337963 0.01335253
v 0.04495417 -0.02383948 0.02234910
v 0.04495198 -0.02383624 0.01874914
v 0.04470794 -0.02445152 0.00525096
v 0.04431662 -0.02530968 0.00525096
v 0.04408358 -0.02577277 0.01335253
v 0.04408577 -0.02577601 0.01605084
v 0.02303749 -0.02061085 0.03215749
v 0.02303749 -0.02147225 0.03260998
v 0.02910970 -0.01185761 0.03250019
v 0.04377579 -0.02625204 0.02234910
v 0.04408138 -0.02576953 0.02504741
v 0.04408358 -0.02577601 0.01874914
v 0.04472553 -0.02445152 0.02684739
v 0.04495417 -0.02383624 0.02684739
v 0.04503772 -0.02325010 0.02864737
v 0.04506630 -0.02265101 0.02930947
v 0.04492120 -0.02265101 0.02975863
v 0.04518502 -0.02265101 0.02864737
v 0.04433200 -0.02356422 0.03049393
v 0.04507069 -0.02336668 0.02774904
v 0.04432321 -0.02532264 0.02234910
v 0.04378238 -0.02356422 0.03130575
v 0.04415393 -0.02327277 0.03097636
v 0.04328553 -0.02355126 0.03188134
v 0.04266995 -0.02348650 0.03236710
v 0.04218848 -0.02374556 0.03263660
v 0.04155312 -0.02445152 0.03277634
v 0.04094854 -0.02445152 0.03301257
v 0.04004936 -0.02445152 0.03326876
v 0.03914798 -0.02445152 0.03341182
v 0.03824880 -0.02535178 0.03341515
v 0.03734962 -0.02535178 0.03347504
v 0.03375070 -0.02805256 0.03349167
v 0.02303749 -0.03794894 0.03349167
v 0.04539607 -0.02085049 0.02864737
v 0.04524658 -0.02265101 0.02774904
v 0.04532792 -0.02175075 0.02864737
v 0.04525537 -0.02265101 0.02684739
v 0.04525757 -0.02265101 0.02594906
v 0.04523338 -0.01995023 0.02954902
v 0.04504651 -0.01185761 0.03010465
v 0.04507949 -0.02338611 0.01874914
v 0.04495417 -0.02383948 0.02504741
v 0.04472553 -0.02445152 0.01964747
v 0.04472334 -0.02445152 0.01784749
v 0.04431881 -0.02531940 0.01065090
v 0.04432101 -0.02532588 0.01515251
v 0.04432321 -0.02532264 0.01964747
v 0.02303749 -0.02184142 0.03276636
v 0.02955819 -0.01185761 0.03277634
v 0.04507729 -0.02338935 0.02414908
v 0.04507509 -0.02338611 0.02684739
v 0.04511906 -0.02174103 0.02960891
v 0.04498276 -0.02203572 0.02994828
v 0.04460681 -0.02265101 0.03044735
v 0.04387472 -0.02265101 0.03153532
v 0.04423527 -0.02265101 0.03108616
v 0.04342403 -0.02265101 0.03200112
v 0.04283484 -0.02265101 0.03245361
v 0.04231599 -0.02314323 0.03270980
v 0.04187190 -0.02348650 0.03284621
v 0.04094854 -0.02355126 0.03318558
v 0.04004936 -0.02355126 0.03337855
v 0.04004936 -0.02265101 0.03343844
v 0.03914798 -0.02355126 0.03346506
v 0.03824880 -0.02445152 0.03347171
v 0.03824880 -0.02355126 0.03349167
v 0.03734962 -0.02445152 0.03349167
v 0.02303749 -0.02706487 0.03349167
v 0.04520480 -0.02085049 0.02954902
v 0.04504651 -0.01995023 0.03010465
v 0.04503332 -0.02085049 0.03007471
v 0.04482666 -0.01185761 0.03055381
v 0.04482666 -0.01275139 0.03055714
v 0.02303749 -0.02256681 0.03300258
v 0.03015178 -0.01185761 0.03302255
v 0.04501134 -0.02143663 0.03002813
v 0.04480248 -0.02174103 0.03037415
v 0.04396046 -0.02175075 0.03164179
v 0.04431662 -0.02175075 0.03119262
v 0.04351197 -0.02175075 0.03207431
v 0.04293377 -0.02175075 0.03252348
v 0.04238415 -0.02265101 0.03274972
v 0.04184991 -0.02265101 0.03298262
v 0.04094854 -0.02265101 0.03328206
v 0.04004936 -0.02175075 0.03345840
v 0.04094854 -0.02175075 0.03333530
v 0.04094854 -0.02085049 0.03336524
v 0.03914798 -0.02265101 0.03348502
v 0.03914798 -0.02175075 0.03349167
v 0.03285152 -0.01275139 0.03349167
v 0.02303749 -0.02616785 0.03348835
v 0.04482666 -0.01995023 0.03055714
v 0.04480907 -0.02085049 0.03052387
v 0.04437597 -0.01185761 0.03126582
v 0.02303749 -0.02346707 0.03323548
v 0.03105096 -0.01185761 0.03329204
v 0.04400883 -0.02085049 0.03169835
v 0.04436058 -0.02085049 0.03124918
v 0.04356034 -0.02085049 0.03211091
v 0.04298653 -0.02085049 0.03256008
v 0.04248308 -0.02175075 0.03280296
v 0.04184991 -0.02175075 0.03307911
v 0.04094854 -0.01995023 0.03337522
v 0.04004936 -0.02085049 0.03346506
v 0.04184991 -0.02085049 0.03312902
v 0.04184991 -0.01995023 0.03314232
v 0.03914798 -0.01185761 0.03349167
v 0.04004936 -0.01995023 0.03346838
v 0.03375070 -0.01185761 0.03349167
v 0.03285152 -0.01185761 0.03348835
v 0.02303749 -0.02535178 0.03346173
v 0.04437597 -0.01995023 0.03126582
v 0.04402422 -0.01185761 0.03171498
v 0.04402422 -0.01275139 0.03171831
v 0.04402641 -0.01635243 0.03171831
v 0.02303749 -0.02436733 0.03338188
v 0.03195014 -0.01185761 0.03343844
v 0.04402641 -0.01995023 0.03171831
v 0.04357573 -0.01995023 0.03212089
v 0.04300192 -0.01995023 0.03257006
v 0.04253584 -0.02085049 0.03283290
v 0.04094854 -0.01185761 0.03337522
v 0.04255123 -0.01995023 0.03283955
v 0.04184991 -0.01545217 0.03314232
v 0.04004936 -0.01185761 0.03346838
v 0.02303749 -0.02526759 0.03345840
v 0.04357353 -0.01185761 0.03212089
v 0.04357573 -0.01275139 0.03212089
v 0.04300192 -0.01905321 0.03257006
v 0.04184991 -0.01185761 0.03313900
v 0.04255123 -0.01815295 0.03283955
v 0.04299533 -0.01185761 0.03257006
v 0.04299752 -0.01275139 0.03257006
v 0.04299972 -0.01545217 0.03257006
v 0.04254684 -0.01365165 0.03283623
v 0.04254684 -0.01185761 0.03283290
v 0.04254903 -0.01455191 0.03283623
f 1 2 3
f 1 3 4
f 1 4 12
f 1 12 22
f 1 22 40
f 1 40 58
f 1 58 57
f 1 57 76
f 1 76 104
f 1 104 103
f 1 103 136
f 1 136 135
f 1 135 152
f 1 152 187
f 1 187 186
f 1 186 217
f 1 217 255
f 1 255 256
f 1 256 295
f 1 295 337
f 1 337 336
f 1 336 390
f 1 390 439
f 1 439 438
f 1 438 437
f 1 437 486
f 1 486 521
f 1 521 544
f 1 544 564
f 1 564 579
f 1 579 569
f 1 569 548
f 1 548 527
f 1 527 501
f 1 501 460
f 1 460 459
f 1 459 410
f 1 410 358
f 1 358 308
f 1 308 268
f 1 268 232
f 1 232 231
f 1 231 230
f 1 230 195
f 1 195 163
f 1 163 128
f 1 128 94
f 1 94 67
f 1 67 42
f 1 42 23
f 1 23 13
f 1 13 5
f 1 5 6
f 1 6 7
f 1 7 2
f 2 8 9
f 2 9 3
f 2 7 8
f 3 9 10
f 3 10 11
f 3 11 12
f 3 12 4
f 5 13 14
f 5 14 6
f 6 14 15
f 6 15 16
f 6 16 8
f 6 8 7
f 8 16 29
f 8 29 17
f 8 17 9
f 9 17 18
f 9 18 10
f 10 18 19
f 10 19 20
f 10 20 21
f 10 21 11
f 11 21 12
f 12 21 22
f 13 23 24
f 13 24 25
f 13 25 26
f 13 26 14
f 14 26 45
f 14 45 27
f 14 27 28
f 14 28 15
f 15 29 16
f 15 28 30
f 15 30 29
f 17 31 32
f 17 32 33
f 17 33 18
f 17 29 49
f 17 49 34
f 17 34 35
f 17 35 31
f 18 33 36
f 18 36 19
f 19 37 20
f 19 36 38
f 19 38 39
f 19 39 37
f 20 37 21
f 21 37 40
f 21 40 22
f 23 41 24
f 23 42 41
f 24 41 43
f 24 43 44
f 24 44 25
f 25 44 45
f 25 45 26
f 27 45 46
f 27 46 30
f 27 30 28
f 29 30 47
f 29 47 48
f 29 48 49
f 30 46 47
f 31 50 32
f 31 35 51
f 31 51 52
f 31 52 50
f 32 53 33
f 32 50 53
f 33 54 55
f 33 55 36
f 33 53 54
f 34 49 70
f 34 70 51
f 34 51 35
f 36 55 38
f 37 56 57
f 37 57 58
f 37 58 40
f 37 39 56
f 38 55 59
f 38 59 60
f 38 60 61
f 38 61 62
f 38 62 39
f 39 62 63
f 39 63 56
f 41 64 43
f 41 42 65
f 41 65 66
f 41 66 64
f 42 67 65
f 43 64 44
f 44 64 45
f 45 64 46
f 46 64 68
f 46 68 47
f 47 68 69
f 47 69 70
f 47 70 49
f 47 49 48
f 50 71 72
f 50 72 53
f 50 52 71
f 51 70 99
f 51 99 71
f 51 71 52
f 53 72 73
f 53 73 54
f 54 73 74
f 54 74 55
f 55 74 59
f 56 63 75
f 56 75 76
f 56 76 57
f 59 77 78
f 59 78 79
f 59 79 60
f 59 74 80
f 59 80 81
f 59 81 82
f 59 82 77
f 60 79 83
f 60 83 61
f 61 83 62
f 62 83 84
f 62 84 85
f 62 85 86
f 62 86 63
f 63 86 87
f 63 87 75
f 64 66 88
f 64 88 68
f 65 67 89
f 65 89 90
f 65 90 66
f 66 90 91
f 66 91 92
f 66 92 93
f 66 93 88
f 67 94 95
f 67 95 89
f 68 88 93
f 68 93 96
f 68 96 69
f 69 96 97
f 69 97 98
f 69 98 70
f 70 98 99
f 71 100 72
f 71 99 133
f 71 133 100
f 72 100 73
f 73 101 80
f 73 80 74
f 73 100 101
f 75 87 102
f 75 102 103
f 75 103 104
f 75 104 76
f 77 82 105
f 77 105 106
f 77 106 107
f 77 107 108
f 77 108 78
f 78 108 79
f 79 108 109
f 79 109 110
f 79 110 83
f 80 101 111
f 80 111 81
f 81 111 82
f 82 111 112
f 82 112 113
f 82 113 105
f 83 110 114
f 83 114 84
f 84 114 85
f 85 115 116
f 85 116 117
f 85 117 87
f 85 87 86
f 85 114 115
f 87 117 118
f 87 118 102
f 89 119 120
f 89 120 90
f 89 95 121
f 89 121 119
f 90 120 91
f 91 120 122
f 91 122 92
f 92 123 124
f 92 124 125
f 92 125 126
f 92 126 93
f 92 122 127
f 92 127 123
f 93 126 97
f 93 97 96
f 94 128 162
f 94 162 194
f 94 194 226
f 94 226 219
f 94 219 189
f 94 189 156
f 94 156 121
f 94 121 95
f 97 126 125
f 97 125 98
f 98 125 129
f 98 129 99
f 99 129 130
f 99 130 131
f 99 131 132
f 99 132 133
f 100 134 101
f 100 133 168
f 100 168 134
f 101 134 111
f 102 118 135
f 102 135 136
f 102 136 103
f 105 137 106
f 105 113 146
f 105 146 137
f 106 137 138
f 106 138 139
f 106 139 140
f 106 140 107
f 107 140 108
f 108 140 141
f 108 141 142
f 108 142 109
f 109 142 143
f 109 143 110
f 110 143 114
f 111 134 112
f 112 134 144
f 112 144 145
f 112 145 113
f 113 145 146
f 114 143 147
f 114 147 148
f 114 148 115
f 115 148 116
f 116 148 149
f 116 149 150
f 116 150 117
f 117 150 118
f 118 150 151
f 118 151 152
f 118 152 135
f 119 121 153
f 119 153 154
f 119 154 155
f 119 155 120
f 120 155 122
f 121 156 153
f 122 155 127
f 123 127 157
f 123 157 158
f 123 158 159
f 123 159 160
f 123 160 124
f 124 129 125
f 124 160 129
f 127 155 161
f 127 161 157
f 128 163 196
f 128 196 233
f 128 233 269
f 128 269 307
f 128 307 359
f 128 359 411
f 128 411 461
f 128 461 502
f 128 502 528
f 128 528 549
f 128 549 570
f 128 570 563
f 128 563 562
f 128 562 560
f 128 560 578
f 128 578 575
f 128 575 583
f 128 583 589
f 128 589 585
f 128 585 580
f 128 580 566
f 128 566 547
f 128 547 525
f 128 525 493
f 128 493 447
f 128 447 398
f 128 398 345
f 128 345 300
f 128 300 261
f 128 261 225
f 128 225 193
f 128 193 162
f 129 160 130
f 130 160 131
f 131 160 132
f 132 164 168
f 132 168 133
f 132 160 165
f 132 165 166
f 132 166 167
f 132 167 164
f 134 168 159
f 134 159 144
f 137 146 138
f 138 169 170
f 138 170 139
f 138 146 171
f 138 171 169
f 139 170 140
f 140 172 173
f 140 173 174
f 140 174 175
f 140 175 141
f 140 170 172
f 141 175 176
f 141 176 142
f 142 176 143
f 143 176 177
f 143 177 178
f 143 178 179
f 143 179 148
f 143 148 147
f 144 159 158
f 144 158 145
f 145 180 146
f 145 158 192
f 145 192 180
f 146 180 203
f 146 203 171
f 148 179 178
f 148 178 181
f 148 181 182
f 148 182 149
f 149 182 183
f 149 183 184
f 149 184 150
f 150 184 185
f 150 185 151
f 151 185 186
f 151 186 187
f 151 187 152
f 153 188 190
f 153 190 154
f 153 156 189
f 153 189 188
f 154 190 222
f 154 222 191
f 154 191 161
f 154 161 155
f 157 192 158
f 157 161 192
f 159 167 166
f 159 166 165
f 159 165 160
f 159 168 164
f 159 164 167
f 161 191 223
f 161 223 192
f 162 193 224
f 162 224 194
f 163 195 196
f 169 197 170
f 169 171 198
f 169 198 197
f 170 197 199
f 170 199 200
f 170 200 201
f 170 201 172
f 171 202 198
f 171 203 202
f 172 201 173
f 173 204 205
f 173 205 206
f 173 206 174
f 173 201 204
f 174 206 176
f 174 176 175
f 176 206 207
f 176 207 208
f 176 208 178
f 176 178 177
f 178 209 210
f 178 210 211
f 178 211 181
f 178 208 209
f 180 192 223
f 180 223 203
f 181 211 212
f 181 212 182
f 182 212 213
f 182 213 183
f 183 213 214
f 183 214 215
f 183 215 184
f 184 215 185
f 185 215 216
f 185 216 186
f 186 216 217
f 188 218 190
f 188 189 219
f 188 219 218
f 190 220 221
f 190 221 222
f 190 218 220
f 191 222 223
f 193 225 260
f 193 260 224
f 194 224 227
f 194 227 228
f 194 228 229
f 194 229 226
f 195 230 196
f 196 230 231
f 196 231 232
f 196 232 233
f 197 234 199
f 197 198 235
f 197 235 236
f 197 236 271
f 197 271 234
f 198 202 240
f 198 240 235
f 199 234 237
f 199 237 238
f 199 238 239
f 199 239 200
f 200 239 204
f 200 204 201
f 202 203 223
f 202 223 241
f 202 241 276
f 202 276 240
f 204 242 243
f 204 243 205
f 204 239 242
f 205 243 244
f 205 244 245
f 205 245 207
f 205 207 206
f 207 245 246
f 207 246 247
f 207 247 209
f 207 209 208
f 209 247 248
f 209 248 210
f 210 248 249
f 210 249 211
f 211 249 250
f 211 250 251
f 211 251 212
f 212 251 213
f 213 251 252
f 213 252 253
f 213 253 214
f 214 253 254
f 214 254 215
f 215 254 216
f 216 255 217
f 216 254 256
f 216 256 255
f 218 257 220
f 218 219 226
f 218 226 257
f 220 258 259
f 220 259 221
f 220 257 258
f 221 259 276
f 221 276 241
f 221 241 223
f 221 223 222
f 224 260 227
f 225 261 299
f 225 299 260
f 226 229 257
f 227 260 262
f 227 262 228
f 228 262 263
f 228 263 264
f 228 264 229
f 229 264 265
f 229 265 266
f 229 266 267
f 229 267 257
f 232 268 269
f 232 269 233
f 234 270 237
f 234 271 270
f 235 240 236
f 236 240 271
f 237 270 272
f 237 272 273
f 237 273 274
f 237 274 238
f 238 274 239
f 239 274 242
f 240 275 271
f 240 276 298
f 240 298 275
f 242 277 243
f 242 274 277
f 243 278 279
f 243 279 280
f 243 280 281
f 243 281 244
f 243 277 278
f 244 281 245
f 245 281 246
f 246 281 280
f 246 280 282
f 246 282 283
f 246 283 284
f 246 284 247
f 247 284 285
f 247 285 248
f 248 285 249
f 249 285 284
f 249 284 286
f 249 286 287
f 249 287 288
f 249 288 289
f 249 289 250
f 250 289 290
f 250 290 251
f 251 290 291
f 251 291 292
f 251 292 252
f 252 292 253
f 253 292 293
f 253 293 294
f 253 294 254
f 254 294 295
f 254 295 256
f 257 267 258
f 258 267 296
f 258 296 297
f 258 297 259
f 259 297 298
f 259 298 276
f 260 299 262
f 261 300 344
f 261 344 299
f 262 299 301
f 262 301 263
f 263 301 302
f 263 302 303
f 263 303 264
f 264 303 265
f 265 303 304
f 265 304 305
f 265 305 266
f 266 305 306
f 266 306 267
f 267 306 296
f 268 307 269
f 268 308 307
f 270 309 272
f 270 271 310
f 270 310 311
f 270 311 309
f 271 275 310
f 272 312 313
f 272 313 314
f 272 314 273
f 272 309 315
f 272 315 316
f 272 316 317
f 272 317 312
f 273 314 274
f 274 314 318
f 274 318 277
f 275 319 310
f 275 298 340
f 275 340 319
f 277 318 278
f 278 318 320
f 278 320 321
f 278 321 322
f 278 322 323
f 278 323 280
f 278 280 279
f 280 323 324
f 280 324 325
f 280 325 326
f 280 326 282
f 282 326 327
f 282 327 283
f 283 327 286
f 283 286 284
f 286 327 380
f 286 380 328
f 286 328 287
f 287 328 329
f 287 329 330
f 287 330 288
f 288 330 290
f 288 290 289
f 290 330 331
f 290 331 291
f 291 331 332
f 291 332 292
f 292 332 333
f 292 333 293
f 293 333 334
f 293 334 335
f 293 335 294
f 294 335 336
f 294 336 337
f 294 337 295
f 296 306 338
f 296 338 297
f 297 338 339
f 297 339 298
f 298 339 340
f 299 341 342
f 299 342 343
f 299 343 301
f 299 344 395
f 299 395 341
f 300 345 397
f 300 397 344
f 301 346 302
f 301 343 396
f 301 396 347
f 301 347 348
f 301 348 349
f 301 349 346
f 302 350 351
f 302 351 304
f 302 304 303
f 302 346 401
f 302 401 352
f 302 352 350
f 304 351 353
f 304 353 354
f 304 354 355
f 304 355 305
f 305 355 356
f 305 356 357
f 305 357 338
f 305 338 306
f 307 308 358
f 307 358 359
f 309 311 361
f 309 361 315
f 310 319 360
f 310 360 311
f 311 360 361
f 312 317 362
f 312 362 363
f 312 363 364
f 312 364 365
f 312 365 366
f 312 366 313
f 313 366 367
f 313 367 314
f 314 367 320
f 314 320 318
f 315 361 368
f 315 368 316
f 316 368 369
f 316 369 317
f 317 369 370
f 317 370 362
f 319 340 394
f 319 394 360
f 320 367 321
f 321 367 371
f 321 371 372
f 321 372 373
f 321 373 324
f 321 324 322
f 322 324 323
f 324 373 374
f 324 374 375
f 324 375 376
f 324 376 325
f 325 376 377
f 325 377 326
f 326 377 378
f 326 378 379
f 326 379 327
f 327 379 380
f 328 380 329
f 329 378 381
f 329 381 382
f 329 382 331
f 329 331 330
f 329 380 379
f 329 379 378
f 331 382 383
f 331 383 384
f 331 384 332
f 332 384 333
f 333 384 383
f 333 383 385
f 333 385 386
f 333 386 387
f 333 387 334
f 334 387 435
f 334 435 388
f 334 388 389
f 334 389 390
f 334 390 335
f 335 390 336
f 338 357 391
f 338 391 392
f 338 392 393
f 338 393 339
f 339 393 394
f 339 394 340
f 341 395 444
f 341 444 396
f 341 396 342
f 342 396 343
f 344 397 395
f 345 398 399
f 345 399 400
f 345 400 446
f 345 446 397
f 346 349 401
f 347 401 348
f 347 396 401
f 348 401 349
f 350 353 351
f 350 352 353
f 352 402 353
f 352 401 403
f 352 403 402
f 353 402 354
f 354 404 405
f 354 405 355
f 354 402 406
f 354 406 404
f 355 405 356
f 356 405 404
f 356 404 407
f 356 407 357
f 357 408 391
f 357 407 456
f 357 456 409
f 357 409 408
f 358 410 359
f 359 410 411
f 360 394 441
f 360 441 412
f 360 412 361
f 361 412 413
f 361 413 368
f 362 370 414
f 362 414 363
f 363 415 416
f 363 416 417
f 363 417 364
f 363 414 418
f 363 418 415
f 364 419 365
f 364 417 419
f 365 419 420
f 365 420 372
f 365 372 371
f 365 371 367
f 365 367 366
f 368 413 421
f 368 421 369
f 369 421 422
f 369 422 370
f 370 422 414
f 372 423 374
f 372 374 373
f 372 420 424
f 372 424 423
f 374 425 375
f 374 423 425
f 375 426 427
f 375 427 376
f 375 425 426
f 376 427 428
f 376 428 377
f 377 428 378
f 378 428 429
f 378 429 430
f 378 430 381
f 381 430 431
f 381 431 382
f 382 431 383
f 383 431 432
f 383 432 385
f 385 432 483
f 385 483 433
f 385 433 386
f 386 433 434
f 386 434 387
f 387 434 435
f 388 435 436
f 388 436 437
f 388 437 389
f 389 437 438
f 389 438 439
f 389 439 390
f 391 408 392
f 392 408 440
f 392 440 441
f 392 441 393
f 393 441 394
f 395 397 442
f 395 442 443
f 395 443 444
f 396 444 491
f 396 491 445
f 396 445 401
f 397 446 487
f 397 487 442
f 398 447 448
f 398 448 399
f 399 448 449
f 399 449 400
f 400 449 492
f 400 492 446
f 401 445 403
f 402 403 450
f 402 450 406
f 403 451 450
f 403 445 452
f 403 452 453
f 403 453 454
f 403 454 451
f 404 406 450
f 404 450 451
f 404 451 455
f 404 455 456
f 404 456 407
f 408 409 457
f 408 457 458
f 408 458 440
f 409 456 457
f 410 459 411
f 411 459 460
f 411 460 461
f 412 441 440
f 412 440 462
f 412 462 413
f 413 463 421
f 413 462 458
f 413 458 464
f 413 464 463
f 414 422 465
f 414 465 466
f 414 466 418
f 415 467 416
f 415 418 472
f 415 472 467
f 416 468 469
f 416 469 417
f 416 467 470
f 416 470 468
f 417 469 471
f 417 471 419
f 418 466 472
f 419 471 424
f 419 424 420
f 421 463 422
f 422 463 464
f 422 464 458
f 422 458 473
f 422 473 465
f 423 424 474
f 423 474 425
f 424 471 475
f 424 475 474
f 425 476 477
f 425 477 426
f 425 474 476
f 426 477 478
f 426 478 427
f 427 478 479
f 427 479 428
f 428 479 480
f 428 480 429
f 429 480 430
f 430 480 481
f 430 481 432
f 430 432 431
f 432 481 482
f 432 482 483
f 433 483 484
f 433 484 434
f 434 484 485
f 434 485 435
f 435 485 436
f 436 486 437
f 436 485 520
f 436 520 519
f 436 519 542
f 436 542 560
f 436 560 562
f 436 562 543
f 436 543 521
f 436 521 486
f 440 458 462
f 442 487 443
f 443 488 490
f 443 490 444
f 443 487 489
f 443 489 470
f 443 470 488
f 444 490 491
f 445 491 452
f 446 492 522
f 446 522 487
f 447 493 448
f 448 493 449
f 449 493 523
f 449 523 492
f 451 454 455
f 452 491 494
f 452 494 495
f 452 495 453
f 453 495 465
f 453 465 496
f 453 496 454
f 454 496 497
f 454 497 455
f 455 498 456
f 455 497 498
f 456 498 458
f 456 458 457
f 458 498 499
f 458 499 500
f 458 500 473
f 460 501 461
f 461 501 502
f 465 495 466
f 465 473 500
f 465 500 496
f 466 495 503
f 466 503 504
f 466 504 472
f 467 472 470
f 468 470 489
f 468 489 505
f 468 505 506
f 468 506 469
f 469 506 507
f 469 507 471
f 470 472 488
f 471 507 475
f 472 504 488
f 474 508 476
f 474 475 508
f 475 507 509
f 475 509 508
f 476 510 511
f 476 511 477
f 476 508 510
f 477 511 512
f 477 512 478
f 478 512 513
f 478 513 479
f 479 513 480
f 480 513 514
f 480 514 481
f 481 515 482
f 481 514 515
f 482 515 516
f 482 516 517
f 482 517 518
f 482 518 484
f 482 484 483
f 484 518 519
f 484 519 520
f 484 520 485
f 487 522 489
f 488 504 490
f 489 522 505
f 490 504 491
f 491 504 503
f 491 503 494
f 492 523 524
f 492 524 522
f 493 525 526
f 493 526 545
f 493 545 523
f 494 503 495
f 496 500 499
f 496 499 498
f 496 498 497
f 501 527 502
f 502 527 528
f 505 529 506
f 505 522 529
f 506 529 530
f 506 530 507
f 507 530 509
f 508 509 531
f 508 531 510
f 509 532 531
f 509 530 532
f 510 531 533
f 510 533 534
f 510 534 511
f 511 534 535
f 511 535 512
f 512 535 536
f 512 536 513
f 513 536 514
f 514 536 555
f 514 555 537
f 514 537 515
f 515 537 516
f 516 538 541
f 516 541 517
f 516 537 539
f 516 539 540
f 516 540 538
f 517 541 519
f 517 519 518
f 519 541 542
f 521 543 544
f 522 524 529
f 523 545 524
f 524 545 546
f 524 546 529
f 525 547 526
f 526 547 565
f 526 565 545
f 527 548 528
f 528 548 549
f 529 546 530
f 530 546 532
f 531 550 533
f 531 532 550
f 532 546 551
f 532 551 550
f 533 550 552
f 533 552 553
f 533 553 534
f 534 553 554
f 534 554 535
f 535 554 555
f 535 555 536
f 537 555 539
f 538 540 556
f 538 556 557
f 538 557 542
f 538 542 541
f 539 555 558
f 539 558 540
f 540 558 559
f 540 559 556
f 542 557 561
f 542 561 578
f 542 578 560
f 543 562 563
f 543 563 544
f 544 563 564
f 545 565 551
f 545 551 546
f 547 566 567
f 547 567 568
f 547 568 571
f 547 571 565
f 548 569 549
f 549 569 570
f 550 551 571
f 550 571 552
f 551 565 571
f 552 571 572
f 552 572 573
f 552 573 553
f 553 573 574
f 553 574 554
f 554 574 555
f 555 574 558
f 556 559 577
f 556 577 575
f 556 575 578
f 556 578 561
f 556 561 557
f 558 574 559
f 559 574 576
f 559 576 584
f 559 584 577
f 563 570 564
f 564 570 579
f 566 580 567
f 567 580 581
f 567 581 568
f 568 581 572
f 568 572 571
f 569 579 570
f 572 581 582
f 572 582 573
f 573 582 584
f 573 584 576
f 573 576 574
f 575 577 583
f 577 584 583
f 580 585 586
f 580 586 581
f 581 586 587
f 581 587 582
f 582 587 584
f 583 584 588
f 583 588 589
f 584 587 586
f 584 586 590
f 584 590 588
f 585 589 588
f 585 588 586
f 586 588 590

