# https://github.com/mikedh/trimesh
v 0.01303099 -0.02087532 0.01721228
v -0.00000660 -0.02456635 0.01721228
v 0.01303099 -0.04519173 0.01721228
v 0.01303099 -0.01185498 0.00956328
v -0.00000660 -0.01599638 0.00831704
v -0.00000660 -0.04519500 0.01721228
v 0.00631949 -0.04519500 0.01721228
v 0.01303099 -0.04519173 0.00075124
v 0.01303099 -0.01185498 -0.00049500
v 0.01301057 -0.01185498 0.00955288
v -0.00000660 -0.01513155 0.00730653
v -0.00000660 -0.01557865 0.00786812
v -0.00000660 -0.04519500 0.00075124
v 0.00631949 -0.04519500 0.00075124
v 0.01303099 -0.04494371 -0.00007034
v 0.01034843 -0.01185498 -0.00049500
v 0.01303099 -0.04334786 -0.00049500
v 0.01257794 -0.01185498 0.00930848
v -0.00000660 -0.01485741 0.00685761
v 0.01132727 -0.01185498 0.00858917
v -0.00000660 -0.04494371 -0.00007034
v 0.01303099 -0.04493066 -0.00007901
v 0.00944999 -0.01185498 -0.00045513
v -0.00000660 -0.01545463 -0.00049500
v 0.01303099 -0.04422574 -0.00046900
v -0.00000660 -0.04334786 -0.00049500
v -0.00000660 -0.01470076 0.00650922
v 0.01089081 -0.01185498 0.00832917
v 0.01035353 -0.01185498 0.00795998
v 0.00980094 -0.01185498 0.00756306
v -0.00000660 -0.04424858 -0.00046727
v 0.01303099 -0.04424858 -0.00046727
v 0.00852985 -0.01185498 -0.00015181
v -0.00000660 -0.01456696 -0.00009634
v -0.00000660 -0.01454085 0.00615043
v 0.00932109 -0.01185498 0.00711934
v 0.00840734 -0.01185498 -0.00010328
v -0.00000660 -0.01413618 0.00075124
v -0.00000660 -0.01442337 0.00570844
v 0.00889357 -0.01185498 0.00665308
v 0.00781136 -0.01185498 0.00075124
v -0.00000660 -0.01413944 0.00120882
v 0.00785347 -0.01185498 0.00317264
v 0.00782029 -0.01185498 0.00140815
v -0.00000660 -0.01430262 0.00525085
v 0.00852092 -0.01185498 0.00617816
v -0.00000660 -0.01414270 0.00165081
v 0.00786113 -0.01185498 0.00345170
v -0.00000660 -0.01425040 0.00481060
v 0.00851582 -0.01185498 0.00617123
v 0.00820953 -0.01185498 0.00554725
v 0.00808319 -0.01185498 0.00525085
v -0.00000660 -0.01415249 0.00255039
v 0.00788665 -0.01185498 0.00395609
v -0.00000660 -0.01415902 0.00300971
v -0.00000660 -0.01416555 0.00345170
v -0.00000660 -0.01420145 0.00435128
v 0.00791090 -0.01185498 0.00433914
v -0.00000660 -0.01418187 0.00390755
f 1 2 6
f 1 6 7
f 1 7 3
f 1 3 8
f 1 8 15
f 1 15 22
f 1 22 32
f 1 32 25
f 1 25 17
f 1 17 9
f 1 9 4
f 1 4 2
f 2 4 5
f 2 5 12
f 2 12 11
f 2 11 19
f 2 19 27
f 2 27 35
f 2 35 39
f 2 39 45
f 2 45 49
f 2 49 57
f 2 57 59
f 2 59 56
f 2 56 55
f 2 55 53
f 2 53 47
f 2 47 42
f 2 42 38
f 2 38 34
f 2 34 24
f 2 24 26
f 2 26 31
f 2 31 21
f 2 21 13
f 2 13 6
f 3 7 14
f 3 14 8
f 4 9 16
f 4 16 23
f 4 23 33
f 4 33 37
f 4 37 41
f 4 41 44
f 4 44 43
f 4 43 48
f 4 48 54
f 4 54 58
f 4 58 52
f 4 52 51
f 4 51 50
f 4 50 46
f 4 46 40
f 4 40 36
f 4 36 30
f 4 30 29
f 4 29 28
f 4 28 20
f 4 20 18
f 4 18 10
f 4 10 11
f 4 11 12
f 4 12 5
f 6 13 14
f 6 14 7
f 8 14 15
f 9 17 26
f 9 26 24
f 9 24 16
f 10 18 11
f 11 18 20
f 11 20 19
f 13 21 15
f 13 15 14
f 15 21 22
f 16 24 23
f 17 25 26
f 19 20 28
f 19 28 29
f 19 29 30
f 19 30 27
f 21 31 22
f 22 31 32
f 23 24 34
f 23 34 33
f 25 32 31
f 25 31 26
f 27 30 35
f 30 36 35
f 33 34 37
f 34 38 37
f 35 36 40
f 35 40 39
f 37 38 41
f 38 42 43
f 38 43 44
f 38 44 41
f 39 40 45
f 40 46 45
f 42 47 43
f 43 47 48
f 45 46 50
f 45 50 51
f 45 51 52
f 45 52 49
f 47 53 48
f 48 53 55
f 48 55 56
f 48 56 54
f 49 52 57
f 52 58 57
f 54 56 58
f 56 59 58
f 57 58 59

