# https://github.com/mikedh/trimesh
v -0.01736910 -0.01471025 0.01454273
v -0.01737273 -0.01470297 0.01453979
v -0.01737273 -0.01544181 0.01454273
v -0.00994586 -0.02038808 0.01454273
v -0.01737273 -0.00800967 0.01071264
v -0.01737273 -0.04519223 0.01454273
v -0.00994586 -0.04519223 0.01454273
v -0.00994586 -0.01250463 0.00822942
v -0.01380362 -0.00800967 0.00811607
v -0.01425948 -0.00800967 0.00849879
v -0.01486585 -0.00800967 0.00893449
v -0.01737273 -0.00800967 -0.00049500
v -0.01737273 -0.04519223 0.00075029
v -0.00994586 -0.04519223 0.00075029
v -0.00994586 -0.01199872 0.00779813
v -0.01332885 -0.00800967 0.00766418
v -0.01394903 -0.00800967 -0.00049500
v -0.01737273 -0.04334693 -0.00049500
v -0.01737273 -0.04494474 -0.00007107
v -0.00994586 -0.04494474 -0.00007107
v -0.00994586 -0.01154012 0.00734917
v -0.01286353 -0.00800967 0.00710630
v -0.01329104 -0.00800967 -0.00048470
v -0.00994586 -0.01225713 -0.00049500
v -0.00994586 -0.04334693 -0.00049500
v -0.01737273 -0.04424592 -0.00046850
v -0.00994586 -0.04424592 -0.00046850
v -0.00994586 -0.01115796 0.00688108
v -0.01269849 -0.00800967 0.00686195
v -0.01305111 -0.00800967 -0.00044642
v -0.01305111 -0.00825353 -0.00048322
v -0.00994586 -0.01185313 -0.00047734
v -0.00994586 -0.01071756 0.00614509
v -0.01240403 -0.00800967 0.00638797
v -0.01236041 -0.00800967 -0.00018588
v -0.00994586 -0.01135814 -0.00042582
v -0.00994586 -0.01048463 0.00561077
v -0.01226226 -0.00800967 0.00609652
v -0.01219682 -0.00800967 -0.00008285
v -0.00994586 -0.01051738 -0.00005782
v -0.00994586 -0.01036452 0.00509557
v -0.01200342 -0.00800967 0.00525160
v -0.01184493 -0.00800967 0.00074735
v -0.01157010 -0.00853742 0.00009674
v -0.00994586 -0.01034632 0.00011440
v -0.00994586 -0.01025533 0.00435075
v -0.01198816 -0.00800967 0.00513090
v -0.01186165 -0.00800967 0.00345137
v -0.00994586 -0.01018982 0.00165114
v -0.00994586 -0.01018982 0.00075029
v -0.00994586 -0.01025169 0.00036316
v -0.01069981 -0.00949100 0.00012765
v -0.00994586 -0.01020437 0.00345137
v -0.01189655 -0.00800967 0.00435075
v -0.01189437 -0.00800967 0.00430512
f 1 2 3
f 1 3 6
f 1 6 7
f 1 7 4
f 1 4 5
f 1 5 2
f 2 5 12
f 2 12 18
f 2 18 26
f 2 26 19
f 2 19 13
f 2 13 6
f 2 6 3
f 4 7 14
f 4 14 20
f 4 20 27
f 4 27 25
f 4 25 24
f 4 24 32
f 4 32 36
f 4 36 40
f 4 40 45
f 4 45 51
f 4 51 50
f 4 50 49
f 4 49 53
f 4 53 46
f 4 46 41
f 4 41 37
f 4 37 33
f 4 33 28
f 4 28 21
f 4 21 15
f 4 15 8
f 4 8 9
f 4 9 10
f 4 10 11
f 4 11 5
f 5 11 10
f 5 10 9
f 5 9 16
f 5 16 22
f 5 22 29
f 5 29 34
f 5 34 38
f 5 38 42
f 5 42 47
f 5 47 54
f 5 54 55
f 5 55 48
f 5 48 43
f 5 43 39
f 5 39 35
f 5 35 30
f 5 30 23
f 5 23 17
f 5 17 12
f 6 13 14
f 6 14 7
f 8 15 16
f 8 16 9
f 12 17 24
f 12 24 25
f 12 25 18
f 13 19 20
f 13 20 14
f 15 21 16
f 16 21 22
f 17 23 24
f 18 25 27
f 18 27 26
f 19 26 27
f 19 27 20
f 21 28 22
f 22 28 29
f 23 30 31
f 23 31 24
f 24 31 32
f 28 33 34
f 28 34 29
f 30 35 36
f 30 36 31
f 31 36 32
f 33 37 38
f 33 38 34
f 35 39 40
f 35 40 36
f 37 41 42
f 37 42 38
f 39 43 44
f 39 44 45
f 39 45 40
f 41 46 42
f 42 46 47
f 43 48 49
f 43 49 50
f 43 50 51
f 43 51 52
f 43 52 44
f 44 52 45
f 45 52 51
f 46 53 54
f 46 54 47
f 48 55 53
f 48 53 49
f 53 55 54

