# https://github.com/mikedh/trimesh
v 0.01255953 0.02077587 0.01597403
v 0.02162256 0.01076616 0.01597403
v 0.01255953 0.02451708 0.02194642
v 0.01255953 0.04579500 0.01597403
v 0.02162256 0.01693865 0.02194642
v 0.02162256 0.04572299 0.01597403
v 0.01255953 0.04579500 0.02194642
v 0.02024913 0.04579500 0.01597403
v 0.02162256 0.04572642 0.02194642
v 0.02162256 0.04572642 0.01785005
v 0.02114967 0.04576071 0.01597403
v 0.02024913 0.04579500 0.02194642
v 0.02065282 0.04578128 0.02194642
v 0.02136172 0.04574700 0.02194642
v 0.02114967 0.04576071 0.02194642
f 1 2 3
f 1 3 7
f 1 7 4
f 1 4 8
f 1 8 11
f 1 11 6
f 1 6 2
f 2 5 3
f 2 6 10
f 2 10 9
f 2 9 5
f 3 5 9
f 3 9 14
f 3 14 15
f 3 15 13
f 3 13 12
f 3 12 7
f 4 7 12
f 4 12 8
f 6 11 10
f 8 13 11
f 8 12 13
f 9 10 14
f 10 11 14
f 11 13 15
f 11 15 14

