# https://github.com/mikedh/trimesh
v -0.04549500 -0.00194157 0.01593365
v -0.04549500 -0.00194157 0.02685040
v -0.04549500 0.00946370 0.01593365
v -0.02389442 -0.00194157 0.01593365
v -0.04548359 -0.00194157 0.02775812
v -0.04549500 0.00946370 0.02685040
v -0.02217066 0.00946370 0.01593365
v -0.02956568 -0.00194157 0.03026811
v -0.04548359 0.00946370 0.02774952
v -0.04541509 -0.00194157 0.02864865
v -0.04541737 0.00794985 0.02864865
v -0.04541737 0.00946370 0.02864865
v -0.02799033 0.00946370 0.02977987
v -0.02980084 -0.00194157 0.03071510
v -0.02828257 0.00946370 0.03043831
v -0.04521418 -0.00194157 0.02954778
v -0.04522331 0.00884856 0.02954778
v -0.04528724 0.00946370 0.02926240
v -0.03031683 -0.00194157 0.03142511
v -0.02841727 0.00946370 0.03066524
v -0.02867298 0.00946370 0.03106925
v -0.04503610 -0.00194157 0.03008760
v -0.04504294 0.00794985 0.03009791
v -0.04522331 0.00946370 0.02954778
v -0.04510002 0.00946370 0.02992600
v -0.03037162 -0.00194157 0.03149388
v -0.02876431 0.00946370 0.03118443
v -0.04481692 -0.00194157 0.03054490
v -0.04489454 0.00946370 0.03040737
v -0.04504294 0.00946370 0.03009963
v -0.02902687 0.00946370 0.03149732
v -0.02918897 0.00946370 0.03168127
v -0.03061363 -0.00171493 0.03178786
v -0.03090587 -0.00194157 0.03204230
v -0.04436942 -0.00194157 0.03126008
v -0.04482377 0.00946370 0.03055006
v -0.02949491 0.00946370 0.03198041
v -0.03097437 -0.00194157 0.03209903
v -0.04437399 0.00884856 0.03126523
v -0.04401782 -0.00194157 0.03170878
v -0.04402239 0.00704779 0.03171566
v -0.04437399 0.00946370 0.03126523
v -0.02971180 0.00946370 0.03214545
v -0.03162962 -0.00194157 0.03261478
v -0.04413426 0.00946370 0.03157296
v -0.04356805 -0.00194157 0.03210935
v -0.04402239 0.00946370 0.03171566
v -0.04357262 0.00884856 0.03211794
v -0.03010906 0.00946370 0.03244458
v -0.03208168 -0.00194157 0.03286234
v -0.03033966 0.00946370 0.03259931
v -0.03054286 0.00946370 0.03273341
v -0.04297900 -0.00194157 0.03255977
v -0.04299270 0.00946370 0.03256837
v -0.04357262 0.00946370 0.03211794
v -0.03284424 -0.00194157 0.03318383
v -0.03066386 0.00946370 0.03279358
v -0.03103373 0.00946370 0.03295346
v -0.04252923 -0.00194157 0.03282624
v -0.04254293 0.00946370 0.03283140
v -0.03285338 -0.00194157 0.03318727
v -0.03133738 0.00946370 0.03307208
v -0.04184886 -0.00194157 0.03312710
v -0.04184886 0.00946370 0.03313569
v -0.03195154 0.00946370 0.03326635
v -0.03374379 -0.00194157 0.03339873
v -0.04183973 -0.00194157 0.03313054
v -0.04094931 -0.00194157 0.03336950
v -0.04094931 0.00794985 0.03337294
v -0.04094931 0.00946370 0.03337294
v -0.03223693 0.00946370 0.03332824
v -0.03375292 -0.00194157 0.03340045
v -0.04094018 -0.00194157 0.03337122
v -0.04004748 0.00794985 0.03346749
v -0.04004748 0.00946370 0.03346749
v -0.03285338 0.00946370 0.03343311
v -0.03465019 -0.00194157 0.03347609
v -0.04004748 -0.00194157 0.03346405
v -0.03914793 -0.00194157 0.03349328
v -0.03914793 0.00946370 0.03349328
v -0.03313648 0.00946370 0.03345374
v -0.03554974 -0.00194157 0.03349328
v -0.03375292 0.00946370 0.03348812
v -0.03465019 0.00946370 0.03349328
v -0.03403603 0.00946370 0.03349156
v -0.03465019 0.00614796 0.03349328
f 1 2 6
f 1 6 3
f 1 3 7
f 1 7 4
f 1 4 8
f 1 8 14
f 1 14 19
f 1 19 26
f 1 26 34
f 1 34 38
f 1 38 44
f 1 44 50
f 1 50 56
f 1 56 61
f 1 61 66
f 1 66 72
f 1 72 77
f 1 77 82
f 1 82 79
f 1 79 78
f 1 78 73
f 1 73 68
f 1 68 67
f 1 67 63
f 1 63 59
f 1 59 53
f 1 53 46
f 1 46 40
f 1 40 35
f 1 35 28
f 1 28 22
f 1 22 16
f 1 16 10
f 1 10 5
f 1 5 2
f 2 5 6
f 3 6 9
f 3 9 12
f 3 12 18
f 3 18 24
f 3 24 25
f 3 25 30
f 3 30 29
f 3 29 36
f 3 36 42
f 3 42 45
f 3 45 47
f 3 47 55
f 3 55 54
f 3 54 60
f 3 60 64
f 3 64 70
f 3 70 75
f 3 75 80
f 3 80 84
f 3 84 85
f 3 85 83
f 3 83 81
f 3 81 76
f 3 76 71
f 3 71 65
f 3 65 62
f 3 62 58
f 3 58 57
f 3 57 52
f 3 52 51
f 3 51 49
f 3 49 43
f 3 43 37
f 3 37 32
f 3 32 31
f 3 31 27
f 3 27 21
f 3 21 20
f 3 20 15
f 3 15 13
f 3 13 7
f 4 7 8
f 5 9 6
f 5 10 11
f 5 11 12
f 5 12 9
f 7 13 8
f 8 13 15
f 8 15 14
f 10 16 17
f 10 17 18
f 10 18 11
f 11 18 12
f 14 15 20
f 14 20 21
f 14 21 19
f 16 22 23
f 16 23 17
f 17 24 18
f 17 23 25
f 17 25 24
f 19 21 27
f 19 27 26
f 22 28 23
f 23 28 29
f 23 29 30
f 23 30 25
f 26 27 31
f 26 31 32
f 26 32 33
f 26 33 34
f 28 35 36
f 28 36 29
f 32 37 33
f 33 37 34
f 34 37 38
f 35 39 36
f 35 40 41
f 35 41 39
f 36 39 42
f 37 43 44
f 37 44 38
f 39 41 45
f 39 45 42
f 40 46 41
f 41 47 45
f 41 46 48
f 41 48 55
f 41 55 47
f 43 49 44
f 44 49 51
f 44 51 52
f 44 52 50
f 46 53 54
f 46 54 48
f 48 54 55
f 50 52 57
f 50 57 58
f 50 58 56
f 53 59 54
f 54 59 60
f 56 58 62
f 56 62 61
f 59 63 60
f 60 63 64
f 61 62 65
f 61 65 66
f 63 67 64
f 64 67 68
f 64 68 69
f 64 69 70
f 65 71 66
f 66 71 72
f 68 73 69
f 69 73 74
f 69 74 75
f 69 75 70
f 71 76 72
f 72 76 77
f 73 78 74
f 74 78 79
f 74 79 80
f 74 80 75
f 76 81 77
f 77 81 83
f 77 83 82
f 79 82 86
f 79 86 84
f 79 84 80
f 82 83 85
f 82 85 86
f 84 86 85

