# https://github.com/mikedh/trimesh
v 0.03914843 0.01352855 0.03349500
v 0.03285093 0.01352855 0.03349500
v 0.03914843 0.00899797 0.03349500
v 0.04004574 0.02145349 0.03346506
v 0.03914843 0.02235242 0.03349167
v 0.03824645 0.02415386 0.03349167
v 0.03285093 0.02955102 0.03349167
v 0.02475415 0.03764855 0.03349167
v 0.02385217 0.03854388 0.03349167
v 0.02205289 0.03944640 0.03349167
v 0.03285093 0.01335236 0.03349500
v 0.02162293 0.03944640 0.03349167
v 0.03464788 0.00899797 0.03349500
v 0.04004574 0.00899797 0.03346506
v 0.04004574 0.02235242 0.03345508
v 0.03914843 0.02325134 0.03348502
v 0.04022099 0.01352855 0.03344842
v 0.04094772 0.02055456 0.03337190
v 0.03914843 0.02415386 0.03346506
v 0.03734681 0.02595531 0.03347171
v 0.02565380 0.03764855 0.03347171
v 0.02385217 0.03944640 0.03346506
v 0.02295019 0.03944640 0.03348502
v 0.02162293 0.04034533 0.03345840
v 0.03374824 0.01065199 0.03349500
v 0.02162293 0.02864850 0.03349167
v 0.03374824 0.00899797 0.03348169
v 0.02205289 0.02774957 0.03349167
v 0.03374824 0.00975306 0.03349167
v 0.04094772 0.00899797 0.03337190
v 0.04094772 0.02145349 0.03336192
v 0.04004574 0.02325134 0.03343511
v 0.04109493 0.00899797 0.03333531
v 0.04112064 0.01352855 0.03332865
v 0.04184970 0.02055456 0.03313902
v 0.03914843 0.02505279 0.03340850
v 0.03824645 0.02595531 0.03341183
v 0.02655344 0.03764855 0.03341183
v 0.02565380 0.03854388 0.03341183
v 0.02475415 0.03944640 0.03340850
v 0.02295019 0.04034533 0.03343511
v 0.02205289 0.04034533 0.03345508
v 0.02162293 0.04124785 0.03334529
v 0.02162293 0.02774957 0.03348502
v 0.03285093 0.00899797 0.03341848
v 0.04184970 0.02145349 0.03312571
v 0.04094772 0.02235242 0.03333198
v 0.04094772 0.02325134 0.03327875
v 0.04004574 0.02415386 0.03337523
v 0.04184502 0.00899797 0.03313569
v 0.04184502 0.01335236 0.03313902
v 0.04184970 0.01605274 0.03313902
v 0.04254838 0.02055456 0.03283627
v 0.04253670 0.02145349 0.03282962
v 0.04004574 0.02505279 0.03326544
v 0.03914843 0.02595531 0.03329206
v 0.02565380 0.03944640 0.03329206
v 0.02475415 0.04034533 0.03326544
v 0.02385217 0.04034533 0.03337523
v 0.02295019 0.04124785 0.03327875
v 0.02205289 0.04124785 0.03333198
v 0.02162293 0.04214678 0.03309910
v 0.02162293 0.02685424 0.03343844
v 0.03195129 0.00899797 0.03323550
v 0.02162293 0.02595531 0.03333531
v 0.04184970 0.02235242 0.03307581
v 0.04094772 0.02415386 0.03318227
v 0.04253903 0.00899797 0.03282629
v 0.04254371 0.01065199 0.03283294
v 0.04254838 0.01875312 0.03283627
v 0.04299937 0.02055456 0.03256679
v 0.04298769 0.02145349 0.03255681
v 0.04248061 0.02235242 0.03279967
v 0.04094772 0.02505279 0.03300927
v 0.04004574 0.02595531 0.03308246
v 0.03914843 0.02685424 0.03309244
v 0.02655344 0.03944640 0.03309244
v 0.02565380 0.04034533 0.03308246
v 0.02475415 0.04124785 0.03300927
v 0.02385217 0.04124785 0.03318227
v 0.02205289 0.04214678 0.03307581
v 0.02162293 0.04248118 0.03295604
v 0.03100725 0.00899797 0.03287619
v 0.02162293 0.02505279 0.03314567
v 0.04238247 0.02325134 0.03274644
v 0.04184970 0.02325134 0.03297933
v 0.04187306 0.02408914 0.03284292
v 0.04261381 0.00899797 0.03278637
v 0.04298769 0.00899797 0.03256679
v 0.04299236 0.01155092 0.03257012
v 0.04254838 0.01425129 0.03283294
v 0.04299937 0.01605274 0.03256679
v 0.04357421 0.01352855 0.03212098
v 0.04357421 0.02055456 0.03211766
v 0.04355785 0.02145349 0.03210768
v 0.04350878 0.02235242 0.03207108
v 0.04293394 0.02235242 0.03252021
v 0.04155293 0.02505279 0.03277306
v 0.04141273 0.02552743 0.03270319
v 0.04091500 0.02587980 0.03280300
v 0.04059254 0.02650546 0.03273979
v 0.04002003 0.02682548 0.03282962
v 0.03912039 0.02772080 0.03283294
v 0.03822075 0.02862333 0.03283294
v 0.03102828 0.03582193 0.03283294
v 0.02742738 0.03942123 0.03283294
v 0.02652306 0.04032016 0.03282962
v 0.02620293 0.04089188 0.03273979
v 0.02557435 0.04121190 0.03280300
v 0.02522617 0.04171529 0.03270319
v 0.02475415 0.04185193 0.03277306
v 0.02378674 0.04217195 0.03284292
v 0.02295019 0.04214678 0.03297933
v 0.02205289 0.04278322 0.03279967
v 0.02162293 0.04280839 0.03281298
v 0.03087406 0.00899797 0.03281298
v 0.02162293 0.02418982 0.03288950
v 0.04283346 0.02325134 0.03245035
v 0.04231471 0.02374755 0.03270652
v 0.04218852 0.02434803 0.03263333
v 0.04308349 0.00899797 0.03249360
v 0.04357421 0.00899797 0.03211766
v 0.04357421 0.01335236 0.03212098
v 0.04402520 0.02055456 0.03171510
v 0.04400650 0.02145349 0.03169514
v 0.04395743 0.02235242 0.03163858
v 0.04342466 0.02325134 0.03199789
v 0.04200392 0.02505279 0.03252021
v 0.04184035 0.02594453 0.03225406
v 0.04119074 0.02612791 0.03258675
v 0.04091500 0.02682548 0.03241043
v 0.04030278 0.02710594 0.03260339
v 0.03970224 0.02740798 0.03273979
v 0.02891120 0.03820588 0.03273979
v 0.02710958 0.04000014 0.03273979
v 0.02680347 0.04060422 0.03260339
v 0.02652306 0.04121190 0.03241043
v 0.02582438 0.04148876 0.03258675
v 0.02564445 0.04214318 0.03225406
v 0.02475415 0.04230139 0.03252021
v 0.02404612 0.04248477 0.03263333
v 0.02344324 0.04261422 0.03270652
v 0.02295019 0.04268254 0.03274644
v 0.02205289 0.04323268 0.03252021
v 0.02162293 0.04325785 0.03253685
v 0.03034128 0.00899797 0.03249360
v 0.02162293 0.02366125 0.03270652
v 0.04328445 0.02415386 0.03187812
v 0.04266755 0.02408914 0.03236385
v 0.04275168 0.02496650 0.03201452
v 0.04402286 0.00899797 0.03171510
v 0.04402520 0.01335236 0.03171510
v 0.04437337 0.01352855 0.03126597
v 0.04437337 0.02055456 0.03126264
v 0.04435935 0.02145349 0.03124601
v 0.04431495 0.02235242 0.03118945
v 0.04423316 0.02325134 0.03108299
v 0.04387331 0.02325134 0.03153212
v 0.04245491 0.02576115 0.03192470
v 0.04227031 0.02636522 0.03177166
v 0.04162771 0.02685424 0.03195796
v 0.04143142 0.02734326 0.03182156
v 0.04088229 0.02768125 0.03195464
v 0.04002003 0.02772080 0.03242373
v 0.03912039 0.02862333 0.03242373
v 0.03850349 0.02890739 0.03260339
v 0.02860976 0.03880277 0.03260339
v 0.02742738 0.04032016 0.03242373
v 0.02704181 0.04173327 0.03182156
v 0.02655344 0.04192744 0.03195796
v 0.02738531 0.04118313 0.03195464
v 0.02606039 0.04257107 0.03177166
v 0.02545984 0.04275805 0.03192137
v 0.02466536 0.04305289 0.03201452
v 0.02378674 0.04296660 0.03236385
v 0.02295019 0.04313200 0.03245035
v 0.02295019 0.04372170 0.03199789
v 0.02205289 0.04381159 0.03207108
v 0.02162293 0.04383316 0.03208772
v 0.03021276 0.00899797 0.03240377
v 0.02162293 0.02315785 0.03244037
v 0.02957016 0.00899797 0.03191804
v 0.04377984 0.02416465 0.03130256
v 0.04320033 0.02460692 0.03179827
v 0.04408128 0.00899797 0.03164191
v 0.04437337 0.01065199 0.03126597
v 0.04446450 0.01352855 0.03112624
v 0.04482670 0.02055456 0.03055401
v 0.04481034 0.02145349 0.03052074
v 0.04480333 0.02234522 0.03037103
v 0.04415138 0.02387340 0.03097320
v 0.04460704 0.02325134 0.03044422
v 0.04305779 0.02521100 0.03165522
v 0.04280075 0.02604161 0.03141235
v 0.04314892 0.02631848 0.03081683
v 0.04251099 0.02685424 0.03113289
v 0.04207870 0.02685424 0.03158202
v 0.04232873 0.02734326 0.03093328
v 0.04175156 0.02764170 0.03124933
v 0.04146414 0.02827095 0.03096655
v 0.04114167 0.02794014 0.03156539
v 0.04054113 0.02824578 0.03182822
v 0.03998265 0.02858737 0.03195796
v 0.03192792 0.03582193 0.03242373
v 0.02832702 0.03942123 0.03242373
v 0.02828729 0.04028061 0.03195796
v 0.03099089 0.03758383 0.03195796
v 0.02918693 0.03938527 0.03195796
v 0.02797417 0.04176563 0.03096655
v 0.02734092 0.04204610 0.03124933
v 0.02704181 0.04263220 0.03093328
v 0.02655344 0.04238050 0.03158202
v 0.02794847 0.04084154 0.03182822
v 0.02764236 0.04144202 0.03156539
v 0.02655344 0.04280839 0.03113289
v 0.02602066 0.04344842 0.03081683
v 0.02574025 0.04309964 0.03141235
v 0.02490604 0.04335493 0.03165522
v 0.02430784 0.04349876 0.03179827
v 0.02385217 0.04358146 0.03187812
v 0.02295019 0.04417116 0.03153212
v 0.02205289 0.04425746 0.03163858
v 0.02162293 0.04428263 0.03166520
v 0.02162293 0.02282345 0.03224741
v 0.02907477 0.00899797 0.03136577
v 0.02162293 0.02250344 0.03206110
v 0.02162293 0.02198925 0.03172175
v 0.04405324 0.02447388 0.03082016
v 0.04342699 0.02496650 0.03134914
v 0.04437103 0.00899797 0.03126597
v 0.04444815 0.00899797 0.03114953
v 0.04482670 0.01244984 0.03055401
v 0.04504635 0.02055456 0.03010155
v 0.04502999 0.02145349 0.03007161
v 0.04501130 0.02203599 0.03002503
v 0.04498326 0.02263648 0.02994518
v 0.04433131 0.02416465 0.03049080
v 0.04492017 0.02325134 0.02975555
v 0.04332418 0.02572159 0.03105305
v 0.04352981 0.02599486 0.03048747
v 0.04332418 0.02660254 0.03021799
v 0.04296432 0.02688301 0.03048747
v 0.04249230 0.02753383 0.03044422
v 0.04210206 0.02797970 0.03044422
v 0.04165341 0.02846152 0.03044422
v 0.04120943 0.02891098 0.03044422
v 0.04056917 0.02916987 0.03096655
v 0.04085659 0.02855860 0.03126597
v 0.04024202 0.02884626 0.03156539
v 0.03244902 0.03634331 0.03182822
v 0.02884811 0.03994261 0.03182822
v 0.02825925 0.04115436 0.03126597
v 0.02977346 0.03996778 0.03096655
v 0.02861444 0.04151034 0.03044422
v 0.02816578 0.04195261 0.03044422
v 0.02768441 0.04240567 0.03044422
v 0.02723343 0.04279041 0.03044422
v 0.02658148 0.04326504 0.03048747
v 0.02854667 0.04053950 0.03156539
v 0.02630341 0.04362461 0.03021799
v 0.02569352 0.04382957 0.03048747
v 0.02542012 0.04362461 0.03105305
v 0.02466536 0.04372889 0.03134914
v 0.02386386 0.04408127 0.03130256
v 0.02357410 0.04445162 0.03097320
v 0.02295019 0.04453073 0.03108299
v 0.02205289 0.04461343 0.03118945
v 0.02162293 0.04446960 0.03142899
v 0.02884811 0.00899797 0.03108964
v 0.02162293 0.02150742 0.03128593
v 0.02867519 0.00899797 0.03083680
v 0.04421914 0.02489458 0.03022132
v 0.04396678 0.02513909 0.03049080
v 0.04482202 0.00899797 0.03054403
v 0.04504168 0.00899797 0.03009489
v 0.04504635 0.01352855 0.03010155
v 0.04523329 0.02055456 0.02954595
v 0.04520525 0.02145349 0.02954595
v 0.04511879 0.02234522 0.02960584
v 0.04506504 0.02325134 0.02930642
v 0.04479165 0.02408555 0.02947276
v 0.04500663 0.02373676 0.02912344
v 0.04409296 0.02549506 0.02998511
v 0.04395743 0.02598048 0.02962913
v 0.04312789 0.02720302 0.02982541
v 0.04227031 0.02817027 0.02993520
v 0.04137768 0.02907639 0.02994851
v 0.04076078 0.02936045 0.03044422
v 0.02944631 0.03964057 0.03156539
v 0.02878034 0.04167574 0.02994851
v 0.02787135 0.04257107 0.02993520
v 0.02690161 0.04342685 0.02982541
v 0.02658148 0.04374687 0.02953265
v 0.02567950 0.04425386 0.02962913
v 0.02519579 0.04439409 0.02998511
v 0.02483827 0.04426465 0.03049080
v 0.02417230 0.04435094 0.03082016
v 0.02386386 0.04463141 0.03049080
v 0.02295019 0.04490468 0.03044422
v 0.02204120 0.04509885 0.03037103
v 0.02162293 0.04510245 0.03044089
v 0.02162293 0.04463501 0.03121606
v 0.02162293 0.02105077 0.03083680
v 0.02846956 0.00899797 0.03049080
v 0.04436636 0.02513909 0.02962913
v 0.04522394 0.00899797 0.02954928
v 0.04522862 0.01244984 0.02954928
v 0.04523329 0.01605274 0.02954595
v 0.04542490 0.02055456 0.02864436
v 0.04539218 0.02145349 0.02864436
v 0.04532910 0.02235242 0.02864436
v 0.04518188 0.02325134 0.02864436
v 0.04464443 0.02505279 0.02864436
v 0.04503700 0.02385183 0.02864436
v 0.04491316 0.02430129 0.02864436
v 0.04419578 0.02569642 0.02938626
v 0.04344802 0.02688301 0.02953265
v 0.04324706 0.02736483 0.02922657
v 0.04276102 0.02776755 0.02957922
v 0.04239416 0.02830691 0.02933636
v 0.04150853 0.02920943 0.02934967
v 0.03341409 0.03730696 0.02934967
v 0.02891120 0.04180518 0.02934967
v 0.02800922 0.04269332 0.02933636
v 0.02746710 0.04306009 0.02957922
v 0.02706518 0.04354551 0.02922657
v 0.02539442 0.04449837 0.02938626
v 0.02483827 0.04466018 0.02962913
v 0.02459292 0.04451635 0.03022132
v 0.02378207 0.04509166 0.02947276
v 0.02295019 0.04521751 0.02975555
v 0.02233563 0.04527864 0.02994518
v 0.02173509 0.04531100 0.03002503
v 0.02162293 0.04527145 0.03011818
v 0.02162293 0.02067682 0.03036770
v 0.02162293 0.00899797 0.01500069
v 0.04541322 0.00899797 0.02864436
v 0.04541555 0.00975306 0.02864436
v 0.04526834 0.01352855 0.02936963
v 0.04542257 0.01515381 0.02864436
v 0.04545528 0.02145349 0.02774609
v 0.04548332 0.00899797 0.02774942
v 0.04548332 0.01352855 0.02774942
v 0.04548332 0.02055456 0.02774609
v 0.04538985 0.02235242 0.02774609
v 0.04524497 0.02325134 0.02774609
v 0.04471453 0.02505279 0.02774609
v 0.04427756 0.02584385 0.02864436
v 0.04494821 0.02441995 0.02774609
v 0.04506972 0.02396689 0.02774609
v 0.04403688 0.02629331 0.02864436
v 0.04330081 0.02742955 0.02864436
v 0.04292693 0.02787901 0.02864436
v 0.04247594 0.02839320 0.02864436
v 0.04369104 0.02685424 0.02864436
v 0.04204832 0.02884626 0.02864436
v 0.04159967 0.02929932 0.02864436
v 0.02990431 0.04099615 0.02864436
v 0.02900467 0.04189508 0.02864436
v 0.02854667 0.04234814 0.02864436
v 0.02809568 0.04277243 0.02864436
v 0.02758394 0.04322189 0.02864436
v 0.02713528 0.04359944 0.02864436
v 0.02655344 0.04399137 0.02864436
v 0.02599496 0.04433656 0.02864436
v 0.02554163 0.04457747 0.02864436
v 0.02475415 0.04493704 0.02864436
v 0.02343390 0.04530381 0.02912344
v 0.02295019 0.04536493 0.02930642
v 0.02204120 0.04541527 0.02960584
v 0.02162293 0.04531459 0.03003168
v 0.02162293 0.04545483 0.02957922
v 0.02162293 0.00899797 -0.00049274
v 0.04542723 0.00899797 0.02849798
v 0.04546228 0.02145349 0.02684450
v 0.04539920 0.02235242 0.02684450
v 0.04549500 0.02055456 0.02684450
v 0.04549500 0.00899797 0.02684783
v 0.04549500 0.01352855 0.02684783
v 0.04525666 0.02325134 0.02684450
v 0.04472622 0.02505279 0.02684450
v 0.04432196 0.02591936 0.02684450
v 0.04431495 0.02590857 0.02774609
v 0.04507205 0.02398846 0.02684450
v 0.04495054 0.02443793 0.02684450
v 0.04407427 0.02635803 0.02774609
v 0.04333586 0.02747630 0.02774609
v 0.04296432 0.02792576 0.02774609
v 0.04376114 0.02685424 0.02774609
v 0.04251333 0.02843995 0.02774609
v 0.04209038 0.02888941 0.02774609
v 0.04163939 0.02934247 0.02774609
v 0.03039736 0.04058984 0.02774609
v 0.02904439 0.04194182 0.02774609
v 0.02859107 0.04238769 0.02774609
v 0.02814008 0.04281558 0.02774609
v 0.02763067 0.04326504 0.02774609
v 0.02717734 0.04363540 0.02774609
v 0.02655344 0.04405969 0.02774609
v 0.02605805 0.04437252 0.02774609
v 0.02560940 0.04461343 0.02774609
v 0.02475415 0.04501255 0.02774609
v 0.02400172 0.04521032 0.02864436
v 0.02355073 0.04533617 0.02864436
v 0.02295019 0.04548000 0.02864436
v 0.02205289 0.04562742 0.02864436
v 0.02162293 0.04556989 0.02907353
v 0.04364898 0.00899797 -0.00049274
v 0.02162293 0.01352855 -0.00049274
v 0.04546228 0.02145349 0.02594623
v 0.04537816 0.02235242 0.00075485
v 0.04525666 0.02325134 0.01784520
v 0.04545528 0.02145349 0.00075485
v 0.04549500 0.02055456 0.00075485
v 0.04549500 0.00899797 0.00075153
v 0.04508140 0.02398127 0.01425214
v 0.04507673 0.02399206 0.02504464
v 0.04472622 0.02505279 0.02054665
v 0.04432196 0.02593014 0.01605200
v 0.04432196 0.02592655 0.02054665
v 0.04432196 0.02592295 0.02414637
v 0.04495054 0.02444152 0.02504464
v 0.04408128 0.02636882 0.02504464
v 0.04407660 0.02636882 0.02684450
v 0.04377283 0.02685424 0.02684450
v 0.04334287 0.02748349 0.02684450
v 0.04296899 0.02793295 0.02684450
v 0.04252268 0.02844354 0.02684450
v 0.04209973 0.02889660 0.02684450
v 0.04164874 0.02934966 0.02684450
v 0.02905374 0.04194542 0.02684450
v 0.03355195 0.03744719 0.02684450
v 0.02859808 0.04239848 0.02684450
v 0.02814943 0.04281917 0.02684450
v 0.02763534 0.04326864 0.02684450
v 0.02718435 0.04363899 0.02684450
v 0.02655344 0.04407048 0.02684450
v 0.02606973 0.04437611 0.02684450
v 0.02561874 0.04462062 0.02684450
v 0.02475415 0.04502334 0.02684450
v 0.02413959 0.04524987 0.02684450
v 0.02411856 0.04524268 0.02774609
v 0.02366757 0.04536853 0.02774609
v 0.02295019 0.04554472 0.02774609
v 0.02205289 0.04568495 0.02774609
v 0.02162293 0.04571731 0.02774609
v 0.02162293 0.04568854 0.02817194
v 0.02162293 0.04565619 0.02864436
v 0.04364898 0.01352855 -0.00049274
v 0.04454862 0.00899797 -0.00046613
v 0.02162293 0.04394463 -0.00048941
v 0.04518889 0.02235242 -0.00003695
v 0.04511879 0.02325134 0.00004955
v 0.04504869 0.02386261 0.00018262
v 0.04524030 0.02325134 0.00075485
v 0.04525198 0.02325134 0.01245228
v 0.04508140 0.02397767 0.01155401
v 0.04508140 0.02398127 0.01335387
v 0.04522862 0.02145349 -0.00006024
v 0.04524731 0.02055456 -0.00006690
v 0.04549500 0.01352855 0.00075153
v 0.04524731 0.00899797 -0.00006357
v 0.04524731 0.01352855 -0.00006690
v 0.04472388 0.02505279 0.01784520
v 0.04495054 0.02444152 0.02054665
v 0.04495054 0.02443433 0.01694694
v 0.04470051 0.02505279 0.00165312
v 0.04431261 0.02590138 0.00075485
v 0.04407660 0.02636163 0.00525284
v 0.04408128 0.02636882 0.01065242
v 0.04408128 0.02637601 0.01425214
v 0.04408128 0.02637601 0.01964506
v 0.04377750 0.02685424 0.02234651
v 0.04334287 0.02748349 0.01964506
v 0.04296899 0.02793295 0.02144492
v 0.04252268 0.02844354 0.01155401
v 0.04209973 0.02889660 0.00075485
v 0.04164874 0.02934966 0.00075485
v 0.02905374 0.04194542 0.00075485
v 0.03355195 0.03744719 0.00075485
v 0.02859808 0.04239848 0.00075485
v 0.02814475 0.04281558 0.00075485
v 0.02762132 0.04326504 0.00075485
v 0.02718435 0.04363899 0.02594623
v 0.02655344 0.04407048 0.01425214
v 0.02607674 0.04438331 0.01605200
v 0.02607207 0.04437971 0.02234651
v 0.02562108 0.04462062 0.02594623
v 0.02562809 0.04462062 0.01784520
v 0.02475415 0.04502334 0.01964506
v 0.02414193 0.04524987 0.02324478
v 0.02369094 0.04537572 0.02054665
v 0.02368860 0.04537212 0.02684450
v 0.02295019 0.04555191 0.02684450
v 0.02205289 0.04569574 0.02684450
v 0.02162293 0.04572450 0.02727367
v 0.04454862 0.02055456 -0.00046613
v 0.02385217 0.04394463 -0.00048941
v 0.02565380 0.04304570 -0.00048941
v 0.04274934 0.02595531 -0.00048941
v 0.04364898 0.02415386 -0.00048941
v 0.02162293 0.04437252 -0.00047611
v 0.04454862 0.02235242 -0.00043618
v 0.04454862 0.02325134 -0.00034968
v 0.04439674 0.02505279 -0.00006357
v 0.04493652 0.02439837 0.00075485
v 0.04507205 0.02394531 0.00075485
v 0.04424018 0.02576834 0.00007616
v 0.04469818 0.02505279 0.00075485
v 0.04454862 0.02145349 -0.00045947
v 0.04406960 0.02635084 0.00075485
v 0.04407427 0.02635444 0.00255471
v 0.04375881 0.02685424 0.00165312
v 0.04377750 0.02685424 0.01515373
v 0.04334053 0.02747630 0.00975415
v 0.04296899 0.02792576 0.00795429
v 0.04252034 0.02844354 0.00525284
v 0.04156462 0.02926696 0.00007949
v 0.04251567 0.02844354 0.00075485
v 0.04244323 0.02836084 0.00008614
v 0.02896962 0.04186631 0.00007949
v 0.02806764 0.04274007 0.00008614
v 0.02711192 0.04358865 0.00013605
v 0.02717033 0.04363180 0.00075485
v 0.02718202 0.04363899 0.02324478
v 0.02655344 0.04405969 0.00255471
v 0.02607674 0.04438331 0.01515373
v 0.02562809 0.04462062 0.01605200
v 0.02475415 0.04500536 0.00435457
v 0.02413959 0.04524987 0.01964506
v 0.02414193 0.04524987 0.02144492
v 0.02367925 0.04537932 0.01335387
v 0.02295019 0.04555551 0.02414637
v 0.02205289 0.04569933 0.02594623
v 0.02162293 0.04572810 0.02684450
v 0.02162293 0.04484715 -0.00044616
v 0.02205289 0.04484715 -0.00043618
v 0.02475415 0.04394463 -0.00046280
v 0.02745308 0.04214678 -0.00045614
v 0.02835272 0.04124785 -0.00045947
v 0.04364898 0.02505279 -0.00046280
v 0.04004574 0.02955102 -0.00045947
v 0.04094772 0.02864850 -0.00045947
v 0.04184970 0.02774957 -0.00045614
v 0.04372609 0.02602363 -0.00015007
v 0.04347606 0.02685424 -0.00002032
v 0.04328913 0.02741157 0.00013605
v 0.04375647 0.02685424 0.00075485
v 0.04333586 0.02746551 0.00075485
v 0.04333586 0.02746911 0.00255471
v 0.04296665 0.02792216 0.00345298
v 0.04185671 0.02865928 -0.00012013
v 0.04095940 0.02956181 -0.00012345
v 0.04296432 0.02791857 0.00075485
v 0.04274700 0.02772440 -0.00008686
v 0.03016369 0.04035971 -0.00012345
v 0.02926405 0.04125504 -0.00012345
v 0.02835973 0.04215756 -0.00012013
v 0.02742971 0.04304570 -0.00008686
v 0.02655344 0.04377563 -0.00002032
v 0.02546686 0.04453792 0.00007616
v 0.02605337 0.04436892 0.00075485
v 0.02655344 0.04405610 0.00075485
v 0.02605337 0.04437252 0.00165312
v 0.02607207 0.04437971 0.01155401
v 0.02560706 0.04461343 0.00345298
v 0.02561874 0.04461703 0.00975415
v 0.02475415 0.04499817 0.00075485
v 0.02410688 0.04523908 0.00435457
v 0.02412791 0.04524268 0.01155401
v 0.02367692 0.04537932 0.01155401
v 0.02367925 0.04537932 0.01245228
v 0.02295019 0.04555551 0.02234651
v 0.02162293 0.04573170 0.02547381
v 0.02205289 0.04569933 0.02504464
v 0.02162293 0.04516717 -0.00025653
v 0.02162293 0.04550517 -0.00005026
v 0.02205289 0.04548719 -0.00003695
v 0.02295019 0.04484715 -0.00034968
v 0.02572156 0.04402374 -0.00015007
v 0.02655344 0.04304570 -0.00041622
v 0.02475415 0.04469613 -0.00006357
v 0.04274934 0.02685424 -0.00041622
v 0.02560005 0.04460984 0.00075485
v 0.02356242 0.04534695 0.00018262
v 0.02409519 0.04523549 0.00075485
v 0.02364420 0.04537212 0.00075485
v 0.02295019 0.04554472 0.00345298
v 0.02295019 0.04555191 0.00885256
v 0.02162293 0.04573170 0.02504464
v 0.02205289 0.04569574 0.01874680
v 0.02162293 0.04572810 0.01335387
v 0.02162293 0.04561663 0.00033899
v 0.02295019 0.04541887 0.00004955
v 0.02205289 0.04567776 0.00075485
v 0.02295019 0.04553753 0.00075485
v 0.02295019 0.04554112 0.00165312
v 0.02205289 0.04568854 0.00975415
v 0.02205289 0.04569214 0.01335387
v 0.02162293 0.04572450 0.00928173
v 0.02162293 0.04571371 0.00075485
v 0.02162293 0.04571731 0.00165312
v 0.02162293 0.04572091 0.00525284
f 1 2 11
f 1 11 25
f 1 25 13
f 1 13 3
f 1 3 14
f 1 14 4
f 1 4 5
f 1 5 6
f 1 6 7
f 1 7 8
f 1 8 9
f 1 9 10
f 1 10 12
f 1 12 2
f 2 12 26
f 2 26 11
f 3 13 27
f 3 27 45
f 3 45 64
f 3 64 83
f 3 83 116
f 3 116 146
f 3 146 180
f 3 180 182
f 3 182 225
f 3 225 269
f 3 269 271
f 3 271 304
f 3 304 336
f 3 336 373
f 3 373 408
f 3 408 450
f 3 450 462
f 3 462 415
f 3 415 378
f 3 378 342
f 3 342 374
f 3 374 337
f 3 337 306
f 3 306 275
f 3 275 274
f 3 274 231
f 3 231 230
f 3 230 185
f 3 185 151
f 3 151 122
f 3 122 121
f 3 121 89
f 3 89 88
f 3 88 68
f 3 68 50
f 3 50 33
f 3 33 30
f 3 30 14
f 4 15 16
f 4 16 5
f 4 14 17
f 4 17 18
f 4 18 31
f 4 31 15
f 5 16 6
f 6 16 19
f 6 19 20
f 6 20 7
f 7 20 8
f 8 20 21
f 8 21 9
f 9 22 23
f 9 23 10
f 9 21 22
f 10 23 24
f 10 24 12
f 11 26 25
f 12 24 43
f 12 43 62
f 12 62 82
f 12 82 115
f 12 115 145
f 12 145 179
f 12 179 223
f 12 223 268
f 12 268 302
f 12 302 301
f 12 301 334
f 12 334 371
f 12 371 372
f 12 372 407
f 12 407 448
f 12 448 447
f 12 447 446
f 12 446 496
f 12 496 535
f 12 535 574
f 12 574 590
f 12 590 592
f 12 592 600
f 12 600 603
f 12 603 602
f 12 602 601
f 12 601 593
f 12 593 577
f 12 577 576
f 12 576 536
f 12 536 502
f 12 502 451
f 12 451 409
f 12 409 373
f 12 373 336
f 12 336 335
f 12 335 303
f 12 303 270
f 12 270 227
f 12 227 226
f 12 226 224
f 12 224 181
f 12 181 147
f 12 147 117
f 12 117 84
f 12 84 65
f 12 65 63
f 12 63 44
f 12 44 26
f 13 25 28
f 13 28 29
f 13 29 27
f 14 30 17
f 15 31 32
f 15 32 19
f 15 19 16
f 17 30 18
f 18 30 33
f 18 33 34
f 18 34 35
f 18 35 31
f 19 32 36
f 19 36 37
f 19 37 20
f 20 37 38
f 20 38 21
f 21 38 39
f 21 39 40
f 21 40 22
f 22 40 41
f 22 41 42
f 22 42 23
f 23 42 24
f 24 42 43
f 25 26 28
f 26 44 28
f 27 29 44
f 27 44 45
f 28 44 29
f 31 46 47
f 31 47 32
f 31 35 46
f 32 48 49
f 32 49 36
f 32 47 48
f 33 50 51
f 33 51 52
f 33 52 34
f 34 52 35
f 35 52 70
f 35 70 53
f 35 53 54
f 35 54 46
f 36 55 56
f 36 56 37
f 36 49 55
f 37 56 38
f 38 57 39
f 38 56 57
f 39 57 40
f 40 57 58
f 40 58 59
f 40 59 41
f 41 59 60
f 41 60 61
f 41 61 43
f 41 43 42
f 43 61 62
f 44 63 45
f 45 63 65
f 45 65 64
f 46 54 66
f 46 66 47
f 47 66 48
f 48 67 49
f 48 66 67
f 49 67 55
f 50 68 69
f 50 69 51
f 51 69 52
f 52 69 70
f 53 70 92
f 53 92 71
f 53 71 54
f 54 71 72
f 54 72 73
f 54 73 66
f 55 74 75
f 55 75 56
f 55 67 74
f 56 75 76
f 56 76 77
f 56 77 57
f 57 77 78
f 57 78 58
f 58 78 79
f 58 79 80
f 58 80 59
f 59 80 60
f 60 80 81
f 60 81 61
f 61 81 62
f 62 81 82
f 64 65 84
f 64 84 83
f 66 73 85
f 66 85 86
f 66 86 67
f 67 86 87
f 67 87 74
f 68 88 69
f 69 88 89
f 69 89 90
f 69 90 91
f 69 91 70
f 70 91 90
f 70 90 92
f 71 92 123
f 71 123 93
f 71 93 94
f 71 94 72
f 72 94 95
f 72 95 96
f 72 96 97
f 72 97 73
f 73 97 85
f 74 98 99
f 74 99 100
f 74 100 75
f 74 87 98
f 75 100 101
f 75 101 102
f 75 102 76
f 76 102 103
f 76 103 104
f 76 104 105
f 76 105 77
f 77 105 106
f 77 106 107
f 77 107 78
f 78 107 108
f 78 108 109
f 78 109 79
f 79 109 110
f 79 110 111
f 79 111 112
f 79 112 80
f 80 112 113
f 80 113 81
f 81 113 114
f 81 114 82
f 82 114 115
f 83 84 116
f 84 117 116
f 85 118 119
f 85 119 86
f 85 97 118
f 86 119 87
f 87 120 98
f 87 119 120
f 89 121 90
f 90 121 122
f 90 122 123
f 90 123 92
f 93 124 94
f 93 123 152
f 93 152 124
f 94 124 95
f 95 124 125
f 95 125 96
f 96 125 126
f 96 126 127
f 96 127 97
f 97 127 118
f 98 128 99
f 98 120 128
f 99 129 130
f 99 130 101
f 99 101 100
f 99 128 129
f 101 130 131
f 101 131 132
f 101 132 133
f 101 133 102
f 102 133 103
f 103 133 104
f 104 133 105
f 105 133 134
f 105 134 106
f 106 134 135
f 106 135 108
f 106 108 107
f 108 135 136
f 108 136 137
f 108 137 138
f 108 138 110
f 108 110 109
f 110 138 139
f 110 139 140
f 110 140 111
f 111 140 141
f 111 141 112
f 112 141 142
f 112 142 113
f 113 142 143
f 113 143 114
f 114 143 144
f 114 144 145
f 114 145 115
f 116 117 147
f 116 147 146
f 118 127 148
f 118 148 149
f 118 149 119
f 119 149 120
f 120 149 150
f 120 150 128
f 122 151 123
f 123 151 152
f 124 152 186
f 124 186 153
f 124 153 154
f 124 154 155
f 124 155 125
f 125 155 156
f 125 156 126
f 126 156 157
f 126 157 158
f 126 158 127
f 127 158 148
f 128 150 159
f 128 159 129
f 129 159 160
f 129 160 161
f 129 161 130
f 130 161 131
f 131 161 162
f 131 162 163
f 131 163 164
f 131 164 132
f 132 164 165
f 132 165 166
f 132 166 133
f 133 166 134
f 134 167 136
f 134 136 135
f 134 166 167
f 136 167 168
f 136 168 137
f 137 169 170
f 137 170 138
f 137 168 171
f 137 171 169
f 138 170 139
f 139 172 173
f 139 173 140
f 139 170 172
f 140 173 174
f 140 174 141
f 141 174 175
f 141 175 142
f 142 175 176
f 142 176 143
f 143 176 144
f 144 176 177
f 144 177 178
f 144 178 145
f 145 178 179
f 146 147 180
f 147 181 182
f 147 182 180
f 148 158 183
f 148 183 184
f 148 184 149
f 149 184 150
f 150 184 159
f 151 185 152
f 152 185 186
f 153 187 154
f 153 186 187
f 154 187 188
f 154 188 155
f 155 188 189
f 155 189 156
f 156 189 190
f 156 190 157
f 157 191 158
f 157 190 192
f 157 192 191
f 158 191 183
f 159 184 193
f 159 193 160
f 160 194 195
f 160 195 196
f 160 196 197
f 160 197 162
f 160 162 161
f 160 193 194
f 162 197 198
f 162 198 199
f 162 199 200
f 162 200 201
f 162 201 202
f 162 202 163
f 163 202 203
f 163 203 164
f 164 203 165
f 165 203 204
f 165 204 166
f 166 204 167
f 167 205 168
f 167 204 205
f 168 206 171
f 168 205 207
f 168 207 208
f 168 208 206
f 169 209 210
f 169 210 211
f 169 211 212
f 169 212 172
f 169 172 170
f 169 171 213
f 169 213 214
f 169 214 209
f 171 206 213
f 172 212 211
f 172 211 215
f 172 215 216
f 172 216 217
f 172 217 218
f 172 218 173
f 173 218 219
f 173 219 174
f 174 219 175
f 175 219 220
f 175 220 176
f 176 220 177
f 177 220 221
f 177 221 222
f 177 222 178
f 178 222 223
f 178 223 179
f 181 224 182
f 182 224 226
f 182 226 227
f 182 227 225
f 183 191 228
f 183 228 229
f 183 229 184
f 184 229 193
f 185 230 186
f 186 230 231
f 186 231 187
f 187 231 232
f 187 232 188
f 188 232 276
f 188 276 233
f 188 233 234
f 188 234 189
f 189 234 235
f 189 235 190
f 190 235 236
f 190 236 192
f 191 192 237
f 191 237 228
f 192 236 238
f 192 238 237
f 193 239 194
f 193 229 239
f 194 239 195
f 195 239 240
f 195 240 241
f 195 241 242
f 195 242 198
f 195 198 196
f 196 198 197
f 198 242 243
f 198 243 244
f 198 244 200
f 198 200 199
f 200 244 245
f 200 245 246
f 200 246 247
f 200 247 248
f 200 248 201
f 201 248 249
f 201 249 202
f 202 249 250
f 202 250 203
f 203 250 207
f 203 207 204
f 204 207 205
f 206 208 213
f 207 250 251
f 207 251 213
f 207 213 208
f 209 214 252
f 209 252 253
f 209 253 254
f 209 254 255
f 209 255 256
f 209 256 211
f 209 211 210
f 211 257 258
f 211 258 216
f 211 216 215
f 211 256 257
f 213 251 289
f 213 289 259
f 213 259 214
f 214 259 252
f 216 258 260
f 216 260 261
f 216 261 262
f 216 262 217
f 217 262 218
f 218 262 263
f 218 263 219
f 219 263 264
f 219 264 220
f 220 264 221
f 221 264 265
f 221 265 266
f 221 266 222
f 222 266 267
f 222 267 223
f 223 267 268
f 225 227 269
f 227 270 271
f 227 271 269
f 228 272 273
f 228 273 239
f 228 239 229
f 228 237 272
f 231 274 232
f 232 274 275
f 232 275 276
f 233 276 308
f 233 308 277
f 233 277 234
f 234 277 278
f 234 278 235
f 235 279 236
f 235 278 279
f 236 280 238
f 236 279 280
f 237 238 281
f 237 281 272
f 238 280 282
f 238 282 281
f 239 273 240
f 240 273 283
f 240 283 241
f 241 283 284
f 241 284 285
f 241 285 242
f 242 285 243
f 243 286 244
f 243 285 286
f 244 286 245
f 245 287 246
f 245 286 287
f 246 287 288
f 246 288 247
f 247 288 254
f 247 254 253
f 247 253 248
f 248 253 249
f 249 253 289
f 249 289 250
f 250 289 251
f 252 259 289
f 252 289 253
f 254 290 255
f 254 288 287
f 254 287 290
f 255 291 256
f 255 290 291
f 256 291 257
f 257 292 258
f 257 291 292
f 258 292 260
f 260 292 293
f 260 293 294
f 260 294 295
f 260 295 261
f 261 295 262
f 262 295 296
f 262 296 297
f 262 297 263
f 263 297 264
f 264 297 265
f 265 297 298
f 265 298 299
f 265 299 266
f 266 299 300
f 266 300 267
f 267 300 301
f 267 301 302
f 267 302 268
f 270 303 271
f 271 303 304
f 272 305 283
f 272 283 273
f 272 281 305
f 275 306 276
f 276 306 307
f 276 307 308
f 277 309 278
f 277 308 309
f 278 309 310
f 278 310 311
f 278 311 279
f 279 311 280
f 280 311 312
f 280 312 282
f 281 282 313
f 281 313 305
f 282 314 315
f 282 315 313
f 282 312 314
f 283 305 316
f 283 316 284
f 284 317 285
f 284 316 317
f 285 317 318
f 285 318 319
f 285 319 286
f 286 319 320
f 286 320 321
f 286 321 287
f 287 321 322
f 287 322 290
f 290 323 291
f 290 322 323
f 291 323 324
f 291 324 325
f 291 325 292
f 292 326 293
f 292 325 326
f 293 327 294
f 293 326 327
f 294 327 295
f 295 327 328
f 295 328 329
f 295 329 296
f 296 329 297
f 297 329 298
f 298 330 331
f 298 331 299
f 298 329 330
f 299 331 332
f 299 332 300
f 300 332 333
f 300 333 301
f 301 333 334
f 303 335 304
f 304 335 336
f 305 313 316
f 306 337 338
f 306 338 339
f 306 339 307
f 307 339 308
f 308 340 309
f 308 339 340
f 309 341 310
f 309 340 342
f 309 342 343
f 309 343 344
f 309 344 341
f 310 341 311
f 311 345 346
f 311 346 312
f 311 341 345
f 312 346 314
f 313 347 348
f 313 348 316
f 313 315 349
f 313 349 347
f 314 346 350
f 314 350 349
f 314 349 315
f 316 348 351
f 316 351 318
f 316 318 317
f 318 352 353
f 318 353 354
f 318 354 320
f 318 320 319
f 318 351 355
f 318 355 352
f 320 354 356
f 320 356 321
f 321 356 357
f 321 357 322
f 322 357 358
f 322 358 359
f 322 359 323
f 323 359 360
f 323 360 324
f 324 361 362
f 324 362 326
f 324 326 325
f 324 360 361
f 326 362 363
f 326 363 364
f 326 364 365
f 326 365 327
f 327 365 366
f 327 366 367
f 327 367 328
f 328 367 330
f 328 330 329
f 330 367 368
f 330 368 331
f 331 368 369
f 331 369 332
f 332 369 370
f 332 370 333
f 333 371 334
f 333 370 372
f 333 372 371
f 337 374 338
f 338 374 340
f 338 340 339
f 340 374 342
f 341 375 376
f 341 376 345
f 341 344 377
f 341 377 375
f 342 378 379
f 342 379 343
f 343 379 377
f 343 377 344
f 345 376 380
f 345 380 346
f 346 380 350
f 347 381 382
f 347 382 383
f 347 383 348
f 347 349 381
f 348 383 386
f 348 386 351
f 349 350 384
f 349 384 385
f 349 385 381
f 350 380 384
f 351 386 355
f 352 387 388
f 352 388 353
f 352 355 389
f 352 389 387
f 353 388 390
f 353 390 354
f 354 390 391
f 354 391 356
f 355 386 389
f 356 391 357
f 357 391 392
f 357 392 393
f 357 393 358
f 358 393 394
f 358 394 359
f 359 394 360
f 360 394 395
f 360 395 396
f 360 396 361
f 361 396 397
f 361 397 362
f 362 397 363
f 363 397 398
f 363 398 399
f 363 399 364
f 364 399 400
f 364 400 365
f 365 400 401
f 365 401 366
f 366 401 402
f 366 402 367
f 367 402 403
f 367 403 368
f 368 404 405
f 368 405 369
f 368 403 404
f 369 405 406
f 369 406 370
f 370 406 407
f 370 407 372
f 373 409 449
f 373 449 408
f 375 410 376
f 375 377 414
f 375 414 410
f 376 411 412
f 376 412 380
f 376 410 413
f 376 413 411
f 377 379 378
f 377 378 415
f 377 415 461
f 377 461 414
f 380 412 458
f 380 458 416
f 380 416 417
f 380 417 384
f 381 418 419
f 381 419 420
f 381 420 421
f 381 421 382
f 381 385 422
f 381 422 465
f 381 465 418
f 382 421 423
f 382 423 424
f 382 424 386
f 382 386 383
f 384 417 385
f 385 417 422
f 386 424 425
f 386 425 389
f 387 389 426
f 387 426 388
f 388 427 428
f 388 428 390
f 388 426 427
f 389 425 426
f 390 428 429
f 390 429 391
f 391 429 430
f 391 430 392
f 392 430 393
f 393 431 394
f 393 430 432
f 393 432 431
f 394 431 433
f 394 433 395
f 395 433 396
f 396 433 434
f 396 434 397
f 397 435 436
f 397 436 398
f 397 434 435
f 398 436 437
f 398 437 399
f 399 437 438
f 399 438 400
f 400 438 439
f 400 439 401
f 401 439 402
f 402 439 440
f 402 440 441
f 402 441 442
f 402 442 403
f 403 442 443
f 403 443 404
f 404 443 444
f 404 444 405
f 405 444 406
f 406 444 445
f 406 445 446
f 406 446 447
f 406 447 448
f 406 448 407
f 408 449 497
f 408 497 450
f 409 451 498
f 409 498 449
f 410 414 413
f 411 452 453
f 411 453 454
f 411 454 455
f 411 455 456
f 411 456 412
f 411 413 452
f 412 456 457
f 412 457 458
f 413 459 452
f 413 414 459
f 414 460 459
f 414 461 460
f 415 462 463
f 415 463 460
f 415 460 461
f 416 458 465
f 416 465 422
f 416 422 417
f 418 464 419
f 418 465 466
f 418 466 464
f 419 464 467
f 419 467 468
f 419 468 469
f 419 469 470
f 419 470 471
f 419 471 472
f 419 472 420
f 420 472 421
f 421 472 423
f 423 472 473
f 423 473 425
f 423 425 424
f 425 473 426
f 426 474 475
f 426 475 427
f 426 473 514
f 426 514 474
f 427 475 476
f 427 476 428
f 428 476 477
f 428 477 429
f 429 477 478
f 429 478 430
f 430 478 480
f 430 480 432
f 431 479 481
f 431 481 433
f 431 432 480
f 431 480 479
f 433 481 434
f 434 482 435
f 434 481 482
f 435 482 483
f 435 483 484
f 435 484 436
f 436 484 485
f 436 485 437
f 437 485 527
f 437 527 486
f 437 486 487
f 437 487 438
f 438 487 488
f 438 488 439
f 439 488 440
f 440 488 489
f 440 489 528
f 440 528 490
f 440 490 531
f 440 531 491
f 440 491 441
f 441 491 492
f 441 492 493
f 441 493 443
f 441 443 442
f 443 493 444
f 444 494 495
f 444 495 445
f 444 493 494
f 445 495 496
f 445 496 446
f 449 498 499
f 449 499 500
f 449 500 501
f 449 501 497
f 450 463 462
f 450 497 460
f 450 460 463
f 451 502 498
f 452 503 504
f 452 504 453
f 452 459 503
f 453 504 505
f 453 505 454
f 454 506 507
f 454 507 455
f 454 505 508
f 454 508 509
f 454 509 506
f 455 507 457
f 455 457 456
f 457 507 506
f 457 506 466
f 457 466 465
f 457 465 458
f 459 510 503
f 459 460 510
f 460 497 510
f 464 466 467
f 466 506 467
f 467 509 468
f 467 506 509
f 468 509 508
f 468 508 511
f 468 511 512
f 468 512 469
f 469 512 513
f 469 513 470
f 470 513 514
f 470 514 471
f 471 514 473
f 471 473 472
f 474 514 515
f 474 515 516
f 474 516 475
f 475 516 517
f 475 517 476
f 476 517 477
f 477 518 478
f 477 517 519
f 477 519 520
f 477 520 518
f 478 518 521
f 478 521 480
f 479 521 481
f 479 480 521
f 481 521 522
f 481 522 482
f 482 522 523
f 482 523 483
f 483 523 524
f 483 524 525
f 483 525 484
f 484 525 485
f 485 526 527
f 485 525 524
f 485 524 526
f 486 527 528
f 486 528 489
f 486 489 488
f 486 488 487
f 490 528 529
f 490 529 530
f 490 530 531
f 491 531 572
f 491 572 532
f 491 532 492
f 492 532 533
f 492 533 493
f 493 533 494
f 494 533 534
f 494 534 495
f 495 534 535
f 495 535 496
f 497 501 510
f 498 502 536
f 498 536 537
f 498 537 538
f 498 538 499
f 499 538 539
f 499 539 540
f 499 540 500
f 500 541 501
f 500 540 542
f 500 542 543
f 500 543 544
f 500 544 541
f 501 541 503
f 501 503 510
f 503 541 504
f 504 541 505
f 505 541 545
f 505 545 508
f 508 545 546
f 508 546 547
f 508 547 511
f 511 548 512
f 511 547 548
f 512 548 513
f 513 548 549
f 513 549 514
f 514 549 550
f 514 550 515
f 515 550 551
f 515 551 516
f 516 551 519
f 516 519 517
f 518 520 552
f 518 552 553
f 518 553 521
f 519 551 554
f 519 554 547
f 519 547 520
f 520 547 555
f 520 555 552
f 521 556 557
f 521 557 558
f 521 558 522
f 521 553 556
f 522 559 523
f 522 558 559
f 523 559 560
f 523 560 561
f 523 561 562
f 523 562 563
f 523 563 524
f 524 563 526
f 526 563 564
f 526 564 565
f 526 565 527
f 527 565 566
f 527 566 567
f 527 567 528
f 528 567 529
f 529 567 566
f 529 566 568
f 529 568 569
f 529 569 570
f 529 570 530
f 530 570 571
f 530 571 572
f 530 572 531
f 532 572 573
f 532 573 533
f 533 573 575
f 533 575 534
f 534 574 535
f 534 575 590
f 534 590 574
f 536 576 537
f 537 576 577
f 537 577 578
f 537 578 579
f 537 579 538
f 538 580 581
f 538 581 539
f 538 579 582
f 538 582 580
f 539 558 557
f 539 557 540
f 539 581 558
f 540 557 556
f 540 556 553
f 540 553 542
f 541 544 583
f 541 583 545
f 542 553 543
f 543 553 544
f 544 553 552
f 544 552 583
f 545 583 546
f 546 583 555
f 546 555 547
f 547 554 549
f 547 549 548
f 549 554 551
f 549 551 550
f 552 555 583
f 558 581 559
f 559 581 560
f 560 580 561
f 560 581 580
f 561 584 562
f 561 580 582
f 561 582 585
f 561 585 568
f 561 568 584
f 562 584 564
f 562 564 563
f 564 584 566
f 564 566 565
f 566 584 568
f 568 585 586
f 568 586 569
f 569 586 587
f 569 587 571
f 569 571 570
f 571 588 589
f 571 589 572
f 571 587 588
f 572 589 573
f 573 589 575
f 575 591 592
f 575 592 590
f 575 589 591
f 577 593 578
f 578 594 579
f 578 593 595
f 578 595 594
f 579 594 582
f 582 594 585
f 585 587 586
f 585 594 595
f 585 595 596
f 585 596 587
f 587 596 597
f 587 597 588
f 588 597 595
f 588 595 589
f 589 595 598
f 589 598 599
f 589 599 591
f 591 599 592
f 592 599 600
f 593 601 595
f 595 601 602
f 595 602 598
f 595 597 596
f 598 602 603
f 598 603 599
f 599 603 600

