# https://github.com/mikedh/trimesh
v -0.01737269 -0.04519201 0.01454273
v -0.01377227 -0.04519500 0.01454273
v -0.01737269 -0.04519201 0.02130132
v -0.01737269 -0.01544180 0.01454273
v -0.01377227 -0.04519500 0.02130132
v -0.00945316 -0.04519500 0.01454273
v -0.01737269 -0.02038078 0.02130132
v -0.01737269 -0.01527170 0.01501774
v -0.01736959 -0.01470767 0.01454273
v -0.00945316 -0.04519500 0.02130132
v -0.00945316 -0.02105224 0.01454273
v -0.00945316 -0.02500043 0.02130132
v -0.00945316 -0.02061653 0.01454538
v -0.00949890 -0.02059564 0.01454273
f 1 2 5
f 1 5 3
f 1 3 7
f 1 7 8
f 1 8 4
f 1 4 9
f 1 9 14
f 1 14 11
f 1 11 6
f 1 6 2
f 2 6 10
f 2 10 5
f 3 5 10
f 3 10 12
f 3 12 7
f 4 8 9
f 6 11 13
f 6 13 12
f 6 12 10
f 7 9 8
f 7 12 9
f 9 13 14
f 9 12 13
f 11 14 13

