# https://github.com/mikedh/trimesh
v -0.02159201 -0.04513415 0.02504741
v -0.02159201 -0.04513415 0.02550988
v -0.02205064 -0.04509831 0.02054912
v -0.02159201 -0.04513140 0.01425086
v -0.02159201 -0.04513140 0.02684739
v -0.02205064 -0.04509831 0.02684739
v -0.02295154 -0.04495771 0.01784749
v -0.02295154 -0.04495495 0.01065090
v -0.02205064 -0.04509280 0.01155255
v -0.02159201 -0.04512864 0.00975257
v -0.02159201 -0.04512864 0.02730986
v -0.02205064 -0.04509004 0.02774904
v -0.02295154 -0.04495495 0.02684739
v -0.02295154 -0.04495771 0.02504741
v -0.02367928 -0.04478127 0.01335253
v -0.02367694 -0.04478127 0.01245088
v -0.02367225 -0.04478127 0.01065090
v -0.02295154 -0.04494944 0.00615261
v -0.02205064 -0.04508177 0.00165100
v -0.02159201 -0.04512312 0.00301180
v -0.02159201 -0.04512312 0.02774904
v -0.02159201 -0.04509280 0.02820818
v -0.02205064 -0.04502939 0.02864737
v -0.02295154 -0.04494668 0.02774904
v -0.02368630 -0.04477576 0.02684739
v -0.02368864 -0.04477851 0.02144745
v -0.02367928 -0.04478127 0.01425086
v -0.02413791 -0.04465170 0.02054912
v -0.02413557 -0.04465170 0.01874914
v -0.02413089 -0.04464894 0.01515251
v -0.02412387 -0.04464618 0.01155255
v -0.02366290 -0.04477851 0.00705094
v -0.02295154 -0.04494117 0.00075268
v -0.02205064 -0.04507902 0.00075268
v -0.02159201 -0.04512037 0.00075268
v -0.02159201 -0.04506247 0.02864737
v -0.02295154 -0.04476473 0.02930947
v -0.02295154 -0.04488328 0.02864737
v -0.02159201 -0.04496598 0.02910984
v -0.02204128 -0.04481711 0.02960891
v -0.02355058 -0.04473716 0.02864737
v -0.02366758 -0.04477024 0.02774904
v -0.02411685 -0.04464894 0.02774904
v -0.02413557 -0.04465170 0.02684739
v -0.02413791 -0.04465170 0.02594906
v -0.02475099 -0.04442563 0.01964747
v -0.02475099 -0.04442287 0.01694916
v -0.02475099 -0.04441736 0.01245088
v -0.02475099 -0.04440909 0.00615261
v -0.02410749 -0.04464067 0.00525096
v -0.02475099 -0.04440358 0.00255265
v -0.02365120 -0.04477576 0.00345098
v -0.02364418 -0.04477300 0.00075268
v -0.02356228 -0.04474819 0.00018041
v -0.02295154 -0.04481987 0.00004732
v -0.02205064 -0.04488879 -0.00003918
v -0.02159201 -0.04502663 0.00036340
v -0.02343358 -0.04470683 0.02912647
v -0.02233378 -0.04468202 0.02994828
v -0.02295154 -0.04461862 0.02975863
v -0.02159201 -0.04486122 0.02957896
v -0.02173474 -0.04471235 0.03002813
v -0.02399985 -0.04461310 0.02864737
v -0.02475099 -0.04434293 0.02864737
v -0.02475099 -0.04441460 0.02774904
v -0.02475099 -0.04442563 0.02684739
v -0.02562381 -0.04402313 0.01874914
v -0.02562615 -0.04402037 0.01515251
v -0.02562147 -0.04402037 0.01245088
v -0.02561211 -0.04401761 0.00705094
v -0.02409579 -0.04463791 0.00165100
v -0.02560275 -0.04401486 0.00255265
v -0.02560041 -0.04401210 0.00075268
v -0.02475099 -0.04440082 0.00165100
v -0.02409345 -0.04463515 0.00075268
v -0.02475099 -0.04439806 0.00075268
v -0.02546703 -0.04394042 0.00007394
v -0.02475099 -0.04409757 -0.00006580
v -0.02295154 -0.04424919 -0.00035193
v -0.02159201 -0.04490809 -0.00005249
v -0.02205064 -0.04424919 -0.00043844
v -0.02378224 -0.04449180 0.02947582
v -0.02204128 -0.04450283 0.03037415
v -0.02295154 -0.04430709 0.03044735
v -0.02386413 -0.04403140 0.03049393
v -0.02159201 -0.04471786 0.03003811
v -0.02159201 -0.04466273 0.03014790
v -0.02159201 -0.04450558 0.03045067
v -0.02483523 -0.04406448 0.02963220
v -0.02539215 -0.04389907 0.02938932
v -0.02554191 -0.04397626 0.02864737
v -0.02560743 -0.04401486 0.02774904
v -0.02561679 -0.04402313 0.02684739
v -0.02561913 -0.04402313 0.02594906
v -0.02562147 -0.04402313 0.02324743
v -0.02562381 -0.04402313 0.01964747
v -0.02607542 -0.04378328 0.01515251
v -0.02607309 -0.04378328 0.01335253
v -0.02605437 -0.04377501 0.00345098
v -0.02604968 -0.04377225 0.00075268
v -0.02606607 -0.04378052 0.00975257
v -0.02655044 -0.04317952 -0.00002255
v -0.02571975 -0.04342764 -0.00015231
v -0.02711204 -0.04298929 0.00013383
v -0.02475099 -0.04334769 -0.00046506
v -0.02159201 -0.04459656 -0.00024547
v -0.02159201 -0.04424919 -0.00044842
v -0.02385010 -0.04334769 -0.00049167
v -0.02459187 -0.04391837 0.03022443
v -0.02205064 -0.04401486 0.03119262
v -0.02295154 -0.04393491 0.03108616
v -0.02357164 -0.04385220 0.03097636
v -0.02417067 -0.04375571 0.03082331
v -0.02159201 -0.04403967 0.03122257
v -0.02519325 -0.04379430 0.02998820
v -0.02658086 -0.04314920 0.02953571
v -0.02706290 -0.04294794 0.02922961
v -0.02599118 -0.04373641 0.02864737
v -0.02567529 -0.04365646 0.02963220
v -0.02605671 -0.04377225 0.02774904
v -0.02606841 -0.04378052 0.02684739
v -0.02607309 -0.04378328 0.02054912
v -0.02607542 -0.04378328 0.01784749
v -0.02655044 -0.04347451 0.01515251
v -0.02655044 -0.04347175 0.01245088
v -0.02655044 -0.04346072 0.00255265
v -0.02655044 -0.04345797 0.00075268
v -0.02742794 -0.04244619 -0.00008909
v -0.02655044 -0.04244895 -0.00041848
v -0.02716820 -0.04303616 0.00075268
v -0.02761748 -0.04266674 0.00075268
v -0.02814632 -0.04221737 0.00075268
v -0.02806442 -0.04214293 0.00008392
v -0.02745134 -0.04154744 -0.00045840
v -0.02565189 -0.04244895 -0.00049167
v -0.02159201 -0.04380809 -0.00047504
v -0.02159201 -0.04334769 -0.00049167
v -0.02483523 -0.04366473 0.03049393
v -0.02205064 -0.04366197 0.03164179
v -0.02295154 -0.04357375 0.03153532
v -0.02386413 -0.04348278 0.03130575
v -0.02466441 -0.04312989 0.03135233
v -0.02542023 -0.04302513 0.03105621
v -0.02159201 -0.04368679 0.03167173
v -0.02569167 -0.04322914 0.03049060
v -0.02630240 -0.04302789 0.03022110
v -0.02690144 -0.04282664 0.02982850
v -0.02746772 -0.04245997 0.02958229
v -0.02800592 -0.04209331 0.02933941
v -0.02809484 -0.04217601 0.02864737
v -0.02758238 -0.04262539 0.02864737
v -0.02713310 -0.04300032 0.02864737
v -0.02655044 -0.04339180 0.02864737
v -0.02655044 -0.04346348 0.02774904
v -0.02655044 -0.04347451 0.02684739
v -0.02718458 -0.04304443 0.02684739
v -0.02835926 -0.04155847 -0.00012236
v -0.02763386 -0.04267225 0.02684739
v -0.02859559 -0.04179832 0.00075268
v -0.02814632 -0.04222012 0.02324743
v -0.02896765 -0.04126624 0.00007727
v -0.02835223 -0.04064869 -0.00046173
v -0.02835223 -0.03974995 -0.00049167
v -0.02159201 -0.01696978 -0.00049167
v -0.02205064 -0.04320985 0.03207431
v -0.02295154 -0.04312438 0.03200112
v -0.02385010 -0.04298654 0.03188134
v -0.02430639 -0.04290107 0.03180149
v -0.02490777 -0.04275772 0.03165842
v -0.02601926 -0.04284869 0.03081998
v -0.02574081 -0.04250408 0.03141554
v -0.02159201 -0.04323466 0.03209095
v -0.02658086 -0.04266674 0.03049060
v -0.02723372 -0.04219531 0.03044735
v -0.02787020 -0.04197200 0.02993829
v -0.02891149 -0.04120834 0.02935272
v -0.02854646 -0.04174870 0.02864737
v -0.02858857 -0.04179280 0.02774904
v -0.02813930 -0.04221461 0.02774904
v -0.02762918 -0.04266398 0.02774904
v -0.02717756 -0.04303892 0.02774904
v -0.02926015 -0.04065972 -0.00012569
v -0.02814632 -0.04222012 0.02684739
v -0.02905189 -0.04134894 0.00075268
v -0.02859559 -0.04179832 0.02684739
v -0.03256890 -0.03766574 0.00007727
v -0.03106194 -0.03885948 -0.00012569
v -0.03175224 -0.03864995 0.00075268
v -0.03285204 -0.03614946 -0.00046173
v -0.03914895 -0.02985272 -0.00046173
v -0.04004984 -0.02805247 -0.00049167
v -0.04364875 -0.01696978 -0.00049167
v -0.02159201 -0.01696978 0.02286813
v -0.02159201 -0.04294243 0.03232385
v -0.02159201 -0.04266123 0.03254344
v -0.02205064 -0.04263366 0.03252348
v -0.02295154 -0.04253441 0.03245361
v -0.02378692 -0.04236899 0.03236710
v -0.02466441 -0.04245446 0.03201775
v -0.02546001 -0.04215671 0.03192459
v -0.02606139 -0.04197200 0.03177487
v -0.02655044 -0.04221185 0.03113606
v -0.02704184 -0.04203265 0.03093643
v -0.02768300 -0.04180383 0.03044735
v -0.02816270 -0.04135446 0.03044735
v -0.02878045 -0.04107601 0.02995160
v -0.03161184 -0.03850935 0.02935272
v -0.02945203 -0.04084995 0.02864737
v -0.02900041 -0.04129932 0.02864737
v -0.02904487 -0.04134068 0.02774904
v -0.02905189 -0.04134894 0.02684739
v -0.03939933 -0.03100234 0.00075268
v -0.04066526 -0.02956876 0.00007727
v -0.03915831 -0.03076250 -0.00012569
v -0.03175224 -0.03864995 0.02684739
v -0.04094840 -0.02805247 -0.00046173
v -0.04184929 -0.02625223 -0.00049167
v -0.04364875 -0.02355048 -0.00049167
v -0.04392955 -0.01696978 -0.00048502
v -0.02377287 -0.01696978 0.02954902
v -0.02159201 -0.01969083 0.02966880
v -0.02159201 -0.04221185 0.03281959
v -0.02205064 -0.04218428 0.03280296
v -0.02295154 -0.04208503 0.03274972
v -0.02344294 -0.04201611 0.03270980
v -0.02404431 -0.04188930 0.03263660
v -0.02475099 -0.04170183 0.03252348
v -0.02564253 -0.04154193 0.03225731
v -0.02655044 -0.04132965 0.03196119
v -0.02703950 -0.04113391 0.03182478
v -0.02655044 -0.04177902 0.03158522
v -0.02734136 -0.04145095 0.03125251
v -0.02797082 -0.04116699 0.03096970
v -0.02861197 -0.04091060 0.03044735
v -0.02906359 -0.04046123 0.03044735
v -0.03237936 -0.03747828 0.02995160
v -0.04060910 -0.02951087 0.02935272
v -0.03935019 -0.03095272 0.02864737
v -0.03350255 -0.03680008 0.02864737
v -0.03919341 -0.03079558 0.02965216
v -0.03039505 -0.03999256 0.02774904
v -0.04164806 -0.02875272 0.00075268
v -0.03939933 -0.03100234 0.02684739
v -0.04156616 -0.02866726 0.00007727
v -0.04095776 -0.02896225 -0.00012569
v -0.04184929 -0.02715097 -0.00045840
v -0.04274785 -0.02535072 -0.00049167
v -0.04364875 -0.02445198 -0.00046506
v -0.04454965 -0.02175023 -0.00043844
v -0.04454965 -0.02085148 -0.00046173
v -0.04454965 -0.01995274 -0.00046838
v -0.04454965 -0.01696978 -0.00046838
v -0.02407239 -0.01696978 0.03024772
v -0.02159201 -0.02009609 0.03035086
v -0.02159201 -0.04154744 0.03310572
v -0.02205064 -0.04154744 0.03307911
v -0.02295154 -0.04154744 0.03298262
v -0.02378692 -0.04157225 0.03284621
v -0.02475099 -0.04125245 0.03277634
v -0.02522367 -0.04111461 0.03270647
v -0.02582505 -0.04089130 0.03259002
v -0.02652236 -0.04061561 0.03241368
v -0.02738348 -0.04058529 0.03195786
v -0.02794508 -0.04024343 0.03183143
v -0.02764088 -0.04084443 0.03156859
v -0.02854646 -0.03994293 0.03156859
v -0.02887171 -0.04026825 0.03096970
v -0.04076120 -0.02876375 0.03044735
v -0.03157206 -0.03756925 0.03096970
v -0.03957717 -0.03028004 0.02995160
v -0.04150766 -0.02861212 0.02935272
v -0.04114964 -0.02915247 0.02864737
v -0.04029086 -0.03009533 0.02774904
v -0.03939231 -0.03099407 0.02774904
v -0.04209968 -0.02829784 0.00255265
v -0.04209968 -0.02829508 0.00075268
v -0.04164806 -0.02875272 0.02684739
v -0.04244365 -0.02776576 0.00008392
v -0.04185866 -0.02805799 -0.00012236
v -0.04274785 -0.02625223 -0.00041848
v -0.04372831 -0.02541965 -0.00015231
v -0.04439755 -0.02445198 -0.00006580
v -0.04454965 -0.02265173 -0.00035193
v -0.04518846 -0.02175023 -0.00003918
v -0.04522824 -0.02085148 -0.00006247
v -0.04524696 -0.01995274 -0.00006913
v -0.04524696 -0.01696978 -0.00006913
v -0.02437659 -0.01696978 0.03072017
v -0.02159201 -0.02046827 0.03082331
v -0.02159201 -0.04064869 0.03335193
v -0.02205064 -0.04064869 0.03333530
v -0.02295154 -0.04064869 0.03328206
v -0.02385010 -0.04064869 0.03318558
v -0.02475099 -0.04064869 0.03301257
v -0.02620413 -0.04029306 0.03274307
v -0.02557467 -0.04061561 0.03280628
v -0.02742560 -0.03972238 0.03242699
v -0.02680316 -0.04000634 0.03260666
v -0.02828905 -0.03968654 0.03196119
v -0.02884597 -0.03934469 0.03183143
v -0.03124680 -0.03724394 0.03156859
v -0.02915953 -0.03965622 0.03126915
v -0.04121048 -0.02831162 0.03044735
v -0.04137662 -0.02847979 0.02995160
v -0.03876987 -0.03037102 0.03096970
v -0.03966843 -0.02947227 0.03096970
v -0.04146788 -0.02767202 0.03096970
v -0.03754372 -0.03094721 0.03156859
v -0.04085714 -0.02795874 0.03126915
v -0.04239451 -0.02770786 0.02933941
v -0.04204820 -0.02824546 0.02864737
v -0.04159892 -0.02870034 0.02864737
v -0.04188908 -0.02809383 0.02964551
v -0.04164104 -0.02874445 0.02774904
v -0.04252321 -0.02784571 0.01335253
v -0.04252087 -0.02784571 0.00705094
v -0.04251853 -0.02784571 0.00165100
v -0.04209968 -0.02829784 0.02684739
v -0.04251619 -0.02784571 0.00075268
v -0.04329073 -0.02681187 0.00013383
v -0.04274551 -0.02712892 -0.00008909
v -0.04347793 -0.02625223 -0.00002255
v -0.04424077 -0.02516601 0.00007394
v -0.04504807 -0.02326376 0.00018041
v -0.04511826 -0.02265173 0.00004732
v -0.04537800 -0.02175023 0.00075268
v -0.04545756 -0.02085148 0.00075268
v -0.04549500 -0.01995274 0.00075268
v -0.04549500 -0.01696978 0.00075268
v -0.02443275 -0.01696978 0.03079004
v -0.02159201 -0.02091765 0.03127247
v -0.02295154 -0.03974995 0.03343844
v -0.02159201 -0.03974995 0.03346173
v -0.02205064 -0.03974995 0.03345840
v -0.02385010 -0.03974995 0.03337855
v -0.02475099 -0.03974995 0.03326876
v -0.02565189 -0.03974995 0.03308576
v -0.02710736 -0.03940534 0.03274307
v -0.02652236 -0.03972238 0.03283290
v -0.03012595 -0.03702339 0.03242699
v -0.02770874 -0.03910484 0.03260666
v -0.03642286 -0.03072666 0.03242699
v -0.03998666 -0.02798907 0.03196119
v -0.04054358 -0.02764721 0.03183143
v -0.04165508 -0.02786225 0.03044735
v -0.04227283 -0.02757278 0.02993829
v -0.04114262 -0.02734120 0.03156859
v -0.04143512 -0.02674020 0.03182478
v -0.04175102 -0.02704070 0.03125251
v -0.04233133 -0.02674295 0.03093643
v -0.04210436 -0.02738531 0.03044735
v -0.03934317 -0.02914696 0.03156859
v -0.04024406 -0.02824546 0.03156859
v -0.04324627 -0.02676225 0.02922961
v -0.04292569 -0.02728330 0.02864737
v -0.04247641 -0.02779608 0.02864737
v -0.04276189 -0.02716751 0.02958229
v -0.04209266 -0.02828957 0.02774904
v -0.04252321 -0.02784571 0.02684739
v -0.04297249 -0.02733568 0.02234910
v -0.04296781 -0.02732190 0.00255265
v -0.04296781 -0.02731914 0.00075268
v -0.04297249 -0.02733293 0.01694916
v -0.04297249 -0.02733017 0.01245088
v -0.04297015 -0.02732466 0.00615261
v -0.04251619 -0.02784019 0.02774904
v -0.04333519 -0.02686977 0.00075268
v -0.04375873 -0.02625223 0.00075268
v -0.04407229 -0.02575047 0.00075268
v -0.04431097 -0.02530110 0.00075268
v -0.04469940 -0.02445198 0.00075268
v -0.04493575 -0.02379308 0.00075268
v -0.04507146 -0.02334371 0.00075268
v -0.04523994 -0.02265173 0.00075268
v -0.04524228 -0.02265173 0.00165100
v -0.04525398 -0.02265173 0.01155255
v -0.04539906 -0.02175023 0.02684739
v -0.04546458 -0.02085148 0.02594906
v -0.04549500 -0.01995274 0.02684739
v -0.04549500 -0.01696978 0.02684739
v -0.02484459 -0.01696978 0.03126915
v -0.02159201 -0.02140286 0.03170833
v -0.02475099 -0.03884845 0.03341182
v -0.02295154 -0.03884845 0.03348502
v -0.02385010 -0.03884845 0.03346506
v -0.02159201 -0.03884845 0.03349167
v -0.02205064 -0.03884845 0.03349167
v -0.02565189 -0.03884845 0.03329537
v -0.02655044 -0.03884845 0.03309574
v -0.02742560 -0.03882364 0.03283623
v -0.02800826 -0.03850659 0.03274307
v -0.03670600 -0.03010911 0.03260666
v -0.04002176 -0.02712616 0.03242699
v -0.04088522 -0.02708481 0.03195786
v -0.04312693 -0.02660235 0.02982850
v -0.04249513 -0.02693318 0.03044735
v -0.04091564 -0.02622190 0.03241368
v -0.04162934 -0.02625223 0.03196119
v -0.04227283 -0.02576150 0.03177487
v -0.04208095 -0.02625223 0.03158522
v -0.04314799 -0.02572015 0.03081998
v -0.04296547 -0.02628255 0.03049060
v -0.04251151 -0.02625223 0.03113606
v -0.04344751 -0.02628255 0.02953571
v -0.04419865 -0.02509433 0.02938932
v -0.04403719 -0.02569258 0.02864737
v -0.04369087 -0.02625223 0.02864737
v -0.04330243 -0.02683117 0.02864737
v -0.04296547 -0.02732741 0.02774904
v -0.04297249 -0.02733568 0.02684739
v -0.04334455 -0.02688631 0.02414908
v -0.04297015 -0.02732190 0.00435263
v -0.04333753 -0.02686977 0.00165100
v -0.04334221 -0.02688080 0.01515251
v -0.04333987 -0.02687528 0.00705094
v -0.04376107 -0.02625223 0.00165100
v -0.04431331 -0.02530110 0.00165100
v -0.04407463 -0.02575599 0.00345098
v -0.04431565 -0.02530386 0.00345098
v -0.04470174 -0.02445198 0.00165100
v -0.04493808 -0.02379860 0.00255265
v -0.04507380 -0.02334647 0.00165100
v -0.04507848 -0.02336301 0.00705094
v -0.04508082 -0.02337128 0.01065090
v -0.04508082 -0.02337679 0.01245088
v -0.04508082 -0.02337955 0.01335253
v -0.04525632 -0.02265173 0.01694916
v -0.04525632 -0.02265173 0.02684739
v -0.04538970 -0.02175023 0.02774904
v -0.04546458 -0.02085148 0.02684739
v -0.04545522 -0.02085148 0.02774904
v -0.04548330 -0.01995274 0.02774904
v -0.04548330 -0.01696978 0.02774904
v -0.02523537 -0.01696978 0.03167173
v -0.02533365 -0.01696978 0.03175491
v -0.02159201 -0.02190737 0.03205102
v -0.02475099 -0.03794970 0.03347171
v -0.02565189 -0.03794970 0.03341515
v -0.02385010 -0.03794970 0.03349167
v -0.02159201 -0.02805247 0.03349167
v -0.02745134 -0.03794970 0.03309574
v -0.02835223 -0.03614946 0.03329537
v -0.03732376 -0.02892641 0.03283623
v -0.03970587 -0.02680912 0.03274307
v -0.03850545 -0.02830887 0.03260666
v -0.03940635 -0.02740736 0.03260666
v -0.04030490 -0.02650310 0.03260666
v -0.04332817 -0.02600135 0.03022110
v -0.04059272 -0.02590486 0.03274307
v -0.04119176 -0.02552441 0.03259002
v -0.04184228 -0.02534245 0.03225731
v -0.04245770 -0.02516050 0.03192792
v -0.04305907 -0.02460637 0.03165842
v -0.04280401 -0.02543894 0.03141554
v -0.04352941 -0.02539208 0.03049060
v -0.04332583 -0.02511914 0.03105621
v -0.04395763 -0.02537554 0.02963220
v -0.04464558 -0.02445198 0.02864737
v -0.04428055 -0.02524320 0.02864737
v -0.04409569 -0.02489308 0.02998820
v -0.04436479 -0.02453744 0.02963220
v -0.04407463 -0.02575599 0.02774904
v -0.04376341 -0.02625223 0.02774904
v -0.04333753 -0.02687804 0.02774904
v -0.04334455 -0.02688631 0.02684739
v -0.04377745 -0.02625223 0.01515251
v -0.04377043 -0.02625223 0.00885092
v -0.04408399 -0.02577253 0.01335253
v -0.04431565 -0.02530937 0.00525096
v -0.04470642 -0.02445198 0.00435263
v -0.04494510 -0.02382341 0.01065090
v -0.04494042 -0.02380687 0.00525096
v -0.04494744 -0.02382892 0.01335253
v -0.04494978 -0.02383168 0.01605084
v -0.04495212 -0.02383719 0.01964747
v -0.04508082 -0.02337955 0.01515251
v -0.04495212 -0.02383995 0.02144745
v -0.04507614 -0.02338782 0.02684739
v -0.04524696 -0.02265173 0.02774904
v -0.04507848 -0.02338782 0.02144745
v -0.04532886 -0.02175023 0.02864737
v -0.04539438 -0.02085148 0.02864737
v -0.04542480 -0.01995274 0.02864737
v -0.04542480 -0.01905123 0.02864737
v -0.04546458 -0.01696978 0.02802852
v -0.02571741 -0.01696978 0.03205435
v -0.02159201 -0.02256351 0.03243032
v -0.02565189 -0.03704820 0.03347504
v -0.03285204 -0.03075147 0.03341515
v -0.03285204 -0.02985272 0.03347504
v -0.02565189 -0.03614946 0.03349167
v -0.02205064 -0.02715097 0.03349167
v -0.02159201 -0.02715097 0.03348502
v -0.03734949 -0.02805247 0.03309574
v -0.03464915 -0.02985272 0.03329537
v -0.03912321 -0.02712616 0.03283623
v -0.04002176 -0.02622190 0.03283290
v -0.04004984 -0.02535072 0.03308576
v -0.04091564 -0.02527629 0.03280628
v -0.04141406 -0.02492341 0.03270647
v -0.04200374 -0.02445198 0.03252348
v -0.04320181 -0.02400812 0.03180149
v -0.04275487 -0.02436376 0.03201775
v -0.04342879 -0.02436376 0.03135233
v -0.04405357 -0.02387028 0.03082331
v -0.04396699 -0.02453744 0.03049393
v -0.04479300 -0.02348155 0.02947582
v -0.04500828 -0.02313419 0.02912647
v -0.04491468 -0.02369935 0.02864737
v -0.04494744 -0.02381789 0.02774904
v -0.04471578 -0.02445198 0.02774904
v -0.04431565 -0.02530661 0.02774904
v -0.04421971 -0.02429208 0.03022443
v -0.04432267 -0.02531764 0.02684739
v -0.04407931 -0.02576701 0.02684739
v -0.04377511 -0.02625223 0.02684739
v -0.04377745 -0.02625223 0.02234910
v -0.04408399 -0.02577529 0.01515251
v -0.04432267 -0.02532591 0.01784749
v -0.04432033 -0.02532315 0.01335253
v -0.04472280 -0.02445198 0.01694916
v -0.04472514 -0.02445198 0.01874914
v -0.04472748 -0.02445198 0.02234910
v -0.04495212 -0.02383995 0.02324743
v -0.04495212 -0.02383719 0.02684739
v -0.04506912 -0.02336852 0.02774904
v -0.04503870 -0.02324997 0.02864737
v -0.04518378 -0.02265173 0.02864737
v -0.04506444 -0.02265173 0.02930947
v -0.04511826 -0.02174196 0.02960891
v -0.04520484 -0.02085148 0.02954902
v -0.04523292 -0.01995274 0.02954902
v -0.04523292 -0.01696978 0.02954902
v -0.04536396 -0.01696978 0.02893017
v -0.04542246 -0.01696978 0.02864737
v -0.02641940 -0.01696978 0.03251350
v -0.02159201 -0.02308180 0.03270647
v -0.03734949 -0.02625223 0.03341515
v -0.03734949 -0.02535072 0.03347504
v -0.03195114 -0.02985272 0.03349167
v -0.03734949 -0.02445198 0.03349167
v -0.03015169 -0.01725099 0.03348502
v -0.03105024 -0.01696978 0.03349167
v -0.02159201 -0.02625223 0.03344177
v -0.02205064 -0.02625223 0.03346838
v -0.03015169 -0.01696978 0.03347836
v -0.03914895 -0.02625223 0.03309574
v -0.03824805 -0.02625223 0.03329537
v -0.04094840 -0.02445198 0.03301257
v -0.03914895 -0.02535072 0.03329537
v -0.04004984 -0.02445198 0.03326876
v -0.04155212 -0.02445198 0.03277634
v -0.04218859 -0.02374346 0.03263660
v -0.04266829 -0.02348707 0.03236710
v -0.04328605 -0.02355048 0.03188134
v -0.04378213 -0.02356426 0.03130575
v -0.04433203 -0.02356426 0.03049393
v -0.04415419 -0.02327203 0.03097636
v -0.04491936 -0.02265173 0.02975863
v -0.04472748 -0.02445198 0.02684739
v -0.04432267 -0.02532040 0.02504741
v -0.04408399 -0.02577529 0.01874914
v -0.04408165 -0.02576977 0.02414908
v -0.04498254 -0.02203419 0.02994828
v -0.04501062 -0.02143594 0.03002813
v -0.04503168 -0.02085148 0.03007471
v -0.04504572 -0.01995274 0.03010465
v -0.04504572 -0.01696978 0.03010465
v -0.02686868 -0.01696978 0.03275970
v -0.02159201 -0.02358907 0.03288281
v -0.03824805 -0.02535072 0.03341515
v -0.03824805 -0.02445198 0.03347171
v -0.03914895 -0.02445198 0.03341182
v -0.03824805 -0.02355048 0.03349167
v -0.03914895 -0.01696978 0.03349167
v -0.02159201 -0.02535072 0.03333197
v -0.02925079 -0.01696978 0.03341182
v -0.02925079 -0.01725099 0.03343179
v -0.04094840 -0.02355048 0.03318558
v -0.04187270 -0.02348707 0.03284621
v -0.04004984 -0.02355048 0.03337855
v -0.04231729 -0.02314521 0.03270980
v -0.04283443 -0.02265173 0.03245361
v -0.04342411 -0.02265173 0.03200112
v -0.04387339 -0.02265173 0.03153532
v -0.04460580 -0.02265173 0.03044735
v -0.04423609 -0.02265173 0.03108616
v -0.04480236 -0.02174196 0.03037415
v -0.04480938 -0.02085148 0.03052387
v -0.04482576 -0.01995274 0.03055714
v -0.04497786 -0.01696978 0.03024772
v -0.02744666 -0.01696978 0.03298595
v -0.02159201 -0.02445198 0.03314232
v -0.03914895 -0.02265173 0.03348502
v -0.03914895 -0.02355048 0.03346506
v -0.04004984 -0.02265173 0.03343844
v -0.03914895 -0.02175023 0.03349167
v -0.04004984 -0.01696978 0.03346838
v -0.02835223 -0.01696978 0.03325877
v -0.04094840 -0.02265173 0.03328206
v -0.04184929 -0.02265173 0.03298262
v -0.04238515 -0.02265173 0.03274972
v -0.04293271 -0.02175023 0.03252348
v -0.04351069 -0.02175023 0.03207431
v -0.04395997 -0.02175023 0.03164179
v -0.04431565 -0.02175023 0.03119262
v -0.04436011 -0.02085148 0.03124918
v -0.04482576 -0.01696978 0.03055714
v -0.04437649 -0.01995274 0.03126582
v -0.04004984 -0.02085148 0.03346506
v -0.04004984 -0.02175023 0.03345840
v -0.04094840 -0.02085148 0.03336524
v -0.04094840 -0.02175023 0.03333530
v -0.04004984 -0.01995274 0.03346838
v -0.04094840 -0.01696978 0.03337522
v -0.04184929 -0.02175023 0.03307911
v -0.04248343 -0.02175023 0.03280296
v -0.04298653 -0.02085148 0.03256008
v -0.04355983 -0.02085148 0.03211091
v -0.04400911 -0.02085148 0.03169835
v -0.04402549 -0.01995274 0.03171831
v -0.04437649 -0.01696978 0.03126582
v -0.04094840 -0.01995274 0.03337522
v -0.04184929 -0.01995274 0.03314232
v -0.04184929 -0.02085148 0.03312902
v -0.04156850 -0.01696978 0.03321552
v -0.04253725 -0.02085148 0.03283290
v -0.04300057 -0.01995274 0.03257006
v -0.04357621 -0.01995274 0.03212089
v -0.04402549 -0.01696978 0.03171831
v -0.04184929 -0.01696978 0.03314232
v -0.04255129 -0.01995274 0.03283955
v -0.04300057 -0.01696978 0.03257006
v -0.04357621 -0.01696978 0.03212089
v -0.04233133 -0.01696978 0.03293271
v -0.04255129 -0.01815249 0.03283955
v -0.04286017 -0.01696978 0.03265323
v -0.04254895 -0.01696978 0.03283623
f 1 2 6
f 1 6 3
f 1 3 4
f 1 4 10
f 1 10 20
f 1 20 35
f 1 35 57
f 1 57 80
f 1 80 106
f 1 106 107
f 1 107 136
f 1 136 137
f 1 137 164
f 1 164 193
f 1 193 221
f 1 221 254
f 1 254 289
f 1 289 331
f 1 331 382
f 1 382 436
f 1 436 487
f 1 487 537
f 1 537 570
f 1 570 593
f 1 593 576
f 1 576 544
f 1 544 493
f 1 493 440
f 1 440 386
f 1 386 333
f 1 333 290
f 1 290 255
f 1 255 222
f 1 222 195
f 1 195 194
f 1 194 172
f 1 172 144
f 1 144 114
f 1 114 88
f 1 88 87
f 1 87 86
f 1 86 61
f 1 61 39
f 1 39 36
f 1 36 22
f 1 22 21
f 1 21 11
f 1 11 5
f 1 5 2
f 2 5 6
f 3 6 14
f 3 14 7
f 3 7 8
f 3 8 9
f 3 9 10
f 3 10 4
f 5 11 6
f 6 11 12
f 6 12 24
f 6 24 13
f 6 13 14
f 7 14 27
f 7 27 15
f 7 15 8
f 8 15 16
f 8 16 17
f 8 17 18
f 8 18 19
f 8 19 9
f 9 19 20
f 9 20 10
f 11 21 12
f 12 21 22
f 12 22 23
f 12 23 24
f 13 24 25
f 13 25 14
f 14 25 26
f 14 26 27
f 15 27 45
f 15 45 28
f 15 28 29
f 15 29 16
f 16 29 17
f 17 29 30
f 17 30 31
f 17 31 32
f 17 32 18
f 18 32 33
f 18 33 19
f 19 33 34
f 19 34 35
f 19 35 20
f 22 36 23
f 23 37 38
f 23 38 24
f 23 36 39
f 23 39 40
f 23 40 37
f 24 38 41
f 24 41 42
f 24 42 25
f 25 42 43
f 25 43 44
f 25 44 45
f 25 45 26
f 26 45 27
f 28 45 66
f 28 66 46
f 28 46 29
f 29 46 47
f 29 47 48
f 29 48 30
f 30 48 49
f 30 49 31
f 31 50 32
f 31 49 51
f 31 51 50
f 32 50 71
f 32 71 52
f 32 52 33
f 33 52 53
f 33 53 54
f 33 54 55
f 33 55 34
f 34 55 56
f 34 56 35
f 35 56 57
f 37 58 38
f 37 40 59
f 37 59 60
f 37 60 58
f 38 58 41
f 39 61 40
f 40 62 59
f 40 61 62
f 41 58 63
f 41 63 43
f 41 43 42
f 43 63 64
f 43 64 65
f 43 65 66
f 43 66 44
f 44 66 45
f 46 66 96
f 46 96 67
f 46 67 68
f 46 68 69
f 46 69 47
f 47 69 48
f 48 69 70
f 48 70 49
f 49 70 51
f 50 51 71
f 51 72 73
f 51 73 74
f 51 74 71
f 51 70 72
f 52 71 53
f 53 71 75
f 53 75 54
f 54 75 76
f 54 76 77
f 54 77 78
f 54 78 55
f 55 78 79
f 55 79 56
f 56 80 57
f 56 79 81
f 56 81 80
f 58 60 82
f 58 82 64
f 58 64 63
f 59 62 83
f 59 83 84
f 59 84 60
f 60 84 85
f 60 85 82
f 61 86 62
f 62 86 87
f 62 87 88
f 62 88 83
f 64 82 89
f 64 89 90
f 64 90 91
f 64 91 65
f 65 91 92
f 65 92 93
f 65 93 66
f 66 93 94
f 66 94 95
f 66 95 96
f 67 96 123
f 67 123 97
f 67 97 68
f 68 97 98
f 68 98 69
f 69 98 70
f 70 98 72
f 71 74 76
f 71 76 75
f 72 99 100
f 72 100 73
f 72 98 101
f 72 101 99
f 73 76 74
f 73 100 77
f 73 77 76
f 77 102 103
f 77 103 78
f 77 100 104
f 77 104 102
f 78 103 105
f 78 105 79
f 79 105 81
f 80 81 106
f 81 107 106
f 81 105 108
f 81 108 107
f 82 85 109
f 82 109 89
f 83 88 110
f 83 110 111
f 83 111 84
f 84 111 112
f 84 112 85
f 85 112 113
f 85 113 109
f 88 114 110
f 89 109 115
f 89 115 90
f 90 116 117
f 90 117 118
f 90 118 91
f 90 115 119
f 90 119 116
f 91 118 92
f 92 118 120
f 92 120 121
f 92 121 93
f 93 121 94
f 94 121 122
f 94 122 123
f 94 123 95
f 95 123 96
f 97 124 98
f 97 123 155
f 97 155 124
f 98 124 125
f 98 125 126
f 98 126 127
f 98 127 101
f 99 127 100
f 99 101 127
f 100 127 104
f 102 128 129
f 102 129 103
f 102 104 128
f 103 129 105
f 104 127 130
f 104 130 131
f 104 131 132
f 104 132 133
f 104 133 128
f 105 129 134
f 105 134 135
f 105 135 108
f 107 108 136
f 108 137 136
f 108 135 163
f 108 163 191
f 108 191 217
f 108 217 247
f 108 247 218
f 108 218 192
f 108 192 164
f 108 164 137
f 109 113 138
f 109 138 115
f 110 114 144
f 110 144 139
f 110 139 111
f 111 139 140
f 111 140 112
f 112 140 141
f 112 141 113
f 113 141 142
f 113 142 143
f 113 143 138
f 115 138 143
f 115 143 145
f 115 145 146
f 115 146 119
f 116 119 146
f 116 146 147
f 116 147 117
f 117 147 148
f 117 148 149
f 117 149 150
f 117 150 151
f 117 151 152
f 117 152 153
f 117 153 118
f 118 153 120
f 120 153 154
f 120 154 121
f 121 154 155
f 121 155 122
f 122 155 123
f 124 130 125
f 124 155 156
f 124 156 130
f 125 130 126
f 126 130 127
f 128 157 129
f 128 133 157
f 129 157 134
f 130 156 131
f 131 156 158
f 131 158 132
f 132 159 133
f 132 158 160
f 132 160 159
f 133 159 161
f 133 161 157
f 134 162 135
f 134 157 182
f 134 182 162
f 135 162 163
f 139 144 165
f 139 165 166
f 139 166 140
f 140 166 167
f 140 167 141
f 141 167 168
f 141 168 142
f 142 168 169
f 142 169 143
f 143 170 145
f 143 169 171
f 143 171 170
f 144 172 165
f 145 170 146
f 146 170 173
f 146 173 147
f 147 173 174
f 147 174 175
f 147 175 148
f 148 175 149
f 149 176 177
f 149 177 150
f 149 175 176
f 150 177 178
f 150 178 179
f 150 179 180
f 150 180 151
f 151 180 152
f 152 180 181
f 152 181 154
f 152 154 153
f 154 181 155
f 155 181 156
f 156 181 158
f 157 161 182
f 158 181 180
f 158 180 179
f 158 179 183
f 158 183 160
f 159 184 161
f 159 160 183
f 159 183 185
f 159 185 211
f 159 211 184
f 161 186 187
f 161 187 182
f 161 184 188
f 161 188 186
f 162 182 187
f 162 187 189
f 162 189 163
f 163 189 190
f 163 190 191
f 164 192 219
f 164 219 252
f 164 252 287
f 164 287 329
f 164 329 380
f 164 380 433
f 164 433 485
f 164 485 535
f 164 535 534
f 164 534 533
f 164 533 568
f 164 568 591
f 164 591 608
f 164 608 622
f 164 622 630
f 164 630 634
f 164 634 633
f 164 633 637
f 164 637 638
f 164 638 635
f 164 635 631
f 164 631 626
f 164 626 615
f 164 615 598
f 164 598 575
f 164 575 543
f 164 543 546
f 164 546 577
f 164 577 599
f 164 599 592
f 164 592 569
f 164 569 536
f 164 536 486
f 164 486 435
f 164 435 434
f 164 434 381
f 164 381 330
f 164 330 288
f 164 288 253
f 164 253 220
f 164 220 193
f 165 172 194
f 165 194 195
f 165 195 196
f 165 196 166
f 166 196 197
f 166 197 167
f 167 197 198
f 167 198 168
f 168 198 199
f 168 199 200
f 168 200 169
f 169 200 201
f 169 201 171
f 170 171 201
f 170 201 202
f 170 202 203
f 170 203 173
f 173 203 174
f 174 204 175
f 174 203 204
f 175 204 205
f 175 205 206
f 175 206 176
f 176 207 208
f 176 208 209
f 176 209 177
f 176 206 207
f 177 209 178
f 178 209 210
f 178 210 211
f 178 211 185
f 178 185 183
f 178 183 179
f 184 211 215
f 184 215 188
f 186 188 212
f 186 212 213
f 186 213 214
f 186 214 187
f 187 214 190
f 187 190 189
f 188 215 243
f 188 243 212
f 190 214 245
f 190 245 216
f 190 216 217
f 190 217 191
f 192 218 219
f 193 220 221
f 195 222 223
f 195 223 196
f 196 223 224
f 196 224 197
f 197 224 225
f 197 225 198
f 198 225 226
f 198 226 199
f 199 226 227
f 199 227 200
f 200 227 228
f 200 228 201
f 201 228 229
f 201 229 230
f 201 230 231
f 201 231 203
f 201 203 202
f 203 231 230
f 203 230 232
f 203 232 233
f 203 233 204
f 204 233 205
f 205 234 206
f 205 233 234
f 206 234 235
f 206 235 236
f 206 236 207
f 207 237 238
f 207 238 239
f 207 239 208
f 207 236 270
f 207 270 240
f 207 240 237
f 208 239 241
f 208 241 210
f 208 210 209
f 210 241 211
f 211 241 215
f 212 242 213
f 212 243 277
f 212 277 242
f 213 242 244
f 213 244 245
f 213 245 214
f 215 241 243
f 216 245 246
f 216 246 247
f 216 247 217
f 218 247 248
f 218 248 249
f 218 249 250
f 218 250 251
f 218 251 219
f 219 251 252
f 220 253 221
f 221 253 254
f 222 255 256
f 222 256 223
f 223 256 224
f 224 256 257
f 224 257 225
f 225 257 258
f 225 258 226
f 226 258 259
f 226 259 227
f 227 259 260
f 227 260 228
f 228 260 261
f 228 261 229
f 229 261 262
f 229 262 230
f 230 262 263
f 230 263 264
f 230 264 265
f 230 265 233
f 230 233 232
f 233 265 266
f 233 266 302
f 233 302 267
f 233 267 235
f 233 235 234
f 235 268 236
f 235 267 269
f 235 269 268
f 236 268 270
f 237 271 238
f 237 240 271
f 238 271 272
f 238 272 273
f 238 273 274
f 238 274 241
f 238 241 239
f 240 270 271
f 241 274 243
f 242 275 276
f 242 276 244
f 242 277 318
f 242 318 275
f 243 274 273
f 243 273 277
f 244 276 278
f 244 278 279
f 244 279 245
f 245 279 246
f 246 248 247
f 246 279 280
f 246 280 248
f 248 280 281
f 248 281 282
f 248 282 283
f 248 283 249
f 249 283 284
f 249 284 285
f 249 285 250
f 250 285 286
f 250 286 251
f 251 286 287
f 251 287 252
f 253 288 289
f 253 289 254
f 255 290 291
f 255 291 256
f 256 291 292
f 256 292 257
f 257 292 293
f 257 293 258
f 258 293 294
f 258 294 259
f 259 294 260
f 260 295 261
f 260 294 296
f 260 296 295
f 261 295 262
f 262 297 263
f 262 295 298
f 262 298 297
f 263 299 264
f 263 297 299
f 264 300 266
f 264 266 265
f 264 299 300
f 266 301 302
f 266 300 301
f 267 302 269
f 268 303 304
f 268 304 270
f 268 269 305
f 268 305 306
f 268 306 307
f 268 307 303
f 269 302 301
f 269 301 308
f 269 308 309
f 269 309 305
f 270 304 271
f 271 310 311
f 271 311 312
f 271 312 272
f 271 304 313
f 271 313 310
f 272 312 314
f 272 314 273
f 273 314 277
f 275 315 316
f 275 316 317
f 275 317 276
f 275 318 359
f 275 359 315
f 276 319 278
f 276 317 319
f 277 314 358
f 277 358 318
f 278 319 320
f 278 320 321
f 278 321 279
f 279 321 280
f 280 321 322
f 280 322 281
f 281 322 323
f 281 323 282
f 282 323 324
f 282 324 325
f 282 325 283
f 283 325 284
f 284 325 326
f 284 326 327
f 284 327 285
f 285 327 328
f 285 328 286
f 286 328 329
f 286 329 287
f 288 330 289
f 289 330 331
f 290 332 291
f 290 333 334
f 290 334 332
f 291 332 292
f 292 332 335
f 292 335 293
f 293 335 336
f 293 336 294
f 294 336 337
f 294 337 296
f 295 338 298
f 295 296 337
f 295 337 339
f 295 339 338
f 297 340 299
f 297 298 341
f 297 341 340
f 298 338 341
f 299 340 342
f 299 342 343
f 299 343 344
f 299 344 300
f 300 344 308
f 300 308 301
f 303 345 304
f 303 307 345
f 304 345 346
f 304 346 313
f 305 309 306
f 306 309 307
f 307 309 347
f 307 347 348
f 307 348 349
f 307 349 350
f 307 350 351
f 307 351 345
f 308 352 309
f 308 344 352
f 309 352 353
f 309 353 347
f 310 354 355
f 310 355 356
f 310 356 311
f 310 313 346
f 310 346 357
f 310 357 354
f 311 356 358
f 311 358 312
f 312 358 314
f 315 359 410
f 315 410 360
f 315 360 316
f 316 360 317
f 317 361 362
f 317 362 319
f 317 360 363
f 317 363 364
f 317 364 365
f 317 365 361
f 318 358 366
f 318 366 359
f 319 362 320
f 320 362 367
f 320 367 368
f 320 368 369
f 320 369 323
f 320 323 322
f 320 322 321
f 323 369 370
f 323 370 371
f 323 371 324
f 324 371 372
f 324 372 373
f 324 373 374
f 324 374 326
f 324 326 325
f 326 374 375
f 326 375 376
f 326 376 377
f 326 377 327
f 327 377 378
f 327 378 328
f 328 378 430
f 328 430 379
f 328 379 380
f 328 380 329
f 330 381 331
f 331 381 382
f 332 383 335
f 332 334 384
f 332 384 385
f 332 385 383
f 333 386 387
f 333 387 334
f 334 387 384
f 335 383 336
f 336 388 337
f 336 383 388
f 337 388 389
f 337 389 339
f 338 339 390
f 338 390 391
f 338 391 341
f 339 389 390
f 340 341 392
f 340 392 342
f 341 391 392
f 342 393 343
f 342 392 445
f 342 445 393
f 343 393 394
f 343 394 344
f 344 394 348
f 344 348 347
f 344 347 353
f 344 353 352
f 345 351 346
f 346 395 357
f 346 351 396
f 346 396 395
f 348 394 397
f 348 397 398
f 348 398 399
f 348 399 400
f 348 400 350
f 348 350 349
f 350 401 402
f 350 402 396
f 350 396 351
f 350 400 399
f 350 399 403
f 350 403 401
f 354 357 395
f 354 395 404
f 354 404 405
f 354 405 406
f 354 406 407
f 354 407 408
f 354 408 355
f 355 408 409
f 355 409 366
f 355 366 356
f 356 366 358
f 359 366 410
f 360 410 465
f 360 465 411
f 360 411 363
f 361 365 412
f 361 412 362
f 362 412 413
f 362 413 367
f 363 411 364
f 364 414 415
f 364 415 365
f 364 411 414
f 365 415 412
f 366 409 410
f 367 413 416
f 367 416 368
f 368 416 369
f 369 417 370
f 369 416 418
f 369 418 419
f 369 419 417
f 370 417 420
f 370 420 371
f 371 420 372
f 372 420 421
f 372 421 422
f 372 422 373
f 373 422 374
f 374 422 375
f 375 422 423
f 375 423 424
f 375 424 376
f 376 424 425
f 376 425 426
f 376 426 427
f 376 427 377
f 377 427 428
f 377 428 479
f 377 479 429
f 377 429 431
f 377 431 430
f 377 430 378
f 379 430 431
f 379 431 432
f 379 432 433
f 379 433 380
f 381 434 382
f 382 434 435
f 382 435 436
f 383 385 437
f 383 437 438
f 383 438 388
f 384 437 385
f 384 387 439
f 384 439 437
f 386 440 492
f 386 492 543
f 386 543 575
f 386 575 597
f 386 597 574
f 386 574 541
f 386 541 540
f 386 540 491
f 386 491 439
f 386 439 387
f 388 441 389
f 388 438 442
f 388 442 441
f 389 441 390
f 390 443 391
f 390 441 494
f 390 494 443
f 391 443 444
f 391 444 392
f 392 444 445
f 393 397 394
f 393 445 446
f 393 446 447
f 393 447 397
f 395 396 402
f 395 402 448
f 395 448 404
f 397 447 449
f 397 449 450
f 397 450 398
f 398 450 451
f 398 451 399
f 399 451 452
f 399 452 453
f 399 453 454
f 399 454 401
f 399 401 403
f 401 455 448
f 401 448 402
f 401 454 456
f 401 456 455
f 404 448 457
f 404 457 405
f 405 458 459
f 405 459 406
f 405 457 460
f 405 460 461
f 405 461 458
f 406 459 462
f 406 462 407
f 407 462 463
f 407 463 408
f 408 463 464
f 408 464 409
f 409 464 465
f 409 465 410
f 411 465 517
f 411 517 466
f 411 466 414
f 412 415 413
f 413 415 467
f 413 467 416
f 414 466 415
f 415 466 467
f 416 467 468
f 416 468 418
f 417 419 420
f 418 468 419
f 419 468 469
f 419 469 470
f 419 470 420
f 420 470 471
f 420 471 472
f 420 472 421
f 421 472 422
f 422 472 471
f 422 471 423
f 423 471 473
f 423 473 424
f 424 473 474
f 424 474 475
f 424 475 425
f 425 475 426
f 426 476 428
f 426 428 427
f 426 475 477
f 426 477 524
f 426 524 476
f 428 478 479
f 428 476 480
f 428 480 478
f 429 479 481
f 429 481 482
f 429 482 431
f 431 482 483
f 431 483 432
f 432 483 484
f 432 484 433
f 433 484 485
f 435 486 436
f 436 486 487
f 437 439 488
f 437 488 438
f 438 489 442
f 438 488 490
f 438 490 489
f 439 491 488
f 440 493 492
f 441 442 494
f 442 489 495
f 442 495 494
f 443 496 444
f 443 494 547
f 443 547 496
f 444 496 497
f 444 497 449
f 444 449 447
f 444 447 446
f 444 446 445
f 448 460 457
f 448 455 460
f 449 497 498
f 449 498 499
f 449 499 500
f 449 500 450
f 450 500 451
f 451 500 501
f 451 501 452
f 452 502 453
f 452 501 503
f 452 503 502
f 453 502 504
f 453 504 456
f 453 456 454
f 455 456 460
f 456 505 506
f 456 506 460
f 456 504 505
f 458 461 507
f 458 507 508
f 458 508 509
f 458 509 510
f 458 510 511
f 458 511 459
f 459 511 512
f 459 512 462
f 460 506 513
f 460 513 461
f 461 513 507
f 462 512 514
f 462 514 515
f 462 515 516
f 462 516 463
f 463 516 465
f 463 465 464
f 465 516 517
f 466 518 468
f 466 468 467
f 466 517 562
f 466 562 518
f 468 518 519
f 468 519 520
f 468 520 469
f 469 520 470
f 470 473 471
f 470 520 521
f 470 521 473
f 473 521 522
f 473 522 474
f 474 522 475
f 475 522 523
f 475 523 477
f 476 524 480
f 477 523 560
f 477 560 524
f 478 525 510
f 478 510 526
f 478 526 479
f 478 480 525
f 479 526 527
f 479 527 528
f 479 528 481
f 480 524 525
f 481 528 529
f 481 529 530
f 481 530 531
f 481 531 482
f 482 531 483
f 483 531 532
f 483 532 533
f 483 533 484
f 484 533 534
f 484 534 535
f 484 535 485
f 486 536 487
f 487 536 537
f 488 491 490
f 489 538 495
f 489 490 538
f 490 539 538
f 490 491 540
f 490 540 541
f 490 541 539
f 492 493 542
f 492 542 543
f 493 544 545
f 493 545 546
f 493 546 542
f 494 495 548
f 494 548 547
f 495 538 548
f 496 547 497
f 497 547 498
f 498 549 499
f 498 547 550
f 498 550 551
f 498 551 549
f 499 549 500
f 500 549 552
f 500 552 501
f 501 552 553
f 501 553 503
f 502 503 554
f 502 554 555
f 502 555 556
f 502 556 504
f 503 553 554
f 504 556 505
f 505 557 513
f 505 513 506
f 505 556 558
f 505 558 557
f 507 513 557
f 507 557 559
f 507 559 508
f 508 559 529
f 508 529 528
f 508 528 527
f 508 527 509
f 509 527 510
f 510 525 511
f 510 527 526
f 511 525 560
f 511 560 514
f 511 514 512
f 514 560 561
f 514 561 562
f 514 562 563
f 514 563 515
f 515 563 516
f 516 563 562
f 516 562 517
f 518 562 519
f 519 562 561
f 519 561 560
f 519 560 523
f 519 523 522
f 519 522 520
f 520 522 521
f 524 560 525
f 529 559 564
f 529 564 530
f 530 564 565
f 530 565 531
f 531 565 566
f 531 566 532
f 532 566 567
f 532 567 568
f 532 568 533
f 536 569 537
f 537 569 570
f 538 571 550
f 538 550 548
f 538 539 571
f 539 572 573
f 539 573 571
f 539 541 574
f 539 574 572
f 542 546 543
f 544 546 545
f 544 576 577
f 544 577 578
f 544 578 546
f 546 578 577
f 547 548 550
f 549 551 579
f 549 579 580
f 549 580 552
f 550 571 573
f 550 573 551
f 551 573 581
f 551 581 579
f 552 580 553
f 553 580 582
f 553 582 554
f 554 582 583
f 554 583 555
f 555 583 584
f 555 584 585
f 555 585 556
f 556 585 558
f 557 558 586
f 557 586 559
f 558 587 586
f 558 585 587
f 559 586 564
f 564 586 588
f 564 588 565
f 565 588 589
f 565 589 566
f 566 589 590
f 566 590 567
f 567 590 591
f 567 591 568
f 569 592 570
f 570 592 593
f 572 574 594
f 572 594 595
f 572 595 573
f 573 595 596
f 573 596 581
f 574 597 594
f 575 598 614
f 575 614 597
f 576 593 599
f 576 599 577
f 579 581 600
f 579 600 601
f 579 601 580
f 580 601 582
f 581 596 600
f 582 601 602
f 582 602 583
f 583 602 603
f 583 603 584
f 584 604 605
f 584 605 585
f 584 603 604
f 585 605 587
f 586 587 588
f 587 605 606
f 587 606 588
f 588 606 589
f 589 606 607
f 589 607 590
f 590 608 591
f 590 607 609
f 590 609 622
f 590 622 608
f 592 599 593
f 594 610 611
f 594 611 596
f 594 596 595
f 594 597 610
f 596 611 612
f 596 612 613
f 596 613 600
f 597 614 610
f 598 615 623
f 598 623 614
f 600 616 601
f 600 613 616
f 601 616 602
f 602 617 603
f 602 616 617
f 603 618 604
f 603 617 618
f 604 619 620
f 604 620 605
f 604 618 619
f 605 620 606
f 606 620 607
f 607 620 621
f 607 621 609
f 609 621 630
f 609 630 622
f 610 614 623
f 610 623 611
f 611 623 612
f 612 623 624
f 612 624 625
f 612 625 613
f 613 625 616
f 615 626 623
f 616 625 627
f 616 627 617
f 617 627 618
f 618 627 628
f 618 628 629
f 618 629 619
f 619 629 621
f 619 621 620
f 621 629 634
f 621 634 630
f 623 626 624
f 624 626 631
f 624 631 636
f 624 636 632
f 624 632 627
f 624 627 625
f 627 632 628
f 628 633 634
f 628 634 629
f 628 632 636
f 628 636 633
f 631 635 636
f 633 636 637
f 635 638 636
f 636 638 637

