# https://github.com/mikedh/trimesh
v -0.04549500 -0.00734914 0.01943931
v -0.04549500 -0.00734914 0.02684964
v -0.04549500 -0.00194368 0.01943931
v -0.02499720 -0.00734914 0.01943931
v -0.04548497 -0.00734914 0.02774945
v -0.04549500 -0.00194157 0.02684964
v -0.04549500 -0.00194157 0.01965119
v -0.04205596 -0.00194157 0.01943931
v -0.02605058 -0.00194315 0.01943931
v -0.02930302 -0.00194157 0.02954906
v -0.02837404 -0.00734914 0.02954906
v -0.04541876 -0.00734914 0.02864925
v -0.04548497 -0.00194157 0.02774945
v -0.02780421 -0.00194157 0.01943931
v -0.02625122 -0.00194157 0.01981630
v -0.02956185 -0.00194157 0.03026313
v -0.02956385 -0.00194157 0.03026863
v -0.02865092 -0.00734914 0.03028514
v -0.04522413 -0.00734914 0.02954906
v -0.04541675 -0.00375027 0.02864925
v -0.04541474 -0.00194157 0.02864925
v -0.02979861 -0.00194157 0.03071441
v -0.02889371 -0.00734914 0.03073642
v -0.04504155 -0.00734914 0.03009802
v -0.04504155 -0.00554997 0.03009527
v -0.04522212 -0.00554997 0.02954906
v -0.04521811 -0.00285042 0.02954906
v -0.04521611 -0.00194157 0.02954906
v -0.02980062 -0.00195004 0.03071991
v -0.03031627 -0.00194157 0.03142710
v -0.02939732 -0.00734914 0.03140921
v -0.04482485 -0.00734914 0.03054793
v -0.04482285 -0.00285042 0.03054105
v -0.04503753 -0.00194157 0.03008977
v -0.03037045 -0.00194157 0.03149451
v -0.02941337 -0.00734914 0.03142847
v -0.04437340 -0.00464959 0.03126475
v -0.04437340 -0.00375027 0.03126337
v -0.04437340 -0.00734914 0.03126612
v -0.04437340 -0.00644982 0.03126612
v -0.04437139 -0.00194157 0.03125924
v -0.04481682 -0.00194157 0.03054655
v -0.04482084 -0.00194157 0.03053967
v -0.03090416 -0.00194157 0.03204348
v -0.03059717 -0.00231633 0.03180408
v -0.02974444 -0.00707125 0.03175455
v -0.03007149 -0.00734914 0.03208888
v -0.04402428 -0.00734914 0.03171602
v -0.04402227 -0.00464959 0.03171465
v -0.04401826 -0.00194157 0.03171052
v -0.03097238 -0.00194157 0.03210126
v -0.03008954 -0.00734914 0.03210539
v -0.04357283 -0.00734914 0.03211777
v -0.04357283 -0.00554997 0.03211502
v -0.04356882 -0.00195004 0.03211089
v -0.04356280 -0.00194157 0.03211502
v -0.03163049 -0.00194157 0.03261445
v -0.03075167 -0.00734914 0.03260895
v -0.03163450 -0.00195004 0.03261858
v -0.04299096 -0.00734914 0.03256768
v -0.04298494 -0.00375027 0.03256355
v -0.04298093 -0.00194157 0.03256080
v -0.03163651 -0.00194157 0.03261858
v -0.03120111 -0.00734914 0.03285523
v -0.03208194 -0.00194157 0.03286211
v -0.04254152 -0.00734914 0.03283046
v -0.04253951 -0.00644982 0.03283046
v -0.04253149 -0.00194157 0.03282634
v -0.03195152 -0.00734914 0.03316617
v -0.03208595 -0.00195004 0.03286486
v -0.03285041 -0.00194157 0.03318681
v -0.04184930 -0.00734914 0.03313453
v -0.04184930 -0.00644982 0.03313453
v -0.04184930 -0.00375027 0.03313177
v -0.04184930 -0.00194157 0.03312902
v -0.03285041 -0.00734914 0.03338355
v -0.03375130 -0.00194157 0.03340144
v -0.04094841 -0.00734914 0.03337392
v -0.04094841 -0.00644982 0.03337392
v -0.04094841 -0.00375027 0.03337255
v -0.04094841 -0.00194157 0.03336980
v -0.03375130 -0.00464959 0.03343721
v -0.03375130 -0.00734914 0.03347023
v -0.03464216 -0.00194157 0.03347574
v -0.04004952 -0.00734914 0.03346748
v -0.04004952 -0.00644982 0.03346748
v -0.04004952 -0.00375027 0.03346611
v -0.04004952 -0.00194157 0.03346473
v -0.04094038 -0.00194157 0.03337117
v -0.03465018 -0.00734914 0.03349500
v -0.03465018 -0.00464959 0.03349225
v -0.03465018 -0.00554997 0.03349500
v -0.03554907 -0.00194157 0.03349500
v -0.03914863 -0.00734914 0.03349500
v -0.03914863 -0.00194157 0.03349500
f 1 2 6
f 1 6 7
f 1 7 3
f 1 3 8
f 1 8 14
f 1 14 9
f 1 9 4
f 1 4 11
f 1 11 18
f 1 18 23
f 1 23 31
f 1 31 36
f 1 36 47
f 1 47 52
f 1 52 58
f 1 58 64
f 1 64 69
f 1 69 76
f 1 76 83
f 1 83 90
f 1 90 94
f 1 94 85
f 1 85 78
f 1 78 72
f 1 72 66
f 1 66 60
f 1 60 53
f 1 53 48
f 1 48 39
f 1 39 32
f 1 32 24
f 1 24 19
f 1 19 12
f 1 12 5
f 1 5 2
f 2 5 13
f 2 13 6
f 3 7 8
f 4 9 10
f 4 10 11
f 5 12 13
f 6 13 21
f 6 21 28
f 6 28 34
f 6 34 43
f 6 43 42
f 6 42 41
f 6 41 50
f 6 50 56
f 6 56 62
f 6 62 68
f 6 68 75
f 6 75 81
f 6 81 89
f 6 89 88
f 6 88 95
f 6 95 93
f 6 93 84
f 6 84 77
f 6 77 71
f 6 71 65
f 6 65 63
f 6 63 57
f 6 57 51
f 6 51 44
f 6 44 35
f 6 35 30
f 6 30 22
f 6 22 17
f 6 17 16
f 6 16 10
f 6 10 15
f 6 15 14
f 6 14 8
f 6 8 7
f 9 14 15
f 9 15 10
f 10 16 11
f 11 16 17
f 11 17 18
f 12 19 20
f 12 20 13
f 13 20 21
f 17 22 18
f 18 22 23
f 19 24 25
f 19 25 26
f 19 26 21
f 19 21 20
f 21 26 27
f 21 27 28
f 22 29 23
f 22 30 29
f 23 29 30
f 23 30 31
f 24 32 25
f 25 27 26
f 25 32 33
f 25 33 34
f 25 34 27
f 27 34 28
f 30 35 31
f 31 35 36
f 32 37 38
f 32 38 33
f 32 39 40
f 32 40 37
f 33 38 41
f 33 41 42
f 33 42 43
f 33 43 34
f 35 44 45
f 35 45 46
f 35 46 36
f 36 46 47
f 37 40 48
f 37 48 49
f 37 49 38
f 38 49 50
f 38 50 41
f 39 48 40
f 44 51 52
f 44 52 46
f 44 46 45
f 46 52 47
f 48 53 49
f 49 53 54
f 49 54 55
f 49 55 50
f 50 55 56
f 51 57 52
f 52 57 59
f 52 59 58
f 53 60 54
f 54 60 55
f 55 60 61
f 55 61 62
f 55 62 56
f 57 63 59
f 58 59 64
f 59 63 65
f 59 65 64
f 60 66 67
f 60 67 68
f 60 68 61
f 61 68 62
f 64 65 70
f 64 70 71
f 64 71 69
f 65 71 70
f 66 72 73
f 66 73 67
f 67 73 74
f 67 74 75
f 67 75 68
f 69 71 76
f 71 77 76
f 72 78 79
f 72 79 73
f 73 79 80
f 73 80 74
f 74 80 81
f 74 81 75
f 76 77 82
f 76 82 83
f 77 84 82
f 78 85 86
f 78 86 79
f 79 86 87
f 79 87 80
f 80 87 88
f 80 88 89
f 80 89 81
f 82 84 83
f 83 84 91
f 83 91 92
f 83 92 90
f 84 93 91
f 85 94 95
f 85 95 86
f 86 95 87
f 87 95 88
f 90 92 93
f 90 93 95
f 90 95 94
f 91 93 92

