# https://github.com/mikedh/trimesh
v -0.04549500 0.00946438 0.01990861
v -0.04549500 0.00946438 0.02685033
v -0.04549500 0.01641327 0.01990861
v -0.02473121 0.00946438 0.01990861
v -0.04548296 0.00946438 0.02774930
v -0.04549018 0.01641327 0.02721337
v -0.04549500 0.01641327 0.02685033
v -0.02242199 0.01641327 0.01990861
v -0.02089534 0.01640987 0.01990861
v -0.02797473 0.00946438 0.02974271
v -0.04543962 0.00946438 0.02836368
v -0.04542276 0.01641327 0.02864959
v -0.04545888 0.01641327 0.02811367
v -0.04548296 0.01641327 0.02774930
v -0.02111687 0.01641327 0.02027963
v -0.02458192 0.01641327 0.02957515
v -0.02828294 0.00946438 0.03043954
v -0.04541795 0.00946438 0.02864959
v -0.04542036 0.01245074 0.02864959
v -0.04523013 0.01424935 0.02954856
v -0.04523013 0.01641327 0.02954856
v -0.02475048 0.01641327 0.02994352
v -0.02493830 0.01641327 0.03033981
v -0.02503702 0.01641327 0.03051402
v -0.02841779 0.00946438 0.03066562
v -0.04522531 0.00946438 0.02954856
v -0.04522772 0.01065076 0.02954856
v -0.04515789 0.01641327 0.02977463
v -0.02524170 0.01641327 0.03080126
v -0.02867063 0.00946438 0.03106856
v -0.04504230 0.00946438 0.03010044
v -0.04504471 0.01065076 0.03010177
v -0.04504712 0.01334937 0.03010576
v -0.04504712 0.01641327 0.03010576
v -0.02540303 0.01641327 0.03100339
v -0.02902700 0.00946438 0.03149809
v -0.04482559 0.00946438 0.03054992
v -0.04482559 0.01155075 0.03055391
v -0.04482559 0.01334937 0.03055657
v -0.04495803 0.01641327 0.03028794
v -0.02570403 0.01641327 0.03135580
v -0.02918833 0.00946438 0.03168028
v -0.04437289 0.00946438 0.03126670
v -0.04437530 0.00975077 0.03126670
v -0.04464499 0.01641327 0.03084381
v -0.04482559 0.01641327 0.03055657
v -0.02611338 0.01641327 0.03178534
v -0.02949655 0.00946438 0.03198082
v -0.04402374 0.00946438 0.03171618
v -0.04437530 0.01641327 0.03126670
v -0.04402615 0.01604933 0.03171751
v -0.02618803 0.01641327 0.03184651
v -0.02971086 0.00946438 0.03214572
v -0.02634936 0.01641327 0.03197683
v -0.04357345 0.00946438 0.03211912
v -0.04357345 0.01155075 0.03212045
v -0.04402615 0.01641327 0.03171751
v -0.04384314 0.01641327 0.03188108
v -0.03010817 0.00946438 0.03244493
v -0.02704766 0.01641327 0.03245956
v -0.04317855 0.00946438 0.03242631
v -0.04299795 0.01604933 0.03257260
v -0.04357345 0.01641327 0.03212178
v -0.03033934 0.00946438 0.03260052
v -0.02721863 0.01641327 0.03256993
v -0.04299554 0.01155075 0.03256993
v -0.04299073 0.00946438 0.03256860
v -0.04299314 0.00975077 0.03256993
v -0.04299795 0.01641327 0.03257260
v -0.04254767 0.01604933 0.03283723
v -0.03054401 0.00946438 0.03273217
v -0.02742330 0.01641327 0.03268829
v -0.04268492 0.00946438 0.03274813
v -0.04254285 0.00975077 0.03283191
v -0.04254767 0.01641327 0.03283723
v -0.04184695 0.00946438 0.03313644
v -0.04226594 0.01641327 0.03296091
v -0.03066441 0.00946438 0.03279468
v -0.02764484 0.01641327 0.03279601
v -0.04254044 0.00946438 0.03283191
v -0.04094878 0.00946438 0.03337315
v -0.04184695 0.01604933 0.03314176
v -0.04184695 0.01641327 0.03314176
v -0.03103524 0.00946438 0.03295426
v -0.02799881 0.01641327 0.03293830
v -0.04094878 0.01641327 0.03337315
v -0.04004580 0.00946438 0.03346757
v -0.04058277 0.01641327 0.03341172
v -0.03133864 0.00946438 0.03307128
v -0.02835037 0.01641327 0.03306463
v -0.04004580 0.01641327 0.03346757
v -0.03914763 0.00946438 0.03349417
v -0.03195267 0.00946438 0.03326677
v -0.02888734 0.01641327 0.03322687
v -0.03914763 0.01641327 0.03349417
v -0.03464717 0.00946438 0.03349417
v -0.03223921 0.00946438 0.03332794
v -0.02925335 0.01641327 0.03330666
v -0.03158907 0.01641327 0.03349417
v -0.03403796 0.00946438 0.03349151
v -0.03375141 0.00975077 0.03349151
v -0.03375141 0.01065076 0.03349417
v -0.03285324 0.00946438 0.03343299
v -0.02978792 0.01641327 0.03339975
v -0.03195267 0.01514934 0.03349417
v -0.03105209 0.01641327 0.03348619
v -0.03375141 0.00946438 0.03348885
v -0.03313738 0.00946438 0.03345427
v -0.03015152 0.01641327 0.03343831
v -0.03105209 0.01604933 0.03348220
v -0.03068849 0.01641327 0.03347422
f 1 2 7
f 1 7 3
f 1 3 8
f 1 8 9
f 1 9 4
f 1 4 10
f 1 10 17
f 1 17 25
f 1 25 30
f 1 30 36
f 1 36 42
f 1 42 48
f 1 48 53
f 1 53 59
f 1 59 64
f 1 64 71
f 1 71 78
f 1 78 84
f 1 84 89
f 1 89 93
f 1 93 97
f 1 97 103
f 1 103 108
f 1 108 107
f 1 107 100
f 1 100 96
f 1 96 92
f 1 92 87
f 1 87 81
f 1 81 76
f 1 76 80
f 1 80 73
f 1 73 67
f 1 67 61
f 1 61 55
f 1 55 49
f 1 49 43
f 1 43 37
f 1 37 31
f 1 31 26
f 1 26 18
f 1 18 11
f 1 11 5
f 1 5 2
f 2 5 6
f 2 6 7
f 3 7 6
f 3 6 14
f 3 14 13
f 3 13 12
f 3 12 21
f 3 21 28
f 3 28 34
f 3 34 40
f 3 40 46
f 3 46 45
f 3 45 50
f 3 50 57
f 3 57 58
f 3 58 63
f 3 63 69
f 3 69 75
f 3 75 77
f 3 77 83
f 3 83 86
f 3 86 88
f 3 88 91
f 3 91 95
f 3 95 99
f 3 99 106
f 3 106 111
f 3 111 109
f 3 109 104
f 3 104 98
f 3 98 94
f 3 94 90
f 3 90 85
f 3 85 79
f 3 79 72
f 3 72 65
f 3 65 60
f 3 60 54
f 3 54 52
f 3 52 47
f 3 47 41
f 3 41 35
f 3 35 29
f 3 29 24
f 3 24 23
f 3 23 22
f 3 22 16
f 3 16 15
f 3 15 8
f 4 9 10
f 5 11 12
f 5 12 13
f 5 13 14
f 5 14 6
f 8 15 9
f 9 16 10
f 9 15 16
f 10 16 17
f 11 18 19
f 11 19 12
f 12 19 20
f 12 20 21
f 16 22 17
f 17 22 23
f 17 23 24
f 17 24 25
f 18 26 27
f 18 27 19
f 19 27 20
f 20 27 28
f 20 28 21
f 24 29 30
f 24 30 25
f 26 31 32
f 26 32 27
f 27 32 33
f 27 33 28
f 28 33 34
f 29 35 30
f 30 35 36
f 31 37 32
f 32 37 33
f 33 37 38
f 33 38 39
f 33 39 40
f 33 40 34
f 35 41 36
f 36 41 42
f 37 43 44
f 37 44 38
f 38 44 39
f 39 44 45
f 39 45 46
f 39 46 40
f 41 47 42
f 42 47 48
f 43 49 44
f 44 50 45
f 44 49 51
f 44 51 57
f 44 57 50
f 47 52 48
f 48 52 54
f 48 54 53
f 49 55 56
f 49 56 51
f 51 56 58
f 51 58 57
f 53 54 59
f 54 60 59
f 55 61 62
f 55 62 56
f 56 62 63
f 56 63 58
f 59 60 64
f 60 65 64
f 61 66 62
f 61 67 68
f 61 68 66
f 62 69 63
f 62 66 68
f 62 68 70
f 62 70 75
f 62 75 69
f 64 65 71
f 65 72 71
f 67 73 68
f 68 73 74
f 68 74 70
f 70 74 76
f 70 76 77
f 70 77 75
f 71 72 78
f 72 79 78
f 73 80 74
f 74 80 76
f 76 81 82
f 76 82 77
f 77 82 83
f 78 79 84
f 79 85 84
f 81 86 83
f 81 83 82
f 81 87 88
f 81 88 86
f 84 85 89
f 85 90 89
f 87 91 88
f 87 92 95
f 87 95 91
f 89 90 93
f 90 94 93
f 92 96 102
f 92 102 105
f 92 105 99
f 92 99 95
f 93 94 98
f 93 98 97
f 96 100 101
f 96 101 102
f 97 98 104
f 97 104 103
f 99 105 106
f 100 107 101
f 101 107 106
f 101 106 105
f 101 105 102
f 103 104 109
f 103 109 108
f 106 107 110
f 106 110 111
f 107 108 111
f 107 111 110
f 108 109 111

