# https://github.com/mikedh/trimesh
v -0.04549500 -0.01227572 0.01943980
v -0.04549500 -0.01227572 0.02440232
v -0.04549500 -0.00734914 0.01943980
v -0.02290764 -0.01227572 0.01943980
v -0.04549500 -0.00735011 0.02440232
v -0.02518075 -0.01227572 0.02440232
v -0.04549500 -0.00734914 0.02414970
v -0.02499722 -0.00734914 0.01943980
v -0.02708901 -0.00735011 0.02440232
v -0.04491567 -0.00734914 0.02440232
v -0.02707574 -0.00734914 0.02436297
v -0.02768382 -0.00734914 0.02440232
f 1 2 5
f 1 5 7
f 1 7 3
f 1 3 8
f 1 8 4
f 1 4 6
f 1 6 2
f 2 6 9
f 2 9 12
f 2 12 10
f 2 10 5
f 3 7 10
f 3 10 12
f 3 12 11
f 3 11 8
f 4 8 9
f 4 9 6
f 5 10 7
f 8 11 9
f 9 11 12

