# https://github.com/mikedh/trimesh
v 0.02560064 0.00899708 0.02135441
v 0.02704379 0.00030730 0.02135441
v 0.02704379 0.00030730 0.02135560
v 0.02938671 0.00030730 0.02954955
v 0.02807015 0.00899708 0.02953291
v 0.04549500 0.00899708 0.02135441
v 0.04549500 0.00030730 0.02135441
v 0.02960483 0.00030730 0.03019128
v 0.02846551 0.00899708 0.03049194
v 0.04549500 0.00899708 0.02685071
v 0.04549500 0.00030730 0.02685071
v 0.02972558 0.00030730 0.03041945
v 0.02867390 0.00899708 0.03084133
v 0.02984633 0.00030730 0.03064049
v 0.04548527 0.00899708 0.02774914
v 0.04548527 0.00435022 0.02774914
v 0.04548331 0.00030730 0.02774914
v 0.03007420 0.00030730 0.03097443
v 0.02884529 0.00899708 0.03109089
v 0.04541905 0.00899708 0.02864993
v 0.04541905 0.00794998 0.02864993
v 0.04541710 0.00435022 0.02864993
v 0.04541515 0.00165041 0.02864993
v 0.04541321 0.00030730 0.02864993
v 0.03029622 0.00030730 0.03129648
v 0.03065068 0.00030730 0.03174569
v 0.02907120 0.00899708 0.03136659
v 0.04525740 0.00899708 0.02940219
v 0.04522429 0.00794998 0.02954955
v 0.04531582 0.00030730 0.02909202
v 0.03110056 0.00030730 0.03214024
v 0.02956783 0.00899708 0.03192157
v 0.04522429 0.00899708 0.02954955
v 0.04504317 0.00884992 0.03009977
v 0.04504317 0.00794998 0.03009858
v 0.04521455 0.00030730 0.02954955
v 0.03167704 0.00030730 0.03259063
v 0.03020858 0.00899708 0.03240762
v 0.04504317 0.00899708 0.03009977
v 0.04482504 0.00884992 0.03055017
v 0.04482309 0.00345029 0.03054066
v 0.04482114 0.00030730 0.03053591
v 0.04503927 0.00345029 0.03009145
v 0.04512691 0.00030730 0.02981337
v 0.03212693 0.00030730 0.03284970
v 0.03087075 0.00899708 0.03281524
v 0.03066626 0.00862536 0.03266313
v 0.03033907 0.00899708 0.03249556
v 0.03026116 0.00899708 0.03244327
v 0.04482504 0.00899708 0.03055017
v 0.04444916 0.00899708 0.03114912
v 0.04437515 0.00794998 0.03126677
v 0.04437321 0.00435022 0.03126320
v 0.04437126 0.00030730 0.03125726
v 0.04493021 0.00030730 0.03030774
v 0.04503537 0.00030730 0.03008670
v 0.04503733 0.00165041 0.03008789
v 0.03100513 0.00899708 0.03287941
v 0.03285142 0.00030730 0.03316225
v 0.04437515 0.00899708 0.03126677
v 0.04402459 0.00899708 0.03171717
v 0.04402264 0.00614925 0.03171598
v 0.04402264 0.00524931 0.03171479
v 0.04401875 0.00255035 0.03171004
v 0.04419598 0.00030730 0.03147830
v 0.03195165 0.00899708 0.03323712
v 0.03375120 0.00030730 0.03338686
v 0.04357470 0.00884992 0.03211884
v 0.04357470 0.00899708 0.03211884
v 0.04357276 0.00524931 0.03211409
v 0.04379478 0.00030730 0.03190493
v 0.04401485 0.00030730 0.03170647
v 0.03285142 0.00884992 0.03341775
v 0.03285142 0.00899708 0.03342132
v 0.03465097 0.00030730 0.03347123
v 0.04308781 0.00899708 0.03249556
v 0.04299238 0.00899708 0.03256924
v 0.04327673 0.00030730 0.03233038
v 0.04356496 0.00030730 0.03210815
v 0.03375120 0.00884992 0.03348311
v 0.03375120 0.00899708 0.03348430
v 0.03554880 0.00030730 0.03349500
v 0.04261650 0.00899708 0.03278910
v 0.04252691 0.00030730 0.03282475
v 0.04275673 0.00030730 0.03268927
v 0.04298654 0.00524931 0.03256449
v 0.04297680 0.00030730 0.03255855
v 0.03465097 0.00614925 0.03349500
v 0.03465097 0.00899708 0.03349500
v 0.03914984 0.00030730 0.03349500
v 0.04254250 0.00899708 0.03283188
v 0.04254250 0.00884992 0.03283188
v 0.04219388 0.00030730 0.03297330
v 0.03914984 0.00899708 0.03349500
v 0.04004962 0.00030730 0.03346410
v 0.04004962 0.00255035 0.03346529
v 0.04004962 0.00704919 0.03346767
v 0.04184916 0.00899708 0.03313611
v 0.04184916 0.00884992 0.03313611
v 0.04184916 0.00524931 0.03313254
v 0.04184916 0.00030730 0.03312660
v 0.04004962 0.00899708 0.03346767
v 0.04094939 0.00030730 0.03336903
v 0.04094939 0.00614925 0.03337378
v 0.04094939 0.00884992 0.03337497
v 0.04094939 0.00899708 0.03337497
f 1 2 3
f 1 3 4
f 1 4 5
f 1 5 9
f 1 9 13
f 1 13 19
f 1 19 27
f 1 27 32
f 1 32 38
f 1 38 49
f 1 49 48
f 1 48 46
f 1 46 58
f 1 58 66
f 1 66 74
f 1 74 81
f 1 81 89
f 1 89 94
f 1 94 102
f 1 102 106
f 1 106 98
f 1 98 91
f 1 91 83
f 1 83 77
f 1 77 76
f 1 76 69
f 1 69 61
f 1 61 60
f 1 60 51
f 1 51 50
f 1 50 39
f 1 39 33
f 1 33 28
f 1 28 20
f 1 20 15
f 1 15 10
f 1 10 6
f 1 6 7
f 1 7 2
f 2 7 11
f 2 11 17
f 2 17 24
f 2 24 30
f 2 30 36
f 2 36 44
f 2 44 56
f 2 56 55
f 2 55 42
f 2 42 54
f 2 54 65
f 2 65 72
f 2 72 71
f 2 71 79
f 2 79 78
f 2 78 87
f 2 87 85
f 2 85 84
f 2 84 93
f 2 93 101
f 2 101 103
f 2 103 95
f 2 95 90
f 2 90 82
f 2 82 75
f 2 75 67
f 2 67 59
f 2 59 45
f 2 45 37
f 2 37 31
f 2 31 26
f 2 26 25
f 2 25 18
f 2 18 14
f 2 14 12
f 2 12 8
f 2 8 4
f 2 4 3
f 4 8 5
f 5 8 9
f 6 10 11
f 6 11 7
f 8 12 9
f 9 12 14
f 9 14 13
f 10 15 16
f 10 16 11
f 11 16 17
f 13 14 18
f 13 18 19
f 15 20 21
f 15 21 16
f 16 21 17
f 17 21 22
f 17 22 23
f 17 23 24
f 18 25 19
f 19 25 26
f 19 26 27
f 20 28 21
f 21 28 22
f 22 28 23
f 23 28 29
f 23 29 30
f 23 30 24
f 26 31 32
f 26 32 27
f 28 33 29
f 29 33 39
f 29 39 34
f 29 34 35
f 29 35 36
f 29 36 30
f 31 37 32
f 32 37 38
f 34 40 35
f 34 39 50
f 34 50 40
f 35 40 41
f 35 41 42
f 35 42 43
f 35 43 36
f 36 43 44
f 37 45 46
f 37 46 47
f 37 47 48
f 37 48 49
f 37 49 38
f 40 50 51
f 40 51 52
f 40 52 53
f 40 53 54
f 40 54 41
f 41 54 42
f 42 55 43
f 43 55 56
f 43 56 57
f 43 57 44
f 44 57 56
f 45 58 46
f 45 59 58
f 46 48 47
f 51 60 52
f 52 60 61
f 52 61 62
f 52 62 63
f 52 63 53
f 53 63 54
f 54 63 64
f 54 64 65
f 58 59 66
f 59 67 66
f 61 68 62
f 61 69 68
f 62 68 63
f 63 68 70
f 63 70 71
f 63 71 64
f 64 71 72
f 64 72 65
f 66 67 73
f 66 73 74
f 67 74 73
f 67 75 74
f 68 69 76
f 68 76 70
f 70 76 77
f 70 77 78
f 70 78 79
f 70 79 71
f 74 75 80
f 74 80 81
f 75 82 81
f 75 81 80
f 77 83 84
f 77 84 85
f 77 85 86
f 77 86 78
f 78 86 87
f 81 82 88
f 81 88 89
f 82 90 94
f 82 94 89
f 82 89 88
f 83 91 92
f 83 92 84
f 84 92 93
f 85 87 86
f 90 95 96
f 90 96 97
f 90 97 102
f 90 102 94
f 91 98 99
f 91 99 92
f 92 99 100
f 92 100 101
f 92 101 93
f 95 103 104
f 95 104 96
f 96 104 97
f 97 104 105
f 97 105 106
f 97 106 102
f 98 106 105
f 98 105 99
f 99 105 104
f 99 104 103
f 99 103 100
f 100 103 101

