# https://github.com/mikedh/trimesh
v -0.02729477 -0.00734914 0.02504938
v -0.02708991 -0.00735102 0.02440232
v -0.02768627 -0.00734914 0.02440232
v -0.02814606 -0.00734914 0.02865049
v -0.02224168 -0.01696978 0.02444237
v -0.02518249 -0.01227435 0.02440232
v -0.04491458 -0.00734914 0.02440232
v -0.02837822 -0.00734914 0.02954855
v -0.02377354 -0.01696978 0.02954944
v -0.04549500 -0.01696978 0.02444237
v -0.04549500 -0.01227435 0.02440232
v -0.04549500 -0.00735102 0.02440232
v -0.04549500 -0.00734914 0.02505027
v -0.02865136 -0.00734914 0.03028550
v -0.02407172 -0.01696978 0.03024812
v -0.04549500 -0.01696978 0.02685083
v -0.04549500 -0.00734914 0.02685172
v -0.02889491 -0.00734914 0.03073587
v -0.02437672 -0.01696978 0.03071985
v -0.04549500 -0.01227435 0.02685172
v -0.04548362 -0.01696978 0.02775066
v -0.04548590 -0.01462583 0.02767412
v -0.04548362 -0.00734914 0.02775244
v -0.02941388 -0.00734914 0.03142832
v -0.02443135 -0.01696978 0.03079016
v -0.04546541 -0.01696978 0.02803102
v -0.04548362 -0.01462583 0.02775155
v -0.04548362 -0.01227435 0.02775244
v -0.04542216 -0.01462583 0.02865049
v -0.04541761 -0.00825131 0.02865049
v -0.04541533 -0.00734914 0.02865049
v -0.03007169 -0.00734914 0.03208784
v -0.02523484 -0.01696978 0.03167219
v -0.02484334 -0.01696978 0.03126989
v -0.04542216 -0.01696978 0.02865049
v -0.04523324 -0.01544984 0.02954944
v -0.04522869 -0.01185058 0.02954855
v -0.04522186 -0.00734914 0.02954855
v -0.03009218 -0.00734914 0.03210386
v -0.02533499 -0.01696978 0.03175675
v -0.04523324 -0.01696978 0.02954944
v -0.04506253 -0.01462583 0.03005943
v -0.04504205 -0.00825131 0.03009949
v -0.04503977 -0.00734914 0.03009771
v -0.03075454 -0.00734914 0.03260941
v -0.02571966 -0.01696978 0.03205402
v -0.04504432 -0.01696978 0.03010660
v -0.04504432 -0.01462583 0.03010660
v -0.04504432 -0.01274992 0.03010571
v -0.04504432 -0.01227435 0.03010483
v -0.04482581 -0.01095029 0.03055341
v -0.04482353 -0.00734914 0.03054807
v -0.03120295 -0.00734914 0.03285417
v -0.02687140 -0.01696978 0.03275982
v -0.02642072 -0.01696978 0.03251239
v -0.04497831 -0.01696978 0.03024634
v -0.04484629 -0.01462583 0.03051870
v -0.04482581 -0.01227435 0.03055608
v -0.04437285 -0.00734914 0.03126633
v -0.03195181 -0.00734914 0.03316657
v -0.02744727 -0.01696978 0.03298589
v -0.04482581 -0.01696978 0.03055697
v -0.04482581 -0.01462583 0.03055697
v -0.04468696 -0.01696978 0.03077859
v -0.04458909 -0.01227435 0.03093168
v -0.04437740 -0.01364927 0.03126633
v -0.04402004 -0.00734914 0.03171669
v -0.03285317 -0.00734914 0.03338463
v -0.02835091 -0.01696978 0.03325914
v -0.04437740 -0.01696978 0.03126722
v -0.04437740 -0.01462583 0.03126722
v -0.04402460 -0.01462583 0.03171758
v -0.04357619 -0.01462583 0.03212166
v -0.04357164 -0.00734914 0.03211721
v -0.03375226 -0.00734914 0.03346919
v -0.02925227 -0.01696978 0.03341312
v -0.04426815 -0.01696978 0.03140785
v -0.04388575 -0.01696978 0.03184397
v -0.04402460 -0.01696978 0.03171758
v -0.04357619 -0.01696978 0.03212166
v -0.04300032 -0.01634919 0.03257202
v -0.04299805 -0.01462583 0.03257202
v -0.04299349 -0.01005094 0.03257024
v -0.04299122 -0.00915160 0.03257024
v -0.04298894 -0.00734914 0.03256757
v -0.03464907 -0.00734914 0.03349500
v -0.03375226 -0.00825131 0.03348254
v -0.03015136 -0.01696978 0.03347809
v -0.03015136 -0.01634919 0.03346296
v -0.04300032 -0.01696978 0.03257202
v -0.04254964 -0.01696978 0.03283904
v -0.04254964 -0.01544984 0.03283815
v -0.04254509 -0.01227435 0.03283548
v -0.04254054 -0.00915160 0.03283281
v -0.04253826 -0.00734914 0.03283014
v -0.03914677 -0.00734914 0.03349500
v -0.03375226 -0.01005094 0.03349500
v -0.03105044 -0.01634919 0.03349411
v -0.03105044 -0.01696978 0.03349411
v -0.04184858 -0.01696978 0.03314254
v -0.04184858 -0.01227435 0.03313987
v -0.04184858 -0.00734914 0.03313542
v -0.03914677 -0.01227435 0.03349500
v -0.04004586 -0.00734914 0.03346652
v -0.04004586 -0.00825131 0.03346830
v -0.04004813 -0.01227435 0.03346830
v -0.03375226 -0.01227435 0.03349500
v -0.03914905 -0.01696978 0.03349411
v -0.04094722 -0.01696978 0.03337395
v -0.04102461 -0.01462583 0.03335437
v -0.04094494 -0.00734914 0.03337395
v -0.04004813 -0.01462583 0.03346830
v -0.04004586 -0.01696978 0.03346830
v -0.03922644 -0.01462583 0.03349233
v -0.04047378 -0.01227435 0.03342380
v -0.04066953 -0.01696978 0.03340332
v -0.04094722 -0.01227435 0.03337395
f 1 2 3
f 1 3 7
f 1 7 13
f 1 13 17
f 1 17 23
f 1 23 31
f 1 31 38
f 1 38 44
f 1 44 52
f 1 52 59
f 1 59 67
f 1 67 74
f 1 74 85
f 1 85 95
f 1 95 102
f 1 102 111
f 1 111 104
f 1 104 96
f 1 96 86
f 1 86 75
f 1 75 68
f 1 68 60
f 1 60 53
f 1 53 45
f 1 45 39
f 1 39 32
f 1 32 24
f 1 24 18
f 1 18 14
f 1 14 8
f 1 8 4
f 1 4 2
f 2 4 5
f 2 5 6
f 2 6 11
f 2 11 12
f 2 12 7
f 2 7 3
f 4 8 5
f 5 8 9
f 5 9 15
f 5 15 19
f 5 19 25
f 5 25 34
f 5 34 33
f 5 33 40
f 5 40 46
f 5 46 55
f 5 55 54
f 5 54 61
f 5 61 69
f 5 69 76
f 5 76 88
f 5 88 99
f 5 99 108
f 5 108 113
f 5 113 116
f 5 116 109
f 5 109 100
f 5 100 91
f 5 91 90
f 5 90 80
f 5 80 78
f 5 78 79
f 5 79 77
f 5 77 70
f 5 70 64
f 5 64 62
f 5 62 56
f 5 56 47
f 5 47 41
f 5 41 35
f 5 35 26
f 5 26 21
f 5 21 16
f 5 16 10
f 5 10 11
f 5 11 6
f 7 12 13
f 8 14 9
f 9 14 15
f 10 16 20
f 10 20 17
f 10 17 13
f 10 13 12
f 10 12 11
f 14 18 15
f 15 18 19
f 16 21 22
f 16 22 20
f 17 20 22
f 17 22 23
f 18 24 19
f 19 24 25
f 21 26 27
f 21 27 22
f 22 27 28
f 22 28 23
f 23 28 26
f 23 26 29
f 23 29 30
f 23 30 31
f 24 32 33
f 24 33 34
f 24 34 25
f 26 35 29
f 26 28 27
f 29 35 41
f 29 41 36
f 29 36 30
f 30 36 37
f 30 37 38
f 30 38 31
f 32 39 40
f 32 40 33
f 36 41 42
f 36 42 43
f 36 43 37
f 37 43 38
f 38 43 44
f 39 45 46
f 39 46 40
f 41 47 42
f 42 47 48
f 42 48 49
f 42 49 50
f 42 50 43
f 43 50 51
f 43 51 52
f 43 52 44
f 45 53 54
f 45 54 55
f 45 55 46
f 47 56 48
f 48 56 49
f 49 56 57
f 49 57 50
f 50 57 51
f 51 57 58
f 51 58 59
f 51 59 52
f 53 60 54
f 54 60 61
f 56 62 57
f 57 62 63
f 57 63 58
f 58 64 65
f 58 65 59
f 58 63 64
f 59 66 67
f 59 65 66
f 60 68 69
f 60 69 61
f 62 64 63
f 64 70 71
f 64 71 65
f 65 71 66
f 66 71 72
f 66 72 67
f 67 72 73
f 67 73 74
f 68 75 76
f 68 76 69
f 70 77 71
f 71 77 72
f 72 78 73
f 72 77 79
f 72 79 78
f 73 78 80
f 73 80 90
f 73 90 81
f 73 81 82
f 73 82 74
f 74 82 83
f 74 83 84
f 74 84 85
f 75 86 87
f 75 87 88
f 75 88 89
f 75 89 76
f 76 89 88
f 81 90 91
f 81 91 92
f 81 92 82
f 82 92 83
f 83 92 84
f 84 92 93
f 84 93 94
f 84 94 95
f 84 95 85
f 86 96 103
f 86 103 107
f 86 107 97
f 86 97 98
f 86 98 87
f 87 98 88
f 88 98 99
f 91 100 101
f 91 101 92
f 92 101 102
f 92 102 93
f 93 102 94
f 94 102 95
f 96 104 105
f 96 105 106
f 96 106 112
f 96 112 103
f 97 107 99
f 97 99 98
f 99 107 103
f 99 103 108
f 100 109 110
f 100 110 111
f 100 111 101
f 101 111 102
f 103 112 113
f 103 113 114
f 103 114 108
f 104 111 105
f 105 111 115
f 105 115 106
f 106 115 112
f 108 114 113
f 109 116 117
f 109 117 110
f 110 117 111
f 111 117 115
f 112 115 116
f 112 116 113
f 115 117 116

