# https://github.com/mikedh/trimesh
v -0.00945316 -0.04519500 0.01454343
v -0.00000722 -0.04519500 0.01454343
v -0.00945316 -0.04519500 0.02174699
v -0.00945316 -0.02105072 0.01454343
v -0.00000722 -0.04519500 0.02174699
v -0.00000722 -0.02264830 0.01454343
v -0.00945316 -0.02519867 0.02174699
v -0.00945316 -0.02061763 0.01454555
v -0.00944946 -0.02061763 0.01454343
v -0.00000722 -0.02690934 0.02174699
f 1 2 5
f 1 5 3
f 1 3 7
f 1 7 8
f 1 8 4
f 1 4 9
f 1 9 6
f 1 6 2
f 2 6 10
f 2 10 5
f 3 5 10
f 3 10 7
f 4 8 9
f 6 9 8
f 6 8 10
f 7 10 8

