# https://github.com/mikedh/trimesh
v 0.01924664 -0.01166845 -0.00049500
v 0.01924664 -0.00794354 -0.00049500
v 0.01924921 -0.01698798 -0.00049500
v 0.01924664 -0.01166845 0.01069299
v 0.01924664 -0.00794354 0.00954884
v 0.02174403 -0.00794354 -0.00049500
v 0.01924921 -0.01698798 0.01319260
v 0.04364508 -0.01698798 -0.00049500
v 0.02166182 -0.00794354 0.01105768
v 0.02585241 -0.00794443 0.01423189
v 0.02632260 -0.00794443 0.01455902
v 0.02647676 -0.00794443 0.01465762
v 0.02174660 -0.00794354 0.00063976
v 0.04548986 -0.00794443 0.00075089
v 0.04524321 -0.00794443 -0.00007083
v 0.04454435 -0.00794443 -0.00046839
v 0.04364508 -0.00794443 -0.00049500
v 0.01938795 -0.01698798 0.01328495
v 0.04428484 -0.01698798 -0.00047622
v 0.02174660 -0.00794354 0.01080569
v 0.02677223 -0.00794443 0.01482040
v 0.02697778 -0.00794443 0.01490962
v 0.02745567 -0.00794443 0.01510840
v 0.02776142 -0.00794443 0.01519761
v 0.02835494 -0.00794443 0.01534787
v 0.02866326 -0.00794443 0.01539483
v 0.02925421 -0.00794443 0.01545744
v 0.02956253 -0.00794443 0.01547309
v 0.03015605 -0.00794443 0.01549343
v 0.03046180 -0.00794443 0.01549500
v 0.03914360 -0.00794443 0.01549500
v 0.03945192 -0.00794443 0.01548561
v 0.04004286 -0.00794443 0.01546683
v 0.04035118 -0.00794443 0.01543552
v 0.04094470 -0.00794443 0.01537448
v 0.04184654 -0.00794443 0.01513501
v 0.04253512 -0.00794443 0.01483136
v 0.04268928 -0.00794443 0.01474214
v 0.04298733 -0.00794443 0.01456841
v 0.04356800 -0.00794443 0.01411763
v 0.04372216 -0.00794443 0.01398146
v 0.04402020 -0.00794443 0.01371694
v 0.04436963 -0.00794443 0.01326617
v 0.04482183 -0.00794443 0.01254931
v 0.04503766 -0.00794443 0.01209853
v 0.01957037 -0.01698798 0.01340547
v 0.02001744 -0.01698798 0.01369190
v 0.02041568 -0.01698798 0.01394390
v 0.02054415 -0.01698798 0.01402372
v 0.02137405 -0.01698798 0.01450423
v 0.04548986 -0.00794443 0.00884920
v 0.04549500 -0.01166845 0.00075089
v 0.04542306 -0.01698798 0.00051298
v 0.04524321 -0.01698798 -0.00007083
v 0.04454692 -0.01166845 -0.00046839
v 0.04454692 -0.01698798 -0.00046839
v 0.04522008 -0.00794443 0.01154915
v 0.04541535 -0.00794443 0.01064917
v 0.04543848 -0.00794443 0.01034239
v 0.04547958 -0.00794443 0.00974918
v 0.04548472 -0.00794443 0.00944240
v 0.02166952 -0.01698798 0.01466545
v 0.02211659 -0.01698798 0.01485171
v 0.02223478 -0.01698798 0.01489553
v 0.02293107 -0.01698798 0.01511622
v 0.02321113 -0.01698798 0.01520231
v 0.02385089 -0.01698798 0.01532752
v 0.02411296 -0.01698798 0.01537448
v 0.02475273 -0.01698798 0.01544022
v 0.02501223 -0.01698798 0.01546057
v 0.02565200 -0.01698798 0.01548561
v 0.03015605 -0.00825078 0.01549500
v 0.02591150 -0.01698798 0.01549187
v 0.03914616 -0.01166845 0.01549500
v 0.04004543 -0.01166845 0.01546839
v 0.04004286 -0.00915035 0.01546839
v 0.04182085 -0.01007560 0.01514440
v 0.04184654 -0.00915035 0.01513657
v 0.04091901 -0.01007560 0.01537761
v 0.04094727 -0.01166845 0.01537448
v 0.04184654 -0.01634960 0.01514283
v 0.04254540 -0.01454957 0.01483762
v 0.04254283 -0.01166845 0.01483449
v 0.04253769 -0.00915035 0.01483292
v 0.04253769 -0.00825078 0.01483136
v 0.04298990 -0.00915035 0.01456997
v 0.04356800 -0.00825078 0.01411920
v 0.04357057 -0.00915035 0.01411920
v 0.04357057 -0.01004993 0.01412076
v 0.04357313 -0.01454957 0.01412233
v 0.04402277 -0.01166845 0.01371694
v 0.04437477 -0.01274953 0.01326773
v 0.04482440 -0.01166845 0.01255557
v 0.04504023 -0.00825078 0.01210010
v 0.04549500 -0.01166845 0.00884920
v 0.04549500 -0.01698798 0.00075089
v 0.04523036 -0.01185084 0.01154915
v 0.04542049 -0.01166845 0.01064917
v 0.04548472 -0.01166845 0.00974918
v 0.02655127 -0.01634960 0.01549500
v 0.02655127 -0.01698798 0.01549500
v 0.03914616 -0.01698798 0.01549500
v 0.04004543 -0.01698798 0.01546839
v 0.04184654 -0.01274953 0.01513970
v 0.04254797 -0.01698798 0.01483919
v 0.04094727 -0.01698798 0.01537448
v 0.04184654 -0.01698798 0.01514283
v 0.04204952 -0.01698798 0.01505518
v 0.04263533 -0.01166845 0.01478127
v 0.04299504 -0.01274953 0.01457154
v 0.04299760 -0.01634960 0.01457154
v 0.04316461 -0.01698798 0.01444163
v 0.04357313 -0.01698798 0.01412233
v 0.04370417 -0.01698798 0.01400494
v 0.04402277 -0.01698798 0.01371694
v 0.04412554 -0.01698798 0.01358703
v 0.04437477 -0.01698798 0.01326773
v 0.04482440 -0.01274953 0.01255714
v 0.04504280 -0.01166756 0.01210479
v 0.04508134 -0.01166845 0.01199210
v 0.04549500 -0.01698798 0.00884920
v 0.04523036 -0.01698798 0.01154915
v 0.04542306 -0.01544914 0.01064917
v 0.04548472 -0.01698798 0.00974918
v 0.04299760 -0.01698798 0.01457154
v 0.04482440 -0.01698798 0.01255714
v 0.04488864 -0.01698798 0.01242722
v 0.04504280 -0.01274953 0.01210636
v 0.04504280 -0.01698798 0.01210636
v 0.04542306 -0.01698798 0.01064917
f 1 2 6
f 1 6 17
f 1 17 8
f 1 8 3
f 1 3 7
f 1 7 4
f 1 4 5
f 1 5 2
f 2 5 9
f 2 9 20
f 2 20 13
f 2 13 6
f 3 8 19
f 3 19 56
f 3 56 54
f 3 54 53
f 3 53 96
f 3 96 121
f 3 121 124
f 3 124 130
f 3 130 122
f 3 122 129
f 3 129 127
f 3 127 126
f 3 126 117
f 3 117 116
f 3 116 115
f 3 115 114
f 3 114 113
f 3 113 112
f 3 112 125
f 3 125 105
f 3 105 108
f 3 108 107
f 3 107 106
f 3 106 103
f 3 103 102
f 3 102 101
f 3 101 73
f 3 73 71
f 3 71 70
f 3 70 69
f 3 69 68
f 3 68 67
f 3 67 66
f 3 66 65
f 3 65 64
f 3 64 63
f 3 63 62
f 3 62 50
f 3 50 49
f 3 49 48
f 3 48 47
f 3 47 46
f 3 46 18
f 3 18 7
f 4 7 5
f 5 7 10
f 5 10 11
f 5 11 12
f 5 12 9
f 6 13 14
f 6 14 15
f 6 15 16
f 6 16 17
f 7 18 11
f 7 11 10
f 8 17 19
f 9 12 21
f 9 21 22
f 9 22 23
f 9 23 24
f 9 24 25
f 9 25 26
f 9 26 27
f 9 27 28
f 9 28 29
f 9 29 30
f 9 30 31
f 9 31 32
f 9 32 33
f 9 33 34
f 9 34 35
f 9 35 36
f 9 36 37
f 9 37 38
f 9 38 39
f 9 39 40
f 9 40 41
f 9 41 42
f 9 42 43
f 9 43 44
f 9 44 45
f 9 45 20
f 11 18 46
f 11 46 47
f 11 47 12
f 12 47 48
f 12 48 49
f 12 49 50
f 12 50 21
f 13 20 51
f 13 51 14
f 14 51 95
f 14 95 52
f 14 52 15
f 15 52 53
f 15 53 54
f 15 54 56
f 15 56 55
f 15 55 16
f 16 55 17
f 17 55 19
f 19 55 56
f 20 45 57
f 20 57 58
f 20 58 59
f 20 59 60
f 20 60 61
f 20 61 51
f 21 50 62
f 21 62 22
f 22 62 63
f 22 63 23
f 23 63 64
f 23 64 65
f 23 65 66
f 23 66 24
f 24 66 25
f 25 66 67
f 25 67 68
f 25 68 26
f 26 68 27
f 27 68 69
f 27 69 70
f 27 70 28
f 28 70 71
f 28 71 29
f 29 72 30
f 29 71 73
f 29 73 72
f 30 72 100
f 30 100 101
f 30 101 102
f 30 102 74
f 30 74 31
f 31 74 75
f 31 75 76
f 31 76 32
f 32 76 33
f 33 76 34
f 34 76 35
f 35 77 78
f 35 78 36
f 35 76 79
f 35 79 80
f 35 80 81
f 35 81 77
f 36 78 82
f 36 82 83
f 36 83 84
f 36 84 85
f 36 85 37
f 37 85 38
f 38 85 39
f 39 85 86
f 39 86 87
f 39 87 40
f 40 87 41
f 41 87 42
f 42 87 88
f 42 88 89
f 42 89 90
f 42 90 91
f 42 91 92
f 42 92 43
f 43 92 93
f 43 93 44
f 44 93 94
f 44 94 45
f 45 94 57
f 51 61 95
f 52 95 121
f 52 121 96
f 52 96 53
f 57 94 97
f 57 97 58
f 58 98 59
f 58 97 98
f 59 98 99
f 59 99 60
f 60 99 61
f 61 99 95
f 72 73 100
f 73 101 100
f 74 102 103
f 74 103 75
f 75 103 79
f 75 79 76
f 77 81 104
f 77 104 78
f 78 104 105
f 78 105 82
f 79 103 106
f 79 106 80
f 80 106 107
f 80 107 81
f 81 107 108
f 81 108 105
f 81 105 104
f 82 105 109
f 82 109 83
f 83 109 85
f 83 85 84
f 85 109 86
f 86 109 110
f 86 110 89
f 86 89 88
f 86 88 87
f 89 110 90
f 90 110 111
f 90 111 112
f 90 112 113
f 90 113 114
f 90 114 91
f 91 114 115
f 91 115 116
f 91 116 92
f 92 117 126
f 92 126 118
f 92 118 93
f 92 116 117
f 93 118 119
f 93 119 94
f 94 119 120
f 94 120 97
f 95 99 124
f 95 124 121
f 97 120 122
f 97 122 130
f 97 130 123
f 97 123 98
f 98 123 99
f 99 123 130
f 99 130 124
f 105 125 111
f 105 111 110
f 105 110 109
f 111 125 112
f 118 126 127
f 118 127 128
f 118 128 119
f 119 128 120
f 120 128 129
f 120 129 122
f 127 129 128

