# https://github.com/mikedh/trimesh
v -0.00916370 -0.01698938 0.00872241
v -0.00916370 -0.02585472 0.01465606
v -0.00916370 -0.01698938 -0.00049500
v -0.02157524 -0.01698938 0.01461223
v -0.00916370 -0.02587680 0.01466858
v -0.02177439 -0.01698938 0.01470614
v -0.02211580 -0.01698938 0.01485171
v -0.00916370 -0.04334794 -0.00049500
v -0.04364927 -0.01698938 -0.00049500
v -0.00916370 -0.02627162 0.01486266
v -0.02293019 -0.01698938 0.01511622
v -0.00916370 -0.04424800 -0.00046839
v -0.02295153 -0.04334794 -0.00049500
v -0.04364927 -0.02265204 -0.00049500
v -0.04454902 -0.01698938 -0.00046839
v -0.00916370 -0.02715235 0.01519761
v -0.02385128 -0.01698938 0.01532752
v -0.00916370 -0.04447164 -0.00034161
v -0.02025229 -0.04424800 -0.00046839
v -0.02385128 -0.04334794 -0.00049187
v -0.02565077 -0.04244788 -0.00049343
v -0.02655052 -0.04154782 -0.00049500
v -0.04184978 -0.02625229 -0.00049500
v -0.04274953 -0.02535223 -0.00049343
v -0.04364927 -0.02355210 -0.00049187
v -0.04454902 -0.01995186 -0.00046839
v -0.04524606 -0.01698938 -0.00007083
v -0.00916370 -0.02805241 0.01539952
v -0.02475103 -0.01698938 0.01544022
v -0.00916370 -0.04494652 -0.00007083
v -0.02025229 -0.04494652 -0.00007083
v -0.02115204 -0.04424800 -0.00046057
v -0.02205178 -0.04424800 -0.00043865
v -0.02475103 -0.04334794 -0.00046526
v -0.02744671 -0.04154782 -0.00045900
v -0.02834646 -0.04064776 -0.00046370
v -0.02924976 -0.03974770 -0.00046370
v -0.03824723 -0.03075260 -0.00046370
v -0.04094648 -0.02805241 -0.00046370
v -0.04364927 -0.02445217 -0.00046526
v -0.04184978 -0.02715235 -0.00045900
v -0.04454902 -0.02175198 -0.00043865
v -0.04454902 -0.02085192 -0.00046057
v -0.04524606 -0.01995186 -0.00007083
v -0.04549500 -0.01698938 0.00075089
v -0.00916370 -0.02895248 0.01547465
v -0.02565077 -0.01698938 0.01548561
v -0.00916370 -0.04519224 0.00075089
v -0.02025229 -0.04519224 0.00075089
v -0.02115204 -0.04492995 -0.00006301
v -0.02205178 -0.04488854 -0.00004109
v -0.02295153 -0.04424800 -0.00035257
v -0.02475103 -0.04409892 -0.00006770
v -0.02572190 -0.04342801 -0.00015379
v -0.02655052 -0.04244788 -0.00041987
v -0.02835713 -0.04155887 -0.00012248
v -0.02925687 -0.04065880 -0.00012561
v -0.03105992 -0.03885868 -0.00012561
v -0.03915765 -0.03076088 -0.00012561
v -0.04095714 -0.02896076 -0.00012561
v -0.04185689 -0.02805794 -0.00012405
v -0.04274953 -0.02625229 -0.00041987
v -0.04372751 -0.02542125 -0.00015379
v -0.04439966 -0.02445217 -0.00006770
v -0.04454902 -0.02265204 -0.00035257
v -0.04518916 -0.02175198 -0.00004109
v -0.04522828 -0.02085192 -0.00006301
v -0.04549500 -0.01995186 0.00075089
v -0.04549500 -0.01698938 0.00884920
v -0.00945176 -0.02895248 0.01548091
v -0.00916370 -0.02985254 0.01549500
v -0.02565077 -0.01725167 0.01549187
v -0.02655052 -0.01698938 0.01549500
v -0.00916370 -0.04519224 0.00884920
v -0.02025229 -0.04519224 0.00884920
v -0.02115204 -0.04516463 0.00345085
v -0.02115204 -0.04516187 0.00165088
v -0.02115204 -0.04515911 0.00075089
v -0.02205178 -0.04508181 0.00075089
v -0.02295153 -0.04481952 0.00004499
v -0.02356322 -0.04474773 0.00017803
v -0.02546940 -0.04394154 0.00007160
v -0.02655052 -0.04317953 -0.00002231
v -0.02742537 -0.04244512 -0.00008962
v -0.02896526 -0.04126620 0.00007786
v -0.02806195 -0.04214418 0.00008256
v -0.03976578 -0.03046822 0.00007786
v -0.04156528 -0.02866810 0.00007786
v -0.04244368 -0.02776528 0.00008256
v -0.04274597 -0.02712750 -0.00008962
v -0.04347857 -0.02625229 -0.00002231
v -0.04423962 -0.02516725 0.00007160
v -0.04504691 -0.02326221 0.00017803
v -0.04511803 -0.02265204 0.00004499
v -0.04537764 -0.02175198 0.00075089
v -0.04545944 -0.02085192 0.00075089
v -0.04549500 -0.01995186 0.00884920
v -0.04546299 -0.02085192 0.00884920
v -0.04548433 -0.01698938 0.00974918
v -0.00916370 -0.03884763 0.01549500
v -0.03914698 -0.01698938 0.01549500
v -0.00916370 -0.04518396 0.00974918
v -0.02025229 -0.04518396 0.00974918
v -0.02115204 -0.04516463 0.00884920
v -0.02205178 -0.04509837 0.00794921
v -0.02205178 -0.04509285 0.00435083
v -0.02295153 -0.04494376 0.00075089
v -0.02364857 -0.04477258 0.00075089
v -0.02410022 -0.04463730 0.00075089
v -0.02475103 -0.04440262 0.00075089
v -0.02560454 -0.04401333 0.00075089
v -0.02605264 -0.04377313 0.00075089
v -0.02711242 -0.04298902 0.00013421
v -0.02859184 -0.04179906 0.00075089
v -0.02904705 -0.04134903 0.00075089
v -0.02949870 -0.04089900 0.00075089
v -0.03174985 -0.03864885 0.00075089
v -0.03939948 -0.03100108 0.00075089
v -0.02814375 -0.04221596 0.00075089
v -0.04119897 -0.02920096 0.00075089
v -0.04164707 -0.02875093 0.00075089
v -0.04209872 -0.02829538 0.00075089
v -0.04251837 -0.02784534 0.00075089
v -0.04329009 -0.02681276 0.00013264
v -0.04407248 -0.02575256 0.00075089
v -0.04431430 -0.02530253 0.00075089
v -0.04470194 -0.02445217 0.00075089
v -0.04493666 -0.02379783 0.00075089
v -0.04507180 -0.02334780 0.00075089
v -0.04524250 -0.02265204 0.00075089
v -0.04525317 -0.02265204 0.00435083
v -0.04539542 -0.02175198 0.00884920
v -0.04545588 -0.02085192 0.00974918
v -0.04548433 -0.01995186 0.00974918
v -0.04542387 -0.01698938 0.01064917
v -0.00916370 -0.03974770 0.01546839
v -0.02205178 -0.03884763 0.01549500
v -0.04004673 -0.01698938 0.01546839
v -0.03914698 -0.02175198 0.01549500
v -0.00916370 -0.04516463 0.01003561
v -0.02025229 -0.04512322 0.01064917
v -0.02115204 -0.04515635 0.00974918
v -0.02205178 -0.04509837 0.00884920
v -0.02295153 -0.04495756 0.00615080
v -0.02295153 -0.04495480 0.00435083
v -0.02367702 -0.04478086 0.00435083
v -0.02366279 -0.04477811 0.00255086
v -0.02410733 -0.04464006 0.00165088
v -0.02475103 -0.04441366 0.00345085
v -0.02560810 -0.04401609 0.00165088
v -0.02413223 -0.04464834 0.00525082
v -0.02605619 -0.04377589 0.00165088
v -0.02655052 -0.04345838 0.00075089
v -0.02716932 -0.04303596 0.00075089
v -0.02761386 -0.04266600 0.00075089
v -0.02859184 -0.04179906 0.00884920
v -0.02814375 -0.04221873 0.00705079
v -0.02904705 -0.04134903 0.00884920
v -0.02949870 -0.04089900 0.00884920
v -0.03174985 -0.03864885 0.00884920
v -0.03939948 -0.03100108 0.00884920
v -0.02762808 -0.04266876 0.00794921
v -0.04119897 -0.02920096 0.00884920
v -0.04209872 -0.02829814 0.00165088
v -0.04251837 -0.02784810 0.00165088
v -0.04297002 -0.02732353 0.00165088
v -0.04296646 -0.02732077 0.00075089
v -0.04333632 -0.02687074 0.00075089
v -0.04375952 -0.02625229 0.00075089
v -0.04407603 -0.02575808 0.00165088
v -0.04431786 -0.02531082 0.00255086
v -0.04472328 -0.02445217 0.00615080
v -0.04494733 -0.02383096 0.00525082
v -0.04494377 -0.02381991 0.00345085
v -0.04494022 -0.02380611 0.00165088
v -0.04507536 -0.02335608 0.00165088
v -0.04507891 -0.02336160 0.00255086
v -0.04507891 -0.02336988 0.00345085
v -0.04507891 -0.02338093 0.00525082
v -0.04525673 -0.02265204 0.00705079
v -0.04525673 -0.02265204 0.00884920
v -0.04538831 -0.02175198 0.00974918
v -0.04539542 -0.02085192 0.01064917
v -0.04542387 -0.01995186 0.01064917
v -0.04523183 -0.01698938 0.01154915
v -0.00916370 -0.04036338 0.01540422
v -0.02025229 -0.03974770 0.01546839
v -0.02385128 -0.03794757 0.01549343
v -0.02295153 -0.03884763 0.01548717
v -0.02115204 -0.03974770 0.01546683
v -0.03014951 -0.03075260 0.01549500
v -0.03104926 -0.03075260 0.01549343
v -0.04094648 -0.01698938 0.01537448
v -0.04004673 -0.01995186 0.01546839
v -0.04004673 -0.02085192 0.01546683
v -0.03914698 -0.02265204 0.01548717
v -0.03824723 -0.02355210 0.01549343
v -0.00916370 -0.04512322 0.01064917
v -0.02025229 -0.04493271 0.01154915
v -0.02115204 -0.04509561 0.01064917
v -0.02205178 -0.04509009 0.00974918
v -0.02295153 -0.04495756 0.00884920
v -0.02368057 -0.04478086 0.00525082
v -0.02413934 -0.04465386 0.00794921
v -0.02475103 -0.04442470 0.00705079
v -0.02562232 -0.04401885 0.00435083
v -0.02607397 -0.04378417 0.00525082
v -0.02655052 -0.04347495 0.00615080
v -0.02718354 -0.04304148 0.00884920
v -0.02814375 -0.04221873 0.00884920
v -0.02813664 -0.04221596 0.00974918
v -0.02858473 -0.04179078 0.00974918
v -0.02903994 -0.04134075 0.00974918
v -0.02949159 -0.04089072 0.00974918
v -0.03084299 -0.03954063 0.00974918
v -0.03939237 -0.03099556 0.00974918
v -0.02762808 -0.04266876 0.00884920
v -0.04119186 -0.02919544 0.00974918
v -0.04209872 -0.02829814 0.00884920
v -0.04252192 -0.02784810 0.00345085
v -0.04297002 -0.02733181 0.00525082
v -0.04334343 -0.02688454 0.00794921
v -0.04333987 -0.02688178 0.00525082
v -0.04333987 -0.02687350 0.00255086
v -0.04377730 -0.02625229 0.00525082
v -0.04408315 -0.02577465 0.00525082
v -0.04432142 -0.02532462 0.00525082
v -0.04472684 -0.02445217 0.00794921
v -0.04495089 -0.02383648 0.00705079
v -0.04495089 -0.02383924 0.00794921
v -0.04507891 -0.02338645 0.00705079
v -0.04507536 -0.02338645 0.00884920
v -0.04524606 -0.02265204 0.00974918
v -0.04532785 -0.02175198 0.01064917
v -0.04520339 -0.02085192 0.01154915
v -0.04523183 -0.01995186 0.01154915
v -0.04517849 -0.01698938 0.01171037
v -0.00916370 -0.04064776 0.01537448
v -0.02025229 -0.04064776 0.01537448
v -0.02475103 -0.03794757 0.01547465
v -0.02205178 -0.03974770 0.01545900
v -0.02385128 -0.03884763 0.01546683
v -0.03194900 -0.03075260 0.01547465
v -0.04094648 -0.01995186 0.01537448
v -0.04184978 -0.01698938 0.01514283
v -0.04184978 -0.01905180 0.01514440
v -0.04004673 -0.02175198 0.01545900
v -0.03914698 -0.02355210 0.01546683
v -0.03824723 -0.02445217 0.01547465
v -0.00916370 -0.04493271 0.01154915
v -0.02025229 -0.04474773 0.01210636
v -0.02115204 -0.04473117 0.01207506
v -0.02115204 -0.04490510 0.01154915
v -0.00916370 -0.04487474 0.01172602
v -0.02205178 -0.04502935 0.01064917
v -0.02295153 -0.04494652 0.00974918
v -0.02366635 -0.04476982 0.00974918
v -0.02368769 -0.04477534 0.00884920
v -0.02368769 -0.04477811 0.00794921
v -0.02413934 -0.04465386 0.00884920
v -0.02475103 -0.04442747 0.00884920
v -0.02562588 -0.04402161 0.00615080
v -0.02607397 -0.04378417 0.00705079
v -0.02655052 -0.04347495 0.00884920
v -0.02717643 -0.04303872 0.00974918
v -0.02762453 -0.04266600 0.00974918
v -0.02809396 -0.04217455 0.01064917
v -0.02854205 -0.04174937 0.01064917
v -0.02899726 -0.04129934 0.01064917
v -0.02944891 -0.04084931 0.01064917
v -0.03934969 -0.03095139 0.01064917
v -0.03170006 -0.03859915 0.01064917
v -0.04114918 -0.02915126 0.01064917
v -0.04163996 -0.02874541 0.00974918
v -0.04209161 -0.02828985 0.00974918
v -0.04252192 -0.02784810 0.00884920
v -0.04297002 -0.02733457 0.00794921
v -0.04334343 -0.02688454 0.00884920
v -0.04377730 -0.02625229 0.00794921
v -0.04408315 -0.02577465 0.00705079
v -0.04432142 -0.02532462 0.00705079
v -0.04472684 -0.02445217 0.00884920
v -0.04495089 -0.02383648 0.00884920
v -0.04494733 -0.02381715 0.00974918
v -0.04506825 -0.02336712 0.00974918
v -0.04503624 -0.02325116 0.01064917
v -0.04518205 -0.02265204 0.01064917
v -0.04506469 -0.02265204 0.01130968
v -0.04511803 -0.02174094 0.01161019
v -0.04501134 -0.02143447 0.01202810
v -0.04503268 -0.02085192 0.01207506
v -0.04504691 -0.01995186 0.01210636
v -0.04504691 -0.01698938 0.01210636
v -0.00916370 -0.04154782 0.01514440
v -0.02115204 -0.04064776 0.01536665
v -0.02025229 -0.04154782 0.01514440
v -0.02475103 -0.03884763 0.01541205
v -0.02565077 -0.03794757 0.01541518
v -0.02295153 -0.03974770 0.01543865
v -0.03284875 -0.03075260 0.01541518
v -0.04184978 -0.01995186 0.01514440
v -0.04094648 -0.02085192 0.01536665
v -0.04255037 -0.01698938 0.01483919
v -0.04004673 -0.02265204 0.01543865
v -0.03914698 -0.02445217 0.01541205
v -0.03824723 -0.02535223 0.01541518
v -0.02025229 -0.04452686 0.01255714
v -0.00916370 -0.04474773 0.01210636
v -0.02115204 -0.04451029 0.01252427
v -0.02173527 -0.04471184 0.01202810
v -0.02204111 -0.04481676 0.01161019
v -0.02295153 -0.04476430 0.01130968
v -0.02295153 -0.04488302 0.01064917
v -0.02354899 -0.04473945 0.01064917
v -0.02411800 -0.04464834 0.00974918
v -0.02475103 -0.04441366 0.00974918
v -0.02560810 -0.04401333 0.00974918
v -0.02561877 -0.04402161 0.00884920
v -0.02562232 -0.04402161 0.00794921
v -0.02607042 -0.04378141 0.00884920
v -0.02655052 -0.04346114 0.00974918
v -0.02713375 -0.04300283 0.01064917
v -0.02757829 -0.04262458 0.01064917
v -0.02706263 -0.04294761 0.01122985
v -0.02800505 -0.04209448 0.01133942
v -0.02890836 -0.04120823 0.01135194
v -0.03970888 -0.03041024 0.01135194
v -0.04150838 -0.02861012 0.01135194
v -0.04159728 -0.02870123 0.01064917
v -0.04204893 -0.02824568 0.01064917
v -0.04247569 -0.02779565 0.01064917
v -0.04251481 -0.02783982 0.00974918
v -0.04296646 -0.02732905 0.00974918
v -0.04297002 -0.02733457 0.00884920
v -0.04333632 -0.02687902 0.00974918
v -0.04376308 -0.02625229 0.00974918
v -0.04377375 -0.02625229 0.00884920
v -0.04407959 -0.02576913 0.00884920
v -0.04432142 -0.02531910 0.00884920
v -0.04431786 -0.02530805 0.00974918
v -0.04471617 -0.02445217 0.00974918
v -0.04464504 -0.02445217 0.01064917
v -0.04491177 -0.02370119 0.01064917
v -0.04500779 -0.02313521 0.01112811
v -0.04491888 -0.02265204 0.01176045
v -0.04498289 -0.02203360 0.01195141
v -0.04480152 -0.02174094 0.01237557
v -0.04480863 -0.02085192 0.01252427
v -0.04482641 -0.01995186 0.01255714
v -0.04498289 -0.01698938 0.01223784
v -0.00916370 -0.04202822 0.01493623
v -0.02205178 -0.04064776 0.01533692
v -0.02115204 -0.04154782 0.01513031
v -0.02115204 -0.04223529 0.01483292
v -0.02025229 -0.04225186 0.01483919
v -0.02475103 -0.03974770 0.01527118
v -0.02385128 -0.03974770 0.01537918
v -0.02565077 -0.03884763 0.01529622
v -0.02655052 -0.03794757 0.01529779
v -0.02295153 -0.04064776 0.01528213
v -0.03374850 -0.03075260 0.01529779
v -0.04255037 -0.01995186 0.01483919
v -0.04253615 -0.02085192 0.01483292
v -0.04184978 -0.02085192 0.01513031
v -0.04094648 -0.02175198 0.01533692
v -0.04287044 -0.01698938 0.01464980
v -0.04094648 -0.02265204 0.01528213
v -0.04004673 -0.02355210 0.01537918
v -0.03914698 -0.02535223 0.01529622
v -0.04004673 -0.02445217 0.01527118
v -0.03824723 -0.02625229 0.01529779
v -0.02025229 -0.04407683 0.01326773
v -0.02115204 -0.04406026 0.01324895
v -0.00916370 -0.04452686 0.01255714
v -0.02205178 -0.04401609 0.01319260
v -0.02204111 -0.04450201 0.01237557
v -0.02233629 -0.04468147 0.01195141
v -0.02295153 -0.04462073 0.01176045
v -0.02343519 -0.04470632 0.01112811
v -0.02400064 -0.04461245 0.01064917
v -0.02475103 -0.04434188 0.01064917
v -0.02554408 -0.04397743 0.01064917
v -0.02605619 -0.04377313 0.00974918
v -0.02655052 -0.04338936 0.01064917
v -0.02599218 -0.04373723 0.01064917
v -0.02539472 -0.04389737 0.01138950
v -0.02658253 -0.04314916 0.01153663
v -0.02690259 -0.04282613 0.01182932
v -0.02746449 -0.04246169 0.01158359
v -0.02838913 -0.04158923 0.01164619
v -0.02786991 -0.04197024 0.01193888
v -0.02877677 -0.04107570 0.01195297
v -0.02967652 -0.04017840 0.01195297
v -0.04009296 -0.02989671 0.01165245
v -0.04099271 -0.02899665 0.01165245
v -0.04137679 -0.02848036 0.01195297
v -0.04188890 -0.02809383 0.01164619
v -0.04239390 -0.02770730 0.01133942
v -0.04324741 -0.02676306 0.01122985
v -0.04292379 -0.02728212 0.01064917
v -0.04330076 -0.02683208 0.01064917
v -0.04368839 -0.02625229 0.01064917
v -0.04407248 -0.02575808 0.00974918
v -0.04403691 -0.02569458 0.01064917
v -0.04427874 -0.02524455 0.01064917
v -0.04419695 -0.02509270 0.01138950
v -0.04436409 -0.02453499 0.01163367
v -0.04479085 -0.02348032 0.01147715
v -0.04433209 -0.02356315 0.01249453
v -0.04460592 -0.02265204 0.01244914
v -0.04423607 -0.02265204 0.01308617
v -0.04431430 -0.02175198 0.01319417
v -0.04436054 -0.02085192 0.01324895
v -0.04437476 -0.01995186 0.01326773
v -0.04482641 -0.01698938 0.01255714
v -0.00916370 -0.04225186 0.01483919
v -0.02205178 -0.04154782 0.01508022
v -0.02115204 -0.04268532 0.01456215
v -0.02025229 -0.04270189 0.01457154
v -0.02205178 -0.04218283 0.01480475
v -0.00916370 -0.04255832 0.01465762
v -0.02475103 -0.04064776 0.01501449
v -0.02385128 -0.04064776 0.01518666
v -0.02565077 -0.03974770 0.01508805
v -0.02655052 -0.03884763 0.01509744
v -0.03464824 -0.03075260 0.01509744
v -0.04300203 -0.01995186 0.01457154
v -0.04248281 -0.02175198 0.01480475
v -0.04184978 -0.02175198 0.01508022
v -0.04298780 -0.02085192 0.01456215
v -0.04299847 -0.01698938 0.01457154
v -0.04300203 -0.01905180 0.01457154
v -0.04094648 -0.02355210 0.01518666
v -0.03914698 -0.02625229 0.01509744
v -0.04004673 -0.02535223 0.01508805
v -0.04094648 -0.02445217 0.01501449
v -0.02025229 -0.04372619 0.01371694
v -0.02115204 -0.04370963 0.01369972
v -0.00916370 -0.04407683 0.01326773
v -0.02205178 -0.04365993 0.01364338
v -0.02295153 -0.04393602 0.01308617
v -0.02295153 -0.04430598 0.01244914
v -0.02386195 -0.04402989 0.01249453
v -0.02378015 -0.04449097 0.01147715
v -0.02483638 -0.04406578 0.01163367
v -0.02519201 -0.04379521 0.01198897
v -0.02567567 -0.04365717 0.01163367
v -0.02630158 -0.04302767 0.01222062
v -0.02658253 -0.04266600 0.01249296
v -0.02723333 -0.04219388 0.01244914
v -0.02768143 -0.04180459 0.01244914
v -0.02815797 -0.04135456 0.01244914
v -0.02860962 -0.04091005 0.01244914
v -0.02906128 -0.04046001 0.01244914
v -0.03957730 -0.03028048 0.01195297
v -0.04120964 -0.02831194 0.01244914
v -0.04165418 -0.02786191 0.01244914
v -0.04226943 -0.02757201 0.01193888
v -0.04276019 -0.02716616 0.01158359
v -0.04312650 -0.02660017 0.01182932
v -0.04344657 -0.02628266 0.01153820
v -0.04409382 -0.02489391 0.01198897
v -0.04395512 -0.02537708 0.01163367
v -0.04421829 -0.02429203 0.01222531
v -0.04405469 -0.02387237 0.01282478
v -0.04415427 -0.02327049 0.01297817
v -0.04387332 -0.02265204 0.01353695
v -0.04395868 -0.02175198 0.01364338
v -0.04400846 -0.02085192 0.01369972
v -0.04402625 -0.01995186 0.01371694
v -0.04427519 -0.01698938 0.01339764
v -0.04437476 -0.01698938 0.01326773
v -0.02295153 -0.04154782 0.01498475
v -0.02115204 -0.04325959 0.01411137
v -0.02025229 -0.04327616 0.01412233
v -0.02205178 -0.04263286 0.01452458
v -0.02205178 -0.04320990 0.01407381
v -0.00916370 -0.04270189 0.01457154
v -0.02295153 -0.04208344 0.01474997
v -0.02557609 -0.04061463 0.01480788
v -0.02522401 -0.04111435 0.01470771
v -0.02475103 -0.04125240 0.01477814
v -0.02378726 -0.04157267 0.01484701
v -0.02652207 -0.03972285 0.01483449
v -0.02620556 -0.04029160 0.01474214
v -0.02742182 -0.03882279 0.01483605
v -0.03552310 -0.03072499 0.01483605
v -0.04357459 -0.01995186 0.01412233
v -0.04238323 -0.02265204 0.01474997
v -0.04184978 -0.02265204 0.01498475
v -0.04293446 -0.02175198 0.01452458
v -0.04356037 -0.02085192 0.01411137
v -0.04351058 -0.02175198 0.01407381
v -0.04357459 -0.01698938 0.01412233
v -0.04187112 -0.02348584 0.01484701
v -0.04002184 -0.02622192 0.01483449
v -0.03912209 -0.02712474 0.01483605
v -0.04091447 -0.02527492 0.01480788
v -0.04059085 -0.02590441 0.01474214
v -0.04155105 -0.02445217 0.01477814
v -0.04141235 -0.02492428 0.01470771
v -0.00916370 -0.04372619 0.01371694
v -0.00916370 -0.04358262 0.01384685
v -0.02295153 -0.04312431 0.01400337
v -0.02295153 -0.04357434 0.01353695
v -0.02357033 -0.04385319 0.01297817
v -0.02417135 -0.04375380 0.01282478
v -0.02459455 -0.04391946 0.01222531
v -0.02483638 -0.04366545 0.01249453
v -0.02541961 -0.04302491 0.01305800
v -0.02569345 -0.04322922 0.01249296
v -0.02602063 -0.04284822 0.01282165
v -0.02704129 -0.04203098 0.01293748
v -0.02796949 -0.04116681 0.01297035
v -0.02886924 -0.04026951 0.01297035
v -0.03877001 -0.03037159 0.01297035
v -0.03851040 -0.03101213 0.01244914
v -0.04146570 -0.02767141 0.01297035
v -0.04056951 -0.02857147 0.01297035
v -0.04210583 -0.02738427 0.01244914
v -0.04249347 -0.02693424 0.01244914
v -0.04332565 -0.02600105 0.01222062
v -0.04296646 -0.02628266 0.01249296
v -0.04352836 -0.02539088 0.01249296
v -0.04332565 -0.02512031 0.01305800
v -0.04396579 -0.02453499 0.01249453
v -0.04342878 -0.02436382 0.01335538
v -0.04378086 -0.02356315 0.01330686
v -0.04328653 -0.02355210 0.01388129
v -0.04342523 -0.02265204 0.01400337
v -0.04402625 -0.01698938 0.01371694
v -0.02344586 -0.04201718 0.01470927
v -0.00916370 -0.04327616 0.01412233
v -0.02295153 -0.04253347 0.01445258
v -0.02582503 -0.04089072 0.01459032
v -0.02564366 -0.04154230 0.01425850
v -0.02475103 -0.04170243 0.01452302
v -0.02404332 -0.04188741 0.01463571
v -0.02710886 -0.03940534 0.01474527
v -0.02680302 -0.04000446 0.01460597
v -0.02652207 -0.04061463 0.01441502
v -0.03610633 -0.03040748 0.01474527
v -0.04231566 -0.02314349 0.01470927
v -0.04283488 -0.02265204 0.01445258
v -0.04218763 -0.02374537 0.01463571
v -0.03970532 -0.02680724 0.01474527
v -0.04119186 -0.02552341 0.01459032
v -0.04091447 -0.02622192 0.01441502
v -0.04030634 -0.02650353 0.01460597
v -0.04200270 -0.02445217 0.01452302
v -0.04184267 -0.02534395 0.01425850
v -0.02385128 -0.04298626 0.01388129
v -0.02386195 -0.04348323 0.01330686
v -0.02466567 -0.04312983 0.01335538
v -0.02490750 -0.04275710 0.01365903
v -0.02573968 -0.04250310 0.01341799
v -0.02605975 -0.04197300 0.01377642
v -0.02655052 -0.04221044 0.01313469
v -0.02655052 -0.04177974 0.01358547
v -0.02704129 -0.04113368 0.01382651
v -0.02733647 -0.04145119 0.01325365
v -0.02763520 -0.04084378 0.01356981
v -0.02825399 -0.04055665 0.01327086
v -0.02915730 -0.03965659 0.01327086
v -0.03754308 -0.03094587 0.01356981
v -0.04143369 -0.02674097 0.01382651
v -0.04175020 -0.02704192 0.01325365
v -0.04232988 -0.02674097 0.01293748
v -0.04085401 -0.02795854 0.01327086
v -0.04114207 -0.02734009 0.01356981
v -0.04024233 -0.02824568 0.01356981
v -0.04314783 -0.02571943 0.01282165
v -0.04280287 -0.02544058 0.01341799
v -0.04305893 -0.02460678 0.01365903
v -0.04320118 -0.02400766 0.01380146
v -0.04266773 -0.02348584 0.01436650
v -0.02378726 -0.04236781 0.01436650
v -0.02655052 -0.04132971 0.01396268
v -0.02546229 -0.04215798 0.01392668
v -0.02466567 -0.04245340 0.01401902
v -0.02770632 -0.03910440 0.01460597
v -0.03940659 -0.02740912 0.01460597
v -0.02742182 -0.03972285 0.01442754
v -0.02738270 -0.04058426 0.01395955
v -0.04275308 -0.02436382 0.01401902
v -0.04162929 -0.02625229 0.01396268
v -0.04088602 -0.02708333 0.01395955
v -0.04002184 -0.02712474 0.01442754
v -0.04245791 -0.02516172 0.01392668
v -0.04227298 -0.02576085 0.01377642
v -0.02430649 -0.04290067 0.01380146
v -0.02794459 -0.04024466 0.01383120
v -0.02854205 -0.03994372 0.01356981
v -0.03214460 -0.03634348 0.01356981
v -0.04054461 -0.02764656 0.01383120
v -0.04208094 -0.02625229 0.01358547
v -0.04251125 -0.02625229 0.01313469
v -0.03642285 -0.03072499 0.01442754
v -0.03098524 -0.03698677 0.01396268
v -0.02828600 -0.03968419 0.01396268
v -0.03818678 -0.02978904 0.01396268
v -0.03998627 -0.02798891 0.01396268
f 1 2 5
f 1 5 10
f 1 10 16
f 1 16 28
f 1 28 46
f 1 46 71
f 1 71 100
f 1 100 136
f 1 136 186
f 1 186 238
f 1 238 294
f 1 294 351
f 1 351 416
f 1 416 421
f 1 421 478
f 1 478 533
f 1 533 503
f 1 503 502
f 1 502 439
f 1 439 374
f 1 374 308
f 1 308 254
f 1 254 250
f 1 250 198
f 1 198 140
f 1 140 102
f 1 102 74
f 1 74 48
f 1 48 30
f 1 30 18
f 1 18 12
f 1 12 8
f 1 8 3
f 1 3 9
f 1 9 15
f 1 15 27
f 1 27 45
f 1 45 69
f 1 69 99
f 1 99 135
f 1 135 185
f 1 185 237
f 1 237 293
f 1 293 350
f 1 350 415
f 1 415 472
f 1 472 471
f 1 471 531
f 1 531 494
f 1 494 431
f 1 431 366
f 1 366 303
f 1 303 245
f 1 245 193
f 1 193 138
f 1 138 101
f 1 101 73
f 1 73 47
f 1 47 29
f 1 29 17
f 1 17 11
f 1 11 7
f 1 7 6
f 1 6 4
f 1 4 2
f 2 4 6
f 2 6 7
f 2 7 5
f 3 8 13
f 3 13 22
f 3 22 23
f 3 23 14
f 3 14 9
f 5 7 10
f 7 11 10
f 8 12 19
f 8 19 13
f 9 14 26
f 9 26 15
f 10 11 16
f 11 17 16
f 12 18 19
f 13 19 20
f 13 20 21
f 13 21 22
f 14 23 24
f 14 24 25
f 14 25 26
f 15 26 44
f 15 44 27
f 16 17 28
f 17 29 28
f 18 30 31
f 18 31 19
f 19 31 32
f 19 32 20
f 20 32 33
f 20 33 34
f 20 34 21
f 21 35 36
f 21 36 22
f 21 34 35
f 22 36 37
f 22 37 38
f 22 38 23
f 23 38 39
f 23 39 24
f 24 40 25
f 24 39 41
f 24 41 40
f 25 40 42
f 25 42 43
f 25 43 26
f 26 43 44
f 27 44 68
f 27 68 45
f 28 29 46
f 29 47 46
f 30 48 49
f 30 49 31
f 31 49 50
f 31 50 32
f 32 50 33
f 33 50 51
f 33 51 52
f 33 52 34
f 34 52 53
f 34 53 54
f 34 54 55
f 34 55 35
f 35 55 56
f 35 56 36
f 36 56 57
f 36 57 37
f 37 57 58
f 37 58 38
f 38 59 60
f 38 60 39
f 38 58 59
f 39 60 61
f 39 61 41
f 40 41 62
f 40 62 63
f 40 63 64
f 40 64 65
f 40 65 42
f 41 61 62
f 42 65 66
f 42 66 67
f 42 67 43
f 43 67 44
f 44 67 68
f 45 68 97
f 45 97 69
f 46 70 71
f 46 47 70
f 47 72 70
f 47 73 72
f 48 74 75
f 48 75 49
f 49 75 104
f 49 104 76
f 49 76 77
f 49 77 78
f 49 78 50
f 50 78 51
f 51 78 79
f 51 79 80
f 51 80 52
f 52 80 53
f 53 81 82
f 53 82 54
f 53 80 81
f 54 83 55
f 54 82 83
f 55 83 84
f 55 84 56
f 56 85 57
f 56 84 86
f 56 86 85
f 57 85 58
f 58 85 87
f 58 87 59
f 59 87 88
f 59 88 60
f 60 88 61
f 61 89 90
f 61 90 62
f 61 88 89
f 62 90 91
f 62 91 63
f 63 91 92
f 63 92 64
f 64 92 93
f 64 93 94
f 64 94 65
f 65 94 66
f 66 94 95
f 66 95 96
f 66 96 67
f 67 96 68
f 68 96 98
f 68 98 97
f 69 97 134
f 69 134 99
f 70 72 71
f 71 72 73
f 71 73 101
f 71 101 139
f 71 139 191
f 71 191 137
f 71 137 100
f 74 102 103
f 74 103 75
f 75 103 142
f 75 142 104
f 76 104 143
f 76 143 105
f 76 105 77
f 77 105 106
f 77 106 79
f 77 79 78
f 79 106 145
f 79 145 107
f 79 107 80
f 80 107 81
f 81 108 109
f 81 109 110
f 81 110 82
f 81 107 108
f 82 110 111
f 82 111 112
f 82 112 113
f 82 113 83
f 83 113 84
f 84 113 86
f 85 86 114
f 85 114 115
f 85 115 116
f 85 116 117
f 85 117 118
f 85 118 87
f 86 119 114
f 86 113 119
f 87 118 120
f 87 120 88
f 88 120 121
f 88 121 122
f 88 122 89
f 89 122 123
f 89 123 124
f 89 124 90
f 90 124 91
f 91 124 92
f 92 125 126
f 92 126 127
f 92 127 93
f 92 124 125
f 93 128 129
f 93 129 130
f 93 130 94
f 93 127 128
f 94 130 95
f 95 130 131
f 95 131 132
f 95 132 96
f 96 132 98
f 97 98 133
f 97 133 134
f 98 132 182
f 98 182 133
f 99 134 184
f 99 184 135
f 100 137 187
f 100 187 136
f 101 138 194
f 101 194 139
f 102 140 103
f 103 141 200
f 103 200 142
f 103 140 141
f 104 142 201
f 104 201 143
f 105 143 202
f 105 202 144
f 105 144 145
f 105 145 106
f 107 145 146
f 107 146 147
f 107 147 108
f 108 147 148
f 108 148 109
f 109 148 110
f 110 149 150
f 110 150 111
f 110 148 151
f 110 151 149
f 111 150 152
f 111 152 112
f 112 152 153
f 112 153 113
f 113 153 154
f 113 154 155
f 113 155 119
f 114 156 158
f 114 158 115
f 114 119 157
f 114 157 210
f 114 210 156
f 115 158 159
f 115 159 116
f 116 159 160
f 116 160 117
f 117 160 161
f 117 161 118
f 118 161 163
f 118 163 120
f 119 155 162
f 119 162 157
f 120 163 219
f 120 219 164
f 120 164 121
f 121 164 122
f 122 164 165
f 122 165 123
f 123 165 166
f 123 166 167
f 123 167 124
f 124 167 168
f 124 168 169
f 124 169 125
f 125 170 126
f 125 169 170
f 126 170 226
f 126 226 171
f 126 171 127
f 127 171 172
f 127 172 173
f 127 173 174
f 127 174 175
f 127 175 128
f 128 175 176
f 128 176 129
f 129 176 130
f 130 176 177
f 130 177 131
f 131 177 178
f 131 178 179
f 131 179 180
f 131 180 132
f 132 181 182
f 132 180 181
f 133 182 234
f 133 234 183
f 133 183 184
f 133 184 134
f 135 184 236
f 135 236 185
f 136 187 186
f 137 188 189
f 137 189 241
f 137 241 190
f 137 190 187
f 137 191 192
f 137 192 188
f 138 193 244
f 138 244 194
f 139 194 195
f 139 195 247
f 139 247 196
f 139 196 197
f 139 197 192
f 139 192 191
f 140 198 141
f 141 199 253
f 141 253 200
f 141 198 250
f 141 250 199
f 142 200 255
f 142 255 201
f 143 201 202
f 144 202 203
f 144 203 146
f 144 146 145
f 146 203 204
f 146 204 151
f 146 151 147
f 147 151 148
f 149 205 206
f 149 206 150
f 149 151 205
f 150 206 207
f 150 207 152
f 151 204 205
f 152 207 153
f 153 208 154
f 153 207 208
f 154 208 209
f 154 209 155
f 155 209 162
f 156 210 211
f 156 211 212
f 156 212 213
f 156 213 158
f 157 162 217
f 157 217 210
f 158 213 214
f 158 214 159
f 159 214 215
f 159 215 216
f 159 216 160
f 160 216 161
f 161 216 218
f 161 218 163
f 162 209 217
f 163 218 219
f 164 219 276
f 164 276 220
f 164 220 165
f 165 220 221
f 165 221 166
f 166 168 167
f 166 221 222
f 166 222 223
f 166 223 224
f 166 224 168
f 168 224 225
f 168 225 169
f 169 225 226
f 169 226 170
f 171 226 227
f 171 227 172
f 172 228 229
f 172 229 173
f 172 227 228
f 173 229 177
f 173 177 174
f 174 177 175
f 175 177 176
f 177 229 178
f 178 229 179
f 179 229 230
f 179 230 231
f 179 231 180
f 180 231 181
f 181 231 232
f 181 232 233
f 181 233 182
f 182 233 234
f 183 234 235
f 183 235 236
f 183 236 184
f 185 236 237
f 186 187 239
f 186 239 238
f 187 190 239
f 188 240 189
f 188 192 243
f 188 243 240
f 189 240 242
f 189 242 299
f 189 299 241
f 190 241 295
f 190 295 239
f 192 197 249
f 192 249 243
f 193 245 246
f 193 246 301
f 193 301 244
f 194 244 195
f 195 244 302
f 195 302 247
f 196 248 249
f 196 249 197
f 196 247 304
f 196 304 248
f 199 251 252
f 199 252 253
f 199 250 254
f 199 254 251
f 200 253 255
f 201 255 256
f 201 256 202
f 202 256 257
f 202 257 258
f 202 258 259
f 202 259 203
f 203 259 260
f 203 260 204
f 204 260 261
f 204 261 205
f 205 261 262
f 205 262 206
f 206 262 207
f 207 263 264
f 207 264 208
f 207 262 263
f 208 264 209
f 209 264 265
f 209 265 266
f 209 266 217
f 210 217 266
f 210 266 211
f 211 267 268
f 211 268 212
f 211 266 267
f 212 268 269
f 212 269 213
f 213 269 270
f 213 270 214
f 214 270 215
f 215 270 216
f 216 271 273
f 216 273 218
f 216 270 272
f 216 272 271
f 218 273 329
f 218 329 274
f 218 274 219
f 219 274 275
f 219 275 332
f 219 332 276
f 220 276 334
f 220 334 277
f 220 277 221
f 221 277 222
f 222 277 334
f 222 334 278
f 222 278 279
f 222 279 225
f 222 225 223
f 223 225 224
f 225 279 280
f 225 280 226
f 226 280 281
f 226 281 227
f 227 281 282
f 227 282 228
f 228 282 230
f 228 230 229
f 230 282 283
f 230 283 231
f 231 283 232
f 232 283 284
f 232 284 285
f 232 285 233
f 233 285 286
f 233 286 287
f 233 287 234
f 234 287 288
f 234 288 289
f 234 289 235
f 235 289 290
f 235 290 291
f 235 291 236
f 236 291 292
f 236 292 237
f 237 292 293
f 238 239 296
f 238 296 294
f 239 295 296
f 240 297 242
f 240 243 300
f 240 300 298
f 240 298 297
f 241 299 295
f 242 297 299
f 243 249 306
f 243 306 300
f 244 301 302
f 245 303 246
f 246 303 362
f 246 362 301
f 247 302 304
f 248 305 249
f 248 304 305
f 249 305 306
f 251 307 252
f 251 254 308
f 251 308 374
f 251 374 307
f 252 309 310
f 252 310 253
f 252 307 309
f 253 310 311
f 253 311 255
f 255 312 313
f 255 313 256
f 255 311 312
f 256 313 314
f 256 314 257
f 257 314 315
f 257 315 260
f 257 260 258
f 258 260 259
f 260 315 261
f 261 315 316
f 261 316 317
f 261 317 318
f 261 318 319
f 261 319 262
f 262 319 263
f 263 319 318
f 263 318 320
f 263 320 264
f 264 320 321
f 264 321 265
f 265 321 322
f 265 322 266
f 266 322 323
f 266 323 267
f 267 323 324
f 267 324 325
f 267 325 268
f 268 326 269
f 268 325 326
f 269 326 270
f 270 326 272
f 271 327 328
f 271 328 273
f 271 272 326
f 271 326 327
f 273 328 329
f 274 329 330
f 274 330 275
f 275 330 331
f 275 331 332
f 276 332 333
f 276 333 334
f 278 334 333
f 278 333 335
f 278 335 336
f 278 336 337
f 278 337 279
f 279 337 338
f 279 338 280
f 280 338 339
f 280 339 281
f 281 339 282
f 282 339 340
f 282 340 341
f 282 341 284
f 282 284 283
f 284 341 342
f 284 342 343
f 284 343 286
f 284 286 285
f 286 344 287
f 286 343 344
f 287 344 288
f 288 344 345
f 288 345 346
f 288 346 289
f 289 346 290
f 290 346 347
f 290 347 348
f 290 348 291
f 291 348 349
f 291 349 292
f 292 349 350
f 292 350 293
f 294 296 351
f 295 299 352
f 295 352 353
f 295 353 296
f 296 353 354
f 296 354 355
f 296 355 351
f 297 356 357
f 297 357 299
f 297 298 358
f 297 358 356
f 298 300 361
f 298 361 359
f 298 359 358
f 299 360 352
f 299 357 360
f 300 306 371
f 300 371 361
f 301 362 363
f 301 363 364
f 301 364 302
f 302 364 365
f 302 365 304
f 303 366 362
f 304 365 367
f 304 367 368
f 304 368 305
f 305 369 306
f 305 368 370
f 305 370 369
f 306 369 371
f 307 372 373
f 307 373 309
f 307 374 439
f 307 439 372
f 309 373 375
f 309 375 376
f 309 376 310
f 310 376 377
f 310 377 311
f 311 377 312
f 312 378 379
f 312 379 313
f 312 377 378
f 313 379 314
f 314 379 380
f 314 380 315
f 315 380 381
f 315 381 316
f 316 381 382
f 316 382 317
f 317 382 385
f 317 385 383
f 317 383 320
f 317 320 318
f 320 383 321
f 321 383 384
f 321 384 322
f 322 384 324
f 322 324 323
f 324 384 385
f 324 385 386
f 324 386 387
f 324 387 388
f 324 388 389
f 324 389 325
f 325 390 326
f 325 389 391
f 325 391 390
f 326 390 392
f 326 392 393
f 326 393 394
f 326 394 327
f 327 394 395
f 327 395 328
f 328 395 396
f 328 396 397
f 328 397 398
f 328 398 330
f 328 330 329
f 330 398 331
f 331 398 399
f 331 399 400
f 331 400 333
f 331 333 332
f 333 400 401
f 333 401 335
f 335 401 336
f 336 401 402
f 336 402 403
f 336 403 338
f 336 338 337
f 338 403 340
f 338 340 339
f 340 403 404
f 340 404 405
f 340 405 341
f 341 405 342
f 342 405 406
f 342 406 407
f 342 407 344
f 342 344 343
f 344 407 408
f 344 408 345
f 345 408 409
f 345 409 410
f 345 410 346
f 346 410 347
f 347 410 411
f 347 411 412
f 347 412 348
f 348 412 413
f 348 413 349
f 349 413 414
f 349 414 472
f 349 472 415
f 349 415 350
f 351 355 416
f 352 360 417
f 352 417 353
f 353 417 354
f 354 418 419
f 354 419 355
f 354 417 420
f 354 420 418
f 355 419 421
f 355 421 416
f 356 422 423
f 356 423 357
f 356 358 424
f 356 424 422
f 357 423 360
f 358 359 425
f 358 425 424
f 359 361 425
f 360 423 473
f 360 473 417
f 361 426 425
f 361 371 434
f 361 434 426
f 362 366 427
f 362 427 363
f 363 428 429
f 363 429 364
f 363 427 430
f 363 430 428
f 364 429 365
f 365 429 367
f 366 431 432
f 366 432 427
f 367 429 490
f 367 490 433
f 367 433 368
f 368 433 370
f 369 434 371
f 369 370 435
f 369 435 434
f 370 433 436
f 370 436 435
f 372 437 438
f 372 438 373
f 372 439 502
f 372 502 437
f 373 438 375
f 375 440 441
f 375 441 376
f 375 438 440
f 376 441 442
f 376 442 377
f 377 442 378
f 378 442 443
f 378 443 444
f 378 444 379
f 379 444 445
f 379 445 381
f 379 381 380
f 381 445 386
f 381 386 382
f 382 386 385
f 383 385 384
f 386 445 446
f 386 446 447
f 386 447 387
f 387 447 448
f 387 448 388
f 388 448 449
f 388 449 450
f 388 450 391
f 388 391 389
f 390 391 392
f 391 450 451
f 391 451 452
f 391 452 392
f 392 452 453
f 392 453 454
f 392 454 393
f 393 454 455
f 393 455 394
f 394 455 396
f 394 396 395
f 396 455 517
f 396 517 456
f 396 456 457
f 396 457 458
f 396 458 397
f 397 458 398
f 398 458 459
f 398 459 399
f 399 404 402
f 399 402 401
f 399 401 400
f 399 459 460
f 399 460 461
f 399 461 406
f 399 406 404
f 402 404 403
f 404 406 405
f 406 462 407
f 406 461 463
f 406 463 462
f 407 462 464
f 407 464 408
f 408 464 409
f 409 464 465
f 409 465 466
f 409 466 410
f 410 466 411
f 411 466 467
f 411 467 468
f 411 468 412
f 412 468 469
f 412 469 413
f 413 469 470
f 413 470 414
f 414 470 471
f 414 471 472
f 417 473 420
f 418 474 475
f 418 475 419
f 418 420 476
f 418 476 477
f 418 477 474
f 419 475 533
f 419 533 478
f 419 478 421
f 420 473 479
f 420 479 476
f 422 424 480
f 422 480 481
f 422 481 482
f 422 482 483
f 422 483 423
f 423 483 473
f 424 425 484
f 424 484 485
f 424 485 480
f 425 486 484
f 425 426 487
f 425 487 486
f 426 434 497
f 426 497 487
f 427 432 494
f 427 494 488
f 427 488 430
f 428 489 490
f 428 490 429
f 428 430 491
f 428 491 489
f 430 488 492
f 430 492 493
f 430 493 491
f 431 494 432
f 433 490 495
f 433 495 436
f 434 435 496
f 434 496 497
f 435 436 498
f 435 498 499
f 435 499 496
f 436 495 500
f 436 500 501
f 436 501 498
f 437 475 474
f 437 474 438
f 437 502 503
f 437 503 475
f 438 474 477
f 438 477 440
f 440 477 504
f 440 504 505
f 440 505 441
f 441 505 506
f 441 506 442
f 442 506 443
f 443 506 507
f 443 507 508
f 443 508 444
f 444 508 445
f 445 508 446
f 446 508 509
f 446 509 510
f 446 510 511
f 446 511 448
f 446 448 447
f 448 511 512
f 448 512 449
f 449 513 450
f 449 512 513
f 450 513 451
f 451 514 452
f 451 513 514
f 452 514 453
f 453 514 454
f 454 514 515
f 454 515 516
f 454 516 517
f 454 517 455
f 456 518 457
f 456 517 516
f 456 516 519
f 456 519 518
f 457 518 520
f 457 520 458
f 458 520 521
f 458 521 460
f 458 460 459
f 460 522 461
f 460 521 523
f 460 523 522
f 461 522 463
f 462 463 522
f 462 522 524
f 462 524 525
f 462 525 526
f 462 526 464
f 464 526 465
f 465 526 525
f 465 525 527
f 465 527 528
f 465 528 466
f 466 528 467
f 467 528 529
f 467 529 530
f 467 530 468
f 468 530 493
f 468 493 469
f 469 493 492
f 469 492 470
f 470 492 488
f 470 488 494
f 470 494 531
f 470 531 471
f 473 483 532
f 473 532 479
f 475 503 533
f 476 479 534
f 476 534 504
f 476 504 477
f 479 532 534
f 480 485 481
f 481 485 535
f 481 535 536
f 481 536 537
f 481 537 482
f 482 537 538
f 482 538 483
f 483 538 532
f 484 486 539
f 484 539 485
f 485 539 540
f 485 540 541
f 485 541 535
f 486 487 539
f 487 497 546
f 487 546 542
f 487 542 539
f 489 543 490
f 489 491 544
f 489 544 543
f 490 543 495
f 491 493 530
f 491 530 544
f 495 543 545
f 495 545 500
f 496 546 497
f 496 499 546
f 498 501 499
f 499 501 547
f 499 547 548
f 499 548 549
f 499 549 546
f 500 545 550
f 500 550 501
f 501 550 551
f 501 551 547
f 504 534 552
f 504 552 505
f 505 552 553
f 505 553 506
f 506 553 507
f 507 554 510
f 507 510 509
f 507 509 508
f 507 553 554
f 510 554 555
f 510 555 556
f 510 556 512
f 510 512 511
f 512 556 557
f 512 557 558
f 512 558 513
f 513 558 557
f 513 557 559
f 513 559 560
f 513 560 561
f 513 561 514
f 514 561 560
f 514 560 562
f 514 562 563
f 514 563 564
f 514 564 515
f 515 564 516
f 516 565 571
f 516 571 519
f 516 564 565
f 518 566 567
f 518 567 568
f 518 568 520
f 518 519 569
f 518 569 570
f 518 570 566
f 519 571 569
f 520 568 521
f 521 568 523
f 522 523 572
f 522 572 524
f 523 568 572
f 524 572 525
f 525 572 573
f 525 573 574
f 525 574 527
f 527 574 575
f 527 575 528
f 528 575 529
f 529 575 576
f 529 576 544
f 529 544 530
f 532 538 577
f 532 577 534
f 534 577 552
f 535 541 578
f 535 578 536
f 536 579 537
f 536 578 557
f 536 557 579
f 537 579 580
f 537 580 538
f 538 580 577
f 539 581 540
f 539 542 582
f 539 582 581
f 540 581 583
f 540 583 541
f 541 583 584
f 541 584 560
f 541 560 578
f 542 546 582
f 543 544 576
f 543 576 545
f 545 576 585
f 545 585 550
f 546 549 582
f 547 551 586
f 547 586 548
f 548 587 588
f 548 588 549
f 548 586 566
f 548 566 587
f 549 588 582
f 550 585 589
f 550 589 551
f 551 589 590
f 551 590 586
f 552 577 591
f 552 591 553
f 553 591 554
f 554 591 555
f 555 579 557
f 555 557 556
f 555 591 579
f 557 578 560
f 557 560 559
f 560 584 592
f 560 592 562
f 562 592 593
f 562 593 563
f 563 593 564
f 564 593 594
f 564 594 565
f 565 595 571
f 565 594 592
f 565 592 595
f 566 586 590
f 566 590 596
f 566 596 568
f 566 568 567
f 566 570 595
f 566 595 587
f 568 596 590
f 568 590 597
f 568 597 572
f 569 571 570
f 570 571 595
f 572 597 590
f 572 590 573
f 573 590 574
f 574 590 589
f 574 589 575
f 575 589 585
f 575 585 576
f 577 580 591
f 579 591 580
f 581 582 583
f 582 588 598
f 582 598 583
f 583 599 600
f 583 600 584
f 583 598 601
f 583 601 599
f 584 600 592
f 587 595 602
f 587 602 588
f 588 602 601
f 588 601 598
f 592 594 593
f 592 600 599
f 592 599 601
f 592 601 595
f 595 601 602

