# https://github.com/mikedh/trimesh
v 0.00815056 -0.03024808 0.01549500
v 0.00815056 -0.02984713 0.01549343
v 0.00764966 -0.02984713 0.01549343
v 0.00224157 -0.03074762 0.01549500
v 0.00815056 -0.03884880 0.01549500
v 0.00815056 -0.02934758 0.01547778
v 0.00674966 -0.02984713 0.01548874
v 0.00815056 -0.02894992 0.01545744
v 0.00224157 -0.02984713 0.01544804
v 0.00224157 -0.03884880 0.01549500
v 0.00815056 -0.03974930 0.01546839
v 0.00815056 -0.02844708 0.01540422
v 0.00815056 -0.02805271 0.01534161
v 0.00225024 -0.02894992 0.01530248
v 0.00224157 -0.02895649 0.01530248
v 0.00224157 -0.03974930 0.01546839
v 0.00815056 -0.04064979 0.01537448
v 0.00815056 -0.02754988 0.01521640
v 0.00224157 -0.02894992 0.01530092
v 0.00815056 -0.02715221 0.01509901
v 0.00224157 -0.02805271 0.01502388
v 0.00224157 -0.04064979 0.01537448
v 0.00224157 -0.04065637 0.01537292
v 0.00815056 -0.04104746 0.01527274
v 0.00815056 -0.02674469 0.01492997
v 0.00815056 -0.02647848 0.01481571
v 0.00224157 -0.02748415 0.01477188
v 0.00224157 -0.04154700 0.01514440
v 0.00815056 -0.04154700 0.01514440
v 0.00815056 -0.02622871 0.01467954
v 0.00815056 -0.02602823 0.01455275
v 0.00815056 -0.01478189 0.00736696
v 0.00815056 -0.01402600 0.00687862
v 0.00224157 -0.01685895 0.00746713
v 0.00224157 -0.04225360 0.01483762
v 0.00225024 -0.04225031 0.01483919
v 0.00815056 -0.04225031 0.01483919
v 0.00815056 -0.01384196 0.00674871
v 0.00224157 -0.01635612 0.00711496
v 0.00224157 -0.04270713 0.01456841
v 0.00815056 -0.04245079 0.01472023
v 0.00815056 -0.01360204 0.00654680
v 0.00224157 -0.01580399 0.00669862
v 0.00815056 -0.04295691 0.01437276
v 0.00815056 -0.04270056 0.01457154
v 0.00224157 -0.04327898 0.01411763
v 0.00225024 -0.04327570 0.01412233
v 0.00815056 -0.01342786 0.00638558
v 0.00224157 -0.01580070 0.00669549
v 0.00815056 -0.04327570 0.01412233
v 0.00224157 -0.04372923 0.01371381
v 0.00225024 -0.04372595 0.01371694
v 0.00815056 -0.04347617 0.01394233
v 0.00815056 -0.01318137 0.00614611
v 0.00224157 -0.01528144 0.00610854
v 0.00815056 -0.01298418 0.00593011
v 0.00224157 -0.04407760 0.01326773
v 0.00815056 -0.04407760 0.01326773
v 0.00815056 -0.04372595 0.01371694
v 0.00224157 -0.01525843 0.00608194
v 0.00815056 -0.01273113 0.00561394
v 0.00224157 -0.01497251 0.00573759
v 0.00224157 -0.04452785 0.01255244
v 0.00815056 -0.04452456 0.01255714
v 0.00815056 -0.01256023 0.00538230
v 0.00815056 -0.01244520 0.00521169
v 0.00815056 -0.01225459 0.00489709
v 0.00224157 -0.01474245 0.00532908
v 0.00224157 -0.04474804 0.01210166
v 0.00815056 -0.04462315 0.01235679
v 0.00815056 -0.01218228 0.00475778
v 0.00224157 -0.01471945 0.00528682
v 0.00815056 -0.04483021 0.01185906
v 0.00815056 -0.04474476 0.01210636
v 0.00224157 -0.04493537 0.01154133
v 0.00815056 -0.01200810 0.00434614
v 0.00224157 -0.01427249 0.00428979
v 0.00815056 -0.04493209 0.01154915
v 0.00224157 -0.04512270 0.01064917
v 0.00815056 -0.04501753 0.01115003
v 0.00815056 -0.01187993 0.00389067
v 0.00224157 -0.01411802 0.00364650
v 0.00815056 -0.01175833 0.00345085
v 0.00815056 -0.04512270 0.01064917
v 0.00224157 -0.04518514 0.00974918
v 0.00224157 -0.01409173 0.00345085
v 0.00815056 -0.01165973 0.00256182
v 0.00815056 -0.04518514 0.00974918
v 0.00224157 -0.04519500 0.00884920
v 0.00224157 -0.01407201 0.00325990
v 0.00815056 -0.01163344 0.00183557
v 0.00224157 -0.01401943 0.00256182
v 0.00815056 -0.04519500 0.00884920
v 0.00224157 -0.04519500 0.00075089
v 0.00815056 -0.01162687 0.00165088
v 0.00224157 -0.01399642 0.00166027
v 0.00815056 -0.04519500 0.00075089
v 0.00224157 -0.04494523 -0.00007083
v 0.00815056 -0.01162029 0.00075089
v 0.00224157 -0.01397342 0.00075089
v 0.00815056 -0.04494523 -0.00007083
v 0.00224157 -0.04424849 -0.00046839
v 0.00815056 -0.01194566 -0.00004423
v 0.00224157 -0.01403257 0.00012638
v 0.00815056 -0.04424849 -0.00046839
v 0.00224157 -0.04334800 -0.00049500
v 0.00815056 -0.01275084 -0.00041987
v 0.00764966 -0.01275084 -0.00033848
v 0.00225024 -0.01455184 -0.00027274
v 0.00224157 -0.01455184 -0.00027118
v 0.00224157 -0.01454526 -0.00026648
v 0.00815056 -0.04334800 -0.00049500
v 0.00224157 -0.01545233 -0.00049500
v 0.00315024 -0.01455184 -0.00038700
v 0.00815056 -0.01365134 -0.00049500
v 0.00764966 -0.01365134 -0.00049500
v 0.00674966 -0.01365134 -0.00047309
f 1 2 3
f 1 3 4
f 1 4 10
f 1 10 5
f 1 5 11
f 1 11 17
f 1 17 24
f 1 24 29
f 1 29 37
f 1 37 41
f 1 41 45
f 1 45 44
f 1 44 50
f 1 50 53
f 1 53 59
f 1 59 58
f 1 58 64
f 1 64 70
f 1 70 74
f 1 74 73
f 1 73 78
f 1 78 80
f 1 80 84
f 1 84 88
f 1 88 93
f 1 93 97
f 1 97 101
f 1 101 105
f 1 105 112
f 1 112 115
f 1 115 107
f 1 107 103
f 1 103 99
f 1 99 95
f 1 95 91
f 1 91 87
f 1 87 83
f 1 83 81
f 1 81 76
f 1 76 71
f 1 71 67
f 1 67 66
f 1 66 65
f 1 65 61
f 1 61 56
f 1 56 54
f 1 54 48
f 1 48 42
f 1 42 38
f 1 38 33
f 1 33 32
f 1 32 31
f 1 31 30
f 1 30 26
f 1 26 25
f 1 25 20
f 1 20 18
f 1 18 13
f 1 13 12
f 1 12 8
f 1 8 6
f 1 6 2
f 2 6 3
f 3 7 4
f 3 6 7
f 4 7 6
f 4 6 8
f 4 8 9
f 4 9 15
f 4 15 19
f 4 19 21
f 4 21 27
f 4 27 34
f 4 34 39
f 4 39 43
f 4 43 49
f 4 49 55
f 4 55 60
f 4 60 62
f 4 62 68
f 4 68 72
f 4 72 77
f 4 77 82
f 4 82 86
f 4 86 90
f 4 90 92
f 4 92 96
f 4 96 100
f 4 100 104
f 4 104 111
f 4 111 110
f 4 110 113
f 4 113 106
f 4 106 102
f 4 102 98
f 4 98 94
f 4 94 89
f 4 89 85
f 4 85 79
f 4 79 75
f 4 75 69
f 4 69 63
f 4 63 57
f 4 57 51
f 4 51 46
f 4 46 40
f 4 40 35
f 4 35 28
f 4 28 23
f 4 23 22
f 4 22 16
f 4 16 10
f 5 10 16
f 5 16 11
f 8 12 9
f 9 12 13
f 9 13 14
f 9 14 15
f 11 16 22
f 11 22 17
f 13 18 14
f 14 19 15
f 14 18 20
f 14 20 21
f 14 21 19
f 17 22 23
f 17 23 24
f 20 25 21
f 21 25 26
f 21 26 27
f 23 28 24
f 24 28 29
f 26 30 27
f 27 30 31
f 27 31 32
f 27 32 33
f 27 33 34
f 28 35 36
f 28 36 37
f 28 37 29
f 33 38 39
f 33 39 34
f 35 40 41
f 35 41 37
f 35 37 36
f 38 42 43
f 38 43 39
f 40 44 45
f 40 45 41
f 40 46 47
f 40 47 44
f 42 48 43
f 43 48 49
f 44 47 50
f 46 51 47
f 47 51 52
f 47 52 53
f 47 53 50
f 48 54 49
f 49 54 56
f 49 56 55
f 51 57 58
f 51 58 59
f 51 59 52
f 52 59 53
f 55 56 60
f 56 61 62
f 56 62 60
f 57 63 58
f 58 63 64
f 61 65 62
f 62 65 66
f 62 66 67
f 62 67 68
f 63 69 70
f 63 70 64
f 67 71 72
f 67 72 68
f 69 73 74
f 69 74 70
f 69 75 73
f 71 76 77
f 71 77 72
f 73 75 78
f 75 79 84
f 75 84 80
f 75 80 78
f 76 81 77
f 77 81 83
f 77 83 82
f 79 85 88
f 79 88 84
f 82 83 86
f 83 87 86
f 85 89 93
f 85 93 88
f 86 87 90
f 87 91 92
f 87 92 90
f 89 94 97
f 89 97 93
f 91 95 92
f 92 95 96
f 94 98 101
f 94 101 97
f 95 99 100
f 95 100 96
f 98 102 105
f 98 105 101
f 99 103 104
f 99 104 100
f 102 106 112
f 102 112 105
f 103 107 108
f 103 108 109
f 103 109 110
f 103 110 111
f 103 111 104
f 106 113 116
f 106 116 115
f 106 115 112
f 107 114 109
f 107 109 108
f 107 115 116
f 107 116 117
f 107 117 113
f 107 113 114
f 109 114 113
f 109 113 110
f 113 117 116

