# https://github.com/mikedh/trimesh
v 0.01126969 0.01153044 -0.00049500
v 0.00765002 0.01425035 -0.00049500
v 0.01304135 0.01153044 -0.00049500
v 0.01036973 0.01153044 -0.00042163
v 0.01034989 0.01155052 -0.00042274
v 0.00690035 0.01425035 -0.00047721
v 0.00690035 0.01500080 -0.00049500
v 0.01304135 0.01912790 -0.00049500
v 0.01304135 0.01153044 0.00740671
v 0.01035049 0.01153044 -0.00041385
v 0.00690035 0.01334892 -0.00007034
v 0.00690035 0.01410086 -0.00045053
v 0.00690035 0.01912790 -0.00049500
v 0.01304135 0.01912790 0.01086177
v 0.00690035 0.01912790 0.00900306
v 0.00690035 0.01635815 0.00757457
v 0.00690035 0.01590818 0.00730555
v 0.01297702 0.01153044 0.00737781
v 0.00951967 0.01153044 -0.00007257
v 0.00690035 0.01328421 -0.00002921
v 0.00690035 0.01524996 0.00685533
v 0.01212095 0.01153044 0.00690424
v 0.00950103 0.01153044 -0.00005923
v 0.00690035 0.01323066 0.00002859
v 0.00690035 0.01480296 0.00649959
v 0.01122941 0.01153044 0.00627281
v 0.00915897 0.01153044 0.00055219
v 0.00715766 0.01287440 0.00023536
v 0.00690035 0.01301200 0.00052329
v 0.01117711 0.01153044 0.00623502
v 0.00690035 0.01438274 0.00604937
v 0.00911087 0.01153044 0.00075006
v 0.00690035 0.01300605 0.00075006
v 0.01110857 0.01153044 0.00617832
v 0.00690035 0.01390525 0.00542906
v 0.00911388 0.01153044 0.00165051
v 0.00690035 0.01301348 0.00126254
v 0.01031923 0.01153044 0.00540460
v 0.01026513 0.01153044 0.00535124
v 0.00690035 0.01367766 0.00505554
v 0.00914334 0.01153044 0.00255096
v 0.00690035 0.01302241 0.00165051
v 0.01022425 0.01153044 0.00530122
v 0.00690035 0.01364865 0.00499774
v 0.00922690 0.01153044 0.00322130
v 0.00690035 0.01305588 0.00263767
v 0.00690035 0.01305067 0.00252206
v 0.00690035 0.01336974 0.00440522
v 0.00956536 0.01153044 0.00431962
v 0.00925816 0.01153044 0.00345030
v 0.00690035 0.01312951 0.00345030
v 0.00690035 0.01317488 0.00364262
v 0.00952749 0.01153044 0.00424847
f 1 2 7
f 1 7 13
f 1 13 8
f 1 8 3
f 1 3 9
f 1 9 18
f 1 18 22
f 1 22 26
f 1 26 30
f 1 30 34
f 1 34 38
f 1 38 39
f 1 39 43
f 1 43 49
f 1 49 53
f 1 53 50
f 1 50 45
f 1 45 41
f 1 41 36
f 1 36 32
f 1 32 27
f 1 27 23
f 1 23 19
f 1 19 10
f 1 10 4
f 1 4 5
f 1 5 6
f 1 6 2
f 2 6 7
f 3 8 14
f 3 14 9
f 4 10 11
f 4 11 12
f 4 12 6
f 4 6 5
f 6 12 11
f 6 11 20
f 6 20 24
f 6 24 29
f 6 29 33
f 6 33 37
f 6 37 42
f 6 42 47
f 6 47 46
f 6 46 51
f 6 51 52
f 6 52 48
f 6 48 44
f 6 44 40
f 6 40 35
f 6 35 31
f 6 31 25
f 6 25 21
f 6 21 17
f 6 17 16
f 6 16 15
f 6 15 13
f 6 13 7
f 8 13 15
f 8 15 14
f 9 14 15
f 9 15 16
f 9 16 17
f 9 17 18
f 10 19 11
f 11 19 20
f 17 21 18
f 18 21 22
f 19 23 20
f 20 23 24
f 21 25 22
f 22 25 26
f 23 27 28
f 23 28 24
f 24 28 29
f 25 30 26
f 25 31 30
f 27 32 28
f 28 32 29
f 29 32 33
f 30 31 34
f 31 35 34
f 32 36 33
f 33 36 37
f 34 35 38
f 35 39 38
f 35 40 39
f 36 41 37
f 37 41 42
f 39 40 43
f 40 44 43
f 41 45 46
f 41 46 47
f 41 47 42
f 43 44 48
f 43 48 49
f 45 50 51
f 45 51 46
f 48 52 53
f 48 53 49
f 50 53 51
f 51 53 52

