# https://github.com/mikedh/trimesh
v -0.04364941 -0.00843123 -0.00049500
v -0.04454727 -0.00843123 -0.00046839
v -0.04364941 0.00030637 -0.00049500
v -0.01377081 -0.00843123 -0.00049500
v -0.04510593 -0.00843123 -0.00015066
v -0.04490308 0.00030637 -0.00026648
v -0.04454727 0.00030637 -0.00046839
v -0.01575274 0.00030637 -0.00049500
v -0.01395038 -0.00734994 -0.00049500
v -0.01305253 -0.00843123 -0.00048404
v -0.04524560 -0.00843123 -0.00007083
v -0.04524560 0.00030637 -0.00007083
v -0.01532377 0.00030637 -0.00029935
v -0.01194850 -0.00843123 -0.00012405
v -0.01212807 -0.00843123 -0.00019918
v -0.01286963 -0.00843123 -0.00047622
v -0.01305253 -0.00824988 -0.00048248
v -0.04549500 -0.00843123 0.00075089
v -0.04549500 0.00030637 0.00075089
v -0.01488149 0.00030637 -0.00009744
v -0.01176893 -0.00843123 0.00000899
v -0.04549500 -0.00843123 0.00884920
v -0.04549500 0.00030637 0.00884920
v -0.01446914 0.00030637 0.00075089
v -0.01162594 -0.00843123 0.00022499
v -0.04548502 -0.00843123 0.00974918
v -0.04548502 -0.00285026 0.00974918
v -0.04548835 0.00030637 0.00930623
v -0.01447579 0.00030637 0.00165088
v -0.01152285 -0.00843123 0.00075089
v -0.04541852 -0.00843123 0.01064917
v -0.04541852 -0.00644915 0.01064917
v -0.04544844 0.00030637 0.01020622
v -0.04548170 0.00030637 0.00974918
v -0.01448244 0.00030637 0.00209383
v -0.01153615 -0.00843123 0.00171975
v -0.04522565 -0.00843123 0.01154915
v -0.04522565 -0.00824988 0.01154915
v -0.04541520 -0.00105038 0.01064917
v -0.04541187 0.00030637 0.01064917
v -0.01449242 0.00030637 0.00255086
v -0.01156608 -0.00843123 0.00255086
v -0.04504275 -0.00843123 0.01210010
v -0.04531211 0.00030637 0.01110620
v -0.04504275 -0.00824988 0.01210010
v -0.04504275 -0.00734994 0.01209853
v -0.04503942 -0.00285026 0.01209071
v -0.04521567 -0.00105038 0.01154915
v -0.01452567 0.00030637 0.00299381
v -0.01157606 -0.00843123 0.00266669
v -0.01456225 0.00030637 0.00345085
v -0.04486983 -0.00843123 0.01245853
v -0.04521235 0.00030637 0.01154915
v -0.04482327 -0.00375019 0.01254148
v -0.04481995 0.00030637 0.01253679
v -0.04503610 0.00030637 0.01208601
v -0.01165919 -0.00843123 0.00345085
v -0.01466202 0.00030637 0.00389380
v -0.04482327 -0.00843123 0.01254931
v -0.04482327 -0.00824988 0.01254931
v -0.04482327 -0.00644915 0.01254618
v -0.04482327 -0.00464927 0.01254305
v -0.04437435 -0.00554921 0.01326460
v -0.04437102 0.00030637 0.01325678
v -0.01185539 -0.00843123 0.00420684
v -0.01476843 0.00030637 0.00435083
v -0.04437435 -0.00843123 0.01326617
v -0.04437435 -0.00644915 0.01326617
v -0.04402186 -0.00464927 0.01371381
v -0.04401521 0.00030637 0.01370755
v -0.01194517 -0.00843123 0.00441657
v -0.01511094 0.00030637 0.00516004
v -0.04409501 -0.00843123 0.01362460
v -0.04402186 -0.00554921 0.01371538
v -0.04357293 -0.00554921 0.01411450
v -0.04356960 -0.00285026 0.01411137
v -0.04378575 0.00030637 0.01391103
v -0.04356628 -0.00105038 0.01410981
v -0.01236085 -0.00843123 0.00520386
v -0.01523066 0.00030637 0.00538073
v -0.04402186 -0.00843123 0.01371694
v -0.04402186 -0.00824988 0.01371694
v -0.04357293 -0.00644915 0.01411607
v -0.04357293 -0.00824988 0.01411920
v -0.04311070 -0.00843123 0.01447763
v -0.04356295 0.00030637 0.01410824
v -0.04326699 0.00030637 0.01433676
v -0.01248389 -0.00843123 0.00537603
v -0.01535702 0.00030637 0.00560925
v -0.04357293 -0.00843123 0.01411920
v -0.04299099 -0.00843123 0.01456841
v -0.04299099 -0.00824988 0.01456841
v -0.04299099 -0.00734994 0.01456684
v -0.04298766 -0.00554921 0.01456528
v -0.04297768 0.00030637 0.01455902
v -0.01297937 -0.00843123 0.00599898
v -0.01578267 0.00030637 0.00615080
v -0.04254206 -0.00843123 0.01483136
v -0.04254206 -0.00824988 0.01483136
v -0.04253873 -0.00644915 0.01482979
v -0.04253541 -0.00464927 0.01482823
v -0.04252876 -0.00105038 0.01482510
v -0.04274823 0.00030637 0.01469362
v -0.01309576 -0.00843123 0.00611637
v -0.01597554 0.00030637 0.00638402
v -0.01617839 0.00030637 0.00662349
v -0.04199004 -0.00843123 0.01507396
v -0.04184705 -0.00554921 0.01513344
v -0.04184705 -0.00285026 0.01513031
v -0.04184705 0.00030637 0.01512561
v -0.04218292 0.00030637 0.01497692
v -0.04252543 0.00030637 0.01482353
v -0.01321215 -0.00843123 0.00622906
v -0.01665060 0.00030637 0.00699444
v -0.01378744 -0.00843123 0.00674714
v -0.04184705 -0.00843123 0.01513501
v -0.04184705 -0.00734994 0.01513501
v -0.04094920 -0.00464927 0.01537292
v -0.04094920 -0.00105038 0.01536978
v -0.04139147 0.00030637 0.01524927
v -0.01693658 0.00030637 0.00720418
v -0.01396701 -0.00843123 0.00686610
v -0.01723586 0.00030637 0.00742018
v -0.02783387 0.00030637 0.01474371
v -0.04094920 -0.00843123 0.01537448
v -0.04094920 -0.00734994 0.01537448
v -0.04004802 -0.00195032 0.01546526
v -0.04004802 0.00030637 0.01546370
v -0.04094920 0.00030637 0.01536822
v -0.01475180 -0.00843123 0.00736226
v -0.02808660 0.00030637 0.01485953
v -0.02667996 -0.00843123 0.01484701
v -0.02624101 -0.00843123 0.01461380
v -0.04004802 -0.00843123 0.01546683
v -0.04004802 -0.00554921 0.01546683
v -0.03914684 0.00030637 0.01549500
v -0.02835263 0.00030637 0.01497692
v -0.02745145 -0.00843123 0.01515692
v -0.03914684 -0.00843123 0.01549500
v -0.03194738 0.00030637 0.01549500
v -0.02879158 0.00030637 0.01512561
v -0.02835263 -0.00843123 0.01537448
v -0.02924716 0.00030637 0.01527744
v -0.03014834 -0.00843123 0.01549500
v -0.03104952 -0.00105038 0.01549500
v -0.03104952 0.00030637 0.01549343
v -0.02924716 -0.00843123 0.01546683
v -0.02969276 0.00030637 0.01535883
v -0.03014834 0.00030637 0.01544178
v -0.03014834 -0.00824988 0.01549500
v -0.03014834 -0.00734994 0.01549343
f 1 2 7
f 1 7 3
f 1 3 8
f 1 8 9
f 1 9 4
f 1 4 10
f 1 10 16
f 1 16 15
f 1 15 14
f 1 14 21
f 1 21 25
f 1 25 30
f 1 30 36
f 1 36 42
f 1 42 50
f 1 50 57
f 1 57 65
f 1 65 71
f 1 71 79
f 1 79 88
f 1 88 96
f 1 96 104
f 1 104 113
f 1 113 115
f 1 115 122
f 1 122 130
f 1 130 133
f 1 133 132
f 1 132 138
f 1 138 142
f 1 142 147
f 1 147 144
f 1 144 139
f 1 139 134
f 1 134 125
f 1 125 116
f 1 116 107
f 1 107 98
f 1 98 91
f 1 91 85
f 1 85 90
f 1 90 81
f 1 81 73
f 1 73 67
f 1 67 59
f 1 59 52
f 1 52 43
f 1 43 37
f 1 37 31
f 1 31 26
f 1 26 22
f 1 22 18
f 1 18 11
f 1 11 5
f 1 5 2
f 2 5 6
f 2 6 7
f 3 7 6
f 3 6 12
f 3 12 19
f 3 19 23
f 3 23 28
f 3 28 34
f 3 34 33
f 3 33 40
f 3 40 44
f 3 44 53
f 3 53 56
f 3 56 55
f 3 55 64
f 3 64 70
f 3 70 77
f 3 77 86
f 3 86 87
f 3 87 95
f 3 95 103
f 3 103 112
f 3 112 111
f 3 111 110
f 3 110 120
f 3 120 129
f 3 129 128
f 3 128 136
f 3 136 140
f 3 140 146
f 3 146 149
f 3 149 148
f 3 148 143
f 3 143 141
f 3 141 137
f 3 137 131
f 3 131 124
f 3 124 123
f 3 123 121
f 3 121 114
f 3 114 106
f 3 106 105
f 3 105 97
f 3 97 89
f 3 89 80
f 3 80 72
f 3 72 66
f 3 66 58
f 3 58 51
f 3 51 49
f 3 49 41
f 3 41 35
f 3 35 29
f 3 29 24
f 3 24 20
f 3 20 13
f 3 13 8
f 4 9 10
f 5 11 12
f 5 12 6
f 8 13 14
f 8 14 15
f 8 15 16
f 8 16 17
f 8 17 10
f 8 10 9
f 10 17 16
f 11 18 19
f 11 19 12
f 13 20 14
f 14 20 21
f 18 22 23
f 18 23 19
f 20 24 25
f 20 25 21
f 22 26 27
f 22 27 23
f 23 27 28
f 24 29 30
f 24 30 25
f 26 31 32
f 26 32 27
f 27 32 33
f 27 33 34
f 27 34 28
f 29 35 36
f 29 36 30
f 31 37 38
f 31 38 32
f 32 38 39
f 32 39 33
f 33 39 40
f 35 41 36
f 36 41 42
f 37 43 45
f 37 45 38
f 38 44 39
f 38 45 46
f 38 46 47
f 38 47 48
f 38 48 44
f 39 44 40
f 41 49 42
f 42 49 51
f 42 51 50
f 43 52 45
f 44 48 53
f 45 52 46
f 46 52 54
f 46 54 55
f 46 55 47
f 47 56 48
f 47 55 56
f 48 56 53
f 50 51 57
f 51 58 57
f 52 59 60
f 52 60 61
f 52 61 62
f 52 62 54
f 54 62 63
f 54 63 64
f 54 64 55
f 57 58 66
f 57 66 65
f 59 67 68
f 59 68 60
f 60 68 61
f 61 68 63
f 61 63 62
f 63 68 74
f 63 74 69
f 63 69 64
f 64 69 70
f 65 66 72
f 65 72 71
f 67 73 68
f 68 73 74
f 69 74 83
f 69 83 75
f 69 75 76
f 69 76 70
f 70 76 78
f 70 78 77
f 71 72 79
f 72 80 79
f 73 81 82
f 73 82 74
f 74 82 84
f 74 84 83
f 75 83 85
f 75 85 76
f 76 85 78
f 77 78 86
f 78 85 87
f 78 87 86
f 79 80 89
f 79 89 88
f 81 90 84
f 81 84 82
f 83 84 85
f 84 90 85
f 85 91 92
f 85 92 93
f 85 93 94
f 85 94 95
f 85 95 87
f 88 89 97
f 88 97 96
f 91 98 99
f 91 99 92
f 92 99 93
f 93 99 100
f 93 100 94
f 94 100 101
f 94 101 102
f 94 102 103
f 94 103 95
f 96 97 105
f 96 105 106
f 96 106 104
f 98 107 99
f 99 107 108
f 99 108 109
f 99 109 110
f 99 110 111
f 99 111 100
f 100 111 101
f 101 111 102
f 102 111 112
f 102 112 103
f 104 106 113
f 106 114 115
f 106 115 113
f 107 116 117
f 107 117 108
f 108 117 118
f 108 118 119
f 108 119 120
f 108 120 109
f 109 120 110
f 114 121 115
f 115 121 123
f 115 123 124
f 115 124 122
f 116 125 126
f 116 126 117
f 117 126 118
f 118 126 127
f 118 127 128
f 118 128 119
f 119 129 120
f 119 128 129
f 122 124 130
f 124 131 132
f 124 132 133
f 124 133 130
f 125 134 135
f 125 135 126
f 126 135 127
f 127 135 136
f 127 136 128
f 131 137 132
f 132 137 138
f 134 139 136
f 134 136 135
f 136 139 144
f 136 144 150
f 136 150 145
f 136 145 140
f 137 141 138
f 138 141 143
f 138 143 142
f 140 145 146
f 142 143 148
f 142 148 149
f 142 149 147
f 144 147 150
f 145 150 146
f 146 150 151
f 146 151 147
f 146 147 149
f 147 151 150

