# https://github.com/mikedh/trimesh
v -0.04364918 0.00030722 -0.00049500
v -0.04454810 0.00030722 -0.00046839
v -0.04364918 0.00697747 -0.00049500
v -0.01575060 0.00030722 -0.00049500
v -0.04490319 0.00030722 -0.00026648
v -0.04454810 0.00697747 -0.00046839
v -0.01485168 0.00697747 -0.00049500
v -0.01485168 0.00614957 -0.00049500
v -0.01395276 0.00697747 -0.00046213
v -0.01488367 0.00030722 -0.00009744
v -0.04519110 0.00697747 -0.00010214
v -0.04524548 0.00030722 -0.00007083
v -0.01308902 0.00697747 -0.00002857
v -0.01446780 0.00030722 0.00075089
v -0.04524548 0.00697747 -0.00007083
v -0.04549180 0.00030722 0.00075089
v -0.04547261 0.00697747 0.00068515
v -0.01281711 0.00697747 0.00075089
v -0.01447420 0.00030722 0.00165088
v -0.01281711 0.00697747 0.00075872
v -0.04549180 0.00697747 0.00075089
v -0.04549180 0.00030722 0.00884920
v -0.01449339 0.00030722 0.00255086
v -0.01282990 0.00697747 0.00165088
v -0.04549180 0.00697747 0.00884920
v -0.04548860 0.00030722 0.00930623
v -0.01452538 0.00030722 0.00299381
v -0.01285550 0.00697747 0.00258686
v -0.04548540 0.00697747 0.00967718
v -0.04548221 0.00030722 0.00974918
v -0.01456377 0.00030722 0.00345085
v -0.01286509 0.00697747 0.00271051
v -0.04548221 0.00697747 0.00974918
v -0.04544702 0.00030722 0.01020622
v -0.04541503 0.00165028 0.01064917
v -0.04541823 0.00697747 0.01064917
v -0.01466294 0.00030722 0.00389380
v -0.01293867 0.00697747 0.00344615
v -0.04541183 0.00030722 0.01064917
v -0.04531266 0.00030722 0.01110620
v -0.04523908 0.00697747 0.01147715
v -0.01476851 0.00030722 0.00435083
v -0.01295786 0.00697747 0.00352911
v -0.04522308 0.00697747 0.01154915
v -0.04521349 0.00030722 0.01154915
v -0.01511080 0.00030722 0.00516004
v -0.01317220 0.00697747 0.00433205
v -0.01319779 0.00697747 0.00442753
v -0.04512392 0.00030722 0.01182149
v -0.04505674 0.00697747 0.01205314
v -0.01535712 0.00030722 0.00560925
v -0.01341852 0.00697747 0.00493622
v -0.04504074 0.00524984 0.01209384
v -0.04503434 0.00030722 0.01208601
v -0.04503755 0.00165028 0.01208758
v -0.04504074 0.00697747 0.01209697
v -0.01556506 0.00030722 0.00587533
v -0.01363925 0.00697747 0.00530247
v -0.01364245 0.00697747 0.00530717
v -0.01414150 0.00697747 0.00599585
v -0.04482001 0.00030722 0.01253679
v -0.04482321 0.00434946 0.01254148
v -0.04482321 0.00697747 0.01254618
v -0.01578259 0.00030722 0.00615080
v -0.01416389 0.00697747 0.00602246
v -0.01597773 0.00030722 0.00638402
v -0.04459288 0.00030722 0.01290304
v -0.04441054 0.00697747 0.01320826
v -0.01455097 0.00697747 0.00643880
v -0.01617927 0.00030722 0.00662349
v -0.04436895 0.00030722 0.01325678
v -0.04437215 0.00165028 0.01325834
v -0.04437215 0.00434946 0.01326304
v -0.04437215 0.00524984 0.01326460
v -0.04437215 0.00697747 0.01326617
v -0.01459256 0.00697747 0.00648263
v -0.01640960 0.00030722 0.00680505
v -0.01500523 0.00697747 0.00682384
v -0.04418981 0.00030722 0.01348529
v -0.04402346 0.00614957 0.01371538
v -0.04405225 0.00697747 0.01367938
v -0.01665272 0.00030722 0.00699444
v -0.01566103 0.00697747 0.00727461
v -0.02783326 0.00030722 0.01474371
v -0.01723494 0.00030722 0.00742018
v -0.01693743 0.00030722 0.00720418
v -0.04401386 0.00030722 0.01370755
v -0.04402346 0.00697747 0.01371538
v -0.04378673 0.00030722 0.01391103
v -0.04356600 0.00030722 0.01410824
v -0.04357240 0.00524984 0.01411450
v -0.04357240 0.00697747 0.01411607
v -0.02696953 0.00697747 0.01471867
v -0.02808918 0.00030722 0.01485953
v -0.04297738 0.00030722 0.01455902
v -0.04298698 0.00614957 0.01456528
v -0.04298698 0.00697747 0.01456684
v -0.02737901 0.00697747 0.01490023
v -0.02835150 0.00030722 0.01497692
v -0.04252632 0.00030722 0.01482353
v -0.04252952 0.00165028 0.01482510
v -0.04253912 0.00697747 0.01482979
v -0.02835150 0.00697747 0.01524927
v -0.02879297 0.00030722 0.01512561
v -0.04184813 0.00030722 0.01512561
v -0.04184813 0.00345039 0.01513031
v -0.04184813 0.00614957 0.01513344
v -0.04190252 0.00697747 0.01510996
v -0.02842508 0.00697747 0.01526648
v -0.02924723 0.00030722 0.01527744
v -0.04139067 0.00030722 0.01524927
v -0.04094921 0.00030722 0.01536822
v -0.04094921 0.00165028 0.01536978
v -0.04184813 0.00697747 0.01513344
v -0.04094921 0.00524984 0.01537292
v -0.02924723 0.00697747 0.01542613
v -0.02969189 0.00030722 0.01535883
v -0.04049175 0.00030722 0.01541674
v -0.04004709 0.00030722 0.01546370
v -0.04094921 0.00697747 0.01537292
v -0.04004709 0.00255001 0.01546526
v -0.04004709 0.00614957 0.01546683
v -0.02932080 0.00697747 0.01543239
v -0.03014935 0.00030722 0.01544178
v -0.03914817 0.00030722 0.01549500
v -0.04004709 0.00697747 0.01546683
v -0.03014935 0.00697747 0.01548717
v -0.03104827 0.00030722 0.01549343
v -0.03914817 0.00697747 0.01549500
v -0.03194719 0.00030722 0.01549500
v -0.03021973 0.00697747 0.01548874
v -0.03104827 0.00165028 0.01549500
v -0.03104827 0.00697747 0.01549500
f 1 2 6
f 1 6 3
f 1 3 7
f 1 7 8
f 1 8 4
f 1 4 10
f 1 10 14
f 1 14 19
f 1 19 23
f 1 23 27
f 1 27 31
f 1 31 37
f 1 37 42
f 1 42 46
f 1 46 51
f 1 51 57
f 1 57 64
f 1 64 66
f 1 66 70
f 1 70 77
f 1 77 82
f 1 82 86
f 1 86 85
f 1 85 84
f 1 84 94
f 1 94 99
f 1 99 104
f 1 104 110
f 1 110 117
f 1 117 124
f 1 124 128
f 1 128 130
f 1 130 125
f 1 125 119
f 1 119 118
f 1 118 112
f 1 112 111
f 1 111 105
f 1 105 100
f 1 100 95
f 1 95 90
f 1 90 89
f 1 89 87
f 1 87 79
f 1 79 71
f 1 71 67
f 1 67 61
f 1 61 54
f 1 54 49
f 1 49 45
f 1 45 40
f 1 40 39
f 1 39 34
f 1 34 30
f 1 30 26
f 1 26 22
f 1 22 16
f 1 16 12
f 1 12 5
f 1 5 2
f 2 5 6
f 3 6 11
f 3 11 15
f 3 15 17
f 3 17 21
f 3 21 25
f 3 25 29
f 3 29 33
f 3 33 36
f 3 36 41
f 3 41 44
f 3 44 50
f 3 50 56
f 3 56 63
f 3 63 68
f 3 68 75
f 3 75 81
f 3 81 88
f 3 88 92
f 3 92 97
f 3 97 102
f 3 102 108
f 3 108 114
f 3 114 120
f 3 120 126
f 3 126 129
f 3 129 133
f 3 133 131
f 3 131 127
f 3 127 123
f 3 123 116
f 3 116 109
f 3 109 103
f 3 103 98
f 3 98 93
f 3 93 83
f 3 83 78
f 3 78 76
f 3 76 69
f 3 69 65
f 3 65 60
f 3 60 59
f 3 59 58
f 3 58 52
f 3 52 48
f 3 48 47
f 3 47 43
f 3 43 38
f 3 38 32
f 3 32 28
f 3 28 24
f 3 24 20
f 3 20 18
f 3 18 13
f 3 13 9
f 3 9 7
f 4 8 9
f 4 9 10
f 5 11 6
f 5 12 11
f 7 9 8
f 9 13 10
f 10 13 14
f 11 12 15
f 12 16 17
f 12 17 15
f 13 18 14
f 14 18 20
f 14 20 19
f 16 21 17
f 16 22 25
f 16 25 21
f 19 20 24
f 19 24 23
f 22 26 25
f 23 24 28
f 23 28 27
f 25 26 29
f 26 30 29
f 27 28 32
f 27 32 31
f 29 30 33
f 30 34 35
f 30 35 36
f 30 36 33
f 31 32 38
f 31 38 37
f 34 39 35
f 35 39 40
f 35 40 41
f 35 41 36
f 37 38 42
f 38 43 42
f 40 44 41
f 40 45 44
f 42 43 47
f 42 47 48
f 42 48 46
f 44 45 49
f 44 49 50
f 46 48 52
f 46 52 51
f 49 53 50
f 49 54 55
f 49 55 53
f 50 53 56
f 51 52 58
f 51 58 59
f 51 59 60
f 51 60 57
f 53 55 61
f 53 61 62
f 53 62 56
f 54 61 55
f 56 62 63
f 57 60 64
f 60 65 70
f 60 70 66
f 60 66 64
f 61 67 62
f 62 67 68
f 62 68 63
f 65 69 70
f 67 71 72
f 67 72 68
f 68 72 73
f 68 73 74
f 68 74 75
f 69 76 70
f 70 76 78
f 70 78 77
f 71 79 72
f 72 79 80
f 72 80 73
f 73 80 74
f 74 80 81
f 74 81 75
f 77 78 82
f 78 83 84
f 78 84 85
f 78 85 86
f 78 86 82
f 79 87 80
f 80 88 81
f 80 87 89
f 80 89 90
f 80 90 91
f 80 91 92
f 80 92 88
f 83 93 84
f 84 93 94
f 90 95 96
f 90 96 91
f 91 96 97
f 91 97 92
f 93 98 99
f 93 99 94
f 95 100 101
f 95 101 96
f 96 102 97
f 96 101 102
f 98 103 99
f 99 103 104
f 100 105 101
f 101 105 102
f 102 105 106
f 102 106 107
f 102 107 108
f 103 109 110
f 103 110 104
f 105 111 106
f 106 111 112
f 106 112 113
f 106 113 107
f 107 114 108
f 107 113 115
f 107 115 120
f 107 120 114
f 109 116 110
f 110 116 117
f 112 118 113
f 113 118 119
f 113 119 115
f 115 119 121
f 115 121 122
f 115 122 126
f 115 126 120
f 116 123 124
f 116 124 117
f 119 125 121
f 121 125 122
f 122 125 129
f 122 129 126
f 123 127 124
f 124 127 128
f 125 130 132
f 125 132 133
f 125 133 129
f 127 131 128
f 128 131 132
f 128 132 130
f 131 133 132

