# https://github.com/mikedh/trimesh
v 0.01395102 -0.00794354 -0.00049500
v 0.01305004 -0.00794354 -0.00042300
v 0.01395102 -0.00734993 -0.00049500
v 0.04364783 -0.00794354 -0.00049500
v 0.01395102 -0.00644942 -0.00047778
v 0.01250429 -0.00794354 -0.00016787
v 0.01489398 0.00030641 -0.00009744
v 0.01575298 0.00030641 -0.00049500
v 0.04364783 0.00030641 -0.00049500
v 0.04454881 -0.00794354 -0.00046839
v 0.01250429 -0.00794354 0.00490648
v 0.01250429 -0.00734993 0.00004186
v 0.01250429 -0.00712622 0.00017803
v 0.01468408 0.00030641 0.00033455
v 0.04454881 0.00030641 -0.00046839
v 0.04524634 -0.00794354 -0.00007083
v 0.01250429 -0.00782805 0.00477970
v 0.01253012 -0.00794354 0.00495500
v 0.01511035 0.00030641 0.00516004
v 0.01476804 0.00030641 0.00435083
v 0.01250429 -0.00698327 0.00075089
v 0.01448386 0.00030641 0.00075089
v 0.04524634 0.00030641 -0.00007083
v 0.04536906 0.00030641 0.00033299
v 0.04549500 -0.00794354 0.00075089
v 0.01250429 -0.00755265 0.00435083
v 0.01456459 0.00030641 0.00345085
v 0.01268190 -0.00794354 0.00520699
v 0.01535578 0.00030641 0.00560925
v 0.01250429 -0.00698650 0.00143332
v 0.01448386 0.00030641 0.00165088
v 0.04549500 0.00030641 0.00075089
v 0.04549500 -0.00794354 0.00884920
v 0.01250429 -0.00717144 0.00345085
v 0.01449678 0.00030641 0.00255086
v 0.01282076 -0.00794354 0.00540890
v 0.01557214 0.00030641 0.00588472
v 0.01291441 -0.00794354 0.00553568
v 0.01250429 -0.00698892 0.00165088
v 0.01449032 0.00030641 0.00210791
v 0.01250429 -0.00700830 0.00257904
v 0.04549500 0.00030641 0.00884920
v 0.04548531 -0.00794354 0.00974918
v 0.01250429 -0.00710603 0.00311433
v 0.01578205 0.00030641 0.00615080
v 0.01325349 -0.00794354 0.00595985
v 0.04548208 0.00030641 0.00974918
v 0.04548531 -0.00375032 0.00974918
v 0.04541750 -0.00794354 0.01064917
v 0.01598226 0.00030641 0.00639184
v 0.01341496 -0.00794354 0.00613672
v 0.01617925 0.00030641 0.00662349
v 0.04544979 0.00030641 0.01019213
v 0.04541750 -0.00464921 0.01064917
v 0.04529156 -0.00794354 0.01124237
v 0.01369913 -0.00794354 0.00641219
v 0.01665073 0.00030641 0.00699444
v 0.01379279 -0.00794354 0.00649984
v 0.01410603 -0.00794354 0.00676123
v 0.04541427 0.00030641 0.01064917
v 0.04522374 -0.00734993 0.01154915
v 0.04522374 -0.00794354 0.01154915
v 0.01723524 0.00030641 0.00742018
v 0.01425135 -0.00794354 0.00686453
v 0.04521405 0.00030641 0.01154915
v 0.04522051 -0.00464921 0.01154915
v 0.04504289 -0.00734993 0.01209853
v 0.04510425 -0.00794354 0.01191228
v 0.02783063 0.00030641 0.01474371
v 0.01501670 -0.00794354 0.00735757
v 0.04512686 0.00030641 0.01181367
v 0.04482330 -0.00794354 0.01254931
v 0.04504289 -0.00794354 0.01209853
v 0.04503644 0.00030641 0.01208601
v 0.04492987 0.00030641 0.01230827
v 0.04482007 0.00030641 0.01253679
v 0.04482330 -0.00375032 0.01254148
v 0.02647109 -0.00794354 0.01465762
v 0.02676819 -0.00794354 0.01482040
v 0.02809543 0.00030641 0.01486266
v 0.04437443 -0.00794354 0.01326617
v 0.04437443 -0.00644942 0.01326617
v 0.04437120 0.00030641 0.01325678
v 0.02697163 -0.00794354 0.01490962
v 0.02835055 0.00030641 0.01497692
v 0.04402243 -0.00794354 0.01371694
v 0.04402243 -0.00464921 0.01371381
v 0.04402243 -0.00554972 0.01371538
v 0.04419682 0.00030641 0.01347903
v 0.02745280 -0.00794354 0.01510840
v 0.02924830 0.00030641 0.01527744
v 0.04357356 -0.00794354 0.01411763
v 0.04357356 -0.00734993 0.01411763
v 0.04401597 0.00030641 0.01370755
v 0.04356710 -0.00105041 0.01410981
v 0.04357356 -0.00554972 0.01411450
v 0.04357356 -0.00644942 0.01411607
v 0.02775959 -0.00794354 0.01519761
v 0.02835055 -0.00794354 0.01534787
v 0.03014928 0.00030641 0.01544178
v 0.04299228 -0.00794354 0.01456841
v 0.04356387 0.00030641 0.01410824
v 0.04327646 0.00030641 0.01433050
v 0.02865734 -0.00794354 0.01539483
v 0.03060462 0.00030641 0.01546839
v 0.02924830 -0.00794354 0.01545744
v 0.04297613 0.00030641 0.01455902
v 0.04275654 0.00030641 0.01468893
v 0.04252726 0.00030641 0.01482353
v 0.04269518 -0.00794354 0.01474214
v 0.03104703 0.00030641 0.01549343
v 0.02955509 -0.00794354 0.01547309
v 0.04254018 -0.00794354 0.01483136
v 0.04219464 0.00030641 0.01497223
v 0.03014928 -0.00734993 0.01549343
v 0.03104703 -0.00105041 0.01549500
v 0.03194801 0.00030641 0.01549500
v 0.03014928 -0.00794354 0.01549343
v 0.04208484 -0.00794354 0.01503170
v 0.04184910 0.00030641 0.01512561
v 0.04184910 -0.00285062 0.01513031
v 0.04184910 -0.00554972 0.01513344
v 0.04184910 -0.00734993 0.01513501
v 0.03045607 -0.00794354 0.01549500
v 0.03914939 0.00030641 0.01549500
v 0.04184910 -0.00794354 0.01513501
v 0.04094812 0.00030641 0.01536822
v 0.04094812 -0.00105041 0.01536978
v 0.04094812 -0.00464921 0.01537292
v 0.04094812 -0.00734993 0.01537448
v 0.04125491 -0.00794354 0.01529309
v 0.03914939 -0.00794354 0.01549500
v 0.03945618 -0.00794354 0.01548561
v 0.04004714 -0.00554972 0.01546683
v 0.04004714 -0.00195011 0.01546526
v 0.03960473 0.00030641 0.01547935
v 0.04050570 0.00030641 0.01541518
v 0.04004714 0.00030641 0.01546370
v 0.04094812 -0.00794354 0.01537448
v 0.04035393 -0.00794354 0.01543552
v 0.04004714 -0.00794354 0.01546683
f 1 2 3
f 1 3 8
f 1 8 9
f 1 9 4
f 1 4 10
f 1 10 16
f 1 16 25
f 1 25 33
f 1 33 43
f 1 43 49
f 1 49 55
f 1 55 62
f 1 62 68
f 1 68 73
f 1 73 72
f 1 72 81
f 1 81 86
f 1 86 92
f 1 92 101
f 1 101 110
f 1 110 113
f 1 113 119
f 1 119 126
f 1 126 131
f 1 131 139
f 1 139 140
f 1 140 141
f 1 141 133
f 1 133 132
f 1 132 124
f 1 124 118
f 1 118 112
f 1 112 106
f 1 106 104
f 1 104 99
f 1 99 98
f 1 98 90
f 1 90 84
f 1 84 79
f 1 79 78
f 1 78 70
f 1 70 64
f 1 64 59
f 1 59 58
f 1 58 56
f 1 56 51
f 1 51 46
f 1 46 38
f 1 38 36
f 1 36 28
f 1 28 18
f 1 18 11
f 1 11 6
f 1 6 2
f 2 5 3
f 2 6 7
f 2 7 8
f 2 8 5
f 3 5 8
f 4 9 15
f 4 15 10
f 6 11 17
f 6 17 26
f 6 26 34
f 6 34 44
f 6 44 41
f 6 41 39
f 6 39 30
f 6 30 21
f 6 21 13
f 6 13 12
f 6 12 7
f 7 12 13
f 7 13 14
f 7 14 22
f 7 22 31
f 7 31 40
f 7 40 35
f 7 35 27
f 7 27 20
f 7 20 19
f 7 19 29
f 7 29 37
f 7 37 45
f 7 45 50
f 7 50 52
f 7 52 57
f 7 57 63
f 7 63 69
f 7 69 80
f 7 80 85
f 7 85 91
f 7 91 100
f 7 100 105
f 7 105 111
f 7 111 117
f 7 117 125
f 7 125 136
f 7 136 138
f 7 138 137
f 7 137 127
f 7 127 120
f 7 120 114
f 7 114 109
f 7 109 108
f 7 108 107
f 7 107 103
f 7 103 102
f 7 102 94
f 7 94 89
f 7 89 83
f 7 83 76
f 7 76 75
f 7 75 74
f 7 74 71
f 7 71 65
f 7 65 60
f 7 60 53
f 7 53 47
f 7 47 42
f 7 42 32
f 7 32 24
f 7 24 23
f 7 23 15
f 7 15 9
f 7 9 8
f 10 15 23
f 10 23 16
f 11 18 19
f 11 19 20
f 11 20 17
f 13 21 22
f 13 22 14
f 16 23 24
f 16 24 25
f 17 20 27
f 17 27 26
f 18 28 29
f 18 29 19
f 21 30 31
f 21 31 22
f 24 32 25
f 25 32 42
f 25 42 33
f 26 27 34
f 27 35 34
f 28 36 29
f 29 36 38
f 29 38 37
f 30 39 31
f 31 39 41
f 31 41 40
f 33 42 48
f 33 48 43
f 34 35 44
f 35 40 41
f 35 41 44
f 37 38 45
f 38 46 45
f 42 47 48
f 43 48 54
f 43 54 49
f 45 46 50
f 46 51 52
f 46 52 50
f 47 53 48
f 48 53 54
f 49 54 55
f 51 56 52
f 52 56 58
f 52 58 59
f 52 59 57
f 53 60 54
f 54 60 55
f 55 61 62
f 55 60 61
f 57 59 63
f 59 64 63
f 60 65 66
f 60 66 61
f 61 66 67
f 61 67 68
f 61 68 62
f 63 64 69
f 64 70 69
f 65 71 66
f 66 71 67
f 67 72 73
f 67 73 68
f 67 71 74
f 67 74 75
f 67 75 76
f 67 76 77
f 67 77 72
f 69 78 79
f 69 79 80
f 69 70 78
f 72 77 82
f 72 82 81
f 76 83 77
f 77 83 82
f 79 84 85
f 79 85 80
f 81 82 86
f 82 83 87
f 82 87 88
f 82 88 86
f 83 89 87
f 84 90 85
f 85 90 91
f 86 88 93
f 86 93 92
f 87 94 95
f 87 95 96
f 87 96 97
f 87 97 93
f 87 93 88
f 87 89 94
f 90 98 91
f 91 99 100
f 91 98 99
f 92 93 101
f 93 97 101
f 94 102 95
f 95 102 103
f 95 103 101
f 95 101 96
f 96 101 97
f 99 104 100
f 100 104 106
f 100 106 105
f 101 103 107
f 101 107 108
f 101 108 109
f 101 109 110
f 105 106 111
f 106 112 111
f 109 113 110
f 109 114 113
f 111 112 115
f 111 115 116
f 111 116 117
f 112 118 115
f 113 114 120
f 113 120 121
f 113 121 122
f 113 122 123
f 113 123 119
f 115 118 124
f 115 124 116
f 116 124 132
f 116 132 125
f 116 125 117
f 119 123 126
f 120 127 121
f 121 127 122
f 122 127 128
f 122 128 129
f 122 129 123
f 123 129 130
f 123 130 131
f 123 131 126
f 125 132 133
f 125 133 134
f 125 134 135
f 125 135 136
f 127 137 128
f 128 137 138
f 128 138 129
f 129 138 135
f 129 135 130
f 130 139 131
f 130 135 134
f 130 134 140
f 130 140 139
f 133 141 134
f 134 141 140
f 135 138 136

