# https://github.com/mikedh/trimesh
v 0.01304135 0.03944930 0.01549500
v 0.01304135 0.04034986 0.01546839
v 0.00690035 0.03944930 0.01549500
v 0.01304135 0.02955094 0.01549500
v 0.01304135 0.04123998 0.01537605
v 0.00690035 0.04034986 0.01546839
v 0.00690035 0.03135206 0.01549500
v 0.01124985 0.02955094 0.01549500
v 0.01304135 0.02864254 0.01549343
v 0.01304135 0.04124781 0.01537448
v 0.00690035 0.04124781 0.01537448
v 0.00690035 0.03045150 0.01549030
v 0.00765002 0.03045150 0.01549343
v 0.00855058 0.03045150 0.01549500
v 0.01214981 0.02865037 0.01548561
v 0.01304135 0.02775242 0.01545900
v 0.01304135 0.04214837 0.01514440
v 0.00690035 0.04214837 0.01514440
v 0.00690035 0.02955094 0.01543239
v 0.01214981 0.02775242 0.01542770
v 0.01304135 0.02685186 0.01535726
v 0.01304135 0.04284533 0.01484232
v 0.00690035 0.04285055 0.01483919
v 0.00690035 0.02865037 0.01526022
v 0.01304135 0.02595130 0.01514440
v 0.00690035 0.04292625 0.01479536
v 0.01304135 0.04329692 0.01457467
v 0.00690035 0.02768716 0.01492527
v 0.01304135 0.02594608 0.01514283
v 0.00690035 0.04329953 0.01457154
v 0.01304135 0.04387641 0.01412233
v 0.00690035 0.04339611 0.01449797
v 0.00690035 0.02732433 0.01476562
v 0.01304135 0.02508206 0.01482040
v 0.00690035 0.04387641 0.01412233
v 0.01304135 0.04432017 0.01372164
v 0.01214981 0.04432539 0.01371694
v 0.00690035 0.02717815 0.01468267
v 0.00694965 0.02724341 0.01473588
v 0.01304135 0.02496459 0.01475779
v 0.00690035 0.04432539 0.01371694
v 0.01304135 0.04467517 0.01326773
v 0.00690035 0.04438281 0.01364338
v 0.00690035 0.02686230 0.01446980
v 0.01304135 0.02357068 0.01389224
v 0.01304135 0.02415017 0.01427728
v 0.01304135 0.02422326 0.01432580
v 0.01304135 0.02439293 0.01443380
v 0.00690035 0.04475087 0.01314878
v 0.00690035 0.04467517 0.01326773
v 0.01304135 0.04512676 0.01255714
v 0.00690035 0.01913051 0.00900258
v 0.01304135 0.01913051 0.01086047
v 0.00690035 0.04512676 0.01255714
v 0.01304135 0.04534603 0.01210636
v 0.00690035 0.01913051 -0.00049500
v 0.01304135 0.01913051 -0.00049500
v 0.00690035 0.04534603 0.01210636
v 0.00690035 0.04537735 0.01201401
v 0.01304135 0.04553397 0.01154915
v 0.00690035 0.04394950 -0.00049500
v 0.01304135 0.04394950 -0.00049500
v 0.00690035 0.04553397 0.01154915
v 0.01304135 0.04572452 0.01064917
v 0.00690035 0.04469866 -0.00047309
v 0.01304135 0.04484745 -0.00046839
v 0.00690035 0.04572452 0.01064917
v 0.01304135 0.04578456 0.00975857
v 0.00690035 0.04573496 0.01049891
v 0.00690035 0.04484745 -0.00046839
v 0.01304135 0.04554702 -0.00007083
v 0.00690035 0.04578456 0.00974918
v 0.01304135 0.04579500 0.00884920
v 0.00690035 0.04579500 0.00884920
v 0.00690035 0.04554702 -0.00007083
v 0.01304135 0.04554963 -0.00006301
v 0.01304135 0.04579500 0.00075089
v 0.00690035 0.04579500 0.00075089
f 1 2 6
f 1 6 3
f 1 3 7
f 1 7 14
f 1 14 8
f 1 8 4
f 1 4 9
f 1 9 16
f 1 16 21
f 1 21 25
f 1 25 29
f 1 29 34
f 1 34 40
f 1 40 48
f 1 48 47
f 1 47 46
f 1 46 45
f 1 45 53
f 1 53 57
f 1 57 62
f 1 62 66
f 1 66 71
f 1 71 76
f 1 76 77
f 1 77 73
f 1 73 68
f 1 68 64
f 1 64 60
f 1 60 55
f 1 55 51
f 1 51 42
f 1 42 36
f 1 36 31
f 1 31 27
f 1 27 22
f 1 22 17
f 1 17 10
f 1 10 5
f 1 5 2
f 2 5 6
f 3 6 11
f 3 11 18
f 3 18 23
f 3 23 26
f 3 26 30
f 3 30 32
f 3 32 35
f 3 35 41
f 3 41 43
f 3 43 50
f 3 50 49
f 3 49 54
f 3 54 58
f 3 58 59
f 3 59 63
f 3 63 67
f 3 67 69
f 3 69 72
f 3 72 74
f 3 74 78
f 3 78 75
f 3 75 70
f 3 70 65
f 3 65 61
f 3 61 56
f 3 56 52
f 3 52 44
f 3 44 38
f 3 38 33
f 3 33 28
f 3 28 24
f 3 24 19
f 3 19 12
f 3 12 7
f 4 8 9
f 5 10 11
f 5 11 6
f 7 12 13
f 7 13 14
f 8 14 9
f 9 15 16
f 9 14 13
f 9 13 12
f 9 12 15
f 10 17 18
f 10 18 11
f 12 19 16
f 12 16 15
f 16 19 20
f 16 20 21
f 17 22 18
f 18 22 23
f 19 24 21
f 19 21 20
f 21 24 25
f 22 26 23
f 22 27 26
f 24 28 29
f 24 29 25
f 26 27 30
f 27 31 32
f 27 32 30
f 28 33 34
f 28 34 29
f 31 35 32
f 31 36 37
f 31 37 41
f 31 41 35
f 33 38 39
f 33 39 34
f 34 39 40
f 36 42 37
f 37 42 43
f 37 43 41
f 38 44 45
f 38 45 46
f 38 46 47
f 38 47 48
f 38 48 39
f 39 48 40
f 42 49 50
f 42 50 43
f 42 51 49
f 44 52 53
f 44 53 45
f 49 51 54
f 51 55 58
f 51 58 54
f 52 56 57
f 52 57 53
f 55 59 58
f 55 60 59
f 56 61 62
f 56 62 57
f 59 60 63
f 60 64 67
f 60 67 63
f 61 65 62
f 62 65 66
f 64 68 69
f 64 69 67
f 65 70 66
f 66 70 75
f 66 75 71
f 68 72 69
f 68 73 74
f 68 74 72
f 71 75 76
f 73 77 78
f 73 78 74
f 75 78 76
f 76 78 77

