# https://github.com/mikedh/trimesh
v 0.01250386 -0.02859776 0.01549500
v 0.01250386 -0.02805008 0.01548874
v 0.01124965 -0.02895245 0.01549500
v 0.01250386 -0.03884976 0.01549500
v 0.01250386 -0.02769801 0.01547622
v 0.01214971 -0.02805008 0.01548561
v 0.01034959 -0.02895245 0.01549187
v 0.00855031 -0.02985220 0.01549500
v 0.00815056 -0.03884976 0.01549500
v 0.01250386 -0.03974952 0.01546839
v 0.00815056 -0.02895245 0.01545744
v 0.00815056 -0.02935147 0.01547778
v 0.01250386 -0.02715033 0.01544022
v 0.00815056 -0.02985220 0.01549343
v 0.00815056 -0.03025123 0.01549500
v 0.00815056 -0.03974952 0.01546839
v 0.01250386 -0.04064928 0.01537448
v 0.00815056 -0.02845171 0.01540422
v 0.01214971 -0.02715033 0.01542770
v 0.01250386 -0.02679825 0.01540109
v 0.00815056 -0.04064928 0.01537448
v 0.00815056 -0.04104830 0.01527274
v 0.01250386 -0.04119435 0.01523518
v 0.00855031 -0.02805008 0.01536822
v 0.00815056 -0.02805008 0.01534161
v 0.01250386 -0.02625057 0.01530561
v 0.01250386 -0.04154903 0.01514440
v 0.00815056 -0.04154903 0.01514440
v 0.01250386 -0.02589589 0.01522109
v 0.00815056 -0.02755196 0.01521640
v 0.01250386 -0.04197414 0.01495970
v 0.00815056 -0.04225058 0.01483919
v 0.01250386 -0.02535082 0.01505049
v 0.00815056 -0.02715033 0.01509901
v 0.01250386 -0.04225058 0.01483919
v 0.00815056 -0.04245140 0.01472023
v 0.01250386 -0.04252442 0.01467797
v 0.01250386 -0.02502482 0.01492997
v 0.01250386 -0.02466752 0.01478284
v 0.00815056 -0.02674609 0.01492997
v 0.00815056 -0.04270177 0.01457154
v 0.01250386 -0.04270177 0.01457154
v 0.01250386 -0.02447714 0.01468267
v 0.00815056 -0.02648007 0.01481571
v 0.00815056 -0.04327552 0.01412233
v 0.01250386 -0.04327552 0.01412233
v 0.01250386 -0.02425024 0.01454336
v 0.00815056 -0.02622971 0.01467954
v 0.00815056 -0.04372409 0.01371694
v 0.01250386 -0.04372409 0.01371694
v 0.01250386 -0.02408072 0.01443850
v 0.00815056 -0.02602889 0.01455275
v 0.00815056 -0.04388057 0.01351816
v 0.01250386 -0.04393795 0.01344460
v 0.01250386 -0.02335570 0.01395955
v 0.00815056 -0.02562726 0.01427259
v 0.01250386 -0.01855440 0.01066638
v 0.00815056 -0.04407617 0.01326773
v 0.01250386 -0.04407617 0.01326773
v 0.00815056 -0.01855440 0.00929058
v 0.01250386 -0.01855440 -0.00049500
v 0.00815056 -0.04427699 0.01295156
v 0.01250386 -0.04435001 0.01283730
v 0.00815056 -0.01855440 -0.00049500
v 0.01250386 -0.04334854 -0.00049500
v 0.00815056 -0.04452736 0.01255714
v 0.01250386 -0.04452736 0.01255714
v 0.00815056 -0.04334854 -0.00049500
v 0.01250386 -0.04424830 -0.00046839
v 0.01250386 -0.04466036 0.01228479
v 0.00815056 -0.04474643 0.01210636
v 0.00815056 -0.04424830 -0.00046839
v 0.01250386 -0.04494724 -0.00007083
v 0.01250386 -0.04474643 0.01210636
v 0.00815056 -0.04482988 0.01185906
v 0.01250386 -0.04486118 0.01176828
v 0.00815056 -0.04494724 -0.00007083
v 0.01250386 -0.04519500 0.00075089
v 0.00815056 -0.04493420 0.01154915
v 0.01250386 -0.04493420 0.01154915
v 0.00815056 -0.04519500 0.00075089
v 0.01250386 -0.04519500 0.00884920
v 0.00815056 -0.04512458 0.01064917
v 0.01250386 -0.04512458 0.01064917
v 0.00815056 -0.04519500 0.00884920
v 0.01250386 -0.04518457 0.00974918
v 0.00815056 -0.04518457 0.00974918
v 0.01250386 -0.04516110 0.01010291
f 1 2 3
f 1 3 8
f 1 8 15
f 1 15 9
f 1 9 4
f 1 4 10
f 1 10 17
f 1 17 23
f 1 23 27
f 1 27 31
f 1 31 35
f 1 35 37
f 1 37 42
f 1 42 46
f 1 46 50
f 1 50 54
f 1 54 59
f 1 59 63
f 1 63 67
f 1 67 70
f 1 70 74
f 1 74 76
f 1 76 80
f 1 80 84
f 1 84 88
f 1 88 86
f 1 86 82
f 1 82 78
f 1 78 73
f 1 73 69
f 1 69 65
f 1 65 61
f 1 61 57
f 1 57 55
f 1 55 51
f 1 51 47
f 1 47 43
f 1 43 39
f 1 39 38
f 1 38 33
f 1 33 29
f 1 29 26
f 1 26 20
f 1 20 13
f 1 13 5
f 1 5 2
f 2 5 6
f 2 6 7
f 2 7 3
f 3 7 8
f 4 9 16
f 4 16 10
f 5 11 12
f 5 12 6
f 5 13 11
f 6 12 14
f 6 14 7
f 7 14 8
f 8 14 15
f 9 15 14
f 9 14 12
f 9 12 11
f 9 11 18
f 9 18 25
f 9 25 30
f 9 30 34
f 9 34 40
f 9 40 44
f 9 44 48
f 9 48 52
f 9 52 56
f 9 56 60
f 9 60 64
f 9 64 68
f 9 68 72
f 9 72 77
f 9 77 81
f 9 81 85
f 9 85 87
f 9 87 83
f 9 83 79
f 9 79 75
f 9 75 71
f 9 71 66
f 9 66 62
f 9 62 58
f 9 58 53
f 9 53 49
f 9 49 45
f 9 45 41
f 9 41 36
f 9 36 32
f 9 32 28
f 9 28 22
f 9 22 21
f 9 21 16
f 10 16 21
f 10 21 17
f 11 13 19
f 11 19 18
f 13 20 19
f 17 21 22
f 17 22 23
f 18 24 25
f 18 19 20
f 18 20 24
f 20 26 24
f 22 27 23
f 22 28 27
f 24 26 25
f 25 26 29
f 25 29 30
f 27 28 31
f 28 32 31
f 29 33 34
f 29 34 30
f 31 32 35
f 32 36 37
f 32 37 35
f 33 38 34
f 34 38 39
f 34 39 40
f 36 41 37
f 37 41 42
f 39 43 44
f 39 44 40
f 41 45 46
f 41 46 42
f 43 47 48
f 43 48 44
f 45 49 50
f 45 50 46
f 47 51 48
f 48 51 52
f 49 53 50
f 50 53 54
f 51 55 52
f 52 55 57
f 52 57 56
f 53 58 59
f 53 59 54
f 56 57 60
f 57 61 64
f 57 64 60
f 58 62 63
f 58 63 59
f 61 65 68
f 61 68 64
f 62 66 63
f 63 66 67
f 65 69 72
f 65 72 68
f 66 70 67
f 66 71 70
f 69 73 77
f 69 77 72
f 70 71 74
f 71 75 76
f 71 76 74
f 73 78 81
f 73 81 77
f 75 79 76
f 76 79 80
f 78 82 85
f 78 85 81
f 79 83 84
f 79 84 80
f 82 86 87
f 82 87 85
f 83 87 88
f 83 88 84
f 86 88 87

