# https://github.com/mikedh/trimesh
v -0.04364919 0.00697747 -0.00049500
v -0.04454751 0.00697747 -0.00046839
v -0.04364919 0.01334067 -0.00049500
v -0.01485048 0.00697747 -0.00049500
v -0.04454751 0.01334067 -0.00046839
v -0.04524584 0.00697747 -0.00007083
v -0.01200143 0.01334067 -0.00049500
v -0.01395216 0.00795048 -0.00049500
v -0.01395216 0.00705035 -0.00047465
v -0.01395216 0.00697747 -0.00046213
v -0.04524584 0.01334067 -0.00007083
v -0.04549172 0.00697747 0.00075089
v -0.04549172 0.01334067 0.00074307
v -0.01200143 0.01334067 0.00770817
v -0.01200143 0.01154976 -0.00049500
v -0.01215224 0.01064963 -0.00049500
v -0.01215224 0.00975012 -0.00045274
v -0.01200143 0.00975448 -0.00039170
v -0.01305056 0.00795048 -0.00033848
v -0.01308663 0.00697747 -0.00002857
v -0.04549172 0.00697747 0.00884920
v -0.04549172 0.01334067 0.00884920
v -0.02441399 0.01334067 0.01463101
v -0.02697125 0.00697747 0.01471867
v -0.01200143 0.01286600 0.00750939
v -0.01200143 0.01064963 -0.00048248
v -0.01200143 0.00890854 -0.00008492
v -0.01257190 0.00744840 0.00022812
v -0.01281451 0.00697747 0.00075089
v -0.04548517 0.00697747 0.00974918
v -0.04548517 0.01334067 0.00974918
v -0.02478446 0.01334067 0.01481727
v -0.02737779 0.00697747 0.01490023
v -0.01566028 0.00697747 0.00727461
v -0.01200143 0.01259378 0.00738731
v -0.01200143 0.00838030 0.00075089
v -0.01281451 0.00697747 0.00075872
v -0.04542288 0.00697747 0.01057717
v -0.04541959 0.00975012 0.01064917
v -0.04541959 0.01334067 0.01064917
v -0.02483692 0.01334067 0.01483919
v -0.02565327 0.01334067 0.01514909
v -0.02835151 0.00697747 0.01524927
v -0.01506359 0.00697747 0.00686453
v -0.01200143 0.01251280 0.00734974
v -0.01200143 0.00839401 0.00165088
v -0.01283090 0.00697747 0.00168375
v -0.04541632 0.00697747 0.01064917
v -0.04523272 0.01334067 0.01153976
v -0.02565983 0.01334067 0.01515066
v -0.02842364 0.00697747 0.01526648
v -0.01500457 0.00697747 0.00682384
v -0.01200143 0.01164880 0.00690523
v -0.01200143 0.00842453 0.00256182
v -0.01285713 0.00697747 0.00258686
v -0.04522289 0.00697747 0.01154915
v -0.04522944 0.01244989 0.01154915
v -0.04504912 0.01334067 0.01210166
v -0.02655159 0.01334067 0.01536039
v -0.02924983 0.00697747 0.01542613
v -0.01459148 0.00697747 0.00648263
v -0.01200143 0.01110125 0.00659062
v -0.01200143 0.00854102 0.00345085
v -0.01286696 0.00697747 0.00271051
v -0.04505568 0.00697747 0.01205314
v -0.04504256 0.00705035 0.01209697
v -0.04482618 0.01064963 0.01255244
v -0.04482618 0.01334067 0.01255714
v -0.02656143 0.01334067 0.01536196
v -0.02924983 0.00705035 0.01542926
v -0.02932196 0.00697747 0.01543239
v -0.01454886 0.00697747 0.00643880
v -0.01200143 0.01072189 0.00630576
v -0.01416527 0.00697747 0.00602246
v -0.01414232 0.00697747 0.00599585
v -0.01200143 0.00889795 0.00433362
v -0.01295549 0.00697747 0.00352911
v -0.01293909 0.00697747 0.00344615
v -0.04503929 0.00697747 0.01209697
v -0.04482290 0.00697747 0.01254618
v -0.04437374 0.00697747 0.01326617
v -0.04437702 0.01244989 0.01326773
v -0.04437702 0.01334067 0.01326773
v -0.02745319 0.01334067 0.01546057
v -0.03014815 0.00697747 0.01548717
v -0.01200143 0.01062782 0.00623376
v -0.01363414 0.00697747 0.00529464
v -0.01200143 0.01003791 0.00576264
v -0.01200143 0.00890294 0.00434144
v -0.01319810 0.00697747 0.00442753
v -0.01317187 0.00697747 0.00433205
v -0.04405245 0.00697747 0.01367938
v -0.04402294 0.00885061 0.01371694
v -0.04402294 0.01334067 0.01371694
v -0.02836135 0.01334067 0.01549500
v -0.02835151 0.01244989 0.01548561
v -0.03014815 0.00705035 0.01548874
v -0.03022028 0.00697747 0.01548874
v -0.01342104 0.00697747 0.00493622
v -0.01200143 0.00960373 0.00529621
v -0.01200143 0.00923060 0.00481726
v -0.04402294 0.00697747 0.01371538
v -0.04357378 0.01064963 0.01412076
v -0.04357378 0.01334067 0.01412076
v -0.03914775 0.01334067 0.01549500
v -0.03014815 0.00885061 0.01549500
v -0.03014815 0.00795048 0.01549343
v -0.03104975 0.00697747 0.01549500
v -0.04357378 0.00697747 0.01411607
v -0.04357378 0.00885061 0.01411920
v -0.04299675 0.01244989 0.01457154
v -0.04300331 0.01334067 0.01456684
v -0.04004934 0.01334067 0.01546839
v -0.03914775 0.00697747 0.01549500
v -0.04303610 0.00697747 0.01452928
v -0.04299348 0.00975012 0.01456997
v -0.04299675 0.01334067 0.01457154
v -0.04254759 0.01334067 0.01483605
v -0.04004934 0.00975012 0.01546839
v -0.04094767 0.01334067 0.01537448
v -0.04004934 0.00697747 0.01546683
v -0.04298692 0.00697747 0.01456684
v -0.04254432 0.00975012 0.01483292
v -0.04190500 0.00697747 0.01510996
v -0.04184927 0.01334067 0.01513970
v -0.04094767 0.00795048 0.01537448
v -0.04095750 0.01334067 0.01537292
v -0.04094767 0.00697747 0.01537292
v -0.04253776 0.00697747 0.01482979
v -0.04184927 0.00697747 0.01513344
v -0.04184927 0.00795048 0.01513501
v -0.04101979 0.00697747 0.01535413
f 1 2 5
f 1 5 3
f 1 3 7
f 1 7 15
f 1 15 16
f 1 16 8
f 1 8 4
f 1 4 10
f 1 10 20
f 1 20 29
f 1 29 37
f 1 37 47
f 1 47 55
f 1 55 64
f 1 64 78
f 1 78 77
f 1 77 91
f 1 91 90
f 1 90 99
f 1 99 87
f 1 87 75
f 1 75 74
f 1 74 72
f 1 72 61
f 1 61 52
f 1 52 44
f 1 44 34
f 1 34 24
f 1 24 33
f 1 33 43
f 1 43 51
f 1 51 60
f 1 60 71
f 1 71 85
f 1 85 98
f 1 98 108
f 1 108 114
f 1 114 121
f 1 121 128
f 1 128 132
f 1 132 130
f 1 130 124
f 1 124 129
f 1 129 122
f 1 122 115
f 1 115 109
f 1 109 102
f 1 102 92
f 1 92 81
f 1 81 80
f 1 80 79
f 1 79 65
f 1 65 56
f 1 56 48
f 1 48 38
f 1 38 30
f 1 30 21
f 1 21 12
f 1 12 6
f 1 6 2
f 2 6 11
f 2 11 5
f 3 5 11
f 3 11 13
f 3 13 22
f 3 22 31
f 3 31 40
f 3 40 49
f 3 49 58
f 3 58 68
f 3 68 83
f 3 83 94
f 3 94 104
f 3 104 112
f 3 112 117
f 3 117 118
f 3 118 125
f 3 125 127
f 3 127 120
f 3 120 113
f 3 113 105
f 3 105 95
f 3 95 84
f 3 84 69
f 3 69 59
f 3 59 50
f 3 50 42
f 3 42 41
f 3 41 32
f 3 32 23
f 3 23 14
f 3 14 7
f 4 8 9
f 4 9 10
f 6 12 13
f 6 13 11
f 7 14 25
f 7 25 35
f 7 35 45
f 7 45 53
f 7 53 62
f 7 62 73
f 7 73 86
f 7 86 88
f 7 88 100
f 7 100 101
f 7 101 89
f 7 89 76
f 7 76 63
f 7 63 54
f 7 54 46
f 7 46 36
f 7 36 27
f 7 27 18
f 7 18 26
f 7 26 15
f 8 16 9
f 9 16 17
f 9 17 10
f 10 17 18
f 10 18 19
f 10 19 20
f 12 21 22
f 12 22 13
f 14 23 24
f 14 24 25
f 15 26 16
f 16 26 17
f 17 26 18
f 18 27 20
f 18 20 19
f 20 28 29
f 20 27 28
f 21 30 31
f 21 31 22
f 23 32 24
f 24 32 33
f 24 34 35
f 24 35 25
f 27 36 28
f 28 36 29
f 29 36 37
f 30 38 39
f 30 39 40
f 30 40 31
f 32 41 33
f 33 41 42
f 33 42 43
f 34 44 45
f 34 45 35
f 36 46 37
f 37 46 47
f 38 48 39
f 39 48 49
f 39 49 40
f 42 50 51
f 42 51 43
f 44 52 45
f 45 52 53
f 46 54 47
f 47 54 55
f 48 56 49
f 49 56 57
f 49 57 58
f 50 59 51
f 51 59 60
f 52 61 53
f 53 61 62
f 54 63 55
f 55 63 64
f 56 65 66
f 56 66 58
f 56 58 57
f 58 66 67
f 58 67 68
f 59 69 60
f 60 70 71
f 60 69 70
f 61 72 62
f 62 72 74
f 62 74 75
f 62 75 73
f 63 76 77
f 63 77 78
f 63 78 64
f 65 79 66
f 66 79 80
f 66 80 67
f 67 80 81
f 67 81 68
f 68 81 82
f 68 82 83
f 69 84 70
f 70 84 71
f 71 84 85
f 73 75 86
f 75 87 88
f 75 88 86
f 76 89 90
f 76 90 91
f 76 91 77
f 81 92 82
f 82 92 93
f 82 93 94
f 82 94 83
f 84 95 96
f 84 96 97
f 84 97 85
f 85 97 98
f 87 99 88
f 88 99 100
f 89 101 90
f 90 101 99
f 92 102 93
f 93 102 103
f 93 103 104
f 93 104 94
f 95 105 114
f 95 114 108
f 95 108 106
f 95 106 107
f 95 107 97
f 95 97 96
f 97 107 108
f 97 108 98
f 99 101 100
f 102 109 110
f 102 110 103
f 103 110 111
f 103 111 112
f 103 112 104
f 105 113 119
f 105 119 114
f 106 108 107
f 109 115 116
f 109 116 110
f 110 116 111
f 111 117 112
f 111 116 118
f 111 118 117
f 113 120 126
f 113 126 119
f 114 119 121
f 115 122 116
f 116 122 129
f 116 129 123
f 116 123 118
f 118 123 124
f 118 124 125
f 119 126 121
f 120 127 126
f 121 126 128
f 123 129 124
f 124 130 131
f 124 131 125
f 125 131 126
f 125 126 127
f 126 131 132
f 126 132 128
f 130 132 131

