# https://github.com/mikedh/trimesh
v 0.00000730 0.03944939 0.01549500
v 0.00000730 0.04034720 0.01546839
v -0.00681942 0.03944939 0.01549500
v 0.00000730 0.03134983 0.01549500
v -0.00681942 0.04117768 0.01538231
v -0.00681942 0.04034720 0.01546839
v 0.00000730 0.04124822 0.01537448
v -0.00681942 0.03134983 0.01549500
v -0.00674992 0.03044881 0.01548874
v -0.00681942 0.03037827 0.01548561
v 0.00000730 0.03044881 0.01544335
v -0.00681942 0.04124822 0.01537448
v 0.00000730 0.04214924 0.01514440
v -0.00681942 0.03044881 0.01548874
v -0.00681942 0.02954779 0.01543083
v -0.00681942 0.02948046 0.01541987
v 0.00000730 0.02954779 0.01528213
v -0.00681942 0.04214924 0.01514440
v 0.00000730 0.04285146 0.01483919
v -0.00681942 0.02865319 0.01525553
v -0.00681942 0.02858264 0.01523518
v 0.00000730 0.02865319 0.01498475
v -0.00681942 0.04285146 0.01483919
v 0.00000730 0.04330036 0.01457154
v -0.00681942 0.04326509 0.01459345
v -0.00681942 0.02768163 0.01491275
v -0.00681942 0.02745717 0.01481414
v -0.00681942 0.02725837 0.01472649
v 0.00000730 0.02812733 0.01474840
v 0.00000730 0.04387432 0.01412233
v -0.00681942 0.04330036 0.01457154
v -0.00681942 0.01587218 0.00725740
v -0.00681942 0.01527257 0.00684418
v 0.00000730 0.01753313 0.00742018
v -0.00681942 0.04387432 0.01412233
v 0.00000730 0.04432644 0.01371694
v -0.00681942 0.01520844 0.00679879
v 0.00000730 0.01695276 0.00699444
v -0.00681942 0.04432644 0.01371694
v 0.00000730 0.04467594 0.01326773
v -0.00681942 0.04465029 0.01330217
v -0.00681942 0.01482366 0.00648106
v 0.00000730 0.01647820 0.00662349
v -0.00681942 0.04467594 0.01326773
v 0.00000730 0.04512485 0.01255714
v -0.00681942 0.04509278 0.01261192
v -0.00681942 0.01478518 0.00644193
v 0.00000730 0.01628261 0.00639184
v -0.00681942 0.01440682 0.00603028
v -0.00681942 0.01434910 0.00596455
v 0.00000730 0.04523708 0.01232862
v -0.00681942 0.04533006 0.01214236
v -0.00681942 0.04512485 0.01255714
v 0.00000730 0.01608060 0.00615080
v -0.00681942 0.01391944 0.00538543
v 0.00000730 0.01565414 0.00560925
v 0.00000730 0.04534610 0.01210636
v -0.00681942 0.04534610 0.01210636
v -0.00681942 0.01385851 0.00529308
v -0.00681942 0.01368536 0.00499726
v 0.00000730 0.01541045 0.00516004
v 0.00000730 0.04544229 0.01182306
v -0.00681942 0.04551924 0.01159298
v -0.00681942 0.01341602 0.00441344
v 0.00000730 0.01506735 0.00435083
v 0.00000730 0.04553207 0.01154915
v -0.00681942 0.04553207 0.01154915
v -0.00681942 0.01316912 0.00345085
v 0.00000730 0.01486535 0.00345085
v 0.00000730 0.04563147 0.01109212
v -0.00681942 0.04572446 0.01064917
v -0.00681942 0.01315950 0.00336789
v 0.00000730 0.01482687 0.00300790
v -0.00681942 0.01308575 0.00258843
v 0.00000730 0.04572446 0.01064917
v -0.00681942 0.04577897 0.00981805
v 0.00000730 0.01479160 0.00255086
v -0.00681942 0.01308255 0.00251173
v 0.00000730 0.04578218 0.00974918
v -0.00681942 0.04578218 0.00974918
v 0.00000730 0.01477556 0.00210791
v -0.00681942 0.01305689 0.00179801
v 0.00000730 0.04579500 0.00884920
v -0.00681942 0.04579500 0.00884920
v 0.00000730 0.01476274 0.00165088
v -0.00681942 0.01305369 0.00165088
v 0.00000730 0.04579500 0.00075089
v -0.00681942 0.04579500 0.00075089
v 0.00000730 0.01475633 0.00120793
v -0.00681942 0.01303766 0.00075089
v 0.00000730 0.04554490 -0.00007083
v -0.00681942 0.04554490 -0.00007083
v 0.00000730 0.01474991 0.00075089
v -0.00681942 0.01333586 -0.00003014
v 0.00000730 0.04519219 -0.00027274
v -0.00681942 0.04484909 -0.00046839
v 0.00000730 0.01517317 -0.00009744
v -0.00681942 0.01333906 -0.00003640
v 0.00000730 0.04484909 -0.00046839
v -0.00681942 0.04394807 -0.00049500
v -0.00674992 0.01425291 -0.00047935
v 0.00000730 0.01605174 -0.00049500
v -0.00681942 0.01425291 -0.00047935
v 0.00000730 0.04394807 -0.00049500
v -0.00681942 0.01515072 -0.00049500
v -0.00584980 0.01515072 -0.00049500
f 1 2 6
f 1 6 3
f 1 3 8
f 1 8 4
f 1 4 11
f 1 11 17
f 1 17 22
f 1 22 29
f 1 29 34
f 1 34 38
f 1 38 43
f 1 43 48
f 1 48 54
f 1 54 56
f 1 56 61
f 1 61 65
f 1 65 69
f 1 69 73
f 1 73 77
f 1 77 81
f 1 81 85
f 1 85 89
f 1 89 93
f 1 93 97
f 1 97 102
f 1 102 104
f 1 104 99
f 1 99 95
f 1 95 91
f 1 91 87
f 1 87 83
f 1 83 79
f 1 79 75
f 1 75 70
f 1 70 66
f 1 66 62
f 1 62 57
f 1 57 51
f 1 51 45
f 1 45 40
f 1 40 36
f 1 36 30
f 1 30 24
f 1 24 19
f 1 19 13
f 1 13 7
f 1 7 2
f 2 5 6
f 2 7 5
f 3 6 5
f 3 5 12
f 3 12 18
f 3 18 23
f 3 23 25
f 3 25 31
f 3 31 35
f 3 35 39
f 3 39 41
f 3 41 44
f 3 44 46
f 3 46 53
f 3 53 52
f 3 52 58
f 3 58 63
f 3 63 67
f 3 67 71
f 3 71 76
f 3 76 80
f 3 80 84
f 3 84 88
f 3 88 92
f 3 92 96
f 3 96 100
f 3 100 105
f 3 105 103
f 3 103 98
f 3 98 94
f 3 94 90
f 3 90 86
f 3 86 82
f 3 82 78
f 3 78 74
f 3 74 72
f 3 72 68
f 3 68 64
f 3 64 60
f 3 60 59
f 3 59 55
f 3 55 50
f 3 50 49
f 3 49 47
f 3 47 42
f 3 42 37
f 3 37 33
f 3 33 32
f 3 32 28
f 3 28 27
f 3 27 26
f 3 26 21
f 3 21 20
f 3 20 16
f 3 16 15
f 3 15 10
f 3 10 14
f 3 14 8
f 4 8 14
f 4 14 9
f 4 9 10
f 4 10 11
f 5 7 12
f 7 13 18
f 7 18 12
f 9 14 10
f 10 15 11
f 11 15 16
f 11 16 17
f 13 19 23
f 13 23 18
f 16 20 17
f 17 20 21
f 17 21 22
f 19 24 25
f 19 25 23
f 21 26 22
f 22 26 27
f 22 27 28
f 22 28 29
f 24 30 35
f 24 35 31
f 24 31 25
f 28 32 29
f 29 32 33
f 29 33 34
f 30 36 39
f 30 39 35
f 33 37 34
f 34 37 38
f 36 40 41
f 36 41 39
f 37 42 43
f 37 43 38
f 40 44 41
f 40 45 46
f 40 46 44
f 42 47 43
f 43 47 49
f 43 49 50
f 43 50 48
f 45 51 52
f 45 52 53
f 45 53 46
f 48 50 54
f 50 55 56
f 50 56 54
f 51 57 52
f 52 57 58
f 55 59 56
f 56 59 60
f 56 60 61
f 57 62 58
f 58 62 63
f 60 64 61
f 61 64 65
f 62 66 63
f 63 66 67
f 64 68 65
f 65 68 69
f 66 70 67
f 67 70 71
f 68 72 69
f 69 72 74
f 69 74 73
f 70 75 71
f 71 75 76
f 73 74 77
f 74 78 77
f 75 79 76
f 76 79 80
f 77 78 81
f 78 82 81
f 79 83 84
f 79 84 80
f 81 82 85
f 82 86 85
f 83 87 88
f 83 88 84
f 85 86 90
f 85 90 89
f 87 91 92
f 87 92 88
f 89 90 93
f 90 94 93
f 91 95 92
f 92 95 96
f 93 94 97
f 94 98 97
f 95 99 96
f 96 99 104
f 96 104 100
f 97 98 101
f 97 101 102
f 98 103 101
f 100 104 102
f 100 102 106
f 100 106 105
f 101 103 105
f 101 105 106
f 101 106 102

