# https://github.com/mikedh/trimesh
v 0.01485285 0.00614984 -0.00049500
v 0.01485285 0.00657304 -0.00049500
v 0.01575259 0.00030722 -0.00049500
v 0.01443000 0.00657304 -0.00048717
v 0.04364783 0.00657304 -0.00049500
v 0.01489418 0.00030722 -0.00009744
v 0.01395310 0.00657304 -0.00041048
v 0.04364783 0.00030722 -0.00049500
v 0.04412472 0.00657304 -0.00048091
v 0.01468434 0.00030722 0.00033455
v 0.01321869 0.00657304 0.00001838
v 0.01355887 0.00657304 -0.00020701
v 0.04454757 0.00030722 -0.00046839
v 0.04454757 0.00657304 -0.00046839
v 0.01448405 0.00030722 0.00075089
v 0.01308833 0.00657304 0.00038933
v 0.04491955 0.00657304 -0.00025709
v 0.04524702 0.00030722 -0.00007083
v 0.01448405 0.00030722 0.00165088
v 0.01301521 0.00657304 0.00075089
v 0.04524702 0.00657304 -0.00007083
v 0.04549500 0.00030722 0.00075089
v 0.01449041 0.00030722 0.00210791
v 0.01302157 0.00657304 0.00118602
v 0.01449677 0.00030722 0.00255086
v 0.04549500 0.00657304 0.00075089
v 0.04549500 0.00030722 0.00884920
v 0.01303111 0.00657304 0.00165088
v 0.01456353 0.00030722 0.00345085
v 0.01305336 0.00657304 0.00256025
v 0.01304064 0.00657304 0.00204844
v 0.04549500 0.00657304 0.00884920
v 0.04548864 0.00657304 0.00932658
v 0.04548228 0.00030722 0.00974918
v 0.01476701 0.00030722 0.00435083
v 0.01312966 0.00657304 0.00342111
v 0.04548228 0.00657304 0.00974918
v 0.04544731 0.00657304 0.01022656
v 0.04541552 0.00255019 0.01064917
v 0.04541234 0.00030722 0.01064917
v 0.01511037 0.00030722 0.00516004
v 0.01351754 0.00657304 0.00475152
v 0.01333314 0.00657304 0.00426318
v 0.04541552 0.00657304 0.01064917
v 0.04531378 0.00657304 0.01112655
v 0.04522158 0.00614984 0.01154915
v 0.04521522 0.00165042 0.01154915
v 0.04531378 0.00030722 0.01109212
v 0.01523437 0.00030722 0.00538856
v 0.01382911 0.00657304 0.00531499
v 0.01535518 0.00030722 0.00560925
v 0.04522158 0.00657304 0.01154915
v 0.04512620 0.00657304 0.01183871
v 0.04504036 0.00524947 0.01209384
v 0.04512620 0.00030722 0.01181367
v 0.04521204 0.00030722 0.01154915
v 0.01423606 0.00657304 0.00589411
v 0.01557137 0.00030722 0.00588472
v 0.04504036 0.00657304 0.01209540
v 0.04504036 0.00614984 0.01209540
v 0.04492591 0.00657304 0.01233488
v 0.04482417 0.00657304 0.01254618
v 0.04482099 0.00030722 0.01253679
v 0.04503718 0.00165042 0.01208758
v 0.04503400 0.00030722 0.01208601
v 0.01578121 0.00030722 0.00615080
v 0.01598150 0.00030722 0.00639184
v 0.01617862 0.00030722 0.00662349
v 0.01460486 0.00657304 0.00630576
v 0.04458572 0.00657304 0.01292809
v 0.04492909 0.00030722 0.01230827
v 0.04437271 0.00344995 0.01326147
v 0.04436953 0.00030722 0.01325678
v 0.01641707 0.00030722 0.00681132
v 0.01509130 0.00657304 0.00676436
v 0.04437271 0.00657304 0.01326617
v 0.04437271 0.00524947 0.01326460
v 0.04418831 0.00657304 0.01350408
v 0.04402298 0.00614984 0.01371538
v 0.04419467 0.00030722 0.01347903
v 0.01665234 0.00030722 0.00699444
v 0.01575577 0.00657304 0.00722766
v 0.01723415 0.00030722 0.00742018
v 0.04402298 0.00657304 0.01371538
v 0.04357152 0.00657304 0.01411607
v 0.04357152 0.00524947 0.01411450
v 0.04356834 0.00255019 0.01411137
v 0.04379407 0.00030722 0.01390477
v 0.04401980 0.00344995 0.01371068
v 0.04401345 0.00030722 0.01370755
v 0.02783078 0.00030722 0.01474371
v 0.02702641 0.00657304 0.01468580
v 0.04326313 0.00657304 0.01435398
v 0.04298653 0.00524947 0.01456371
v 0.04327585 0.00030722 0.01433050
v 0.04356516 0.00030722 0.01410824
v 0.02809466 0.00030722 0.01486266
v 0.02745244 0.00657304 0.01488614
v 0.04298653 0.00657304 0.01456528
v 0.04298653 0.00614984 0.01456528
v 0.04253825 0.00657304 0.01482979
v 0.04297699 0.00030722 0.01455902
v 0.02835218 0.00030722 0.01497692
v 0.02835218 0.00657304 0.01522422
v 0.04274808 0.00657304 0.01470614
v 0.04217263 0.00657304 0.01499101
v 0.04184834 0.00344995 0.01513031
v 0.04184834 0.00030722 0.01512561
v 0.04252871 0.00165042 0.01482510
v 0.04252553 0.00030722 0.01482353
v 0.02881000 0.00030722 0.01513031
v 0.02925193 0.00030722 0.01527744
v 0.02925193 0.00657304 0.01541518
v 0.04184834 0.00657304 0.01513344
v 0.04184834 0.00614984 0.01513344
v 0.04094859 0.00165042 0.01536978
v 0.04094859 0.00030722 0.01536822
v 0.03014849 0.00030722 0.01544178
v 0.03014849 0.00657304 0.01548248
v 0.04094859 0.00657304 0.01537292
v 0.04094859 0.00524947 0.01537292
v 0.04004885 0.00030722 0.01546370
v 0.04050667 0.00030722 0.01541518
v 0.03060631 0.00030722 0.01546839
v 0.03104823 0.00030722 0.01549343
v 0.03104823 0.00165042 0.01549500
v 0.03104823 0.00657304 0.01549500
v 0.04047170 0.00657304 0.01542300
v 0.04004885 0.00614984 0.01546683
v 0.04004885 0.00255019 0.01546526
v 0.03960693 0.00030722 0.01547935
v 0.03194798 0.00030722 0.01549500
v 0.03914911 0.00657304 0.01549500
v 0.04004885 0.00657304 0.01546683
v 0.03914911 0.00030722 0.01549500
f 1 2 5
f 1 5 8
f 1 8 3
f 1 3 4
f 1 4 2
f 2 4 7
f 2 7 12
f 2 12 11
f 2 11 16
f 2 16 20
f 2 20 24
f 2 24 28
f 2 28 31
f 2 31 30
f 2 30 36
f 2 36 43
f 2 43 42
f 2 42 50
f 2 50 57
f 2 57 69
f 2 69 75
f 2 75 82
f 2 82 92
f 2 92 98
f 2 98 104
f 2 104 113
f 2 113 119
f 2 119 127
f 2 127 133
f 2 133 134
f 2 134 128
f 2 128 120
f 2 120 114
f 2 114 106
f 2 106 101
f 2 101 105
f 2 105 99
f 2 99 93
f 2 93 85
f 2 85 84
f 2 84 78
f 2 78 76
f 2 76 70
f 2 70 62
f 2 62 61
f 2 61 59
f 2 59 53
f 2 53 52
f 2 52 45
f 2 45 44
f 2 44 38
f 2 38 37
f 2 37 33
f 2 33 32
f 2 32 26
f 2 26 21
f 2 21 17
f 2 17 14
f 2 14 9
f 2 9 5
f 3 6 7
f 3 7 4
f 3 8 13
f 3 13 18
f 3 18 22
f 3 22 27
f 3 27 34
f 3 34 40
f 3 40 48
f 3 48 56
f 3 56 55
f 3 55 65
f 3 65 71
f 3 71 63
f 3 63 73
f 3 73 80
f 3 80 90
f 3 90 88
f 3 88 96
f 3 96 95
f 3 95 102
f 3 102 110
f 3 110 108
f 3 108 117
f 3 117 123
f 3 123 122
f 3 122 131
f 3 131 135
f 3 135 132
f 3 132 125
f 3 125 124
f 3 124 118
f 3 118 112
f 3 112 111
f 3 111 103
f 3 103 97
f 3 97 91
f 3 91 83
f 3 83 81
f 3 81 74
f 3 74 68
f 3 68 67
f 3 67 66
f 3 66 58
f 3 58 51
f 3 51 49
f 3 49 41
f 3 41 35
f 3 35 29
f 3 29 25
f 3 25 23
f 3 23 19
f 3 19 15
f 3 15 10
f 3 10 6
f 5 9 8
f 6 10 11
f 6 11 12
f 6 12 7
f 8 9 13
f 9 14 13
f 10 15 11
f 11 15 16
f 13 14 17
f 13 17 18
f 15 19 20
f 15 20 16
f 17 21 18
f 18 21 26
f 18 26 22
f 19 23 20
f 20 23 25
f 20 25 24
f 22 26 32
f 22 32 27
f 24 25 28
f 25 29 30
f 25 30 31
f 25 31 28
f 27 33 34
f 27 32 33
f 29 35 36
f 29 36 30
f 33 37 34
f 34 37 38
f 34 38 39
f 34 39 40
f 35 41 42
f 35 42 43
f 35 43 36
f 38 44 39
f 39 45 46
f 39 46 47
f 39 47 40
f 39 44 45
f 40 47 48
f 41 49 42
f 42 49 51
f 42 51 50
f 45 52 46
f 46 53 54
f 46 54 55
f 46 55 47
f 46 52 53
f 47 55 56
f 47 56 48
f 50 51 57
f 51 58 57
f 53 59 60
f 53 60 54
f 54 60 61
f 54 61 62
f 54 62 63
f 54 63 64
f 54 64 55
f 55 64 65
f 57 58 66
f 57 66 67
f 57 67 68
f 57 68 69
f 59 61 60
f 62 70 63
f 63 71 64
f 63 70 72
f 63 72 73
f 64 71 65
f 68 74 75
f 68 75 69
f 70 76 77
f 70 77 72
f 72 77 78
f 72 78 79
f 72 79 73
f 73 79 80
f 74 81 75
f 75 81 83
f 75 83 82
f 76 78 77
f 78 84 79
f 79 85 86
f 79 86 87
f 79 87 88
f 79 88 89
f 79 89 80
f 79 84 85
f 80 89 90
f 82 83 91
f 82 91 92
f 85 93 86
f 86 93 94
f 86 94 87
f 87 94 95
f 87 95 96
f 87 96 88
f 88 90 89
f 91 97 98
f 91 98 92
f 93 99 100
f 93 100 94
f 94 100 101
f 94 101 102
f 94 102 95
f 97 103 98
f 98 103 104
f 99 105 100
f 100 105 101
f 101 106 107
f 101 107 108
f 101 108 109
f 101 109 102
f 102 109 110
f 103 111 104
f 104 111 112
f 104 112 113
f 106 114 115
f 106 115 107
f 107 115 116
f 107 116 117
f 107 117 108
f 108 110 109
f 112 118 113
f 113 118 119
f 114 120 121
f 114 121 115
f 115 121 116
f 116 122 123
f 116 123 117
f 116 121 122
f 118 124 119
f 119 124 125
f 119 125 126
f 119 126 127
f 120 128 121
f 121 128 129
f 121 129 130
f 121 130 122
f 122 130 131
f 125 132 126
f 126 132 135
f 126 135 133
f 126 133 127
f 128 134 129
f 129 135 130
f 129 134 133
f 129 133 135
f 130 135 131

