# https://github.com/mikedh/trimesh
v -0.04364842 -0.01698901 -0.00049500
v -0.04454839 -0.01698901 -0.00046839
v -0.04364842 -0.01315658 -0.00049500
v -0.01746696 -0.01698901 -0.00049500
v -0.04524531 -0.01698901 -0.00007083
v -0.04454839 -0.01315658 -0.00046839
v -0.01746696 -0.01315658 -0.00049500
v -0.01746696 -0.01698901 0.01211732
v -0.04538250 -0.01315658 0.00037994
v -0.04524531 -0.01315658 -0.00007083
v -0.04549500 -0.01698901 0.00075089
v -0.01746696 -0.01315658 0.01026726
v -0.02041655 -0.01698901 0.01394390
v -0.02312195 -0.01315658 0.01395485
v -0.02384906 -0.01315658 0.01441971
v -0.04549500 -0.01315658 0.00075089
v -0.04549500 -0.01698901 0.00884920
v -0.02114915 -0.01698901 0.01437119
v -0.02426338 -0.01315658 0.01467171
v -0.04549500 -0.01315658 0.00884920
v -0.04548403 -0.01698901 0.00974918
v -0.04548951 -0.01315658 0.00934223
v -0.02157444 -0.01698901 0.01461223
v -0.02429630 -0.01318885 0.01470301
v -0.02433746 -0.01315658 0.01471397
v -0.04542366 -0.01698901 0.01064917
v -0.04548403 -0.01315658 0.00974918
v -0.02169791 -0.01691660 0.01465136
v -0.02177474 -0.01698901 0.01470614
v -0.02475178 -0.01315658 0.01489240
v -0.04542366 -0.01634971 0.01064917
v -0.04536879 -0.01698901 0.01091055
v -0.04542092 -0.01315658 0.01064917
v -0.02211497 -0.01698901 0.01485171
v -0.02565175 -0.01315658 0.01520544
v -0.04523160 -0.01315658 0.01154915
v -0.04523160 -0.01698901 0.01154915
v -0.02292989 -0.01698901 0.01511622
v -0.02655172 -0.01315658 0.01539013
v -0.02565175 -0.01365031 0.01527118
v -0.02385181 -0.01698901 0.01532752
v -0.02385181 -0.01634971 0.01524144
v -0.04513008 -0.01315658 0.01185436
v -0.04517946 -0.01698901 0.01171037
v -0.04504776 -0.01365031 0.01210636
v -0.02655172 -0.01365031 0.01542457
v -0.02475178 -0.01634971 0.01540265
v -0.02745169 -0.01315658 0.01547152
v -0.02475178 -0.01698901 0.01544022
v -0.04504502 -0.01315658 0.01210636
v -0.04504776 -0.01698901 0.01210636
v -0.04492703 -0.01315658 0.01235366
v -0.02835166 -0.01315658 0.01549500
v -0.02745169 -0.01365031 0.01548404
v -0.02565175 -0.01634971 0.01547309
v -0.02565175 -0.01698901 0.01548561
v -0.04482551 -0.01698901 0.01255714
v -0.04482551 -0.01315658 0.01255714
v -0.02745169 -0.01455036 0.01549500
v -0.03914856 -0.01315658 0.01549500
v -0.02655172 -0.01634971 0.01549500
v -0.02655172 -0.01698901 0.01549500
v -0.04469655 -0.01698901 0.01276218
v -0.04437553 -0.01315658 0.01326773
v -0.04004853 -0.01315658 0.01546839
v -0.03914856 -0.01698901 0.01549500
v -0.04437553 -0.01698901 0.01326773
v -0.04418346 -0.01315658 0.01351503
v -0.04045462 -0.01315658 0.01542613
v -0.04004853 -0.01698901 0.01546839
v -0.04427401 -0.01698901 0.01339764
v -0.04402432 -0.01698901 0.01371694
v -0.04402432 -0.01315658 0.01371694
v -0.04094850 -0.01315658 0.01537448
v -0.04094850 -0.01698901 0.01537448
v -0.04389536 -0.01698901 0.01383433
v -0.04377737 -0.01315658 0.01393920
v -0.04184847 -0.01315658 0.01513970
v -0.04184847 -0.01455036 0.01514127
v -0.04184847 -0.01634971 0.01514283
v -0.04158781 -0.01698901 0.01521014
v -0.04357433 -0.01698901 0.01412233
v -0.04357433 -0.01455036 0.01412233
v -0.04357433 -0.01315658 0.01412076
v -0.04254815 -0.01315658 0.01483605
v -0.04255089 -0.01698901 0.01483919
v -0.04184847 -0.01698901 0.01514283
v -0.04300087 -0.01698901 0.01457154
v -0.04325880 -0.01315658 0.01436806
v -0.04299813 -0.01315658 0.01457154
f 1 2 6
f 1 6 3
f 1 3 7
f 1 7 4
f 1 4 8
f 1 8 13
f 1 13 18
f 1 18 23
f 1 23 29
f 1 29 34
f 1 34 38
f 1 38 41
f 1 41 49
f 1 49 56
f 1 56 62
f 1 62 66
f 1 66 70
f 1 70 75
f 1 75 81
f 1 81 87
f 1 87 86
f 1 86 88
f 1 88 82
f 1 82 76
f 1 76 72
f 1 72 71
f 1 71 67
f 1 67 63
f 1 63 57
f 1 57 51
f 1 51 44
f 1 44 37
f 1 37 32
f 1 32 26
f 1 26 21
f 1 21 17
f 1 17 11
f 1 11 5
f 1 5 2
f 2 5 10
f 2 10 6
f 3 6 10
f 3 10 9
f 3 9 16
f 3 16 20
f 3 20 22
f 3 22 27
f 3 27 33
f 3 33 36
f 3 36 43
f 3 43 50
f 3 50 52
f 3 52 58
f 3 58 64
f 3 64 68
f 3 68 73
f 3 73 77
f 3 77 84
f 3 84 89
f 3 89 90
f 3 90 85
f 3 85 78
f 3 78 74
f 3 74 69
f 3 69 65
f 3 65 60
f 3 60 53
f 3 53 48
f 3 48 39
f 3 39 35
f 3 35 30
f 3 30 25
f 3 25 19
f 3 19 15
f 3 15 14
f 3 14 12
f 3 12 7
f 4 7 12
f 4 12 8
f 5 9 10
f 5 11 9
f 8 12 14
f 8 14 15
f 8 15 13
f 9 11 16
f 11 17 20
f 11 20 16
f 13 15 19
f 13 19 18
f 17 21 22
f 17 22 20
f 18 19 24
f 18 24 23
f 19 25 24
f 21 26 31
f 21 31 27
f 21 27 22
f 23 28 29
f 23 24 25
f 23 25 28
f 25 30 29
f 25 29 28
f 26 32 31
f 27 31 33
f 29 30 34
f 30 35 34
f 31 32 36
f 31 36 33
f 32 37 36
f 34 35 38
f 35 39 40
f 35 40 41
f 35 41 42
f 35 42 38
f 36 37 44
f 36 44 45
f 36 45 43
f 38 42 41
f 39 46 47
f 39 47 41
f 39 41 40
f 39 48 46
f 41 47 49
f 43 45 50
f 44 51 45
f 45 52 50
f 45 51 52
f 46 49 47
f 46 48 49
f 48 53 54
f 48 54 55
f 48 55 49
f 49 55 56
f 51 57 52
f 52 57 58
f 53 59 54
f 53 60 66
f 53 66 62
f 53 62 61
f 53 61 59
f 54 59 56
f 54 56 55
f 56 61 62
f 56 59 61
f 57 63 58
f 58 63 64
f 60 65 70
f 60 70 66
f 63 67 64
f 64 67 68
f 65 69 70
f 67 71 68
f 68 71 72
f 68 72 73
f 69 74 75
f 69 75 70
f 72 76 73
f 73 76 77
f 74 78 79
f 74 79 80
f 74 80 81
f 74 81 75
f 76 82 83
f 76 83 77
f 77 83 84
f 78 85 86
f 78 86 79
f 79 86 80
f 80 87 81
f 80 86 87
f 82 88 83
f 83 88 89
f 83 89 84
f 85 90 86
f 86 90 88
f 88 90 89

