# https://github.com/mikedh/trimesh
v -0.01200143 0.04579500 0.00884920
v -0.01200143 0.04578547 0.00960049
v -0.01200143 0.04579500 0.00075089
v -0.02025024 0.04579500 0.00884920
v -0.01200143 0.04578229 0.00974918
v -0.02025024 0.04578229 0.00974918
v -0.01200143 0.04554721 -0.00007083
v -0.02025024 0.04579500 0.00075089
v -0.02115184 0.04576323 0.00884920
v -0.02115184 0.04575370 0.00974918
v -0.01200143 0.04573464 0.01050047
v -0.02025024 0.04572511 0.01064917
v -0.01200143 0.04484833 -0.00046839
v -0.02025024 0.04554721 -0.00007083
v -0.02115184 0.04552815 -0.00006301
v -0.02115184 0.04575688 0.00075089
v -0.02205016 0.04569652 0.00884920
v -0.02205016 0.04568699 0.00974918
v -0.02115184 0.04569652 0.01064917
v -0.01200143 0.04572511 0.01064917
v -0.02025024 0.04553451 0.01154915
v -0.01200143 0.04556627 0.01140046
v -0.01200143 0.04394931 -0.00049500
v -0.02025024 0.04484833 -0.00046839
v -0.02115184 0.04484833 -0.00046057
v -0.02205016 0.04484833 -0.00043865
v -0.02205016 0.04549003 -0.00004109
v -0.02205016 0.04567746 0.00075089
v -0.02295176 0.04555357 0.00435083
v -0.02295176 0.04555675 0.00705079
v -0.02295176 0.04555675 0.00884920
v -0.02295176 0.04554721 0.00974918
v -0.02205016 0.04562663 0.01064917
v -0.02115184 0.04550592 0.01154915
v -0.02115184 0.04533119 0.01207506
v -0.02025024 0.04534708 0.01210636
v -0.01200143 0.04553451 0.01154915
v -0.01200143 0.01334447 -0.00049500
v -0.02295176 0.04394931 -0.00049500
v -0.02385008 0.04394931 -0.00049187
v -0.02295176 0.04484833 -0.00035257
v -0.02475167 0.04394931 -0.00046526
v -0.02295176 0.04542014 0.00004499
v -0.02295176 0.04554086 0.00075089
v -0.02366320 0.04537885 0.00255086
v -0.02367631 0.04537885 0.00435083
v -0.02368615 0.04537885 0.00705079
v -0.02368943 0.04537567 0.00884920
v -0.02366648 0.04536932 0.00974918
v -0.02355173 0.04533755 0.01064917
v -0.02295176 0.04548368 0.01064917
v -0.02204032 0.04541697 0.01161019
v -0.02295176 0.04536614 0.01130968
v -0.02173542 0.04531213 0.01202810
v -0.02115184 0.04510882 0.01252427
v -0.02025024 0.04512471 0.01255714
v -0.01200143 0.04516283 0.01248201
v -0.01200143 0.04534708 0.01210636
v -0.01200143 0.01334447 0.00770817
v -0.04364919 0.01334447 -0.00049500
v -0.02655159 0.04214809 -0.00049500
v -0.02565327 0.04304711 -0.00049343
v -0.02475167 0.04469902 -0.00006770
v -0.02745319 0.04214809 -0.00045900
v -0.02655159 0.04304711 -0.00041987
v -0.02572212 0.04402873 -0.00015379
v -0.02356484 0.04534708 0.00017803
v -0.02364681 0.04537249 0.00075089
v -0.02365664 0.04537567 0.00165088
v -0.02411236 0.04524225 0.00255086
v -0.02413203 0.04524860 0.00525082
v -0.02413859 0.04525178 0.00705079
v -0.02413859 0.04525178 0.00884920
v -0.02411892 0.04524860 0.00974918
v -0.02343370 0.04530896 0.01112811
v -0.02400089 0.04521365 0.01064917
v -0.02233539 0.04528037 0.01195141
v -0.02295176 0.04522001 0.01176045
v -0.02204032 0.04510247 0.01237557
v -0.02205016 0.04461643 0.01319417
v -0.02115184 0.04466090 0.01324895
v -0.02025024 0.04467678 0.01326773
v -0.01200143 0.04512471 0.01255714
v -0.01200143 0.01334765 0.00771130
v -0.02441399 0.01334447 0.01463101
v -0.04454751 0.01334447 -0.00046839
v -0.04364919 0.02325276 -0.00049500
v -0.02745319 0.04124907 -0.00049500
v -0.02835151 0.04124907 -0.00046370
v -0.02546640 0.04454018 0.00007160
v -0.02835807 0.04215762 -0.00012405
v -0.02655159 0.04377776 -0.00002231
v -0.02743024 0.04304711 -0.00008962
v -0.02475167 0.04500081 0.00075089
v -0.02409925 0.04523589 0.00075089
v -0.02475167 0.04501034 0.00255086
v -0.02475167 0.04502305 0.00615080
v -0.02475167 0.04502623 0.00794921
v -0.02475167 0.04502623 0.00884920
v -0.02475167 0.04501670 0.00974918
v -0.02475167 0.04494363 0.01064917
v -0.02378123 0.04509294 0.01147715
v -0.02295176 0.04490551 0.01244914
v -0.02386319 0.04462913 0.01249453
v -0.02295176 0.04453383 0.01308617
v -0.02205016 0.04426063 0.01364338
v -0.02115184 0.04430828 0.01369972
v -0.02025024 0.04432416 0.01371694
v -0.01200143 0.04467678 0.01326773
v -0.01200143 0.02542248 0.01474058
v -0.02478446 0.01334447 0.01481727
v -0.04454751 0.02055252 -0.00046839
v -0.04524584 0.01334447 -0.00007083
v -0.04364919 0.02415178 -0.00049187
v -0.04274759 0.02595300 -0.00049343
v -0.04184927 0.02685202 -0.00049500
v -0.04004934 0.02955226 -0.00046370
v -0.03285951 0.03765934 -0.00012561
v -0.02925967 0.04125860 -0.00012561
v -0.02711222 0.04359033 0.00013264
v -0.02605326 0.04437182 0.00075089
v -0.02560410 0.04461325 0.00075089
v -0.02896460 0.04186536 0.00007786
v -0.02806628 0.04274532 0.00008256
v -0.02560737 0.04461643 0.00165088
v -0.02562049 0.04461960 0.00435083
v -0.02562377 0.04462278 0.00705079
v -0.02562049 0.04462278 0.00884920
v -0.02560737 0.04461643 0.00974918
v -0.02554508 0.04457830 0.01064917
v -0.02539427 0.04449889 0.01138950
v -0.02483692 0.04466408 0.01163367
v -0.02459431 0.04451795 0.01222531
v -0.02357140 0.04445441 0.01297817
v -0.02417137 0.04435276 0.01282478
v -0.02295176 0.04417486 0.01353695
v -0.02295176 0.04372376 0.01400337
v -0.02205016 0.04380953 0.01407381
v -0.02115184 0.04386036 0.01411137
v -0.02025024 0.04387624 0.01412233
v -0.01200143 0.04432416 0.01371694
v -0.01200143 0.02548920 0.01477032
v -0.02483692 0.01334447 0.01483919
v -0.04454751 0.02145154 -0.00046057
v -0.04524584 0.02055252 -0.00007083
v -0.04549172 0.01334447 0.00074307
v -0.04454751 0.02235056 -0.00043865
v -0.04364919 0.02505080 -0.00046526
v -0.04184927 0.02775104 -0.00045900
v -0.04094767 0.02865006 -0.00046370
v -0.04095750 0.02956179 -0.00012561
v -0.02986620 0.04096634 0.00007786
v -0.04156403 0.02926953 0.00007786
v -0.02717124 0.04363799 0.00075089
v -0.02655159 0.04406049 0.00075089
v -0.02814824 0.04281838 0.00075089
v -0.02762040 0.04326631 0.00075089
v -0.02606309 0.04437817 0.00255086
v -0.02904984 0.04194795 0.00075089
v -0.02859740 0.04239905 0.00075089
v -0.02607621 0.04438452 0.00525082
v -0.02562705 0.04461960 0.00615080
v -0.02607621 0.04438452 0.00615080
v -0.02606965 0.04438135 0.00884920
v -0.02605653 0.04437182 0.00974918
v -0.02599424 0.04433687 0.01064917
v -0.02519428 0.04439405 0.01198897
v -0.02706305 0.04354586 0.01122985
v -0.02658110 0.04374917 0.01153820
v -0.02567622 0.04425745 0.01163367
v -0.02483692 0.04426698 0.01249453
v -0.02386319 0.04408273 0.01330686
v -0.02542050 0.04362528 0.01305800
v -0.02466643 0.04373011 0.01335538
v -0.02385008 0.04358716 0.01388129
v -0.02295176 0.04313606 0.01445258
v -0.02205016 0.04323454 0.01452458
v -0.02115184 0.04328537 0.01456215
v -0.02025024 0.04330125 0.01457154
v -0.01200143 0.04339655 0.01449797
v -0.01200143 0.04387624 0.01412233
v -0.01200143 0.02594983 0.01495970
v -0.02565327 0.01334447 0.01514909
v -0.01200143 0.02609913 0.01501918
v -0.04522944 0.02145154 -0.00006301
v -0.04549172 0.02055252 0.00075089
v -0.04549172 0.01334447 0.00884920
v -0.04454751 0.02325276 -0.00035257
v -0.04519010 0.02235056 -0.00004109
v -0.04439997 0.02505080 -0.00006770
v -0.04372787 0.02601971 -0.00015379
v -0.04274759 0.02685202 -0.00041987
v -0.04185910 0.02865960 -0.00012248
v -0.03084976 0.04014991 0.00075089
v -0.04164927 0.02935213 0.00075089
v -0.04244268 0.02836416 0.00008256
v -0.04209843 0.02889468 0.00075089
v -0.02718107 0.04364116 0.00525082
v -0.02655159 0.04407638 0.00525082
v -0.02762368 0.04326948 0.00165088
v -0.02763023 0.04327266 0.00435083
v -0.02814824 0.04282156 0.00345085
v -0.02763351 0.04327266 0.00615080
v -0.02904984 0.04194795 0.00884920
v -0.02859740 0.04239905 0.00884920
v -0.02655159 0.04407638 0.00884920
v -0.02655159 0.04406367 0.00974918
v -0.02655159 0.04399060 0.01064917
v -0.02630243 0.04362528 0.01222062
v -0.02569262 0.04382859 0.01249296
v -0.02690240 0.04342832 0.01182932
v -0.02713190 0.04359987 0.01064917
v -0.02758106 0.04322501 0.01064917
v -0.02809579 0.04277709 0.01064917
v -0.02800727 0.04269449 0.01133942
v -0.02787285 0.04257060 0.01193888
v -0.02430579 0.04350139 0.01380146
v -0.02490577 0.04335843 0.01365903
v -0.02602047 0.04344738 0.01282165
v -0.02574180 0.04310429 0.01341799
v -0.02378778 0.04296769 0.01436650
v -0.02344354 0.04261507 0.01470927
v -0.02295176 0.04268496 0.01474997
v -0.02205016 0.04278344 0.01480475
v -0.02115184 0.04283744 0.01483292
v -0.02025024 0.04285015 0.01483919
v -0.01200143 0.04292640 0.01479536
v -0.01200143 0.04330125 0.01457154
v -0.02565983 0.01334447 0.01515066
v -0.01200143 0.02685202 0.01525396
v -0.04545894 0.02145154 0.00075089
v -0.04549172 0.02055252 0.00884920
v -0.04546550 0.02145154 0.00435083
v -0.04546222 0.02145154 0.00165088
v -0.04548517 0.01334447 0.00974918
v -0.04511797 0.02325276 0.00004499
v -0.04538025 0.02235056 0.00075089
v -0.04423932 0.02576875 0.00007160
v -0.04504912 0.02386270 0.00017803
v -0.04347870 0.02685202 -0.00002231
v -0.04274431 0.02772881 -0.00008962
v -0.03084976 0.04014991 0.00884920
v -0.04164927 0.02935213 0.00884920
v -0.04328855 0.02741431 0.00013421
v -0.04251481 0.02844675 0.00075089
v -0.04251809 0.02844675 0.00615080
v -0.04209843 0.02889468 0.00884920
v -0.02718435 0.04364434 0.00794921
v -0.02814824 0.04282156 0.00884920
v -0.02763679 0.04327266 0.00884920
v -0.02859085 0.04239270 0.00974918
v -0.02718435 0.04364434 0.00884920
v -0.02717780 0.04363799 0.00974918
v -0.02658110 0.04326631 0.01249296
v -0.02723353 0.04279615 0.01244914
v -0.02763023 0.04326631 0.00974918
v -0.02814169 0.04281521 0.00974918
v -0.02854495 0.04234822 0.01064917
v -0.02890886 0.04180818 0.01135194
v -0.02839414 0.04218939 0.01164619
v -0.02877772 0.04167793 0.01195297
v -0.02816464 0.04195431 0.01244914
v -0.02768597 0.04240541 0.01244914
v -0.02545984 0.04275802 0.01392668
v -0.02466643 0.04305346 0.01401902
v -0.02605981 0.04257060 0.01377642
v -0.02704338 0.04263096 0.01293748
v -0.02655159 0.04281203 0.01313469
v -0.02404351 0.04248800 0.01463571
v -0.02378778 0.04217350 0.01484701
v -0.02295176 0.04214809 0.01498475
v -0.02205016 0.04214809 0.01508022
v -0.02115184 0.04214809 0.01513031
v -0.02025024 0.04214809 0.01514440
v -0.01200143 0.04285015 0.01483919
v -0.02655159 0.01335082 0.01536196
v -0.02655159 0.01334447 0.01536039
v -0.01200143 0.02700133 0.01528839
v -0.04548517 0.02055252 0.00974918
v -0.04546550 0.02145154 0.00884920
v -0.04539993 0.02235056 0.00884920
v -0.04539009 0.02235056 0.00345085
v -0.04541959 0.01334447 0.01064917
v -0.04542288 0.01605106 0.01064917
v -0.04524256 0.02325276 0.00075089
v -0.04470160 0.02505080 0.00075089
v -0.04431145 0.02590217 0.00075089
v -0.04407212 0.02635327 0.00075089
v -0.04507207 0.02394847 0.00075089
v -0.04493765 0.02439957 0.00075089
v -0.03264312 0.03834234 0.00974918
v -0.04164272 0.02934577 0.00974918
v -0.04376065 0.02685202 0.00075089
v -0.04333444 0.02746831 0.00075089
v -0.04296725 0.02791941 0.00075089
v -0.04297053 0.02793212 0.00884920
v -0.04251809 0.02844675 0.00884920
v -0.04209188 0.02888832 0.00974918
v -0.04251481 0.02844040 0.00974918
v -0.02944982 0.04144920 0.01064917
v -0.03199397 0.03859330 0.01165245
v -0.04150830 0.02921235 0.01135194
v -0.02861380 0.04150956 0.01244914
v -0.04137716 0.02907893 0.01195297
v -0.02797120 0.04176688 0.01297035
v -0.02564344 0.04214174 0.01425850
v -0.02475167 0.04230375 0.01452302
v -0.02655159 0.04237999 0.01358547
v -0.02704010 0.04173511 0.01382651
v -0.02655159 0.04192889 0.01396268
v -0.02734172 0.04204961 0.01325365
v -0.02475167 0.04185265 0.01477814
v -0.02385008 0.04124907 0.01518666
v -0.02475167 0.04124907 0.01501449
v -0.02295176 0.04124907 0.01528213
v -0.02205016 0.04124907 0.01533692
v -0.02115184 0.04124907 0.01536665
v -0.02025024 0.04124907 0.01537448
v -0.01200143 0.04139838 0.01533692
v -0.01200143 0.04214809 0.01514440
v -0.02656143 0.01334447 0.01536196
v -0.01200143 0.02775104 0.01541987
v -0.02745319 0.01334447 0.01546057
v -0.04542288 0.02055252 0.01064917
v -0.04545566 0.02145154 0.00974918
v -0.04525567 0.02325276 0.00435083
v -0.04539009 0.02235056 0.00974918
v -0.04525567 0.02325276 0.00884920
v -0.04523272 0.01334447 0.01153976
v -0.04523272 0.01515204 0.01154915
v -0.04507863 0.02396118 0.00255086
v -0.04432129 0.02592441 0.00525082
v -0.04431473 0.02590853 0.00165088
v -0.04494421 0.02441863 0.00345085
v -0.04495077 0.02443451 0.00615080
v -0.04472455 0.02505080 0.00705079
v -0.04407539 0.02635645 0.00165088
v -0.04204926 0.02884702 0.01064917
v -0.04160010 0.02930130 0.01064917
v -0.04408195 0.02636916 0.00435083
v -0.04408195 0.02637551 0.00525082
v -0.04408523 0.02637551 0.00615080
v -0.04377377 0.02685202 0.00525082
v -0.04334100 0.02748420 0.00884920
v -0.04333772 0.02747784 0.00974918
v -0.04296397 0.02792894 0.00974918
v -0.04247547 0.02839592 0.01064917
v -0.04239350 0.02830697 0.01133942
v -0.04188861 0.02869454 0.01164619
v -0.03066944 0.03906982 0.01297035
v -0.04120995 0.02891374 0.01244914
v -0.04227220 0.02817038 0.01193888
v -0.04165583 0.02846264 0.01244914
v -0.02825971 0.04115694 0.01327086
v -0.02764007 0.04144285 0.01356981
v -0.02582376 0.04149050 0.01459032
v -0.02522379 0.04171287 0.01470771
v -0.02794498 0.04084244 0.01383120
v -0.02738434 0.04118553 0.01395955
v -0.02652209 0.04121412 0.01441502
v -0.02385008 0.04034687 0.01537918
v -0.02475167 0.04034687 0.01527118
v -0.02557459 0.04121412 0.01480788
v -0.02565327 0.04034687 0.01508805
v -0.02295176 0.04034687 0.01543865
v -0.02205016 0.04034687 0.01545900
v -0.02115184 0.04034687 0.01546683
v -0.02025024 0.04034687 0.01546839
v -0.01200143 0.04124907 0.01537448
v -0.01200143 0.02790035 0.01543396
v -0.01200143 0.02865006 0.01548248
v -0.02835151 0.01335082 0.01549500
v -0.02836135 0.01334447 0.01549500
v -0.04523272 0.02055252 0.01154915
v -0.04520649 0.02145154 0.01154915
v -0.04539337 0.02145154 0.01064917
v -0.04507863 0.02398659 0.00705079
v -0.04507863 0.02397706 0.00435083
v -0.04507863 0.02397071 0.00345085
v -0.04532780 0.02235056 0.01064917
v -0.04524584 0.02325276 0.00974918
v -0.04507535 0.02398659 0.00884920
v -0.04504912 0.01334447 0.01210166
v -0.04432129 0.02592441 0.00705079
v -0.04495404 0.02443769 0.00794921
v -0.04472455 0.02505080 0.00884920
v -0.04432129 0.02591806 0.00884920
v -0.04408195 0.02637233 0.00794921
v -0.04377377 0.02685202 0.00884920
v -0.04330166 0.02743337 0.01064917
v -0.04376065 0.02685202 0.00974918
v -0.04292463 0.02788129 0.01064917
v -0.04324592 0.02736348 0.01122985
v -0.04276070 0.02776693 0.01158359
v -0.03966903 0.03007007 0.01297035
v -0.04146567 0.02827203 0.01297035
v -0.04312790 0.02720146 0.01182932
v -0.04249514 0.02753502 0.01244914
v -0.04210499 0.02798295 0.01244914
v -0.02854495 0.04054383 0.01356981
v -0.03995427 0.02946014 0.01327086
v -0.04024278 0.02884702 0.01356981
v -0.02620407 0.04089009 0.01474214
v -0.04054441 0.02824662 0.01383120
v -0.02828922 0.04028651 0.01396268
v -0.02742697 0.04032146 0.01442754
v -0.02680404 0.04060419 0.01460597
v -0.02475167 0.03944785 0.01541205
v -0.02565327 0.03944785 0.01529622
v -0.02652209 0.04032146 0.01483449
v -0.02655159 0.03944785 0.01509744
v -0.02385008 0.03944785 0.01546683
v -0.02295176 0.03944785 0.01548717
v -0.02205016 0.03944785 0.01549500
v -0.01200143 0.04034687 0.01546839
v -0.01200143 0.02879937 0.01548717
v -0.01200143 0.02955226 0.01549500
v -0.03914775 0.01334447 0.01549500
v -0.04504584 0.02055252 0.01210636
v -0.04503273 0.02145154 0.01207506
v -0.04500978 0.02203607 0.01202810
v -0.04511797 0.02234103 0.01161019
v -0.04495404 0.02443769 0.00884920
v -0.04506552 0.02325276 0.01130968
v -0.04518354 0.02325276 0.01064917
v -0.04503929 0.02384999 0.01064917
v -0.04506879 0.02396753 0.00974918
v -0.04482618 0.01334447 0.01255714
v -0.04482618 0.02055252 0.01255714
v -0.04471471 0.02505080 0.00974918
v -0.04431473 0.02590853 0.00974918
v -0.04407867 0.02636916 0.00884920
v -0.04369181 0.02685202 0.01064917
v -0.04407212 0.02635645 0.00974918
v -0.04403605 0.02629291 0.01064917
v -0.04419670 0.02569251 0.01138950
v -0.04344920 0.02688061 0.01153663
v -0.04085587 0.02855794 0.01327086
v -0.04233121 0.02734124 0.01293748
v -0.04175091 0.02763986 0.01325365
v -0.04143289 0.02734124 0.01382651
v -0.04114438 0.02794165 0.01356981
v -0.04332789 0.02660106 0.01222062
v -0.04296397 0.02688061 0.01249296
v -0.02710895 0.04000378 0.01474527
v -0.04088537 0.02768433 0.01395955
v -0.03998378 0.02858971 0.01396268
v -0.03908546 0.02948873 0.01396268
v -0.03822320 0.02952685 0.01442754
v -0.02770892 0.03970517 0.01460597
v -0.02565327 0.03854883 0.01541518
v -0.02475167 0.03854883 0.01547465
v -0.02655159 0.03854883 0.01529779
v -0.02742697 0.03942244 0.01483605
v -0.02745319 0.03854883 0.01509744
v -0.02385008 0.03854883 0.01549343
v -0.02295176 0.03854883 0.01549500
v -0.01200143 0.03944785 0.01549500
v -0.03914775 0.02235056 0.01549500
v -0.04004934 0.01334447 0.01546839
v -0.04480979 0.02145154 0.01252427
v -0.04480323 0.02234103 0.01237557
v -0.04498027 0.02263647 0.01195141
v -0.04494749 0.02441863 0.00974918
v -0.04492126 0.02325276 0.01176045
v -0.04500650 0.02373563 0.01112811
v -0.04491470 0.02430109 0.01064917
v -0.04437702 0.01334447 0.01326773
v -0.04437702 0.02055252 0.01326773
v -0.04436063 0.02145154 0.01324895
v -0.04464586 0.02505080 0.01064917
v -0.04427866 0.02584499 0.01064917
v -0.04436391 0.02513658 0.01163367
v -0.04409507 0.02549237 0.01198897
v -0.04395737 0.02597842 0.01163367
v -0.04227220 0.02636280 0.01377642
v -0.04207876 0.02685202 0.01358547
v -0.04314757 0.02631833 0.01282165
v -0.04251153 0.02685202 0.01313469
v -0.04091488 0.02682343 0.01441502
v -0.04162960 0.02685202 0.01396268
v -0.04352788 0.02599112 0.01249296
v -0.03790518 0.02920917 0.01474527
v -0.04002312 0.02772563 0.01442754
v -0.03850515 0.02890738 0.01460597
v -0.02565327 0.03764981 0.01547465
v -0.02745319 0.03764981 0.01529779
v -0.03824943 0.02595300 0.01541518
v -0.03732160 0.02952685 0.01483605
v -0.03644951 0.02955226 0.01509744
v -0.02475167 0.03764981 0.01549343
v -0.02565327 0.03584859 0.01549500
v -0.03824943 0.02325276 0.01549500
v -0.03824943 0.02415178 0.01549343
v -0.03914775 0.02325276 0.01548717
v -0.04004934 0.02145154 0.01546683
v -0.04004934 0.02055252 0.01546839
v -0.04094767 0.01334447 0.01537448
v -0.04431473 0.02235056 0.01319260
v -0.04423604 0.02325276 0.01308617
v -0.04460652 0.02325276 0.01244914
v -0.04479339 0.02408189 0.01147715
v -0.04433112 0.02416449 0.01249453
v -0.04402294 0.01334447 0.01371694
v -0.04402622 0.01515204 0.01371694
v -0.04402622 0.02055252 0.01371694
v -0.04400982 0.02145154 0.01369972
v -0.04421965 0.02489197 0.01222531
v -0.04396720 0.02513658 0.01249453
v -0.04332461 0.02572110 0.01305800
v -0.04280332 0.02604195 0.01341799
v -0.04305905 0.02520646 0.01365903
v -0.04245907 0.02576240 0.01392668
v -0.04184271 0.02594347 0.01425850
v -0.04119028 0.02612455 0.01459032
v -0.04059031 0.02650576 0.01474214
v -0.04030507 0.02710299 0.01460597
v -0.03970510 0.02740795 0.01474527
v -0.03822320 0.02862465 0.01483605
v -0.03940347 0.02800836 0.01460597
v -0.03644951 0.02685202 0.01547465
v -0.03644951 0.02595300 0.01549343
v -0.02745319 0.03494957 0.01549343
v -0.03824943 0.02685202 0.01529779
v -0.03914775 0.02595300 0.01529622
v -0.03914775 0.02505080 0.01541205
v -0.03824943 0.02505080 0.01547465
v -0.03824943 0.02775104 0.01509744
v -0.03914775 0.02415178 0.01546683
v -0.04004934 0.02325276 0.01543865
v -0.04004934 0.02235056 0.01545900
v -0.04094767 0.02055252 0.01537448
v -0.04095750 0.01334447 0.01537292
v -0.04396065 0.02235056 0.01364338
v -0.04387213 0.02325276 0.01353695
v -0.04415408 0.02387223 0.01297817
v -0.04405572 0.02447264 0.01282478
v -0.04357378 0.01334447 0.01412076
v -0.04357378 0.01515204 0.01412233
v -0.04357378 0.02055252 0.01412233
v -0.04355738 0.02145154 0.01411137
v -0.04351149 0.02235056 0.01407381
v -0.04342952 0.02496503 0.01335538
v -0.04320002 0.02460606 0.01380146
v -0.04275414 0.02496503 0.01401902
v -0.04200336 0.02505080 0.01452302
v -0.04141322 0.02552414 0.01470771
v -0.04004934 0.02595300 0.01508805
v -0.04002312 0.02682343 0.01483449
v -0.04091488 0.02587676 0.01480788
v -0.03912152 0.02772563 0.01483605
v -0.03914775 0.02685202 0.01509744
v -0.04004934 0.02505080 0.01527118
v -0.04004934 0.02415178 0.01537918
v -0.04094767 0.02325276 0.01528213
v -0.04094767 0.02235056 0.01533692
v -0.04094767 0.02145154 0.01536665
v -0.04184927 0.02055252 0.01514440
v -0.04184927 0.01965032 0.01514440
v -0.04184927 0.01695008 0.01514283
v -0.04184927 0.01334447 0.01513970
v -0.04342297 0.02325276 0.01400337
v -0.04378032 0.02416449 0.01330686
v -0.04328527 0.02415178 0.01388129
v -0.04300331 0.01334447 0.01456684
v -0.04300003 0.01695008 0.01457154
v -0.04300003 0.02055252 0.01457154
v -0.04298692 0.02145154 0.01456215
v -0.04293446 0.02235056 0.01452458
v -0.04266890 0.02408825 0.01436650
v -0.04218696 0.02434556 0.01463571
v -0.04155420 0.02505080 0.01477814
v -0.04094767 0.02505080 0.01501449
v -0.04094767 0.02415178 0.01518666
v -0.04184927 0.02325276 0.01498475
v -0.04184927 0.02235056 0.01508022
v -0.04184927 0.02145154 0.01513031
v -0.04253776 0.02145154 0.01483292
v -0.04255087 0.02055252 0.01483919
v -0.04255087 0.01785228 0.01483919
v -0.04254759 0.01334447 0.01483605
v -0.04283611 0.02325276 0.01445258
v -0.04299675 0.01334447 0.01457154
v -0.04248202 0.02235056 0.01480475
v -0.04238367 0.02325276 0.01474997
v -0.04231482 0.02374516 0.01470927
v -0.04187222 0.02408825 0.01484701
f 1 2 5
f 1 5 11
f 1 11 20
f 1 20 22
f 1 22 37
f 1 37 58
f 1 58 57
f 1 57 83
f 1 83 109
f 1 109 141
f 1 141 181
f 1 181 180
f 1 180 228
f 1 228 227
f 1 227 275
f 1 275 320
f 1 320 319
f 1 319 369
f 1 369 415
f 1 415 458
f 1 458 417
f 1 417 416
f 1 416 371
f 1 371 370
f 1 370 322
f 1 322 278
f 1 278 230
f 1 230 184
f 1 184 182
f 1 182 142
f 1 142 110
f 1 110 84
f 1 84 59
f 1 59 38
f 1 38 23
f 1 23 13
f 1 13 7
f 1 7 3
f 1 3 8
f 1 8 4
f 1 4 2
f 2 4 6
f 2 6 5
f 3 7 14
f 3 14 8
f 4 8 9
f 4 9 10
f 4 10 6
f 5 6 11
f 6 10 19
f 6 19 12
f 6 12 11
f 7 13 24
f 7 24 14
f 8 14 15
f 8 15 16
f 8 16 9
f 9 16 17
f 9 17 18
f 9 18 10
f 10 18 19
f 11 12 20
f 12 19 34
f 12 34 21
f 12 21 22
f 12 22 20
f 13 23 39
f 13 39 24
f 14 24 25
f 14 25 15
f 15 25 26
f 15 26 27
f 15 27 16
f 16 27 28
f 16 28 17
f 17 28 29
f 17 29 30
f 17 30 31
f 17 31 32
f 17 32 18
f 18 32 33
f 18 33 19
f 19 33 34
f 21 34 35
f 21 35 36
f 21 36 58
f 21 58 37
f 21 37 22
f 23 38 60
f 23 60 87
f 23 87 116
f 23 116 88
f 23 88 61
f 23 61 39
f 24 39 40
f 24 40 25
f 25 40 26
f 26 41 27
f 26 40 42
f 26 42 41
f 27 41 43
f 27 43 28
f 28 43 44
f 28 44 29
f 29 44 45
f 29 45 46
f 29 46 30
f 30 46 47
f 30 47 31
f 31 47 48
f 31 48 32
f 32 48 49
f 32 49 50
f 32 50 51
f 32 51 33
f 33 52 34
f 33 51 53
f 33 53 52
f 34 52 54
f 34 54 35
f 35 54 55
f 35 55 56
f 35 56 36
f 36 56 57
f 36 57 58
f 38 59 85
f 38 85 111
f 38 111 143
f 38 143 183
f 38 183 229
f 38 229 277
f 38 277 321
f 38 321 323
f 38 323 373
f 38 373 418
f 38 418 460
f 38 460 498
f 38 498 533
f 38 533 561
f 38 561 581
f 38 581 583
f 38 583 565
f 38 565 538
f 38 538 504
f 38 504 468
f 38 468 428
f 38 428 383
f 38 383 329
f 38 329 283
f 38 283 235
f 38 235 187
f 38 187 146
f 38 146 113
f 38 113 86
f 38 86 60
f 39 61 62
f 39 62 40
f 40 62 42
f 41 42 63
f 41 63 43
f 42 62 64
f 42 64 65
f 42 65 66
f 42 66 63
f 43 63 67
f 43 67 44
f 44 67 68
f 44 68 69
f 44 69 45
f 45 69 95
f 45 95 70
f 45 70 71
f 45 71 72
f 45 72 46
f 46 72 47
f 47 72 73
f 47 73 48
f 48 73 74
f 48 74 49
f 49 74 50
f 50 75 51
f 50 74 76
f 50 76 75
f 51 75 53
f 52 53 77
f 52 77 54
f 53 78 77
f 53 75 78
f 54 77 79
f 54 79 55
f 55 79 80
f 55 80 81
f 55 81 56
f 56 81 82
f 56 82 109
f 56 109 83
f 56 83 57
f 59 84 85
f 60 86 112
f 60 112 87
f 61 88 89
f 61 89 62
f 62 89 64
f 63 66 90
f 63 90 67
f 64 89 91
f 64 91 65
f 65 92 66
f 65 91 93
f 65 93 92
f 66 92 90
f 67 90 94
f 67 94 95
f 67 95 68
f 68 95 69
f 70 95 94
f 70 94 96
f 70 96 71
f 71 96 97
f 71 97 72
f 72 97 98
f 72 98 99
f 72 99 73
f 73 99 100
f 73 100 74
f 74 100 101
f 74 101 76
f 75 76 101
f 75 101 102
f 75 102 78
f 77 78 103
f 77 103 79
f 78 102 104
f 78 104 103
f 79 103 105
f 79 105 80
f 80 106 107
f 80 107 81
f 80 105 106
f 81 107 82
f 82 107 108
f 82 108 141
f 82 141 109
f 84 110 85
f 85 110 111
f 86 113 145
f 86 145 112
f 87 112 114
f 87 114 115
f 87 115 116
f 88 116 117
f 88 117 89
f 89 118 119
f 89 119 91
f 89 117 118
f 90 92 120
f 90 120 121
f 90 121 122
f 90 122 94
f 91 123 124
f 91 124 93
f 91 119 123
f 92 93 120
f 93 124 120
f 94 122 96
f 96 122 125
f 96 125 97
f 97 125 126
f 97 126 98
f 98 126 127
f 98 127 99
f 99 127 128
f 99 128 100
f 100 128 129
f 100 129 130
f 100 130 101
f 101 130 131
f 101 131 132
f 101 132 102
f 102 132 133
f 102 133 104
f 103 104 134
f 103 134 105
f 104 133 135
f 104 135 134
f 105 134 136
f 105 136 106
f 106 136 137
f 106 137 138
f 106 138 107
f 107 138 139
f 107 139 108
f 108 139 140
f 108 140 181
f 108 181 141
f 110 142 111
f 111 142 143
f 112 144 114
f 112 145 144
f 113 146 145
f 114 144 147
f 114 147 148
f 114 148 115
f 115 148 149
f 115 149 150
f 115 150 116
f 116 150 117
f 117 150 151
f 117 151 118
f 118 152 119
f 118 151 153
f 118 153 152
f 119 152 123
f 120 154 155
f 120 155 121
f 120 124 156
f 120 156 157
f 120 157 154
f 121 155 158
f 121 158 122
f 122 158 125
f 123 159 160
f 123 160 124
f 123 152 159
f 124 160 156
f 125 158 161
f 125 161 126
f 126 161 162
f 126 162 127
f 127 162 161
f 127 161 163
f 127 163 128
f 128 163 164
f 128 164 129
f 129 164 165
f 129 165 166
f 129 166 130
f 130 166 131
f 131 167 132
f 131 166 168
f 131 168 169
f 131 169 170
f 131 170 167
f 132 167 133
f 133 167 171
f 133 171 135
f 134 135 172
f 134 172 136
f 135 171 173
f 135 173 174
f 135 174 172
f 136 172 175
f 136 175 137
f 137 175 176
f 137 176 177
f 137 177 138
f 138 177 178
f 138 178 139
f 139 178 140
f 140 178 179
f 140 179 180
f 140 180 181
f 142 182 143
f 143 182 184
f 143 184 183
f 144 145 185
f 144 185 147
f 145 146 186
f 145 186 185
f 146 187 232
f 146 232 186
f 147 188 148
f 147 185 189
f 147 189 188
f 148 188 190
f 148 190 191
f 148 191 192
f 148 192 149
f 149 193 150
f 149 192 193
f 150 193 151
f 151 193 153
f 152 194 159
f 152 153 195
f 152 195 194
f 153 193 196
f 153 196 197
f 153 197 195
f 154 198 199
f 154 199 155
f 154 157 200
f 154 200 201
f 154 201 198
f 155 199 161
f 155 161 158
f 156 202 203
f 156 203 201
f 156 201 200
f 156 200 157
f 156 160 202
f 159 204 205
f 159 205 160
f 159 194 242
f 159 242 204
f 160 205 249
f 160 249 202
f 161 199 206
f 161 206 163
f 163 206 164
f 164 206 207
f 164 207 165
f 165 207 208
f 165 208 166
f 166 208 168
f 167 170 209
f 167 209 210
f 167 210 173
f 167 173 171
f 168 211 169
f 168 208 212
f 168 212 213
f 168 213 214
f 168 214 215
f 168 215 216
f 168 216 211
f 169 211 209
f 169 209 170
f 172 174 217
f 172 217 175
f 173 218 174
f 173 210 219
f 173 219 220
f 173 220 218
f 174 218 217
f 175 217 221
f 175 221 176
f 176 221 222
f 176 222 223
f 176 223 177
f 177 224 178
f 177 223 224
f 178 224 225
f 178 225 179
f 179 225 226
f 179 226 227
f 179 227 228
f 179 228 180
f 183 184 230
f 183 230 229
f 185 186 231
f 185 231 189
f 186 232 280
f 186 280 233
f 186 233 234
f 186 234 231
f 187 235 279
f 187 279 232
f 188 189 236
f 188 236 190
f 189 231 237
f 189 237 236
f 190 238 191
f 190 236 239
f 190 239 238
f 191 238 240
f 191 240 192
f 192 240 241
f 192 241 193
f 193 241 196
f 194 195 243
f 194 243 242
f 195 197 247
f 195 247 243
f 196 241 244
f 196 244 245
f 196 245 197
f 197 245 246
f 197 246 297
f 197 297 247
f 198 248 199
f 198 201 248
f 199 248 252
f 199 252 206
f 201 203 248
f 202 249 250
f 202 250 203
f 203 250 248
f 204 251 205
f 204 242 251
f 205 251 257
f 205 257 249
f 206 252 253
f 206 253 207
f 207 253 212
f 207 212 208
f 209 211 254
f 209 254 219
f 209 219 210
f 211 216 255
f 211 255 254
f 212 253 256
f 212 256 213
f 213 256 214
f 214 256 257
f 214 257 251
f 214 251 258
f 214 258 215
f 215 258 259
f 215 259 260
f 215 260 216
f 216 260 261
f 216 261 262
f 216 262 263
f 216 263 255
f 217 218 264
f 217 264 265
f 217 265 221
f 218 220 266
f 218 266 264
f 219 254 267
f 219 267 268
f 219 268 220
f 220 268 266
f 221 265 269
f 221 269 222
f 222 269 270
f 222 270 271
f 222 271 223
f 223 271 224
f 224 272 225
f 224 271 272
f 225 272 273
f 225 273 274
f 225 274 226
f 226 274 320
f 226 320 275
f 226 275 227
f 229 276 277
f 229 230 276
f 230 278 276
f 231 234 282
f 231 282 237
f 232 279 280
f 233 280 281
f 233 281 234
f 234 281 282
f 235 283 284
f 235 284 324
f 235 324 279
f 236 237 239
f 237 282 326
f 237 326 285
f 237 285 239
f 238 239 286
f 238 286 287
f 238 287 288
f 238 288 244
f 238 244 240
f 239 285 289
f 239 289 290
f 239 290 286
f 240 244 241
f 242 291 251
f 242 243 292
f 242 292 291
f 243 247 298
f 243 298 292
f 244 288 293
f 244 293 294
f 244 294 295
f 244 295 245
f 245 295 296
f 245 296 246
f 246 296 297
f 247 297 299
f 247 299 298
f 248 250 252
f 249 257 256
f 249 256 250
f 250 256 253
f 250 253 252
f 251 300 258
f 251 291 300
f 254 255 267
f 255 263 267
f 258 300 259
f 259 301 261
f 259 261 260
f 259 300 302
f 259 302 301
f 261 303 262
f 261 301 302
f 261 302 304
f 261 304 303
f 262 305 263
f 262 303 305
f 263 305 267
f 264 266 306
f 264 306 307
f 264 307 265
f 265 307 269
f 266 268 267
f 266 267 308
f 266 308 309
f 266 309 310
f 266 310 306
f 267 309 308
f 267 305 311
f 267 311 309
f 269 307 312
f 269 312 270
f 270 313 271
f 270 312 314
f 270 314 313
f 271 313 315
f 271 315 272
f 272 316 273
f 272 315 316
f 273 316 317
f 273 317 274
f 274 317 318
f 274 318 319
f 274 319 320
f 276 321 277
f 276 278 322
f 276 322 323
f 276 323 321
f 279 324 376
f 279 376 325
f 279 325 280
f 280 325 327
f 280 327 281
f 281 326 282
f 281 327 381
f 281 381 328
f 281 328 326
f 283 329 284
f 284 329 330
f 284 330 374
f 284 374 324
f 285 326 331
f 285 331 289
f 286 332 333
f 286 333 287
f 286 290 334
f 286 334 335
f 286 335 336
f 286 336 332
f 287 333 288
f 288 337 293
f 288 333 337
f 289 331 290
f 290 331 334
f 291 292 300
f 292 298 338
f 292 338 339
f 292 339 300
f 293 337 340
f 293 340 341
f 293 341 342
f 293 342 343
f 293 343 294
f 294 344 295
f 294 343 344
f 295 344 296
f 296 344 345
f 296 345 346
f 296 346 299
f 296 299 297
f 298 299 347
f 298 347 338
f 299 346 347
f 300 339 302
f 302 339 338
f 302 338 348
f 302 348 349
f 302 349 304
f 303 350 305
f 303 304 351
f 303 351 350
f 304 349 352
f 304 352 353
f 304 353 351
f 305 354 355
f 305 355 309
f 305 309 311
f 305 350 354
f 306 356 357
f 306 357 307
f 306 310 356
f 307 357 312
f 309 355 358
f 309 358 359
f 309 359 360
f 309 360 310
f 310 360 356
f 312 357 314
f 313 361 315
f 313 314 362
f 313 362 361
f 314 357 363
f 314 363 364
f 314 364 362
f 315 361 365
f 315 365 316
f 316 365 317
f 317 365 366
f 317 366 367
f 317 367 318
f 318 367 368
f 318 368 415
f 318 415 369
f 318 369 319
f 322 370 323
f 323 370 371
f 323 371 372
f 323 372 373
f 324 374 375
f 324 375 376
f 325 376 380
f 325 380 327
f 326 328 377
f 326 377 378
f 326 378 379
f 326 379 331
f 327 380 425
f 327 425 381
f 328 381 382
f 328 382 377
f 329 383 330
f 330 383 374
f 331 379 335
f 331 335 334
f 332 384 342
f 332 342 341
f 332 341 340
f 332 340 333
f 332 336 386
f 332 386 384
f 333 340 337
f 335 385 336
f 335 379 385
f 336 385 423
f 336 423 386
f 338 347 348
f 342 384 387
f 342 387 388
f 342 388 389
f 342 389 343
f 343 389 344
f 344 389 345
f 345 390 346
f 345 389 391
f 345 391 390
f 346 390 392
f 346 392 347
f 347 392 393
f 347 393 348
f 348 393 394
f 348 394 352
f 348 352 349
f 350 351 395
f 350 395 354
f 351 353 396
f 351 396 395
f 352 394 397
f 352 397 398
f 352 398 399
f 352 399 353
f 353 399 396
f 354 400 355
f 354 395 401
f 354 401 402
f 354 402 400
f 355 400 358
f 356 360 403
f 356 403 357
f 357 403 363
f 358 400 404
f 358 404 405
f 358 405 359
f 359 406 360
f 359 405 406
f 360 406 407
f 360 407 403
f 361 362 408
f 361 408 365
f 362 364 409
f 362 409 408
f 363 403 364
f 364 403 410
f 364 410 411
f 364 411 409
f 365 408 412
f 365 412 413
f 365 413 366
f 366 413 367
f 367 413 414
f 367 414 368
f 368 414 458
f 368 458 415
f 371 416 372
f 372 416 417
f 372 417 458
f 372 458 414
f 372 414 457
f 372 457 492
f 372 492 493
f 372 493 459
f 372 459 418
f 372 418 373
f 374 383 419
f 374 419 420
f 374 420 375
f 375 420 421
f 375 421 422
f 375 422 380
f 375 380 376
f 377 382 423
f 377 423 385
f 377 385 378
f 378 385 379
f 380 422 424
f 380 424 425
f 381 425 426
f 381 426 427
f 381 427 382
f 382 427 464
f 382 464 423
f 383 428 429
f 383 429 419
f 384 386 387
f 386 430 387
f 386 423 430
f 387 431 432
f 387 432 388
f 387 430 431
f 388 432 389
f 389 432 391
f 390 393 392
f 390 391 433
f 390 433 393
f 391 432 434
f 391 434 433
f 393 433 435
f 393 435 436
f 393 436 437
f 393 437 397
f 393 397 394
f 395 396 438
f 395 438 401
f 396 399 439
f 396 439 440
f 396 440 441
f 396 441 442
f 396 442 438
f 397 437 443
f 397 443 444
f 397 444 398
f 398 439 399
f 398 444 439
f 400 402 404
f 401 438 402
f 402 438 442
f 402 442 404
f 403 407 445
f 403 445 410
f 404 442 441
f 404 441 446
f 404 446 447
f 404 447 448
f 404 448 405
f 405 448 449
f 405 449 406
f 406 449 450
f 406 450 407
f 407 450 445
f 408 409 451
f 408 451 452
f 408 452 412
f 409 411 453
f 409 453 451
f 410 445 454
f 410 454 411
f 411 454 455
f 411 455 487
f 411 487 453
f 412 452 413
f 413 452 456
f 413 456 414
f 414 456 491
f 414 491 457
f 418 459 497
f 418 497 460
f 419 429 420
f 420 429 461
f 420 461 421
f 421 461 462
f 421 462 463
f 421 463 422
f 422 463 424
f 423 464 430
f 424 463 465
f 424 465 466
f 424 466 425
f 425 466 426
f 426 466 467
f 426 467 464
f 426 464 427
f 428 468 469
f 428 469 429
f 429 469 470
f 429 470 461
f 430 471 472
f 430 472 431
f 430 464 471
f 431 472 435
f 431 435 434
f 431 434 432
f 433 434 435
f 435 472 436
f 436 472 471
f 436 471 473
f 436 473 474
f 436 474 475
f 436 475 437
f 437 475 443
f 439 476 477
f 439 477 441
f 439 441 440
f 439 444 478
f 439 478 479
f 439 479 476
f 441 480 446
f 441 477 476
f 441 476 481
f 441 481 480
f 443 478 444
f 443 475 474
f 443 474 482
f 443 482 478
f 445 450 483
f 445 483 454
f 446 480 484
f 446 484 447
f 447 484 448
f 448 484 449
f 449 484 485
f 449 485 450
f 450 485 483
f 451 486 452
f 451 453 487
f 451 487 488
f 451 488 486
f 452 486 491
f 452 491 456
f 454 483 489
f 454 489 490
f 454 490 455
f 455 490 487
f 457 491 523
f 457 523 492
f 459 493 494
f 459 494 495
f 459 495 496
f 459 496 497
f 460 497 532
f 460 532 498
f 461 470 499
f 461 499 462
f 462 499 500
f 462 500 501
f 462 501 463
f 463 501 465
f 464 467 471
f 465 502 466
f 465 501 503
f 465 503 502
f 466 502 471
f 466 471 467
f 468 504 505
f 468 505 506
f 468 506 469
f 469 506 507
f 469 507 470
f 470 507 499
f 471 502 473
f 473 508 474
f 473 502 508
f 474 508 509
f 474 509 510
f 474 510 482
f 476 479 478
f 476 478 511
f 476 511 512
f 476 512 513
f 476 513 514
f 476 514 481
f 478 482 510
f 478 510 511
f 480 481 515
f 480 515 516
f 480 516 517
f 480 517 484
f 481 514 515
f 483 485 518
f 483 518 519
f 483 519 489
f 484 517 520
f 484 520 485
f 485 520 518
f 486 488 521
f 486 521 522
f 486 522 523
f 486 523 491
f 487 490 524
f 487 524 488
f 488 524 525
f 488 525 526
f 488 526 527
f 488 527 521
f 489 519 490
f 490 519 528
f 490 528 524
f 492 523 493
f 493 523 522
f 493 522 494
f 494 527 495
f 494 522 521
f 494 521 527
f 495 529 530
f 495 530 531
f 495 531 496
f 495 527 529
f 496 531 557
f 496 557 532
f 496 532 497
f 498 532 533
f 499 507 534
f 499 534 500
f 500 534 535
f 500 535 536
f 500 536 501
f 501 536 503
f 502 503 508
f 503 536 537
f 503 537 508
f 504 538 505
f 505 538 539
f 505 539 540
f 505 540 506
f 506 540 541
f 506 541 507
f 507 541 542
f 507 542 534
f 508 537 509
f 509 537 510
f 510 512 511
f 510 537 543
f 510 543 512
f 512 543 544
f 512 544 513
f 513 544 545
f 513 545 546
f 513 546 514
f 514 546 547
f 514 547 515
f 515 547 516
f 516 548 549
f 516 549 518
f 516 518 517
f 516 547 550
f 516 550 548
f 517 518 520
f 518 549 551
f 518 551 519
f 519 551 552
f 519 552 528
f 524 528 552
f 524 552 525
f 525 552 548
f 525 548 553
f 525 553 526
f 526 553 554
f 526 554 530
f 526 530 529
f 526 529 527
f 530 554 555
f 530 555 556
f 530 556 557
f 530 557 531
f 532 557 558
f 532 558 533
f 533 558 559
f 533 559 560
f 533 560 561
f 534 542 562
f 534 562 535
f 535 563 536
f 535 562 564
f 535 564 563
f 536 563 537
f 537 563 543
f 538 565 539
f 539 565 566
f 539 566 567
f 539 567 540
f 540 567 568
f 540 568 541
f 541 568 542
f 542 568 569
f 542 569 562
f 543 563 544
f 544 563 564
f 544 564 570
f 544 570 545
f 545 570 571
f 545 571 546
f 546 572 547
f 546 571 572
f 547 573 550
f 547 572 573
f 548 550 573
f 548 573 553
f 548 552 549
f 549 552 551
f 553 573 574
f 553 574 554
f 554 574 555
f 555 574 575
f 555 575 576
f 555 576 556
f 556 576 577
f 556 577 557
f 557 577 558
f 558 577 578
f 558 578 579
f 558 579 580
f 558 580 559
f 559 580 560
f 560 580 561
f 561 580 581
f 562 569 582
f 562 582 564
f 564 582 570
f 565 583 566
f 566 583 580
f 566 580 579
f 566 579 567
f 567 579 578
f 567 578 568
f 568 578 584
f 568 584 569
f 569 584 585
f 569 585 582
f 570 586 571
f 570 582 586
f 571 586 587
f 571 587 572
f 572 587 573
f 573 587 574
f 574 587 575
f 575 587 586
f 575 586 585
f 575 585 584
f 575 584 576
f 576 584 578
f 576 578 577
f 580 583 581
f 582 585 586

