# https://github.com/mikedh/trimesh
v 0.00224157 -0.03074992 0.01549500
v 0.00224157 -0.02984749 0.01544804
v -0.00386724 -0.02984749 0.01545744
v -0.00386724 -0.03074992 0.01549500
v 0.00224157 -0.03884708 0.01549500
v 0.00224157 -0.02896051 0.01530248
v -0.00386724 -0.02895124 0.01534318
v -0.00386724 -0.03884708 0.01549500
v 0.00224157 -0.03974951 0.01546839
v 0.00224157 -0.02895124 0.01530092
v -0.00386724 -0.02805190 0.01509275
v -0.00386724 -0.03974951 0.01546839
v 0.00224157 -0.04064885 0.01537448
v 0.00224157 -0.02805190 0.01502388
v -0.00386724 -0.02741216 0.01480945
v -0.00386724 -0.04064885 0.01537448
v 0.00224157 -0.04065812 0.01537292
v 0.00224157 -0.02748942 0.01477345
v 0.00224157 -0.02748633 0.01477188
v -0.00386724 -0.02696095 0.01452615
v -0.00386724 -0.04136585 0.01519135
v 0.00224157 -0.04154819 0.01514440
v 0.00224157 -0.02703512 0.01446197
v -0.00386724 -0.01627393 0.00728087
v -0.00386724 -0.04154819 0.01514440
v 0.00224157 -0.04225592 0.01483762
v 0.00224157 -0.01685804 0.00746713
v 0.00224157 -0.01635120 0.00711183
v -0.00386724 -0.01564038 0.00681914
v -0.00386724 -0.04210758 0.01490179
v -0.00386724 -0.04224974 0.01483919
v -0.00386724 -0.04270095 0.01457154
v 0.00224157 -0.04270713 0.01456841
v 0.00224157 -0.01580417 0.00669862
v -0.00386724 -0.01518916 0.00639654
v -0.00386724 -0.04327579 0.01412233
v 0.00134940 -0.04327579 0.01412233
v 0.00224157 -0.04327888 0.01411763
v 0.00224157 -0.01580108 0.00669549
v 0.00224157 -0.01528188 0.00610854
v -0.00386724 -0.01480594 0.00594576
v -0.00386724 -0.04363429 0.01379990
v 0.00134940 -0.04372391 0.01371694
v 0.00224157 -0.04372701 0.01371381
v 0.00224157 -0.01497283 0.00573759
v -0.00386724 -0.01434545 0.00523047
v -0.00386724 -0.04372391 0.01371694
v -0.00386724 -0.04400515 0.01335851
v -0.00386724 -0.04407623 0.01326773
v 0.00224157 -0.04407623 0.01326773
v 0.00224157 -0.01474104 0.00532908
v 0.00224157 -0.01471940 0.00528682
v -0.00386724 -0.01422183 0.00497691
v -0.00386724 -0.04452745 0.01255714
v 0.00134940 -0.04452745 0.01255714
v 0.00224157 -0.04452745 0.01255244
v 0.00224157 -0.01429291 0.00433675
v -0.00386724 -0.01402713 0.00454805
v -0.00386724 -0.04474687 0.01210636
v 0.00224157 -0.04474687 0.01210636
v 0.00224157 -0.01427437 0.00428979
v -0.00386724 -0.01394368 0.00433675
v -0.00386724 -0.04489522 0.01166185
v 0.00224157 -0.04493540 0.01154133
v 0.00224157 -0.01411675 0.00364650
v -0.00386724 -0.01373971 0.00345085
v -0.00386724 -0.04493231 0.01154915
v -0.00386724 -0.04512392 0.01064917
v 0.00224157 -0.04512392 0.01064917
v 0.00224157 -0.01409203 0.00345085
v -0.00386724 -0.01372426 0.00326772
v 0.00224157 -0.01407039 0.00325990
v -0.00386724 -0.04518264 0.00974918
v 0.00224157 -0.04518264 0.00974918
v -0.00386724 -0.01366863 0.00255086
v 0.00224157 -0.01402095 0.00256182
v -0.00386724 -0.04519500 0.00884920
v 0.00224157 -0.04519500 0.00884920
v -0.00386724 -0.01366245 0.00236774
v 0.00224157 -0.01399622 0.00166027
v -0.00386724 -0.01364081 0.00165088
v -0.00386724 -0.04519500 0.00075089
v 0.00224157 -0.04519500 0.00075089
v 0.00224157 -0.01397459 0.00076341
v -0.00386724 -0.01362227 0.00075089
v -0.00386724 -0.04499721 0.00009664
v 0.00224157 -0.04494467 -0.00007083
v 0.00224157 -0.01397459 0.00075089
v -0.00386724 -0.01365317 0.00060063
v 0.00224157 -0.01403331 0.00012638
v -0.00386724 -0.04494467 -0.00007083
v 0.00224157 -0.04424930 -0.00046839
v -0.00386724 -0.01385715 -0.00005362
v 0.00224157 -0.01454942 -0.00027118
v -0.00386724 -0.04424930 -0.00046839
v 0.00224157 -0.04334996 -0.00049500
v -0.00386724 -0.01397768 -0.00013344
v 0.00224157 -0.01545186 -0.00049500
v -0.00386724 -0.01455252 -0.00045117
v -0.00386724 -0.04334996 -0.00049500
v -0.00386724 -0.01545186 -0.00049500
v -0.00386724 -0.01473486 -0.00047152
f 1 2 3
f 1 3 4
f 1 4 8
f 1 8 5
f 1 5 9
f 1 9 13
f 1 13 17
f 1 17 22
f 1 22 26
f 1 26 33
f 1 33 38
f 1 38 44
f 1 44 50
f 1 50 56
f 1 56 60
f 1 60 64
f 1 64 69
f 1 69 74
f 1 74 78
f 1 78 83
f 1 83 87
f 1 87 92
f 1 92 96
f 1 96 98
f 1 98 94
f 1 94 90
f 1 90 88
f 1 88 84
f 1 84 80
f 1 80 76
f 1 76 72
f 1 72 70
f 1 70 65
f 1 65 61
f 1 61 57
f 1 57 52
f 1 52 51
f 1 51 45
f 1 45 40
f 1 40 39
f 1 39 34
f 1 34 28
f 1 28 27
f 1 27 23
f 1 23 19
f 1 19 18
f 1 18 14
f 1 14 10
f 1 10 6
f 1 6 2
f 2 6 7
f 2 7 3
f 3 7 11
f 3 11 15
f 3 15 20
f 3 20 24
f 3 24 29
f 3 29 35
f 3 35 41
f 3 41 46
f 3 46 53
f 3 53 58
f 3 58 62
f 3 62 66
f 3 66 71
f 3 71 75
f 3 75 79
f 3 79 81
f 3 81 85
f 3 85 89
f 3 89 93
f 3 93 97
f 3 97 99
f 3 99 102
f 3 102 101
f 3 101 100
f 3 100 95
f 3 95 91
f 3 91 86
f 3 86 82
f 3 82 77
f 3 77 73
f 3 73 68
f 3 68 67
f 3 67 63
f 3 63 59
f 3 59 54
f 3 54 49
f 3 49 48
f 3 48 47
f 3 47 42
f 3 42 36
f 3 36 32
f 3 32 31
f 3 31 30
f 3 30 25
f 3 25 21
f 3 21 16
f 3 16 12
f 3 12 8
f 3 8 4
f 5 8 12
f 5 12 9
f 6 10 7
f 7 10 11
f 9 12 16
f 9 16 13
f 10 14 11
f 11 14 15
f 13 16 17
f 14 18 15
f 15 19 20
f 15 18 19
f 16 21 17
f 17 21 22
f 19 23 24
f 19 24 20
f 21 25 22
f 22 25 26
f 23 27 24
f 24 27 28
f 24 28 29
f 25 30 26
f 26 31 32
f 26 32 33
f 26 30 31
f 28 34 29
f 29 34 35
f 32 36 33
f 33 36 37
f 33 37 38
f 34 39 35
f 35 40 41
f 35 39 40
f 36 42 37
f 37 42 43
f 37 43 44
f 37 44 38
f 40 45 41
f 41 45 46
f 42 47 43
f 43 47 44
f 44 47 48
f 44 48 49
f 44 49 50
f 45 51 46
f 46 51 52
f 46 52 53
f 49 54 55
f 49 55 50
f 50 55 56
f 52 57 58
f 52 58 53
f 54 59 60
f 54 60 55
f 55 60 56
f 57 61 62
f 57 62 58
f 59 63 60
f 60 63 64
f 61 65 62
f 62 65 66
f 63 67 64
f 64 67 68
f 64 68 69
f 65 70 66
f 66 70 72
f 66 72 71
f 68 73 74
f 68 74 69
f 71 72 75
f 72 76 75
f 73 77 78
f 73 78 74
f 75 76 79
f 76 80 81
f 76 81 79
f 77 82 83
f 77 83 78
f 80 84 81
f 81 84 85
f 82 86 83
f 83 86 87
f 84 88 85
f 85 88 90
f 85 90 89
f 86 91 87
f 87 91 95
f 87 95 92
f 89 90 93
f 90 94 93
f 92 95 100
f 92 100 96
f 93 94 97
f 94 98 99
f 94 99 97
f 96 100 101
f 96 101 98
f 98 101 102
f 98 102 99

