# https://github.com/mikedh/trimesh
v 0.02025257 0.04579500 0.00884920
v 0.02025257 0.04578364 0.00974918
v 0.02115159 0.04575524 0.00974918
v 0.02115159 0.04576375 0.00884920
v 0.02025257 0.04579500 0.00075089
v 0.01304135 0.04579500 0.00884920
v 0.01304135 0.04578364 0.00975857
v 0.02025257 0.04572399 0.01064917
v 0.02115159 0.04569558 0.01064917
v 0.02205061 0.04568990 0.00974918
v 0.02115159 0.04576375 0.00345085
v 0.02205061 0.04569842 0.00884920
v 0.02115159 0.04576091 0.00165088
v 0.02115159 0.04575807 0.00075089
v 0.02115159 0.04552798 -0.00006301
v 0.02025257 0.04554503 -0.00007083
v 0.01304135 0.04554787 -0.00006301
v 0.01304135 0.04579500 0.00075089
v 0.01304135 0.04572399 0.01064917
v 0.02025257 0.04553366 0.01154915
v 0.02115159 0.04550526 0.01154915
v 0.02205061 0.04562741 0.01064917
v 0.02295280 0.04554503 0.00974918
v 0.02295280 0.04555639 0.00884920
v 0.02205061 0.04569842 0.00794921
v 0.02205061 0.04569274 0.00435083
v 0.02205061 0.04568138 0.00075089
v 0.02205061 0.04548822 -0.00004109
v 0.02115159 0.04484908 -0.00046057
v 0.02205061 0.04484908 -0.00043865
v 0.02025257 0.04484908 -0.00046839
v 0.01304135 0.04554503 -0.00007083
v 0.01304135 0.04553366 0.01154915
v 0.02025257 0.04534619 0.01210636
v 0.02115159 0.04533198 0.01207506
v 0.02173611 0.04531210 0.01202810
v 0.02204108 0.04541720 0.01161019
v 0.02295280 0.04536607 0.01130968
v 0.02295280 0.04548254 0.01064917
v 0.02355003 0.04533766 0.01064917
v 0.02366757 0.04536891 0.00974918
v 0.02295280 0.04555639 0.00525082
v 0.02368663 0.04537459 0.00884920
v 0.02368981 0.04537743 0.00794921
v 0.02368345 0.04538027 0.00615080
v 0.02295280 0.04555355 0.00345085
v 0.02295280 0.04555071 0.00255086
v 0.02295280 0.04554219 0.00075089
v 0.02356274 0.04534903 0.00017803
v 0.02295280 0.04542004 0.00004499
v 0.02295280 0.04484908 -0.00035257
v 0.02385182 0.04394861 -0.00049187
v 0.02475084 0.04394861 -0.00046526
v 0.02295280 0.04394861 -0.00049500
v 0.01304135 0.04484908 -0.00046839
v 0.01304135 0.04534619 0.01210636
v 0.02025257 0.04512746 0.01255714
v 0.02115159 0.04511042 0.01252427
v 0.02204108 0.04510189 0.01237557
v 0.02233651 0.04528085 0.01195141
v 0.02295280 0.04522120 0.01176045
v 0.02343567 0.04530642 0.01112811
v 0.02400113 0.04521268 0.01064917
v 0.02411867 0.04524676 0.00974918
v 0.02367710 0.04538027 0.00435083
v 0.02413773 0.04525244 0.00884920
v 0.02413773 0.04525244 0.00705079
v 0.02367075 0.04538027 0.00345085
v 0.02364851 0.04537459 0.00075089
v 0.02409961 0.04523824 0.00075089
v 0.02475084 0.04500247 0.00075089
v 0.02546879 0.04453945 0.00007160
v 0.02475084 0.04469853 -0.00006770
v 0.02565304 0.04304814 -0.00049343
v 0.02571975 0.04402814 -0.00015379
v 0.02655206 0.04304814 -0.00041987
v 0.02745108 0.04214766 -0.00045900
v 0.02655206 0.04214766 -0.00049500
v 0.01304135 0.04394861 -0.00049500
v 0.01304135 0.04512746 0.01255714
v 0.02025257 0.04467580 0.01326773
v 0.02115159 0.04465876 0.01324895
v 0.02205061 0.04461615 0.01319260
v 0.02295280 0.04453377 0.01308617
v 0.02295280 0.04490589 0.01244914
v 0.02386453 0.04463035 0.01249453
v 0.02378193 0.04509337 0.01147715
v 0.02475084 0.04494566 0.01064917
v 0.02475084 0.04501667 0.00974918
v 0.02475084 0.04502520 0.00884920
v 0.02412502 0.04524676 0.00435083
v 0.02475084 0.04502520 0.00705079
v 0.02475084 0.04501384 0.00345085
v 0.02560856 0.04461615 0.00165088
v 0.02560221 0.04461331 0.00075089
v 0.02605331 0.04437186 0.00075089
v 0.02711434 0.04359069 0.00013421
v 0.02655206 0.04377817 -0.00002231
v 0.02835010 0.04124719 -0.00046370
v 0.02742884 0.04304529 -0.00008962
v 0.02835963 0.04215902 -0.00012248
v 0.02925229 0.04034956 -0.00046370
v 0.02925229 0.03944908 -0.00049500
v 0.01304135 0.01677536 -0.00049500
v 0.01304135 0.04467580 0.01326773
v 0.02025257 0.04432641 0.01371694
v 0.02115159 0.04430936 0.01369972
v 0.02205061 0.04426107 0.01364338
v 0.02295280 0.04417302 0.01353695
v 0.02357227 0.04445424 0.01297817
v 0.02417267 0.04435481 0.01282478
v 0.02459201 0.04451957 0.01222531
v 0.02483661 0.04466444 0.01163367
v 0.02539255 0.04449968 0.01138950
v 0.02554503 0.04457922 0.01064917
v 0.02560856 0.04461615 0.00974918
v 0.02561809 0.04462183 0.00884920
v 0.02562445 0.04462183 0.00705079
v 0.02562445 0.04462183 0.00615080
v 0.02562127 0.04461899 0.00435083
v 0.02607555 0.04438322 0.00525082
v 0.02606602 0.04438038 0.00345085
v 0.02606284 0.04437754 0.00255086
v 0.02655206 0.04405939 0.00075089
v 0.02716835 0.04363614 0.00075089
v 0.02761944 0.04326686 0.00075089
v 0.02814678 0.04281520 0.00075089
v 0.02806419 0.04274419 0.00008256
v 0.02926182 0.04125855 -0.00012561
v 0.02896956 0.04186644 0.00007786
v 0.04005959 0.03046140 -0.00012561
v 0.04094908 0.02865194 -0.00046370
v 0.04094908 0.02775146 -0.00049500
v 0.01304135 0.01677536 0.00959579
v 0.04364931 0.01677536 -0.00049500
v 0.01304135 0.04432073 0.01372164
v 0.01305088 0.04432641 0.01371694
v 0.02025257 0.04387475 0.01412233
v 0.02115159 0.04386055 0.01411137
v 0.02205061 0.04380942 0.01407381
v 0.02295280 0.04372420 0.01400337
v 0.02385182 0.04358501 0.01388129
v 0.02386453 0.04408212 0.01330686
v 0.02466507 0.04372988 0.01335538
v 0.02541796 0.04362478 0.01305800
v 0.02483661 0.04426675 0.01249453
v 0.02519241 0.04439458 0.01198897
v 0.02567845 0.04425823 0.01163367
v 0.02706351 0.04354808 0.01122985
v 0.02599295 0.04433777 0.01064917
v 0.02605649 0.04437470 0.00974918
v 0.02606919 0.04438038 0.00884920
v 0.02607237 0.04438322 0.00705079
v 0.02607555 0.04438322 0.00615080
v 0.02655206 0.04407359 0.00525082
v 0.02718423 0.04364182 0.00884920
v 0.02763215 0.04326970 0.00884920
v 0.02814678 0.04282089 0.00884920
v 0.02859471 0.04239764 0.00075089
v 0.02905216 0.04194882 0.00075089
v 0.03984992 0.03115167 0.00075089
v 0.04066634 0.03016882 0.00007786
v 0.04095861 0.02956093 -0.00012561
v 0.04185763 0.02866046 -0.00012405
v 0.04184809 0.02775146 -0.00045900
v 0.04274712 0.02595052 -0.00049343
v 0.04184809 0.02685099 -0.00049500
v 0.02216497 0.01677536 0.01459501
v 0.01304135 0.02422343 0.01432580
v 0.04364931 0.02325194 -0.00049500
v 0.04454833 0.01677536 -0.00046839
v 0.01304135 0.04387475 0.01412233
v 0.02025257 0.04330095 0.01457154
v 0.02115159 0.04328674 0.01456215
v 0.01304135 0.04386907 0.01412702
v 0.02205061 0.04323277 0.01452458
v 0.02295280 0.04313335 0.01445258
v 0.02378829 0.04296860 0.01436650
v 0.02430610 0.04349979 0.01380146
v 0.02490650 0.04335776 0.01365903
v 0.02574199 0.04310211 0.01341799
v 0.02601836 0.04344866 0.01282165
v 0.02569116 0.04382930 0.01249296
v 0.02630110 0.04362762 0.01222062
v 0.02658065 0.04374692 0.01153663
v 0.02713340 0.04360205 0.01064917
v 0.02655206 0.04399122 0.01064917
v 0.02690150 0.04342594 0.01182932
v 0.02746696 0.04306234 0.01158359
v 0.02800701 0.04269590 0.01133942
v 0.02758132 0.04322709 0.01064917
v 0.02655206 0.04406223 0.00974918
v 0.02655206 0.04407359 0.00884920
v 0.02717788 0.04363614 0.00974918
v 0.02762897 0.04326402 0.00974918
v 0.02814043 0.04281520 0.00974918
v 0.02859471 0.04239764 0.00884920
v 0.02905216 0.04194882 0.00884920
v 0.03984992 0.03115167 0.00884920
v 0.04164796 0.02935072 0.00075089
v 0.04156536 0.02926835 0.00007786
v 0.04244532 0.02836503 0.00008256
v 0.04274712 0.02772874 -0.00008962
v 0.04274712 0.02685099 -0.00041987
v 0.04364931 0.02505005 -0.00046526
v 0.04364931 0.02415241 -0.00049187
v 0.02277490 0.01677536 0.01485640
v 0.01304135 0.02508413 0.01482040
v 0.01304135 0.02496483 0.01475779
v 0.01304135 0.02439387 0.01443380
v 0.04454833 0.02055052 -0.00046839
v 0.04524721 0.01677536 -0.00007083
v 0.02025257 0.04284929 0.01483919
v 0.02115159 0.04283509 0.01483292
v 0.01305088 0.04330095 0.01457154
v 0.02205061 0.04278396 0.01480475
v 0.01304135 0.04329527 0.01457467
v 0.02295280 0.04268454 0.01474997
v 0.02344520 0.04261636 0.01470927
v 0.02404560 0.04248854 0.01463571
v 0.02466507 0.04305382 0.01401902
v 0.02546243 0.04275839 0.01392668
v 0.02606284 0.04257091 0.01377642
v 0.02655206 0.04280952 0.01313469
v 0.02704128 0.04263056 0.01293748
v 0.02658065 0.04326686 0.01249296
v 0.02723506 0.04279532 0.01244914
v 0.02787041 0.04257091 0.01193888
v 0.02809596 0.04277544 0.01064917
v 0.02839457 0.04219027 0.01164619
v 0.02891238 0.04180679 0.01135194
v 0.02854705 0.04234934 0.01064917
v 0.02858835 0.04239195 0.00974918
v 0.02904581 0.04194314 0.00974918
v 0.04074259 0.03024552 0.00974918
v 0.04164796 0.02935072 0.00884920
v 0.04209906 0.02889623 0.00075089
v 0.04251839 0.02844741 0.00075089
v 0.04329034 0.02741343 0.00013264
v 0.04347777 0.02685099 -0.00002231
v 0.04372873 0.02602153 -0.00015379
v 0.04439902 0.02505005 -0.00006770
v 0.04454833 0.02325194 -0.00035257
v 0.04454833 0.02235147 -0.00043865
v 0.04454833 0.02145100 -0.00046057
v 0.02290515 0.01677536 0.01491118
v 0.01304135 0.02594484 0.01514283
v 0.04524721 0.02055052 -0.00007083
v 0.04549500 0.01677536 0.00075089
v 0.02025257 0.04214766 0.01514440
v 0.01304135 0.04284929 0.01483919
v 0.01304135 0.04284361 0.01484232
v 0.02115159 0.04214766 0.01513031
v 0.02205061 0.04214766 0.01508022
v 0.02295280 0.04214766 0.01498475
v 0.02378829 0.04217323 0.01484701
v 0.02475084 0.04185224 0.01477814
v 0.02475084 0.04230389 0.01452302
v 0.02564351 0.04214198 0.01425850
v 0.02655206 0.04192894 0.01396268
v 0.02704128 0.04173293 0.01382651
v 0.02655206 0.04238059 0.01358547
v 0.02733989 0.04205108 0.01325365
v 0.02797206 0.04176702 0.01297035
v 0.02768298 0.04240616 0.01244914
v 0.02816267 0.04195450 0.01244914
v 0.02877896 0.04167612 0.01195297
v 0.02900133 0.04189769 0.01064917
v 0.04137794 0.02908087 0.01195297
v 0.04060916 0.03011201 0.01135194
v 0.04025019 0.03065172 0.01064917
v 0.04164161 0.02934504 0.00974918
v 0.04209906 0.02889623 0.00884920
v 0.04252156 0.02844741 0.00345085
v 0.04297266 0.02793326 0.00615080
v 0.04297266 0.02792758 0.00435083
v 0.04296949 0.02792190 0.00165088
v 0.04296631 0.02791906 0.00075089
v 0.04333799 0.02747024 0.00075089
v 0.04376050 0.02685099 0.00075089
v 0.04407182 0.02635388 0.00075089
v 0.04424018 0.02576872 0.00007160
v 0.04504708 0.02386267 0.00017803
v 0.04512014 0.02325194 0.00004499
v 0.04519003 0.02235147 -0.00004109
v 0.04522815 0.02145100 -0.00006301
v 0.02385182 0.01677536 0.01521014
v 0.01304135 0.02595052 0.01514440
v 0.04549500 0.02055052 0.00075089
v 0.04549500 0.01677536 0.00884920
v 0.02025257 0.04124719 0.01537448
v 0.02115159 0.04124719 0.01536665
v 0.01304135 0.04214766 0.01514440
v 0.02205061 0.04124719 0.01533692
v 0.02295280 0.04124719 0.01528213
v 0.02385182 0.04124719 0.01518666
v 0.02475084 0.04124719 0.01501449
v 0.02522418 0.04171305 0.01470771
v 0.02582458 0.04149148 0.01459032
v 0.02652347 0.04121310 0.01441502
v 0.02738436 0.04118469 0.01395955
v 0.02794665 0.04084382 0.01383120
v 0.02764168 0.04144319 0.01356981
v 0.02825797 0.04115629 0.01327086
v 0.02916017 0.04025582 0.01327086
v 0.02887108 0.04086939 0.01297035
v 0.02861377 0.04151137 0.01244914
v 0.04031055 0.02981374 0.01244914
v 0.04120957 0.02891327 0.01244914
v 0.04165431 0.02846161 0.01244914
v 0.04227060 0.02817187 0.01193888
v 0.04188939 0.02869455 0.01164619
v 0.04150818 0.02921154 0.01135194
v 0.04114921 0.02975125 0.01064917
v 0.04159713 0.02930244 0.01064917
v 0.04209271 0.02889055 0.00974918
v 0.04252156 0.02844741 0.00884920
v 0.04297266 0.02793610 0.00884920
v 0.04334434 0.02748445 0.00794921
v 0.04334117 0.02748161 0.00525082
v 0.04334117 0.02747876 0.00435083
v 0.04377638 0.02685099 0.00525082
v 0.04408452 0.02637377 0.00525082
v 0.04407817 0.02636241 0.00255086
v 0.04431643 0.02590791 0.00165088
v 0.04431325 0.02590223 0.00075089
v 0.04470082 0.02505005 0.00075089
v 0.04507249 0.02394789 0.00075089
v 0.04524086 0.02325194 0.00075089
v 0.04493590 0.02439955 0.00075089
v 0.04537746 0.02235147 0.00075089
v 0.04545688 0.02145100 0.00075089
v 0.02475084 0.01677536 0.01538387
v 0.01304135 0.02685099 0.01535726
v 0.04549500 0.02055052 0.00884920
v 0.04546323 0.02145100 0.00884920
v 0.04548229 0.01677536 0.00974918
v 0.02025257 0.04034956 0.01546839
v 0.02115159 0.04034956 0.01546683
v 0.01304135 0.04124719 0.01537448
v 0.01304135 0.04123867 0.01537605
v 0.02205061 0.04034956 0.01545900
v 0.02295280 0.04034956 0.01543865
v 0.02385182 0.04034956 0.01537918
v 0.02475084 0.04034956 0.01527118
v 0.02565304 0.04034956 0.01508805
v 0.02557680 0.04121310 0.01480788
v 0.02620579 0.04089211 0.01474214
v 0.02680302 0.04060521 0.01460597
v 0.02742566 0.04032115 0.01442754
v 0.02828974 0.04028422 0.01396268
v 0.02918876 0.03938659 0.01396268
v 0.03874441 0.03004667 0.01383120
v 0.02854705 0.04054272 0.01356981
v 0.03815671 0.03125961 0.01327086
v 0.03876983 0.03097271 0.01297035
v 0.04146689 0.02827129 0.01297035
v 0.04210541 0.02798439 0.01244914
v 0.04249615 0.02753558 0.01244914
v 0.04312832 0.02720039 0.01182932
v 0.04275982 0.02776851 0.01158359
v 0.04239450 0.02830822 0.01133942
v 0.04204823 0.02884510 0.01064917
v 0.04247709 0.02839628 0.01064917
v 0.04251521 0.02843889 0.00974918
v 0.04296631 0.02792758 0.00974918
v 0.04333799 0.02747876 0.00974918
v 0.04334434 0.02748445 0.00884920
v 0.04377638 0.02685099 0.00884920
v 0.04408452 0.02637661 0.00615080
v 0.04431960 0.02592495 0.00525082
v 0.04431960 0.02591927 0.00435083
v 0.04472305 0.02505005 0.00615080
v 0.04471034 0.02505005 0.00255086
v 0.04494225 0.02441375 0.00255086
v 0.04507567 0.02395641 0.00165088
v 0.04507885 0.02396209 0.00255086
v 0.04525357 0.02325194 0.00435083
v 0.04539652 0.02235147 0.00884920
v 0.02565304 0.01677536 0.01546526
v 0.02475084 0.01695147 0.01540265
v 0.01304135 0.02775146 0.01545900
v 0.01305088 0.02685099 0.01535883
v 0.04545370 0.02145100 0.00974918
v 0.04548229 0.02055052 0.00974918
v 0.04547277 0.01677536 0.00992448
v 0.02205061 0.03944908 0.01549500
v 0.01304135 0.04034956 0.01546839
v 0.02295280 0.03944908 0.01548717
v 0.02385182 0.03944908 0.01546683
v 0.02475084 0.03944908 0.01541205
v 0.02565304 0.03944908 0.01529622
v 0.02655206 0.03944908 0.01509744
v 0.02652347 0.04032115 0.01483449
v 0.02710799 0.04000585 0.01474527
v 0.02770839 0.03970474 0.01460597
v 0.02922688 0.03852304 0.01442754
v 0.03998652 0.02858944 0.01396268
v 0.04054245 0.02824573 0.01383120
v 0.04024384 0.02884510 0.01356981
v 0.04085695 0.02855820 0.01327086
v 0.04114286 0.02793894 0.01356981
v 0.04143512 0.02733957 0.01382651
v 0.04174962 0.02764068 0.01325365
v 0.04233096 0.02734241 0.01293748
v 0.04296631 0.02688224 0.01249296
v 0.04332528 0.02660102 0.01222062
v 0.04344918 0.02688224 0.01153820
v 0.04324586 0.02736230 0.01122985
v 0.04292501 0.02788213 0.01064917
v 0.04329987 0.02743331 0.01064917
v 0.04376367 0.02685099 0.00974918
v 0.04408135 0.02636809 0.00884920
v 0.04432278 0.02591927 0.00884920
v 0.04432278 0.02592211 0.00794921
v 0.04432278 0.02592211 0.00705079
v 0.04472623 0.02505005 0.00794921
v 0.04495178 0.02443647 0.00705079
v 0.04494860 0.02443079 0.00525082
v 0.04507885 0.02397062 0.00345085
v 0.04507885 0.02397630 0.00435083
v 0.04525675 0.02325194 0.00705079
v 0.04525675 0.02325194 0.00884920
v 0.04538699 0.02235147 0.00974918
v 0.02655206 0.01677536 0.01549187
v 0.02565304 0.01695147 0.01547309
v 0.01305088 0.02865194 0.01549500
v 0.01304135 0.02864341 0.01549343
v 0.04539652 0.02145100 0.01064917
v 0.04542193 0.02055052 0.01064917
v 0.04542193 0.01677536 0.01064917
v 0.02295280 0.03854861 0.01549500
v 0.02385182 0.03854861 0.01549343
v 0.01304135 0.03944908 0.01549500
v 0.02475084 0.03854861 0.01547465
v 0.02565304 0.03854861 0.01541518
v 0.02655206 0.03854861 0.01529779
v 0.03734982 0.02865194 0.01509744
v 0.02922688 0.03762257 0.01483605
v 0.02742566 0.03942352 0.01483605
v 0.02890920 0.03820490 0.01474527
v 0.03850616 0.02890759 0.01460597
v 0.03912245 0.02862637 0.01442754
v 0.04002147 0.02772590 0.01442754
v 0.04088554 0.02768329 0.01395955
v 0.04162890 0.02685099 0.01396268
v 0.04227060 0.02636241 0.01377642
v 0.04208000 0.02685099 0.01358547
v 0.04091413 0.02682258 0.01441502
v 0.04251204 0.02685099 0.01313469
v 0.04314738 0.02631980 0.01282165
v 0.04352859 0.02599313 0.01249296
v 0.04409406 0.02549318 0.01198897
v 0.04395745 0.02597608 0.01163367
v 0.04419889 0.02569202 0.01138950
v 0.04403687 0.02629423 0.01064917
v 0.04369061 0.02685099 0.01064917
v 0.04407182 0.02635672 0.00974918
v 0.04431643 0.02590791 0.00974918
v 0.04472623 0.02505005 0.00884920
v 0.04495178 0.02443932 0.00794921
v 0.04507885 0.02398482 0.00615080
v 0.04507885 0.02398766 0.00705079
v 0.04507567 0.02398766 0.00884920
v 0.04524721 0.02325194 0.00974918
v 0.04532663 0.02235147 0.01064917
v 0.02745108 0.01677536 0.01549500
v 0.02655206 0.01695147 0.01549500
v 0.01304135 0.02955241 0.01549500
v 0.04520592 0.02145100 0.01154915
v 0.04523451 0.02055052 0.01154915
v 0.04523451 0.01875242 0.01154915
v 0.04523133 0.01677536 0.01154915
v 0.02565304 0.03674767 0.01549343
v 0.03734982 0.02415241 0.01549500
v 0.02565304 0.03764814 0.01547465
v 0.02925229 0.03494956 0.01541518
v 0.03734982 0.02775146 0.01529779
v 0.03914786 0.02685099 0.01509744
v 0.03822343 0.02862637 0.01483605
v 0.03790575 0.02920870 0.01474527
v 0.03940518 0.02800712 0.01460597
v 0.04030420 0.02710381 0.01460597
v 0.04119051 0.02612380 0.01459032
v 0.04184174 0.02594200 0.01425850
v 0.04245803 0.02576020 0.01392668
v 0.04305843 0.02520628 0.01365903
v 0.04280430 0.02604142 0.01341799
v 0.04059011 0.02650444 0.01474214
v 0.04332528 0.02572043 0.01305800
v 0.04421795 0.02489381 0.01222531
v 0.04436408 0.02513527 0.01163367
v 0.04396698 0.02513527 0.01249453
v 0.04464046 0.02505005 0.01064917
v 0.04427831 0.02584257 0.01064917
v 0.04471352 0.02505005 0.00974918
v 0.04495178 0.02443647 0.00884920
v 0.04506932 0.02396493 0.00974918
v 0.04503755 0.02384563 0.01064917
v 0.04518368 0.02325194 0.01064917
v 0.04506614 0.02325194 0.01130968
v 0.04511697 0.02234011 0.01161019
v 0.03914786 0.01677536 0.01549500
v 0.04501213 0.02203616 0.01202810
v 0.04503119 0.02145100 0.01207506
v 0.04504708 0.02055052 0.01210636
v 0.04504708 0.01677536 0.01210636
v 0.04519639 0.01677536 0.01165715
v 0.02925229 0.03314862 0.01549343
v 0.03914786 0.02235147 0.01549500
v 0.03824884 0.02415241 0.01549343
v 0.02925229 0.03404909 0.01547465
v 0.03464959 0.02955241 0.01541518
v 0.03734982 0.02685099 0.01541518
v 0.03824884 0.02685099 0.01529779
v 0.03914786 0.02595052 0.01529622
v 0.04004688 0.02595052 0.01508805
v 0.04002147 0.02682258 0.01483449
v 0.03912245 0.02772590 0.01483605
v 0.03970379 0.02740775 0.01474527
v 0.04141288 0.02552443 0.01470771
v 0.04200376 0.02505005 0.01452302
v 0.04275347 0.02496483 0.01401902
v 0.04320139 0.02460691 0.01380146
v 0.04343011 0.02496483 0.01335538
v 0.04091413 0.02587382 0.01480788
v 0.04405276 0.02447056 0.01282478
v 0.04432914 0.02416378 0.01249453
v 0.04479294 0.02408140 0.01147715
v 0.04500896 0.02373484 0.01112811
v 0.04491048 0.02429728 0.01064917
v 0.04494542 0.02441375 0.00974918
v 0.04492001 0.02325194 0.01176045
v 0.04498037 0.02263553 0.01195141
v 0.04004688 0.01677536 0.01546839
v 0.04480247 0.02234011 0.01237557
v 0.04480882 0.02145100 0.01252427
v 0.04482471 0.02055052 0.01255714
v 0.04482471 0.01677536 0.01255714
v 0.04004688 0.02055052 0.01546839
v 0.04004688 0.02145100 0.01546683
v 0.03914786 0.02325194 0.01548717
v 0.03824884 0.02505005 0.01547465
v 0.03734982 0.02595052 0.01547465
v 0.03464959 0.02865194 0.01547465
v 0.03824884 0.02595052 0.01541518
v 0.03914786 0.02505005 0.01541205
v 0.04004688 0.02505005 0.01527118
v 0.04094908 0.02505005 0.01501449
v 0.04155266 0.02505005 0.01477814
v 0.04218801 0.02434557 0.01463571
v 0.04266770 0.02408708 0.01436650
v 0.04328716 0.02415241 0.01388129
v 0.04378273 0.02416378 0.01330686
v 0.04415441 0.02387119 0.01297817
v 0.04460551 0.02325194 0.01244914
v 0.04077435 0.01677536 0.01539326
v 0.04423383 0.02325194 0.01308617
v 0.04431643 0.02235147 0.01319417
v 0.04436090 0.02145100 0.01324895
v 0.04437679 0.02055052 0.01326773
v 0.04473894 0.01677536 0.01269487
v 0.04094908 0.02055052 0.01537448
v 0.04004688 0.02235147 0.01545900
v 0.03914786 0.02415241 0.01546683
v 0.04004688 0.02325194 0.01543865
v 0.04004688 0.02415241 0.01537918
v 0.04094908 0.02415241 0.01518666
v 0.04187351 0.02408708 0.01484701
v 0.04231508 0.02374337 0.01470927
v 0.04283606 0.02325194 0.01445258
v 0.04342376 0.02325194 0.01400337
v 0.04387486 0.02325194 0.01353695
v 0.04094908 0.01677536 0.01537448
v 0.04396063 0.02235147 0.01364338
v 0.04400828 0.02145100 0.01369972
v 0.04402417 0.02055052 0.01371694
v 0.04437679 0.01677536 0.01326773
v 0.04094908 0.02145100 0.01536665
v 0.04184809 0.02055052 0.01514440
v 0.04094908 0.02235147 0.01533692
v 0.04094908 0.02325194 0.01528213
v 0.04184809 0.02325194 0.01498475
v 0.04238496 0.02325194 0.01474997
v 0.04293454 0.02235147 0.01452458
v 0.04350953 0.02235147 0.01407381
v 0.04184809 0.01677536 0.01514283
v 0.04184809 0.01965005 0.01514440
v 0.04356036 0.02145100 0.01411137
v 0.04357625 0.02055052 0.01412233
v 0.04393840 0.01677536 0.01379677
v 0.04402417 0.01677536 0.01371694
v 0.04184809 0.02145100 0.01513031
v 0.04255016 0.02055052 0.01483919
v 0.04253745 0.02145100 0.01483292
v 0.04184809 0.02235147 0.01508022
v 0.04248344 0.02235147 0.01480475
v 0.04298537 0.02145100 0.01456215
v 0.04241356 0.01677536 0.01489710
v 0.04255016 0.01785195 0.01483919
v 0.04357625 0.01677536 0.01412233
v 0.04300126 0.02055052 0.01457154
v 0.04255016 0.01677536 0.01483762
v 0.04291231 0.01677536 0.01462319
v 0.04300126 0.01875242 0.01457154
v 0.04299808 0.01677536 0.01457154
f 1 2 3
f 1 3 4
f 1 4 11
f 1 11 5
f 1 5 18
f 1 18 6
f 1 6 7
f 1 7 2
f 2 8 9
f 2 9 3
f 2 7 8
f 3 9 10
f 3 10 12
f 3 12 4
f 4 12 25
f 4 25 11
f 5 11 13
f 5 13 14
f 5 14 15
f 5 15 16
f 5 16 17
f 5 17 18
f 6 18 17
f 6 17 32
f 6 32 55
f 6 55 79
f 6 79 104
f 6 104 134
f 6 134 169
f 6 169 210
f 6 210 209
f 6 209 208
f 6 208 247
f 6 247 288
f 6 288 334
f 6 334 382
f 6 382 428
f 6 428 469
f 6 469 434
f 6 434 388
f 6 388 341
f 6 341 340
f 6 340 293
f 6 293 252
f 6 252 251
f 6 251 217
f 6 217 175
f 6 175 172
f 6 172 136
f 6 136 105
f 6 105 80
f 6 80 56
f 6 56 33
f 6 33 19
f 6 19 7
f 7 19 8
f 8 20 21
f 8 21 9
f 8 19 33
f 8 33 20
f 9 21 22
f 9 22 10
f 10 22 39
f 10 39 23
f 10 23 24
f 10 24 12
f 11 25 13
f 12 24 42
f 12 42 25
f 13 25 26
f 13 26 27
f 13 27 14
f 14 27 28
f 14 28 15
f 15 29 16
f 15 28 30
f 15 30 29
f 16 29 31
f 16 31 55
f 16 55 32
f 16 32 17
f 20 34 35
f 20 35 21
f 20 33 56
f 20 56 34
f 21 35 36
f 21 36 37
f 21 37 22
f 22 38 39
f 22 37 38
f 23 39 40
f 23 40 41
f 23 41 24
f 24 41 43
f 24 43 44
f 24 44 45
f 24 45 42
f 25 42 46
f 25 46 26
f 26 46 47
f 26 47 27
f 27 47 48
f 27 48 49
f 27 49 50
f 27 50 28
f 28 50 51
f 28 51 30
f 29 30 52
f 29 52 31
f 30 51 53
f 30 53 52
f 31 52 54
f 31 54 79
f 31 79 55
f 34 57 35
f 34 56 80
f 34 80 57
f 35 57 58
f 35 58 36
f 36 59 60
f 36 60 37
f 36 58 59
f 37 60 38
f 38 60 61
f 38 61 62
f 38 62 39
f 39 62 40
f 40 63 64
f 40 64 41
f 40 62 63
f 41 64 66
f 41 66 43
f 42 45 65
f 42 65 46
f 43 66 44
f 44 66 45
f 45 66 67
f 45 67 65
f 46 65 68
f 46 68 47
f 47 68 69
f 47 69 48
f 48 69 49
f 49 69 70
f 49 70 71
f 49 71 72
f 49 72 73
f 49 73 50
f 50 73 51
f 51 73 53
f 52 53 74
f 52 74 54
f 53 73 75
f 53 75 76
f 53 76 77
f 53 77 74
f 54 74 78
f 54 78 103
f 54 103 133
f 54 133 167
f 54 167 170
f 54 170 135
f 54 135 104
f 54 104 79
f 57 81 82
f 57 82 58
f 57 80 105
f 57 105 81
f 58 82 83
f 58 83 59
f 59 83 84
f 59 84 85
f 59 85 60
f 60 85 61
f 61 85 86
f 61 86 87
f 61 87 62
f 62 87 88
f 62 88 63
f 63 88 64
f 64 88 89
f 64 89 66
f 65 67 68
f 66 89 90
f 66 90 92
f 66 92 67
f 67 91 68
f 67 92 93
f 67 93 91
f 68 91 70
f 68 70 69
f 70 91 71
f 71 93 94
f 71 94 95
f 71 95 72
f 71 91 93
f 72 95 96
f 72 96 97
f 72 97 98
f 72 98 75
f 72 75 73
f 74 77 99
f 74 99 78
f 75 98 76
f 76 98 100
f 76 100 101
f 76 101 77
f 77 101 99
f 78 99 102
f 78 102 103
f 81 106 107
f 81 107 82
f 81 105 137
f 81 137 106
f 82 107 83
f 83 107 108
f 83 108 84
f 84 108 109
f 84 109 110
f 84 110 85
f 85 110 86
f 86 111 112
f 86 112 87
f 86 110 111
f 87 112 113
f 87 113 88
f 88 113 114
f 88 114 115
f 88 115 89
f 89 115 116
f 89 116 117
f 89 117 90
f 90 117 118
f 90 118 119
f 90 119 92
f 92 119 120
f 92 120 93
f 93 120 94
f 94 120 121
f 94 121 122
f 94 122 123
f 94 123 96
f 94 96 95
f 96 123 124
f 96 124 97
f 97 124 125
f 97 125 126
f 97 126 127
f 97 127 128
f 97 128 100
f 97 100 98
f 99 101 129
f 99 129 102
f 100 128 101
f 101 130 129
f 101 128 130
f 102 129 131
f 102 131 132
f 102 132 133
f 102 133 103
f 104 135 171
f 104 171 212
f 104 212 249
f 104 249 290
f 104 290 337
f 104 337 386
f 104 386 431
f 104 431 473
f 104 473 508
f 104 508 507
f 104 507 539
f 104 539 562
f 104 562 578
f 104 578 592
f 104 592 591
f 104 591 601
f 104 601 606
f 104 606 604
f 104 604 603
f 104 603 599
f 104 599 587
f 104 587 574
f 104 574 557
f 104 557 535
f 104 535 503
f 104 503 467
f 104 467 425
f 104 425 380
f 104 380 333
f 104 333 287
f 104 287 246
f 104 246 207
f 104 207 168
f 104 168 134
f 105 136 137
f 106 138 139
f 106 139 107
f 106 137 172
f 106 172 138
f 107 139 140
f 107 140 108
f 108 140 141
f 108 141 109
f 109 141 142
f 109 142 143
f 109 143 110
f 110 143 111
f 111 144 145
f 111 145 146
f 111 146 112
f 111 143 144
f 112 146 147
f 112 147 113
f 113 147 114
f 114 147 148
f 114 148 149
f 114 149 150
f 114 150 115
f 115 150 151
f 115 151 116
f 116 151 152
f 116 152 117
f 117 152 153
f 117 153 118
f 118 153 154
f 118 154 121
f 118 121 119
f 119 121 120
f 121 154 193
f 121 193 155
f 121 155 124
f 121 124 122
f 122 124 123
f 124 155 125
f 125 155 156
f 125 156 126
f 126 157 127
f 126 156 157
f 127 157 158
f 127 158 159
f 127 159 128
f 128 159 130
f 129 130 131
f 130 159 160
f 130 160 161
f 130 161 162
f 130 162 131
f 131 162 201
f 131 201 163
f 131 163 132
f 132 163 164
f 132 164 165
f 132 165 166
f 132 166 167
f 132 167 133
f 134 168 169
f 135 170 211
f 135 211 171
f 136 172 137
f 138 173 174
f 138 174 139
f 138 172 175
f 138 175 173
f 139 174 140
f 140 174 176
f 140 176 141
f 141 176 177
f 141 177 178
f 141 178 142
f 142 178 179
f 142 179 143
f 143 179 144
f 144 179 180
f 144 180 145
f 145 147 146
f 145 180 181
f 145 181 182
f 145 182 183
f 145 183 147
f 147 183 184
f 147 184 148
f 148 184 185
f 148 185 149
f 149 186 187
f 149 187 150
f 149 185 188
f 149 188 189
f 149 189 190
f 149 190 191
f 149 191 186
f 150 187 151
f 151 187 192
f 151 192 152
f 152 192 193
f 152 193 153
f 153 193 154
f 155 193 156
f 156 193 194
f 156 194 195
f 156 195 157
f 157 195 158
f 158 195 196
f 158 196 233
f 158 233 197
f 158 197 159
f 159 197 198
f 159 198 160
f 160 198 199
f 160 199 161
f 161 199 236
f 161 236 200
f 161 200 201
f 161 201 162
f 163 201 164
f 164 202 203
f 164 203 204
f 164 204 165
f 164 201 202
f 165 204 205
f 165 205 166
f 166 205 206
f 166 206 170
f 166 170 167
f 168 207 208
f 168 208 209
f 168 209 210
f 168 210 169
f 170 206 211
f 171 211 248
f 171 248 212
f 173 213 214
f 173 214 174
f 173 175 215
f 173 215 251
f 173 251 213
f 174 214 216
f 174 216 176
f 175 217 215
f 176 216 218
f 176 218 177
f 177 218 219
f 177 219 178
f 178 220 221
f 178 221 179
f 178 219 220
f 179 221 222
f 179 222 180
f 180 222 223
f 180 223 181
f 181 223 182
f 182 223 224
f 182 224 225
f 182 225 226
f 182 226 184
f 182 184 183
f 184 226 188
f 184 188 185
f 186 194 192
f 186 192 187
f 186 191 195
f 186 195 194
f 188 226 227
f 188 227 228
f 188 228 189
f 189 228 190
f 190 229 191
f 190 228 230
f 190 230 231
f 190 231 232
f 190 232 229
f 191 229 196
f 191 196 195
f 192 194 193
f 196 229 232
f 196 232 233
f 197 233 234
f 197 234 198
f 198 234 199
f 199 235 272
f 199 272 236
f 199 234 235
f 200 236 273
f 200 273 237
f 200 237 201
f 201 237 202
f 202 237 238
f 202 238 239
f 202 239 203
f 203 239 240
f 203 240 204
f 204 240 241
f 204 241 205
f 205 241 242
f 205 242 243
f 205 243 244
f 205 244 206
f 206 244 245
f 206 245 211
f 207 246 208
f 208 246 247
f 211 245 248
f 212 248 289
f 212 289 249
f 213 250 214
f 213 251 252
f 213 252 250
f 214 250 253
f 214 253 254
f 214 254 216
f 215 217 251
f 216 254 255
f 216 255 218
f 218 255 219
f 219 255 256
f 219 256 220
f 220 256 257
f 220 257 258
f 220 258 221
f 221 258 222
f 222 258 259
f 222 259 223
f 223 260 261
f 223 261 262
f 223 262 225
f 223 225 224
f 223 259 260
f 225 262 261
f 225 261 263
f 225 263 264
f 225 264 265
f 225 265 227
f 225 227 226
f 227 265 228
f 228 265 266
f 228 266 267
f 228 267 230
f 230 267 231
f 231 268 232
f 231 267 269
f 231 269 270
f 231 270 271
f 231 271 268
f 232 268 234
f 232 234 233
f 234 268 271
f 234 271 235
f 235 271 314
f 235 314 272
f 236 272 316
f 236 316 273
f 237 273 317
f 237 317 274
f 237 274 238
f 238 274 275
f 238 275 276
f 238 276 277
f 238 277 278
f 238 278 239
f 239 279 280
f 239 280 281
f 239 281 282
f 239 282 240
f 239 278 279
f 240 282 241
f 241 282 242
f 242 283 284
f 242 284 243
f 242 282 283
f 243 284 285
f 243 285 244
f 244 285 286
f 244 286 245
f 245 286 248
f 246 287 247
f 247 287 288
f 248 286 289
f 249 289 335
f 249 335 290
f 250 291 292
f 250 292 253
f 250 252 293
f 250 293 340
f 250 340 291
f 253 292 294
f 253 294 254
f 254 294 295
f 254 295 255
f 255 295 296
f 255 296 256
f 256 296 297
f 256 297 257
f 257 297 298
f 257 298 258
f 258 298 259
f 259 298 299
f 259 299 260
f 260 299 300
f 260 300 261
f 261 301 302
f 261 302 303
f 261 303 264
f 261 264 263
f 261 300 301
f 264 303 304
f 264 304 305
f 264 305 306
f 264 306 307
f 264 307 266
f 264 266 265
f 266 307 267
f 267 307 269
f 269 308 309
f 269 309 310
f 269 310 311
f 269 311 312
f 269 312 313
f 269 313 270
f 269 307 308
f 270 313 314
f 270 314 271
f 272 314 315
f 272 315 316
f 273 316 317
f 274 317 318
f 274 318 275
f 275 318 319
f 275 319 320
f 275 320 321
f 275 321 276
f 276 321 279
f 276 279 277
f 277 279 278
f 279 321 322
f 279 322 280
f 280 322 323
f 280 323 324
f 280 324 281
f 281 324 325
f 281 325 326
f 281 326 282
f 282 326 327
f 282 327 283
f 283 328 329
f 283 329 284
f 283 327 330
f 283 330 328
f 284 329 331
f 284 331 285
f 285 331 332
f 285 332 286
f 286 332 289
f 287 333 334
f 287 334 288
f 289 332 336
f 289 336 335
f 290 335 385
f 290 385 337
f 291 338 339
f 291 339 342
f 291 342 292
f 291 340 341
f 291 341 338
f 292 342 343
f 292 343 294
f 294 343 295
f 295 343 344
f 295 344 296
f 296 344 345
f 296 345 297
f 297 345 346
f 297 346 347
f 297 347 298
f 298 347 348
f 298 348 299
f 299 348 300
f 300 348 349
f 300 349 350
f 300 350 301
f 301 350 351
f 301 351 302
f 302 351 352
f 302 352 398
f 302 398 353
f 302 353 354
f 302 354 303
f 303 354 304
f 304 354 305
f 305 354 355
f 305 355 356
f 305 356 306
f 306 356 307
f 307 356 308
f 308 356 357
f 308 357 309
f 309 357 310
f 310 357 358
f 310 358 311
f 311 358 359
f 311 359 360
f 311 360 361
f 311 361 362
f 311 362 312
f 312 362 313
f 313 315 314
f 313 362 363
f 313 363 315
f 315 363 316
f 316 363 364
f 316 364 365
f 316 365 317
f 317 365 366
f 317 366 318
f 318 366 367
f 318 367 368
f 318 368 319
f 319 368 369
f 319 369 322
f 319 322 320
f 320 322 321
f 322 369 370
f 322 370 323
f 323 370 371
f 323 371 372
f 323 372 325
f 323 325 324
f 325 372 373
f 325 373 374
f 325 374 327
f 325 327 326
f 327 374 375
f 327 375 330
f 328 376 329
f 328 330 376
f 329 376 377
f 329 377 378
f 329 378 331
f 330 375 376
f 331 379 332
f 331 378 379
f 332 379 336
f 333 380 381
f 333 381 382
f 333 382 383
f 333 383 334
f 334 383 382
f 335 336 384
f 335 384 385
f 336 379 424
f 336 424 384
f 337 385 386
f 338 387 339
f 338 341 388
f 338 388 434
f 338 434 387
f 339 387 389
f 339 389 342
f 342 389 343
f 343 389 390
f 343 390 391
f 343 391 344
f 344 391 345
f 345 391 392
f 345 392 346
f 346 392 393
f 346 393 394
f 346 394 348
f 346 348 347
f 348 394 395
f 348 395 349
f 349 395 396
f 349 396 350
f 350 396 397
f 350 397 351
f 351 397 352
f 352 397 398
f 353 398 399
f 353 399 400
f 353 400 354
f 354 400 355
f 355 400 401
f 355 401 356
f 356 401 357
f 357 401 402
f 357 402 403
f 357 403 404
f 357 404 405
f 357 405 358
f 358 405 359
f 359 405 406
f 359 406 360
f 360 406 407
f 360 407 408
f 360 408 409
f 360 409 361
f 361 409 362
f 362 364 363
f 362 409 364
f 364 409 410
f 364 410 366
f 364 366 365
f 366 410 411
f 366 411 367
f 367 411 412
f 367 412 369
f 367 369 368
f 369 413 370
f 369 412 413
f 370 413 414
f 370 414 415
f 370 415 416
f 370 416 371
f 371 416 417
f 371 417 373
f 371 373 372
f 373 417 418
f 373 418 419
f 373 419 374
f 374 419 375
f 375 419 377
f 375 377 376
f 377 419 420
f 377 420 378
f 378 420 421
f 378 421 422
f 378 422 379
f 379 422 423
f 379 423 465
f 379 465 424
f 380 425 426
f 380 426 382
f 380 382 381
f 382 427 428
f 382 426 427
f 384 424 429
f 384 429 385
f 385 429 430
f 385 430 386
f 386 430 431
f 387 432 433
f 387 433 389
f 387 434 469
f 387 469 427
f 387 427 468
f 387 468 467
f 387 467 503
f 387 503 510
f 387 510 475
f 387 475 432
f 389 433 435
f 389 435 390
f 390 435 391
f 391 435 436
f 391 436 392
f 392 436 437
f 392 437 393
f 393 437 478
f 393 478 438
f 393 438 439
f 393 439 440
f 393 440 394
f 394 440 395
f 395 440 439
f 395 439 441
f 395 441 396
f 396 441 442
f 396 442 397
f 397 442 443
f 397 443 398
f 398 443 444
f 398 444 445
f 398 445 399
f 399 445 403
f 399 403 402
f 399 402 400
f 400 402 401
f 403 446 447
f 403 447 448
f 403 448 405
f 403 405 404
f 403 445 449
f 403 449 446
f 405 448 447
f 405 447 450
f 405 450 451
f 405 451 406
f 406 451 407
f 407 452 453
f 407 453 454
f 407 454 408
f 407 451 452
f 408 454 455
f 408 455 409
f 409 455 456
f 409 456 457
f 409 457 411
f 409 411 410
f 411 457 412
f 412 457 458
f 412 458 413
f 413 458 459
f 413 459 414
f 414 459 460
f 414 460 415
f 415 460 417
f 415 417 416
f 417 460 461
f 417 461 418
f 418 461 462
f 418 462 421
f 418 421 420
f 418 420 419
f 421 462 422
f 422 462 463
f 422 463 423
f 423 463 464
f 423 464 465
f 424 465 466
f 424 466 429
f 425 467 468
f 425 468 427
f 425 427 426
f 427 469 428
f 429 466 470
f 429 470 471
f 429 471 430
f 430 471 472
f 430 472 431
f 431 472 473
f 432 474 433
f 432 475 509
f 432 509 474
f 433 474 476
f 433 476 435
f 435 476 436
f 436 476 512
f 436 512 477
f 436 477 478
f 436 478 437
f 438 478 515
f 438 515 479
f 438 479 519
f 438 519 480
f 438 480 439
f 439 480 481
f 439 481 441
f 441 481 442
f 442 481 520
f 442 520 482
f 442 482 444
f 442 444 443
f 444 482 483
f 444 483 449
f 444 449 445
f 446 449 484
f 446 484 485
f 446 485 447
f 447 486 487
f 447 487 488
f 447 488 451
f 447 451 450
f 447 485 486
f 449 483 489
f 449 489 484
f 451 488 490
f 451 490 452
f 452 490 453
f 453 491 492
f 453 492 455
f 453 455 454
f 453 490 493
f 453 493 491
f 455 492 494
f 455 494 495
f 455 495 456
f 456 495 459
f 456 459 458
f 456 458 457
f 459 495 496
f 459 496 460
f 460 497 461
f 460 496 497
f 461 497 463
f 461 463 462
f 463 497 464
f 464 498 465
f 464 497 532
f 464 532 498
f 465 498 499
f 465 499 500
f 465 500 466
f 466 500 501
f 466 501 502
f 466 502 470
f 470 502 504
f 470 504 505
f 470 505 471
f 471 505 506
f 471 506 507
f 471 507 472
f 472 507 508
f 472 508 473
f 474 509 512
f 474 512 476
f 475 510 511
f 475 511 509
f 477 512 545
f 477 545 513
f 477 513 478
f 478 513 514
f 478 514 546
f 478 546 515
f 479 516 517
f 479 517 518
f 479 518 519
f 479 515 516
f 480 519 520
f 480 520 481
f 482 520 483
f 483 520 489
f 484 521 485
f 484 489 521
f 485 521 522
f 485 522 486
f 486 522 523
f 486 523 524
f 486 524 487
f 487 524 525
f 487 525 490
f 487 490 488
f 489 526 521
f 489 520 518
f 489 518 517
f 489 517 526
f 490 525 527
f 490 527 493
f 491 528 529
f 491 529 492
f 491 493 527
f 491 527 528
f 492 529 530
f 492 530 494
f 494 530 531
f 494 531 532
f 494 532 496
f 494 496 495
f 496 532 497
f 498 532 499
f 499 530 500
f 499 532 531
f 499 531 530
f 500 530 501
f 501 530 533
f 501 533 534
f 501 534 502
f 502 534 504
f 503 535 540
f 503 540 510
f 504 534 536
f 504 536 537
f 504 537 505
f 505 537 538
f 505 538 506
f 506 538 539
f 506 539 507
f 509 511 512
f 510 540 541
f 510 541 564
f 510 564 542
f 510 542 511
f 511 542 543
f 511 543 544
f 511 544 545
f 511 545 512
f 513 545 544
f 513 544 514
f 514 544 543
f 514 543 546
f 515 546 516
f 516 546 547
f 516 547 548
f 516 548 517
f 517 548 549
f 517 549 526
f 518 520 519
f 521 550 522
f 521 526 549
f 521 549 550
f 522 551 523
f 522 550 551
f 523 551 552
f 523 552 524
f 524 553 554
f 524 554 525
f 524 552 553
f 525 554 527
f 527 554 555
f 527 555 528
f 528 555 556
f 528 556 533
f 528 533 529
f 529 533 530
f 533 556 534
f 534 556 536
f 535 557 540
f 536 556 558
f 536 558 559
f 536 559 537
f 537 559 560
f 537 560 538
f 538 560 561
f 538 561 562
f 538 562 539
f 540 557 563
f 540 563 541
f 541 563 579
f 541 579 564
f 542 565 543
f 542 564 566
f 542 566 565
f 543 565 547
f 543 547 546
f 547 565 566
f 547 566 567
f 547 567 548
f 548 567 568
f 548 568 549
f 549 568 569
f 549 569 550
f 550 569 551
f 551 569 570
f 551 570 552
f 552 570 571
f 552 571 553
f 553 572 573
f 553 573 554
f 553 571 572
f 554 573 555
f 555 558 556
f 555 573 558
f 557 574 563
f 558 573 575
f 558 575 559
f 559 575 576
f 559 576 560
f 560 576 561
f 561 576 577
f 561 577 592
f 561 592 578
f 561 578 562
f 563 574 588
f 563 588 580
f 563 580 579
f 564 579 566
f 566 579 581
f 566 581 582
f 566 582 567
f 567 582 568
f 568 582 596
f 568 596 583
f 568 583 569
f 569 583 570
f 570 583 584
f 570 584 571
f 571 584 585
f 571 585 572
f 572 586 575
f 572 575 573
f 572 585 586
f 574 587 588
f 575 586 576
f 576 586 589
f 576 589 577
f 577 589 590
f 577 590 591
f 577 591 592
f 579 580 593
f 579 593 581
f 580 594 595
f 580 595 593
f 580 588 600
f 580 600 594
f 581 593 596
f 581 596 582
f 583 596 597
f 583 597 584
f 584 597 585
f 585 597 598
f 585 598 589
f 585 589 586
f 587 599 600
f 587 600 588
f 589 598 590
f 590 601 591
f 590 598 602
f 590 602 605
f 590 605 601
f 593 595 596
f 594 600 605
f 594 605 602
f 594 602 595
f 595 602 598
f 595 598 597
f 595 597 596
f 599 603 600
f 600 603 604
f 600 604 605
f 601 605 606
f 604 606 605

