# https://github.com/mikedh/trimesh
v -0.04364842 -0.01315612 -0.00049500
v -0.04454839 -0.01315612 -0.00046839
v -0.04364842 -0.00843209 -0.00049500
v -0.01746696 -0.01315612 -0.00049500
v -0.04524531 -0.01315612 -0.00007083
v -0.04454839 -0.00843209 -0.00046839
v -0.01746696 -0.00843209 -0.00049500
v -0.01746696 -0.01315612 0.01026726
v -0.04538250 -0.01315612 0.00037994
v -0.04524531 -0.00843209 -0.00007083
v -0.01746696 -0.00843209 0.00870050
v -0.02312195 -0.01315612 0.01395485
v -0.02624167 -0.00843209 0.01461380
v -0.04549500 -0.01315612 0.00075089
v -0.04549500 -0.00843209 0.00075089
v -0.02384906 -0.01315612 0.01441971
v -0.02668068 -0.00843209 0.01484701
v -0.02433746 -0.01315612 0.01471397
v -0.02426338 -0.01315612 0.01467171
v -0.04549500 -0.01315612 0.00884920
v -0.04549500 -0.00843209 0.00884920
v -0.02745169 -0.00843209 0.01515692
v -0.02475178 -0.01315612 0.01489240
v -0.04548951 -0.01315612 0.00934223
v -0.04548677 -0.00843209 0.00956762
v -0.02835166 -0.00843209 0.01537448
v -0.02565175 -0.01315612 0.01520544
v -0.02565175 -0.01274961 0.01515066
v -0.04548403 -0.01315612 0.00974918
v -0.04548403 -0.00843209 0.00974918
v -0.02925163 -0.00843209 0.01546683
v -0.02835166 -0.00915029 0.01541048
v -0.02655172 -0.01315612 0.01539013
v -0.02655172 -0.01274961 0.01536196
v -0.04542092 -0.01315612 0.01064917
v -0.04542092 -0.01094972 0.01064917
v -0.04543189 -0.00843209 0.01046760
v -0.02925163 -0.00915029 0.01547935
v -0.02745169 -0.01315612 0.01547152
v -0.02745169 -0.01274961 0.01546057
v -0.03015160 -0.00843209 0.01549500
v -0.04523160 -0.01315612 0.01154915
v -0.04523160 -0.01274961 0.01154915
v -0.04541818 -0.00843209 0.01064917
v -0.02925163 -0.01005024 0.01549187
v -0.02835166 -0.01184967 0.01548561
v -0.02835166 -0.01274961 0.01549500
v -0.02835166 -0.01315612 0.01549500
v -0.03914856 -0.00843209 0.01549500
v -0.04513008 -0.01315612 0.01185436
v -0.04504502 -0.01005024 0.01210166
v -0.04508069 -0.00843209 0.01198897
v -0.04522885 -0.01094972 0.01154915
v -0.04526452 -0.00843209 0.01136759
v -0.03914856 -0.01315612 0.01549500
v -0.04004853 -0.00843209 0.01546683
v -0.04004853 -0.00915029 0.01546839
v -0.04504502 -0.01094972 0.01210323
v -0.04504502 -0.01315612 0.01210636
v -0.04504502 -0.01274961 0.01210636
v -0.04492703 -0.01315612 0.01235366
v -0.04482551 -0.00843209 0.01254931
v -0.04486941 -0.00843209 0.01245853
v -0.04504227 -0.00843209 0.01210010
v -0.04522336 -0.00843209 0.01154915
v -0.04522611 -0.00915029 0.01154915
v -0.04004853 -0.01315612 0.01546839
v -0.04094850 -0.00843209 0.01537448
v -0.04045462 -0.01315612 0.01542613
v -0.04482551 -0.01315612 0.01255714
v -0.04482551 -0.01274961 0.01255714
v -0.04482551 -0.01094972 0.01255400
v -0.04482551 -0.00915029 0.01255087
v -0.04446607 -0.00843209 0.01312217
v -0.04184847 -0.00843209 0.01513501
v -0.04184847 -0.00915029 0.01513657
v -0.04184847 -0.01094972 0.01513814
v -0.04184847 -0.01274961 0.01513970
v -0.04094850 -0.01315612 0.01537448
v -0.04437553 -0.01315612 0.01326773
v -0.04437553 -0.00843209 0.01326617
v -0.04437553 -0.01094972 0.01326773
v -0.04198841 -0.00843209 0.01507396
v -0.04254266 -0.00915029 0.01483292
v -0.04254540 -0.01094972 0.01483449
v -0.04254815 -0.01315612 0.01483605
v -0.04184847 -0.01315612 0.01513970
v -0.04418346 -0.01315612 0.01351503
v -0.04402432 -0.00843209 0.01371694
v -0.04254266 -0.00843209 0.01483136
v -0.04299265 -0.00915029 0.01456997
v -0.04254540 -0.01005024 0.01483292
v -0.04299539 -0.01005024 0.01456997
v -0.04299813 -0.01315612 0.01457154
v -0.04402432 -0.01315612 0.01371694
v -0.04377737 -0.01315612 0.01393920
v -0.04357433 -0.01005024 0.01412076
v -0.04357433 -0.00843209 0.01411920
v -0.04299265 -0.00843209 0.01456841
v -0.04311063 -0.00843209 0.01447763
v -0.04325880 -0.01315612 0.01436806
v -0.04357433 -0.01315612 0.01412076
f 1 2 6
f 1 6 3
f 1 3 7
f 1 7 4
f 1 4 8
f 1 8 12
f 1 12 16
f 1 16 19
f 1 19 18
f 1 18 23
f 1 23 27
f 1 27 33
f 1 33 39
f 1 39 48
f 1 48 55
f 1 55 67
f 1 67 69
f 1 69 79
f 1 79 87
f 1 87 86
f 1 86 94
f 1 94 101
f 1 101 102
f 1 102 96
f 1 96 95
f 1 95 88
f 1 88 80
f 1 80 70
f 1 70 61
f 1 61 59
f 1 59 50
f 1 50 42
f 1 42 35
f 1 35 29
f 1 29 24
f 1 24 20
f 1 20 14
f 1 14 9
f 1 9 5
f 1 5 2
f 2 5 10
f 2 10 6
f 3 6 10
f 3 10 15
f 3 15 21
f 3 21 25
f 3 25 30
f 3 30 37
f 3 37 44
f 3 44 54
f 3 54 65
f 3 65 52
f 3 52 64
f 3 64 63
f 3 63 62
f 3 62 74
f 3 74 81
f 3 81 89
f 3 89 98
f 3 98 100
f 3 100 99
f 3 99 90
f 3 90 83
f 3 83 75
f 3 75 68
f 3 68 56
f 3 56 49
f 3 49 41
f 3 41 31
f 3 31 26
f 3 26 22
f 3 22 17
f 3 17 13
f 3 13 11
f 3 11 7
f 4 7 11
f 4 11 8
f 5 9 10
f 8 11 13
f 8 13 12
f 9 14 15
f 9 15 10
f 12 13 16
f 13 17 18
f 13 18 19
f 13 19 16
f 14 20 21
f 14 21 15
f 17 22 23
f 17 23 18
f 20 24 21
f 21 24 25
f 22 26 27
f 22 27 28
f 22 28 23
f 23 28 27
f 24 29 25
f 25 29 30
f 26 31 32
f 26 32 33
f 26 33 34
f 26 34 27
f 27 34 33
f 29 35 36
f 29 36 30
f 30 36 37
f 31 38 39
f 31 39 40
f 31 40 32
f 31 41 38
f 32 40 33
f 33 40 39
f 35 42 43
f 35 43 36
f 36 43 44
f 36 44 37
f 38 41 45
f 38 45 46
f 38 46 39
f 39 46 47
f 39 47 48
f 41 47 45
f 41 49 55
f 41 55 48
f 41 48 47
f 42 50 43
f 43 50 51
f 43 51 52
f 43 52 53
f 43 53 54
f 43 54 44
f 45 47 46
f 49 56 57
f 49 57 67
f 49 67 55
f 50 58 51
f 50 59 60
f 50 60 58
f 51 58 61
f 51 61 62
f 51 62 63
f 51 63 64
f 51 64 52
f 52 65 66
f 52 66 53
f 53 66 54
f 54 66 65
f 56 68 57
f 57 68 69
f 57 69 67
f 58 60 61
f 59 61 60
f 61 70 71
f 61 71 72
f 61 72 73
f 61 73 62
f 62 73 74
f 68 75 76
f 68 76 77
f 68 77 78
f 68 78 87
f 68 87 79
f 68 79 69
f 70 80 82
f 70 82 71
f 71 81 74
f 71 74 72
f 71 82 81
f 72 74 73
f 75 83 76
f 76 83 84
f 76 84 85
f 76 85 86
f 76 86 77
f 77 86 78
f 78 86 87
f 80 88 82
f 81 82 89
f 82 88 89
f 83 90 84
f 84 90 99
f 84 99 91
f 84 91 93
f 84 93 92
f 84 92 85
f 85 92 93
f 85 93 86
f 86 93 94
f 88 95 89
f 89 95 96
f 89 96 97
f 89 97 98
f 91 99 93
f 93 99 100
f 93 100 98
f 93 98 94
f 94 98 97
f 94 97 101
f 96 102 97
f 97 102 101

