# https://github.com/mikedh/trimesh
v -0.01746421 -0.01698938 -0.00049500
v -0.01746421 -0.00843293 -0.00049500
v -0.00916451 -0.01698938 -0.00049500
v -0.01746421 -0.01698938 0.01211864
v -0.01376733 -0.00843293 -0.00049500
v -0.01746421 -0.00843293 0.00870100
v -0.00916451 -0.01303574 -0.00049500
v -0.00916451 -0.01698938 0.00872323
v -0.01305071 -0.00843293 -0.00048512
v -0.00945051 -0.01274927 -0.00049500
v -0.01568971 -0.00843293 0.00783919
v -0.00916451 -0.01274927 -0.00049006
v -0.00916451 -0.01468002 0.00762065
v -0.01286871 -0.00843293 -0.00047648
v -0.00916451 -0.01213695 -0.00046537
v -0.01515508 -0.00843293 0.00757620
v -0.00916451 -0.01427460 0.00741322
v -0.01515021 -0.00843293 0.00757373
v -0.01212852 -0.00843293 -0.00019991
v -0.00916451 -0.01184043 -0.00035671
v -0.00916451 -0.01368909 0.00705886
v -0.01474802 -0.00843293 0.00736136
v -0.01194814 -0.00843293 -0.00012336
v -0.00916451 -0.01124906 -0.00009372
v -0.01396477 -0.00843293 0.00686501
v -0.00916451 -0.01309521 0.00667487
v -0.01176777 -0.00843293 0.00000876
v -0.00916451 -0.01110666 0.00000382
v -0.01378602 -0.00843293 0.00674525
v -0.00916451 -0.01264540 0.00626372
v -0.01321077 -0.00843293 0.00622668
v -0.01156464 -0.00854014 0.00009025
v -0.01162395 -0.00843293 0.00022483
v -0.00916451 -0.01091065 0.00054585
v -0.01297921 -0.00843293 0.00599702
v -0.01309377 -0.00843293 0.00611432
v -0.00916451 -0.01219056 0.00581058
v -0.01152320 -0.00843293 0.00075081
v -0.00916451 -0.01087296 0.00075081
v -0.01248196 -0.00843293 0.00537597
v -0.00916451 -0.01178933 0.00527349
v -0.01153458 -0.00843293 0.00165090
v -0.00916451 -0.01088385 0.00140766
v -0.01236089 -0.00843293 0.00520435
v -0.00916451 -0.01138978 0.00456478
v -0.01153621 -0.00843293 0.00172004
v -0.00916451 -0.01088971 0.00165090
v -0.01194327 -0.00843293 0.00441661
v -0.00916451 -0.01118959 0.00413634
v -0.00916451 -0.01091819 0.00255099
v -0.00916451 -0.01090898 0.00228430
v -0.01156545 -0.00843293 0.00255099
v -0.01185471 -0.00843293 0.00420672
v -0.00916451 -0.01100950 0.00345108
v -0.01165808 -0.00843293 0.00345108
v -0.01157602 -0.00843293 0.00266582
v -0.00916451 -0.01097431 0.00312512
f 1 2 5
f 1 5 10
f 1 10 7
f 1 7 3
f 1 3 8
f 1 8 4
f 1 4 6
f 1 6 2
f 2 6 11
f 2 11 16
f 2 16 18
f 2 18 22
f 2 22 25
f 2 25 29
f 2 29 31
f 2 31 36
f 2 36 35
f 2 35 40
f 2 40 44
f 2 44 48
f 2 48 53
f 2 53 55
f 2 55 56
f 2 56 52
f 2 52 46
f 2 46 42
f 2 42 38
f 2 38 33
f 2 33 27
f 2 27 23
f 2 23 19
f 2 19 14
f 2 14 9
f 2 9 5
f 3 7 12
f 3 12 15
f 3 15 20
f 3 20 24
f 3 24 28
f 3 28 34
f 3 34 39
f 3 39 43
f 3 43 47
f 3 47 51
f 3 51 50
f 3 50 57
f 3 57 54
f 3 54 49
f 3 49 45
f 3 45 41
f 3 41 37
f 3 37 30
f 3 30 26
f 3 26 21
f 3 21 17
f 3 17 13
f 3 13 8
f 4 8 6
f 5 9 10
f 6 8 11
f 7 10 9
f 7 9 12
f 8 13 11
f 9 14 15
f 9 15 12
f 11 13 16
f 13 17 18
f 13 18 16
f 14 19 20
f 14 20 15
f 17 21 22
f 17 22 18
f 19 23 20
f 20 23 24
f 21 25 22
f 21 26 25
f 23 27 28
f 23 28 24
f 25 26 29
f 26 30 31
f 26 31 29
f 27 32 28
f 27 33 32
f 28 32 34
f 30 35 36
f 30 36 31
f 30 37 35
f 32 33 34
f 33 38 34
f 34 38 39
f 35 37 40
f 37 41 40
f 38 42 39
f 39 42 43
f 40 41 44
f 41 45 44
f 42 46 47
f 42 47 43
f 44 45 48
f 45 49 48
f 46 50 51
f 46 51 47
f 46 52 50
f 48 49 53
f 49 54 55
f 49 55 53
f 50 52 56
f 50 56 57
f 54 57 56
f 54 56 55

