# https://github.com/mikedh/trimesh
v 0.01304135 0.01153022 -0.00049500
v 0.01304135 0.01153022 0.00740765
v 0.01304135 0.01677535 -0.00049500
v 0.04364931 0.01153022 -0.00049500
v 0.01304135 0.01677535 0.00959579
v 0.02503357 0.01153022 0.01445571
v 0.04364931 0.01677535 -0.00049500
v 0.04454833 0.01153022 -0.00046839
v 0.02552914 0.01153022 0.01474527
v 0.02518923 0.01197797 0.01470614
v 0.02216497 0.01677535 0.01459501
v 0.04454833 0.01677535 -0.00046839
v 0.04524721 0.01153022 -0.00007083
v 0.02567845 0.01153022 0.01482666
v 0.02252394 0.01652581 0.01469049
v 0.02277490 0.01677535 0.01485640
v 0.04524721 0.01677535 -0.00007083
v 0.04549500 0.01153022 0.00075089
v 0.02655206 0.01153022 0.01516318
v 0.02290515 0.01677535 0.01491118
v 0.04549500 0.01677535 0.00075089
v 0.04549500 0.01153022 0.00884920
v 0.02745108 0.01153022 0.01537448
v 0.02655206 0.01155025 0.01516631
v 0.02385182 0.01677535 0.01521014
v 0.04549500 0.01677535 0.00884920
v 0.04548229 0.01153022 0.00976953
v 0.02835010 0.01153022 0.01546526
v 0.02745108 0.01155025 0.01537605
v 0.02475084 0.01677535 0.01538387
v 0.04548229 0.01677535 0.00974918
v 0.04547277 0.01677535 0.00992448
v 0.04542193 0.01424958 0.01064917
v 0.04541876 0.01153022 0.01064917
v 0.02745108 0.01245037 0.01542613
v 0.02923005 0.01153022 0.01549343
v 0.02925229 0.01155025 0.01549500
v 0.02835010 0.01245037 0.01548561
v 0.02565304 0.01677535 0.01546526
v 0.02565304 0.01604982 0.01543552
v 0.04542193 0.01677535 0.01064917
v 0.04523133 0.01335049 0.01154915
v 0.04541558 0.01153022 0.01066951
v 0.03014813 0.01153022 0.01549500
v 0.02835010 0.01335049 0.01549500
v 0.02745108 0.01514970 0.01549500
v 0.02655206 0.01604982 0.01548561
v 0.02655206 0.01677535 0.01549187
v 0.04523133 0.01677535 0.01154915
v 0.04519639 0.01677535 0.01165715
v 0.04504708 0.01335049 0.01210636
v 0.04522498 0.01153022 0.01156167
v 0.04522815 0.01153022 0.01154915
v 0.03914786 0.01153022 0.01549500
v 0.02745108 0.01677535 0.01549500
v 0.04504708 0.01677535 0.01210636
v 0.04504073 0.01153022 0.01211419
v 0.04482471 0.01335049 0.01255714
v 0.04482471 0.01153022 0.01255400
v 0.04004688 0.01153022 0.01546839
v 0.03914786 0.01677535 0.01549500
v 0.04482471 0.01677535 0.01255714
v 0.04473894 0.01677535 0.01269487
v 0.04437679 0.01153022 0.01326773
v 0.04481518 0.01153022 0.01256966
v 0.04094908 0.01153022 0.01537448
v 0.04077435 0.01677535 0.01539326
v 0.04004688 0.01677535 0.01546839
v 0.04437679 0.01677535 0.01326773
v 0.04402417 0.01153022 0.01371694
v 0.04184809 0.01153022 0.01513814
v 0.04184809 0.01677535 0.01514283
v 0.04094908 0.01677535 0.01537448
v 0.04402417 0.01677535 0.01371694
v 0.04401464 0.01153022 0.01372633
v 0.04254380 0.01153022 0.01483449
v 0.04254698 0.01335049 0.01483605
v 0.04241356 0.01677535 0.01489710
v 0.04393840 0.01677535 0.01379677
v 0.04357625 0.01604982 0.01412233
v 0.04357307 0.01153022 0.01412076
v 0.04254698 0.01245037 0.01483449
v 0.04298537 0.01153022 0.01457623
v 0.04299808 0.01424958 0.01457154
v 0.04255016 0.01677535 0.01483762
v 0.04254698 0.01514970 0.01483762
v 0.04357625 0.01677535 0.01412233
v 0.04299490 0.01245037 0.01457154
v 0.04299490 0.01153022 0.01456997
v 0.04291231 0.01677535 0.01462319
v 0.04299808 0.01677535 0.01457154
f 1 2 5
f 1 5 3
f 1 3 7
f 1 7 4
f 1 4 8
f 1 8 13
f 1 13 18
f 1 18 22
f 1 22 27
f 1 27 34
f 1 34 43
f 1 43 53
f 1 53 52
f 1 52 57
f 1 57 59
f 1 59 65
f 1 65 64
f 1 64 70
f 1 70 75
f 1 75 81
f 1 81 89
f 1 89 83
f 1 83 76
f 1 76 71
f 1 71 66
f 1 66 60
f 1 60 54
f 1 54 44
f 1 44 36
f 1 36 28
f 1 28 23
f 1 23 19
f 1 19 14
f 1 14 9
f 1 9 6
f 1 6 2
f 2 6 5
f 3 5 11
f 3 11 16
f 3 16 20
f 3 20 25
f 3 25 30
f 3 30 39
f 3 39 48
f 3 48 55
f 3 55 61
f 3 61 68
f 3 68 67
f 3 67 73
f 3 73 72
f 3 72 78
f 3 78 85
f 3 85 90
f 3 90 91
f 3 91 87
f 3 87 79
f 3 79 74
f 3 74 69
f 3 69 63
f 3 63 62
f 3 62 56
f 3 56 50
f 3 50 49
f 3 49 41
f 3 41 32
f 3 32 31
f 3 31 26
f 3 26 21
f 3 21 17
f 3 17 12
f 3 12 7
f 4 7 12
f 4 12 8
f 5 6 9
f 5 9 10
f 5 10 11
f 8 12 17
f 8 17 13
f 9 14 10
f 10 14 11
f 11 14 15
f 11 15 16
f 13 17 21
f 13 21 18
f 14 19 20
f 14 20 16
f 14 16 15
f 18 21 26
f 18 26 22
f 19 23 24
f 19 24 25
f 19 25 20
f 22 26 27
f 23 28 29
f 23 29 30
f 23 30 25
f 23 25 24
f 26 31 27
f 27 31 32
f 27 32 33
f 27 33 34
f 28 35 29
f 28 36 37
f 28 37 38
f 28 38 39
f 28 39 40
f 28 40 35
f 29 35 30
f 30 40 39
f 30 35 40
f 32 41 33
f 33 42 43
f 33 43 34
f 33 41 49
f 33 49 42
f 36 44 37
f 37 45 38
f 37 44 54
f 37 54 61
f 37 61 55
f 37 55 46
f 37 46 45
f 38 45 46
f 38 46 47
f 38 47 39
f 39 47 48
f 42 50 51
f 42 51 52
f 42 52 53
f 42 53 43
f 42 49 50
f 46 55 48
f 46 48 47
f 50 56 51
f 51 57 52
f 51 56 62
f 51 62 58
f 51 58 59
f 51 59 57
f 54 60 68
f 54 68 61
f 58 62 63
f 58 63 64
f 58 64 65
f 58 65 59
f 60 66 67
f 60 67 68
f 63 69 64
f 64 69 74
f 64 74 70
f 66 71 72
f 66 72 73
f 66 73 67
f 70 74 75
f 71 76 77
f 71 77 72
f 72 77 78
f 74 79 75
f 75 79 80
f 75 80 81
f 76 82 77
f 76 83 82
f 77 82 83
f 77 83 84
f 77 84 85
f 77 85 86
f 77 86 78
f 78 86 85
f 79 87 80
f 80 87 91
f 80 91 84
f 80 84 81
f 81 84 88
f 81 88 89
f 83 89 88
f 83 88 84
f 84 90 85
f 84 91 90

