# https://github.com/mikedh/trimesh
v -0.00681942 0.03944807 0.01549500
v -0.01200143 0.03944807 0.01549500
v -0.00681942 0.03134685 0.01549500
v -0.00681942 0.04034902 0.01546839
v -0.01200143 0.02954861 0.01549500
v -0.01200143 0.04034902 0.01546839
v -0.00855014 0.03044956 0.01549500
v -0.00765028 0.03044956 0.01549343
v -0.00681942 0.03044956 0.01548874
v -0.00681942 0.04118038 0.01538231
v -0.01200143 0.02879782 0.01548717
v -0.01124969 0.02954861 0.01549500
v -0.01200143 0.04124997 0.01537448
v -0.01034984 0.02954861 0.01549187
v -0.00681942 0.03037998 0.01548561
v -0.01200143 0.02864766 0.01548248
v -0.00681942 0.04124997 0.01537448
v -0.01200143 0.04214726 0.01514440
v -0.01124969 0.02864766 0.01546683
v -0.01200143 0.02789687 0.01543396
v -0.00681942 0.02954861 0.01543083
v -0.00681942 0.04214726 0.01514440
v -0.01200143 0.04285044 0.01483919
v -0.01200143 0.02774671 0.01541987
v -0.00681942 0.02947903 0.01541987
v -0.00681942 0.04285044 0.01483919
v -0.00681942 0.04326429 0.01459345
v -0.01200143 0.04330091 0.01457154
v -0.01124969 0.02774671 0.01537761
v -0.01200143 0.02699958 0.01528839
v -0.00681942 0.02864766 0.01525553
v -0.00681942 0.04330091 0.01457154
v -0.01200143 0.04339613 0.01449797
v -0.01200143 0.02685309 0.01525396
v -0.00681942 0.02857808 0.01523518
v -0.00681942 0.04383196 0.01415676
v -0.01200143 0.04387591 0.01412233
v -0.01200143 0.02609863 0.01501918
v -0.00681942 0.02767713 0.01491275
v -0.00681942 0.04387591 0.01412233
v -0.01200143 0.04432638 0.01371694
v -0.01200143 0.02594848 0.01495970
v -0.00681942 0.02745372 0.01481414
v -0.01200143 0.02549068 0.01477032
v -0.01200143 0.02542109 0.01474058
v -0.00681942 0.04432638 0.01371694
v -0.00681942 0.04464867 0.01330217
v -0.01200143 0.04467431 0.01326773
v -0.00681942 0.02725595 0.01472649
v -0.01200143 0.01165048 0.00690523
v -0.00681942 0.04467431 0.01326773
v -0.01200143 0.04475122 0.01315034
v -0.01200143 0.01110478 0.00659062
v -0.00681942 0.01592816 0.00729496
v -0.00681942 0.04509182 0.01261192
v -0.01200143 0.04512478 0.01255714
v -0.01200143 0.01072389 0.00630576
v -0.00681942 0.01521033 0.00679879
v -0.00681942 0.01527259 0.00684418
v -0.00681942 0.01587322 0.00725740
v -0.00681942 0.04512478 0.01255714
v -0.00681942 0.04532988 0.01214236
v -0.01200143 0.04534453 0.01210636
v -0.01200143 0.01062867 0.00623376
v -0.00681942 0.01482212 0.00648106
v -0.01200143 0.01003903 0.00576264
v -0.00681942 0.04534453 0.01210636
v -0.01200143 0.04537749 0.01201558
v -0.00681942 0.01478549 0.00644193
v -0.01200143 0.00960320 0.00529621
v -0.00681942 0.04552032 0.01159298
v -0.01200143 0.04553497 0.01154915
v -0.00681942 0.01440460 0.00603028
v -0.01200143 0.00923330 0.00481726
v -0.00681942 0.01434967 0.00596455
v -0.00681942 0.04553497 0.01154915
v -0.01200143 0.04572176 0.01064917
v -0.01200143 0.00890368 0.00434144
v -0.00681942 0.01392117 0.00538543
v -0.00681942 0.04572176 0.01064917
v -0.01200143 0.04573274 0.01050047
v -0.01200143 0.00890002 0.00433362
v -0.00681942 0.01368311 0.00499726
v -0.00681942 0.01385890 0.00529308
v -0.00681942 0.04578035 0.00981805
v -0.01200143 0.04578402 0.00974918
v -0.01200143 0.00854110 0.00345085
v -0.00681942 0.01341576 0.00441344
v -0.00681942 0.04578402 0.00974918
v -0.00681942 0.04579134 0.00891806
v -0.01200143 0.04579134 0.00884920
v -0.01200143 0.00842757 0.00256182
v -0.00681942 0.01316671 0.00345085
v -0.00681942 0.04579134 0.00075089
v -0.01200143 0.04579134 0.00075089
v -0.01200143 0.00839461 0.00165088
v -0.00681942 0.01308248 0.00251173
v -0.00681942 0.01308614 0.00258843
v -0.00681942 0.01309346 0.00267921
v -0.00681942 0.04554596 -0.00007083
v -0.01200143 0.04575106 0.00061472
v -0.01200143 0.00837996 0.00075089
v -0.00681942 0.01304219 0.00098254
v -0.00681942 0.01305318 0.00165088
v -0.00681942 0.01305684 0.00179801
v -0.01200143 0.04554596 -0.00007083
v -0.00681942 0.04484644 -0.00046839
v -0.01200143 0.00891101 -0.00008492
v -0.01156520 0.00914174 0.00009195
v -0.00681942 0.01333518 -0.00003014
v -0.00716231 0.01288104 0.00025003
v -0.00681942 0.01303853 0.00075089
v -0.01200143 0.04484644 -0.00046839
v -0.00681942 0.04394915 -0.00049500
v -0.01200143 0.00975702 -0.00039170
v -0.00681942 0.01425078 -0.00047935
v -0.00681942 0.01333884 -0.00003640
v -0.01200143 0.04394915 -0.00049500
v -0.00681942 0.01515173 -0.00049500
v -0.01200143 0.01065065 -0.00048248
v -0.00765028 0.01425078 -0.00049500
v -0.01124969 0.01155159 -0.00049500
v -0.01200143 0.01155159 -0.00049500
f 1 2 5
f 1 5 12
f 1 12 7
f 1 7 3
f 1 3 9
f 1 9 15
f 1 15 21
f 1 21 25
f 1 25 31
f 1 31 35
f 1 35 39
f 1 39 43
f 1 43 49
f 1 49 54
f 1 54 60
f 1 60 59
f 1 59 58
f 1 58 65
f 1 65 69
f 1 69 73
f 1 73 75
f 1 75 79
f 1 79 84
f 1 84 83
f 1 83 88
f 1 88 93
f 1 93 99
f 1 99 98
f 1 98 97
f 1 97 105
f 1 105 104
f 1 104 103
f 1 103 112
f 1 112 110
f 1 110 117
f 1 117 116
f 1 116 119
f 1 119 114
f 1 114 107
f 1 107 100
f 1 100 94
f 1 94 90
f 1 90 89
f 1 89 85
f 1 85 80
f 1 80 76
f 1 76 71
f 1 71 67
f 1 67 62
f 1 62 61
f 1 61 55
f 1 55 51
f 1 51 47
f 1 47 46
f 1 46 40
f 1 40 36
f 1 36 32
f 1 32 27
f 1 27 26
f 1 26 22
f 1 22 17
f 1 17 10
f 1 10 4
f 1 4 6
f 1 6 2
f 2 6 13
f 2 13 18
f 2 18 23
f 2 23 28
f 2 28 33
f 2 33 37
f 2 37 41
f 2 41 48
f 2 48 52
f 2 52 56
f 2 56 63
f 2 63 68
f 2 68 72
f 2 72 77
f 2 77 81
f 2 81 86
f 2 86 91
f 2 91 95
f 2 95 101
f 2 101 106
f 2 106 113
f 2 113 118
f 2 118 123
f 2 123 120
f 2 120 115
f 2 115 108
f 2 108 102
f 2 102 96
f 2 96 92
f 2 92 87
f 2 87 82
f 2 82 78
f 2 78 74
f 2 74 70
f 2 70 66
f 2 66 64
f 2 64 57
f 2 57 53
f 2 53 50
f 2 50 45
f 2 45 44
f 2 44 42
f 2 42 38
f 2 38 34
f 2 34 30
f 2 30 24
f 2 24 20
f 2 20 16
f 2 16 11
f 2 11 5
f 3 7 8
f 3 8 9
f 4 10 6
f 5 11 12
f 6 10 13
f 7 12 8
f 8 12 14
f 8 14 9
f 9 14 11
f 9 11 16
f 9 16 15
f 10 17 13
f 11 14 12
f 13 17 22
f 13 22 18
f 15 16 19
f 15 19 20
f 15 20 21
f 16 20 19
f 18 22 26
f 18 26 23
f 20 24 21
f 21 24 25
f 23 26 27
f 23 27 28
f 24 29 25
f 24 30 29
f 25 29 30
f 25 30 31
f 27 32 28
f 28 32 33
f 30 34 31
f 31 34 35
f 32 36 33
f 33 36 37
f 34 38 35
f 35 38 39
f 36 40 37
f 37 40 46
f 37 46 41
f 38 42 39
f 39 42 44
f 39 44 45
f 39 45 43
f 41 46 47
f 41 47 48
f 43 45 49
f 45 50 49
f 47 51 48
f 48 51 52
f 49 50 53
f 49 53 54
f 51 55 52
f 52 55 56
f 53 57 58
f 53 58 59
f 53 59 60
f 53 60 54
f 55 61 56
f 56 61 62
f 56 62 63
f 57 64 58
f 58 64 66
f 58 66 65
f 62 67 63
f 63 67 68
f 65 66 69
f 66 70 69
f 67 71 68
f 68 71 72
f 69 70 73
f 70 74 75
f 70 75 73
f 71 76 72
f 72 76 80
f 72 80 77
f 74 78 79
f 74 79 75
f 77 80 81
f 78 82 83
f 78 83 84
f 78 84 79
f 80 85 81
f 81 85 86
f 82 87 88
f 82 88 83
f 85 89 86
f 86 89 90
f 86 90 91
f 87 92 93
f 87 93 88
f 90 94 95
f 90 95 91
f 92 96 97
f 92 97 98
f 92 98 99
f 92 99 93
f 94 100 101
f 94 101 95
f 96 102 103
f 96 103 104
f 96 104 105
f 96 105 97
f 100 106 101
f 100 107 113
f 100 113 106
f 102 108 109
f 102 109 110
f 102 110 111
f 102 111 112
f 102 112 103
f 107 114 118
f 107 118 113
f 108 115 116
f 108 116 117
f 108 117 109
f 109 117 110
f 110 112 111
f 114 119 121
f 114 121 122
f 114 122 123
f 114 123 118
f 115 120 116
f 116 121 119
f 116 120 122
f 116 122 121
f 120 123 122

