# https://github.com/mikedh/trimesh
v -0.00854986 -0.02984784 0.01549500
v -0.00916370 -0.02984784 0.01549500
v -0.00386776 -0.03074824 0.01549500
v -0.00764983 -0.02984784 0.01549343
v -0.00916370 -0.02894744 0.01547465
v -0.00916370 -0.03884851 0.01549500
v -0.00386776 -0.02984784 0.01545744
v -0.00674981 -0.02984784 0.01548874
v -0.00386776 -0.03884851 0.01549500
v -0.00916370 -0.02804703 0.01539952
v -0.00916370 -0.03974891 0.01546839
v -0.00386776 -0.02894744 0.01534318
v -0.00386776 -0.03974891 0.01546839
v -0.00916370 -0.02715335 0.01519761
v -0.00916370 -0.04064931 0.01537448
v -0.00386776 -0.02804703 0.01509275
v -0.00386776 -0.04064931 0.01537448
v -0.00916370 -0.02627311 0.01486266
v -0.00916370 -0.04154971 0.01514440
v -0.00386776 -0.02741205 0.01480945
v -0.00386776 -0.04154971 0.01514440
v -0.00916370 -0.02587666 0.01466858
v -0.00916370 -0.04225189 0.01483919
v -0.00386776 -0.02696185 0.01452615
v -0.00916370 -0.01369099 0.00706018
v -0.00916370 -0.02585314 0.01465606
v -0.00915489 -0.02586658 0.01466232
v -0.00386776 -0.04225189 0.01483919
v -0.00916370 -0.04255763 0.01465762
v -0.00386776 -0.01627461 0.00728087
v -0.00916370 -0.01309632 0.00667514
v -0.00386776 -0.04270209 0.01457154
v -0.00916370 -0.04270209 0.01457154
v -0.00386776 -0.01613350 0.00717914
v -0.00916370 -0.01264612 0.00626506
v -0.00386776 -0.01563962 0.00681914
v -0.00386776 -0.04315902 0.01421311
v -0.00916370 -0.04327325 0.01412233
v -0.00916370 -0.01219256 0.00581116
v -0.00386776 -0.01518942 0.00639654
v -0.00386776 -0.04327325 0.01412233
v -0.00916370 -0.04358234 0.01384685
v -0.00916370 -0.01178939 0.00527430
v -0.00386776 -0.01480641 0.00594576
v -0.00386776 -0.04363274 0.01379990
v -0.00916370 -0.04372345 0.01371694
v -0.00386776 -0.04372345 0.01371694
v -0.00916370 -0.01138959 0.00456527
v -0.00386776 -0.01434613 0.00523047
v -0.00916370 -0.04396535 0.01341016
v -0.00386776 -0.04400566 0.01335851
v -0.00916370 -0.01119136 0.00413640
v -0.00386776 -0.01422182 0.00497691
v -0.00916370 -0.04407622 0.01326773
v -0.00386776 -0.04407622 0.01326773
v -0.00916370 -0.01100994 0.00345085
v -0.00386776 -0.01402696 0.00454805
v -0.00386776 -0.01394297 0.00433675
v -0.00916370 -0.04452642 0.01255714
v -0.00386776 -0.04443571 0.01270113
v -0.00916370 -0.01097634 0.00312529
v -0.00386776 -0.01373802 0.00345085
v -0.00916370 -0.04467760 0.01225036
v -0.00386776 -0.04452642 0.01255714
v -0.00916370 -0.01091923 0.00255086
v -0.00386776 -0.01366747 0.00255086
v -0.00916370 -0.04474480 0.01210636
v -0.00386776 -0.04474480 0.01210636
v -0.00386776 -0.04470113 0.01219871
v -0.00916370 -0.01090915 0.00228478
v -0.00386776 -0.01364059 0.00165088
v -0.00916370 -0.04493294 0.01154915
v -0.00386776 -0.04489598 0.01166185
v -0.00916370 -0.01088563 0.00140827
v -0.00386776 -0.01362379 0.00075089
v -0.00916370 -0.01087219 0.00075089
v -0.00916370 -0.04506397 0.01093560
v -0.00386776 -0.04493294 0.01154915
v -0.00386776 -0.01365403 0.00060063
v -0.00916370 -0.01091251 0.00054585
v -0.00916370 -0.04512445 0.01064917
v -0.00386776 -0.04512445 0.01064917
v -0.00386776 -0.01385561 -0.00005362
v -0.00916370 -0.01110737 0.00000430
v -0.00916370 -0.04518492 0.00974918
v -0.00386776 -0.04518492 0.00974918
v -0.00386776 -0.01397992 -0.00013344
v -0.00916370 -0.01125184 -0.00009431
v -0.00916370 -0.04519500 0.00884920
v -0.00386776 -0.04519500 0.00884920
v -0.00386776 -0.01455107 -0.00045117
v -0.00916370 -0.01183979 -0.00035726
v -0.00916370 -0.04519500 0.00075089
v -0.00386776 -0.04519500 0.00075089
v -0.00386776 -0.01473586 -0.00047152
v -0.00405025 -0.01455107 -0.00046683
v -0.00916370 -0.01213880 -0.00046526
v -0.00916370 -0.04494638 -0.00007083
v -0.00386776 -0.04494638 -0.00007083
v -0.00495028 -0.01455107 -0.00048874
v -0.00386776 -0.01545148 -0.00049500
v -0.00854986 -0.01275027 -0.00048091
v -0.00916370 -0.01275027 -0.00049030
v -0.00916370 -0.04424756 -0.00046839
v -0.00386776 -0.04424756 -0.00046839
v -0.00764983 -0.01365067 -0.00049500
v -0.00386776 -0.04334716 -0.00049500
v -0.00916370 -0.01303920 -0.00049500
v -0.00916370 -0.04334716 -0.00049500
f 1 2 6
f 1 6 9
f 1 9 3
f 1 3 4
f 1 4 5
f 1 5 2
f 2 5 10
f 2 10 14
f 2 14 18
f 2 18 22
f 2 22 26
f 2 26 25
f 2 25 31
f 2 31 35
f 2 35 39
f 2 39 43
f 2 43 48
f 2 48 52
f 2 52 56
f 2 56 61
f 2 61 65
f 2 65 70
f 2 70 74
f 2 74 76
f 2 76 80
f 2 80 84
f 2 84 88
f 2 88 92
f 2 92 97
f 2 97 103
f 2 103 108
f 2 108 109
f 2 109 104
f 2 104 98
f 2 98 93
f 2 93 89
f 2 89 85
f 2 85 81
f 2 81 77
f 2 77 72
f 2 72 67
f 2 67 63
f 2 63 59
f 2 59 54
f 2 54 50
f 2 50 46
f 2 46 42
f 2 42 38
f 2 38 33
f 2 33 29
f 2 29 23
f 2 23 19
f 2 19 15
f 2 15 11
f 2 11 6
f 3 7 8
f 3 8 4
f 3 9 13
f 3 13 17
f 3 17 21
f 3 21 28
f 3 28 32
f 3 32 37
f 3 37 41
f 3 41 45
f 3 45 47
f 3 47 51
f 3 51 55
f 3 55 60
f 3 60 64
f 3 64 69
f 3 69 68
f 3 68 73
f 3 73 78
f 3 78 82
f 3 82 86
f 3 86 90
f 3 90 94
f 3 94 99
f 3 99 105
f 3 105 107
f 3 107 101
f 3 101 95
f 3 95 91
f 3 91 87
f 3 87 83
f 3 83 79
f 3 79 75
f 3 75 71
f 3 71 66
f 3 66 62
f 3 62 58
f 3 58 57
f 3 57 53
f 3 53 49
f 3 49 44
f 3 44 40
f 3 40 36
f 3 36 34
f 3 34 30
f 3 30 24
f 3 24 20
f 3 20 16
f 3 16 12
f 3 12 7
f 4 8 5
f 5 8 7
f 5 7 10
f 6 11 13
f 6 13 9
f 7 12 10
f 10 12 14
f 11 15 17
f 11 17 13
f 12 16 14
f 14 16 18
f 15 19 21
f 15 21 17
f 16 20 18
f 18 20 22
f 19 23 28
f 19 28 21
f 20 24 25
f 20 25 26
f 20 26 27
f 20 27 22
f 22 27 26
f 23 29 28
f 24 30 31
f 24 31 25
f 28 29 32
f 29 33 32
f 30 34 31
f 31 34 36
f 31 36 35
f 32 33 37
f 33 38 37
f 35 36 40
f 35 40 39
f 37 38 41
f 38 42 41
f 39 40 44
f 39 44 43
f 41 42 45
f 42 46 47
f 42 47 45
f 43 44 49
f 43 49 48
f 46 50 47
f 47 50 51
f 48 49 53
f 48 53 52
f 50 54 51
f 51 54 55
f 52 53 57
f 52 57 58
f 52 58 56
f 54 59 60
f 54 60 55
f 56 58 62
f 56 62 61
f 59 63 64
f 59 64 60
f 61 62 65
f 62 66 65
f 63 67 68
f 63 68 69
f 63 69 64
f 65 66 70
f 66 71 70
f 67 72 73
f 67 73 68
f 70 71 74
f 71 75 76
f 71 76 74
f 72 77 78
f 72 78 73
f 75 79 80
f 75 80 76
f 77 81 82
f 77 82 78
f 79 83 80
f 80 83 84
f 81 85 86
f 81 86 82
f 83 87 88
f 83 88 84
f 85 89 90
f 85 90 86
f 87 91 88
f 88 91 92
f 89 93 94
f 89 94 90
f 91 95 96
f 91 96 97
f 91 97 92
f 93 98 99
f 93 99 94
f 95 100 96
f 95 101 100
f 96 100 97
f 97 102 103
f 97 100 102
f 98 104 105
f 98 105 99
f 100 101 106
f 100 106 103
f 100 103 102
f 101 107 109
f 101 109 108
f 101 108 106
f 103 106 108
f 104 109 107
f 104 107 105

