# https://github.com/mikedh/trimesh
v 0.01250494 -0.01698850 -0.00049500
v 0.01250494 -0.01005005 -0.00049500
v 0.01924639 -0.01698850 -0.00049500
v 0.01250494 -0.01698850 0.00980438
v 0.01250494 -0.00915042 -0.00046954
v 0.01305007 -0.00825080 -0.00048428
v 0.01305007 -0.00915042 -0.00049500
v 0.01924639 -0.00794354 -0.00049500
v 0.01924639 -0.01698850 0.01319284
v 0.01924639 -0.00794354 0.00954847
v 0.01528402 -0.00794354 0.00750789
v 0.01516127 -0.00794354 0.00743821
v 0.01501608 -0.00794354 0.00735514
v 0.01250494 -0.01140037 0.00735648
v 0.01250494 -0.00823928 -0.00028196
v 0.01305007 -0.00794354 -0.00042399
v 0.01395025 -0.00794354 -0.00049500
v 0.01424987 -0.00794354 0.00686342
v 0.01250494 -0.01052465 0.00692371
v 0.01250494 -0.00794354 -0.00016674
v 0.01410402 -0.00794354 0.00676025
v 0.01250494 -0.01022625 0.00676829
v 0.01250494 -0.00794354 0.00490725
v 0.01379186 -0.00794354 0.00649764
v 0.01250494 -0.01003411 0.00665842
v 0.01250494 -0.00804183 0.00501578
v 0.01252936 -0.00794354 0.00495548
v 0.01369748 -0.00794354 0.00641055
v 0.01250494 -0.00950460 0.00630739
v 0.01250494 -0.00821006 0.00519130
v 0.01268181 -0.00794354 0.00520737
v 0.01341304 -0.00794354 0.00613589
v 0.01250494 -0.00901583 0.00594295
v 0.01250494 -0.00870415 0.00569106
v 0.01281974 -0.00794354 0.00540835
v 0.01325333 -0.00794354 0.00595903
v 0.01250494 -0.00882723 0.00579691
v 0.01257094 -0.00865633 0.00573527
v 0.01291214 -0.00794354 0.00553564
f 1 2 7
f 1 7 17
f 1 17 8
f 1 8 3
f 1 3 9
f 1 9 4
f 1 4 14
f 1 14 19
f 1 19 22
f 1 22 25
f 1 25 29
f 1 29 33
f 1 33 37
f 1 37 34
f 1 34 30
f 1 30 26
f 1 26 23
f 1 23 20
f 1 20 15
f 1 15 5
f 1 5 2
f 2 5 6
f 2 6 7
f 3 8 10
f 3 10 9
f 4 9 10
f 4 10 11
f 4 11 12
f 4 12 13
f 4 13 14
f 5 15 16
f 5 16 6
f 6 16 17
f 6 17 7
f 8 17 16
f 8 16 20
f 8 20 23
f 8 23 27
f 8 27 31
f 8 31 35
f 8 35 39
f 8 39 36
f 8 36 32
f 8 32 28
f 8 28 24
f 8 24 21
f 8 21 18
f 8 18 13
f 8 13 12
f 8 12 11
f 8 11 10
f 13 18 14
f 14 18 19
f 15 20 16
f 18 21 19
f 19 21 22
f 21 24 25
f 21 25 22
f 23 26 27
f 24 28 25
f 25 28 29
f 26 30 27
f 27 30 31
f 28 32 29
f 29 32 33
f 30 34 31
f 31 34 35
f 32 36 33
f 33 36 37
f 34 37 38
f 34 38 39
f 34 39 35
f 36 39 38
f 36 38 37

