# https://github.com/mikedh/trimesh
v 0.00689975 0.03944658 0.01549500
v 0.00000730 0.03944658 0.01549500
v 0.00689975 0.03134898 0.01549500
v 0.00689975 0.04034845 0.01546839
v 0.00000730 0.04034845 0.01546839
v 0.00000730 0.03134898 0.01549500
v 0.00689975 0.03045031 0.01549030
v 0.00689975 0.04124712 0.01537448
v 0.00000730 0.04124712 0.01537448
v 0.00000730 0.03045031 0.01544335
v 0.00689975 0.02954844 0.01543239
v 0.00689975 0.04214578 0.01514440
v 0.00000730 0.04214578 0.01514440
v 0.00000730 0.02954844 0.01528213
v 0.00674998 0.02954844 0.01542926
v 0.00689975 0.02865298 0.01526022
v 0.00689975 0.04284867 0.01483919
v 0.00000730 0.04284867 0.01483919
v 0.00000730 0.02865298 0.01498475
v 0.00689975 0.02769013 0.01492527
v 0.00689975 0.04330121 0.01457154
v 0.00000730 0.04330121 0.01457154
v 0.00000730 0.02812662 0.01474840
v 0.00689975 0.02732424 0.01476562
v 0.00689975 0.04387250 0.01412233
v 0.00000730 0.04387250 0.01412233
v 0.00000730 0.01753201 0.00742018
v 0.00689975 0.01525005 0.00685514
v 0.00689975 0.01591121 0.00730592
v 0.00689975 0.02717981 0.01468267
v 0.00689975 0.04432504 0.01371694
v 0.00000730 0.04410359 0.01391729
v 0.00000730 0.01724636 0.00721044
v 0.00000730 0.01695109 0.00699288
v 0.00000730 0.01647929 0.00662349
v 0.00689975 0.01480392 0.00649984
v 0.00689975 0.04438282 0.01364338
v 0.00000730 0.04432504 0.01371694
v 0.00000730 0.01608131 0.00615080
v 0.00689975 0.01438348 0.00605063
v 0.00689975 0.04467488 0.01326773
v 0.00000730 0.04467488 0.01326773
v 0.00000730 0.01587269 0.00588472
v 0.00689975 0.01390526 0.00542925
v 0.00000730 0.01565765 0.00560925
v 0.00689975 0.04512421 0.01255714
v 0.00000730 0.04512421 0.01255714
v 0.00689975 0.01368059 0.00505517
v 0.00000730 0.01541052 0.00515847
v 0.00689975 0.04534567 0.01210636
v 0.00000730 0.04523655 0.01232862
v 0.00689975 0.01365171 0.00499882
v 0.00000730 0.01507031 0.00435083
v 0.00689975 0.01337248 0.00440562
v 0.00000730 0.04544195 0.01182306
v 0.00000730 0.04534567 0.01210636
v 0.00689975 0.04553182 0.01154915
v 0.00000730 0.01496761 0.00390788
v 0.00689975 0.01313177 0.00345085
v 0.00689975 0.01317670 0.00364337
v 0.00000730 0.04553182 0.01154915
v 0.00689975 0.04572439 0.01064917
v 0.00000730 0.04563132 0.01109212
v 0.00000730 0.01486490 0.00345085
v 0.00689975 0.01305795 0.00263851
v 0.00000730 0.04572439 0.01064917
v 0.00689975 0.04578216 0.00974918
v 0.00000730 0.01482639 0.00300790
v 0.00689975 0.01305153 0.00252269
v 0.00000730 0.01479108 0.00255086
v 0.00000730 0.04578216 0.00974918
v 0.00689975 0.04578537 0.00959892
v 0.00689975 0.01302264 0.00165244
v 0.00000730 0.01476220 0.00165244
v 0.00000730 0.04579500 0.00884920
v 0.00689975 0.04579500 0.00884920
v 0.00689975 0.01301622 0.00126428
v 0.00000730 0.01475578 0.00120949
v 0.00000730 0.04579500 0.00075089
v 0.00689975 0.04579500 0.00075089
v 0.00689975 0.01300980 0.00075246
v 0.00000730 0.01475257 0.00075246
v 0.00000730 0.04554466 -0.00007083
v 0.00689975 0.04554466 -0.00007083
v 0.00689975 0.01301301 0.00052394
v 0.00689975 0.01323126 0.00002934
v 0.00000730 0.01517623 -0.00009588
v 0.00000730 0.04484820 -0.00046839
v 0.00689975 0.04484820 -0.00046839
v 0.00689975 0.01328582 -0.00002857
v 0.00000730 0.01605242 -0.00049343
v 0.00689975 0.01410104 -0.00044961
v 0.00689975 0.01335001 -0.00006927
v 0.00689975 0.04469735 -0.00047309
v 0.00000730 0.04394632 -0.00049500
v 0.00000730 0.02194188 -0.00049500
v 0.00584929 0.01515055 -0.00049343
v 0.00689975 0.01425189 -0.00047622
v 0.00674998 0.01425189 -0.00047309
v 0.00689975 0.04394632 -0.00049500
v 0.00689975 0.02194188 -0.00049500
v 0.00689975 0.01500291 -0.00049343
f 1 2 6
f 1 6 3
f 1 3 7
f 1 7 11
f 1 11 16
f 1 16 20
f 1 20 24
f 1 24 30
f 1 30 29
f 1 29 28
f 1 28 36
f 1 36 40
f 1 40 44
f 1 44 48
f 1 48 52
f 1 52 54
f 1 54 60
f 1 60 59
f 1 59 65
f 1 65 69
f 1 69 73
f 1 73 77
f 1 77 81
f 1 81 85
f 1 85 86
f 1 86 90
f 1 90 93
f 1 93 92
f 1 92 98
f 1 98 102
f 1 102 101
f 1 101 100
f 1 100 94
f 1 94 89
f 1 89 84
f 1 84 80
f 1 80 76
f 1 76 72
f 1 72 67
f 1 67 62
f 1 62 57
f 1 57 50
f 1 50 46
f 1 46 41
f 1 41 37
f 1 37 31
f 1 31 25
f 1 25 21
f 1 21 17
f 1 17 12
f 1 12 8
f 1 8 4
f 1 4 5
f 1 5 2
f 2 5 9
f 2 9 13
f 2 13 18
f 2 18 22
f 2 22 26
f 2 26 32
f 2 32 38
f 2 38 42
f 2 42 47
f 2 47 51
f 2 51 56
f 2 56 55
f 2 55 61
f 2 61 63
f 2 63 66
f 2 66 71
f 2 71 75
f 2 75 79
f 2 79 83
f 2 83 88
f 2 88 95
f 2 95 96
f 2 96 91
f 2 91 87
f 2 87 82
f 2 82 78
f 2 78 74
f 2 74 70
f 2 70 68
f 2 68 64
f 2 64 58
f 2 58 53
f 2 53 49
f 2 49 45
f 2 45 43
f 2 43 39
f 2 39 35
f 2 35 34
f 2 34 33
f 2 33 27
f 2 27 23
f 2 23 19
f 2 19 14
f 2 14 10
f 2 10 6
f 3 6 7
f 4 8 9
f 4 9 5
f 6 10 7
f 7 10 11
f 8 12 13
f 8 13 9
f 10 14 15
f 10 15 11
f 11 15 16
f 12 17 18
f 12 18 13
f 14 19 16
f 14 16 15
f 16 19 20
f 17 21 22
f 17 22 18
f 19 23 24
f 19 24 20
f 21 25 26
f 21 26 22
f 23 27 28
f 23 28 29
f 23 29 30
f 23 30 24
f 25 31 32
f 25 32 26
f 27 33 28
f 28 33 34
f 28 34 35
f 28 35 36
f 31 37 38
f 31 38 32
f 35 39 40
f 35 40 36
f 37 41 42
f 37 42 38
f 39 43 40
f 40 43 45
f 40 45 44
f 41 46 47
f 41 47 42
f 44 45 48
f 45 49 48
f 46 50 51
f 46 51 47
f 48 49 52
f 49 53 54
f 49 54 52
f 50 55 56
f 50 56 51
f 50 57 55
f 53 58 59
f 53 59 60
f 53 60 54
f 55 57 61
f 57 62 63
f 57 63 61
f 58 64 59
f 59 64 65
f 62 66 63
f 62 67 71
f 62 71 66
f 64 68 65
f 65 68 70
f 65 70 69
f 67 72 71
f 69 70 73
f 70 74 73
f 71 72 75
f 72 76 75
f 73 74 77
f 74 78 77
f 75 76 80
f 75 80 79
f 77 78 81
f 78 82 81
f 79 80 84
f 79 84 83
f 81 82 85
f 82 86 85
f 82 87 86
f 83 84 89
f 83 89 88
f 86 87 90
f 87 91 92
f 87 92 93
f 87 93 90
f 88 89 94
f 88 94 95
f 91 96 97
f 91 97 98
f 91 98 99
f 91 99 92
f 92 99 98
f 94 100 95
f 95 100 101
f 95 101 96
f 96 101 102
f 96 102 97
f 97 102 98

