# https://github.com/mikedh/trimesh
v 0.01250386 -0.01855179 0.01066642
v 0.00815056 -0.01855179 0.00929187
v 0.01250386 -0.01855179 -0.00049391
v 0.01250386 -0.01140076 0.00735569
v 0.00815056 -0.01545358 0.00772173
v 0.00815056 -0.01855179 -0.00049391
v 0.01250386 -0.01052430 0.00692409
v 0.01250386 -0.01005096 -0.00049391
v 0.00815056 -0.01500855 0.00749446
v 0.00815056 -0.01364968 -0.00049391
v 0.01250386 -0.01022648 0.00676894
v 0.01214971 -0.01005096 -0.00049391
v 0.01250386 -0.00915071 -0.00046987
v 0.00815056 -0.01498364 0.00748135
v 0.00815056 -0.01275057 -0.00041961
v 0.00855031 -0.01275057 -0.00048407
v 0.01250386 -0.01003510 0.00665858
v 0.00815056 -0.01478094 0.00736553
v 0.01250386 -0.00823914 -0.00028193
v 0.01214971 -0.00915071 -0.00045457
v 0.00815056 -0.01194544 -0.00004374
v 0.01250386 -0.00735021 0.00004258
v 0.01250386 -0.00950515 0.00630565
v 0.00815056 -0.01402224 0.00687711
v 0.00815056 -0.01162045 0.00075062
v 0.01250386 -0.00712713 0.00017698
v 0.01250386 -0.00901596 0.00594289
v 0.00815056 -0.01383993 0.00674818
v 0.00815056 -0.01162384 0.00165096
v 0.01250386 -0.00698332 0.00075062
v 0.01250386 -0.00882798 0.00579648
v 0.00815056 -0.01359873 0.00654494
v 0.00815056 -0.01166008 0.00256114
v 0.01250386 -0.00700936 0.00257862
v 0.01250386 -0.00699011 0.00165096
v 0.01250386 -0.00698672 0.00143243
v 0.01250386 -0.00870455 0.00569049
v 0.00815056 -0.01342434 0.00638433
v 0.00815056 -0.01175633 0.00345056
v 0.01250386 -0.00710675 0.00311402
v 0.01250386 -0.00820970 0.00519006
v 0.00815056 -0.01317861 0.00614504
v 0.00815056 -0.01200659 0.00434544
v 0.01250386 -0.00717243 0.00345056
v 0.01250386 -0.00804097 0.00501523
v 0.00815056 -0.01298271 0.00592869
v 0.00815056 -0.01218098 0.00475737
v 0.01250386 -0.00755404 0.00435090
v 0.01250386 -0.00782921 0.00477922
v 0.00815056 -0.01272905 0.00561291
v 0.00815056 -0.01225345 0.00489723
v 0.00815056 -0.01244482 0.00521082
v 0.00815056 -0.01255920 0.00538018
f 1 2 6
f 1 6 3
f 1 3 8
f 1 8 13
f 1 13 19
f 1 19 22
f 1 22 26
f 1 26 30
f 1 30 36
f 1 36 35
f 1 35 34
f 1 34 40
f 1 40 44
f 1 44 48
f 1 48 49
f 1 49 45
f 1 45 41
f 1 41 37
f 1 37 31
f 1 31 27
f 1 27 23
f 1 23 17
f 1 17 11
f 1 11 7
f 1 7 4
f 1 4 2
f 2 5 9
f 2 9 14
f 2 14 18
f 2 18 24
f 2 24 28
f 2 28 32
f 2 32 38
f 2 38 42
f 2 42 46
f 2 46 50
f 2 50 53
f 2 53 52
f 2 52 51
f 2 51 47
f 2 47 43
f 2 43 39
f 2 39 33
f 2 33 29
f 2 29 25
f 2 25 21
f 2 21 15
f 2 15 10
f 2 10 6
f 2 4 7
f 2 7 5
f 3 6 10
f 3 10 12
f 3 12 8
f 5 7 9
f 7 11 9
f 8 12 13
f 9 11 14
f 10 15 16
f 10 16 12
f 11 17 18
f 11 18 14
f 12 16 13
f 13 16 20
f 13 20 19
f 15 21 22
f 15 22 19
f 15 19 20
f 15 20 16
f 17 23 24
f 17 24 18
f 21 25 26
f 21 26 22
f 23 27 28
f 23 28 24
f 25 29 30
f 25 30 26
f 27 31 28
f 28 31 32
f 29 33 34
f 29 34 35
f 29 35 36
f 29 36 30
f 31 37 32
f 32 37 38
f 33 39 34
f 34 39 40
f 37 41 42
f 37 42 38
f 39 43 44
f 39 44 40
f 41 45 42
f 42 45 46
f 43 47 44
f 44 47 48
f 45 49 46
f 46 49 50
f 47 51 48
f 48 51 52
f 48 52 49
f 49 52 53
f 49 53 50

