# https://github.com/mikedh/trimesh
v 0.04549500 -0.01698938 0.00884920
v 0.04549500 -0.01698938 0.00075089
v 0.04548531 -0.01698938 0.00974918
v 0.04549500 -0.01995186 0.00884920
v 0.04549500 -0.01995186 0.00075089
v 0.04524634 -0.01698938 -0.00007083
v 0.04542396 -0.01698938 0.01064917
v 0.04548531 -0.01995186 0.00974918
v 0.04546594 -0.02085192 0.00884920
v 0.04546594 -0.02085192 0.00435083
v 0.04545948 -0.02085192 0.00075089
v 0.04522697 -0.02085192 -0.00006301
v 0.04524634 -0.01995186 -0.00007083
v 0.04454881 -0.01698938 -0.00046839
v 0.04542396 -0.01995186 0.01064917
v 0.04523343 -0.01698938 0.01154915
v 0.04545625 -0.02085192 0.00974918
v 0.04539812 -0.02175198 0.00884920
v 0.04539812 -0.02175198 0.00794921
v 0.04539489 -0.02175198 0.00525082
v 0.04538197 -0.02175198 0.00075089
v 0.04518822 -0.02175198 -0.00004109
v 0.04454881 -0.02175198 -0.00043865
v 0.04454881 -0.02085192 -0.00046057
v 0.04454881 -0.01995186 -0.00046839
v 0.04428724 -0.01698938 -0.00047622
v 0.04539489 -0.02085192 0.01064917
v 0.04523343 -0.01995186 0.01154915
v 0.04510102 -0.01698938 0.01194514
v 0.04538843 -0.02175198 0.00974918
v 0.04525603 -0.02265204 0.00884920
v 0.04525603 -0.02265204 0.00435083
v 0.04524312 -0.02265204 0.00075089
v 0.04512040 -0.02265204 0.00004499
v 0.04454881 -0.02265204 -0.00035257
v 0.04364783 -0.02445217 -0.00046526
v 0.04364783 -0.02355210 -0.00049187
v 0.04364783 -0.02265204 -0.00049500
v 0.04364783 -0.01698938 -0.00049500
v 0.04532708 -0.02175198 0.01064917
v 0.04520436 -0.02085192 0.01154915
v 0.04504612 -0.01995186 0.01210636
v 0.04503321 -0.02085192 0.01207506
v 0.04504612 -0.01698938 0.01210636
v 0.04524634 -0.02265204 0.00974918
v 0.04507519 -0.02338645 0.00884920
v 0.04507842 -0.02338645 0.00705079
v 0.04508165 -0.02337541 0.00435083
v 0.04507842 -0.02336160 0.00255086
v 0.04507519 -0.02335608 0.00165088
v 0.04507196 -0.02334780 0.00075089
v 0.04504612 -0.02326221 0.00017803
v 0.04440026 -0.02445217 -0.00006770
v 0.04372856 -0.02542125 -0.00015379
v 0.04274685 -0.02625229 -0.00041987
v 0.04184910 -0.02715235 -0.00045900
v 0.04274685 -0.02535223 -0.00049343
v 0.04184910 -0.02625229 -0.00049500
v 0.01250429 -0.01698938 -0.00049500
v 0.04511717 -0.02174094 0.01161019
v 0.04506550 -0.02265204 0.01130968
v 0.04518499 -0.02265204 0.01064917
v 0.04501060 -0.02143447 0.01202810
v 0.04489112 -0.01698938 0.01242722
v 0.04482653 -0.01995186 0.01255714
v 0.04481038 -0.02085192 0.01252427
v 0.04503644 -0.02325116 0.01064917
v 0.04506873 -0.02336712 0.00974918
v 0.04495248 -0.02383648 0.00884920
v 0.04495248 -0.02383924 0.00794921
v 0.04495248 -0.02383648 0.00705079
v 0.04494602 -0.02382544 0.00435083
v 0.04493956 -0.02380611 0.00165088
v 0.04493633 -0.02379783 0.00075089
v 0.04470059 -0.02445217 0.00075089
v 0.04424202 -0.02516725 0.00007160
v 0.04347991 -0.02625229 -0.00002231
v 0.04274685 -0.02712750 -0.00008962
v 0.04185879 -0.02805794 -0.00012248
v 0.04094812 -0.02805241 -0.00046370
v 0.03914939 -0.02985254 -0.00046370
v 0.03914939 -0.02895248 -0.00049500
v 0.01250429 -0.04334794 -0.00049500
v 0.01250429 -0.01698938 0.00980396
v 0.04498154 -0.02203360 0.01195141
v 0.04492018 -0.02265204 0.01176045
v 0.04500737 -0.02313521 0.01112811
v 0.04480393 -0.02174094 0.01237557
v 0.04482653 -0.01698938 0.01255714
v 0.04450683 -0.01698938 0.01306113
v 0.04437443 -0.01995186 0.01326773
v 0.04435828 -0.02085192 0.01324895
v 0.04431630 -0.02175198 0.01319260
v 0.04491372 -0.02370119 0.01064917
v 0.04494602 -0.02381715 0.00974918
v 0.04471351 -0.02445217 0.00974918
v 0.04472642 -0.02445217 0.00884920
v 0.04472642 -0.02445217 0.00794921
v 0.04472320 -0.02445217 0.00615080
v 0.04471028 -0.02445217 0.00255086
v 0.04431630 -0.02530805 0.00165088
v 0.04431307 -0.02530253 0.00075089
v 0.04407087 -0.02575256 0.00075089
v 0.04328938 -0.02681276 0.00013421
v 0.04244330 -0.02776528 0.00008256
v 0.04156492 -0.02866810 0.00007786
v 0.04095781 -0.02896076 -0.00012561
v 0.03915908 -0.03076088 -0.00012561
v 0.03105995 -0.03885868 -0.00012561
v 0.02835055 -0.04064776 -0.00046370
v 0.02745280 -0.04064776 -0.00049500
v 0.01250429 -0.04424800 -0.00046839
v 0.02295113 -0.04334794 -0.00049500
v 0.01250429 -0.02407944 0.01443850
v 0.02166909 -0.01698938 0.01466545
v 0.04460694 -0.02265204 0.01244914
v 0.04432922 -0.02356315 0.01249453
v 0.04479101 -0.02348032 0.01147715
v 0.04436474 -0.02453499 0.01163367
v 0.04464246 -0.02445217 0.01064917
v 0.04423557 -0.02265204 0.01308617
v 0.04437443 -0.01698938 0.01326773
v 0.04402566 -0.01995186 0.01371694
v 0.04400951 -0.02085192 0.01369972
v 0.04396107 -0.02175198 0.01364338
v 0.04427755 -0.02524179 0.01064917
v 0.04431307 -0.02530805 0.00974918
v 0.04432276 -0.02531910 0.00884920
v 0.04432276 -0.02532462 0.00705079
v 0.04431953 -0.02532462 0.00525082
v 0.04431953 -0.02531910 0.00435083
v 0.04408379 -0.02577465 0.00525082
v 0.04408056 -0.02576637 0.00345085
v 0.04407410 -0.02575808 0.00165088
v 0.04376086 -0.02625229 0.00075089
v 0.04333459 -0.02686798 0.00075089
v 0.04296645 -0.02731801 0.00075089
v 0.04251757 -0.02784534 0.00075089
v 0.04209776 -0.02829538 0.00075089
v 0.04164888 -0.02875093 0.00075089
v 0.04120001 -0.02920096 0.00075089
v 0.03976619 -0.03046822 0.00007786
v 0.02896735 -0.04126620 0.00007786
v 0.02836024 -0.04155887 -0.00012405
v 0.02925799 -0.04065880 -0.00012561
v 0.02745280 -0.04154782 -0.00045900
v 0.02565084 -0.04244788 -0.00049343
v 0.02655182 -0.04154782 -0.00049500
v 0.01250429 -0.04452410 -0.00031187
v 0.02025142 -0.04424800 -0.00046839
v 0.02475309 -0.04244788 -0.00049500
v 0.02385211 -0.04334794 -0.00049187
v 0.01250429 -0.02447702 0.01468267
v 0.02211474 -0.01698938 0.01485171
v 0.01250429 -0.02466752 0.01478284
v 0.04415161 -0.02327049 0.01297817
v 0.04405473 -0.02387237 0.01282478
v 0.04421942 -0.02429203 0.01222531
v 0.04409348 -0.02489391 0.01198897
v 0.04419682 -0.02509270 0.01138950
v 0.04387389 -0.02265204 0.01353695
v 0.04402566 -0.01698938 0.01371694
v 0.04370596 -0.01698938 0.01400494
v 0.04357356 -0.01995186 0.01412233
v 0.04356064 -0.02085192 0.01411137
v 0.04350897 -0.02175198 0.01407381
v 0.04342501 -0.02265204 0.01400337
v 0.04403858 -0.02569182 0.01064917
v 0.04407410 -0.02575808 0.00974918
v 0.04408056 -0.02576913 0.00884920
v 0.04408379 -0.02577465 0.00705079
v 0.04377377 -0.02625229 0.00525082
v 0.04334105 -0.02687902 0.00705079
v 0.04296968 -0.02733181 0.00884920
v 0.04252080 -0.02784534 0.00884920
v 0.04209776 -0.02829538 0.00884920
v 0.04164888 -0.02875093 0.00884920
v 0.04120001 -0.02920096 0.00884920
v 0.03219990 -0.03819882 0.00075089
v 0.02994906 -0.04044897 0.00075089
v 0.02904808 -0.04134903 0.00075089
v 0.02859598 -0.04179906 0.00075089
v 0.02806637 -0.04214418 0.00008256
v 0.02743020 -0.04244512 -0.00008962
v 0.02655182 -0.04244788 -0.00041987
v 0.02475309 -0.04334794 -0.00046526
v 0.01250429 -0.04494652 -0.00007083
v 0.02025142 -0.04494652 -0.00007083
v 0.02115240 -0.04424800 -0.00046057
v 0.02205015 -0.04424800 -0.00043865
v 0.02223422 -0.01698938 0.01489553
v 0.01250429 -0.02502368 0.01492997
v 0.04378023 -0.02356315 0.01330686
v 0.04320219 -0.02400766 0.01380146
v 0.04342824 -0.02436382 0.01335538
v 0.04332490 -0.02512031 0.01305800
v 0.04396430 -0.02453499 0.01249453
v 0.04352835 -0.02539088 0.01249296
v 0.04332813 -0.02600105 0.01222062
v 0.04395784 -0.02537708 0.01163367
v 0.04344761 -0.02628266 0.01153663
v 0.04324740 -0.02676306 0.01122985
v 0.04328615 -0.02355210 0.01388129
v 0.04357356 -0.01698938 0.01412233
v 0.04300197 -0.01995186 0.01457154
v 0.04298582 -0.02085192 0.01456215
v 0.04293415 -0.02175198 0.01452458
v 0.04283404 -0.02265204 0.01445258
v 0.04368981 -0.02625229 0.01064917
v 0.04376086 -0.02625229 0.00974918
v 0.04377377 -0.02625229 0.00884920
v 0.04334105 -0.02688178 0.00884920
v 0.04333782 -0.02687626 0.00974918
v 0.04296322 -0.02732629 0.00974918
v 0.04251434 -0.02783982 0.00974918
v 0.04209130 -0.02828985 0.00974918
v 0.04164242 -0.02874541 0.00974918
v 0.04029257 -0.03009550 0.00974918
v 0.03219990 -0.03819882 0.00884920
v 0.02994906 -0.04044897 0.00884920
v 0.02904808 -0.04134903 0.00884920
v 0.02859598 -0.04179906 0.00884920
v 0.02814710 -0.04222149 0.00345085
v 0.02814710 -0.04221873 0.00075089
v 0.02711372 -0.04298902 0.00013264
v 0.02655182 -0.04317953 -0.00002231
v 0.02572189 -0.04342801 -0.00015379
v 0.02475309 -0.04409892 -0.00006770
v 0.02295113 -0.04424800 -0.00035257
v 0.01250429 -0.04519224 0.00075089
v 0.02115240 -0.04492719 -0.00006301
v 0.02025142 -0.04519224 0.00075089
v 0.02205015 -0.04488854 -0.00004109
v 0.02293176 -0.01698938 0.01511622
v 0.01250429 -0.02535223 0.01505049
v 0.02321271 -0.01698938 0.01520231
v 0.04305687 -0.02460678 0.01365903
v 0.04266935 -0.02348584 0.01436650
v 0.04275331 -0.02436382 0.01401902
v 0.04245621 -0.02516172 0.01392668
v 0.04280175 -0.02544058 0.01341799
v 0.04314729 -0.02571943 0.01282165
v 0.04296645 -0.02628266 0.01249296
v 0.04312791 -0.02660017 0.01182932
v 0.04330230 -0.02683208 0.01064917
v 0.04227214 -0.02757201 0.01193888
v 0.04239486 -0.02770730 0.01133942
v 0.04247559 -0.02779565 0.01064917
v 0.04292446 -0.02728212 0.01064917
v 0.04316666 -0.01698938 0.01444163
v 0.04300197 -0.01905180 0.01457154
v 0.04254986 -0.01995186 0.01483919
v 0.04253695 -0.02085192 0.01483292
v 0.04248205 -0.02175198 0.01480475
v 0.04238517 -0.02265204 0.01474997
v 0.04231412 -0.02314349 0.01470927
v 0.04204932 -0.02824568 0.01064917
v 0.04159722 -0.02870123 0.01064917
v 0.04069946 -0.02960129 0.01064917
v 0.03934961 -0.03095139 0.01064917
v 0.02899964 -0.04129934 0.01064917
v 0.02994260 -0.04044069 0.00974918
v 0.02904163 -0.04134075 0.00974918
v 0.02858952 -0.04179078 0.00974918
v 0.02814065 -0.04221596 0.00974918
v 0.02814710 -0.04222149 0.00884920
v 0.02763687 -0.04267152 0.00884920
v 0.02763364 -0.04267152 0.00615080
v 0.02763041 -0.04267152 0.00435083
v 0.02762073 -0.04266876 0.00075089
v 0.02717185 -0.04303596 0.00075089
v 0.02655182 -0.04346114 0.00075089
v 0.02605451 -0.04377313 0.00075089
v 0.02546677 -0.04394154 0.00007160
v 0.02356470 -0.04474773 0.00017803
v 0.02295113 -0.04481952 0.00004499
v 0.01250429 -0.04519224 0.00884920
v 0.02115240 -0.04515911 0.00075089
v 0.02115240 -0.04516187 0.00794921
v 0.02025142 -0.04519224 0.00884920
v 0.02205015 -0.04507904 0.00075089
v 0.01250429 -0.02589613 0.01522109
v 0.02385211 -0.01698938 0.01532752
v 0.04227214 -0.02576085 0.01377642
v 0.04218818 -0.02374537 0.01463571
v 0.04200411 -0.02445217 0.01452302
v 0.04184264 -0.02534395 0.01425850
v 0.04251111 -0.02625229 0.01313469
v 0.04233027 -0.02674097 0.01293748
v 0.04249496 -0.02693424 0.01244914
v 0.04210422 -0.02738427 0.01244914
v 0.04165534 -0.02786191 0.01244914
v 0.04137762 -0.02848036 0.01195297
v 0.04189108 -0.02809383 0.01164619
v 0.04150679 -0.02861012 0.01135194
v 0.04299874 -0.01698938 0.01457154
v 0.04254986 -0.01698938 0.01483919
v 0.04184910 -0.01995186 0.01514440
v 0.04184910 -0.02085192 0.01513031
v 0.04184910 -0.02175198 0.01508022
v 0.04184910 -0.02265204 0.01498475
v 0.04187171 -0.02348584 0.01484701
v 0.04060904 -0.02951018 0.01135194
v 0.02891245 -0.04120823 0.01135194
v 0.02854754 -0.04174937 0.01064917
v 0.02809543 -0.04217731 0.01064917
v 0.02763041 -0.04266600 0.00974918
v 0.02718477 -0.04304424 0.00884920
v 0.02718477 -0.04304424 0.00794921
v 0.02718154 -0.04304148 0.00525082
v 0.02762718 -0.04267152 0.00345085
v 0.02717185 -0.04303872 0.00165088
v 0.02655182 -0.04347771 0.00615080
v 0.02607388 -0.04378417 0.00525082
v 0.02605774 -0.04377589 0.00165088
v 0.02560886 -0.04401609 0.00165088
v 0.02560240 -0.04401333 0.00075089
v 0.02475309 -0.04440262 0.00075089
v 0.02409754 -0.04463730 0.00075089
v 0.02364866 -0.04477258 0.00075089
v 0.02295113 -0.04494100 0.00075089
v 0.01250429 -0.04518948 0.00920293
v 0.02205015 -0.04509561 0.00884920
v 0.02115240 -0.04516187 0.00884920
v 0.02025142 -0.04518396 0.00974918
v 0.02295113 -0.04495480 0.00525082
v 0.01250429 -0.02625229 0.01530561
v 0.02411369 -0.01698938 0.01537448
v 0.04207838 -0.02625229 0.01358547
v 0.04162951 -0.02625229 0.01396268
v 0.04143252 -0.02674097 0.01382651
v 0.04155200 -0.02445217 0.01477814
v 0.04141314 -0.02492428 0.01470771
v 0.04119032 -0.02552341 0.01459032
v 0.04174899 -0.02704192 0.01325365
v 0.04146804 -0.02767141 0.01297035
v 0.04120970 -0.02831194 0.01244914
v 0.04099333 -0.02899665 0.01165245
v 0.04076082 -0.02876197 0.01244914
v 0.03941097 -0.03011207 0.01244914
v 0.02861213 -0.04091005 0.01244914
v 0.02967780 -0.04017840 0.01195297
v 0.04205255 -0.01698938 0.01505518
v 0.04184910 -0.01905180 0.01514440
v 0.04094812 -0.01995186 0.01537448
v 0.04094812 -0.02085192 0.01536665
v 0.04094812 -0.02175198 0.01533692
v 0.04094812 -0.02265204 0.01528213
v 0.04094812 -0.02355210 0.01518666
v 0.04094812 -0.02445217 0.01501449
v 0.02878005 -0.04107570 0.01195297
v 0.02839253 -0.04158923 0.01164619
v 0.02800824 -0.04209448 0.01133942
v 0.02706205 -0.04294761 0.01122985
v 0.02758197 -0.04262458 0.01064917
v 0.02713310 -0.04300283 0.01064917
v 0.02717831 -0.04303872 0.00974918
v 0.02655182 -0.04347495 0.00884920
v 0.02655182 -0.04347771 0.00705079
v 0.02717831 -0.04304148 0.00435083
v 0.02607711 -0.04378417 0.00615080
v 0.02562501 -0.04402161 0.00615080
v 0.02562178 -0.04401885 0.00435083
v 0.02475309 -0.04441366 0.00345085
v 0.02412983 -0.04464834 0.00525082
v 0.02412660 -0.04464558 0.00435083
v 0.02410400 -0.04464006 0.00165088
v 0.02366158 -0.04477811 0.00255086
v 0.02367773 -0.04478086 0.00435083
v 0.01250429 -0.04518396 0.00974918
v 0.02295113 -0.04495756 0.00794921
v 0.02295113 -0.04495756 0.00884920
v 0.02205015 -0.04508733 0.00974918
v 0.02115240 -0.04515359 0.00974918
v 0.02115240 -0.04509561 0.01064917
v 0.02025142 -0.04512322 0.01064917
v 0.01250429 -0.02679619 0.01540109
v 0.02475309 -0.01698938 0.01544022
v 0.04091583 -0.02622192 0.01441502
v 0.04114188 -0.02734009 0.01356981
v 0.04088676 -0.02708333 0.01395955
v 0.04054446 -0.02764656 0.01383120
v 0.04091583 -0.02527492 0.01480788
v 0.04059289 -0.02590441 0.01474214
v 0.04024413 -0.02824568 0.01356981
v 0.03995672 -0.02885861 0.01327086
v 0.03966931 -0.02947153 0.01297035
v 0.02887047 -0.04026951 0.01297035
v 0.02797272 -0.04116681 0.01297035
v 0.02816325 -0.04135456 0.01244914
v 0.04184910 -0.01698938 0.01514283
v 0.04094812 -0.01698938 0.01537448
v 0.04004714 -0.01995186 0.01546839
v 0.04004714 -0.02085192 0.01546683
v 0.04004714 -0.02175198 0.01545900
v 0.04004714 -0.02265204 0.01543865
v 0.04004714 -0.02355210 0.01537918
v 0.04004714 -0.02445217 0.01527118
v 0.04004714 -0.02535223 0.01508805
v 0.02787261 -0.04197024 0.01193888
v 0.02746895 -0.04246169 0.01158359
v 0.02690059 -0.04282613 0.01182932
v 0.02658088 -0.04314916 0.01153820
v 0.02539250 -0.04389737 0.01138950
v 0.02599315 -0.04373723 0.01064917
v 0.02655182 -0.04338936 0.01064917
v 0.02655182 -0.04346390 0.00974918
v 0.02607065 -0.04378141 0.00884920
v 0.02607388 -0.04378417 0.00705079
v 0.02562501 -0.04402161 0.00705079
v 0.02475309 -0.04442747 0.00884920
v 0.02475309 -0.04442470 0.00705079
v 0.02413952 -0.04465386 0.00794921
v 0.02368096 -0.04478086 0.00525082
v 0.01250429 -0.04512322 0.01064917
v 0.02368742 -0.04477811 0.00794921
v 0.02368742 -0.04477534 0.00884920
v 0.02366804 -0.04476982 0.00974918
v 0.02295113 -0.04494652 0.00974918
v 0.02205015 -0.04502935 0.01064917
v 0.02115240 -0.04490510 0.01154915
v 0.02025142 -0.04493271 0.01154915
v 0.01250429 -0.04504868 0.01100290
v 0.01250429 -0.02715235 0.01544022
v 0.02501144 -0.01698938 0.01546057
v 0.04030549 -0.02650353 0.01460597
v 0.04002131 -0.02712474 0.01442754
v 0.03998578 -0.02798891 0.01396268
v 0.03754442 -0.03094587 0.01356981
v 0.03728607 -0.03068910 0.01396268
v 0.02884787 -0.03934460 0.01383120
v 0.04002131 -0.02622192 0.01483449
v 0.03970483 -0.02680724 0.01474527
v 0.02826013 -0.04055665 0.01327086
v 0.02764010 -0.04084378 0.01356981
v 0.02703945 -0.04113368 0.01382651
v 0.02733978 -0.04145119 0.01325365
v 0.02704268 -0.04203098 0.01293748
v 0.02768531 -0.04180459 0.01244914
v 0.04004714 -0.01698938 0.01546839
v 0.03914939 -0.02175198 0.01549500
v 0.03914939 -0.02265204 0.01548717
v 0.03914939 -0.02355210 0.01546683
v 0.03914939 -0.02445217 0.01541205
v 0.03914939 -0.02535223 0.01529622
v 0.03914939 -0.02625229 0.01509744
v 0.02723321 -0.04219388 0.01244914
v 0.02658088 -0.04266600 0.01249296
v 0.02630316 -0.04302767 0.01222062
v 0.02567668 -0.04365717 0.01163367
v 0.02519228 -0.04379521 0.01198897
v 0.02483705 -0.04406578 0.01163367
v 0.02475309 -0.04434464 0.01064917
v 0.02554428 -0.04398020 0.01064917
v 0.02605774 -0.04377313 0.00974918
v 0.02560886 -0.04401609 0.00974918
v 0.02561855 -0.04402161 0.00884920
v 0.02475309 -0.04441642 0.00974918
v 0.02413952 -0.04465386 0.00884920
v 0.02411692 -0.04464834 0.00974918
v 0.02355179 -0.04473945 0.01064917
v 0.02295113 -0.04488302 0.01064917
v 0.02295113 -0.04476430 0.01130968
v 0.02204046 -0.04481676 0.01161019
v 0.02173368 -0.04471184 0.01202810
v 0.02115240 -0.04473117 0.01207506
v 0.02025142 -0.04474773 0.01210636
v 0.01250429 -0.04486093 0.01176828
v 0.01250429 -0.04493271 0.01154915
v 0.01250429 -0.02769625 0.01547622
v 0.02565084 -0.01698938 0.01548561
v 0.03940451 -0.02740912 0.01460597
v 0.03912356 -0.02802481 0.01442754
v 0.02854754 -0.03994372 0.01356981
v 0.02828919 -0.03968419 0.01396268
v 0.03642385 -0.03072499 0.01442754
v 0.02742697 -0.03972285 0.01442754
v 0.02794689 -0.04024466 0.01383120
v 0.03912356 -0.02712474 0.01483605
v 0.03790610 -0.02860736 0.01474527
v 0.02738498 -0.04058426 0.01395955
v 0.02652276 -0.04061463 0.01441502
v 0.02655182 -0.04132971 0.01396268
v 0.02606097 -0.04197300 0.01377642
v 0.02655182 -0.04177974 0.01358547
v 0.02655182 -0.04221044 0.01313469
v 0.02601898 -0.04284822 0.01282165
v 0.03914939 -0.01698938 0.01549500
v 0.03644968 -0.02535223 0.01549343
v 0.03824841 -0.02355210 0.01549343
v 0.03374997 -0.02715235 0.01549500
v 0.03824841 -0.02445217 0.01547465
v 0.03824841 -0.02535223 0.01541518
v 0.03824841 -0.02625229 0.01529779
v 0.03644968 -0.02805241 0.01529779
v 0.03644968 -0.02895248 0.01509744
v 0.02569282 -0.04322922 0.01249296
v 0.02483705 -0.04366545 0.01249453
v 0.02459162 -0.04391946 0.01222531
v 0.02541833 -0.04302491 0.01305800
v 0.02378107 -0.04449097 0.01147715
v 0.02343553 -0.04470632 0.01112811
v 0.02400066 -0.04461245 0.01064917
v 0.02295113 -0.04462073 0.01176045
v 0.02233433 -0.04468147 0.01195141
v 0.02204046 -0.04450201 0.01237557
v 0.02115240 -0.04451029 0.01252427
v 0.02025142 -0.04452686 0.01255714
v 0.01250429 -0.04474773 0.01210636
v 0.01250429 -0.02805241 0.01548874
v 0.02591242 -0.01698938 0.01549187
v 0.03760578 -0.02920924 0.01460597
v 0.02680371 -0.04000446 0.01460597
v 0.02860890 -0.03820434 0.01460597
v 0.02770792 -0.03910440 0.01460597
v 0.03642385 -0.02982493 0.01483605
v 0.02890922 -0.03760522 0.01474527
v 0.02620306 -0.04029160 0.01474214
v 0.02582523 -0.04089072 0.01459032
v 0.02564438 -0.04154230 0.01425850
v 0.02574126 -0.04250310 0.01341799
v 0.02546031 -0.04215798 0.01392668
v 0.02490810 -0.04275710 0.01365903
v 0.02655182 -0.01698938 0.01549500
v 0.03644968 -0.02625229 0.01547465
v 0.03374997 -0.02805241 0.01549343
v 0.03014928 -0.03075260 0.01549500
v 0.03644968 -0.02715235 0.01541518
v 0.03374997 -0.03075260 0.01529779
v 0.02745280 -0.03794757 0.01509744
v 0.02742697 -0.03882279 0.01483605
v 0.02417181 -0.04375380 0.01282478
v 0.02386180 -0.04402989 0.01249453
v 0.02466590 -0.04312983 0.01335538
v 0.02295113 -0.04430598 0.01244914
v 0.02205015 -0.04401609 0.01319417
v 0.02295113 -0.04393602 0.01308617
v 0.02115240 -0.04406026 0.01324895
v 0.02025142 -0.04407683 0.01326773
v 0.01250429 -0.04435016 0.01283730
v 0.01250429 -0.04452686 0.01255714
v 0.01250429 -0.02859632 0.01549500
v 0.01305004 -0.02805241 0.01549500
v 0.02710726 -0.03940534 0.01474527
v 0.02652276 -0.03972285 0.01483449
v 0.02565084 -0.03974770 0.01508805
v 0.02557657 -0.04061463 0.01480788
v 0.02522457 -0.04111435 0.01470771
v 0.02475309 -0.04170243 0.01452302
v 0.02466590 -0.04245340 0.01401902
v 0.02430744 -0.04290067 0.01380146
v 0.03374997 -0.02895248 0.01547465
v 0.02475309 -0.03704751 0.01549343
v 0.02475309 -0.03614745 0.01549500
v 0.03374997 -0.02985254 0.01541518
v 0.02745280 -0.03704751 0.01529779
v 0.02655182 -0.03884763 0.01509744
v 0.02386180 -0.04348323 0.01330686
v 0.02357116 -0.04385319 0.01297817
v 0.02205015 -0.04365993 0.01364338
v 0.02115240 -0.04370963 0.01369972
v 0.02295113 -0.04357434 0.01353695
v 0.02025142 -0.04372619 0.01371694
v 0.01250429 -0.04393878 0.01344460
v 0.01250429 -0.04407683 0.01326773
v 0.01250429 -0.03884763 0.01549500
v 0.02565084 -0.03884763 0.01529622
v 0.02475309 -0.03974770 0.01527118
v 0.02475309 -0.04064776 0.01501449
v 0.02475309 -0.04125240 0.01477814
v 0.02404587 -0.04188741 0.01463571
v 0.02378752 -0.04236781 0.01436650
v 0.02385211 -0.04298626 0.01388129
v 0.02475309 -0.03794757 0.01547465
v 0.02385211 -0.03794757 0.01549343
v 0.02205015 -0.03884763 0.01549500
v 0.02745280 -0.03614745 0.01541518
v 0.02655182 -0.03794757 0.01529779
v 0.02295113 -0.04312431 0.01400337
v 0.02205015 -0.04320990 0.01407381
v 0.02115240 -0.04325959 0.01411137
v 0.02025142 -0.04327616 0.01412233
v 0.01250429 -0.04372619 0.01371694
v 0.01250429 -0.03974770 0.01546839
v 0.02565084 -0.03794757 0.01541518
v 0.02475309 -0.03884763 0.01541205
v 0.02385211 -0.03974770 0.01537918
v 0.02385211 -0.04064776 0.01518666
v 0.02378752 -0.04157267 0.01484701
v 0.02344522 -0.04201718 0.01470927
v 0.02295113 -0.04253347 0.01445258
v 0.02295113 -0.03884763 0.01548717
v 0.02385211 -0.03884763 0.01546683
v 0.02025142 -0.03974770 0.01546839
v 0.02115240 -0.03974770 0.01546683
v 0.02205015 -0.04263286 0.01452458
v 0.02115240 -0.04268532 0.01456215
v 0.02025142 -0.04270189 0.01457154
v 0.01250429 -0.04327616 0.01412233
v 0.01250429 -0.04064776 0.01537448
v 0.02295113 -0.03974770 0.01543865
v 0.02295113 -0.04064776 0.01528213
v 0.02295113 -0.04154782 0.01498475
v 0.02295113 -0.04208344 0.01474997
v 0.02205015 -0.03974770 0.01545900
v 0.02025142 -0.04064776 0.01537448
v 0.02115240 -0.04064776 0.01536665
v 0.02205015 -0.04218283 0.01480475
v 0.02115240 -0.04223529 0.01483292
v 0.02025142 -0.04225186 0.01483919
v 0.01250429 -0.04270189 0.01457154
v 0.01250429 -0.04119442 0.01523518
v 0.02205015 -0.04064776 0.01533692
v 0.02205015 -0.04154782 0.01508022
v 0.02025142 -0.04154782 0.01514440
v 0.02115240 -0.04154782 0.01513031
v 0.01250429 -0.04225186 0.01483919
v 0.01250429 -0.04154782 0.01514440
f 1 2 6
f 1 6 14
f 1 14 26
f 1 26 39
f 1 39 59
f 1 59 84
f 1 84 115
f 1 115 154
f 1 154 191
f 1 191 234
f 1 234 236
f 1 236 283
f 1 283 328
f 1 328 378
f 1 378 425
f 1 425 471
f 1 471 511
f 1 511 524
f 1 524 488
f 1 488 440
f 1 440 392
f 1 392 391
f 1 391 343
f 1 343 297
f 1 297 296
f 1 296 250
f 1 250 204
f 1 204 163
f 1 163 162
f 1 162 122
f 1 122 90
f 1 90 89
f 1 89 64
f 1 64 44
f 1 44 29
f 1 29 16
f 1 16 7
f 1 7 3
f 1 3 8
f 1 8 4
f 1 4 5
f 1 5 2
f 2 5 13
f 2 13 6
f 3 7 15
f 3 15 8
f 4 8 17
f 4 17 9
f 4 9 10
f 4 10 5
f 5 10 11
f 5 11 12
f 5 12 13
f 6 13 25
f 6 25 14
f 7 16 28
f 7 28 15
f 8 15 27
f 8 27 17
f 9 17 30
f 9 30 18
f 9 18 19
f 9 19 10
f 10 19 20
f 10 20 11
f 11 20 21
f 11 21 22
f 11 22 12
f 12 22 23
f 12 23 24
f 12 24 13
f 13 24 25
f 14 25 26
f 15 28 41
f 15 41 27
f 16 29 28
f 17 27 40
f 17 40 30
f 18 30 45
f 18 45 31
f 18 31 32
f 18 32 19
f 19 32 20
f 20 32 21
f 21 32 33
f 21 33 34
f 21 34 22
f 22 34 35
f 22 35 23
f 23 35 36
f 23 36 37
f 23 37 24
f 24 37 25
f 25 37 38
f 25 38 26
f 26 38 39
f 27 41 40
f 28 29 42
f 28 42 43
f 28 43 41
f 29 44 42
f 30 40 62
f 30 62 45
f 31 45 46
f 31 46 47
f 31 47 48
f 31 48 32
f 32 48 33
f 33 48 49
f 33 49 50
f 33 50 51
f 33 51 52
f 33 52 34
f 34 52 53
f 34 53 35
f 35 53 36
f 36 54 55
f 36 55 56
f 36 56 57
f 36 57 37
f 36 53 54
f 37 57 38
f 38 57 58
f 38 58 82
f 38 82 111
f 38 111 148
f 38 148 151
f 38 151 113
f 38 113 83
f 38 83 59
f 38 59 39
f 40 41 60
f 40 60 61
f 40 61 62
f 41 43 63
f 41 63 60
f 42 44 64
f 42 64 65
f 42 65 43
f 43 65 66
f 43 66 63
f 45 62 67
f 45 67 68
f 45 68 46
f 46 68 95
f 46 95 69
f 46 69 47
f 47 69 70
f 47 70 48
f 48 70 71
f 48 71 72
f 48 72 49
f 49 72 73
f 49 73 50
f 50 73 74
f 50 74 51
f 51 74 52
f 52 74 75
f 52 75 76
f 52 76 53
f 53 76 54
f 54 76 77
f 54 77 55
f 55 78 79
f 55 79 56
f 55 77 78
f 56 79 80
f 56 80 57
f 57 80 58
f 58 80 81
f 58 81 82
f 59 83 112
f 59 112 149
f 59 149 187
f 59 187 230
f 59 230 277
f 59 277 322
f 59 322 370
f 59 370 415
f 59 415 423
f 59 423 469
f 59 469 468
f 59 468 509
f 59 509 541
f 59 541 540
f 59 540 565
f 59 565 564
f 59 564 583
f 59 583 599
f 59 599 611
f 59 611 617
f 59 617 618
f 59 618 612
f 59 612 600
f 59 600 584
f 59 584 566
f 59 566 542
f 59 542 510
f 59 510 470
f 59 470 424
f 59 424 377
f 59 377 327
f 59 327 282
f 59 282 235
f 59 235 192
f 59 192 155
f 59 155 153
f 59 153 114
f 59 114 84
f 60 63 85
f 60 85 61
f 61 85 86
f 61 86 87
f 61 87 62
f 62 87 67
f 63 66 88
f 63 88 85
f 64 89 65
f 65 89 90
f 65 90 91
f 65 91 92
f 65 92 66
f 66 92 93
f 66 93 88
f 67 87 94
f 67 94 95
f 67 95 68
f 69 95 96
f 69 96 97
f 69 97 70
f 70 97 98
f 70 98 71
f 71 98 99
f 71 99 100
f 71 100 72
f 72 100 73
f 73 100 75
f 73 75 74
f 75 100 101
f 75 101 102
f 75 102 76
f 76 102 103
f 76 103 104
f 76 104 77
f 77 104 78
f 78 105 79
f 78 104 105
f 79 105 106
f 79 106 107
f 79 107 80
f 80 107 108
f 80 108 81
f 81 108 109
f 81 109 110
f 81 110 111
f 81 111 82
f 83 113 150
f 83 150 112
f 84 114 115
f 85 88 116
f 85 116 86
f 86 116 117
f 86 117 118
f 86 118 87
f 87 118 119
f 87 119 120
f 87 120 94
f 88 93 121
f 88 121 116
f 90 122 91
f 91 122 162
f 91 162 123
f 91 123 124
f 91 124 92
f 92 124 93
f 93 124 125
f 93 125 121
f 94 120 95
f 95 120 96
f 96 120 126
f 96 126 127
f 96 127 128
f 96 128 97
f 97 128 129
f 97 129 98
f 98 129 130
f 98 130 99
f 99 130 131
f 99 131 101
f 99 101 100
f 101 132 133
f 101 133 134
f 101 134 103
f 101 103 102
f 101 131 132
f 103 134 135
f 103 135 104
f 104 135 136
f 104 136 137
f 104 137 138
f 104 138 105
f 105 138 139
f 105 139 106
f 106 140 141
f 106 141 142
f 106 142 108
f 106 108 107
f 106 139 140
f 108 142 143
f 108 143 109
f 109 143 144
f 109 144 145
f 109 145 110
f 110 145 144
f 110 144 146
f 110 146 147
f 110 147 148
f 110 148 111
f 112 150 149
f 113 151 147
f 113 147 152
f 113 152 150
f 114 153 115
f 115 153 155
f 115 155 154
f 116 121 156
f 116 156 117
f 117 156 157
f 117 157 158
f 117 158 118
f 118 158 119
f 119 158 159
f 119 159 160
f 119 160 120
f 120 160 126
f 121 125 161
f 121 161 156
f 123 162 163
f 123 163 164
f 123 164 165
f 123 165 124
f 124 165 166
f 124 166 125
f 125 166 167
f 125 167 161
f 126 160 168
f 126 168 169
f 126 169 127
f 127 169 128
f 128 169 170
f 128 170 171
f 128 171 129
f 129 171 132
f 129 132 130
f 130 132 131
f 132 171 211
f 132 211 172
f 132 172 135
f 132 135 133
f 133 135 134
f 135 172 136
f 136 172 173
f 136 173 137
f 137 173 174
f 137 174 138
f 138 175 139
f 138 174 175
f 139 175 176
f 139 176 177
f 139 177 140
f 140 177 178
f 140 178 141
f 141 178 219
f 141 219 179
f 141 179 143
f 141 143 142
f 143 179 180
f 143 180 181
f 143 181 182
f 143 182 183
f 143 183 144
f 144 183 184
f 144 184 185
f 144 185 146
f 146 185 186
f 146 186 147
f 147 186 152
f 147 151 148
f 149 150 188
f 149 188 187
f 150 152 189
f 150 189 188
f 152 186 190
f 152 190 189
f 154 155 191
f 155 192 191
f 156 161 193
f 156 193 157
f 157 193 194
f 157 194 195
f 157 195 196
f 157 196 197
f 157 197 158
f 158 197 159
f 159 197 196
f 159 196 198
f 159 198 199
f 159 199 200
f 159 200 160
f 160 200 201
f 160 201 202
f 160 202 168
f 161 167 203
f 161 203 193
f 163 204 164
f 164 204 251
f 164 251 205
f 164 205 165
f 165 205 206
f 165 206 207
f 165 207 166
f 166 207 167
f 167 207 208
f 167 208 203
f 168 209 169
f 168 202 209
f 169 209 210
f 169 210 170
f 170 210 211
f 170 211 171
f 172 211 212
f 172 212 173
f 173 212 174
f 174 212 213
f 174 213 214
f 174 214 215
f 174 215 175
f 175 215 216
f 175 216 176
f 176 216 217
f 176 217 177
f 177 217 178
f 178 217 218
f 178 218 219
f 179 219 220
f 179 220 180
f 180 220 221
f 180 221 181
f 181 221 222
f 181 222 182
f 182 222 266
f 182 266 223
f 182 223 224
f 182 224 183
f 183 224 225
f 183 225 184
f 184 225 226
f 184 226 185
f 185 226 227
f 185 227 186
f 186 227 228
f 186 228 229
f 186 229 190
f 187 188 232
f 187 232 230
f 188 189 231
f 188 231 232
f 189 190 231
f 190 229 233
f 190 233 231
f 191 192 234
f 192 235 236
f 192 236 234
f 193 203 194
f 194 237 195
f 194 203 238
f 194 238 239
f 194 239 240
f 194 240 237
f 195 237 196
f 196 237 241
f 196 241 242
f 196 242 198
f 198 242 199
f 199 242 243
f 199 243 244
f 199 244 201
f 199 201 200
f 201 244 202
f 202 245 209
f 202 244 246
f 202 246 247
f 202 247 248
f 202 248 249
f 202 249 245
f 203 208 238
f 204 250 251
f 205 251 297
f 205 297 252
f 205 252 253
f 205 253 206
f 206 253 254
f 206 254 207
f 207 254 255
f 207 255 208
f 208 255 256
f 208 256 238
f 209 245 210
f 210 245 213
f 210 213 211
f 211 213 212
f 213 245 214
f 214 249 248
f 214 248 215
f 214 245 249
f 215 248 216
f 216 248 257
f 216 257 217
f 217 258 259
f 217 259 260
f 217 260 218
f 217 257 258
f 218 260 261
f 218 261 262
f 218 262 220
f 218 220 219
f 220 262 263
f 220 263 221
f 221 263 264
f 221 264 222
f 222 264 265
f 222 265 266
f 223 266 267
f 223 267 224
f 224 267 268
f 224 268 269
f 224 269 311
f 224 311 270
f 224 270 225
f 225 270 271
f 225 271 272
f 225 272 273
f 225 273 274
f 225 274 226
f 226 274 227
f 227 274 228
f 228 274 275
f 228 275 276
f 228 276 229
f 229 276 233
f 230 232 280
f 230 280 277
f 231 233 278
f 231 278 232
f 232 278 279
f 232 279 324
f 232 324 280
f 233 276 281
f 233 281 278
f 235 282 236
f 236 282 283
f 237 240 284
f 237 284 241
f 238 256 285
f 238 285 239
f 239 285 286
f 239 286 240
f 240 286 287
f 240 287 284
f 241 284 242
f 242 284 288
f 242 288 289
f 242 289 243
f 243 289 290
f 243 290 244
f 244 290 246
f 246 290 291
f 246 291 292
f 246 292 293
f 246 293 294
f 246 294 247
f 247 294 295
f 247 295 257
f 247 257 248
f 250 296 251
f 251 296 297
f 252 297 344
f 252 344 298
f 252 298 253
f 253 298 299
f 253 299 300
f 253 300 254
f 254 300 301
f 254 301 255
f 255 301 256
f 256 301 302
f 256 302 285
f 257 295 258
f 258 295 303
f 258 303 259
f 259 303 260
f 260 303 304
f 260 304 261
f 261 304 305
f 261 305 264
f 261 264 263
f 261 263 262
f 264 305 265
f 265 306 307
f 265 307 267
f 265 267 266
f 265 305 306
f 267 307 357
f 267 357 308
f 267 308 309
f 267 309 268
f 268 309 269
f 269 309 310
f 269 310 360
f 269 360 311
f 270 311 360
f 270 360 312
f 270 312 271
f 271 312 313
f 271 313 272
f 272 313 314
f 272 314 315
f 272 315 273
f 273 315 316
f 273 316 317
f 273 317 274
f 274 317 318
f 274 318 275
f 275 318 319
f 275 319 320
f 275 320 321
f 275 321 276
f 276 321 281
f 277 280 322
f 278 281 323
f 278 323 279
f 279 323 324
f 280 324 374
f 280 374 325
f 280 325 322
f 281 321 326
f 281 326 323
f 282 327 283
f 283 327 328
f 284 329 289
f 284 289 288
f 284 287 330
f 284 330 331
f 284 331 329
f 285 302 332
f 285 332 286
f 286 332 333
f 286 333 287
f 287 333 334
f 287 334 330
f 289 291 290
f 289 329 331
f 289 331 335
f 289 335 336
f 289 336 291
f 291 336 292
f 292 336 337
f 292 337 293
f 293 338 295
f 293 295 294
f 293 337 339
f 293 339 340
f 293 340 341
f 293 341 342
f 293 342 304
f 293 304 338
f 295 338 303
f 297 343 344
f 298 344 392
f 298 392 345
f 298 345 346
f 298 346 299
f 299 346 347
f 299 347 300
f 300 347 348
f 300 348 349
f 300 349 301
f 301 349 302
f 302 349 350
f 302 350 332
f 303 338 304
f 304 342 351
f 304 351 352
f 304 352 353
f 304 353 305
f 305 353 306
f 306 353 354
f 306 354 355
f 306 355 307
f 307 355 356
f 307 356 357
f 308 357 358
f 308 358 359
f 308 359 313
f 308 313 309
f 309 313 310
f 310 313 360
f 312 360 313
f 313 359 361
f 313 361 314
f 314 361 362
f 314 362 363
f 314 363 316
f 314 316 315
f 316 363 364
f 316 364 318
f 316 318 317
f 318 364 365
f 318 365 366
f 318 366 367
f 318 367 319
f 319 367 368
f 319 368 320
f 320 368 321
f 321 368 369
f 321 369 326
f 322 325 370
f 323 326 371
f 323 371 372
f 323 372 373
f 323 373 374
f 323 374 324
f 325 374 375
f 325 375 376
f 325 376 415
f 325 415 370
f 326 369 371
f 327 377 328
f 328 377 378
f 330 334 379
f 330 379 331
f 331 380 336
f 331 336 335
f 331 379 381
f 331 381 382
f 331 382 380
f 332 350 333
f 333 350 383
f 333 383 384
f 333 384 334
f 334 384 379
f 336 380 385
f 336 385 386
f 336 386 387
f 336 387 339
f 336 339 337
f 339 387 340
f 340 387 388
f 340 388 341
f 341 388 389
f 341 389 390
f 341 390 351
f 341 351 342
f 343 391 344
f 344 391 392
f 345 392 440
f 345 440 393
f 345 393 394
f 345 394 395
f 345 395 346
f 346 395 396
f 346 396 347
f 347 396 348
f 348 396 397
f 348 397 349
f 349 397 398
f 349 398 350
f 350 398 399
f 350 399 383
f 351 390 400
f 351 400 352
f 352 400 353
f 353 400 401
f 353 401 354
f 354 402 403
f 354 403 404
f 354 404 405
f 354 405 406
f 354 406 356
f 354 356 355
f 354 401 402
f 356 406 407
f 356 407 357
f 357 407 358
f 358 407 408
f 358 408 409
f 358 409 361
f 358 361 359
f 361 409 410
f 361 410 362
f 362 410 411
f 362 411 412
f 362 412 363
f 363 412 364
f 364 412 413
f 364 413 365
f 365 413 369
f 365 369 366
f 366 369 368
f 366 368 367
f 369 413 414
f 369 414 371
f 371 414 372
f 372 414 416
f 372 416 417
f 372 417 418
f 372 418 419
f 372 419 373
f 373 419 420
f 373 420 375
f 373 375 374
f 375 420 421
f 375 421 422
f 375 422 376
f 376 422 423
f 376 423 415
f 377 424 378
f 378 424 425
f 379 384 426
f 379 426 427
f 379 427 381
f 380 382 385
f 381 427 428
f 381 428 382
f 382 429 385
f 382 428 430
f 382 430 431
f 382 431 429
f 383 399 384
f 384 399 432
f 384 432 433
f 384 433 426
f 385 429 386
f 386 429 434
f 386 434 387
f 387 434 388
f 388 434 389
f 389 435 436
f 389 436 437
f 389 437 438
f 389 438 439
f 389 439 390
f 389 434 435
f 390 439 400
f 393 441 394
f 393 440 488
f 393 488 441
f 394 441 442
f 394 442 395
f 395 442 443
f 395 443 396
f 396 443 444
f 396 444 397
f 397 444 398
f 398 444 445
f 398 445 399
f 399 445 446
f 399 446 432
f 400 439 447
f 400 447 402
f 400 402 401
f 402 447 448
f 402 448 449
f 402 449 403
f 403 449 450
f 403 450 404
f 404 451 452
f 404 452 453
f 404 453 454
f 404 454 405
f 404 450 451
f 405 455 406
f 405 454 456
f 405 456 455
f 406 455 407
f 407 455 408
f 408 455 456
f 408 456 457
f 408 457 409
f 409 457 410
f 410 457 411
f 411 458 459
f 411 459 413
f 411 413 412
f 411 457 456
f 411 456 458
f 413 459 414
f 414 459 416
f 416 459 417
f 417 459 418
f 418 459 460
f 418 460 461
f 418 461 419
f 419 461 462
f 419 462 420
f 420 462 463
f 420 463 464
f 420 464 421
f 421 464 465
f 421 465 466
f 421 466 422
f 422 466 467
f 422 467 468
f 422 468 469
f 422 469 423
f 424 470 425
f 425 470 471
f 426 433 472
f 426 472 427
f 427 472 473
f 427 473 428
f 428 473 476
f 428 476 430
f 429 431 474
f 429 474 434
f 430 475 431
f 430 476 477
f 430 477 475
f 431 475 478
f 431 478 474
f 432 446 479
f 432 479 433
f 433 479 480
f 433 480 512
f 433 512 472
f 434 474 435
f 435 474 478
f 435 478 436
f 436 438 437
f 436 478 481
f 436 481 482
f 436 482 483
f 436 483 484
f 436 484 485
f 436 485 438
f 438 447 439
f 438 485 484
f 438 484 486
f 438 486 487
f 438 487 448
f 438 448 447
f 441 489 490
f 441 490 442
f 441 488 524
f 441 524 543
f 441 543 542
f 441 542 566
f 441 566 576
f 441 576 554
f 441 554 527
f 441 527 491
f 441 491 526
f 441 526 489
f 442 490 492
f 442 492 443
f 443 492 444
f 444 492 493
f 444 493 445
f 445 493 494
f 445 494 446
f 446 494 495
f 446 495 529
f 446 529 496
f 446 496 516
f 446 516 479
f 448 487 449
f 449 487 497
f 449 497 451
f 449 451 450
f 451 498 499
f 451 499 452
f 451 497 500
f 451 500 498
f 452 499 501
f 452 501 502
f 452 502 453
f 453 458 454
f 453 502 503
f 453 503 460
f 453 460 458
f 454 458 456
f 458 460 459
f 460 503 461
f 461 503 502
f 461 502 462
f 462 502 463
f 463 504 505
f 463 505 464
f 463 502 504
f 464 505 465
f 465 505 506
f 465 506 507
f 465 507 466
f 466 507 508
f 466 508 467
f 467 508 541
f 467 541 509
f 467 509 468
f 470 510 471
f 471 510 511
f 472 512 473
f 473 512 476
f 475 477 481
f 475 481 478
f 476 512 477
f 477 513 482
f 477 482 481
f 477 512 514
f 477 514 515
f 477 515 513
f 479 516 480
f 480 516 531
f 480 531 517
f 480 517 512
f 482 518 519
f 482 519 483
f 482 513 518
f 483 519 520
f 483 520 484
f 484 521 487
f 484 487 486
f 484 520 522
f 484 522 523
f 484 523 521
f 487 521 500
f 487 500 497
f 489 525 492
f 489 492 490
f 489 526 552
f 489 552 525
f 491 527 526
f 492 525 528
f 492 528 493
f 493 528 495
f 493 495 494
f 495 528 555
f 495 555 529
f 496 529 530
f 496 530 531
f 496 531 516
f 498 500 532
f 498 532 499
f 499 532 533
f 499 533 501
f 500 523 534
f 500 534 532
f 500 521 523
f 501 533 504
f 501 504 502
f 504 535 505
f 504 533 535
f 505 535 506
f 506 536 507
f 506 535 537
f 506 537 536
f 507 536 538
f 507 538 508
f 508 538 539
f 508 539 540
f 508 540 541
f 510 542 543
f 510 543 511
f 511 543 524
f 512 517 514
f 513 515 544
f 513 544 518
f 514 517 544
f 514 544 515
f 517 531 544
f 518 544 545
f 518 545 546
f 518 546 547
f 518 547 548
f 518 548 519
f 519 548 520
f 520 548 549
f 520 549 522
f 522 549 550
f 522 550 551
f 522 551 523
f 523 551 534
f 525 552 555
f 525 555 528
f 526 527 553
f 526 553 574
f 526 574 552
f 527 554 553
f 529 555 577
f 529 577 556
f 529 556 530
f 530 556 578
f 530 578 557
f 530 557 531
f 531 557 545
f 531 545 544
f 532 534 558
f 532 558 559
f 532 559 533
f 533 559 535
f 534 551 558
f 535 559 537
f 536 537 560
f 536 560 561
f 536 561 538
f 537 559 562
f 537 562 560
f 538 561 539
f 539 561 563
f 539 563 564
f 539 564 565
f 539 565 540
f 545 557 546
f 546 557 567
f 546 567 568
f 546 568 569
f 546 569 547
f 547 569 548
f 548 569 570
f 548 570 549
f 549 570 571
f 549 571 550
f 550 571 572
f 550 572 551
f 551 572 573
f 551 573 558
f 552 574 555
f 553 554 576
f 553 576 575
f 553 575 574
f 555 574 577
f 556 577 585
f 556 585 578
f 557 578 567
f 558 573 562
f 558 562 559
f 560 562 579
f 560 579 580
f 560 580 561
f 561 580 581
f 561 581 563
f 562 573 579
f 563 581 582
f 563 582 599
f 563 599 583
f 563 583 564
f 566 584 594
f 566 594 576
f 567 578 585
f 567 585 586
f 567 586 568
f 568 586 587
f 568 587 588
f 568 588 569
f 569 588 589
f 569 589 570
f 570 589 571
f 571 589 590
f 571 590 572
f 572 590 591
f 572 591 573
f 573 591 579
f 574 575 592
f 574 592 593
f 574 593 586
f 574 586 585
f 574 585 577
f 575 576 592
f 576 594 595
f 576 595 592
f 579 591 596
f 579 596 580
f 580 596 597
f 580 597 581
f 581 597 582
f 582 597 598
f 582 598 611
f 582 611 599
f 584 600 606
f 584 606 594
f 586 593 601
f 586 601 587
f 587 601 602
f 587 602 588
f 588 602 614
f 588 614 603
f 588 603 589
f 589 603 590
f 590 603 604
f 590 604 591
f 591 604 596
f 592 595 605
f 592 605 601
f 592 601 593
f 594 606 595
f 595 606 607
f 595 607 605
f 596 604 608
f 596 608 597
f 597 608 609
f 597 609 598
f 598 609 610
f 598 610 617
f 598 617 611
f 600 612 606
f 601 605 607
f 601 607 613
f 601 613 602
f 602 613 614
f 603 614 608
f 603 608 604
f 606 615 607
f 606 612 615
f 607 616 613
f 607 615 616
f 608 614 609
f 609 614 616
f 609 616 615
f 609 615 610
f 610 615 618
f 610 618 617
f 612 618 615
f 613 616 614

