# https://github.com/mikedh/trimesh
v 0.01127222 0.01152971 -0.00049500
v 0.01485156 0.00657353 -0.00049500
v 0.01442774 0.00657353 -0.00048717
v 0.01395049 0.00705047 -0.00047778
v 0.01037115 0.01152971 -0.00042144
v 0.04364656 0.01152971 -0.00049500
v 0.04364656 0.00657353 -0.00049500
v 0.01395049 0.00657353 -0.00041048
v 0.00951995 0.01152971 -0.00007240
v 0.04454763 0.01152971 -0.00046839
v 0.04412381 0.00657353 -0.00048091
v 0.01355873 0.00657353 -0.00020701
v 0.00950214 0.01152971 -0.00005988
v 0.01321682 0.00657353 0.00001838
v 0.04456544 0.01152971 -0.00045900
v 0.04454763 0.00657353 -0.00046839
v 0.00916023 0.01152971 0.00055211
v 0.01308860 0.00657353 0.00038933
v 0.04524569 0.01152971 -0.00007083
v 0.04524569 0.00657353 -0.00007083
v 0.00911393 0.01152971 0.00075089
v 0.01301737 0.00657353 0.00075089
v 0.04525281 0.01152971 -0.00005205
v 0.04549500 0.00657353 0.00075089
v 0.00911393 0.01152971 0.00165088
v 0.01302094 0.00657353 0.00118602
v 0.04549500 0.01152971 0.00075089
v 0.04549500 0.00657353 0.00884920
v 0.00914599 0.01152971 0.00255086
v 0.01303874 0.00657353 0.00204844
v 0.01305299 0.00657353 0.00256025
v 0.04549500 0.01152971 0.00884920
v 0.04548432 0.00657353 0.00974918
v 0.00922790 0.01152971 0.00322233
v 0.01312778 0.00657353 0.00342111
v 0.04548432 0.01152971 0.00974918
v 0.04542021 0.01064958 0.01064917
v 0.04544870 0.00657353 0.01022656
v 0.00925996 0.01152971 0.00345085
v 0.01333079 0.00657353 0.00426318
v 0.04542021 0.01152971 0.01064917
v 0.04522789 0.01064958 0.01154915
v 0.04541664 0.00657353 0.01064917
v 0.00953063 0.01152971 0.00424910
v 0.01351955 0.00657353 0.00475152
v 0.04522789 0.01152971 0.01154915
v 0.04522432 0.01152971 0.01156167
v 0.04504625 0.01152971 0.01210323
v 0.04522432 0.00795000 0.01154915
v 0.04531336 0.00657353 0.01112655
v 0.00956625 0.01152971 0.00432110
v 0.01382940 0.00657353 0.00531499
v 0.04482543 0.01152971 0.01255400
v 0.04482543 0.00885002 0.01254931
v 0.04504268 0.00795000 0.01209853
v 0.04522076 0.00657353 0.01154915
v 0.01022513 0.01152971 0.00530247
v 0.01423542 0.00657353 0.00589411
v 0.04437668 0.01152971 0.01326773
v 0.04437312 0.00657353 0.01326617
v 0.04482187 0.00657353 0.01254618
v 0.04492516 0.00657353 0.01233488
v 0.04512460 0.00657353 0.01183871
v 0.04503912 0.00657353 0.01209540
v 0.01026787 0.01152971 0.00535256
v 0.01460582 0.00657353 0.00630576
v 0.04402409 0.00885002 0.01371694
v 0.04402409 0.00705047 0.01371538
v 0.04402409 0.01152971 0.01371694
v 0.04418792 0.00657353 0.01350408
v 0.01032129 0.01152971 0.00540577
v 0.01509019 0.00657353 0.00676436
v 0.01111195 0.01152971 0.00618054
v 0.04357533 0.01152971 0.01412076
v 0.04378546 0.00657353 0.01392668
v 0.04402053 0.00657353 0.01371538
v 0.01575619 0.00657353 0.00722766
v 0.01212343 0.01152923 0.00690523
v 0.01117962 0.01152971 0.00623689
v 0.04299480 0.01152971 0.01456997
v 0.04299480 0.01064958 0.01456997
v 0.04357177 0.00657353 0.01411607
v 0.02702489 0.00657353 0.01468580
v 0.02534740 0.01137736 0.01461223
v 0.02552904 0.01152971 0.01474527
v 0.01212343 0.01152971 0.00690523
v 0.04254605 0.01152971 0.01483449
v 0.04253893 0.00657353 0.01482979
v 0.04299124 0.00795000 0.01456684
v 0.04298768 0.00705047 0.01456684
v 0.04298768 0.00657353 0.01456528
v 0.02744871 0.00657353 0.01488614
v 0.02567863 0.01152971 0.01482666
v 0.04184799 0.01152971 0.01513814
v 0.04184799 0.00795000 0.01513501
v 0.04184799 0.00657353 0.01513344
v 0.04274906 0.00657353 0.01470614
v 0.02834978 0.00657353 0.01522422
v 0.02655120 0.01152971 0.01516318
v 0.04094692 0.00795000 0.01537448
v 0.04094692 0.01152971 0.01537448
v 0.04094692 0.00657353 0.01537292
v 0.02924728 0.00657353 0.01541518
v 0.02744871 0.01152971 0.01537448
v 0.04004941 0.00974956 0.01546839
v 0.04004941 0.00657353 0.01546683
v 0.04046968 0.00657353 0.01542300
v 0.04004941 0.01152971 0.01546839
v 0.02924728 0.00705047 0.01542926
v 0.02834978 0.01064958 0.01544335
v 0.03014835 0.00657353 0.01548248
v 0.02834978 0.01152971 0.01546526
v 0.03914835 0.00657353 0.01549500
v 0.03914835 0.01152971 0.01549500
v 0.03104942 0.00657353 0.01549500
v 0.03014835 0.00705047 0.01548874
v 0.02924728 0.01064958 0.01549187
v 0.02922947 0.01152971 0.01549343
v 0.03014835 0.01152971 0.01549500
v 0.03014835 0.00885002 0.01549500
v 0.03014835 0.00795000 0.01549343
f 1 2 3
f 1 3 4
f 1 4 5
f 1 5 9
f 1 9 13
f 1 13 17
f 1 17 21
f 1 21 25
f 1 25 29
f 1 29 34
f 1 34 39
f 1 39 44
f 1 44 51
f 1 51 57
f 1 57 65
f 1 65 71
f 1 71 73
f 1 73 79
f 1 79 86
f 1 86 85
f 1 85 93
f 1 93 99
f 1 99 104
f 1 104 112
f 1 112 118
f 1 118 119
f 1 119 114
f 1 114 108
f 1 108 101
f 1 101 94
f 1 94 87
f 1 87 80
f 1 80 74
f 1 74 69
f 1 69 59
f 1 59 53
f 1 53 48
f 1 48 47
f 1 47 46
f 1 46 41
f 1 41 36
f 1 36 32
f 1 32 27
f 1 27 23
f 1 23 19
f 1 19 15
f 1 15 10
f 1 10 6
f 1 6 7
f 1 7 2
f 2 7 11
f 2 11 16
f 2 16 20
f 2 20 24
f 2 24 28
f 2 28 33
f 2 33 38
f 2 38 43
f 2 43 50
f 2 50 56
f 2 56 63
f 2 63 64
f 2 64 62
f 2 62 61
f 2 61 60
f 2 60 70
f 2 70 76
f 2 76 75
f 2 75 82
f 2 82 91
f 2 91 97
f 2 97 88
f 2 88 96
f 2 96 102
f 2 102 107
f 2 107 106
f 2 106 113
f 2 113 115
f 2 115 111
f 2 111 103
f 2 103 98
f 2 98 92
f 2 92 83
f 2 83 77
f 2 77 72
f 2 72 66
f 2 66 58
f 2 58 52
f 2 52 45
f 2 45 40
f 2 40 35
f 2 35 31
f 2 31 30
f 2 30 26
f 2 26 22
f 2 22 18
f 2 18 14
f 2 14 12
f 2 12 8
f 2 8 3
f 3 8 4
f 4 8 5
f 5 8 9
f 6 10 11
f 6 11 7
f 8 12 9
f 9 12 14
f 9 14 13
f 10 15 16
f 10 16 11
f 13 14 17
f 14 18 17
f 15 19 20
f 15 20 16
f 17 18 21
f 18 22 21
f 19 23 20
f 20 23 24
f 21 22 25
f 22 26 25
f 23 27 24
f 24 27 32
f 24 32 28
f 25 26 30
f 25 30 31
f 25 31 29
f 28 32 36
f 28 36 33
f 29 31 35
f 29 35 34
f 33 36 41
f 33 41 37
f 33 37 38
f 34 35 39
f 35 40 39
f 37 41 46
f 37 46 42
f 37 42 43
f 37 43 38
f 39 40 44
f 40 45 44
f 42 46 47
f 42 47 48
f 42 48 49
f 42 49 43
f 43 49 50
f 44 45 51
f 45 52 51
f 48 53 54
f 48 54 55
f 48 55 49
f 49 55 56
f 49 56 50
f 51 52 57
f 52 58 57
f 53 59 60
f 53 60 54
f 54 60 61
f 54 61 62
f 54 62 55
f 55 63 56
f 55 62 64
f 55 64 63
f 57 58 65
f 58 66 65
f 59 67 68
f 59 68 60
f 59 69 67
f 60 68 70
f 65 66 71
f 66 72 73
f 66 73 71
f 67 74 68
f 67 69 74
f 68 74 75
f 68 75 76
f 68 76 70
f 72 77 78
f 72 78 79
f 72 79 73
f 74 80 81
f 74 81 82
f 74 82 75
f 77 83 78
f 78 84 85
f 78 85 86
f 78 86 79
f 78 83 84
f 80 87 81
f 81 87 88
f 81 88 89
f 81 89 82
f 82 89 90
f 82 90 91
f 83 92 93
f 83 93 85
f 83 85 84
f 87 94 95
f 87 95 96
f 87 96 88
f 88 97 90
f 88 90 89
f 90 97 91
f 92 98 99
f 92 99 93
f 94 100 95
f 94 101 100
f 95 100 102
f 95 102 96
f 98 103 104
f 98 104 99
f 100 101 108
f 100 108 105
f 100 105 106
f 100 106 107
f 100 107 102
f 103 109 110
f 103 110 104
f 103 111 109
f 104 110 112
f 105 108 114
f 105 114 113
f 105 113 106
f 109 112 110
f 109 111 112
f 111 115 116
f 111 116 112
f 112 117 118
f 112 116 117
f 113 114 119
f 113 119 120
f 113 120 115
f 115 120 121
f 115 121 116
f 116 121 117
f 117 121 118
f 118 121 120
f 118 120 119

